<?xml version="1.0" encoding="utf-8"?>
<!-- Generator: Adobe Illustrator 24.1.2, SVG Export Plug-In . SVG Version: 6.00 Build 0)  -->
<svg version="1.1" id="Layer_1" xmlns="http://www.w3.org/2000/svg" xmlns:xlink="http://www.w3.org/1999/xlink" x="0px" y="0px"
	 viewBox="0 0 450 475.1" style="enable-background:new 0 0 450 475.1;" xml:space="preserve">
<style type="text/css">
	.st0{fill:#1C5AA7;}
	.st1{fill:#2098D4;}
	.st2{fill:#FFFFFF;}
	.st3{fill:#89898B;}
	.st4{fill:#828284;}
</style>
<g>
	<path class="st0" d="M1767.3,119.4l0.6-0.9l-3.6-2.5l-4.4,6.4l1,0.1C1763.4,122.6,1765.8,121.4,1767.3,119.4 M1783.9,121.9l-1,1.4
		l-1.8,2.7c-2.9,4.3-6.1,4.7-10,2l-3.2-2.2l-3.1-2.1c-2.4,1.5-6.4,1-6.4,1l10.3,7c6.5,4.5,11.6,3.4,15.4-2.1l11-16.1l-3.6-2.5
		L1783.9,121.9L1783.9,121.9z"/>
	<path class="st0" d="M1796.6,103.6l-0.6,0.9l3.6,2.5l4.4-6.4l-1-0.1C1800.5,100.5,1798.1,101.6,1796.6,103.6 M1780,101.1l1-1.4
		l1.8-2.7c2.9-4.3,6.1-4.7,10-2l3.2,2.2l3.1,2.1c2.4-1.5,6.4-1,6.4-1l-10.3-7c-6.5-4.5-11.6-3.4-15.4,2.1l-11,16.1l3.6,2.5
		L1780,101.1L1780,101.1z M1591.1,133.6v-8.9c0-3.5-1.8-5.4-5.9-5.4h-2.7c-1.1,0-1.9-0.2-2.1-0.8c-0.4,1.7,0.4,2.4,1.7,2.4h3.1
		c2.4,0,3.7,1.1,3.7,3.7v1.7l-5.5,0.5c-4,0.4-5.6,2.1-5.6,5c0,3.3,2,5,5.2,5c1.4,0,2.7-0.1,3.8-0.3c1.8-0.3,1.2-2.3,1.2-2.3
		c-0.1,0.4-0.8,0.6-0.8,0.6c-1.3,0.3-2.6,0.5-4.2,0.5c-1.8,0-3-1.4-3-3.5c0-2,0.9-3.3,3.5-3.5l5.3-0.4v6.3c0,1.9,0.9,3,3.3,2.4
		C1591.3,136.3,1591.1,135.2,1591.1,133.6 M1622.6,133.6v-8.9c0-3.5-1.8-5.4-5.9-5.4h-2.7c-1.1,0-1.9-0.2-2.1-0.8
		c-0.4,1.7,0.4,2.4,1.7,2.4h3.1c2.4,0,3.7,1.1,3.7,3.7v1.7l-5.5,0.5c-4,0.4-5.6,2.1-5.6,5c0,3.3,2,5,5.2,5c1.4,0,2.7-0.1,3.8-0.3
		c1.8-0.3,1.2-2.3,1.2-2.3c0,0.4-0.7,0.6-0.7,0.6c-1.3,0.3-2.7,0.5-4.2,0.5c-1.8,0-3-1.4-3-3.5c0-2,0.9-3.3,3.5-3.5l5.3-0.4v6.3
		c0,1.9,0.9,3,3.3,2.4C1622.8,136.3,1622.6,135.2,1622.6,133.6 M1578.1,118.5c-0.2,0.6-1,0.8-2.1,0.8h-2.7c-4.1,0-5.9,1.9-5.9,5.4
		v8.9c0,1.6-0.3,2.7-1.1,3c2.4,0.6,3.4-0.5,3.4-2.4v-9.6c0-2.7,1.2-3.7,3.7-3.7h3.1C1577.7,120.9,1578.5,120.2,1578.1,118.5
		 M1605.3,121.9v12.5c-1.1,0.4-3,0.8-4.9,0.8c-3.7,0-4.5-2-4.5-6.9V122c0-1.9-1-3-3.4-2.4c0.8,0.3,1.1,1.4,1.1,3v5.7
		c0,5.7,1.3,8.4,6.8,8.4c1.9,0,3.7-0.5,4.9-0.8l0,0v1.4c0,2.7-1.2,3.7-3.7,3.7h-3.1c-1.3,0-2.1,0.7-1.7,2.4c0.2-0.6,1-0.8,2.1-0.8
		h2.7c4.1,0,5.9-1.9,5.9-5.4v-14.6c0-1.6,0.3-2.7,1.1-3C1606.2,119,1605.3,120,1605.3,121.9 M1678.3,133.6v-9c0-3.5-1.8-5.4-5.9-5.4
		h-2.7c-1.1,0-1.9-0.2-2.1-0.8c-0.4,1.7,0.4,2.4,1.7,2.4h3.1c2.4,0,3.7,1.1,3.7,3.7v1.7l-5.5,0.5c-4,0.4-5.6,2.1-5.6,5
		c0,3.3,2,5,5.2,5c1.4,0,2.7-0.1,3.8-0.3c1.8-0.3,1.2-2.3,1.2-2.3c-0.1,0.4-0.7,0.6-0.7,0.6c-1.3,0.3-2.6,0.5-4.2,0.5
		c-1.8,0-3-1.4-3-3.5c0-2,0.9-3.3,3.5-3.5l5.3-0.4v6.3c0,1.9,0.9,3,3.3,2.4C1678.5,136.3,1678.3,135.2,1678.3,133.6 M1640,113.9
		h-2.7c-4.1,0-5.9,1.9-5.9,5.4v14.5c0,1.6-0.3,2.7-1.1,3c2.4,0.6,3.3-0.5,3.3-2.4v-7.9h6.1c1.3,0,2.1-0.7,1.7-2.4
		c-0.2,0.6-1,0.8-2.1,0.8h-5.7v-5.5c0-2.7,1.2-3.7,3.7-3.7h3c1.3,0,2.1-0.7,1.7-2.4C1641.9,113.7,1641.2,113.9,1640,113.9
		 M1645.8,117.4c0.7,0,1.3-0.6,1.3-1.3s-0.6-1.3-1.3-1.3s-1.3,0.6-1.3,1.3S1645,117.4,1645.8,117.4 M1646.9,133.9v-12
		c0-1.9-0.9-3-3.3-2.4c0.8,0.3,1.1,1.4,1.1,3v12c0,1.9,0.9,3,3.3,2.4C1647.1,136.6,1646.9,135.5,1646.9,133.9"/>
	<g>
		<path id="B" class="st0" d="M1662.9,133.6v-8.9c0-3.5-1.8-5.4-5.9-5.4h-7.1c-0.3,0-0.5,0.1-0.8,0.1c0.8,0.3,1.1,1.4,1.1,3v12
			c0,1.9,0.9,3,3.3,2.4c-0.8-0.3-1.1-1.4-1.1-3v-12c0-0.4,0-0.7-0.1-1h4.7c2.4,0,3.7,1.1,3.7,3.7v9.5c0,1.9,0.9,3,3.3,2.4
			C1663.2,136.3,1662.9,135.2,1662.9,133.6"/>
	</g>
	<path class="st0" d="M1710.9,117.4c0.7,0,1.3-0.6,1.3-1.3s-0.6-1.3-1.3-1.3s-1.3,0.6-1.3,1.3S1710.2,117.4,1710.9,117.4
		 M1712,133.9v-12c0-1.9-0.9-3-3.3-2.4c0.8,0.3,1.1,1.4,1.1,3v12c0,1.9,0.9,3,3.3,2.4C1712.3,136.6,1712,135.5,1712,133.9
		 M1728,133.6v-8.8c0-3.5-1.8-5.4-5.9-5.4h-7.2c-0.3,0-0.5,0.1-0.8,0.1c0.8,0.3,1.1,1.4,1.1,3v12c0,1.9,0.9,3,3.3,2.4
		c-0.8-0.3-1.1-1.4-1.1-3v-12c0-0.4,0-0.7-0.1-1h4.7c2.4,0,3.7,1.1,3.7,3.7v9.5c0,1.9,0.9,3,3.4,2.4
		C1728.2,136.3,1728,135.2,1728,133.6"/>
	<g>
		<path id="B_1_" class="st0" d="M1693.8,133.6v-8.9c0-3.5-1.8-5.4-5.9-5.4h-7.1c-0.3,0-0.5,0.1-0.8,0.1c0.8,0.3,1.1,1.4,1.1,3v12
			c0,1.9,0.9,3,3.3,2.4c-0.8-0.3-1.1-1.4-1.1-3v-12c0-0.4,0-0.7-0.1-1h4.7c2.4,0,3.7,1.1,3.7,3.7v9.5c0,1.9,0.9,3,3.3,2.4
			C1694.1,136.3,1693.8,135.2,1693.8,133.6"/>
	</g>
	<path class="st0" d="M1702.1,120.9h3.1c1.3,0,2.1-0.7,1.7-2.4c-0.2,0.6-1,0.8-2.1,0.8h-2.7c-4.1,0-5.9,1.9-5.9,5.4v6.5
		c0,3.5,1.8,5.4,5.9,5.4h2.7c1.1,0,1.9,0.2,2.1,0.8c0.4-1.7-0.4-2.4-1.7-2.4h-3.1c-2.4,0-3.7-1.1-3.7-3.7v-6.6
		C1698.4,122,1699.6,120.9,1702.1,120.9 M1741.6,134.4c-1.1,0.4-3,0.8-4.9,0.8c-3.7,0-4.5-2-4.5-6.9v-3.7c0-2.7,1.2-3.7,3.7-3.7h5.8
		c-0.1,0.3-0.1,0.6-0.1,1V134.4L1741.6,134.4z M1744.9,119.5c-0.3-0.1-0.6-0.1-0.8-0.1l0,0h-8.3c-4.1,0-5.9,1.9-5.9,5.4l-0.1,3.7
		c0,5.7,1.3,8.4,6.8,8.4c1.9,0,3.8-0.5,4.9-0.8l0,0v1.4c0,2.7-1.2,3.7-3.7,3.7h-3.1c-1.3,0-2.1,0.7-1.7,2.4c0.2-0.6,1-0.8,2.1-0.8
		h2.7c4.1,0,5.9-1.9,5.9-5.4V134l0.2-13.6C1744.3,119.9,1744.5,119.6,1744.9,119.5 M1727.6,82.4v19c0,1.8-0.3,3-1.3,3.4
		c2.8,0.6,3.8-0.6,3.8-2.7V83c0-1.8,0.3-3,1.3-3.4C1728.6,79,1727.6,80.3,1727.6,82.4 M1741.1,88v10.8c0,3-1.4,4.2-4.1,4.2h-1.6
		c-1.5,0-2.4,0.7-1.9,2.7c0.2-0.7,1.1-0.9,2.4-0.9h1.2c4.6,0,6.7-2.1,6.7-6.1V88.6c0-1.8,0.3-3,1.3-3.4
		C1742.2,84.6,1741.1,85.8,1741.1,88"/>
	<path class="st0" d="M1720.5,88v10.9c0,3-1.4,4.2-4.1,4.2h-8.8c-4.2,0-5.1-2.2-5.1-7.7v-10h-6.6c-5.1,0-8.2,2.4-8.2,9.8
		c0,6,1.8,9.7,8.4,9.8h1.2c1.2,0,2.1,0.2,2.3,0.9c0.4-1.9-0.4-2.6-1.8-2.6h-1.6c-4.4,0-5.8-2.6-5.8-7.4v-1.4c0-5.3,1.8-7.3,5.6-7.3
		h4v8.3c0,6.5,1.5,9.5,7.7,9.5h8.8c4.6,0,6.7-2.1,6.7-6.1V88.6c0-1.8,0.3-3,1.3-3.4C1721.5,84.6,1720.5,85.8,1720.5,88"/>
	<g>
		<path id="C" class="st0" d="M1694.3,83.7c0.8,0,1.5-0.7,1.5-1.5c0-0.8-0.7-1.5-1.5-1.5c-0.8,0-1.5,0.7-1.5,1.5
			C1692.8,83,1693.4,83.7,1694.3,83.7C1694.3,83.7,1694.3,83.7,1694.3,83.7"/>
	</g>
	<g>
		<path id="C_1_" class="st0" d="M1698.2,83.7c0.8,0,1.5-0.7,1.5-1.5c0-0.8-0.7-1.5-1.5-1.5c-0.8,0-1.5,0.7-1.5,1.5
			C1696.7,83,1697.3,83.7,1698.2,83.7C1698.2,83.7,1698.2,83.7,1698.2,83.7"/>
	</g>
	<g>
		<path id="C_2_" class="st0" d="M1652.5,83.7c0.8,0,1.5-0.7,1.5-1.5c0-0.8-0.7-1.5-1.5-1.5c-0.8,0-1.5,0.7-1.5,1.5
			C1651,83,1651.6,83.7,1652.5,83.7C1652.5,83.7,1652.5,83.7,1652.5,83.7"/>
	</g>
	<path class="st0" d="M1656.4,83.7c0.8,0,1.5-0.7,1.5-1.5c0-0.8-0.7-1.5-1.5-1.5c-0.8,0-1.5,0.7-1.5,1.5
		C1654.9,83.1,1655.5,83.7,1656.4,83.7 M1687.6,95.2v-0.3V95.2z M1644.3,94.9v0.3V94.9z"/>
	<path class="st0" d="M1615.1,102.1c-1.3,0.4-3.3,1-5.5,1c-4.2,0-5.1-2.3-5.1-7.8v-4.2c0-3,1.4-4.2,4.1-4.2h6.5
		c-0.1,0.3-0.1,0.7-0.1,1.1L1615.1,102.1L1615.1,102.1z M1675.5,82.4v16.5c0,3-1.4,4.2-4.1,4.2h-5.9c1-1,1.4-2.5,1.4-4.3V83.1
		c0-1.8,0.3-3,1.3-3.4c-2.8-0.6-3.8,0.6-3.8,2.7v16.5c0,3-1.4,4.2-4.1,4.2h-6.5c1-1,1.4-2.5,1.4-4.3v-9.9c0-1.8,0.3-3,1.3-3.4
		c-2.8-0.6-3.8,0.6-3.8,2.7v10.7c0,3-1.4,4.2-4.1,4.2h-6.6c1.8-1.6,2.5-4.4,2.5-7.9c0-7.4-3.2-9.8-8.2-9.8h-6.6v10
		c0,5.5-0.9,7.7-5.1,7.7h-2.5c-2.5,0-3.9-1-4.1-3.6l0.2-13.2c0.2-0.6,0.5-0.9,1-1.1c-0.3-0.1-0.7-0.1-1-0.1l0,0h-9.3
		c-4.6,0-6.7,2.1-6.7,6.1l-0.1,4.2c0,6.5,1.5,9.5,7.7,9.5c2.1,0,4.2-0.5,5.5-0.9c-0.1,2.7-1.5,3.9-4.1,3.9h-3.5
		c-1.5,0-2.4,0.7-1.9,2.7c0.2-0.7,1.1-0.9,2.4-0.9h3c4.4,0,6.5-2,6.7-5.7c1,0.6,2.4,0.9,4.2,0.9h2.5c6.2,0,7.7-3,7.7-9.5V87h4
		c3.8,0,5.6,1.9,5.6,7.3v1.4c0,4.9-1.4,7.4-5.8,7.4h-3.6c-1.5,0-2.3,0.7-1.8,2.6c0.2-0.7,1.1-0.9,2.3-0.9h38.7
		c4.6,0,6.7-2.1,6.7-6.1V83c0-1.8,0.3-3,1.3-3.4C1676.5,79,1675.5,80.3,1675.5,82.4 M1595.5,88.2v10.7c0,3-1.4,4.2-4.1,4.2h-1.3
		c-2.7,0-4.1-1.2-4.1-4.2l0,0V83c0-1.8,0.3-3,1.3-3.4c-2.8-0.6-3.8,0.6-3.8,2.7v20.8c0,3-1.4,4.2-4.1,4.2h-5.4
		c-2.7,0-4.1-1.2-4.1-4.2v-5c0-3,1.4-4.2,4.1-4.2h1c1.5,0,2.4-0.7,1.9-2.7c-0.2,0.7-1.1,0.9-2.4,0.9h-0.6c-4.6,0-6.7,2.1-6.7,6.1
		v4.9c0,3.9,2.1,6.1,6.7,6.1h5.4c4.3,0,6.4-1.9,6.7-5.3c1,0.6,2.4,1,4.2,1h1.3c4.6,0,6.7-2.1,6.7-6.1v-9.9c0-1.8,0.3-3,1.3-3.4
		C1596.6,84.8,1595.5,86,1595.5,88.2"/>
	<g>
		<path id="D" class="st0" d="M1715.8,106.8c-0.8,0-1.5,0.7-1.5,1.5c0,0.8,0.7,1.5,1.5,1.5c0.8,0,1.5-0.7,1.5-1.5
			C1717.3,107.4,1716.7,106.8,1715.8,106.8"/>
	</g>
	<g>
		<path id="E" class="st0" d="M1719.7,106.8c-0.8,0-1.5,0.7-1.5,1.5c0,0.8,0.7,1.5,1.5,1.5c0.8,0,1.5-0.7,1.5-1.5
			C1721.2,107.5,1720.6,106.8,1719.7,106.8C1719.7,106.8,1719.7,106.8,1719.7,106.8"/>
	</g>
	<g>
		<path id="D_1_" class="st0" d="M1590.1,106.8c-0.8,0-1.5,0.7-1.5,1.5c0,0.8,0.7,1.5,1.5,1.5c0.8,0,1.5-0.7,1.5-1.5
			C1591.6,107.4,1591,106.8,1590.1,106.8"/>
	</g>
	<g>
		<path id="E_1_" class="st0" d="M1594,106.8c-0.8,0-1.5,0.7-1.5,1.5c0,0.8,0.7,1.5,1.5,1.5c0.8,0,1.5-0.7,1.5-1.5
			C1595.5,107.5,1594.9,106.8,1594,106.8C1594,106.8,1594,106.8,1594,106.8"/>
	</g>
	<path class="st0" d="M1774,96.9l0.9,0.6l2.5-3.6l-6.4-4.4l-0.1,1C1770.9,93,1772.1,95.3,1774,96.9 M1770.1,112.5l-2.7-1.8
		c-4.3-2.9-4.7-6.1-2-10l2.2-3.2l2.1-3.1c-1.5-2.4-1-6.4-1-6.4l-7,10.3c-4.4,6.5-3.4,11.6,2.1,15.4l16.1,11l2.5-3.6l-10.9-7.5
		L1770.1,112.5L1770.1,112.5z M1789.9,126.1l-0.9-0.6l-2.5,3.6l6.4,4.4l0.1-1C1793,130,1791.9,127.7,1789.9,126.1 M1800,109.4
		l-16.1-11l-2.5,3.6l10.9,7.5l1.4,1l2.7,1.8c4.3,2.9,4.7,6.1,2,10l-2.2,3.2l-2.1,3.1c1.5,2.4,1,6.4,1,6.4l7-10.3
		C1806.6,118.3,1805.5,113.2,1800,109.4"/>
</g>
<path class="st1" d="M214.6,87.2h55.2v111.5h-89.7v-77.1c0-10.7,4.9-20.2,12.5-26.5C198.6,90.2,206.3,87.2,214.6,87.2L214.6,87.2z"
	/>
<g>
	<path class="st2" d="M248.8,140.9c-6.8-19.9-27.7-19.2-27.7-19.2v7.9c15.3,0,19.9,12.5,19.9,12.5h-25.2v-19.2h-7.1v41.9
		c0,16.1-12.7,19-12.7,19v-5.1h-7.5v13.5c27,0,27.8-25,27.8-25v-17.4h33.1C249.5,144.2,248.8,140.9,248.8,140.9L248.8,140.9z"/>
	<circle class="st2" cx="225.3" cy="160.1" r="6.7"/>
	<path class="st2" d="M254.2,184.1c0,0-12.7-2.8-12.7-19v-11h-7.6v13.3c0,0,0.8,25,27.8,25v-13.8h-7.5L254.2,184.1L254.2,184.1z
		 M254.2,111.6h7.5v63h-7.5L254.2,111.6z M221.5,169.9h7.5v21.7h-7.5V169.9z M264,97.1c-0.7-0.3-1.4,0-1.7,0.7
		c-0.1,0.1-6.2,13.6-25.2,15c-7.1,0.5-14.3,0.2-20.7-0.5V95.6c-27,0-27.8,25-27.8,25v53h7.6v-50.7c0-4.6,1-8.2,2.5-10.9
		c2.3,0.5,5.8,1.2,10.1,1.8v5.3h7.5v-4.4c4.3,0.4,8.9,0.7,13.6,0.7c2.4,0,4.9-0.1,7.3-0.3c20.6-1.5,27.1-16,27.4-16.6
		C264.9,98.1,264.6,97.3,264,97.1L264,97.1z M200.3,109.8c3.7-4.7,8.6-5.8,8.6-5.8v7.3C205.4,110.8,202.5,110.1,200.3,109.8z"/>
</g>
<g>
	<path class="st3" d="M33.7,245c-3.1,0-7.3-2.3-7.3-9c0-6.5,2.9-9.6,7.3-9.6h7.5v15.3h4.6v3.3L33.7,245L33.7,245z M37.8,229.5h-4
		c-3.2,0-3.9,4-3.9,6.5c0,2.4,1.1,5.7,3.9,5.7h4V229.5z M32.5,222.9v-3.7h3.4v3.7H32.5z M37.8,222.9v-3.7h3.4v3.7H37.8z"/>
	<path class="st3" d="M44,252.1v-3.7h3.4v3.7H44z M57.3,244.9c-2.7,0-4.8-0.9-6.1-2.5c-1.3,1.7-3.3,2.5-5.9,2.5h-0.6v-3.3h0.6
		c2.5,0,4-1.5,4-3.9v-11.4h3.4v11.5c0,2.4,1.7,3.8,4.6,3.8h0.6v3.3H57.3z M49.4,252.1v-3.7h3.4v3.7H49.4z"/>
	<g>
		<path id="F" class="st3" d="M69.3,245c-2.7,0-4.8-0.9-6.1-2.5c-1.3,1.7-3.3,2.5-5.9,2.5h-0.6v-3.3h0.6c2.5,0,4-1.5,4-3.9v-18.6
			h3.4v18.7c0,2.4,1.7,3.8,4.6,3.8h0.6v3.3H69.3z"/>
	</g>
	<path class="st3" d="M67.6,252.1v-3.7H71v3.7H67.6z M68.9,244.9v-3.3c3.2,0,4.6-1.7,4.6-4.7v-10.6h3.4V237
		C76.9,241.9,73.9,244.9,68.9,244.9z M72.9,252.1v-3.7h3.4v3.7H72.9z M95.6,244.9L95.6,244.9c-0.4,4.5-3.4,7.1-7.1,7.1h-0.1v-3
		c2.2-0.1,3.7-2.3,3.7-4.1h-4c-3.1,0-7.3-2.3-7.3-9c0-6.5,2.9-9.6,7.3-9.6h7.5v15.3h4.6v3.3L95.6,244.9L95.6,244.9z M92.2,229.4h-4
		c-3.2,0-3.9,4-3.9,6.5c0,2.4,1.1,5.7,3.9,5.7h4V229.4z"/>
	<path class="st3" d="M123.6,245c-2.1,0-3.8-0.6-5.1-1.6c-1.2,3.4-3.6,5.2-7.1,5.2c-3.4,0-5.8-1.8-7-5c-1.2,0.9-2.8,1.4-4.8,1.4H99
		v-3.3h0.6c2.3,0,3.8-1,3.9-3.4c0.3-5.9,3.2-9.6,7.9-9.6c4.6,0,7.5,3.5,7.7,9.3c0,2.4,1.7,3.8,4.5,3.8h0.6v3.3L123.6,245L123.6,245z
		 M111.4,231.7c-2.8,0-4.2,2.3-4.2,6.9c0,4.4,1.3,6.7,4.2,6.7c2.8,0,4.2-2.3,4.2-6.7C115.6,234,114.3,231.7,111.4,231.7z"/>
	<path class="st3" d="M122.3,222.9v-3.7h3.4v3.7H122.3z M135.7,245c-2.7,0-4.8-0.9-6.1-2.5c-1.3,1.7-3.3,2.5-5.9,2.5h-0.4v-3.3h0.4
		c2.5,0,4-1.5,4-3.9v-11.4h3.4v11.5c0,2.4,1.7,3.8,4.6,3.8h0.4v3.3H135.7z M127.6,222.9v-3.7h3.4v3.7H127.6z"/>
	<path class="st3" d="M135.1,245v-3.3c3.2,0,4.8-1.7,4.8-4.7v-17.8h3.4v18C143.3,242,140.1,245,135.1,245z M147.1,245v-25.8h3.4V245
		H147.1z M176.3,245c-0.3,0,1.1,0-7.3,0c-5,0-7.9-3-7.9-7.9v-10.7h3.4V237c0,3,1.2,4.7,4.2,4.7h7.5c3.1,0,4.4-1.8,4.4-4.7v-10.6h3.4
		v10.7C184.2,242,181.3,245,176.3,245L176.3,245z M168.3,222.9v-3.7h3.4v3.7H168.3z M173.7,222.9v-3.7h3.4v3.7H173.7z M188,237.1
		v-18h3.4v17.8c0,3,1.6,4.7,4.8,4.7v3.3C191.1,244.9,188,241.9,188,237.1z"/>
	<path class="st3" d="M207,245c-2.6,0-4.6-1-5.9-3c-1.2,1.9-3.4,3-5.8,3v-3.3c1.5,0,2.9-1,3.5-2.6c0.6-1.7,0.5-3.1,0.5-4.6h0.1
		c0.2-5.9,3-9.4,7.6-9.4c4.8,0,7.7,3.7,7.7,10C214.8,241.4,211.9,245,207,245L207,245z M207,228c-2.7,0-4.2,2.4-4.2,7.1
		c0,4.6,1.4,6.9,4.2,6.9s4.2-2.3,4.2-6.8C211.2,230.4,209.9,228,207,228z M218.6,245v-3.3h8.4v-6.9c0-4.4-0.7-5.6-3.1-5.6l0.6-3.1
		c2.4,0,4.3,1.1,5.3,3c0.6,1,0.6,1.7,0.6,3.9v8.7h5.1v3.3L218.6,245L218.6,245z"/>
	<path class="st3" d="M234.7,245v-3.3h12.6c0-12.4-10.2-11.8-10.2-11.8v-3.1c9.4,0,13.6,6.8,13.6,14.9h5.1v3.3L234.7,245L234.7,245z
		 M240.5,222.9v-3.7h3.4v3.7H240.5z"/>
	<g>
		<path id="F_1_" class="st3" d="M267.2,245c-2.7,0-4.8-0.9-6.1-2.5c-1.3,1.7-3.3,2.5-5.9,2.5h-0.6v-3.3h0.6c2.5,0,4-1.5,4-3.9
			v-18.6h3.4v18.7c0,2.4,1.7,3.8,4.6,3.8h0.6v3.3H267.2z"/>
	</g>
	<path class="st3" d="M266.6,245v-3.3c3.2,0,4.8-1.7,4.8-4.7v-17.8h3.4v18C274.8,242,271.6,245,266.6,245L266.6,245z M307.1,245
		c-1.7,0-3.3-0.4-4.5-1.2v0.2c0,4.8-3.4,8.1-8,8.1h-1.1c-4.6-0.1-8-3.4-8-8.2v-7.2h5v7.1c0,2.4,1.1,3.6,3.6,3.6s3.5-1.3,3.5-3.6
		v-24.4h5v17.7c0,2.2,1.9,3.4,4.5,3.4h0.6v4.6h-0.6V245z"/>
	<path class="st3" d="M306.5,245v-4.6h12.9c-0.4-10-10.1-9.4-10.1-9.4v-4.4c10.8,0,15.2,6.8,15.2,14.6v3.8H306.5z M313.5,253v-5h5v5
		H313.5z M332.1,217.4c-1.5,0-2.7-0.6-4-0.6c-0.3,0-0.6,0-1.8,0.4l-2.6-2c1.6-0.9,2.6-1.3,3.8-1.3c1.4,0,2.7,0.6,4.1,0.6
		c0.4,0,1.1,0,2.5-0.7l2.5,2.2C334.6,217.1,333.6,217.4,332.1,217.4z M328.3,245v-25.7h5V245H328.3z M351.3,245
		c-3.1,0-7.3-2.3-7.3-9c0-6.5,2.9-9.6,7.3-9.6h7.5v15.3h4.6v3.3L351.3,245L351.3,245z M355.4,229.5h-4c-3.2,0-3.9,4-3.9,6.5
		c0,2.4,1.1,5.7,3.9,5.7h4V229.5z M350,222.9v-3.7h3.4v3.7H350L350,222.9z M355.3,222.9v-3.7h3.4v3.7H355.3z"/>
	<path class="st3" d="M362,245v-3.3h16v-5.9c0-2.9-1.5-4.3-4.7-4.3H363v-5.8c0-3.9,2.9-6.4,7.3-6.4h7v3.3h-7c-2.5,0-4.1,1.3-4.1,3.2
		v2.4h7.1c5,0,7.8,2.7,7.8,7.5v9.4H362V245z M394.6,245c-1.8,0-3.3-0.4-4.5-1.2v0.3c0,4.2-2.7,8.2-7.3,8.1v-3
		c1.3-0.1,2.7-1.1,3.3-2.6c0.7-1.5,0.6-3.5,0.6-4.6v-15.5h3.4v11.7c0,2.3,1.8,3.6,4.5,3.6h0.4v3.3L394.6,245L394.6,245z"/>
	<path class="st3" d="M417.5,245h-23.4v-3.3h6.5v-15.1h3.3v15.1h6.5v-15.3h3.4v15.3h3.6c2.1,0,2.9-0.8,2.9-4.7v-10.6h3.4v12.2
		C423.6,242.8,421.3,245,417.5,245L417.5,245z M407.6,222.9v-3.7h3.4v3.7H407.6z M410.3,217.6v-3.7h3.4v3.7H410.3z M413,222.9v-3.7
		h3.4v3.7H413L413,222.9z"/>
</g>
<g>
	<path class="st4" d="M33.1,287.5h-6.2l-1,4.1h-4.6l6.4-23.4h4.8l6.4,23.4h-4.6L33.1,287.5z M32,282.9l-2-7.8l-2,7.8H32z
		 M48.9,268.2v16.2c0,0.7,0,1.3-0.1,1.9s-0.1,1.1-0.3,1.5c-0.2,0.7-0.5,1.3-0.8,1.8s-0.7,1-1.2,1.4c-0.4,0.4-0.9,0.7-1.5,0.9
		s-1.1,0.3-1.7,0.3c-1.8,0-3.3-1.1-4.4-3.4l2.8-4.1c0.1,0.7,0.2,1.3,0.5,1.7s0.6,0.6,0.9,0.6c0.8,0,1.2-0.9,1.2-2.7v-16.1
		L48.9,268.2L48.9,268.2z M56.8,268.2v23.4h-4.4v-23.4H56.8z M64.7,268.2v18.2h5.2v5.1h-9.6v-23.4L64.7,268.2L64.7,268.2z
		 M87.6,271.5h-5.8v5.6h5.6v3.3h-5.6v11.1h-2.5v-23.4h8.4L87.6,271.5L87.6,271.5z M93.1,268.2v23.4h-2.5v-23.4H93.1z M97.1,291.5
		v-24.9l12.2,17.8v-16.2h2.5V293l-12.2-17.8v16.4L97.1,291.5L97.1,291.5z M125.9,285.9h-7.2l-1.9,5.7h-2.7l8.3-24.8l8,24.8h-2.8
		L125.9,285.9z M124.8,282.5l-2.5-7.9l-2.6,7.9H124.8z M132.5,291.5v-24.9l12.2,17.8v-16.2h2.5V293L135,275.2v16.4h-2.5V291.5z"/>
	<g>
		<path id="G" class="st4" d="M163.8,269.5v4.2c-1.5-1.7-3-2.6-4.5-2.6c-1.7,0-3.2,0.9-4.4,2.6s-1.8,3.8-1.8,6.3s0.6,4.5,1.8,6.2
			s2.6,2.5,4.4,2.5c0.8,0,1.6-0.2,2.3-0.6l1.1-0.8c0.4-0.3,0.8-0.8,1.2-1.2v4.2c-1.4,1.1-3,1.7-4.6,1.7c-2.4,0-4.4-1.2-6.1-3.5
			s-2.5-5.2-2.5-8.5c0-3,0.7-5.6,2.1-8c1.7-2.9,4-4.3,6.7-4.3C160.9,267.8,162.4,268.4,163.8,269.5L163.8,269.5z"/>
	</g>
	<path class="st4" d="M169.5,268.2v23.4H167v-23.4H169.5z M183.4,286h-7.2l-1.9,5.7h-2.7l8.3-24.8l8,24.8h-2.8L183.4,286L183.4,286z
		 M182.4,282.6l-2.5-7.9l-2.6,7.9H182.4z M192.5,268.3v20h4.9v3.3H190v-23.4h2.5V268.3z"/>
	<g>
		<path id="H" class="st4" d="M216.2,271.8l-2.1,1.7c-0.4-0.9-0.7-1.5-1.1-1.8s-0.8-0.5-1.4-0.5c-0.7,0-1.3,0.3-1.7,0.8
			c-0.5,0.5-0.7,1.2-0.7,2.1c0,1.1,0.6,2.1,1.8,2.8l1.7,1c1.4,0.8,2.4,1.7,3,2.8s0.9,2.5,0.9,4.1c0,2.1-0.5,3.9-1.5,5.3
			s-2.3,2.1-3.9,2.1c-1.5,0-2.7-0.6-3.6-1.8s-1.5-2.9-1.7-5.1l2.6-0.8c0.1,1.4,0.3,2.3,0.6,2.8c0.5,1,1.3,1.5,2.3,1.5
			c0.8,0,1.4-0.4,2-1.1c0.5-0.7,0.8-1.7,0.8-2.8c0-0.5,0-0.9-0.1-1.2c-0.1-0.4-0.2-0.7-0.4-1s-0.4-0.6-0.7-0.9s-0.7-0.5-1.1-0.8
			l-1.6-0.9c-2.3-1.4-3.4-3.3-3.4-5.9c0-1.8,0.5-3.2,1.4-4.4c1-1.2,2.2-1.8,3.6-1.8C213.6,267.8,215.1,269.1,216.2,271.8
			L216.2,271.8z"/>
	</g>
	<path class="st4" d="M228.9,271.5h-6.7v5.6h6.5v3.3h-6.5v7.8h6.7v3.3h-9.2v-23.4h9.2V271.5L228.9,271.5z M237.9,281.6l5.2,10H240
		l-4.8-9.6h-0.5v9.6h-2.5v-23.4h3c2.2,0,3.8,0.6,4.8,1.7c1.1,1.3,1.6,3,1.6,5.1c0,1.7-0.3,3.1-1,4.3
		C240,280.6,239.1,281.2,237.9,281.6L237.9,281.6z M234.8,278.9h0.8c2.4,0,3.6-1.3,3.6-3.8c0-2.4-1.2-3.6-3.5-3.6h-0.9L234.8,278.9
		L234.8,278.9z M245.9,268.2l4.6,16.2l4.7-16.2h2.8l-7.5,25.1l-7.3-25.1H245.9z M262.6,268.2v23.4h-2.5v-23.4H262.6z M279,269.4v4.2
		c-1.5-1.7-3-2.6-4.5-2.6c-1.7,0-3.2,0.9-4.4,2.6s-1.8,3.8-1.8,6.3s0.6,4.5,1.8,6.2s2.6,2.5,4.4,2.5c0.8,0,1.6-0.2,2.3-0.6l1.1-0.8
		c0.4-0.3,0.8-0.8,1.2-1.2v4.2c-1.4,1.1-3,1.7-4.6,1.7c-2.4,0-4.4-1.2-6.1-3.5s-2.5-5.2-2.5-8.5c0-3,0.7-5.6,2.1-8
		c1.7-2.9,4-4.3,6.7-4.3C276.2,267.8,277.6,268.4,279,269.4L279,269.4z M291.5,271.5h-6.7v5.6h6.5v3.3h-6.5v7.8h6.7v3.3h-9.2v-23.4
		h9.2V271.5L291.5,271.5z"/>
	<g>
		<path id="H_1_" class="st4" d="M304.3,271.8l-2.1,1.7c-0.4-0.9-0.7-1.5-1.1-1.8c-0.4-0.3-0.8-0.5-1.4-0.5c-0.7,0-1.3,0.3-1.7,0.8
			c-0.5,0.5-0.7,1.2-0.7,2.1c0,1.1,0.6,2.1,1.8,2.8l1.7,1c1.4,0.8,2.4,1.7,3,2.8s0.9,2.5,0.9,4.1c0,2.1-0.5,3.9-1.5,5.3
			s-2.3,2.1-3.9,2.1c-1.5,0-2.7-0.6-3.6-1.8c-0.9-1.2-1.5-2.9-1.7-5.1l2.6-0.8c0.1,1.4,0.3,2.3,0.6,2.8c0.5,1,1.3,1.5,2.3,1.5
			c0.8,0,1.4-0.4,2-1.1c0.5-0.7,0.8-1.7,0.8-2.8c0-0.5,0-0.9-0.1-1.2c-0.1-0.4-0.2-0.7-0.4-1c-0.2-0.3-0.4-0.6-0.7-0.9
			c-0.3-0.3-0.7-0.5-1.1-0.8l-1.6-0.9c-2.3-1.4-3.4-3.3-3.4-5.9c0-1.8,0.5-3.2,1.4-4.4c1-1.2,2.2-1.8,3.6-1.8
			C301.7,267.8,303.2,269.1,304.3,271.8L304.3,271.8z"/>
	</g>
	<g>
		<path id="G_1_" class="st4" d="M327,269.5v4.2c-1.5-1.7-3-2.6-4.5-2.6c-1.7,0-3.2,0.9-4.4,2.6s-1.8,3.8-1.8,6.3s0.6,4.5,1.8,6.2
			s2.6,2.5,4.4,2.5c0.8,0,1.6-0.2,2.3-0.6l1.1-0.8c0.4-0.3,0.8-0.8,1.2-1.2v4.2c-1.4,1.1-3,1.7-4.6,1.7c-2.4,0-4.4-1.2-6.1-3.5
			s-2.5-5.2-2.5-8.5c0-3,0.7-5.6,2.1-8c1.7-2.9,4-4.3,6.7-4.3C324.1,267.8,325.6,268.4,327,269.5L327,269.5z"/>
	</g>
	<path class="st4" d="M329.2,279.8c0-3.3,0.9-6.1,2.6-8.5s3.8-3.5,6.2-3.5s4.4,1.2,6.1,3.6s2.6,5.2,2.6,8.6s-0.9,6.2-2.6,8.5
		c-1.7,2.4-3.8,3.5-6.3,3.5c-2.2,0-4.1-1-5.8-3.1C330.2,286.6,329.2,283.6,329.2,279.8L329.2,279.8z M331.8,279.9
		c0,2.6,0.6,4.7,1.9,6.4c1.2,1.7,2.7,2.5,4.3,2.5c1.8,0,3.2-0.8,4.5-2.5c1.2-1.7,1.8-3.8,1.8-6.3s-0.6-4.6-1.8-6.3s-2.7-2.5-4.4-2.5
		s-3.2,0.8-4.4,2.5C332.4,275.4,331.8,277.4,331.8,279.9L331.8,279.9z M349.4,291.6l3.5-25.1l5.8,18.2l6-18.2l3.2,25.1h-2.6
		l-1.6-14.1l-5,15.2l-4.8-15.2l-1.8,14.1H349.4z M373.9,282.1v9.5h-2.5v-23.4h2.9c1.4,0,2.5,0.1,3.2,0.4c0.8,0.3,1.4,0.8,1.9,1.5
		c1,1.3,1.4,3,1.4,5c0,2.1-0.5,3.8-1.5,5.1s-2.4,1.9-4.2,1.9H373.9L373.9,282.1z M373.9,278.9h0.9c2.3,0,3.5-1.2,3.5-3.7
		c0-2.4-1.2-3.6-3.6-3.6h-0.8V278.9L373.9,278.9z M391.9,286h-7.2l-1.9,5.7h-2.7l8.3-24.8l8,24.8h-2.8L391.9,286L391.9,286z
		 M390.9,282.6l-2.5-7.9l-2.6,7.9H390.9z M398.6,291.6v-24.9l12.2,17.8v-16.2h2.5V293l-12.2-17.8v16.4L398.6,291.6L398.6,291.6z
		 M420.7,281.5l-5.5-13.3h2.9l3.8,9.3l3.8-9.3h2.9l-5.5,13.3v10.1h-2.5v-10.1H420.7z"/>
</g>
</svg>
