<?xml version="1.0" encoding="utf-8"?>
<!-- Generator: Adobe Illustrator 24.1.2, SVG Export Plug-In . SVG Version: 6.00 Build 0)  -->
<svg version="1.1" id="Layer_1" xmlns="http://www.w3.org/2000/svg" xmlns:xlink="http://www.w3.org/1999/xlink" x="0px" y="0px"
	 viewBox="0 0 450 475.1" style="enable-background:new 0 0 450 475.1;" xml:space="preserve">
<style type="text/css">
	.st0{fill:#1C5AA7;}
	.st1{fill:#74CEE2;}
	.st2{fill:#016174;}
	.st3{fill-rule:evenodd;clip-rule:evenodd;fill:#016174;}
	.st4{fill-rule:evenodd;clip-rule:evenodd;fill:#E30521;}
</style>
<g>
	<path class="st0" d="M1767.3,119.4l0.6-0.9l-3.6-2.5l-4.4,6.4l1,0.1C1763.4,122.6,1765.8,121.4,1767.3,119.4 M1783.9,121.9l-1,1.4
		l-1.8,2.7c-2.9,4.3-6.1,4.7-10,2l-3.2-2.2l-3.1-2.1c-2.4,1.5-6.4,1-6.4,1l10.3,7c6.5,4.5,11.6,3.4,15.4-2.1l11-16.1l-3.6-2.5
		L1783.9,121.9L1783.9,121.9z"/>
	<path class="st0" d="M1796.6,103.6l-0.6,0.9l3.6,2.5l4.4-6.4l-1-0.1C1800.5,100.5,1798.1,101.6,1796.6,103.6 M1780,101.1l1-1.4
		l1.8-2.7c2.9-4.3,6.1-4.7,10-2l3.2,2.2l3.1,2.1c2.4-1.5,6.4-1,6.4-1l-10.3-7c-6.5-4.5-11.6-3.4-15.4,2.1l-11,16.1l3.6,2.5
		L1780,101.1L1780,101.1z M1591.1,133.6v-8.9c0-3.5-1.8-5.4-5.9-5.4h-2.7c-1.1,0-1.9-0.2-2.1-0.8c-0.4,1.7,0.4,2.4,1.7,2.4h3.1
		c2.4,0,3.7,1.1,3.7,3.7v1.7l-5.5,0.5c-4,0.4-5.6,2.1-5.6,5c0,3.3,2,5,5.2,5c1.4,0,2.7-0.1,3.8-0.3c1.8-0.3,1.2-2.3,1.2-2.3
		c-0.1,0.4-0.8,0.6-0.8,0.6c-1.3,0.3-2.6,0.5-4.2,0.5c-1.8,0-3-1.4-3-3.5c0-2,0.9-3.3,3.5-3.5l5.3-0.4v6.3c0,1.9,0.9,3,3.3,2.4
		C1591.3,136.3,1591.1,135.2,1591.1,133.6 M1622.6,133.6v-8.9c0-3.5-1.8-5.4-5.9-5.4h-2.7c-1.1,0-1.9-0.2-2.1-0.8
		c-0.4,1.7,0.4,2.4,1.7,2.4h3.1c2.4,0,3.7,1.1,3.7,3.7v1.7l-5.5,0.5c-4,0.4-5.6,2.1-5.6,5c0,3.3,2,5,5.2,5c1.4,0,2.7-0.1,3.8-0.3
		c1.8-0.3,1.2-2.3,1.2-2.3c0,0.4-0.7,0.6-0.7,0.6c-1.3,0.3-2.7,0.5-4.2,0.5c-1.8,0-3-1.4-3-3.5c0-2,0.9-3.3,3.5-3.5l5.3-0.4v6.3
		c0,1.9,0.9,3,3.3,2.4C1622.8,136.3,1622.6,135.2,1622.6,133.6 M1578.1,118.5c-0.2,0.6-1,0.8-2.1,0.8h-2.7c-4.1,0-5.9,1.9-5.9,5.4
		v8.9c0,1.6-0.3,2.7-1.1,3c2.4,0.6,3.4-0.5,3.4-2.4v-9.6c0-2.7,1.2-3.7,3.7-3.7h3.1C1577.7,120.9,1578.5,120.2,1578.1,118.5
		 M1605.3,121.9v12.5c-1.1,0.4-3,0.8-4.9,0.8c-3.7,0-4.5-2-4.5-6.9V122c0-1.9-1-3-3.4-2.4c0.8,0.3,1.1,1.4,1.1,3v5.7
		c0,5.7,1.3,8.4,6.8,8.4c1.9,0,3.7-0.5,4.9-0.8l0,0v1.4c0,2.7-1.2,3.7-3.7,3.7h-3.1c-1.3,0-2.1,0.7-1.7,2.4c0.2-0.6,1-0.8,2.1-0.8
		h2.7c4.1,0,5.9-1.9,5.9-5.4v-14.6c0-1.6,0.3-2.7,1.1-3C1606.2,119,1605.3,120,1605.3,121.9 M1678.3,133.6v-9c0-3.5-1.8-5.4-5.9-5.4
		h-2.7c-1.1,0-1.9-0.2-2.1-0.8c-0.4,1.7,0.4,2.4,1.7,2.4h3.1c2.4,0,3.7,1.1,3.7,3.7v1.7l-5.5,0.5c-4,0.4-5.6,2.1-5.6,5
		c0,3.3,2,5,5.2,5c1.4,0,2.7-0.1,3.8-0.3c1.8-0.3,1.2-2.3,1.2-2.3c-0.1,0.4-0.7,0.6-0.7,0.6c-1.3,0.3-2.6,0.5-4.2,0.5
		c-1.8,0-3-1.4-3-3.5c0-2,0.9-3.3,3.5-3.5l5.3-0.4v6.3c0,1.9,0.9,3,3.3,2.4C1678.5,136.3,1678.3,135.2,1678.3,133.6 M1640,113.9
		h-2.7c-4.1,0-5.9,1.9-5.9,5.4v14.5c0,1.6-0.3,2.7-1.1,3c2.4,0.6,3.3-0.5,3.3-2.4v-7.9h6.1c1.3,0,2.1-0.7,1.7-2.4
		c-0.2,0.6-1,0.8-2.1,0.8h-5.7v-5.5c0-2.7,1.2-3.7,3.7-3.7h3c1.3,0,2.1-0.7,1.7-2.4C1641.9,113.7,1641.2,113.9,1640,113.9
		 M1645.8,117.4c0.7,0,1.3-0.6,1.3-1.3s-0.6-1.3-1.3-1.3s-1.3,0.6-1.3,1.3S1645,117.4,1645.8,117.4 M1646.9,133.9v-12
		c0-1.9-0.9-3-3.3-2.4c0.8,0.3,1.1,1.4,1.1,3v12c0,1.9,0.9,3,3.3,2.4C1647.1,136.6,1646.9,135.5,1646.9,133.9"/>
	<g>
		<path id="B" class="st0" d="M1662.9,133.6v-8.9c0-3.5-1.8-5.4-5.9-5.4h-7.1c-0.3,0-0.5,0.1-0.8,0.1c0.8,0.3,1.1,1.4,1.1,3v12
			c0,1.9,0.9,3,3.3,2.4c-0.8-0.3-1.1-1.4-1.1-3v-12c0-0.4,0-0.7-0.1-1h4.7c2.4,0,3.7,1.1,3.7,3.7v9.5c0,1.9,0.9,3,3.3,2.4
			C1663.2,136.3,1662.9,135.2,1662.9,133.6"/>
	</g>
	<path class="st0" d="M1710.9,117.4c0.7,0,1.3-0.6,1.3-1.3s-0.6-1.3-1.3-1.3s-1.3,0.6-1.3,1.3S1710.2,117.4,1710.9,117.4
		 M1712,133.9v-12c0-1.9-0.9-3-3.3-2.4c0.8,0.3,1.1,1.4,1.1,3v12c0,1.9,0.9,3,3.3,2.4C1712.3,136.6,1712,135.5,1712,133.9
		 M1728,133.6v-8.8c0-3.5-1.8-5.4-5.9-5.4h-7.2c-0.3,0-0.5,0.1-0.8,0.1c0.8,0.3,1.1,1.4,1.1,3v12c0,1.9,0.9,3,3.3,2.4
		c-0.8-0.3-1.1-1.4-1.1-3v-12c0-0.4,0-0.7-0.1-1h4.7c2.4,0,3.7,1.1,3.7,3.7v9.5c0,1.9,0.9,3,3.4,2.4
		C1728.2,136.3,1728,135.2,1728,133.6"/>
	<g>
		<path id="B_1_" class="st0" d="M1693.8,133.6v-8.9c0-3.5-1.8-5.4-5.9-5.4h-7.1c-0.3,0-0.5,0.1-0.8,0.1c0.8,0.3,1.1,1.4,1.1,3v12
			c0,1.9,0.9,3,3.3,2.4c-0.8-0.3-1.1-1.4-1.1-3v-12c0-0.4,0-0.7-0.1-1h4.7c2.4,0,3.7,1.1,3.7,3.7v9.5c0,1.9,0.9,3,3.3,2.4
			C1694.1,136.3,1693.8,135.2,1693.8,133.6"/>
	</g>
	<path class="st0" d="M1702.1,120.9h3.1c1.3,0,2.1-0.7,1.7-2.4c-0.2,0.6-1,0.8-2.1,0.8h-2.7c-4.1,0-5.9,1.9-5.9,5.4v6.5
		c0,3.5,1.8,5.4,5.9,5.4h2.7c1.1,0,1.9,0.2,2.1,0.8c0.4-1.7-0.4-2.4-1.7-2.4h-3.1c-2.4,0-3.7-1.1-3.7-3.7v-6.6
		C1698.4,122,1699.6,120.9,1702.1,120.9 M1741.6,134.4c-1.1,0.4-3,0.8-4.9,0.8c-3.7,0-4.5-2-4.5-6.9v-3.7c0-2.7,1.2-3.7,3.7-3.7h5.8
		c-0.1,0.3-0.1,0.6-0.1,1V134.4L1741.6,134.4z M1744.9,119.5c-0.3-0.1-0.6-0.1-0.8-0.1l0,0h-8.3c-4.1,0-5.9,1.9-5.9,5.4l-0.1,3.7
		c0,5.7,1.3,8.4,6.8,8.4c1.9,0,3.8-0.5,4.9-0.8l0,0v1.4c0,2.7-1.2,3.7-3.7,3.7h-3.1c-1.3,0-2.1,0.7-1.7,2.4c0.2-0.6,1-0.8,2.1-0.8
		h2.7c4.1,0,5.9-1.9,5.9-5.4V134l0.2-13.6C1744.3,119.9,1744.5,119.6,1744.9,119.5 M1727.6,82.4v19c0,1.8-0.3,3-1.3,3.4
		c2.8,0.6,3.8-0.6,3.8-2.7V83c0-1.8,0.3-3,1.3-3.4C1728.6,79,1727.6,80.3,1727.6,82.4 M1741.1,88v10.8c0,3-1.4,4.2-4.1,4.2h-1.6
		c-1.5,0-2.4,0.7-1.9,2.7c0.2-0.7,1.1-0.9,2.4-0.9h1.2c4.6,0,6.7-2.1,6.7-6.1V88.6c0-1.8,0.3-3,1.3-3.4
		C1742.2,84.6,1741.1,85.8,1741.1,88"/>
	<path class="st0" d="M1720.5,88v10.9c0,3-1.4,4.2-4.1,4.2h-8.8c-4.2,0-5.1-2.2-5.1-7.7v-10h-6.6c-5.1,0-8.2,2.4-8.2,9.8
		c0,6,1.8,9.7,8.4,9.8h1.2c1.2,0,2.1,0.2,2.3,0.9c0.4-1.9-0.4-2.6-1.8-2.6h-1.6c-4.4,0-5.8-2.6-5.8-7.4v-1.4c0-5.3,1.8-7.3,5.6-7.3
		h4v8.3c0,6.5,1.5,9.5,7.7,9.5h8.8c4.6,0,6.7-2.1,6.7-6.1V88.6c0-1.8,0.3-3,1.3-3.4C1721.5,84.6,1720.5,85.8,1720.5,88"/>
	<g>
		<path id="C" class="st0" d="M1694.3,83.7c0.8,0,1.5-0.7,1.5-1.5c0-0.8-0.7-1.5-1.5-1.5c-0.8,0-1.5,0.7-1.5,1.5
			C1692.8,83,1693.4,83.7,1694.3,83.7C1694.3,83.7,1694.3,83.7,1694.3,83.7"/>
	</g>
	<g>
		<path id="C_1_" class="st0" d="M1698.2,83.7c0.8,0,1.5-0.7,1.5-1.5c0-0.8-0.7-1.5-1.5-1.5c-0.8,0-1.5,0.7-1.5,1.5
			C1696.7,83,1697.3,83.7,1698.2,83.7C1698.2,83.7,1698.2,83.7,1698.2,83.7"/>
	</g>
	<g>
		<path id="C_2_" class="st0" d="M1652.5,83.7c0.8,0,1.5-0.7,1.5-1.5c0-0.8-0.7-1.5-1.5-1.5c-0.8,0-1.5,0.7-1.5,1.5
			C1651,83,1651.6,83.7,1652.5,83.7C1652.5,83.7,1652.5,83.7,1652.5,83.7"/>
	</g>
	<path class="st0" d="M1656.4,83.7c0.8,0,1.5-0.7,1.5-1.5c0-0.8-0.7-1.5-1.5-1.5c-0.8,0-1.5,0.7-1.5,1.5
		C1654.9,83.1,1655.5,83.7,1656.4,83.7 M1687.6,95.2v-0.3V95.2z M1644.3,94.9v0.3V94.9z"/>
	<path class="st0" d="M1615.1,102.1c-1.3,0.4-3.3,1-5.5,1c-4.2,0-5.1-2.3-5.1-7.8v-4.2c0-3,1.4-4.2,4.1-4.2h6.5
		c-0.1,0.3-0.1,0.7-0.1,1.1L1615.1,102.1L1615.1,102.1z M1675.5,82.4v16.5c0,3-1.4,4.2-4.1,4.2h-5.9c1-1,1.4-2.5,1.4-4.3V83.1
		c0-1.8,0.3-3,1.3-3.4c-2.8-0.6-3.8,0.6-3.8,2.7v16.5c0,3-1.4,4.2-4.1,4.2h-6.5c1-1,1.4-2.5,1.4-4.3v-9.9c0-1.8,0.3-3,1.3-3.4
		c-2.8-0.6-3.8,0.6-3.8,2.7v10.7c0,3-1.4,4.2-4.1,4.2h-6.6c1.8-1.6,2.5-4.4,2.5-7.9c0-7.4-3.2-9.8-8.2-9.8h-6.6v10
		c0,5.5-0.9,7.7-5.1,7.7h-2.5c-2.5,0-3.9-1-4.1-3.6l0.2-13.2c0.2-0.6,0.5-0.9,1-1.1c-0.3-0.1-0.7-0.1-1-0.1l0,0h-9.3
		c-4.6,0-6.7,2.1-6.7,6.1l-0.1,4.2c0,6.5,1.5,9.5,7.7,9.5c2.1,0,4.2-0.5,5.5-0.9c-0.1,2.7-1.5,3.9-4.1,3.9h-3.5
		c-1.5,0-2.4,0.7-1.9,2.7c0.2-0.7,1.1-0.9,2.4-0.9h3c4.4,0,6.5-2,6.7-5.7c1,0.6,2.4,0.9,4.2,0.9h2.5c6.2,0,7.7-3,7.7-9.5V87h4
		c3.8,0,5.6,1.9,5.6,7.3v1.4c0,4.9-1.4,7.4-5.8,7.4h-3.6c-1.5,0-2.3,0.7-1.8,2.6c0.2-0.7,1.1-0.9,2.3-0.9h38.7
		c4.6,0,6.7-2.1,6.7-6.1V83c0-1.8,0.3-3,1.3-3.4C1676.5,79,1675.5,80.3,1675.5,82.4 M1595.5,88.2v10.7c0,3-1.4,4.2-4.1,4.2h-1.3
		c-2.7,0-4.1-1.2-4.1-4.2l0,0V83c0-1.8,0.3-3,1.3-3.4c-2.8-0.6-3.8,0.6-3.8,2.7v20.8c0,3-1.4,4.2-4.1,4.2h-5.4
		c-2.7,0-4.1-1.2-4.1-4.2v-5c0-3,1.4-4.2,4.1-4.2h1c1.5,0,2.4-0.7,1.9-2.7c-0.2,0.7-1.1,0.9-2.4,0.9h-0.6c-4.6,0-6.7,2.1-6.7,6.1
		v4.9c0,3.9,2.1,6.1,6.7,6.1h5.4c4.3,0,6.4-1.9,6.7-5.3c1,0.6,2.4,1,4.2,1h1.3c4.6,0,6.7-2.1,6.7-6.1v-9.9c0-1.8,0.3-3,1.3-3.4
		C1596.6,84.8,1595.5,86,1595.5,88.2"/>
	<g>
		<path id="D" class="st0" d="M1715.8,106.8c-0.8,0-1.5,0.7-1.5,1.5c0,0.8,0.7,1.5,1.5,1.5c0.8,0,1.5-0.7,1.5-1.5
			C1717.3,107.4,1716.7,106.8,1715.8,106.8"/>
	</g>
	<g>
		<path id="E" class="st0" d="M1719.7,106.8c-0.8,0-1.5,0.7-1.5,1.5c0,0.8,0.7,1.5,1.5,1.5c0.8,0,1.5-0.7,1.5-1.5
			C1721.2,107.5,1720.6,106.8,1719.7,106.8C1719.7,106.8,1719.7,106.8,1719.7,106.8"/>
	</g>
	<g>
		<path id="D_1_" class="st0" d="M1590.1,106.8c-0.8,0-1.5,0.7-1.5,1.5c0,0.8,0.7,1.5,1.5,1.5c0.8,0,1.5-0.7,1.5-1.5
			C1591.6,107.4,1591,106.8,1590.1,106.8"/>
	</g>
	<g>
		<path id="E_1_" class="st0" d="M1594,106.8c-0.8,0-1.5,0.7-1.5,1.5c0,0.8,0.7,1.5,1.5,1.5c0.8,0,1.5-0.7,1.5-1.5
			C1595.5,107.5,1594.9,106.8,1594,106.8C1594,106.8,1594,106.8,1594,106.8"/>
	</g>
	<path class="st0" d="M1774,96.9l0.9,0.6l2.5-3.6l-6.4-4.4l-0.1,1C1770.9,93,1772.1,95.3,1774,96.9 M1770.1,112.5l-2.7-1.8
		c-4.3-2.9-4.7-6.1-2-10l2.2-3.2l2.1-3.1c-1.5-2.4-1-6.4-1-6.4l-7,10.3c-4.4,6.5-3.4,11.6,2.1,15.4l16.1,11l2.5-3.6l-10.9-7.5
		L1770.1,112.5L1770.1,112.5z M1789.9,126.1l-0.9-0.6l-2.5,3.6l6.4,4.4l0.1-1C1793,130,1791.9,127.7,1789.9,126.1 M1800,109.4
		l-16.1-11l-2.5,3.6l10.9,7.5l1.4,1l2.7,1.8c4.3,2.9,4.7,6.1,2,10l-2.2,3.2l-2.1,3.1c1.5,2.4,1,6.4,1,6.4l7-10.3
		C1806.6,118.3,1805.5,113.2,1800,109.4"/>
</g>
<path class="st1" d="M96.3,185.6l-25.5,15.6c4.2,5,17.5,23.8,18.6,64.5c0,0-6.3-39.5-27.9-58.8l-17.9,10.9
	c5.9,5.3,28.8,27.5,33.9,60.7l11.1,7.3l30.2-86.4L96.3,185.6L96.3,185.6z M34.4,223.4l-21.2,13L75,276.9
	C71,266.2,58.8,238.6,34.4,223.4z"/>
<g>
	<path class="st2" d="M140.9,199h-11.8l-23.7,67.4h47.3l4.1-10.1H127c-2.8,0-4.8-2.8-3.9-5.5L140.9,199L140.9,199z M189,227.6h24.7
		l4.1-10.2h-26.7c-18,0-23.1,17.1-23.1,17.1l-10.3,31.8h43l4.1-10.2h-31.9l3-9h31.5l3.6-10.3h-31.5C182.9,227.2,189,227.6,189,227.6
		L189,227.6z M216.3,266.4c-9.7-0.5-7.6-10.1-7.6-10.1c4.5-19.8,19.1-19.8,19.1-19.8h24.1c3.8-10.3-3.8-9-3.8-9h-26.7l3.8-10.1h29.9
		c17.7,0,9.5,18.2,9.5,18.2L254,266.3C254.2,266.4,226,266.9,216.3,266.4L216.3,266.4z M244.9,256l2.9-8.8h-19.1
		c0,0-5.3-0.2-6.6,5.9c0,0-1.5,2.9,5,2.9H244.9z M319.2,217.5l-3.8,10.1h-27.3c0,0-4.6-0.4-6.1,5.2c0,0-1.5,4.2,4.5,4.2h11.8
		c0,0,13.1-0.7,12.5,10.2c-0.6,9.1-8,19.3-18.9,19.3h-33.6l3.8-10.4h29.7c0,0,4.8,0,5.5-4.5c0.6-4.5-1.6-4.5-6.3-4.5h-13.2
		c0,0-10.3-0.6-9.7-9.3c0.6-8.8,6.7-20.3,20.6-20.3L319.2,217.5L319.2,217.5z M320.6,266.4h-12.2l16.3-48.9h12.2L320.6,266.4z
		 M339.8,209.6h-12.2l3.3-10.3h12.2L339.8,209.6z M324.4,266.4l17.1-48.9H370c0,0,11-1.2,10.8,9.7c0,0,0,4.6-2.9,13l-8.8,26.1h-13.2
		l10.8-30.5c0,0,4.2-8.3-2.9-8.3h-13.9L337,266.4H324.4L324.4,266.4z M417.5,272c-5.2,13.9-21.8,14.3-21.8,14.3h-29.3l3.6-10.3h25.5
		c10.5,0,12.4-9.7,12.4-9.7h-15.6c-15.8,0-13-16.1-13-16.1c6.2-34.2,31.6-32.9,31.6-32.9H437C436.8,217.5,422.7,258.2,417.5,272
		L417.5,272z M408.9,227.7c-8.7,0-15.1,10.1-16.4,19.3c-1.3,9.3,6.6,8.8,6.6,8.8h12.1l9.6-28.2C420.6,227.7,417.5,227.7,408.9,227.7
		z M320.6,209.6c-2.9,0-3.9-1.5-3.3-3.9c0.5-2,2.1-3.8,5.3-3.8h3.5l-0.4,1.6h-3.3c-1.3,0-2,0.2-2.3,1.4h5.3l-0.4,1.5h-5.3
		c-0.2,1.3,0.7,1.4,2,1.4h2.9l-0.4,1.6L320.6,209.6L320.6,209.6z M157.7,207.9h-2.3c-0.6,0-1.1,0-0.9-0.7c0.1-0.5,0.6-0.7,0.9-0.7
		h2.7L157.7,207.9L157.7,207.9z M158.6,204.9h-2.8c-1.8,0-3,0.8-3.5,2.3s0.4,2.2,1.8,2.2h5l1.4-4.3c0.7-2.2,0.5-3.4-2.1-3.4h-3.9
		l-0.5,1.6h3.4C158.6,203.6,159,203.8,158.6,204.9L158.6,204.9z M165.8,202l-1.5,4.9c-0.2,0.8,0,1.1,0.7,1.1h1.9l1.9-6.1h2l-2.5,7.7
		h-4.1c-2,0-2.6-0.9-1.9-2.9l1.5-4.7H165.8z M176.1,207.9h-1.5c-1.3,0-1.6-0.8-1.3-2.2c0.5-1.4,1.3-2.2,2.7-2.2h1.4L176.1,207.9
		L176.1,207.9z M178.9,199l-0.9,2.8h-1.9c-2.2,0-4.1,1.5-4.8,3.8c-0.8,2.7,0.1,4,2.6,4h3.8l3.3-10.5L178.9,199L178.9,199z"/>
	<path class="st2" d="M146.9,209.6h-5.6l0.6-1.9h4.7c1.4,0,2.1-0.4,2.3-1.3c0.2-0.8,0-1.2-1.1-1.3h-2.2c-2.1,0-2.7-1.4-2.2-3
		c0.6-1.9,2.3-3.2,4.3-3.2h5.2l-0.6,1.9H148c-0.9,0-2-0.1-2.5,1.2c-0.4,1.1,0.7,1.2,1.5,1.2h1.8c2.6,0,2.9,1.4,2.3,3.2
		C150.7,207.9,149.4,209.6,146.9,209.6L146.9,209.6z M179.9,209.6l2.5-7.6h2l-2.5,7.6H179.9z"/>
	<path class="st3" d="M182.6,200.8l0.6-1.8h2.1l-0.6,1.8H182.6z"/>
	<g>
		<path id="F" class="st2" d="M208.6,207.9h-2.3c-0.6,0-1.1,0-0.9-0.7c0.1-0.5,0.6-0.7,1.1-0.7h2.7L208.6,207.9L208.6,207.9z
			 M209.5,204.9h-2.8c-1.8,0-3,0.8-3.5,2.5c-0.5,1.5,0.4,2.2,1.8,2.2h5l1.4-4.3c0.7-2.2,0.5-3.4-2.1-3.4h-3.9l-0.5,1.6h3.4
			C209.5,203.6,209.9,203.8,209.5,204.9z"/>
	</g>
	<g>
		<path id="F_1_" class="st2" d="M296.4,207.9H294c-0.6,0-1.1,0-0.9-0.7c0.1-0.5,0.6-0.7,1.1-0.7h2.7L296.4,207.9L296.4,207.9z
			 M297.3,204.9h-2.8c-1.8,0-3,0.8-3.5,2.5c-0.5,1.5,0.4,2.2,1.8,2.2h5l1.4-4.3c0.7-2.2,0.5-3.4-2.1-3.4h-3.9l-0.5,1.6h3.4
			C297.3,203.6,297.6,203.8,297.3,204.9z"/>
	</g>
	<g>
		<path id="G" class="st2" d="M217.2,209.6l1.5-4.9c0.2-0.8,0-1.1-0.7-1.1h-1.9l-1.9,6.1h-2l2.5-7.7h4.1c2,0,2.6,0.9,1.9,2.9
			l-1.5,4.7H217.2z"/>
	</g>
	<path class="st2" d="M304.4,209.6l1.5-4.9c0.2-0.8,0-1.1-0.7-1.1h-1.8l-1.9,6.1h-2l2.5-7.7h4.1c2,0,2.6,0.9,1.9,2.9l-1.5,4.7H304.4
		L304.4,209.6z"/>
	<g>
		<path id="G_1_" class="st2" d="M286.6,209.6l1.5-4.9c0.2-0.8,0-1.1-0.7-1.1h-1.9l-1.9,6.1h-2l2.5-7.7h4.1c2,0,2.6,0.9,1.9,2.9
			l-1.5,4.7H286.6z"/>
	</g>
	<path class="st2" d="M189.8,205.4l-1.3,4.2h-2.2l1.9-5.9c0.5-1.4,0.9-2.7,2.2-3.8c1.3-0.9,2.7-0.9,3.9-0.9h3.4l-0.6,1.9h-3.4
		c-1.9,0-2.7,0.6-3,1.9l-0.2,0.7h5.6l-0.6,1.9L189.8,205.4L189.8,205.4z"/>
	<g>
		<path id="H" class="st2" d="M242,205.4l-1.3,4.2h-2.1l1.9-5.9c0.5-1.4,0.9-2.7,2.2-3.8c1.3-0.9,2.7-0.9,3.9-0.9h3.4l-0.6,1.9H246
			c-1.9,0-2.7,0.6-3,1.9l-0.2,0.7h5.6l-0.6,1.9L242,205.4L242,205.4z"/>
	</g>
	<g>
		<path id="H_1_" class="st2" d="M272.1,205.4l-1.3,4.2h-2.1l1.9-5.9c0.5-1.4,0.9-2.7,2.2-3.8c1.3-0.9,2.7-0.9,3.9-0.9h3.4l-0.6,1.9
			h-3.4c-1.9,0-2.7,0.6-3,1.9l-0.2,0.7h5.6l-0.6,1.9L272.1,205.4L272.1,205.4z"/>
	</g>
	<path class="st2" d="M201.1,205.4c0.4-1.2,0.6-1.9-0.7-1.9h-0.8l-1.9,6.1h-2l2.5-7.7h3.4c2.2,0,2.5,0.9,1.9,2.7l-0.2,0.8
		L201.1,205.4L201.1,205.4z M262.7,205.4c0.4-1.2,0.6-1.9-0.7-1.9h-0.8l-1.9,6.1h-2l2.5-7.7h3.4c2.2,0,2.5,0.9,1.9,2.7l-0.2,0.8
		L262.7,205.4L262.7,205.4z M222.9,204.2c0.4-1.2,1.4-2.2,3.2-2.2h4.5l-0.5,1.6h-3.9c-0.8,0-1.2,0.1-1.3,0.7
		c-0.2,0.7,0.6,0.7,1.1,0.7h1.4c1.4,0,2.3,0.6,1.9,2.2c-0.5,1.4-1.5,2.5-3.5,2.5h-4.3l0.5-1.6h3.8c1.3,0,1.5-0.2,1.8-0.7
		c0.2-0.7-0.5-0.6-1.1-0.7h-1.8C222.9,206.5,222.4,205.5,222.9,204.2L222.9,204.2z M230.1,209.6l2.5-7.6h2l-2.5,7.6H230.1z"/>
	<path class="st3" d="M232.8,200.8l0.6-1.8h2.1l-0.6,1.8H232.8z"/>
	<path class="st2" d="M278.1,209.6l2.3-7.6h2.1l-2.5,7.6H278.1z"/>
	<path class="st3" d="M280.8,200.8l0.6-1.8h2l-0.5,1.8H280.8z"/>
	<path class="st2" d="M314.2,202c-3.2,0-4.8,1.8-5.3,3.8c-0.6,2.3,0.4,3.9,3.3,3.9h3.8l0.4-1.6h-2.9c-1.3,0-2.2-0.2-2-1.4
		c0.1-1.2,0.4-1.5,0.4-1.5c0.4-1.1,1.2-1.4,2.3-1.4h3.3l0.4-1.6L314.2,202L314.2,202z M256.6,205.7c-0.7,2.2-2.9,4-5,4
		c-2.1,0-3.2-1.8-2.5-4c0.7-2.2,2.9-4,5-4C256.3,201.7,257.3,203.6,256.6,205.7z M253.6,203.5c-1.1,0-2.1,1.1-2.6,2.3
		c-0.5,1.3,0.1,2.3,1.1,2.3c1.1,0,2.1-1.1,2.6-2.3C255.1,204.4,254.6,203.5,253.6,203.5z"/>
</g>
<g>
	<path class="st4" d="M294.6,289.2h2.5l0.6-1.6h-2.5L294.6,289.2z M298.1,289.2h2.3l0.7-1.6h-2.5L298.1,289.2z M307,281.3h-5.6
		l2.7-2.2l0.1-0.2h-2.5l-4.7,3.8l-0.1,0.2h9c0.7,0,0.9,0.2,0.7,0.7l-0.5,1.2h-11.6l-0.6,1.6h14.1l1.1-2.8
		C309.6,282.1,309.3,281.3,307,281.3L307,281.3z M99.3,289.2h2.5l0.6-1.6h-2.5L99.3,289.2z M102.9,289.2h2.3l0.7-1.6h-2.5
		L102.9,289.2z M113.8,283.7c0.6-1.5,0.2-2.3-2-2.3h-5.6l2.7-2.2l0.1-0.2h-2.5l-4.7,3.8l-0.1,0.2h9c0.7,0,0.9,0.2,0.7,0.7l-0.5,1.2
		H99.3l-0.6,1.6h14.1L113.8,283.7L113.8,283.7z M363,276.2l-3.8,10.3h2.5l3.8-10.3H363z M319.4,282.7c0.9-2.7,0-3.9-2.8-3.9h-4.6
		l-0.6,1.6h4.1c1.5,0,2,0.8,1.5,2.1c-0.5,1.4-1.5,2.2-3.2,2.2h-4l-0.6,1.6h4.6C316.5,286.5,318.6,285.1,319.4,282.7L319.4,282.7z
		 M358.6,276.2l-3.2,8.7h-2.9l2.2-6h-2.5l-1.9,4.9c-0.2,0.7-0.7,1.1-1.6,1.1h-0.6l2.2-6h-2.5l-1.8,4.9c-0.2,0.7-0.7,1.1-1.6,1.1
		h-0.6l2.2-6h-2.5l-1.8,4.9c-0.2,0.7-0.7,1.1-1.6,1.1h-5.2c-1.6,0-2.1-0.8-1.6-2.2c0.5-1.3,1.5-2.1,3-2.1h4.1l0.6-1.6h-4.3
		c-2.8,0-4.9,1.2-5.9,3.9c-0.2,0.8-0.4,1.5-0.1,2.1h-2.2c0.4-1.8-0.6-3-3.4-3c-3.2,0-5.2,1.6-5.9,3.8l-0.4,0.9h6.6
		c-0.5,1.3-1.6,1.4-2.8,1.4h-4.2l-0.6,1.6h4.9c2.5,0,4.2-1.2,5.2-3h27.5c1.3,0,1.8-0.5,2.2-1.6l3.2-8.7H358.6L358.6,276.2z
		 M326.1,284.8h-4c0.5-1.1,1.3-1.4,2.5-1.4C325.9,283.4,326.5,283.8,326.1,284.8z M266.8,276.2h-2.5l-0.6,1.6h2.5L266.8,276.2z
		 M280.9,276.2h-2.5l-0.6,1.6h2.3L280.9,276.2z M227.9,289.2h2.5l0.6-1.6h-2.5L227.9,289.2z M231.4,289.2h2.5l0.6-1.6H232
		L231.4,289.2z M177.4,289.2h2.5l0.6-1.6H178L177.4,289.2z M180.9,289.2h2.5l0.6-1.6h-2.5L180.9,289.2z M117.6,289.2h2.3l0.7-1.6
		h-2.5L117.6,289.2z"/>
	<path class="st4" d="M121.1,289.2h2.3l0.7-1.6h-2.5L121.1,289.2z M131.2,289.2h2.3l0.7-1.6h-2.5L131.2,289.2z M214,276.2h-2.5
		l-0.6,1.6h2.5L214,276.2z M217.5,276.2H215l-0.6,1.6h2.5L217.5,276.2z M153.4,276.2h-2.5l-0.6,1.6h2.5L153.4,276.2z M156.9,276.2
		h-2.5l-0.6,1.6h2.3L156.9,276.2z M292.1,276.2l-3.8,10.3h2.5l3.8-10.3H292.1z M160.4,286.5h2.5l3.8-10.3h-2.3L160.4,286.5z
		 M287.7,276.2l-3.2,8.7h-3.9c0.6-0.6,1.1-1.3,1.4-2.1c1.1-2.7-0.4-4-3.3-4c-3,0-5.3,1.2-6.2,4c-0.2,0.8-0.4,1.5-0.1,2.1h-4.1l2.2-6
		h-2.5l-2.9,8c-0.2,0.7-0.7,1.1-1.6,1.1h-1.4l-0.6,1.6h1.6c2.3,0,3.6-0.9,4.5-2.9l0.1-0.1h16.9c1.3,0,1.8-0.5,2.2-1.6l3.2-8.7
		L287.7,276.2L287.7,276.2z M279.6,282.6c-0.5,1.3-1.6,2.2-3.2,2.2c-1.6,0-2-0.9-1.5-2.2c0.5-1.3,1.6-2.2,3.2-2.2
		C279.6,280.4,280.1,281.3,279.6,282.6z M263.7,284.8l2.2-5.9h-2.5l-2.2,6h-3l2.2-6h-2.5l-1.8,4.9c-0.2,0.7-0.7,1.1-1.6,1.1h-0.6
		l2.2-6h-2.5l-1.8,4.8c-0.2,0.7-0.7,1.1-1.6,1.1h-0.6l2.2-6h-2.5l-1.8,4.9c-0.2,0.7-0.7,1.1-1.6,1.1h-1.9l2.2-6h-5.5
		c-2.3,0-3.6,0.9-4.5,2.9l-0.7,2c-0.2,0.7-0.7,1.1-1.6,1.1h-6.8l-0.6,1.6h7.3c2.3,0,3.6-0.9,4.5-2.9l0.7-2c0.2-0.7,0.7-1.1,1.6-1.1
		h2.7l-2.2,6h20.2C262.7,286.5,263.2,285.9,263.7,284.8L263.7,284.8z M160.1,276.2l-3.2,8.7h-3.4l2.1-5.9h-2.5l-2.2,6h-6.3l3.4-8.7
		h-2.5l-3.4,8.7c-0.5,1.2-0.2,1.6,1.1,1.6h13.6c1.3,0,1.8-0.5,2.2-1.6l3.2-8.7h-2.1L160.1,276.2z M225.5,276.2l-3.2,8.7h-2.8
		l3.2-8.7h-2.5l-3.2,8.7h-2.5l2.1-5.9h-2.5l-2.1,6h-3.9c0.6-0.6,1.1-1.3,1.4-2.1c1.1-2.7-0.4-4-3.3-4c-3,0-5.3,1.2-6.2,4
		c-0.2,0.8-0.4,1.5-0.1,2.1h-3.4c0.4-1.8-0.6-3-3.4-3c-3.2,0-5.2,1.6-5.9,3.8l-0.4,0.9h6.6c-0.5,1.3-1.6,1.4-2.8,1.4h-4.2l-0.6,1.6
		h4.9c2.5,0,4.2-1.2,5.2-3h26.5c1.3,0,1.8-0.5,2.2-1.6l3.2-8.7h-2.5L225.5,276.2z M194,284.8h-4c0.5-1.1,1.3-1.4,2.5-1.4
		C193.8,283.4,194.4,283.8,194,284.8L194,284.8z M207.3,282.6c-0.5,1.3-1.6,2.2-3.2,2.2c-1.6,0-2-0.9-1.5-2.2
		c0.5-1.3,1.6-2.2,3.2-2.2C207.3,280.5,207.8,281.3,207.3,282.6z M185.4,278.8l-2.2,6H179l3.2-8.7h-2.5l-3.2,8.7h-4.7l1.2-3h-2.5
		l-1.2,3c-0.5,1.2-0.2,1.6,1.1,1.6h12.8c1.3,0,1.8-0.5,2.2-1.6l2.1-5.9h-2.2L185.4,278.8z M138.1,279h-8.2l-0.6,1.6h7.4
		c0.9,0,1.2,0.4,0.9,1.1l-1.1,3.3h-12.1l2.1-5.9h-2.5l-2.2,6h-3.6l2.2-6h-2.2l-2.9,8c-0.2,0.7-0.7,1.1-1.6,1.1h-1.3l-0.6,1.6h1.6
		c2.3,0,3.6-0.9,4.5-2.9l0.1-0.1h4.5c0.6,0,0.9-0.1,1.3-0.4l-0.1,0.4h16.2l0.6-1.6h-1.3l1.2-3.4C140.7,279.8,140.4,279,138.1,279
		L138.1,279z M148.2,273.8l-0.7-1.1l1.2-1.2h-0.9l-0.8,0.8c-0.4,0.4-0.5,0.6-0.1,1.1c0.4,0.4,0.5,0.7,0.5,0.7H146l-0.5,0.8h2
		C148.8,275,148.7,274.4,148.2,273.8L148.2,273.8z"/>
</g>
</svg>
