<svg id="Layer_1" data-name="Layer 1" xmlns="http://www.w3.org/2000/svg" xmlns:xlink="http://www.w3.org/1999/xlink" viewBox="0 0 628.03 612"><defs><style>.cls-1{fill:none;}.cls-2{clip-path:url(#clip-path);}.cls-3{fill:#ce2028;}.cls-4{fill:#125586;}</style><clipPath id="clip-path"><rect class="cls-1" width="628.03" height="612"/></clipPath></defs><g class="cls-2"><path class="cls-3" d="M330.54,465a1.74,1.74,0,1,0,0-3.48,1.74,1.74,0,1,0,0,3.48"/><path class="cls-3" d="M335.18,465a1.74,1.74,0,1,0-1.86-1.74,1.78,1.78,0,0,0,1.86,1.74"/><path class="cls-3" d="M363,485.1a1.75,1.75,0,1,0,1.78,1.75A1.78,1.78,0,0,0,363,485.1"/><path class="cls-3" d="M358.72,485.1a1.75,1.75,0,1,0,0,3.49,1.75,1.75,0,1,0,0-3.49"/><path class="cls-3" d="M416.73,461.06h-1v16.07c-.11,1.95-1.07,2.72-2.82,2.72h-13c-3.27,0-3.82-1.2-3.82-4.32,0-5-2.78-7.94-6.79-7.94-4.31,0-7.05,3-7.05,7.94,0,3.12-.55,4.32-3.82,4.32H365.73c-1.71,0-2.75-.73-2.82-2.54V473c0-1.74-.52-2.43-2.19-2.43h-1v6.6c-.11,1.95-1.08,2.72-2.82,2.72H339.48v-5c0-4.42-2.78-7.4-6.82-7.4-4.31,0-7.05,3-7.05,7.94,0,6.57,6.71,7.47,11.28,7.47h20.82a5.38,5.38,0,0,0,3.6-1.38,5.34,5.34,0,0,0,3.6,1.38h13.22a1,1,0,0,0,.3,0c.33,0,.66,0,1,0h.17v0a5.82,5.82,0,0,0,4.46-2.19,6.85,6.85,0,0,0,5.23,2.28,6.21,6.21,0,0,0,5-2.21c1.09,1.46,2.62,2,5,2.12v0h14.47c4.08-.25,5.19-3.55,5.19-7v-12.4c0-1.74-.51-2.43-2.18-2.43m-80.14,18.79c-4.53,0-8-.44-8-4.94,0-2.82,1.48-4.64,3.74-4.64,4.57,0,4.27,4.28,4.27,9.58m52.89.18c-2.71,0-4.23-2-4.23-5,0-2.79,1.45-4.49,3.68-4.49,2.63,0,4.07,1.7,4.07,5,0,2.65-1.26,4.54-3.52,4.54"/><path class="cls-3" d="M470.14,461.06h-1v16.07c-.11,1.95-1.07,2.72-2.82,2.72H453.2a8,8,0,0,1-3.34-.62,24.13,24.13,0,0,0,5.72-8c-1.71-.9-4.27-3.63-8.57-3.63-3.42,0-5.94,2.36-8.8,3.6,0,1-.18,2.5-.18,3.08a13.76,13.76,0,0,1,6.42,4.68,6,6,0,0,1-3.19.87H427.6c-1.82,0-2.82-.84-2.82-2.87V463.45c0-1.74-.52-2.42-2.19-2.42h-1v16.1c0,3.37,1.82,5.62,5.19,5.76h13.44c3.86,0,6.27-1.27,7.09-2,3.85,2.22,5.26,2,8.05,2h11.77c4.08-.25,5.19-3.55,5.19-7V463.49c0-1.74-.52-2.43-2.18-2.43m-22.8,16.36c-2.08-1.16-3.85-3.74-6.08-4.83.81-.36,3-2.17,6.23-2.17a11.1,11.1,0,0,1,4.86,1.3,28.71,28.71,0,0,1-5,5.7"/><path class="cls-3" d="M477.52,461H476v19.69c0,1.52.81,2.17,2,2.17h1.12V462.51a1.61,1.61,0,0,0-1.64-1.48"/><path class="cls-4" d="M384,384.17h-2.68v44c-.3,5.36-2.88,7.44-7.54,7.44H344.79c-8.93,0-11.21-9.92-11.21-15.27a17.7,17.7,0,0,1,7-14.58h-3.37c-5.65,0-11.31,4.26-11.31,16.36,0,10.32,6.35,21.92,18.75,21.92a2.79,2.79,0,0,0,.79-.1h30.44c10.91-.7,13.89-9.72,13.89-19.14v-34c0-4.76-1.39-6.64-5.85-6.64"/><path class="cls-4" d="M352.52,413h12a2,2,0,0,0,2.08-1.89v-1.58h-8.43c-1.09-.79-1.19-2.18-1.19-3.67,0-3.37,1.69-3.87,2.68-3.87.6,0,3.27.2,4.86,4.17,0-1,1-2,1-3.18a5.4,5.4,0,0,0-5.55-4c-4,0-6.54,3-6.54,7.14a6.22,6.22,0,0,0,.39,2.78l.3.59h-3.57v1.58a2,2,0,0,0,2,1.89"/><path class="cls-4" d="M552.44,402.12c-11.51,0-18.85,8.23-18.85,21.72,0,8.53-1.48,11.8-10.21,11.8h-70c-4.56,0-7.24-2.58-7.54-6.94V390.81c0-4.76-1.39-6.64-5.85-6.64h-2.68v44c-.3,4.76-2.78,7.44-7.54,7.44H417v-47.4a4.35,4.35,0,0,0-4.36-4.07h-4v51.47H398.24v3c0,3.18,1.78,5.36,5.95,5.36H432a13.3,13.3,0,0,0,9.43-4.07,14.86,14.86,0,0,0,9.81,4.07h71.5a2.72,2.72,0,0,0,.79.1c7.14,0,11.9-2,15-6.15a18.19,18.19,0,0,0,14,6.25c11,0,18.15-8.23,18.15-21.92,0-12-7.44-20.13-18.15-20.13m.69,34c-7.24,0-11.3-5.35-11.3-13.68,0-7.63,3.86-12.3,9.82-12.3,7,0,10.9,4.67,10.9,13.59,0,7.24-3.37,12.39-9.42,12.39"/><path class="cls-4" d="M585.36,376.93c-1.09-.79-1.19-2.18-1.19-3.67,0-3.37,1.69-3.86,2.68-3.86.6,0,3.27.19,4.86,4.16,0-1,1-2,1-3.17a5.4,5.4,0,0,0-5.55-4c-4,0-6.55,3-6.55,7.14a6.07,6.07,0,0,0,.4,2.78l.3.59h-3.57v1.59a2,2,0,0,0,2,1.88h12a2,2,0,0,0,2.08-1.88v-1.59Z"/><path class="cls-4" d="M586,384.17h-4V438c0,4.16,2.18,6,5.36,6h3V388.24a4.35,4.35,0,0,0-4.36-4.07"/><path class="cls-4" d="M34.24,443.89l19.1-52.07q2.22-5.91,6.4-5.9,4.75,0,7,6l18.94,52H76.83l-4.44-12H47.54l-4.48,12Zm35.14-20.25L59.8,397.55l-9.31,26.09Z"/><path class="cls-4" d="M92.21,443.89v-49c0-4.31,1.31-7.08,3.92-8.28a11.49,11.49,0,0,1,4.83-1.23q5.57,0,7.61,7.23l12.12,42,12.66-42.05q2.13-7.2,7.64-7.21a11.53,11.53,0,0,1,4.84,1.23c2.57,1.2,3.86,4,3.86,8.28v49h-8.28V394.77l-12.79,42.81a12.91,12.91,0,0,1-2.54,5.08,7.55,7.55,0,0,1-10.17,0,12.77,12.77,0,0,1-2.54-5.08l-12.88-42.81v49.12Z"/><path class="cls-4" d="M161.92,429.46v-43h8.28v42.89c0,2.29.53,3.91,1.6,4.83s2.77,1.4,5.12,1.4h21.73v8.28H177.08q-7.22,0-11.06-3.61-4.11-3.69-4.1-10.82"/><path class="cls-4" d="M200.62,443.89l19.11-52.07c1.47-3.94,3.61-5.9,6.39-5.9q4.75,0,7,6l18.95,52h-8.82l-4.44-12H213.92l-4.48,12Zm35.15-20.25-9.58-26.09-9.31,26.09Z"/><path class="cls-4" d="M258.6,386.49h8.28v57.4H258.6Zm10.49,23.95a6.12,6.12,0,0,0-1.64,3.6q0,2.38,3.45,6.64l18.77,23.21,10.91.08-24.13-29.62,22.86-27.86h-10.7L271.3,407.65Z"/><rect class="cls-3" x="149.74" y="462.27" width="3.15" height="20.63"/><path class="cls-3" d="M163.75,468a5.64,5.64,0,0,0-2.14.43,5,5,0,0,0-1.76,1.24v-1.48H157v14.68h3V474a3.25,3.25,0,0,1,.86-2.44,3,3,0,0,1,2.19-.82,3.23,3.23,0,0,1,1.51.34,2.49,2.49,0,0,1,1,1.08,3.89,3.89,0,0,1,.39,1.84v8.94h3V473.5a5.43,5.43,0,0,0-1.49-4.13,4.93,4.93,0,0,0-3.62-1.35"/><path class="cls-3" d="M175.71,464h-3v4.46h-1.68v2.27h1.68v8.07a4.42,4.42,0,0,0,.45,2,3.57,3.57,0,0,0,1.36,1.5,4.21,4.21,0,0,0,2.22.56h1.76v-2.52h-1.21c-1.09,0-1.63-.57-1.63-1.71v-7.93h2.84v-2.27h-2.84Z"/><path class="cls-3" d="M190.15,468.91a6.21,6.21,0,0,0-3.35-.89,6,6,0,0,0-3.28.89,5.91,5.91,0,0,0-2.18,2.58,9.72,9.72,0,0,0-.77,4.05,10.8,10.8,0,0,0,.5,3.48,5.89,5.89,0,0,0,1.39,2.33,5.2,5.2,0,0,0,2.1,1.3,8.24,8.24,0,0,0,2.63.41,7.67,7.67,0,0,0,3.07-.54,8.31,8.31,0,0,0,2.44-1.75L190.82,479a6.19,6.19,0,0,1-1.6,1.16,5,5,0,0,1-2,.34,3.9,3.9,0,0,1-2-.5,3.24,3.24,0,0,1-1.27-1.42,5.08,5.08,0,0,1-.44-2.2H193v-1.3a8.77,8.77,0,0,0-.73-3.69,5.72,5.72,0,0,0-2.15-2.5m-6.65,5.44q.06-.86.12-1.2a3.85,3.85,0,0,1,.26-.8A3.15,3.15,0,0,1,185,471a3.26,3.26,0,0,1,1.79-.5,3.21,3.21,0,0,1,1.79.5,3,3,0,0,1,1.11,1.36,5.68,5.68,0,0,1,.4,2Z"/><path class="cls-3" d="M202.77,468a5.45,5.45,0,0,0-2.27.49,3.94,3.94,0,0,0-1.63,1.29v-1.59H196v14.68h2.95V474a3.6,3.6,0,0,1,.4-1.74,3,3,0,0,1,1.07-1.15,2.77,2.77,0,0,1,1.46-.4,2.83,2.83,0,0,1,1.22.22,3.44,3.44,0,0,1,1,.75l2.24-2.23a4.77,4.77,0,0,0-1.59-1.09,5.36,5.36,0,0,0-1.92-.32"/><path class="cls-3" d="M214.5,468a5.63,5.63,0,0,0-2.13.43,4.93,4.93,0,0,0-1.77,1.24v-1.48h-2.9v14.68h3V474a3.25,3.25,0,0,1,.85-2.44,3,3,0,0,1,2.19-.82,3.23,3.23,0,0,1,1.51.34,2.46,2.46,0,0,1,1.06,1.08,4,4,0,0,1,.39,1.84v8.94h3V473.5a5.46,5.46,0,0,0-1.48-4.13A5,5,0,0,0,214.5,468"/><path class="cls-3" d="M227.92,468a8.56,8.56,0,0,0-3.06.47,5.55,5.55,0,0,0-2.21,1.67l1.94,1.82a3.61,3.61,0,0,1,1.3-1.1,4.74,4.74,0,0,1,1.92-.31,3.72,3.72,0,0,1,2.45.66,2.59,2.59,0,0,1,.77,2.07v1.05h-3.9a6.41,6.41,0,0,0-2.76.53,3.77,3.77,0,0,0-1.72,1.49,4.12,4.12,0,0,0-.58,2.21,4.31,4.31,0,0,0,1.16,3.15,4.08,4.08,0,0,0,1.64,1,7.23,7.23,0,0,0,2.31.33,6.17,6.17,0,0,0,2.22-.34,5.19,5.19,0,0,0,1.68-1.16v1.33H234v-9.82c0-3.36-2-5.05-6.06-5.05m3.11,9.57a3.05,3.05,0,0,1-.64,2.18,2.76,2.76,0,0,1-1.18.67,6.41,6.41,0,0,1-1.58.16c-1.79,0-2.69-.69-2.69-2.08a1.91,1.91,0,0,1,.67-1.57,3,3,0,0,1,2-.55H231Z"/><path class="cls-3" d="M240.83,464h-3v4.46H236.2v2.27h1.68v8.07a4.42,4.42,0,0,0,.45,2,3.57,3.57,0,0,0,1.36,1.5,4.19,4.19,0,0,0,2.21.56h1.77v-2.52h-1.21c-1.09,0-1.63-.57-1.63-1.71v-7.93h2.84v-2.27h-2.84Z"/><rect class="cls-3" x="246.37" y="462.18" width="3.13" height="3.13"/><rect class="cls-3" x="246.46" y="468.21" width="2.96" height="14.69"/><path class="cls-3" d="M262.94,469.76a5.59,5.59,0,0,0-1.84-1.25,6.19,6.19,0,0,0-2.56-.49,6.41,6.41,0,0,0-1.77.24,5.72,5.72,0,0,0-1.48.61,5.23,5.23,0,0,0-1.12.89,5.66,5.66,0,0,0-1.36,2.41,13.1,13.1,0,0,0-.38,3.37,12.63,12.63,0,0,0,.38,3.39,5.35,5.35,0,0,0,1.36,2.39,6.4,6.4,0,0,0,8.77,0,5.39,5.39,0,0,0,1.38-2.39,13.47,13.47,0,0,0,.36-3.39,13,13,0,0,0-.37-3.38,5.56,5.56,0,0,0-1.37-2.4M261.53,478a3.1,3.1,0,0,1-.82,1.61,2.91,2.91,0,0,1-2.17.87,2.94,2.94,0,0,1-2.15-.87,3.24,3.24,0,0,1-.81-1.61,15.44,15.44,0,0,1,0-4.83,3.21,3.21,0,0,1,.81-1.6,2.89,2.89,0,0,1,2.15-.83,2.86,2.86,0,0,1,2.17.83,3.07,3.07,0,0,1,.82,1.6,15.44,15.44,0,0,1,0,4.83"/><path class="cls-3" d="M274.51,468a5.64,5.64,0,0,0-2.14.43,4.93,4.93,0,0,0-1.77,1.24v-1.48h-2.9v14.68h3V474a3.21,3.21,0,0,1,.86-2.44,3,3,0,0,1,2.18-.82,3.27,3.27,0,0,1,1.52.34,2.49,2.49,0,0,1,1,1.08,3.89,3.89,0,0,1,.39,1.84v8.94h2.95V473.5a5.46,5.46,0,0,0-1.48-4.13,4.94,4.94,0,0,0-3.62-1.35"/><path class="cls-3" d="M287.92,468a8.65,8.65,0,0,0-3.07.47,5.59,5.59,0,0,0-2.2,1.67l1.94,1.82a3.61,3.61,0,0,1,1.3-1.1,4.74,4.74,0,0,1,1.92-.31,3.72,3.72,0,0,1,2.45.66,2.59,2.59,0,0,1,.76,2.07v1.05h-3.89a6.38,6.38,0,0,0-2.76.53,3.77,3.77,0,0,0-1.72,1.49,4.12,4.12,0,0,0-.58,2.21,4.31,4.31,0,0,0,1.16,3.15,4.08,4.08,0,0,0,1.64,1,7.23,7.23,0,0,0,2.31.33,6.07,6.07,0,0,0,2.21-.34,5.12,5.12,0,0,0,1.69-1.16v1.33H294v-9.82c0-3.36-2-5.05-6.06-5.05m3.1,9.57a3.05,3.05,0,0,1-.63,2.18,2.82,2.82,0,0,1-1.18.67,6.41,6.41,0,0,1-1.58.16c-1.79,0-2.69-.69-2.69-2.08a1.91,1.91,0,0,1,.67-1.57,3,3,0,0,1,2-.55H291Z"/><path class="cls-3" d="M302,480.37a1.55,1.55,0,0,1-1.23-.41,2,2,0,0,1-.35-1.3V462.27h-3v16.56a4.28,4.28,0,0,0,1,2.91,3.8,3.8,0,0,0,3,1.15h1.83v-2.52Z"/><path class="cls-3" d="M314.47,333.72A263,263,0,0,0,193.9,362.79H435a263,263,0,0,0-120.57-29.07"/><path class="cls-4" d="M426,186.6c-10.1,3.7-25.89,11.09-37.11,23.87-.91,1-1.78,2-2.62,3.11a49.53,49.53,0,0,0-8.88,17.25,62.71,62.71,0,0,1,15.41-38.56s-17.52-38.54-78.37-68.86c-60.86,30.32-78.38,68.86-78.38,68.86a62.6,62.6,0,0,1,15.41,38.56,49.37,49.37,0,0,0-8.88-17.25c-.84-1.07-1.71-2.11-2.61-3.11-11.22-12.78-27-20.17-37.12-23.87-4.29-1.58-7.57-2.5-9-2.87v170.9A262,262,0,0,1,256.2,332V247.54c0-1.82,0-32.31,23.23-56.64,8.34-8.74,19.64-16.69,35-22.23,15.4,5.54,26.7,13.49,35,22.23,23.23,24.33,23.26,54.82,23.23,56.64V332A262.32,262.32,0,0,1,435,354.63V183.73c-1.43.37-4.7,1.29-9,2.87"/></g></svg>