<svg xmlns="http://www.w3.org/2000/svg" xmlns:xlink="http://www.w3.org/1999/xlink" viewBox="0 0 450 475.1"><g fill="#1c5aa7"><path d="M1767.3 119.4l.6-.9-3.6-2.5-4.4 6.4 1 .1c2.5.1 4.9-1.1 6.4-3.1m16.6 2.5l-1 1.4-1.8 2.7c-2.9 4.3-6.1 4.7-10 2l-3.2-2.2-3.1-2.1c-2.4 1.5-6.4 1-6.4 1l10.3 7c6.5 4.5 11.6 3.4 15.4-2.1l11-16.1-3.6-2.5-7.6 10.9z"/><path d="M1796.6 103.6l-.6.9 3.6 2.5 4.4-6.4-1-.1c-2.5 0-4.9 1.1-6.4 3.1m-16.6-2.5l1-1.4 1.8-2.7c2.9-4.3 6.1-4.7 10-2l3.2 2.2 3.1 2.1c2.4-1.5 6.4-1 6.4-1l-10.3-7c-6.5-4.5-11.6-3.4-15.4 2.1l-11 16.1 3.6 2.5 7.6-10.9zm-188.9 32.5v-8.9c0-3.5-1.8-5.4-5.9-5.4h-2.7c-1.1 0-1.9-.2-2.1-.8-.4 1.7.4 2.4 1.7 2.4h3.1c2.4 0 3.7 1.1 3.7 3.7v1.7l-5.5.5c-4 .4-5.6 2.1-5.6 5 0 3.3 2 5 5.2 5 1.4 0 2.7-.1 3.8-.3 1.8-.3 1.2-2.3 1.2-2.3-.1.4-.8.6-.8.6-1.3.3-2.6.5-4.2.5-1.8 0-3-1.4-3-3.5 0-2 .9-3.3 3.5-3.5l5.3-.4v6.3c0 1.9.9 3 3.3 2.4-.8-.3-1-1.4-1-3m31.5 0v-8.9c0-3.5-1.8-5.4-5.9-5.4h-2.7c-1.1 0-1.9-.2-2.1-.8-.4 1.7.4 2.4 1.7 2.4h3.1c2.4 0 3.7 1.1 3.7 3.7v1.7l-5.5.5c-4 .4-5.6 2.1-5.6 5 0 3.3 2 5 5.2 5 1.4 0 2.7-.1 3.8-.3 1.8-.3 1.2-2.3 1.2-2.3 0 .4-.7.6-.7.6-1.3.3-2.7.5-4.2.5-1.8 0-3-1.4-3-3.5 0-2 .9-3.3 3.5-3.5l5.3-.4v6.3c0 1.9.9 3 3.3 2.4-.9-.3-1.1-1.4-1.1-3m-44.5-15.1c-.2.6-1 .8-2.1.8h-2.7c-4.1 0-5.9 1.9-5.9 5.4v8.9c0 1.6-.3 2.7-1.1 3 2.4.6 3.4-.5 3.4-2.4v-9.6c0-2.7 1.2-3.7 3.7-3.7h3.1c1.2 0 2-.7 1.6-2.4m27.2 3.4v12.5c-1.1.4-3 .8-4.9.8-3.7 0-4.5-2-4.5-6.9V122c0-1.9-1-3-3.4-2.4.8.3 1.1 1.4 1.1 3v5.7c0 5.7 1.3 8.4 6.8 8.4 1.9 0 3.7-.5 4.9-.8h0v1.4c0 2.7-1.2 3.7-3.7 3.7h-3.1c-1.3 0-2.1.7-1.7 2.4.2-.6 1-.8 2.1-.8h2.7c4.1 0 5.9-1.9 5.9-5.4v-14.6c0-1.6.3-2.7 1.1-3-2.4-.6-3.3.4-3.3 2.3m73 11.7v-9c0-3.5-1.8-5.4-5.9-5.4h-2.7c-1.1 0-1.9-.2-2.1-.8-.4 1.7.4 2.4 1.7 2.4h3.1c2.4 0 3.7 1.1 3.7 3.7v1.7l-5.5.5c-4 .4-5.6 2.1-5.6 5 0 3.3 2 5 5.2 5 1.4 0 2.7-.1 3.8-.3 1.8-.3 1.2-2.3 1.2-2.3-.1.4-.7.6-.7.6-1.3.3-2.6.5-4.2.5-1.8 0-3-1.4-3-3.5 0-2 .9-3.3 3.5-3.5l5.3-.4v6.3c0 1.9.9 3 3.3 2.4-.9-.2-1.1-1.3-1.1-2.9m-38.3-19.7h-2.7c-4.1 0-5.9 1.9-5.9 5.4v14.5c0 1.6-.3 2.7-1.1 3 2.4.6 3.3-.5 3.3-2.4v-7.9h6.1c1.3 0 2.1-.7 1.7-2.4-.2.6-1 .8-2.1.8h-5.7v-5.5c0-2.7 1.2-3.7 3.7-3.7h3c1.3 0 2.1-.7 1.7-2.4-.1.4-.8.6-2 .6m5.8 3.5c.7 0 1.3-.6 1.3-1.3s-.6-1.3-1.3-1.3-1.3.6-1.3 1.3.5 1.3 1.3 1.3m1.1 16.5v-12c0-1.9-.9-3-3.3-2.4.8.3 1.1 1.4 1.1 3v12c0 1.9.9 3 3.3 2.4-.9-.3-1.1-1.4-1.1-3"/><use xlink:href="#C"/><path d="M1710.9 117.4c.7 0 1.3-.6 1.3-1.3s-.6-1.3-1.3-1.3-1.3.6-1.3 1.3.6 1.3 1.3 1.3m1.1 16.5v-12c0-1.9-.9-3-3.3-2.4.8.3 1.1 1.4 1.1 3v12c0 1.9.9 3 3.3 2.4-.8-.3-1.1-1.4-1.1-3m16-.3v-8.8c0-3.5-1.8-5.4-5.9-5.4h-7.2c-.3 0-.5.1-.8.1.8.3 1.1 1.4 1.1 3v12c0 1.9.9 3 3.3 2.4-.8-.3-1.1-1.4-1.1-3v-12c0-.4 0-.7-.1-1h4.7c2.4 0 3.7 1.1 3.7 3.7v9.5c0 1.9.9 3 3.4 2.4-.9-.2-1.1-1.3-1.1-2.9"/><use xlink:href="#C" x="30.9"/><path d="M1702.1 120.9h3.1c1.3 0 2.1-.7 1.7-2.4-.2.6-1 .8-2.1.8h-2.7c-4.1 0-5.9 1.9-5.9 5.4v6.5c0 3.5 1.8 5.4 5.9 5.4h2.7c1.1 0 1.9.2 2.1.8.4-1.7-.4-2.4-1.7-2.4h-3.1c-2.4 0-3.7-1.1-3.7-3.7v-6.6c0-2.7 1.2-3.8 3.7-3.8m39.5 13.5c-1.1.4-3 .8-4.9.8-3.7 0-4.5-2-4.5-6.9v-3.7c0-2.7 1.2-3.7 3.7-3.7h5.8c-.1.3-.1.6-.1 1v12.5zm3.3-14.9c-.3-.1-.6-.1-.8-.1h0-8.3c-4.1 0-5.9 1.9-5.9 5.4l-.1 3.7c0 5.7 1.3 8.4 6.8 8.4 1.9 0 3.8-.5 4.9-.8h0v1.4c0 2.7-1.2 3.7-3.7 3.7h-3.1c-1.3 0-2.1.7-1.7 2.4.2-.6 1-.8 2.1-.8h2.7c4.1 0 5.9-1.9 5.9-5.4V134l.2-13.6c.4-.5.6-.8 1-.9m-17.3-37.1v19c0 1.8-.3 3-1.3 3.4 2.8.6 3.8-.6 3.8-2.7V83c0-1.8.3-3 1.3-3.4-2.8-.6-3.8.7-3.8 2.8m13.5 5.6v10.8c0 3-1.4 4.2-4.1 4.2h-1.6c-1.5 0-2.4.7-1.9 2.7.2-.7 1.1-.9 2.4-.9h1.2c4.6 0 6.7-2.1 6.7-6.1V88.6c0-1.8.3-3 1.3-3.4-2.9-.6-4 .6-4 2.8"/><path d="M1720.5 88v10.9c0 3-1.4 4.2-4.1 4.2h-8.8c-4.2 0-5.1-2.2-5.1-7.7v-10h-6.6c-5.1 0-8.2 2.4-8.2 9.8 0 6 1.8 9.7 8.4 9.8h1.2c1.2 0 2.1.2 2.3.9.4-1.9-.4-2.6-1.8-2.6h-1.6c-4.4 0-5.8-2.6-5.8-7.4v-1.4c0-5.3 1.8-7.3 5.6-7.3h4v8.3c0 6.5 1.5 9.5 7.7 9.5h8.8c4.6 0 6.7-2.1 6.7-6.1V88.6c0-1.8.3-3 1.3-3.4-3-.6-4 .6-4 2.8"/><use xlink:href="#D"/><use xlink:href="#D" x="3.9"/><use xlink:href="#D" x="-41.8"/><path d="M1656.4 83.7a1.54 1.54 0 0 0 1.5-1.5 1.54 1.54 0 0 0-1.5-1.5 1.54 1.54 0 0 0-1.5 1.5c0 .9.6 1.5 1.5 1.5m31.2 11.5v-.3.3zm-43.3-.3v.3-.3z"/><path d="M1615.1 102.1c-1.3.4-3.3 1-5.5 1-4.2 0-5.1-2.3-5.1-7.8v-4.2c0-3 1.4-4.2 4.1-4.2h6.5c-.1.3-.1.7-.1 1.1v14l.1.1zm60.4-19.7v16.5c0 3-1.4 4.2-4.1 4.2h-5.9c1-1 1.4-2.5 1.4-4.3V83.1c0-1.8.3-3 1.3-3.4-2.8-.6-3.8.6-3.8 2.7v16.5c0 3-1.4 4.2-4.1 4.2h-6.5c1-1 1.4-2.5 1.4-4.3v-9.9c0-1.8.3-3 1.3-3.4-2.8-.6-3.8.6-3.8 2.7v10.7c0 3-1.4 4.2-4.1 4.2h-6.6c1.8-1.6 2.5-4.4 2.5-7.9 0-7.4-3.2-9.8-8.2-9.8h-6.6v10c0 5.5-.9 7.7-5.1 7.7h-2.5c-2.5 0-3.9-1-4.1-3.6l.2-13.2c.2-.6.5-.9 1-1.1-.3-.1-.7-.1-1-.1h0-9.3c-4.6 0-6.7 2.1-6.7 6.1l-.1 4.2c0 6.5 1.5 9.5 7.7 9.5 2.1 0 4.2-.5 5.5-.9-.1 2.7-1.5 3.9-4.1 3.9h-3.5c-1.5 0-2.4.7-1.9 2.7.2-.7 1.1-.9 2.4-.9h3c4.4 0 6.5-2 6.7-5.7 1 .6 2.4.9 4.2.9h2.5c6.2 0 7.7-3 7.7-9.5V87h4c3.8 0 5.6 1.9 5.6 7.3v1.4c0 4.9-1.4 7.4-5.8 7.4h-3.6c-1.5 0-2.3.7-1.8 2.6.2-.7 1.1-.9 2.3-.9h38.7c4.6 0 6.7-2.1 6.7-6.1V83c0-1.8.3-3 1.3-3.4-3.2-.6-4.2.7-4.2 2.8m-80 5.8v10.7c0 3-1.4 4.2-4.1 4.2h-1.3c-2.7 0-4.1-1.2-4.1-4.2h0V83c0-1.8.3-3 1.3-3.4-2.8-.6-3.8.6-3.8 2.7v20.8c0 3-1.4 4.2-4.1 4.2h-5.4c-2.7 0-4.1-1.2-4.1-4.2v-5c0-3 1.4-4.2 4.1-4.2h1c1.5 0 2.4-.7 1.9-2.7-.2.7-1.1.9-2.4.9h-.6c-4.6 0-6.7 2.1-6.7 6.1v4.9c0 3.9 2.1 6.1 6.7 6.1h5.4c4.3 0 6.4-1.9 6.7-5.3 1 .6 2.4 1 4.2 1h1.3c4.6 0 6.7-2.1 6.7-6.1v-9.9c0-1.8.3-3 1.3-3.4-2.9-.7-4 .5-4 2.7"/><use xlink:href="#E"/><use xlink:href="#F"/><use xlink:href="#E" x="-125.7"/><use xlink:href="#F" x="-125.7"/><path d="M1774 96.9l.9.6 2.5-3.6-6.4-4.4-.1 1a8.26 8.26 0 0 0 3.1 6.4m-3.9 15.6l-2.7-1.8c-4.3-2.9-4.7-6.1-2-10l2.2-3.2 2.1-3.1c-1.5-2.4-1-6.4-1-6.4l-7 10.3c-4.4 6.5-3.4 11.6 2.1 15.4l16.1 11 2.5-3.6-10.9-7.5-1.4-1.1zm19.8 13.6l-.9-.6-2.5 3.6 6.4 4.4.1-1c0-2.5-1.1-4.8-3.1-6.4m10.1-16.7l-16.1-11-2.5 3.6 10.9 7.5 1.4 1 2.7 1.8c4.3 2.9 4.7 6.1 2 10l-2.2 3.2-2.1 3.1c1.5 2.4 1 6.4 1 6.4l7-10.3c4.5-6.4 3.4-11.5-2.1-15.3"/></g><linearGradient id="A" gradientUnits="userSpaceOnUse" x1="266.367" y1="236.422" x2="399.677" y2="236.422"><stop offset="0" stop-color="#7ebf68"/><stop offset="1" stop-color="#28bcec"/></linearGradient><path d="M379.5 216.7h-34.2L327.6 186h-40.8l-20.4 35.4 20.4 35.4h35l17.3 29.9h40.4l20.2-35-20.2-35zm-58.1 29.4H293l-14.2-24.6 14.2-24.6h28.4l14.2 24.6-14.2 24.6zm52.1 30.3h-28.4l-14.2-24.6 14.2-24.6h28.4l14.2 24.6-14.2 24.6z" fill="url(#A)"/><g fill="#28bcec"><path d="M174.6 296.6h-4.4c-.1 3.6-2.5 5.1-6.6 5.1-5.2 0-6.7-3.2-7-7.6l1.7-.6v.3c.1 4.2 1.6 6.1 5.3 6.1 2.5 0 4.7-.7 4.7-3.8v-16l1.8-.6v15.4h4.4v1.7z"/><path d="M180.3 292c0 2.7-1.8 4.6-4.5 4.6h-1.4v-1.7h1.3c1.9 0 2.8-1 2.8-3.1v-6.6l1.8-.6v7.4zm-5.7 9.1c0-.7.4-1.1 1.1-1.1s1.1.4 1.1 1.1-.3 1.1-1.1 1.1c-.7.1-1.1-.3-1.1-1.1zm4.6 1.2c-.7 0-1.1-.4-1.1-1.1s.3-1.1 1.1-1.1c.7 0 1.1.4 1.1 1.1s-.4 1.1-1.1 1.1zm12.4-5.7c-.3 3.2-1.9 5.1-5.3 5.1a5.42 5.42 0 0 1-2.5-.6l-1-2c1.4.7 2.5 1 3.5 1 2 0 3.2-1.4 3.4-3.4H187c-2.9 0-4.7-1.9-4.7-5.9 0-3.9 1.7-5.9 4.7-5.9 3.1 0 4.8 2.4 4.7 5.6v4.5h3.6v1.7h-3.7zm-1.8-1.7v-4.2c0-2.8-1-4.2-2.9-4.2s-2.9 1.4-2.9 4.2 1 4.2 2.9 4.2h2.9z"/><path d="M199.6 296.6h-4.9v-1.7h4.9v1.7z"/><path d="M203.9 296.6H199v-1.7h4.9v1.7z"/><path d="M208.2 296.6h-4.9v-1.7h4.9v1.7z"/><path d="M212.5 296.6h-4.9v-1.7h4.9v1.7z"/><path d="M229.9 296.6h-1.3c-1.5 0-2.5-.4-3.4-1.3-.6 2-2.1 3.1-4.3 3.1s-3.5-1-4.3-2.8c-.8.7-1.9 1.1-3.1 1.1H212V295h1.2c1.7 0 2.6-.9 2.8-2.5.1-3.2 1.4-5.5 4.7-5.5 3 0 4.4 1.8 4.7 4.9 0 2.1 1 3.2 2.9 3.1h1.5v1.6zm-6.3-4c0-2.7-.8-4-2.8-4s-2.8 1.3-2.8 4 .8 4.1 2.8 4.1c2.1-.1 2.8-1.4 2.8-4.1z"/><path d="M239.2 296.6H238c-1.6 0-2.9-.7-3.5-1.8-.8 1.2-2.1 1.8-3.8 1.8h-1.2v-1.7h1.1c1.9 0 2.9-1 2.9-3.1v-6.6l1.8-.6v7.4c0 2 1 2.9 2.8 2.9h1.1v1.7zm-7.7-16.5c0-.7.4-1.1 1.1-1.1s1.1.4 1.1 1.1-.3 1.1-1.1 1.1-1.1-.4-1.1-1.1zm4.6 1.1c-.7 0-1.1-.4-1.1-1.1s.3-1.1 1.1-1.1c.7 0 1.1.4 1.1 1.1.1.7-.3 1.1-1.1 1.1z"/><path d="M248.6 296.6h-1.2c-1.6 0-2.9-.7-3.5-1.8-.8 1.2-2.1 1.8-3.8 1.8h-1.2v-1.7h1.1c1.9 0 2.9-1 2.9-3.1v-11.7l1.8-.6V292c0 2 1 2.9 2.8 2.9h1.1v1.7z"/><path d="M254.3 292c0 2.7-1.8 4.6-4.5 4.6h-1.4v-1.7h1.3c1.9 0 2.8-1 2.8-3.1v-11.7l1.8-.6V292zm-203.5 4.6v-17.8h9.8v2H53v6.1h6.6v1.8H53v7.9h-2.2zm12.6-15.7v-2.2h2.1v2.2h-2.1zm0 2.9h2.1v12.8h-2.1v-12.8zm7.5 12.8h-2.1v-12.8h2.1v2.2c.4-.7.9-1.2 1.3-1.6s.8-.6 1.3-.8c.4-.2 1-.3 1.5-.3a4.65 4.65 0 0 1 2.1.5 2.94 2.94 0 0 1 1.4 1.5c.3.6.5 1.7.5 3.1v8.2h-2v-7.3c0-1.1-.1-2-.2-2.4a1.44 1.44 0 0 0-.9-1.1c-.4-.3-.9-.4-1.4-.4-.6 0-1.2.2-1.7.6-.6.4-1 .9-1.3 1.5-.3.7-.5 1.6-.5 2.8v6.3zm18.7 0c-.2-.7-.3-1.3-.3-1.8-.9.9-1.6 1.5-2.3 1.8-.6.2-1.2.4-1.8.4-1 0-1.8-.3-2.5-.9s-1-1.5-1-2.6c0-1.2.5-2.2 1.5-2.9s2.7-1.3 5-1.7l1.1-.2v-1.4c0-.8-.2-1.3-.7-1.7-.5-.3-1.1-.5-1.8-.5-.8 0-1.5.2-1.9.6-.5.4-.7.8-.7 1.4v.2h-2.3v-.3c0-.6.2-1.2.7-1.8s1.1-1.1 1.8-1.4c.8-.3 1.6-.5 2.5-.5s1.7.1 2.4.4 1.3.7 1.6 1.2.5 1.4.5 2.8v6.7c0 .6.2 1.3.4 2.1h-2.2zm-.3-6.5l-.6.2c-2 .5-3.3 1-3.9 1.5s-.9 1-.9 1.7c0 .3.1.6.3.9s.4.5.7.7.7.2 1 .2c.6 0 1.1-.2 1.7-.5.5-.3 1-.8 1.3-1.4s.5-1.3.5-2v-1.3zm7.6 6.5h-2.1v-12.8h2.1v2.2c.4-.7.9-1.2 1.3-1.6s.8-.6 1.3-.8c.4-.2 1-.3 1.5-.3a4.65 4.65 0 0 1 2.1.5 2.94 2.94 0 0 1 1.4 1.5c.3.6.5 1.7.5 3.1v8.2h-2.1v-7.3c0-1.1-.1-2-.2-2.4a1.44 1.44 0 0 0-.9-1.1c-.4-.3-.9-.4-1.4-.4-.6 0-1.2.2-1.7.6-.6.4-1 .9-1.3 1.5-.3.7-.5 1.6-.5 2.8v6.3zm19.1-3.3h2.1v.1c0 .6-.2 1.2-.6 1.7-.4.6-1 1-1.7 1.3s-1.5.5-2.5.5c-1.9 0-3.3-.6-4.3-1.8s-1.5-2.9-1.5-5 .5-3.8 1.5-5 2.4-1.8 4.3-1.8c1 0 1.8.2 2.5.5s1.2.7 1.7 1.3c.4.5.6 1.1.6 1.8v.1H116v-.1c0-.5-.2-.9-.6-1.2-.4-.4-1.1-.5-2-.5-1.1 0-1.9.4-2.7 1.2-.7.8-1.1 2.1-1.1 3.8 0 1.8.4 3 1.1 3.8s1.6 1.2 2.7 1.2c.9 0 1.5-.2 2-.5.4-.4.6-.8.6-1.2v-.2zm4.6-12.4v-2.2h2.1v2.2h-2.1zm0 2.9h2.1v12.8h-2.1v-12.8zm7.5 12.8H126v-12.8h2.1v2.2c.4-.7.9-1.2 1.3-1.6.4-.3.8-.6 1.3-.8.4-.2 1-.3 1.5-.3a4.65 4.65 0 0 1 2.1.5 2.94 2.94 0 0 1 1.4 1.5c.3.6.5 1.7.5 3.1v8.2h-2.1v-7.3c0-1.1-.1-2-.2-2.4a1.44 1.44 0 0 0-.9-1.1c-.4-.3-.9-.4-1.4-.4-.6 0-1.2.2-1.7.6-.6.4-1 .9-1.3 1.5-.3.7-.5 1.6-.5 2.8v6.3zm19.8-2.7c-.4.9-1 1.6-1.7 2-.7.5-1.5.7-2.4.7-1.5 0-2.7-.6-3.7-1.8s-1.4-2.8-1.4-4.7c0-1.3.2-2.5.6-3.5.4-1.1 1-1.8 1.8-2.4.8-.5 1.7-.8 2.8-.8a4.65 4.65 0 0 1 2.1.5c.6.3 1.2 1 1.9 1.9v-2.1h2.1v10.5c0 2.6-.3 4.4-.8 5.2s-1.2 1.5-2 1.9-1.8.6-2.9.6a8.21 8.21 0 0 1-2.8-.5c-.8-.3-1.4-.7-1.9-1.3-.4-.5-.6-1.1-.6-1.7v-.2h2.1v.2c0 .6.3 1 .9 1.4.6.3 1.4.5 2.3.5.7 0 1.4-.1 1.9-.4s1-.7 1.3-1.3.5-1.7.5-3.2v-1.5zm0-4.1c0-1.4-.3-2.5-1-3.3-.7-.9-1.5-1.3-2.5-1.3s-1.9.4-2.5 1.3c-.7.9-1 2.1-1 3.6 0 1 .1 1.8.4 2.6.3.7.7 1.3 1.3 1.7s1.2.6 1.8.6c1.1 0 1.9-.5 2.6-1.4.6-1.1.9-2.3.9-3.8z"/></g><g fill="#253e84"><path d="M61.8 213.1h22.5c7.4 0 11.9-4.2 11.9-10.7V185l-5.9 1.6v15.2c0 4-2.1 6.1-6.3 6.1H62.6c-4.2 0-6.3-2.1-6.3-6.1v-11.6l-6 6v6.3c.1 6.3 4.7 10.6 11.5 10.6zm7.3-24.1c1.8 0 3.3-1.4 3.3-3.2 0-1.7-1.5-3.2-3.3-3.2s-3.2 1.5-3.2 3.2c0 1.8 1.4 3.2 3.2 3.2zm8.5 0c1.8 0 3.3-1.4 3.3-3.2 0-1.7-1.5-3.2-3.3-3.2-1.7 0-3.2 1.5-3.2 3.2 0 1.8 1.5 3.2 3.2 3.2zm75.1 32.8c0-1.7-1.5-3.2-3.3-3.2s-3.2 1.4-3.2 3.2c0 1.7 1.4 3.2 3.2 3.2s3.3-1.5 3.3-3.2zm8.5 0c0-1.7-1.5-3.2-3.3-3.2s-3.2 1.4-3.2 3.2c0 1.7 1.5 3.2 3.2 3.2s3.3-1.5 3.3-3.2zm34-30.9c-3-2.6-6.6-3.9-11-3.9-1 0-1.8.1-2.8.2l13.7-14.1h-7.9l-19.7 20.1 4.1 3.8c2.9-3.2 6.5-4.8 11.1-4.8 3.5 0 6.3 1 8.5 3 1.6 1.4 2.6 3.5 3 6 .2 1.3.3 3.6.3 6.8h-31.6c-4.2 0-6.3-2.1-6.3-6.2V185l-6 1.7v14.9c0 4.2-2.1 6.3-6.3 6.3h-2.2v-.1h-4.3c-4.2 0-6.3-2-6.3-6v-29l-6 1.4v27.3c0 4.2-2.1 6.2-6.3 6.2h-2.4v-32.3l-6 1.7v30.6h-6.4l-2.8 5.2h18c3.9 0 6.8-1.1 9-3.3 2.1 2.2 5.1 3.3 8.8 3.3h7.2c3.9 0 6.8-1.1 9-3.3 2.2 2.2 5.1 3.3 8.8 3.3h38.2c0-7-.1-11-.2-11.9-.4-4.1-2.2-7.5-5.2-10.1zm54.8-11.4c1.8 0 3.3-1.5 3.3-3.2s-1.5-3.2-3.3-3.2-3.3 1.4-3.3 3.2 1.5 3.2 3.3 3.2zm-8.5 0c1.8 0 3.2-1.5 3.2-3.2s-1.5-3.2-3.2-3.2-3.3 1.4-3.3 3.2 1.5 3.2 3.3 3.2z"/><path d="M249.6 209.9c2.2-2.1 3.2-4.7 3.2-7.9v-17l-6 1.7v14.9c0 4.2-2.1 6.3-6.3 6.3h-9.9l.1-7.6c0-9.7-4.1-14.5-12.1-14.5-4.3 0-7.6 1.6-9.8 4.6-1.8 2.5-2.8 5.8-2.8 9.9 0 3.7 1.1 6.7 3.2 9 2.3 2.4 5.6 3.7 9.8 3.7h4.9c-.5 3.7-3.4 6.7-7.4 6.8-3.1.1-6.4-.6-9.9-2.2l2.7 5.7c1.7 1.1 4.2 1.6 7.4 1.6 3.7 0 6.8-1.2 9.2-3.6 2.2-2.2 3.5-4.9 4.1-8.3h10.9c3.7.1 6.6-1 8.7-3.1zm-24.9-1.9h-5.6c-4.7 0-7-2.5-7-7.6 0-6.3 2.2-9.4 6.6-9.4 2.6 0 4.4 1.1 5.3 3.1.6 1.3.8 3.4.8 6.3l-.1 7.6zM76.1 237.8v-5.9H50.3v5.9h7v33.6h5.9v-33.6zm118.1-5.9h5.9v39.4h-5.9zM127.1 262a3.12 3.12 0 0 1-3.1 3.1h-3.5v-15.6h-6.3v15.6h-6.5v-21.5h-6.3v27.8h24.3c4.2 0 7.7-3.4 7.7-7.7v-20.1h-6.3V262zm30.9-18.4h-6.5l-7.4 11.4v-23.1h-5.9v39.5h5.9v-14.9l10.4 14.9h6.8L150.6 256zm95.6 5.8v-5.8h-9.5v-9.5a2.22 2.22 0 0 0-2.2-2.2h-3.7v39.4h8.7c6.1 0 6.7-5.7 6.7-5.7v-6.3c0-1.1-.9-2-2-2h-2.8v5.5c0 2.8-2.7 2.7-2.7 2.7h-2v-16.3h9.5zm-173.9-5.9c-5.2 1.1-9.5 5.4-10.6 10.6-2 9 4.6 16.9 13.1 17.3h11.9c1.6 0 2.9-1.3 2.9-2.9v-11.9c-.4-8.5-8.3-15.1-17.3-13.1zm11 21.6h-8.5v-.1c-4-.3-7.2-3.7-7.2-7.8 0-4.3 3.5-7.8 7.8-7.8 4.1 0 7.4 3.2 7.8 7.2h.1v8.5zM216 243.5c-5.2 1.1-9.5 5.4-10.6 10.6-2 9 4.6 16.9 13.1 17.3h11.9c1.6 0 2.9-1.3 2.9-2.9v-11.9c-.4-8.5-8.3-15.1-17.3-13.1zm11.1 21.6h-8.5v-.1c-4-.3-7.2-3.7-7.2-7.8 0-4.3 3.5-7.8 7.8-7.8 4.1 0 7.4 3.2 7.8 7.2h.1v8.5zm-55.7-21.6c-5.2 1.1-9.4 5.4-10.6 10.6-2 9 4.6 16.9 13.1 17.3h11.9c1.6 0 2.9-1.3 2.9-2.9v-3.4h-14.9v-.1c-2.9-.3-5.3-2.1-6.5-4.6h19.1a2.22 2.22 0 0 0 2.2-2.2v-1.7c-.3-8.5-8.2-15-17.2-13zm-4.2 11.4c1-3.2 3.9-5.5 7.4-5.5s6.4 2.3 7.4 5.5h-14.8z"/></g><defs ><path id="C" d="M1662.9 133.6v-8.9c0-3.5-1.8-5.4-5.9-5.4h-7.1c-.3 0-.5.1-.8.1.8.3 1.1 1.4 1.1 3v12c0 1.9.9 3 3.3 2.4-.8-.3-1.1-1.4-1.1-3v-12c0-.4 0-.7-.1-1h4.7c2.4 0 3.7 1.1 3.7 3.7v9.5c0 1.9.9 3 3.3 2.4-.8-.1-1.1-1.2-1.1-2.8"/><path id="D" d="M1694.3 83.7a1.54 1.54 0 0 0 1.5-1.5 1.54 1.54 0 0 0-1.5-1.5 1.54 1.54 0 0 0-1.5 1.5 1.47 1.47 0 0 0 1.5 1.5"/><path id="E" d="M1715.8 106.8a1.54 1.54 0 0 0-1.5 1.5 1.54 1.54 0 0 0 1.5 1.5 1.54 1.54 0 0 0 1.5-1.5c0-.9-.6-1.5-1.5-1.5"/><path id="F" d="M1719.7 106.8a1.54 1.54 0 0 0-1.5 1.5 1.54 1.54 0 0 0 1.5 1.5 1.54 1.54 0 0 0 1.5-1.5 1.47 1.47 0 0 0-1.5-1.5"/></defs></svg>