<?xml version="1.0" encoding="utf-8"?>
<!-- Generator: Adobe Illustrator 24.1.2, SVG Export Plug-In . SVG Version: 6.00 Build 0)  -->
<svg version="1.1" id="Layer_1" xmlns="http://www.w3.org/2000/svg" xmlns:xlink="http://www.w3.org/1999/xlink" x="0px" y="0px"
	 viewBox="0 0 450 475.1" style="enable-background:new 0 0 450 475.1;" xml:space="preserve">
<style type="text/css">
	.st0{fill:#FCBA29;}
	.st1{fill:#8A298C;}
</style>
<path class="st0" d="M289,181.6v48h7.4v-41.9h22.8v-6H289z M303.7,208.7h15.6v-6.4h-19.8L303.7,208.7z M301.4,223.8h17.9v5.8h-17.9
	V223.8z M312.3,267.8c0,0,0.7,9-8.3,9h-8.3l-3.9,5.9h13c0,0,14.5,1,14.5-14.8V248h-7.1L312.3,267.8L312.3,267.8z M301.4,238.3h17.9
	v6.1h-17.9V238.3z"/>
<path class="st1" d="M124.1,181.6H86.4v6h14.9v41.9h7.7v-41.9h15.1V181.6z M158.8,229.5h7.5c-6.5-27.7-19.2-48-19.2-48h-5.9
	c-13.7,20-19.9,48-19.9,48h7.4c4.1-21.7,15.1-40.5,15.1-40.5c3.8,6.5,6.7,12.6,8.8,18.1H137l3.5,5.9h14.3
	C158,223.1,158.8,229.5,158.8,229.5z M181.6,229.5h7.4v-13.2l17.5-34.8h-7.1l-14,27l-13.1-27h-7.4l16.8,35L181.6,229.5z
	 M241.5,216.8c0-14.6-24.8-15.5-24.8-25.1c0-3.5,4.7-4.1,6.9-4.1h15.3v-5.9h-15.3c0,0-13.7-0.5-13.7,11.4s24.9,14,24.9,24.4
	c0,7.1-8.2,6.5-8.2,6.5h-16.7v5.9h17.4C227.3,229.5,241.5,230,241.5,216.8L241.5,216.8z M280,223.7h-22.8v-36.1H280v-6h-30.2v48H280
	V223.7z M280,208.7v-6.4h-19.8l4.2,6.4H280z M351.8,212.1c0,0,10-2.3,10-15c0-16.1-13.9-15.5-13.9-15.5h-21.1v48h7.7v-41.7h13.4
	c0,0,6.6,0,6.6,9.1c0,12.1-14,10.3-14,10.3l14.5,22.3h8.7L351.8,212.1L351.8,212.1z M354.9,235.7h7.1v46.9h-7.1V235.7z M339.5,267.8
	c0,0,0.7,9-8.3,9h-11.9l-3.9,5.9h16.6c0,0,14.5,1,14.5-14.8v-32.1h-7.1L339.5,267.8L339.5,267.8z M277.4,285.9h7.1v7.6h-7.1V285.9z
	 M287.6,285.9h7.1v7.6h-7.1V285.9z M166.2,285.9h7.1v7.6h-7.1V285.9z M176.4,285.9h7.1v7.6h-7.1V285.9z M279.3,282.6
	c0,0,14.5,1,14.5-14.8V248h-7.1v19.9c0,0,0.7,9-8.3,9h-2.1c-7.9,0-8.3-6.7-8.3-8.5V245h-7.1v23.3c0,1.8-0.5,8.5-8.3,8.5h-8.4
	l-0.6,0.7c1.6-2.2,2.7-5.2,2.7-9.7V248h-7.1v19.9c0,0,0.7,9-8.3,9h-7.9c1.3-2.1,2.2-5.1,2.2-9V248H218v19.9c0,0,0.7,9-8.3,9h-12.3
	c-9,0-8.3-9-8.3-9v-29.1h-7.1v6.1h-3.7c-15.8,0-14.8,14.5-14.8,14.5v8.4c0,0,0.7,9-8.3,9h-14.3l-0.2,5.9h14.2c0,0,14.5,1,14.5-14.8
	h-0.1v-8.3c0-9,9-8.3,9-8.3h3.7v16.7c0,15.8,14.5,14.8,14.5,14.8h13.9c0,0,4.6,0.3,8.6-2.2c1.3,1.3,3.8,2.1,6.3,2.2h6.1
	c0,0,5.6,0.4,9.8-3.1l-0.7,0.7c1.2,1.5,3.9,2.2,6.5,2.4h6.1c0,0,6.7,0.4,11.1-4.3c4.3,4.7,11.1,4.3,11.1,4.3H279.3L279.3,282.6z"/>
</svg>
