<?xml version="1.0" encoding="utf-8"?>
<!-- Generator: Adobe Illustrator 24.1.2, SVG Export Plug-In . SVG Version: 6.00 Build 0)  -->
<svg version="1.1" id="Layer_1" xmlns="http://www.w3.org/2000/svg" xmlns:xlink="http://www.w3.org/1999/xlink" x="0px" y="0px"
	 viewBox="0 0 450 475.1" style="enable-background:new 0 0 450 475.1;" xml:space="preserve">
<style type="text/css">
	.st0{fill:#1C5AA7;}
</style>
<g>
	<path class="st0" d="M58.8,276.4V262c0-5.6-3-8.7-9.6-8.7H45c-1.8,0-3.1-0.3-3.4-1.3c-0.6,2.8,0.5,3.8,2.8,3.8h5c3.9,0,6,1.7,6,6.1
		v2.7l-8.8,0.9c-6.4,0.5-9,3.4-9,8.1c0,5.3,3.2,8.2,8.4,8.2c2.2,0,4.3-0.2,6.3-0.5c2.9-0.5,2-3.7,2-3.7c-0.1,0.7-1.3,1.1-1.3,1.1
		c-2.2,0.6-4.5,0.9-6.8,0.9c-3,0-4.8-2.2-4.8-5.7c0-3.2,1.4-5.2,5.6-5.6l8.5-0.7v10.2c0,3.1,1.5,4.8,5.4,3.9
		C59.3,280.6,58.8,278.9,58.8,276.4"/>
	<path class="st0" d="M37.9,251.9c-0.3,1-1.6,1.3-3.4,1.3h-4.3c-6.6,0-9.6,3.1-9.6,8.7v14.4c0,2.6-0.4,4.4-1.8,4.8
		c3.9,1,5.4-0.9,5.4-3.9v-15.3c0-4.3,2-6.1,6-6.1h5C37.3,255.8,38.5,254.7,37.9,251.9"/>
	<path class="st0" d="M57.3,232.9c-1.3,0-2.3,1.1-2.3,2.3c0,1.3,1.1,2.3,2.3,2.3c1.3,0,2.3-1.1,2.3-2.3
		C59.7,234,58.6,232.9,57.3,232.9"/>
	<path class="st0" d="M63.6,232.9c-1.3,0-2.3,1.1-2.3,2.3c0,1.3,1.1,2.3,2.3,2.3c1.3,0,2.3-1.1,2.3-2.3
		C65.9,234,64.9,232.9,63.6,232.9"/>
	<g>
		<path class="st0" d="M109.8,276.4v-14.5c0-5.6-3-8.7-9.6-8.7h-4.3c-1.8,0-3.1-0.3-3.4-1.3c-0.6,2.8,0.5,3.8,2.8,3.8h5
			c3.9,0,6,1.7,6,6.1v2.7l-8.8,0.9c-6.4,0.5-9,3.4-9,8.1c0,5.3,3.3,8.2,8.4,8.2c2.1,0,4.2-0.2,6.3-0.5c2.9-0.5,2-3.7,2-3.7
			c0,0.7-1.2,1.1-1.2,1.1c-2.2,0.6-4.5,0.9-6.8,0.9c-3,0-4.8-2.2-4.8-5.7c0-3.2,1.4-5.2,5.6-5.6l8.5-0.7v10.2c0,3.1,1.5,4.8,5.4,3.9
			C110.2,280.6,109.8,278.9,109.8,276.4"/>
		<path class="st0" d="M81.8,257.5v20.2c-1.8,0.5-4.8,1.4-7.9,1.4c-6.1,0-7.2-3.2-7.2-11.2v-10.2c0-3.1-1.6-4.8-5.5-3.9
			c1.4,0.5,1.8,2.2,1.8,4.8v9.2c0,9.2,2.1,13.6,11,13.6c3.1,0,6.1-0.7,7.9-1.4l0,0v2.3c0,4.3-2,6.1-6,6.1h-5c-2.1,0-3.4,1.1-2.8,3.8
			c0.3-1,1.6-1.3,3.4-1.3h4.3c6.6,0,9.6-3.1,9.6-8.7v-23.9c0-2.6,0.4-4.4,1.8-4.8C83.3,252.7,81.8,254.4,81.8,257.5"/>
		<path class="st0" d="M199.8,276.4v-14.5c0-5.6-3-8.7-9.6-8.7H186c-1.8,0-3.1-0.3-3.4-1.3c-0.6,2.8,0.5,3.8,2.8,3.8h5
			c3.9,0,6,1.7,6,6.1v2.7l-8.8,0.9c-6.4,0.5-9,3.4-9,8.1c0,5.3,3.3,8.2,8.4,8.2c2.1,0,4.2-0.2,6.3-0.5c2.9-0.5,2-3.7,2-3.7
			c-0.1,0.7-1.2,1.1-1.2,1.1c-2.2,0.6-4.5,0.9-6.8,0.9c-3,0-4.8-2.2-4.8-5.7c0-3.2,1.4-5.2,5.6-5.6l8.5-0.7v10.2
			c0,3.1,1.5,4.8,5.4,3.9C200.2,280.6,199.8,278.9,199.8,276.4"/>
		<path class="st0" d="M137.9,244.4h-4.3c-6.6,0-9.6,3.1-9.6,8.7v23.4c0,2.6-0.4,4.4-1.8,4.8c3.9,1,5.4-0.9,5.4-3.9v-12.9h9.9
			c2.1,0,3.4-1.1,2.8-3.8c-0.3,1-1.6,1.3-3.4,1.3h-9.2V253c0-4.3,2-6.1,6-6.1h4.9c2.1,0,3.4-1.1,2.8-3.8
			C141.1,244.2,139.8,244.4,137.9,244.4"/>
		<path class="st0" d="M147.3,250.1c1.2,0,2.1-1,2.1-2.1c0-1.2-1-2.1-2.1-2.1s-2.1,1-2.1,2.1C145.2,249.2,146.1,250.1,147.3,250.1"
			/>
		<g>
			<path id="F" class="st0" d="M149,276.8v-19.5c0-3.1-1.5-4.8-5.4-3.9c1.4,0.5,1.8,2.2,1.8,4.8v19.5c0,3.1,1.5,4.8,5.4,3.9
				C149.4,281.2,149,279.5,149,276.8"/>
		</g>
		<path class="st0" d="M175,276.4V262c0-5.6-3-8.7-9.6-8.7h-11.4c-0.4,0-0.9,0.1-1.4,0.2c1.4,0.5,1.8,2.2,1.8,4.8v19.5
			c0,3.1,1.5,4.8,5.4,3.9c-1.4-0.5-1.8-2.2-1.8-4.8v-19.5c0-0.5,0-1.1-0.1-1.6h7.7c3.9,0,6,1.7,6,6.1v15.3c0,3.1,1.5,4.8,5.4,3.9
			C175.5,280.6,175,278.9,175,276.4 M252.5,250.1c1.2,0,2.1-1,2.1-2.1c0-1.2-1-2.1-2.1-2.1s-2.1,1-2.1,2.1
			C250.4,249.2,251.5,250.1,252.5,250.1"/>
		<g>
			<path id="F_1_" class="st0" d="M254.3,276.8v-19.5c0-3.1-1.5-4.8-5.4-3.9c1.4,0.5,1.8,2.2,1.8,4.8v19.5c0,3.1,1.5,4.8,5.4,3.9
				C254.8,281.2,254.3,279.5,254.3,276.8"/>
		</g>
		<path class="st0" d="M280.1,276.4V262c0-5.6-3-8.7-9.6-8.7H259c-0.4,0-0.9,0.1-1.4,0.2c1.4,0.5,1.8,2.2,1.8,4.8v19.5
			c0,3.1,1.5,4.8,5.4,3.9c-1.4-0.5-1.8-2.2-1.8-4.8v-19.5c0-0.5,0-1.1-0.1-1.6h7.7c3.9,0,6,1.7,6,6.1v15.3c0,3.1,1.5,4.8,5.4,3.9
			C280.6,280.6,280.1,278.9,280.1,276.4 M224.9,276.4V262c0-5.6-3-8.7-9.6-8.7H204c-0.4,0-0.9,0.1-1.4,0.2c1.4,0.5,1.8,2.2,1.8,4.8
			v19.5c0,3.1,1.5,4.8,5.4,3.9c-1.4-0.5-1.8-2.2-1.8-4.8v-19.5c0-0.5,0-1.1-0.1-1.6h7.7c3.9,0,6,1.7,6,6.1v15.3
			c0,3.1,1.5,4.8,5.4,3.9C225.4,280.6,224.9,278.9,224.9,276.4"/>
		<path class="st0" d="M238.3,255.8h5c2.1,0,3.4-1.1,2.8-3.8c-0.3,1-1.6,1.3-3.4,1.3h-4.3c-6.6,0-9.6,3.1-9.6,8.7v10.5
			c0,5.6,3,8.7,9.6,8.7h4.3c1.8,0,3.1,0.3,3.4,1.3c0.6-2.8-0.5-3.8-2.8-3.8h-5c-3.9,0-6-1.7-6-6.1v-10.6
			C232.3,257.6,234.4,255.8,238.3,255.8 M302.1,277.7c-1.8,0.5-4.8,1.4-7.9,1.4c-6,0-7.2-3.2-7.2-11.2v-6.1c0-4.3,2-6.1,6-6.1h9.4
			c-0.1,0.5-0.1,1-0.1,1.6v20L302.1,277.7L302.1,277.7z M307.6,253.5c-0.5-0.1-1-0.2-1.4-0.2l0,0h-13.3c-6.6,0-9.6,3.1-9.6,8.7
			l-0.1,6c0,9.2,2.1,13.6,11,13.6c3.1,0,6.1-0.7,7.9-1.4l0,0v2.3c0,4.3-2,6.1-6,6.1h-5c-2.1,0-3.4,1.1-2.8,3.8
			c0.3-1,1.6-1.3,3.4-1.3h4.3c6.6,0,9.6-3.1,9.6-8.7V277l0.4-21.9C306.4,254.3,306.9,253.7,307.6,253.5 M279.5,193.6v30.7
			c0,2.9-0.5,4.9-2,5.4c4.5,1.1,6.2-1,6.2-4.4v-30.7c0-2.9,0.5-4.9,2-5.4C281.1,188.2,279.5,190.1,279.5,193.6 M301.4,202.5V220
			c0,4.8-2.2,6.8-6.7,6.8h-2.6c-2.4,0-3.8,1.2-3.1,4.4c0.4-1.1,1.8-1.5,3.8-1.5h1.9c7.4,0,10.8-3.5,10.8-9.9v-16.3
			c0-2.9,0.5-4.9,2-5.4C303,197.2,301.4,199.1,301.4,202.5"/>
		<path class="st0" d="M268.1,202.5V220c0,4.8-2.2,6.8-6.7,6.8h-14.2c-6.8,0-8.2-3.5-8.2-12.4v-16.2h-10.8
			c-8.2,0-13.3,3.8-13.3,15.8c0,9.8,3,15.6,13.6,15.7h1.9c2,0,3.3,0.3,3.7,1.4c0.6-3.1-0.6-4.1-3-4.1h-2.6c-7.1,0-9.4-4.1-9.5-12
			v-2.3c0-8.6,2.9-11.7,9-11.7h6.5v13.5c0,10.4,2.4,15.4,12.4,15.4h14.2c7.4,0,10.8-3.5,10.8-9.9v-16.4c0-2.9,0.5-4.9,2-5.4
			C269.7,197.2,268.1,199.1,268.1,202.5 M225.7,195.7c1.3,0,2.3-1.1,2.3-2.3c0-1.3-1.1-2.3-2.3-2.3c-1.3,0-2.3,1.1-2.3,2.3
			C223.3,194.7,224.4,195.7,225.7,195.7"/>
		<path class="st0" d="M232,195.7c1.3,0,2.3-1.1,2.3-2.3s-1.1-2.3-2.3-2.3s-2.3,1.1-2.3,2.3C229.6,194.7,230.6,195.7,232,195.7"/>
		<g>
			<path id="G" class="st0" d="M158.1,195.7c1.3,0,2.3-1.1,2.3-2.3c0-1.3-1.1-2.3-2.3-2.3c-1.3,0-2.3,1.1-2.3,2.3
				C155.7,194.7,156.8,195.7,158.1,195.7"/>
		</g>
		<g>
			<path id="G_1_" class="st0" d="M164.4,195.7c1.3,0,2.3-1.1,2.3-2.3c0-1.3-1.1-2.3-2.3-2.3c-1.3,0-2.3,1.1-2.3,2.3
				C162,194.7,163,195.7,164.4,195.7"/>
		</g>
		<path class="st0" d="M214.8,214.3v-0.5V214.3z"/>
		<path class="st0" d="M144.8,213.8v0.5V213.8z"/>
		<path class="st0" d="M97.7,225.5c-2,0.6-5.3,1.6-8.8,1.6c-6.8,0-8.2-3.6-8.2-12.5v-6.8c0-4.9,2.2-6.8,6.7-6.8H98
			c-0.1,0.5-0.2,1.1-0.2,1.7L97.7,225.5L97.7,225.5z M195.2,193.6v26.6c0,4.8-2.2,6.8-6.7,6.8h-9.5c1.6-1.6,2.2-4,2.2-6.9v-25.3
			c0-2.9,0.5-4.9,2-5.4c-4.5-1.1-6.2,1-6.2,4.4v26.6c0,4.8-2.2,6.8-6.7,6.8H160c1.6-1.6,2.2-4,2.2-6.9v-15.9c0-2.9,0.5-4.9,2-5.4
			c-4.5-1.1-6.2,1-6.2,4.4v17.3c0,4.8-2.2,6.8-6.7,6.8h-10.7c3-2.7,4-7.1,4-12.9c0-12-5.1-15.8-13.3-15.8h-10.7v16.2
			c0,8.9-1.4,12.4-8.2,12.4h-4c-4.1,0-6.3-1.7-6.7-5.7l0.4-21.3c0.3-1,0.9-1.5,1.6-1.8c-0.5-0.1-1.1-0.2-1.6-0.2l0,0h-15
			c-7.4,0-10.8,3.5-10.8,9.9l-0.1,6.8c0,10.4,2.4,15.4,12.4,15.4c3.5,0,6.8-0.9,8.8-1.5c-0.1,4.5-2.4,6.3-6.7,6.3h-5.6
			c-2.4,0-3.8,1.2-3.1,4.4c0.4-1.1,1.8-1.5,3.8-1.5h4.9c7.1,0,10.5-3.2,10.8-9.2c1.7,1,3.9,1.5,6.8,1.5h4c10,0,12.4-4.9,12.4-15.4
			v-13.4h6.5c6.2,0,9,3.1,9,11.7v2.3c0,7.9-2.3,12-9.5,12h-5.7c-2.3,0-3.6,1.2-3,4.1c0.4-1.1,1.7-1.4,3.7-1.4h62.5
			c7.4,0,10.8-3.5,10.8-9.9v-25.4c0-2.9,0.5-4.9,2-5.4C196.9,188.2,195.2,190.1,195.2,193.6"/>
		<path class="st0" d="M66.1,202.9v17.3c0,4.8-2.2,6.8-6.7,6.8h-2.1c-4.5,0-6.7-2-6.7-6.8l0,0v-25.4c0-2.9,0.5-4.9,2-5.4
			c-4.5-1.1-6.2,1-6.2,4.4v33.4c0,4.8-2.2,6.8-6.7,6.8H31c-4.5,0-6.7-2-6.7-6.8V219c0-4.8,2.2-6.8,6.7-6.8h1.7
			c2.4,0,3.8-1.2,3.1-4.4c-0.4,1.1-1.8,1.5-3.8,1.5h-1c-7.4,0-10.8,3.5-10.8,9.9v8c0,6.4,3.4,9.9,10.8,9.9h8.7
			c6.9,0,10.3-3.1,10.7-8.6c1.7,1.1,3.9,1.6,6.8,1.6h2.1c7.4,0,10.8-3.5,10.8-9.9v-16.1c0-2.9,0.5-4.9,2-5.4
			C67.7,197.5,66.1,199.4,66.1,202.9"/>
		<path class="st0" d="M260.5,232.9c-1.3,0-2.3,1.1-2.3,2.3c0,1.3,1.1,2.3,2.3,2.3c1.3,0,2.3-1.1,2.3-2.3
			C262.9,234,261.9,232.9,260.5,232.9"/>
		<path class="st0" d="M266.8,232.9c-1.3,0-2.3,1.1-2.3,2.3c0,1.3,1.1,2.3,2.3,2.3c1.3,0,2.3-1.1,2.3-2.3
			C269.1,234,268.1,232.9,266.8,232.9"/>
		<g>
			<path class="st0" d="M348.3,257.3l1.4-1.9l-7.6-5.3l-9.4,13.6l2.1,0.1C340.2,263.9,345.1,261.4,348.3,257.3 M383.3,262.5l-2.1,3
				l-3.9,5.7c-6.1,9-12.9,9.8-21,4.1l-6.8-4.7l-6.6-4.6c-5.1,3.2-13.4,2.1-13.4,2.1l21.6,14.7c13.7,9.4,24.3,7.2,32.5-4.6l23.1-33.7
				l-7.6-5.3L383.3,262.5L383.3,262.5z"/>
			<path class="st0" d="M409.9,223.9l-1.2,1.9l7.6,5.3l9.4-13.6l-2.1-0.1C418,217.4,413,219.8,409.9,223.9"/>
			<path class="st0" d="M374.9,218.8l2.1-2.9l3.9-5.7c6.1-9,12.9-9.8,21-4.1l6.8,4.7l6.6,4.6c5.1-3.2,13.4-2.1,13.4-2.1L407,198.4
				c-13.7-9.4-24.3-7.2-32.5,4.6l-23.1,33.7l7.6,5.3L374.9,218.8L374.9,218.8z"/>
			<path class="st0" d="M362.4,210l1.9,1.4l5.3-7.6l-13.6-9.4l-0.1,2.1C355.8,201.7,358.3,206.7,362.4,210"/>
			<path class="st0" d="M354.1,242.7l-5.7-3.9c-9-6.1-9.8-12.9-4.1-21l4.7-6.8l4.6-6.6c-3.2-5.1-2.1-13.4-2.1-13.4l-14.7,21.6
				c-9.4,13.7-7.2,24.3,4.6,32.5l33.7,23.1l5.3-7.6l-23-15.8L354.1,242.7L354.1,242.7z"/>
			<path class="st0" d="M395.8,271.4l-1.9-1.4l-5.3,7.6l13.6,9.4l0.1-2.1C402.4,279.5,399.9,274.7,395.8,271.4"/>
			<path class="st0" d="M416.9,236.2l-33.7-23.1l-5.3,7.6l23,15.8l3,2.1l5.7,3.9c9,6.1,9.8,12.9,4.1,21l-4.7,6.8l-4.6,6.6
				c3.2,5.1,2.1,13.4,2.1,13.4l14.7-21.6C430.8,254.9,428.7,244.3,416.9,236.2"/>
		</g>
	</g>
</g>
</svg>
