<svg id="Layer_1" data-name="Layer 1" xmlns="http://www.w3.org/2000/svg" viewBox="0 0 841.89 271.28"><defs><style>.cls-1,.cls-4{fill:#98002e;}.cls-1{fill-rule:evenodd;}.cls-2{fill:#808285;}.cls-3{fill:#807f83;}</style></defs><path class="cls-1" d="M277.51,209.9a12,12,0,0,1-11.7,11.7c-5.85,0-10.86-5.85-10.86-11.7,0-6.69,5-11.7,10.86-11.7A11.42,11.42,0,0,1,277.51,209.9Z"/><path class="cls-1" d="M244.92,227.45c0,5-3.35,8.36-8.36,8.36-4.17,0-7.52-3.34-7.52-8.36a7.49,7.49,0,0,1,7.52-7.52C241.57,219.93,244.92,223.27,244.92,227.45Z"/><path class="cls-1" d="M211.49,227.45a7.52,7.52,0,1,1-7.53-7.52A7.5,7.5,0,0,1,211.49,227.45Z"/><path class="cls-1" d="M181.4,218.26a6.58,6.58,0,0,1-6.68,6.68c-4.18,0-7.52-3.34-7.52-6.68a7.49,7.49,0,0,1,7.52-7.52C178.9,210.74,181.4,214.08,181.4,218.26Z"/><path class="cls-1" d="M158,202.39c0,4.17-3.34,6.68-7.52,6.68a6.59,6.59,0,0,1-6.68-6.68c0-4.19,3.34-7.53,6.68-7.53A7.49,7.49,0,0,1,158,202.39Z"/><path class="cls-1" d="M139.62,183.16c0,2.51-2.51,5-5.85,5a5.39,5.39,0,0,1-5-5c0-3.34,2.51-5.85,5-5.85A5.72,5.72,0,0,1,139.62,183.16Z"/><path class="cls-1" d="M127.08,163.94a4.18,4.18,0,1,1-4.17-4.18A3.94,3.94,0,0,1,127.08,163.94Z"/><path class="cls-1" d="M121.23,145.55c0,2.51-1.67,4.18-3.34,4.18a4,4,0,0,1-4.18-4.18c0-1.67,1.67-3.34,4.18-3.34A3.59,3.59,0,0,1,121.23,145.55Z"/><path class="cls-1" d="M115.38,130.51a2.51,2.51,0,1,1-5,0c0-1.67.83-3.34,2.5-3.34S115.38,128.84,115.38,130.51Z"/><path class="cls-1" d="M113.71,117.14c0,.83-.84,1.67-2.51,1.67-.83,0-2.5-.84-2.5-1.67a2.67,2.67,0,0,1,2.5-2.51A2.22,2.22,0,0,1,113.71,117.14Z"/><path class="cls-1" d="M113.71,103.77c0,.83-.84,2.51-1.67,2.51a2.52,2.52,0,0,1,0-5C112.87,101.25,113.71,102.93,113.71,103.77Z"/><path class="cls-1" d="M115.38,92.9c0,.84-.84.84-1.67.84a.84.84,0,0,1,0-1.68C114.54,92.06,115.38,92.06,115.38,92.9Z"/><path class="cls-1" d="M132.93,63.65c0,.84,0,.84-.83.84s-.84,0-.84-.84,0-.84.84-.84S132.93,62.81,132.93,63.65Z"/><path class="cls-1" d="M154.66,43.6a2.94,2.94,0,0,1-1.67.83l-.84-.83a2.89,2.89,0,0,1,.84-1.67A1.8,1.8,0,0,1,154.66,43.6Z"/><path class="cls-1" d="M175.55,30.22a1.79,1.79,0,0,1-1.67,1.67c-.83,0-.83-.83-.83-1.67s0-.83.83-.83S175.55,29.39,175.55,30.22Z"/><path class="cls-1" d="M199.79,23.54a1.67,1.67,0,1,1-3.34,0,1.67,1.67,0,1,1,3.34,0Z"/><path class="cls-1" d="M224,21.87a1.67,1.67,0,0,1-3.34,0c0-.84.84-.84,1.67-.84S224,21,224,21.87Z"/><path class="cls-1" d="M244.09,24.37A1.8,1.8,0,0,1,242.41,26c-.84,0-.84-.83-.84-1.67s0-1.67.84-1.67A1.81,1.81,0,0,1,244.09,24.37Z"/><path class="cls-1" d="M306.76,184c0,6.68-5.85,12.53-13.37,12.53A12.84,12.84,0,0,1,280.86,184c0-7.53,5.84-13.37,12.53-13.37A13.19,13.19,0,0,1,306.76,184Z"/><path class="cls-1" d="M323.48,150.57c0,7.52-5.85,14.2-13.38,14.2s-13.36-6.68-13.36-14.2a13.37,13.37,0,1,1,26.74,0Z"/><path class="cls-1" d="M326,113.79a13.37,13.37,0,1,1-26.74,0c0-6.68,5.85-12.54,13.37-12.54S326,107.11,326,113.79Z"/><path class="cls-1" d="M313.45,80.37c0,5-5,10-10.87,10-5,0-10-5-10-10,0-5.86,5-10.87,10-10.87A11.06,11.06,0,0,1,313.45,80.37Z"/><path class="cls-1" d="M291.72,52.79c0,3.34-1.68,5.85-5,5.85a5.71,5.71,0,0,1-5.84-5.85c0-2.51,2.5-5,5.84-5A4.83,4.83,0,0,1,291.72,52.79Z"/><path class="cls-1" d="M280,72a9.28,9.28,0,0,1-9.19,9.19c-5,0-8.36-4.18-8.36-9.19a8.37,8.37,0,0,1,8.36-8.36C275.84,63.65,280,67.83,280,72Z"/><path class="cls-1" d="M288.38,108c0,5-5,10-10,10-5.85,0-10.86-5-10.86-10a11.06,11.06,0,0,1,10.86-10.87C283.36,97.08,288.38,102.09,288.38,108Z"/><path class="cls-1" d="M287.54,142.21A12.84,12.84,0,0,1,275,154.74a12.53,12.53,0,1,1,0-25.06A12.84,12.84,0,0,1,287.54,142.21Z"/><path class="cls-1" d="M269.16,176.47c0,5.85-5.86,10.87-11.7,10.87-6.69,0-11.71-5-11.71-10.87a11.43,11.43,0,0,1,11.71-11.7A12,12,0,0,1,269.16,176.47Z"/><path class="cls-1" d="M237.4,201.55a9.2,9.2,0,1,1-9.19-9.19A9.28,9.28,0,0,1,237.4,201.55Z"/><path class="cls-1" d="M205.64,190.68c0,4.18-4.18,8.36-9.19,8.36-4.18,0-8.36-4.18-8.36-8.36,0-5,4.18-9.19,8.36-9.19A9.28,9.28,0,0,1,205.64,190.68Z"/><path class="cls-1" d="M183.07,174.8c0,4.18-4.17,8.36-8.35,8.36s-8.36-4.18-8.36-8.36a8.36,8.36,0,0,1,16.71,0Z"/><path class="cls-1" d="M164.69,159.76a5.85,5.85,0,1,1-5.85-5.85A5.72,5.72,0,0,1,164.69,159.76Z"/><path class="cls-1" d="M234.89,164.77a9.28,9.28,0,0,1-9.2,9.2c-5.84,0-10-4.18-10-9.2a9.66,9.66,0,0,1,10-10C230.71,154.74,234.89,158.92,234.89,164.77Z"/><path class="cls-1" d="M250.77,131.35c0,5-4.18,10-9.2,10a10,10,0,0,1,0-20.06C246.59,121.32,250.77,126.33,250.77,131.35Z"/><path class="cls-1" d="M257.46,97.08a9.2,9.2,0,1,1-9.2-9.19A9.29,9.29,0,0,1,257.46,97.08Z"/><path class="cls-1" d="M208.15,150.57a7.49,7.49,0,0,1-7.53,7.52c-5,0-8.35-3.35-8.35-7.52,0-5,3.34-8.36,8.35-8.36C204.81,142.21,208.15,145.55,208.15,150.57Z"/><path class="cls-1" d="M186.42,133.85a7.19,7.19,0,0,1-6.69,6.68c-4.18,0-7.52-3.34-7.52-6.68a7.49,7.49,0,0,1,7.52-7.52C183.07,126.33,186.42,129.68,186.42,133.85Z"/><path class="cls-1" d="M173.05,116.3a5.86,5.86,0,1,1-5.85-5.85A5.71,5.71,0,0,1,173.05,116.3Z"/><path class="cls-1" d="M225.69,118.81c0,4.18-4.17,8.36-8.35,8.36a8.37,8.37,0,0,1-8.35-8.36c0-5,3.34-8.36,8.35-8.36A8.37,8.37,0,0,1,225.69,118.81Z"/><path class="cls-1" d="M204.81,104.6a5.72,5.72,0,0,1-5.86,5.85c-3.34,0-6.68-2.5-6.68-5.85A6.58,6.58,0,0,1,199,97.92C202.29,97.92,204.81,100.42,204.81,104.6Z"/><path class="cls-1" d="M190.6,86.22c0,3.34-2.51,5.84-5,5.84a5.72,5.72,0,0,1-5.86-5.84c0-2.51,2.52-5,5.86-5A5.4,5.4,0,0,1,190.6,86.22Z"/><path class="cls-1" d="M183.07,68.67c0,2.5-1.67,4.17-3.34,4.17a4.18,4.18,0,1,1,0-8.35C181.4,64.49,183.07,66.16,183.07,68.67Z"/><path class="cls-1" d="M177.22,55.3a2.21,2.21,0,0,1-2.5,2.5c-1.67,0-3.34-.84-3.34-2.5A3.59,3.59,0,0,1,174.72,52C176.39,52,177.22,53.62,177.22,55.3Z"/><path class="cls-1" d="M175.55,41.09a2.21,2.21,0,0,1-2.5,2.51c-.84,0-1.67-.84-1.67-2.51a1.79,1.79,0,0,1,1.67-1.67C174.72,39.42,175.55,40.25,175.55,41.09Z"/><path class="cls-1" d="M162.18,98.75c0,2.5-1.67,4.18-3.34,4.18a4.18,4.18,0,0,1,0-8.36C160.51,94.57,162.18,96.24,162.18,98.75Z"/><path class="cls-1" d="M157.17,80.37a2.51,2.51,0,1,1-2.51-2.51A2.22,2.22,0,0,1,157.17,80.37Z"/><path class="cls-1" d="M156.33,65.32a2.66,2.66,0,0,1-2.51,2.51,2.51,2.51,0,0,1,0-5A2.67,2.67,0,0,1,156.33,65.32Z"/><path class="cls-1" d="M154.66,53.62A1.67,1.67,0,1,1,153,52,1.81,1.81,0,0,1,154.66,53.62Z"/><path class="cls-1" d="M150.48,143.05c0,2.5-1.67,5-4.17,5s-4.18-2.51-4.18-5a4.18,4.18,0,1,1,8.35,0Z"/><path class="cls-1" d="M141.29,127.17c0,1.67-.83,3.34-2.51,3.34a3.34,3.34,0,0,1,0-6.68C140.46,123.83,141.29,125.49,141.29,127.17Z"/><path class="cls-1" d="M137.11,113a2.67,2.67,0,0,1-2.51,2.51c-1.67,0-3.34-.84-3.34-2.51s1.67-2.51,3.34-2.51A2.67,2.67,0,0,1,137.11,113Z"/><path class="cls-1" d="M134.6,99.59c0,1.66-.83,2.5-1.67,2.5a2.21,2.21,0,0,1-2.5-2.5c0-.84.83-1.67,2.5-1.67A1.79,1.79,0,0,1,134.6,99.59Z"/><path class="cls-1" d="M132.93,87.05a1.67,1.67,0,0,1-3.34,0c0-1.67.84-2.5,1.67-2.5S132.93,85.38,132.93,87.05Z"/><path class="cls-1" d="M132.1,74.51c0,.84,0,1.67-.84,1.67s-.83-.83-.83-1.67a.84.84,0,0,1,1.67,0Z"/><path class="cls-1" d="M230.71,85.38a7.49,7.49,0,0,1-7.52,7.52c-3.34,0-6.69-3.34-6.69-7.52a7.19,7.19,0,0,1,6.69-6.68C227.37,78.7,230.71,82,230.71,85.38Z"/><path class="cls-1" d="M214,67a5.4,5.4,0,0,1-5,5,5,5,0,1,1,0-10A5.4,5.4,0,0,1,214,67Z"/><path class="cls-1" d="M204.81,52c0,1.67-1.68,2.51-3.35,2.51A2.22,2.22,0,0,1,199,52a2.22,2.22,0,0,1,2.51-2.51C203.13,49.44,204.81,50.28,204.81,52Z"/><path class="cls-1" d="M200.62,36.91a2.21,2.21,0,0,1-2.5,2.51,2.51,2.51,0,1,1,0-5A2.21,2.21,0,0,1,200.62,36.91Z"/><path class="cls-1" d="M251.61,62a5.72,5.72,0,0,1-5.86,5.85c-3.34,0-6.68-2.51-6.68-5.85a7.18,7.18,0,0,1,6.68-6.68C249.1,55.3,251.61,58.64,251.61,62Z"/><path class="cls-1" d="M236.56,50.28a5,5,0,1,1-10,0,5,5,0,1,1,10,0Z"/><path class="cls-1" d="M226.54,35.24a3.6,3.6,0,0,1-3.35,3.34c-1.67,0-2.51-1.67-2.51-3.34a2.22,2.22,0,0,1,2.51-2.51C224.86,32.73,226.54,33.56,226.54,35.24Z"/><path class="cls-1" d="M269.16,43.6A4,4,0,0,1,265,47.77c-1.67,0-3.34-1.67-3.34-4.17A3.6,3.6,0,0,1,265,40.25C267.49,40.25,269.16,41.93,269.16,43.6Z"/><path class="cls-1" d="M254.11,35.24a3.59,3.59,0,0,1-3.34,3.34c-1.67,0-2.51-1.67-2.51-3.34a2.67,2.67,0,0,1,2.51-2.51C252.44,32.73,254.11,34.4,254.11,35.24Z"/><rect class="cls-2" x="375.66" y="64.09" width="13.74" height="12.72"/><path class="cls-2" d="M402,114.66q0,10.08-4.47,16.79a16.8,16.8,0,0,1-14.86,7.84q-9.76,0-15-7.84-4.49-6.72-4.48-16.79-.11-29.93,0-29.51H347.67v30.94q0,16,10.08,26.76a34,34,0,0,0,50.16-.51q9.68-10.78,9.67-26.25V85.15H402Z"/><rect class="cls-2" x="548.44" y="64.09" width="13.74" height="12.72"/><rect class="cls-2" x="569.3" y="64.09" width="13.74" height="12.72"/><path class="cls-2" d="M523.31,128.6a9.1,9.1,0,0,1-7.73,3.66,9,9,0,0,1-7.84-4,14.82,14.82,0,0,1-2.44-8.75,15.17,15.17,0,0,1,2.24-8.45,8,8,0,0,1,7.22-4.07h1q9.87,0,9.87,13.13A14.42,14.42,0,0,1,523.31,128.6ZM615,91.26v18.41c0,3.33-.44,5.8-1.32,7.43q-1.83,3.36-6.51,3.36H582.33a32.54,32.54,0,0,0,1.83-11.09V85.25H568.59v24.63q0,10.58-7.83,10.58H541q.09-12.1-6.82-19t-19-6.87q-11.91,0-18.57,7T490,120.46H455.74c-4.95.14-8.28-.3-10-1.32a9.32,9.32,0,0,1-4-4.38,17.66,17.66,0,0,1-.71-5.8V64H425.62V117.1q0,8.45,4.88,13.33t13.74,4.89h50.37q6.93,9.56,21,9.56,13.83,0,20.75-9.56h74.09q9.76,0,15.26-6.72,4.79-5.89,4.78-14.65V91.26H615"/><path class="cls-2" d="M615.71,72.33q0-4.78,3.66-4.78c1.76,0,3,1.08,3.66,3.25l7.33-3.36q-3.25-7.53-10.79-7.53a11.67,11.67,0,0,0-8.8,3.67,12.7,12.7,0,0,0-3.51,9.15,13.21,13.21,0,0,0,.81,4.28h-6.3v8.24h28.69V76.91H618.05Q615.71,76,615.71,72.33Z"/><path class="cls-2" d="M678.9,109.17q0,11.08-7.84,11.29L657.33,71.51H641l13.84,48.95H638.5v14.86h36.63a19.2,19.2,0,0,0,13.64-5,17.07,17.07,0,0,0,5.39-13.08V64.09H678.9Z"/><rect class="cls-2" x="702.2" y="63.98" width="15.47" height="71.33"/><path class="cls-3" d="M353.94,194.27l8.17-18.6,8.17,18.6ZM340.17,211h6.15l5.25-11.52h21.09L377.9,211h6.16l-21.95-47.92L340.17,211"/><polygon class="cls-3" points="407.66 165.06 401.93 165.06 401.93 211.03 421.62 211.03 421.62 205.79 407.66 205.79 407.66 165.06"/><polygon class="cls-3" points="439.42 211.03 464.11 211.03 464.11 205.79 445.15 205.79 445.15 188.42 463.56 188.42 463.56 183.17 445.15 183.17 445.15 170.31 464.11 170.31 464.11 165.06 439.42 165.06 439.42 211.03"/><polygon class="cls-3" points="480.94 170.31 491.85 170.31 491.85 211.03 497.58 211.03 497.58 170.31 508.49 170.31 508.49 165.06 480.94 165.06 480.94 170.31"/><rect class="cls-3" x="526.84" y="165.07" width="5.73" height="45.97"/><polygon class="cls-3" points="576.77 199.33 560.98 163.11 551.6 211.03 557.51 211.03 562.87 180.67 563 180.67 576.77 212.01 590.55 180.67 590.67 180.67 596.04 211.03 601.95 211.03 592.57 163.11 576.77 199.33"/><path class="cls-3" d="M630,194.27l8.17-18.6,8.17,18.6ZM616.22,211h6.16l5.24-11.52h21.09L654,211h6.15l-21.94-47.92L616.22,211"/><polygon class="cls-3" points="711.93 165.06 711.93 199.02 677.43 162.87 677.43 211.03 683.16 211.03 683.16 176.77 717.66 212.92 717.66 165.06 711.93 165.06"/><path class="cls-3" d="M349.21,236.53c0-3.92-1.77-6.39-5.27-6.39a7.06,7.06,0,0,0-3.27.7V242.5a7.26,7.26,0,0,0,3.35.68C347.61,243.18,349.21,240.43,349.21,236.53Zm-1.75,0c0,3.57-1,5.47-3.53,5.47a4.51,4.51,0,0,1-1.59-.24V231.49a3.79,3.79,0,0,1,1.57-.26c2.41,0,3.55,1.8,3.55,5.28"/><path class="cls-3" d="M360.42,243l-4.27-12.66h-1.51L350.35,243h1.54l1.24-3.79h4.34l1.2,3.79Zm-3.22-4.8h-3.78l1.51-4.81a9.61,9.61,0,0,0,.39-1.53h0a8.33,8.33,0,0,0,.36,1.53l1.48,4.81"/><path class="cls-3" d="M370,243l-4.14-5.58v0c2.32,0,3.85-1.33,3.85-3.48,0-2.36-1.48-3.76-4.35-3.76a6.79,6.79,0,0,0-3.15.68V243h1.68v-5.91h0L368.1,243Zm-2-9c0,1.82-1,2.86-3.05,2.86a5.05,5.05,0,0,1-1.09-.11v-5.31a3.05,3.05,0,0,1,1.43-.27c1.86,0,2.71.9,2.71,2.83"/><path class="cls-3" d="M386.25,243,382,230.33h-1.51L376.18,243h1.55L379,239.2h4.35L384.5,243Zm-3.22-4.8h-3.78l1.51-4.81a9.61,9.61,0,0,0,.39-1.53h0a8,8,0,0,0,.37,1.53l1.47,4.81"/><polygon class="cls-3" points="388.07 242.99 388.07 230.33 389.77 230.33 389.77 241.85 393.58 241.85 393.58 242.99 388.07 242.99"/><polygon class="cls-3" points="395.59 242.99 395.59 230.33 401.46 230.33 401.46 231.47 397.28 231.47 397.28 235.88 401.04 235.88 401.04 237.01 397.28 237.01 397.28 241.85 401.46 241.85 401.46 242.99 395.59 242.99"/><polygon class="cls-3" points="406.89 231.47 406.89 242.99 405.2 242.99 405.2 231.47 402.68 231.47 402.68 230.33 409.41 230.33 409.41 231.47 406.89 231.47"/><rect class="cls-3" x="411.44" y="230.33" width="1.69" height="12.67"/><path class="cls-3" d="M426.45,243c0-.16-1-9.48-1-9.48-.07-.79-.09-1.49-.09-1.49h0s-.13.7-.35,1.49c0,0-2.61,9.26-2.69,9.48h-1.12c-.06-.18-2.65-9.5-2.65-9.5-.21-.75-.35-1.47-.35-1.47h0s0,.72-.09,1.47l-1,9.5H415.6l1.51-12.66h1.79l2.54,9.15a12.8,12.8,0,0,1,.33,1.43h0a12.41,12.41,0,0,1,.33-1.42l2.61-9.16h1.79L428.05,243Z"/><path class="cls-3" d="M439.45,243l-4.28-12.66h-1.51L429.37,243h1.55l1.23-3.79h4.35l1.2,3.79Zm-3.23-4.8h-3.77l1.51-4.81a10.1,10.1,0,0,0,.38-1.53h0a9.13,9.13,0,0,0,.37,1.53l1.47,4.81"/><path class="cls-3" d="M448.82,243l-5.4-9.24c-.46-.79-.81-1.53-.81-1.53h0s.06.77.06,1.57V243h-1.42V230.33H443l5.17,8.89c.46.77.72,1.34.72,1.34h0s-.06-.6-.06-1.4v-8.83h1.42V243Z"/><path class="cls-3" d="M467.21,243l-4.27-12.66h-1.51L457.14,243h1.54l1.24-3.79h4.34l1.2,3.79Zm-3.22-4.8h-3.78l1.51-4.81a9.61,9.61,0,0,0,.39-1.53h0a8.33,8.33,0,0,0,.36,1.53l1.48,4.81"/><polygon class="cls-3" points="469.03 242.99 469.03 230.33 470.73 230.33 470.73 241.85 474.54 241.85 474.54 242.99 469.03 242.99"/><path class="cls-3" d="M484,243.18a5.18,5.18,0,0,1-2.95-.7l.44-1.18a4.18,4.18,0,0,0,2.21.59,2.23,2.23,0,0,0,2.38-2.38c0-1.12-.63-1.8-2.21-2.43-2.12-.84-2.69-2.15-2.69-3.39a3.44,3.44,0,0,1,3.57-3.55,4.63,4.63,0,0,1,2.6.68l-.41,1.07a3.82,3.82,0,0,0-2-.59,2,2,0,0,0-2.1,2.23c0,1.31.95,1.86,2.11,2.32,2.51,1,2.88,2.45,2.88,3.57A3.65,3.65,0,0,1,484,243.18Z"/><path class="cls-3" d="M499.26,243,495,230.33h-1.51L489.19,243h1.55L492,239.2h4.35l1.19,3.79Zm-3.22-4.8h-3.77l1.51-4.81a10.1,10.1,0,0,0,.38-1.53h0a9.13,9.13,0,0,0,.37,1.53l1.47,4.81"/><path class="cls-3" d="M504.79,243.2a3.71,3.71,0,0,1-3.94-3.82v-9h1.69v9a2.34,2.34,0,1,0,4.66,0v-9h1.55v9A3.72,3.72,0,0,1,504.79,243.2Z"/><path class="cls-3" d="M520.12,236.53c0-3.92-1.76-6.39-5.26-6.39a7.14,7.14,0,0,0-3.28.7V242.5a7.29,7.29,0,0,0,3.35.68C518.52,243.18,520.12,240.43,520.12,236.53Zm-1.74,0c0,3.57-1,5.47-3.54,5.47a4.45,4.45,0,0,1-1.58-.24V231.49a3.74,3.74,0,0,1,1.56-.26c2.41,0,3.56,1.8,3.56,5.28"/><rect class="cls-3" x="522.59" y="230.33" width="1.69" height="12.67"/><path class="cls-3" d="M540,249.17h-1.42v-1.71H540Zm2.64,0h-1.43v-1.71h1.43v1.71m4.56-10A6.87,6.87,0,0,1,545.3,244a6.18,6.18,0,0,1-4.66,2h-.11a6.14,6.14,0,0,1-4.65-2,6.9,6.9,0,0,1-1.86-4.91V237.2h1.42c0,1.25,0,2,0,2.17a7.46,7.46,0,0,0,.41,2.12,4.57,4.57,0,0,0,1.82,2.32,5.5,5.5,0,0,0,5.81,0,4.57,4.57,0,0,0,1.82-2.32,7.71,7.71,0,0,0,.45-2.79h-5.29a7.18,7.18,0,0,1,1.59-4.47,5.34,5.34,0,0,1,4.33-1.66v1.23q-3.28,0-4.16,3.47h4.92v1.86"/><path class="cls-3" d="M557.4,242.67h-8.93v-1.41h7.43a8.37,8.37,0,0,0-1-4.32,4.38,4.38,0,0,0-3.72-2.08h-.53v-1.34q4.25,0,5.81,3.38A14.35,14.35,0,0,1,557.4,242.67Z"/><path class="cls-3" d="M569.17,241.28h-2.62v-3.73a4.17,4.17,0,0,0-1-3,3.46,3.46,0,0,0-2.64-1,3.71,3.71,0,0,0-2.89,1.33,5.28,5.28,0,0,0-.06,6.53,3.47,3.47,0,0,0,2.77,1.29H565a2.39,2.39,0,0,1-2.63,2V246q3.46-.21,4.08-3.31h2.77Zm-6.39,0a2.11,2.11,0,0,1-1.87-1.13,4,4,0,0,1-.58-2.15,3.65,3.65,0,0,1,.65-2.1,2.18,2.18,0,0,1,1.88-1.08,2.12,2.12,0,0,1,1.7.71,2.19,2.19,0,0,1,.54,1.5v4.23l-2.32,0"/><path class="cls-3" d="M583.24,241.27h-2.71a8.71,8.71,0,0,1-1.63-.09,2.86,2.86,0,0,1-1.41-1,13.91,13.91,0,0,0,2.65-2.73,18.1,18.1,0,0,0,1.28-2.21,8.26,8.26,0,0,0-5.29-1.93,9.08,9.08,0,0,0-5,1.62l0,1.57a9,9,0,0,1,4.31,3.55,7.33,7.33,0,0,1-1.79,1,5.64,5.64,0,0,1-1.85.27h-3.12v1.41h3.16a6.77,6.77,0,0,0,4.53-1.57,3.52,3.52,0,0,0,3,1.57h3.9Zm-6.72-2.17a12.34,12.34,0,0,0-1.84-2.06,7.62,7.62,0,0,0-2.32-1.35,8,8,0,0,1,3.85-1.15,5.53,5.53,0,0,1,2.06.39l1.52.72a10.08,10.08,0,0,1-3.27,3.45"/><rect class="cls-3" x="582.97" y="241.27" width="4.23" height="1.41"/><rect class="cls-3" x="586.96" y="241.27" width="4.23" height="1.41"/><path class="cls-3" d="M596.17,237.8a7.88,7.88,0,0,1-.33,2.29v2.58h-5.07v-1.41h1.88c1.41,0,2.11-1,2.11-3.14V234.5h1.41Z"/><path class="cls-3" d="M609.87,242.68H595.73a4.88,4.88,0,0,0-.5-1.66,6,6,0,0,1-.49-1.42l0-6h1.41v5.58a5,5,0,0,1-.39,2.14h2.69a1.45,1.45,0,0,0,1.47-.84,5.4,5.4,0,0,0,.24-1.91v-5h1.41v5.58a5,5,0,0,1-.39,2.14l2.41,0a1.75,1.75,0,0,0,1.71-.82,4.46,4.46,0,0,0,.3-1.95v-5H607v5.58a5,5,0,0,1-.39,2.14h3.23Z"/><path class="cls-3" d="M614.12,229.66v9.47q0,3.54-3,3.54h-1.76v-1.39h1.3a1.75,1.75,0,0,0,1.71-.83,4.48,4.48,0,0,0,.29-1.93v-8.86Z"/><rect class="cls-3" x="616.22" y="229.66" width="1.41" height="13.01"/><path class="cls-3" d="M634.56,233.54v5.55a7.46,7.46,0,0,1-1.67,5,5,5,0,0,1-4,1.91,5.09,5.09,0,0,1-4-1.93,7.47,7.47,0,0,1-1.64-5v-5.55h1.41v5.28a7.57,7.57,0,0,0,1,3.93,3.84,3.84,0,0,0,6.62,0,7.67,7.67,0,0,0,.95-3.93v-5.28Zm-5-1.44h-1.43v-1.71h1.43v1.71"/><path class="cls-3" d="M641.45,242.67h-2a2.47,2.47,0,0,1-1.84-.76,3.28,3.28,0,0,1-.85-2.43v-9.82h1.43v9a3.76,3.76,0,0,0,.41,2,1.55,1.55,0,0,0,1.15.61c.14,0,.7,0,1.69,0Z"/><rect class="cls-3" x="640.79" y="241.27" width="4.23" height="1.41"/><rect class="cls-3" x="644.78" y="241.27" width="4.23" height="1.41"/><path class="cls-3" d="M661.56,241.28h-2.45a5.92,5.92,0,0,0,.17-1.41,4.83,4.83,0,0,0-1.06-3.23,3.88,3.88,0,0,0-3.1-1.32,3.94,3.94,0,0,0-3.11,1.29,4.76,4.76,0,0,0-1.14,3.27,5.27,5.27,0,0,0,.17,1.4h-2.38v1.41h3a3.85,3.85,0,0,0,3.47,1.74,3.79,3.79,0,0,0,3.38-1.74h3.08Zm-6.46,1.89a2.29,2.29,0,0,1-2-1,3.92,3.92,0,0,1-.57-2.21,4.22,4.22,0,0,1,.57-2.34,2.29,2.29,0,0,1,2.06-1.06,2.13,2.13,0,0,1,1.92,1,3.91,3.91,0,0,1,.53,2.18c0,2.29-.84,3.43-2.52,3.43"/><rect class="cls-3" x="661.21" y="241.27" width="4.23" height="1.41"/><path class="cls-3" d="M672.07,242.68h-6.94v-1.4h1.3a1.76,1.76,0,0,0,1.71-.81,4.59,4.59,0,0,0,.3-1.95v-5h1.41v5.59a5,5,0,0,1-.39,2.14h2.61Zm-4.88-10.58h-1.43v-1.71h1.43v1.71m2.64,0H668.4v-1.71h1.43v1.71"/><rect class="cls-3" x="671.79" y="241.27" width="4.23" height="1.41"/><path class="cls-3" d="M680.58,234.59v4.55c0,2.36-1,3.55-3,3.55h-1.78v-1.4h1.32a1.77,1.77,0,0,0,1.71-.83,4.82,4.82,0,0,0,.28-1.93v-3.94Zm0-3.51-1,.12c-.11-.59-.42-.88-.94-.88s-1,.45-1,1.36a1.42,1.42,0,0,0,.25.87h2.67v1h-4.75v-1h1a2.51,2.51,0,0,1,.3-2.37,1.85,1.85,0,0,1,1.54-.65,1.78,1.78,0,0,1,1.94,1.55"/><path class="cls-3" d="M691,229.66v9.47q0,3.54-3,3.54h-5.81v-1.39l3.28,0-2.59-10.06h1.52l2.54,10.08h.59a1.76,1.76,0,0,0,1.71-.83,4.45,4.45,0,0,0,.3-1.93v-8.86Z"/><rect class="cls-3" x="693" y="229.66" width="1.41" height="13.01"/><path class="cls-3" d="M703.81,233.55V241a5.64,5.64,0,0,1-1,3.67,4.28,4.28,0,0,1-3.22,1.34v-1.35q2.82.09,2.82-3.4v-7.68Z"/><rect class="cls-3" x="705.89" y="229.66" width="1.41" height="13.01"/><path class="cls-3" d="M718,242.67H709v-1.41h7.42a8.28,8.28,0,0,0-1-4.32,4.35,4.35,0,0,0-3.71-2.08h-.54v-1.34q4.24,0,5.81,3.38A14.16,14.16,0,0,1,718,242.67Z"/><rect class="cls-4" x="339.96" y="218.79" width="378.18" height="5.5"/></svg>