<?xml version="1.0" encoding="utf-8"?>
<!-- Generator: Adobe Illustrator 24.1.2, SVG Export Plug-In . SVG Version: 6.00 Build 0)  -->
<svg version="1.1" id="Layer_1" xmlns="http://www.w3.org/2000/svg" xmlns:xlink="http://www.w3.org/1999/xlink" x="0px" y="0px"
	 viewBox="0 0 450 475.1" style="enable-background:new 0 0 450 475.1;" xml:space="preserve">
<style type="text/css">
	.st0{fill:#947E34;}
</style>
<g>
	<path class="st0" d="M259.4,137.7c0,0,2,1.3,3.1,1.3c0,0-3.6-8.4-4.1-11.8l-3.1,4.3l2.2,45.4c0,0,4.2-3,3.4-17.1
		C260.2,146.7,259.4,137.7,259.4,137.7L259.4,137.7z M241.9,161.2c-5.9-1.2-15.3-1.2-21.2-1.6c2.4-4.3,6.4-8.5,12-10.7l3.8-1.5
		c-0.4,2.2-0.8,5.3-0.2,7.4c0.3,1.2,2.3,4.7,6.5,4.8c4.2,0.1,6.2-3.5,6.9-4.5c0.8-1,0.7-4.1,0.7-4.1c0.2-9.9-1.6-23.3-1.6-23.3
		l1.4-2.5c-1.5-3.2-2.9-8.9-2.9-8.9s-1.2,2-2,3s-0.3,2.4-0.1,6.6c0.2,4.2,2,21.4,2,24.7c0,3.3-1.8,3.6-3.8,3.7
		c-2.1,0.1-3.6-1.1-4.1-2.3c-0.5-1.5-0.2-4.2,0.1-5.8c4.2-2.1,4.8-3.2,5.3-3.7c0.5-0.8-0.2-3-0.2-3s-5.6,0-9.8-0.5
		c-2.7-0.4-9.1-2.3-12.5-2.1c-2.5,0.2-6.3,3.5-6.3,6c-0.1,2.5,4.2,5.5,6,6.8c0.7,0.5,1.2,1.1,1.5,1.6c-2.1,2.1-4.3,4.8-5.9,8
		c-4.7-1.2-6.3-7.3-7.1-11.6c-0.9-4.6-2.2-30.8-2.3-32.1c-0.1-1.3-1-2.2-1-2.2c-0.3,2.3-2.4,6.5-2.9,7.1c-0.4,0.7,1.4,1.5,1.4,1.5
		c-0.1,6.5,0.7,22.7,2.2,31.8c1,5.5,5.3,8.1,7.9,9.2c-0.5,1.6-1,3.4-1.2,5.2c-0.1,1-0.2,2.3-0.2,3.7c-1.3,1-2.3,2.1-2.9,2.7
		c-1.6,1.9-7.7,8.6-11.3,6.7c-3.6-1.9-1.8-4.9,0-7.9c1.8-3,5.6-7.6,5.3-8.4c-0.2-0.8-5.4,4.8-7.4,8.8c-2,4.1-2,8.8-0.5,10.8
		c1.4,2,6.3,3.3,9.2,0c1.9-2,4.7-6.3,7.7-9c0.7,7.4,3.6,16,13.8,15.7c13.3-0.3,21-14,22.7-19.4S248.8,162.5,241.9,161.2L241.9,161.2
		z M219.6,143c-0.9-0.7-1-1,0.7-1.4c1.6-0.4,13.8,0.4,13.7,1.9c-0.1,1-3.1,1.9-7.8,5.3c-0.8,0.5-1.5,1.2-2.3,1.9v-3.5
		C223.9,144.7,220.6,143.7,219.6,143z M247.6,173.3c-2.1,5.1-9.3,12.6-19.9,12.5c-8.5-0.1-9.9-6.7-10.1-12.5
		c0.8-0.3,1.5-0.4,2.2-0.1c4,1.4,1.8,6.7,6.4,7c3.6,0.3,4-3.8,6.2-3.3c2.2,0.5,1.3,2.9,4.2,2.7s5.1-5.3,4.5-12.2l-3.1,2.9
		c0,0,0.5,4,0,4.5c-0.5,0.5-2.9,0.7-3-1.3s1.1-3.2,0-3.8c-1.1-0.7-2.3,1-2.5,2.1c-0.3,1.1-2.6,4.1-5.5,3.4c-2.9-0.7-0.4-4.1-4.1-6.2
		c-1.4-0.9-3.4-0.3-5.3,0.7v-0.2c0-1.6,0.4-3.6,1.1-5.6c13.6,0.5,21,1.4,25.1,2.5C248,167.4,249,169.9,247.6,173.3L247.6,173.3z"/>
	<path class="st0" d="M230.5,152.4l-1.5,2.1c-0.3,0.4-0.2,1,0.2,1.2l2.1,1.5c0.4,0.3,1,0.2,1.2-0.2l1.5-2.1c0.3-0.4,0.2-1-0.2-1.2
		l-2.1-1.5C231.3,151.9,230.8,152.1,230.5,152.4z M198.7,167.2l1.5-2.1c0.3-0.4,0.2-1-0.2-1.2l-2.1-1.5c-0.4-0.3-1-0.2-1.2,0.2
		l-1.3,1.8c-0.1-0.1-0.1-0.2-0.2-0.3l-2.1-1.5c-0.4-0.3-1-0.2-1.2,0.2l-1.5,2.1c-0.3,0.4-0.2,1,0.2,1.2l2.1,1.5
		c0.4,0.3,1,0.2,1.2-0.2l1.3-1.8c0.1,0.1,0.1,0.2,0.2,0.3l2.1,1.5C197.8,167.7,198.4,167.6,198.7,167.2z M194.7,130.1
		c0.4,0.3,1,0.2,1.2-0.2l1.4-2l2,1.4c0.4,0.3,1,0.2,1.2-0.2l1.5-2.1c0.3-0.4,0.2-1-0.2-1.2l-2.1-1.5c-0.4-0.3-1-0.2-1.2,0.2l-1.4,2
		l-2-1.4c-0.4-0.3-1-0.2-1.2,0.2l-1.5,2.1c-0.3,0.4-0.2,1,0.2,1.2L194.7,130.1z M196.7,151.4c0,0-1,6.8,2.1,8.1
		c3,1.3,4.8,1.3,5.8-2.4c1-3.7,1.2-6.7,0-13.6c0,0-1.3,3.4-2.1,4.6c0,0,2,5.7,0.5,7.8c-1.5,2.1-4.2-0.2-4.6-5.2
		c-0.4-4.9-0.8-16.2-0.8-16.2v-1.2c0,0-1.4,1-1.8,1.9l-1.5,4.1c0,0,1.5-0.3,1.4,1.4c0,0.9-4.2,4.8-5.7,6.6c-1.5,1.8-2.2,2.1-2.2,3.6
		c0,1.5-0.2,3.2,2.1,3.8C192.3,155.5,195.7,151.7,196.7,151.4L196.7,151.4z M193.2,147.1c0.7-0.9,2.9-3.2,2.9-3.2
		c-0.2,1.9,0.1,5.2,0.1,5.2s-2,1.2-3,1.6c-1,0.5-1.4,1-1.5-0.3C191.4,149,192.7,148,193.2,147.1L193.2,147.1z M200.9,136.7l-1.8,2.1
		v2.4c0,0,3.3-3,3.5-4.6c0.1-1.2,0.1-2-0.3-1.9C201.9,134.7,201.4,136,200.9,136.7L200.9,136.7z M207.4,191.2l-0.1,0.8l4.9-2.6
		l3.8-1.9l0.1-0.8l-3.8,1.9L207.4,191.2z M234.3,126.6c-0.8,2.5-0.9,4.2-0.2,5.2l0.3,0.5l0.3,0.3c0.5,0.2,1.2,0,1.9-0.4l0.3-0.2
		c1-0.7,1.3-1.8,1-3.4h-0.2l-0.1,0.1c-0.2,1-0.7,1.8-1.1,2.1c-0.8,0.5-1.3,0.4-1.8-0.2c-0.3-0.4-0.4-1.8-0.4-4.1V126.6L234.3,126.6z
		 M228.7,123.9c-1.1,0.1-1.6,2.3-1.6,6.4h-0.1v-0.1c-1.2-3.3-2.5-4.8-3.8-4.6H223c-0.2,0.2-0.4,0.9-0.8,1.9v0.1
		c0.7,0.8,1.2,1.1,1.6,1.1h0.2l0.3-0.3h0.2c0.5,0.4,1.2,1.5,2.1,3.2c0.2,1,0.4,1.5,0.5,1.5c0.2,0,0.4-0.7,0.5-1.8
		c0-3.5,0.3-5.3,0.9-5.4l0.3,0.1l0.9,0.7c0.2,0,0.3-0.4,0.3-1.3v-0.1c0-0.1-0.1-0.3-0.1-0.3C229.5,124.1,229,123.8,228.7,123.9
		L228.7,123.9z M190,141.2c0.2,0,0.4-0.7,0.5-1.8c0-3.5,0.3-5.3,0.9-5.4l0.3,0.1l0.9,0.7c0.2,0,0.3-0.4,0.3-1.3v-0.1
		c0-0.1-0.1-0.3-0.1-0.3c-0.5-0.8-1-1.1-1.4-1c-1.1,0.1-1.6,2.3-1.6,6.4h-0.1v-0.1c-1.2-3.3-2.5-4.8-3.8-4.6h-0.1
		c-0.2,0.2-0.4,0.9-0.8,1.9v0.1c0.7,0.8,1.2,1.1,1.6,1.1h0.2l0.3-0.3h0.2c0.5,0.4,1.2,1.5,2.1,3.2
		C189.7,140.6,189.9,141.2,190,141.2L190,141.2z M207.7,168.7h0.1l0.2-0.2h0.1c0.4,0.2,0.9,0.8,1.5,1.6c0.2,0.5,0.3,0.8,0.4,0.8
		c0.2,0,0.3-0.3,0.5-1c0.2-1.9,0.5-2.9,1-2.9h0.3c0.4,0.2,0.7,0.3,0.8,0.3c0.2,0,0.3-0.2,0.3-0.7l0,0c0-0.1,0-0.1-0.1-0.2
		c-0.4-0.3-0.8-0.5-1.1-0.4c-0.9,0.1-1.4,1.3-1.6,3.4l0,0c-0.9-1.6-1.9-2.4-3-2.2h-0.1c-0.2,0.1-0.4,0.4-0.8,1v0.1
		C206.9,168.5,207.4,168.7,207.7,168.7L207.7,168.7z M252.5,162.1c0.1,0,0.2-0.3,0.4-0.9c0.1-1.9,0.3-2.7,0.7-2.9h0.2l0.5,0.3
		c0.1,0,0.2-0.2,0.2-0.7l0,0c0-0.1,0-0.1-0.1-0.2c-0.3-0.3-0.7-0.5-0.9-0.5c-0.8,0.1-1.1,1.2-1.2,3.4l0,0c-0.8-1.6-1.5-2.4-2.4-2.3
		h-0.1c-0.1,0.1-0.3,0.4-0.5,1v0.1c0.4,0.4,0.8,0.5,1,0.5h0.1l0.2-0.1h0.1c0.3,0.2,0.8,0.8,1.3,1.6
		C252.3,161.8,252.4,162.1,252.5,162.1L252.5,162.1z M255.6,176.8c-0.3,0.8-0.8,1.2-1.2,1.3c-0.7,0.1-1-0.2-1.1-1
		c-0.1-0.5,0.1-1.9,0.7-4h-0.1c-1.1,1.9-1.5,3.4-1.3,4.6l0.1,0.7c0,0.1,0.1,0.3,0.2,0.5c0.3,0.4,0.8,0.7,1.3,0.5h0.3
		c0.8-0.1,1.2-1,1.4-2.6L255.6,176.8z M214.1,146.3l-0.1,0.1c-0.4,2.1-0.3,3.7,0.3,4.8l0.3,0.5c0.1,0.1,0.2,0.3,0.3,0.4
		c0.4,0.3,1,0.3,1.4,0l0.2-0.1c0.7-0.4,0.9-1.4,0.4-3h-0.2c-0.1,0.9-0.3,1.4-0.7,1.6c-0.5,0.3-1,0.1-1.4-0.5
		C214.5,149.9,214.3,148.5,214.1,146.3L214.1,146.3z M216.1,134.1l1.3-1.6c0,0-6.5-0.4,0.2-4.7c4.4-2.9,16-10.5,22.4-11.5v-2.4
		c0,0-11.1,3.1-24.7,13.5C215.3,127.3,211.2,130.7,216.1,134.1L216.1,134.1z M217.1,120.9c-0.1,0.7-0.2,1.3-0.5,2.1
		c0,0.1,0,0.2,0.1,0.2h0.1c0.7-0.5,1.1-1.5,1.2-2.7l0.1-0.8c0.3-2.6-0.5-5.1-2.7-7.1h-0.1c-0.7,0.7-1,1.1-1.1,1.5
		C216.4,116.6,217.4,118.8,217.1,120.9L217.1,120.9z M224.2,101.6c-27.6,0-50,22.4-50,50s22.4,50,50,50s50-22.4,50-50
		C274.2,123.9,251.8,101.6,224.2,101.6L224.2,101.6z M224.2,200.3c-26.9,0-48.8-21.9-48.8-48.8s21.9-48.8,48.8-48.8
		s48.8,21.9,48.8,48.8S251.1,200.3,224.2,200.3L224.2,200.3z M266.5,109.2c-11.3-11.3-26.4-17.5-42.3-17.5s-31,6.3-42.3,17.5
		c-11.3,11.3-17.5,26.4-17.5,42.3s6.3,31,17.5,42.3c11.3,11.3,26.4,17.5,42.3,17.5s31-6.3,42.3-17.5c11.3-11.3,17.5-26.4,17.5-42.3
		C284.1,135.6,277.8,120.5,266.5,109.2z M262.8,190.2c-10.3,10.3-24.1,16-38.6,16c-14.6,0-28.4-5.7-38.6-16
		c-10.3-10.3-16-24.1-16-38.6c0-14.6,5.7-28.4,16-38.6c10.3-10.3,24.1-16,38.6-16c14.6,0,28.4,5.7,38.6,16
		c10.3,10.3,16,24.1,16,38.6S273.1,179.9,262.8,190.2L262.8,190.2z M18.8,255.7c3.8,0,7.4-2.2,9.3-5.7h16.9c3.8,0,5.8-2.1,5.8-6.3
		v-9.5h-3.8v8.1c0,1.2-0.1,2.1-0.3,2.5c-0.3,0.8-1.2,1.1-2.4,1.1H29.5c0.1-0.8,0.2-1.4,0.2-2.2v-16.3h-4v15.8c0,4.9-3,8.6-7,8.6
		c-4.3,0-7-3.8-7-8.6v-3h-4v3.4C7.8,250.4,12.8,255.7,18.8,255.7L18.8,255.7z M46.9,253.7h3.8v3.8h-3.8V253.7z M40.4,253.7h3.8v3.8
		h-3.8V253.7z M100.9,227.1h3.8v3.8h-3.8L100.9,227.1z M94.3,227.1h3.8v3.8h-3.8L94.3,227.1z M130.4,242.4c0,1.2-0.1,2.1-0.3,2.5
		c-0.3,0.8-1.2,1.1-2.4,1.1h-8.8c0.5-0.7,0.9-2,0.9-4.1v-14.4h-3.8v14.6c0,1.2-0.1,2.1-0.4,2.6c-0.4,0.8-1.2,1.2-2.3,1.2h-9.2
		c0.5-0.7,0.9-2,0.9-4.1v-7.8h-3.8v8c0,1.2-0.1,2.1-0.4,2.6c-0.4,0.8-1.2,1.2-2.3,1.2h-5.8v-1c0-2.3-0.8-4.3-2.2-5.8
		c-1.4-1.5-3.3-2.3-5.6-2.3c-2.3,0-4.2,0.8-5.6,2.3c-1.4,1.5-2.2,3.4-2.2,5.7v1.1h-7.5v-4.1c0-4.5-3-7.8-7.3-7.8
		c-4.4,0-7.8,3.1-7.8,7.7c0,4.6,3.4,8.1,7.6,8.1h3.7c-0.5,1.9-1.9,2.6-3.8,2.6v3.1c4.5,0,7-1.9,7.6-5.7h9c1.5,2,3.5,3,6.3,3
		c2.7,0,4.8-1,6.3-3h37.8c3.8,0,5.8-2.1,5.8-6.3v-16.2h-3.8v14.8L130.4,242.4z M65.2,246h-3.4c-2.1,0-3.7-2-3.7-4.3s1.4-4,3.7-4
		c2,0,3.2,1.4,3.4,3.5V246z M87.3,248.1c-0.7,0.9-1.6,1.3-2.7,1.3c-2.4,0-4-2.1-4-4.5c0-1.2,0.3-2.3,0.9-3.1c0.7-1,1.6-1.4,2.9-1.4
		c1.2,0,2.2,0.4,3,1.4c0.7,0.9,1,2,1,3.2C88.2,246.2,87.9,247.2,87.3,248.1z M156.5,224.1h3.8v3.8h-3.8V224.1z M149.9,224.1h3.8v3.8
		h-3.8V224.1z M183,243.7v-9.5h-3.8v8.1c0,1.2-0.1,2.1-0.3,2.5c-0.3,0.8-1.2,1.1-2.4,1.1h-11.9c-2.6,0-3.8-1.4-3.8-4.2v-11h-8.6
		c-4.4,0-7.1,3.2-7.1,8.5c0,4.8,2.7,8.1,7.1,8.1c1.8,0,3.2-0.9,4.4-2.6c0.8,3.1,3.3,5.2,6.3,5.2h14.4C181,250,183,247.9,183,243.7z
		 M156.6,238.9c0,3-1.5,5.3-4.1,5.3c-2.3,0-3.8-2.3-3.8-4.9c0-3.2,1.6-5.4,4.4-5.4h3.5V238.9z M179,253.7h3.8v3.8H179V253.7z
		 M172.4,253.7h3.8v3.8h-3.8V253.7z M221.7,250c4,0,6.7-3.3,6.7-8.2v-7.5h-4v8c0,2.5-1,3.8-3,3.8h-3.7c0.5-0.5,0.8-2,0.8-4.3v-7.6
		h-4v7.9c0,2.5-1,3.8-3,3.8h-3.6v-0.2c0.4-0.7,0.7-2,0.7-4.1v-7.6h-4v7.7c0,2.7-1,4.1-3,4.1h-7.6v-11.8h-3.8v13.3
		c0,3.3-1.6,4.9-4.8,4.9v3.3c4.7,0,7.9-2.1,8.5-5.7H221.7L221.7,250z M237.9,250h54.7c3.8,0,5.8-2.1,5.8-6.3v-16.2h-3.8v14.8
		c0,1.2-0.1,2.1-0.3,2.5c-0.3,0.8-1.2,1.1-2.4,1.1H286c-0.3-4.8-2.1-8.2-5.2-10.1c-1.8-1.1-4-1.6-6.3-1.6c-1.5,0-3.1,0.3-4.6,1
		c-1.4,0.7-2.6,1.4-3.7,2.4c0.9,1.3,1.5,2.3,1.9,3.1c0.9-1,1.9-1.6,3.1-2.2c1.1-0.4,2.1-0.7,3-0.7c2.5,0,4.5,0.9,5.9,2.6
		c1.2,1.5,1.8,3.4,1.8,5.5H240c-1.4,0-2.4-0.2-3-0.5c-0.8-0.5-1.1-1.6-1.1-3.3v-14.5h-3.8v16c0,1.9,0.4,3.4,1.4,4.5
		C234.6,249.4,236.1,250,237.9,250L237.9,250z M272.5,253.7h3.8v3.8h-3.8V253.7z M302.1,227.6h3.8V250h-3.8V227.6z"/>
	<path class="st0" d="M328.1,224.1h3.8v3.8h-3.8V224.1z M321.6,224.1h3.8v3.8h-3.8V224.1z M374.5,250v-2.4c0-5.5-1.6-9.2-4.9-11.4
		c-1.9-1.3-4.1-1.9-6.7-1.9h-1.6l4.7-6.6h-4.6l-6.8,10.2h8c2.5,0,4.5,0.9,6,2.6c1.2,1.5,1.9,3.4,1.9,5.5h-34.3
		c-2.6,0-3.8-1.4-3.8-4.2v-11h-8.6c-4.4,0-7.1,3.2-7.1,8.5c0,4.8,2.7,8.1,7.1,8.1c1.8,0,3.2-0.9,4.4-2.6c0.8,3.1,3.3,5.2,6.3,5.2
		H374.5z M328.3,238.9c0,3-1.5,5.3-4.1,5.3c-2.3,0-3.8-2.3-3.8-4.9c0-3.2,1.6-5.4,4.4-5.4h3.5V238.9z M385.6,250H434
		c4,0,6.7-3.3,6.7-8.2v-7.5h-4v8c0,2.5-1,3.8-3,3.8H430c0.5-0.5,0.8-2,0.8-4.3v-7.6h-4v7.9c0,2.5-1,3.8-3,3.8h-3.6v-0.2
		c0.4-0.7,0.7-2,0.7-4.1v-7.6h-4v7.7c0,2.7-1,4.1-3,4.1h-28.2v-11.8h-3.8v13.3c0,3.3-1.6,4.9-4.8,4.9v3.3
		C381.8,255.7,385,253.7,385.6,250L385.6,250z M426.8,221.7h3.8v3.8h-3.8V221.7z M430.1,227.1h3.7v3.8h-3.7V227.1z M423.5,227.1h3.7
		v3.8h-3.7V227.1z M117.3,292.5h1.8v1.8h-1.8L117.3,292.5z M114.3,292.5h1.8v1.8h-1.8V292.5z M133.2,292.6h1.8v1.8h-1.8V292.6z
		 M142,292.6h1.8v1.8H142V292.6z M145.1,292.6h1.8v1.8h-1.8V292.6z M155,298.4c-2.1,0-3.6,1.5-3.6,3.7v0.5h-3.2
		c-0.8,0-1.3-0.1-1.5-0.2c0.5-0.4,0.9-0.9,1.2-1.5c0.2-0.5,0.4-1.1,0.4-1.6c0-2.3-2-3.5-3.7-3.5c-1.6,0-3,1-3.5,2.5
		c-0.1,0.3-0.2,0.7-0.2,1.1c0,0.5,0.1,1.1,0.3,1.6s0.7,1.1,1.2,1.4c-0.2,0.1-0.7,0.2-1.5,0.2h-3c-0.8,0-1.3-0.1-1.5-0.2
		c0.5-0.4,0.9-0.9,1.2-1.5c0.2-0.5,0.4-1.1,0.4-1.6c0-2.3-2-3.5-3.7-3.5c-1.6,0-3,1-3.5,2.5c-0.1,0.3-0.2,0.7-0.2,1.1
		c0,0.5,0.1,1.1,0.3,1.6s0.7,1.1,1.2,1.4c-0.2,0.1-0.7,0.2-1.5,0.2h-4.4c0.2-0.3,0.4-0.9,0.4-1.9v-6.7h-1.8v6.8c0,0.5-0.1,1-0.2,1.2
		c-0.2,0.3-0.5,0.5-1.1,0.5h-2.3c-1.2,0-1.8-0.7-1.8-2v-5.1h-4c-2.1,0-3.3,1.5-3.3,4c0,2.2,1.3,3.7,3.3,3.7c0.8,0,1.5-0.4,2.1-1.2
		c0.3,1.4,1.5,2.4,2.9,2.4h10.3c1.5,0,2.7-0.3,3.5-0.9c0.9,0.5,2.1,0.9,3.6,0.9h3.2c1.5,0,2.7-0.3,3.5-0.9c0.9,0.5,2.1,0.9,3.6,0.9
		h4.1c0.7,1,1.6,1.4,2.9,1.4c2.1,0,3.6-1.5,3.6-3.7C158.6,300.1,157.2,298.4,155,298.4L155,298.4z M117.4,299.3
		c0,1.3-0.7,2.4-1.9,2.4c-1.1,0-1.8-1.1-1.8-2.3c0-1.5,0.8-2.5,2-2.5h1.6L117.4,299.3L117.4,299.3z M135.1,301.2
		c-0.2,0.2-0.7,0.4-1,0.5c-0.3-0.2-0.7-0.4-1-0.5c-0.7-0.5-1.1-1.2-1.1-2.1c0-0.5,0.2-1,0.5-1.4c0.3-0.4,0.9-0.7,1.5-0.7
		s1.2,0.2,1.5,0.7c0.3,0.3,0.5,0.9,0.5,1.4C136.2,300,135.8,300.6,135.1,301.2z M145.4,301.2c-0.2,0.2-0.7,0.4-1,0.5
		c-0.3-0.2-0.7-0.4-1-0.5c-0.7-0.5-1.1-1.2-1.1-2.1c0-0.5,0.2-1,0.5-1.4s0.9-0.7,1.5-0.7c0.7,0,1.2,0.2,1.5,0.7
		c0.3,0.3,0.5,0.9,0.5,1.4C146.5,300,146.2,300.6,145.4,301.2z M155.1,304.1c-1.1,0-1.9-0.9-1.9-2.1c0-1.2,0.8-2.1,1.8-2.1
		c1.1,0,1.8,0.9,1.8,2.1C156.7,303.4,156.1,304.1,155.1,304.1L155.1,304.1z M168.9,292.5h1.8v1.8h-1.8V292.5z M165.8,292.5h1.8v1.8
		h-1.8V292.5z M189.5,294.8l-0.2,1.8c2.3,0.4,4,2.9,4,5.6v0.4h-2.1c0.2-0.7,0.4-1.2,0.4-1.6c0-2-1.3-3.1-3.2-3.1s-3.2,1.2-3.2,3.1
		c0,0.4,0.1,1,0.4,1.6h-3.5v-0.4c0-1.1-0.3-2-1-2.6c-0.7-0.8-1.5-1.1-2.6-1.1s-2,0.3-2.6,1.1c-0.7,0.7-1,1.5-1,2.6v0.5h-2.4
		c-1.2,0-1.8-0.7-1.8-2v-5.1h-3.8c-2.1,0-3.3,1.5-3.3,4c0,2.2,1.3,3.7,3.3,3.7c0.8,0,1.5-0.4,2.1-1.2c0.3,1.4,1.5,2.4,2.9,2.4h4
		c0.7,0.9,1.7,1.4,2.9,1.4c1.2,0,2.2-0.4,2.9-1.4h13.4c0.1-0.7,0.1-1.3,0.1-1.9C195.1,298.5,193,295.5,189.5,294.8L189.5,294.8z
		 M168.9,299.3c0,1.3-0.7,2.4-1.9,2.4c-1.1,0-1.8-1.1-1.8-2.3c0-1.5,0.8-2.5,2-2.5h1.6V299.3L168.9,299.3z M179.9,303.5
		c-0.3,0.4-0.8,0.7-1.3,0.7c-1.1,0-1.9-1-1.9-2.1c0-0.5,0.1-1,0.4-1.4c0.3-0.4,0.8-0.7,1.3-0.7c0.5,0,1,0.2,1.3,0.7
		c0.3,0.4,0.4,0.9,0.4,1.4C180.4,302.7,180.2,303.2,179.9,303.5L179.9,303.5z M188.4,302.6c-0.9,0-1.4-0.8-1.4-1.8
		c0-1,0.5-1.6,1.4-1.6c0.9,0,1.4,0.8,1.4,1.6C189.9,301.9,189.3,302.6,188.4,302.6z M222.3,298.4c-2.1,0-3.6,1.5-3.6,3.7v0.5h-4.4
		c0.2-0.5,0.4-1.2,0.4-2v-3.5h-1.9v3.7c0,1.2-0.4,1.8-1.3,1.8h-1.8c0.2-0.2,0.3-0.9,0.3-2v-3.5h-1.9v3.6c0,1.2-0.4,1.8-1.3,1.8h-1.6
		v-0.1c0.2-0.3,0.3-0.9,0.3-1.9v-3.5h-1.9v3.5c0,1.3-0.4,1.9-1.3,1.9h-2.1c-0.7,0-1.1-0.1-1.4-0.2c-0.3-0.2-0.5-0.8-0.5-1.5V294
		h-1.8v7.5c0,0.9,0.2,1.5,0.7,2.1c0.4,0.5,1.1,0.9,2,0.9h20c0.7,1,1.6,1.4,2.9,1.4c2.1,0,3.6-1.5,3.6-3.7
		C226,300.1,224.4,298.4,222.3,298.4L222.3,298.4z M222.3,304.1c-1.1,0-1.9-0.9-1.9-2.1c0-1.2,0.8-2.1,1.8-2.1
		c1.1,0,1.8,0.9,1.8,2.1C224.1,303.4,223.4,304.1,222.3,304.1L222.3,304.1z M233.2,292.5h1.8v1.8h-1.8V292.5z M236.2,292.5h1.8v1.8
		h-1.8V292.5z M243.5,300.8c0,0.5,0,1-0.1,1.2c-0.2,0.3-0.5,0.5-1.1,0.5H240c-1.2,0-1.8-0.7-1.8-2v-5.1h-4c-2.1,0-3.3,1.5-3.3,4
		c0,2.2,1.3,3.7,3.3,3.7c0.8,0,1.5-0.4,2.1-1.2c0.3,1.4,1.5,2.4,2.9,2.4h3.4c1.8,0,2.6-1,2.6-2.9v-4.4h-1.8L243.5,300.8L243.5,300.8
		z M236.3,299.3c0,1.3-0.7,2.4-1.9,2.4c-1.1,0-1.8-1.1-1.8-2.3c0-1.5,0.8-2.5,2-2.5h1.6V299.3L236.3,299.3z M240.5,306.1h1.8v1.8
		h-1.8L240.5,306.1z M243.4,306.1h1.8v1.8h-1.8V306.1z M251.2,297.3c-0.4-0.1-0.8-0.2-1-0.2h-1.6v1.6c0.5,0,1.1,0,1.6,0.1
		c1.6,0.3,2.4,1.5,2.4,3.6h-5.8v1.9h7.6v-1.9C254.4,299.9,253.3,298.1,251.2,297.3L251.2,297.3z M288.1,300.8c0,1.2-0.4,1.8-1.3,1.8
		h-1.8c0.2-0.2,0.3-0.9,0.3-2v-3.5h-1.9v3.6c0,1.2-0.4,1.8-1.3,1.8h-1.6c0.2-0.3,0.3-0.9,0.3-1.9v-3.5H279v3.5
		c0,1.3-0.4,1.9-1.3,1.9H273c-0.2,0-0.4-0.2-0.7-0.4c0.5-0.4,1.2-1,1.9-1.8c0.7-0.8,1-1.3,1.1-1.8c-1.3-1.1-2.9-1.6-4.6-1.6
		c-1.5,0-3,0.4-4.4,1.3v1.6c0.5,0.1,1.2,0.4,1.9,0.9c0.7,0.4,1.1,0.8,1.3,1.2c-0.4,0.2-0.8,0.4-1.2,0.5c-0.3,0.1-0.8,0.1-1.2,0.1
		h-4.2v-1.9c0-2.1-1.4-3.6-3.3-3.6c-2.1,0-3.6,1.4-3.6,3.5s1.5,3.7,3.5,3.7h1.8c-0.2,0.9-0.9,1.2-1.8,1.2v1.4c2.1,0,3.3-0.9,3.5-2.6
		h4.5c1.2,0,2.4-0.4,3.5-1.2c0.2,0.3,0.7,0.5,1,0.8c0.5,0.2,1,0.4,1.4,0.4h13.5c1.9,0,3.1-1.5,3.1-3.8V297h-1.9L288.1,300.8
		L288.1,300.8z M261.1,302.6h-1.5c-1,0-1.8-0.9-1.8-2c0-1.1,0.7-1.9,1.8-1.9c0.9,0,1.4,0.7,1.5,1.6V302.6z M271.1,301.1
		c-0.8-0.9-1.8-1.5-2.7-2c0.8-0.4,1.6-0.7,2.5-0.7c0.8,0,1.6,0.2,2.3,0.7c-0.2,0.3-0.5,0.7-0.9,1.1L271.1,301.1z M297.3,292.5h1.8
		v1.8h-1.8V292.5z M300.3,292.5h1.8v1.8h-1.8V292.5z M313.1,298c-0.9-0.5-1.9-0.9-3.1-0.9h-0.8l2.2-3.1h-2.1l-3.2,4.7h3.7
		c1.2,0,2.1,0.4,2.7,1.2c0.5,0.7,0.9,1.5,0.9,2.5h-9.5c-1.2,0-1.8-0.7-1.8-2v-5.1h-4c-2.1,0-3.3,1.5-3.3,4c0,2.2,1.3,3.7,3.3,3.7
		c0.8,0,1.5-0.4,2.1-1.2c0.3,1.4,1.5,2.4,2.9,2.4h12.1v-1.1C315.4,300.7,314.6,299,313.1,298L313.1,298z M300.3,299.3
		c0,1.3-0.7,2.4-1.9,2.4c-1.1,0-1.8-1.1-1.8-2.3c0-1.5,0.8-2.5,2-2.5h1.6L300.3,299.3L300.3,299.3z M328.6,293.8h1.8v1.8h-1.8V293.8
		z M334.6,300.8c0,1.2-0.4,1.8-1.3,1.8h-1.8c0.2-0.2,0.3-0.9,0.3-2v-3.5H330v3.6c0,1.2-0.4,1.8-1.3,1.8H327c0.2-0.3,0.3-0.9,0.3-1.9
		v-3.5h-1.9v3.5c0,1.3-0.4,1.9-1.3,1.9h-3.5V297h-1.8v6.2c0,1.5-0.8,2.3-2.2,2.3v1.5c2.2,0,3.6-1,4-2.6h12.7c1.9,0,3.1-1.5,3.1-3.8
		V297h-1.9V300.8L334.6,300.8z M330.1,291.3h1.8v1.8h-1.8V291.3z M331.7,293.8h1.8v1.8h-1.8L331.7,293.8z M18.8,266.6
		c-0.2-0.5-0.4-1-0.5-1.4c-0.1-0.3-0.3-0.7-0.5-1c-0.2-0.3-0.4-0.5-0.8-0.8s-0.8-0.3-1.3-0.3c-0.5,0-0.9,0.1-1.2,0.3
		c-0.3,0.2-0.7,0.4-0.8,0.8c-0.2,0.3-0.4,0.7-0.5,1.2c-0.2,0.4-0.3,0.9-0.4,1.2L8,278.2c-0.2,0.4-0.3,0.9-0.4,1.1
		c-0.1,0.2-0.1,0.5-0.1,0.8c0,0.4,0.2,0.8,0.5,1.1c0.3,0.3,0.8,0.5,1.2,0.5c0.5,0,0.9-0.1,1.2-0.4c0.2-0.3,0.5-0.9,0.9-1.9l0.9-2.3
		h7.3l0.9,2.3c0.1,0.3,0.2,0.5,0.4,1c0.1,0.3,0.3,0.7,0.4,0.8c0.1,0.2,0.3,0.3,0.5,0.4c0.2,0.1,0.4,0.1,0.8,0.1
		c0.4,0,0.9-0.2,1.2-0.5c0.3-0.3,0.5-0.8,0.5-1.1c0-0.4-0.2-1-0.5-2L18.8,266.6L18.8,266.6z M12.9,274.4l2.6-7.4l2.7,7.4H12.9z
		 M37.6,278.4h-7.4v-13.1c0-0.8-0.2-1.3-0.5-1.6s-0.8-0.5-1.3-0.5s-1,0.2-1.3,0.5s-0.5,0.9-0.5,1.6v13.8c0,0.8,0.2,1.3,0.5,1.8
		c0.3,0.3,0.9,0.5,1.8,0.5h8.8c0.5,0,1.1-0.1,1.3-0.4s0.4-0.7,0.4-1.1c0-0.4-0.1-0.8-0.4-1.1C38.7,278.5,38.3,278.4,37.6,278.4
		L37.6,278.4z M50.5,263.2c-0.5,0-1,0.2-1.3,0.5c-0.3,0.3-0.4,0.9-0.4,1.6v9.9c0,2.3-0.8,3.5-2.4,3.5c-0.7,0-1.1-0.1-1.4-0.4
		c-0.3-0.2-0.5-0.5-0.7-1c-0.1-0.3-0.3-0.9-0.4-1.5c-0.1-0.5-0.3-1-0.5-1.3s-0.7-0.4-1.1-0.4c-0.5,0-0.9,0.1-1.2,0.4
		c-0.3,0.3-0.4,0.8-0.4,1.3c0,0.5,0.1,1.1,0.2,1.8c0.1,0.5,0.3,1.1,0.7,1.5c0.5,0.9,1.2,1.4,2,1.9c0.8,0.3,1.9,0.5,3.1,0.5
		c1.3,0,2.5-0.3,3.4-0.9c1-0.5,1.6-1.3,2-2.3c0.2-0.5,0.4-1.2,0.4-1.8c0.1-0.5,0.1-1.3,0.1-2.1V265c0-0.8-0.2-1.3-0.5-1.6
		C51.4,263.2,50.9,263.2,50.5,263.2L50.5,263.2z M65.7,266.6c-0.2-0.5-0.4-1-0.5-1.4c-0.1-0.3-0.3-0.7-0.5-1
		c-0.2-0.3-0.4-0.5-0.8-0.8c-0.3-0.2-0.8-0.3-1.3-0.3c-0.5,0-0.9,0.1-1.2,0.3c-0.3,0.2-0.7,0.4-0.8,0.8c-0.2,0.3-0.4,0.7-0.5,1.2
		c-0.2,0.4-0.3,0.9-0.4,1.2L55,278.2c-0.2,0.4-0.3,0.9-0.4,1.1c-0.1,0.2-0.1,0.5-0.1,0.8c0,0.4,0.2,0.8,0.5,1.1
		c0.3,0.3,0.8,0.5,1.2,0.5c0.5,0,0.9-0.1,1.2-0.4c0.2-0.3,0.5-0.9,0.9-1.9l0.9-2.3h7.3l0.9,2.3c0.1,0.3,0.2,0.5,0.4,1
		c0.1,0.3,0.3,0.7,0.4,0.8c0.1,0.2,0.3,0.3,0.5,0.4c0.2,0.1,0.4,0.1,0.8,0.1c0.4,0,0.9-0.2,1.2-0.5c0.3-0.3,0.5-0.8,0.5-1.1
		c0-0.4-0.2-1-0.5-2L65.7,266.6L65.7,266.6z M59.9,274.4l2.6-7.4l2.7,7.4H59.9z M85.5,272.2c-0.5-0.4-1.3-0.8-2.1-1
		c-0.8-0.3-1.8-0.5-2.7-0.8l-1.8-0.4c-0.3-0.1-0.7-0.2-1-0.4c-0.3-0.2-0.7-0.4-0.8-0.7c-0.2-0.2-0.3-0.5-0.3-0.9
		c0-0.5,0.3-1.1,0.9-1.5c0.5-0.4,1.3-0.7,2.3-0.7s1.8,0.2,2.2,0.5c0.4,0.3,0.9,0.9,1.2,1.5c0.2,0.4,0.4,0.8,0.7,1
		c0.2,0.2,0.5,0.3,1,0.3s0.9-0.2,1.1-0.5c0.3-0.3,0.4-0.8,0.4-1.2c0-0.5-0.1-1-0.3-1.4c-0.2-0.5-0.7-1-1.2-1.4
		c-0.5-0.4-1.2-0.8-2-1.1c-0.8-0.3-1.8-0.4-2.9-0.4c-1.4,0-2.6,0.2-3.6,0.7s-1.8,1-2.3,1.8s-0.8,1.6-0.8,2.6c0,1,0.2,1.9,0.8,2.6
		c0.5,0.8,1.2,1.2,2.1,1.6c0.9,0.4,2,0.8,3.3,1.1c1,0.2,1.8,0.4,2.3,0.7c0.5,0.2,1.1,0.4,1.4,0.9c0.3,0.3,0.5,0.9,0.5,1.4
		c0,0.8-0.3,1.4-1,1.9c-0.7,0.5-1.5,0.8-2.6,0.8c-0.8,0-1.4-0.1-1.9-0.3s-0.9-0.5-1.1-1c-0.3-0.5-0.6-0.9-0.8-1.4
		c-0.2-0.4-0.4-0.9-0.7-1.1c-0.2-0.2-0.5-0.3-1-0.3s-0.9,0.1-1.2,0.4s-0.4,0.7-0.4,1.1c0,0.8,0.2,1.5,0.8,2.3c0.5,0.8,1.2,1.4,2,2
		c1.1,0.7,2.6,1,4.4,1c1.4,0,2.7-0.2,3.8-0.8c1.1-0.4,1.9-1.2,2.4-2.1c0.5-0.9,0.9-1.9,0.9-3c0-0.9-0.1-1.6-0.4-2.3L85.5,272.2
		L85.5,272.2z M103.9,276.9c-0.4-0.8-1-1.4-1.5-2.1s-1.2-1.2-1.9-1.5c1.5-0.3,2.6-0.9,3.4-1.8c0.8-0.8,1.1-1.9,1.1-3.2
		c0-0.7-0.1-1.3-0.3-1.9c-0.2-0.5-0.5-1.1-1-1.5c-0.4-0.4-0.9-0.8-1.5-1c-0.4-0.2-1-0.3-1.5-0.4s-1.3-0.1-2.1-0.1h-5.9
		c-0.8,0-1.3,0.2-1.8,0.5c-0.3,0.3-0.5,0.9-0.5,1.8v13.8c0,0.8,0.1,1.3,0.4,1.6c0.3,0.3,0.8,0.5,1.3,0.5s1-0.2,1.3-0.5
		s0.5-0.9,0.5-1.6v-5.8h1.3c0.7,0,1.2,0.1,1.6,0.2c0.4,0.2,0.9,0.4,1.2,1c0.4,0.4,0.9,1.1,1.4,2.1l1.4,2.4c0.3,0.5,0.7,1,0.8,1.3
		c0.2,0.3,0.4,0.5,0.8,0.8s0.7,0.3,1,0.3c0.3,0,0.7-0.1,0.9-0.2s0.4-0.3,0.7-0.5c0.1-0.2,0.2-0.4,0.2-0.7s-0.1-0.7-0.4-1.2
		C104.6,278.4,104.3,277.7,103.9,276.9L103.9,276.9z M99.5,270.8c-0.5,0.1-1.3,0.2-2.2,0.2H94v-4.9h3.4c1.2,0,2.1,0.1,2.5,0.2
		c0.4,0.2,0.8,0.4,1.1,0.9c0.2,0.3,0.3,0.8,0.3,1.3c0,0.7-0.1,1.1-0.4,1.5C100.6,270.5,100,270.7,99.5,270.8L99.5,270.8z
		 M110.4,263.2c-0.5,0-1,0.2-1.3,0.5c-0.3,0.3-0.5,0.9-0.5,1.6v14.2c0,0.8,0.2,1.3,0.5,1.6c0.3,0.3,0.8,0.5,1.3,0.5
		c0.5,0,1-0.2,1.3-0.5c0.3-0.3,0.5-0.9,0.5-1.6v-14.2c0-0.8-0.2-1.3-0.5-1.6C111.3,263.3,110.9,263.2,110.4,263.2z"/>
	<g>
		<path id="B" class="st0" d="M126.4,266.6c-0.2-0.5-0.4-1-0.5-1.4c-0.1-0.3-0.3-0.7-0.5-1c-0.2-0.3-0.4-0.5-0.8-0.8
			s-0.8-0.3-1.3-0.3s-0.9,0.1-1.2,0.3c-0.3,0.2-0.7,0.4-0.8,0.8c-0.2,0.3-0.4,0.7-0.5,1.2c-0.2,0.4-0.3,0.9-0.4,1.2l-4.6,11.6
			c-0.2,0.4-0.3,0.9-0.4,1.1c-0.1,0.2-0.1,0.5-0.1,0.8c0,0.4,0.2,0.8,0.5,1.1c0.3,0.3,0.8,0.5,1.2,0.5c0.5,0,0.9-0.1,1.2-0.4
			c0.2-0.3,0.5-0.9,0.9-1.9l0.9-2.3h7.3l0.9,2.3c0.1,0.3,0.2,0.5,0.4,1c0.1,0.3,0.3,0.7,0.4,0.8c0.1,0.2,0.3,0.3,0.5,0.4
			c0.2,0.1,0.4,0.1,0.8,0.1c0.4,0,0.9-0.2,1.2-0.5s0.5-0.8,0.5-1.1c0-0.4-0.2-1-0.5-2L126.4,266.6L126.4,266.6z M120.6,274.4
			l2.6-7.4l2.7,7.4H120.6z"/>
	</g>
	<path class="st0" d="M147.7,263.2c-0.5,0-1,0.2-1.3,0.5c-0.3,0.3-0.5,0.9-0.5,1.6v5.2H138v-5.2c0-0.8-0.2-1.3-0.5-1.6
		c-0.3-0.3-0.8-0.5-1.3-0.5s-1,0.2-1.3,0.5c-0.3,0.3-0.4,0.9-0.4,1.6v14.2c0,0.8,0.1,1.3,0.4,1.6c0.3,0.3,0.8,0.5,1.3,0.5
		s1-0.2,1.3-0.5c0.3-0.3,0.5-0.9,0.5-1.6v-6h7.8v6c0,0.8,0.1,1.3,0.4,1.6c0.3,0.3,0.8,0.5,1.3,0.5s1-0.2,1.3-0.5
		c0.3-0.3,0.5-0.9,0.5-1.6v-14.2c0-0.8-0.2-1.3-0.5-1.6C148.7,263.3,148.3,263.2,147.7,263.2L147.7,263.2z M173.4,274.1
		c-0.5,0-0.9,0.1-1.1,0.4s-0.4,0.7-0.5,1.2c-0.3,1-0.9,1.8-1.6,2.3c-0.8,0.5-1.6,0.8-2.6,0.8c-0.9,0-1.8-0.2-2.5-0.7
		c-0.8-0.4-1.3-1.1-1.6-2.1c-0.4-0.9-0.5-2.1-0.5-3.5c0-2.1,0.4-3.7,1.3-4.8c0.9-1.1,2.1-1.8,3.6-1.8c1,0,1.8,0.2,2.4,0.7
		c0.7,0.4,1.2,1.1,1.6,2c0.3,0.5,0.5,0.9,0.8,1.1s0.5,0.3,1.1,0.3c0.4,0,0.8-0.1,1.1-0.4c0.3-0.3,0.4-0.7,0.4-1.1
		c0-0.8-0.3-1.5-0.9-2.4c-0.5-0.9-1.4-1.5-2.6-2.2c-1.1-0.5-2.4-0.9-3.8-0.9c-1.2,0-2.3,0.2-3.4,0.7c-1.1,0.4-2,1-2.7,1.9
		c-0.8,0.8-1.4,1.8-1.8,3c-0.4,1.1-0.7,2.4-0.7,3.8c0,0.9,0.1,1.8,0.2,2.5c0.2,0.8,0.4,1.5,0.8,2.2c0.3,0.7,0.8,1.3,1.2,1.9
		c0.5,0.7,1.1,1.1,1.8,1.5c0.7,0.3,1.3,0.7,2.1,0.9c0.8,0.2,1.6,0.2,2.6,0.2c1.2,0,2.3-0.2,3.3-0.5c1-0.4,1.8-0.9,2.3-1.5
		c0.5-0.7,1.1-1.3,1.3-2c0.3-0.6,0.4-1.2,0.4-1.9c0-0.4-0.1-0.9-0.4-1.1C174.2,274.3,173.9,274.1,173.4,274.1L173.4,274.1z
		 M191,264.3c-1.3-0.8-3-1.1-4.8-1.1c-1.3,0-2.6,0.2-3.6,0.7c-1.1,0.4-2,1.1-2.7,1.9c-0.8,0.8-1.3,1.8-1.8,3
		c-0.4,1.1-0.5,2.4-0.5,3.8c0,1.3,0.2,2.6,0.5,3.7c0.3,1.2,1,2.2,1.6,3c0.8,0.9,1.6,1.4,2.7,1.9s2.4,0.7,3.7,0.7
		c1.4,0,2.6-0.2,3.7-0.7s2-1.1,2.7-1.9c0.8-0.9,1.3-1.9,1.6-3c0.3-1.1,0.5-2.4,0.5-3.7c0-1.9-0.3-3.5-1-4.9
		C193.3,266.1,192.3,265,191,264.3L191,264.3z M190.7,275.9c-0.4,1-1.1,1.6-1.9,2.2c-0.8,0.4-1.6,0.7-2.5,0.7c-0.8,0-1.4-0.1-2-0.4
		c-0.7-0.2-1.1-0.7-1.6-1.2c-0.4-0.5-0.9-1.2-1.1-2.1c-0.2-0.9-0.4-1.8-0.4-2.7c0-1,0.1-2,0.4-2.7c0.2-0.8,0.7-1.4,1.1-2
		c0.4-0.5,1-0.9,1.6-1.2c0.7-0.2,1.3-0.4,2-0.4c1,0,2,0.2,2.7,0.8c0.8,0.4,1.4,1.2,1.9,2.2c0.4,1,0.7,2.1,0.7,3.4
		C191.3,273.8,191.1,275,190.7,275.9L190.7,275.9z M198.8,278c-0.5,0-1,0.2-1.3,0.5s-0.5,0.8-0.5,1.3c0,0.5,0.2,1.1,0.5,1.3
		c0.3,0.3,0.8,0.4,1.3,0.4c0.4,0,0.9-0.2,1.3-0.5c0.4-0.3,0.5-0.8,0.5-1.3c0-0.5-0.2-1-0.5-1.3C199.8,278.2,199.4,278,198.8,278z
		 M214.5,279.5v-5.9h6c0.5,0,1-0.1,1.2-0.3c0.3-0.2,0.4-0.5,0.4-1c0-0.4-0.1-0.8-0.4-1c-0.2-0.2-0.7-0.3-1.2-0.3h-6v-4.7h7.1
		c0.5,0,1-0.1,1.3-0.4c0.3-0.3,0.4-0.5,0.4-1s-0.1-0.8-0.4-1c-0.3-0.2-0.7-0.4-1.3-0.4h-8.6c-0.4,0-0.9,0.1-1.3,0.2
		c-0.3,0.1-0.5,0.4-0.8,0.8c-0.1,0.4-0.2,0.9-0.2,1.3v13.8c0,0.8,0.2,1.3,0.5,1.6c0.3,0.3,0.8,0.5,1.3,0.5c0.5,0,1-0.2,1.3-0.5
		C214.4,280.7,214.5,280.2,214.5,279.5L214.5,279.5z M226,276.1c0.3,1.2,1,2.2,1.6,3c0.8,0.9,1.6,1.4,2.7,1.9s2.4,0.7,3.7,0.7
		c1.4,0,2.6-0.2,3.7-0.7s2-1.1,2.7-1.9c0.8-0.9,1.3-1.9,1.6-3c0.3-1.1,0.5-2.4,0.5-3.7c0-1.9-0.3-3.5-1-4.9
		c-0.7-1.4-1.6-2.4-3.1-3.2c-1.3-0.8-3-1.1-4.8-1.1c-1.3,0-2.6,0.2-3.6,0.7c-1.1,0.4-2,1.1-2.7,1.9c-0.8,0.8-1.3,1.8-1.8,3
		c-0.4,1.1-0.5,2.4-0.5,3.8C225.3,273.7,225.5,274.9,226,276.1L226,276.1z M229.4,269.6c0.2-0.8,0.7-1.4,1.1-2
		c0.4-0.5,1-0.9,1.6-1.2c0.7-0.2,1.3-0.4,2-0.4c1,0,2,0.2,2.7,0.8c0.8,0.4,1.4,1.2,1.9,2.2c0.4,1,0.7,2.1,0.7,3.4
		c0,1.4-0.2,2.6-0.7,3.6c-0.4,1-1.1,1.6-1.9,2.2c-0.8,0.4-1.6,0.7-2.5,0.7c-0.8,0-1.4-0.1-2-0.4c-0.7-0.2-1.1-0.7-1.6-1.2
		c-0.4-0.5-0.9-1.2-1.1-2.1c-0.2-0.9-0.4-1.8-0.4-2.7C229,271.4,229.1,270.4,229.4,269.6L229.4,269.6z M259.5,276.9
		c-0.4-0.8-1-1.4-1.5-2.1c-0.5-0.7-1.2-1.2-1.9-1.5c1.5-0.3,2.6-0.9,3.4-1.8c0.8-0.8,1.1-1.9,1.1-3.2c0-0.7-0.1-1.3-0.3-1.9
		c-0.2-0.5-0.5-1.1-1-1.5s-0.9-0.8-1.5-1c-0.4-0.2-1-0.3-1.5-0.4c-0.5-0.1-1.3-0.1-2.1-0.1h-5.9c-0.8,0-1.3,0.2-1.8,0.5
		c-0.3,0.3-0.5,0.9-0.5,1.8v13.8c0,0.8,0.1,1.3,0.4,1.6s0.8,0.5,1.3,0.5c0.5,0,1-0.2,1.3-0.5c0.3-0.3,0.5-0.9,0.5-1.6v-5.8h1.3
		c0.7,0,1.2,0.1,1.6,0.2c0.4,0.2,0.9,0.4,1.2,1c0.3,0.5,0.9,1.1,1.4,2.1l1.4,2.4c0.3,0.5,0.7,1,0.8,1.3c0.2,0.3,0.4,0.5,0.8,0.8
		s0.7,0.3,1,0.3c0.3,0,0.7-0.1,0.9-0.2s0.4-0.3,0.7-0.5c0.1-0.2,0.2-0.4,0.2-0.7s-0.1-0.7-0.4-1.2
		C260.3,278.4,260,277.7,259.5,276.9L259.5,276.9z M255.1,270.8c-0.5,0.1-1.3,0.2-2.2,0.2h-3.3v-4.9h3.4c1.2,0,2.1,0.1,2.5,0.2
		c0.4,0.2,0.8,0.4,1.1,0.9c0.2,0.3,0.3,0.8,0.3,1.3c0,0.7-0.1,1.1-0.4,1.5C256.2,270.5,255.7,270.7,255.1,270.8L255.1,270.8z
		 M281.1,266.2c0.5,0,1-0.1,1.3-0.4c0.3-0.3,0.4-0.5,0.4-1s-0.1-0.8-0.4-1s-0.7-0.4-1.3-0.4h-8.6c-0.4,0-0.9,0.1-1.3,0.2
		c-0.3,0.1-0.5,0.4-0.8,0.8c-0.1,0.4-0.2,0.9-0.2,1.3v13.8c0,0.8,0.2,1.3,0.5,1.6s0.8,0.5,1.3,0.5s1-0.2,1.3-0.5
		c0.3-0.3,0.5-0.9,0.5-1.6v-5.9h6c0.5,0,1-0.1,1.2-0.3c0.3-0.2,0.4-0.5,0.4-1c0-0.4-0.1-0.8-0.4-1c-0.2-0.2-0.7-0.3-1.2-0.3h-6v-4.7
		H281.1z M286.2,263.7c-0.3,0.3-0.5,0.9-0.5,1.6v14.2c0,0.8,0.2,1.3,0.5,1.6c0.3,0.3,0.8,0.5,1.3,0.5s1-0.2,1.3-0.5
		c0.3-0.3,0.5-0.9,0.5-1.6v-14.2c0-0.8-0.2-1.3-0.5-1.6c-0.3-0.3-0.8-0.5-1.3-0.5S286.5,263.3,286.2,263.7z M304.3,280.4
		c0.2,0.2,0.4,0.5,0.7,0.8s0.4,0.3,0.8,0.4c0.2,0.1,0.5,0.1,0.9,0.1c1.3,0,2-0.8,2-2.4v-14.2c0-0.7-0.1-1.2-0.4-1.5
		c-0.3-0.3-0.8-0.5-1.2-0.5c-0.5,0-0.9,0.2-1.2,0.5c-0.3,0.3-0.4,0.9-0.4,1.5v10.7l-7-10.5l-0.5-0.9c-0.2-0.3-0.3-0.5-0.5-0.7
		c-0.2-0.2-0.3-0.3-0.7-0.4c-0.2-0.1-0.5-0.1-0.9-0.1c-0.4,0-0.8,0.1-1.2,0.3c-0.3,0.2-0.7,0.5-0.8,0.9c-0.1,0.3-0.2,0.8-0.2,1.4
		v13.8c0,0.7,0.1,1.2,0.4,1.5c0.3,0.3,0.8,0.5,1.2,0.5c0.5,0,0.9-0.2,1.2-0.5c0.3-0.3,0.4-0.9,0.4-1.5v-10.5l6.8,10.4
		C303.9,279.9,304.1,280.1,304.3,280.4L304.3,280.4z"/>
	<g>
		<path id="B_1_" class="st0" d="M322.2,266.6c-0.2-0.5-0.4-1-0.5-1.4c-0.1-0.3-0.3-0.7-0.5-1c-0.2-0.3-0.4-0.5-0.8-0.8
			c-0.3-0.2-0.8-0.3-1.3-0.3c-0.5,0-0.9,0.1-1.2,0.3c-0.3,0.2-0.7,0.4-0.8,0.8c-0.2,0.3-0.4,0.7-0.5,1.2c-0.2,0.4-0.3,0.9-0.4,1.2
			l-4.6,11.6c-0.2,0.4-0.3,0.9-0.4,1.1c-0.1,0.2-0.1,0.5-0.1,0.8c0,0.4,0.2,0.8,0.5,1.1c0.3,0.3,0.8,0.5,1.2,0.5
			c0.5,0,0.9-0.1,1.2-0.4c0.2-0.3,0.5-0.9,0.9-1.9l0.9-2.3h7.3l0.9,2.3c0.1,0.3,0.2,0.5,0.4,1c0.1,0.3,0.3,0.7,0.4,0.8
			c0.1,0.2,0.3,0.3,0.5,0.4c0.2,0.1,0.4,0.1,0.8,0.1c0.4,0,0.9-0.2,1.2-0.5s0.5-0.8,0.5-1.1c0-0.4-0.2-1-0.5-2L322.2,266.6
			L322.2,266.6z M316.4,274.4l2.6-7.4l2.7,7.4H316.4z"/>
	</g>
	<path class="st0" d="M343.5,263.2c-0.5,0-0.9,0.2-1.2,0.5c-0.3,0.3-0.4,0.9-0.4,1.5v10.7l-7-10.5l-0.5-0.9
		c-0.2-0.3-0.3-0.5-0.5-0.7c-0.2-0.2-0.3-0.3-0.7-0.4c-0.2-0.1-0.5-0.1-0.9-0.1c-0.4,0-0.8,0.1-1.2,0.3c-0.3,0.2-0.7,0.5-0.8,0.9
		c-0.1,0.3-0.2,0.8-0.2,1.4v13.8c0,0.7,0.1,1.2,0.4,1.5c0.3,0.3,0.8,0.5,1.2,0.5c0.5,0,0.9-0.2,1.2-0.5c0.3-0.3,0.4-0.9,0.4-1.5
		v-10.5l6.8,10.4c0.2,0.3,0.4,0.5,0.5,0.9c0.2,0.2,0.4,0.5,0.7,0.8c0.2,0.2,0.4,0.3,0.8,0.4c0.2,0.1,0.5,0.1,0.9,0.1
		c1.3,0,2-0.8,2-2.4v-14.2c0-0.7-0.1-1.2-0.4-1.5C344.5,263.3,344.1,263.2,343.5,263.2L343.5,263.2z M360.5,281.1
		c1-0.4,1.8-0.9,2.3-1.5c0.5-0.7,1.1-1.3,1.3-2c0.3-0.6,0.4-1.2,0.4-1.9c0-0.4-0.1-0.9-0.4-1.1c-0.3-0.3-0.7-0.4-1.1-0.4
		c-0.5,0-0.9,0.1-1.1,0.4s-0.4,0.7-0.5,1.2c-0.3,1-0.9,1.8-1.6,2.3c-0.8,0.5-1.6,0.8-2.6,0.8c-0.9,0-1.8-0.2-2.5-0.7
		c-0.8-0.4-1.3-1.1-1.6-2.1c-0.3-1-0.5-2.1-0.5-3.5c0-2.1,0.4-3.7,1.3-4.8c0.9-1.1,2.1-1.8,3.6-1.8c1,0,1.8,0.2,2.4,0.7
		c0.7,0.4,1.2,1.1,1.6,2c0.3,0.5,0.5,0.9,0.8,1.1s0.5,0.3,1.1,0.3c0.4,0,0.8-0.1,1.1-0.4c0.3-0.3,0.4-0.7,0.4-1.1
		c0-0.8-0.3-1.5-0.9-2.4c-0.5-0.9-1.4-1.5-2.6-2.2c-1.1-0.5-2.4-0.9-3.8-0.9c-1.2,0-2.3,0.2-3.4,0.7c-1.1,0.4-2,1-2.7,1.9
		c-0.8,0.8-1.4,1.8-1.8,3c-0.4,1.1-0.7,2.4-0.7,3.8c0,0.9,0.1,1.8,0.2,2.5c0.2,0.8,0.4,1.5,0.8,2.2c0.3,0.7,0.8,1.3,1.2,1.9
		c0.5,0.7,1.1,1.1,1.8,1.5c0.7,0.3,1.3,0.7,2.1,0.9c0.8,0.2,1.6,0.2,2.6,0.2C358.5,281.7,359.6,281.5,360.5,281.1L360.5,281.1z
		 M368,264.4c-0.1,0.4-0.2,0.9-0.2,1.3v13.5c0,0.8,0.2,1.3,0.5,1.8c0.3,0.3,0.9,0.5,1.8,0.5h9.9c0.5,0,1-0.1,1.3-0.4
		c0.3-0.2,0.4-0.7,0.4-1c0-0.4-0.1-0.8-0.4-1.1c-0.3-0.2-0.8-0.4-1.3-0.4h-8.5v-5.2h7.6c0.5,0,1-0.1,1.2-0.4c0.2-0.3,0.4-0.5,0.4-1
		c0-0.4-0.1-0.8-0.4-1c-0.2-0.2-0.7-0.3-1.2-0.3h-7.6v-4.4h8.2c0.5,0,1-0.1,1.3-0.4c0.3-0.2,0.4-0.5,0.4-1c0-0.4-0.1-0.8-0.4-1
		s-0.7-0.4-1.3-0.4h-9.6c-0.4,0-0.9,0.1-1.3,0.2C368.6,263.8,368.2,264,368,264.4L368,264.4z M403.1,281c0.3-0.2,0.4-0.7,0.4-1.1
		c0-0.4-0.1-0.8-0.4-1.1s-0.8-0.4-1.3-0.4h-7.4v-13.1c0-0.8-0.2-1.3-0.5-1.6c-0.3-0.3-0.8-0.5-1.3-0.5s-1,0.2-1.3,0.5
		s-0.5,0.9-0.5,1.6v13.8c0,0.8,0.2,1.3,0.5,1.8c0.3,0.3,0.9,0.5,1.8,0.5h8.8C402.3,281.4,402.9,281.3,403.1,281L403.1,281z
		 M409,263.7c-0.3-0.3-0.8-0.5-1.3-0.5c-0.5,0-1,0.2-1.3,0.5c-0.3,0.3-0.5,0.9-0.5,1.6v13.8c0,0.8,0.2,1.3,0.5,1.8
		c0.3,0.3,0.9,0.5,1.8,0.5h8.8c0.5,0,1.1-0.1,1.3-0.4c0.3-0.2,0.4-0.7,0.4-1.1s-0.1-0.8-0.4-1.1s-0.8-0.4-1.3-0.4h-7.4v-13.1
		C409.6,264.6,409.4,264,409,263.7L409,263.7z M433.6,274.1c-0.5,0-0.9,0.1-1.1,0.4s-0.4,0.7-0.5,1.2c-0.3,1-0.9,1.8-1.6,2.3
		c-0.8,0.5-1.6,0.8-2.6,0.8c-0.9,0-1.8-0.2-2.5-0.7c-0.8-0.4-1.3-1.1-1.6-2.1c-0.3-1-0.5-2.1-0.5-3.5c0-2.1,0.4-3.7,1.3-4.8
		c0.9-1.1,2.1-1.8,3.6-1.8c1,0,1.8,0.2,2.4,0.7c0.7,0.4,1.2,1.1,1.6,2c0.3,0.5,0.5,0.9,0.8,1.1c0.2,0.2,0.5,0.3,1.1,0.3
		c0.4,0,0.8-0.1,1.1-0.4c0.3-0.3,0.4-0.7,0.4-1.1c0-0.8-0.3-1.5-0.9-2.4c-0.5-0.9-1.4-1.5-2.6-2.2c-1.1-0.5-2.4-0.9-3.8-0.9
		c-1.2,0-2.3,0.2-3.4,0.7c-1.1,0.4-2,1-2.7,1.9c-0.8,0.8-1.4,1.8-1.8,3c-0.4,1.1-0.7,2.4-0.7,3.8c0,0.9,0.1,1.8,0.2,2.5
		c0.2,0.8,0.4,1.5,0.8,2.2c0.3,0.7,0.8,1.3,1.2,1.9c0.5,0.7,1.1,1.1,1.8,1.5c0.7,0.3,1.3,0.7,2.1,0.9c0.8,0.2,1.6,0.2,2.6,0.2
		c1.2,0,2.3-0.2,3.3-0.5c1-0.4,1.8-0.9,2.3-1.5c0.5-0.7,1.1-1.3,1.3-2c0.3-0.6,0.4-1.2,0.4-1.9c0-0.4-0.1-0.9-0.4-1.1
		C434.4,274.3,434.1,274.1,433.6,274.1L433.6,274.1z M439.1,278c-0.5,0-1,0.2-1.3,0.5c-0.3,0.3-0.5,0.8-0.5,1.3
		c0,0.5,0.2,1.1,0.5,1.3c0.3,0.2,0.8,0.4,1.3,0.4c0.4,0,0.9-0.2,1.3-0.5c0.4-0.3,0.5-0.8,0.5-1.3c0-0.5-0.2-1-0.5-1.3
		C440.1,278.2,439.7,278,439.1,278z"/>
</g>
</svg>
