<svg id="Layer_1" data-name="Layer 1" xmlns="http://www.w3.org/2000/svg" viewBox="0 0 841.89 595.28"><defs><style>.cls-1{fill:#002b5c;}.cls-2{fill:#da1f3d;}.cls-3{fill:#231f20;fill-rule:evenodd;}</style></defs><path class="cls-1" d="M425.44,249.41c0-10.44,6.89-20.06,17.38-20.06,10.23,0,17.32,9.62,17.32,20.06s-7.09,20-17.32,20C432.4,269.46,425.44,259.84,425.44,249.41Zm-6.22,0a23.64,23.64,0,1,0,23.6-23.74A23.52,23.52,0,0,0,419.22,249.41Z"/><path class="cls-1" d="M477.25,245.6V229.69a10.38,10.38,0,0,1,3.94-.54c6.76,0,10.3,3.81,10.3,7.82,0,4.62-4.14,8.76-11.77,8.76C478.59,245.73,477.72,245.6,477.25,245.6Zm11.37,6.08a14.78,14.78,0,0,0-3.35-3.55v-.19c4.75,0,12.23-3,12.23-11.17,0-6.28-4.41-10.7-14.44-10.7h-12.5c.73,1,.8,1.14.8,4.62v38.24c0,2.14-.07,2.61-.86,3.81h7.62c-.81-1.2-.87-1.47-.87-3.81V246c.87.34,1.6,1.6,3.48,4,5.21,6.48,15,20.86,16.91,22.73h8.15v-.07a13.24,13.24,0,0,1-3.87-3.8Z"/><path class="cls-1" d="M517.42,272.74H509.8c.81-1.2.87-1.67.87-3.81V230.69c0-3.48-.06-3.61-.8-4.62h7.49c-.81,1-.81,1.14-.81,4.62v38.24C516.55,271.07,516.62,271.54,517.42,272.74Z"/><path class="cls-1" d="M564.49,272.74h-8.82c.26-.8.39-1.47-.68-3l-11.77-17.06-12.5,17.19a2.58,2.58,0,0,0-.47,2.87h-8.89a11.63,11.63,0,0,0,3-3.34l15.78-21.2L526.91,229c-1.27-1.73-1.74-2.4-2.67-2.94h9.15A3.39,3.39,0,0,0,534,229l9.9,14.37L554.59,229c.94-1.26,1-2.2.66-2.94H563a11.86,11.86,0,0,0-2.47,2.88l-13.7,18.72,15.3,22.4A8.91,8.91,0,0,0,564.49,272.74Z"/><polygon class="cls-2" points="277.4 239.34 277.4 243.58 406.33 206.55 406.33 202.32 277.4 239.34"/><path class="cls-2" d="M353,236.3c-4.43,0-8.24-2.1-9.43-6.37l-66.12,19v4.23L341,234.9c2.84,3.86,6.93,5.81,12.72,5.81,7.71,0,17.46-6.25,17.64-14.53l35-10.05V211.9l-39.5,11.34C368.23,231.64,359.71,236.3,353,236.3Z"/><path class="cls-2" d="M353.32,248.83c-7.51,0-14.36-3.2-16.68-7.35l-59.24,17v4.23L336,245.91c1.65,3.17,8.76,7.25,17.95,7.25,13.78,0,26.8-11.25,27.83-20.4l24.57-7v-4.23l-27.77,8C378.94,237.92,367.1,248.83,353.32,248.83Z"/><path class="cls-2" d="M354.9,259.69c-8.67,0-16.19-3-19.89-8.15L277.4,268.08v4.23l58-16.65c5.26,5.82,13.07,7.79,19.51,7.79,17.55,0,30.48-12,32.38-22.69l19.05-5.47v-4.24L385.7,237C383.27,249.44,369.77,259.69,354.9,259.69Z"/><path class="cls-2" d="M357.21,268.88c-10.19,0-16.65-3.65-20.38-8.29L277.4,277.66v4.23l61-17.51c3.59,4.48,11.48,7.76,19.73,7.76,14,0,27.15-8.07,31.41-22.44l16.8-4.83v-4.24l-17.42,5C385.3,261.87,369.72,268.88,357.21,268.88Z"/><path class="cls-2" d="M341.57,268.8,277.4,287.24v4.23l67.06-19.26A13.62,13.62,0,0,1,341.57,268.8Z"/><path class="cls-2" d="M388.22,259.63l18.11-5.19v-4.23l-17.09,4.9A28.89,28.89,0,0,1,388.22,259.63Z"/><polygon class="cls-2" points="277.4 310.62 406.33 273.6 406.33 269.36 277.4 306.39 277.4 310.62"/><path class="cls-2" d="M387.8,261.82c.09-.28-.18-.45-.37-.12-.8,1.48-9.06,14.51-28.92,14.51A26.57,26.57,0,0,1,347,273.73c-.26-.13-.49,0-.21.26a23.64,23.64,0,0,0,3.2,2L277.4,296.82v4.23l79.19-22.75a24.75,24.75,0,0,0,5.5.64,26.93,26.93,0,0,0,19.11-7.71L406.33,264v-4.23l-20.56,5.9A19.69,19.69,0,0,0,387.8,261.82Z"/><path class="cls-3" d="M256.78,384.69a20.33,20.33,0,0,1-4.87-.58l-.09-2.31.09,0a7.33,7.33,0,0,0,4.78,1.47c4.56,0,5.45-2.38,5.45-4.12,0-2.34-2-3.28-4.14-4.53-2.74-1.61-6.21-2.62-6.21-6.67,0-2.71,2.16-5.1,7-5.1a17.47,17.47,0,0,1,4.1.51v2.22l-.14,0a6.15,6.15,0,0,0-4-1.31c-3.23,0-4.63,1.8-4.63,3.56,0,2.13,2.59,3.23,5.88,5.11,2.76,1.62,4.77,2.68,4.77,5.81C264.75,382.08,262.68,384.69,256.78,384.69Z"/><path class="cls-3" d="M274.31,380c0,1.75-1.63,2.86-3.47,3v1.46a4.84,4.84,0,0,0,3.41-1.65h.06v.09a3.28,3.28,0,0,0,.18,1.48h2.38v-.16a2.93,2.93,0,0,1-.55-1.89v-7.79c0-3.41-3-4.31-5.48-4.31h0v1.42c1.79.06,3.47.65,3.47,2.68,0,1-.48,1.38-3.47,1.81v1.46c2.13-.33,2.86-.49,3.44-1h0Zm-3.47,3h-.33a2.85,2.85,0,0,1-3.14-2.77c0-1.4.91-2.22,3.17-2.59l.3,0v-1.46l-1,.13c-3.23.43-4.32,1.95-4.32,3.78a4.28,4.28,0,0,0,4.59,4.44c.24,0,.48,0,.7,0V383Zm0-12.77v1.42h-.33a6.49,6.49,0,0,0-3.63,1l-.09,0V371A12.28,12.28,0,0,1,270.84,370.25Z"/><path class="cls-3" d="M288,384.4a3.86,3.86,0,0,1-.16-1.5v-.22h-.06a5.22,5.22,0,0,1-4.25,1.89c-2.72,0-5.12-1.79-5.12-4.56v-7.39c0-1,0-1.16-.37-1.64v-.13l2.35-.22v9a3.39,3.39,0,0,0,3.64,3.47c2.54,0,3.81-1.76,3.81-4.07v-6.42c0-1,0-1.16-.37-1.64v-.13l2.35-.22v11.81a2.68,2.68,0,0,0,.51,1.8v.16Z"/><path class="cls-3" d="M301.63,380.68a3.87,3.87,0,0,1-3.58,2.37h-.26v1.57a5.62,5.62,0,0,0,4.15-1.75H302v.42a2.58,2.58,0,0,0,.15,1.11h2.34v-.16a2.62,2.62,0,0,1-.52-1.8V363.05l-2.35.23v.15c.38.45.38.63.38,1.61v7.2h-.07a5.76,5.76,0,0,0-4.15-1.78v1.61h.26a3.72,3.72,0,0,1,3.58,2.25A11.84,11.84,0,0,1,301.63,380.68Zm-3.84,2.37c-2.7-.15-4.28-2.56-4.28-5.5,0-3.19,1.58-5.35,4.28-5.48v-1.61h-.2c-3.8,0-6.12,2.87-6.12,7.13,0,3.89,2.53,7.05,6.12,7.05h.2Z"/><path class="cls-3" d="M306.26,367.87v-2.66h2.16v2.66ZM306,384.4v-.16a3.06,3.06,0,0,0,.37-1.8v-9.85c0-1-.07-1.17-.43-1.65v-.12l2.4-.21v11.83a3.22,3.22,0,0,0,.37,1.8v.16Z"/><path class="cls-3" d="M328.2,364.62h0c4.66,0,7.89,4.38,7.89,9.14s-3.23,9.14-7.89,9.14h0v1.7h0a10.83,10.83,0,0,0,0-21.66h0Zm-7.9,9.14c0-4.75,3.13-9.13,7.9-9.14v-1.68a10.83,10.83,0,0,0,0,21.66v-1.7C323.46,382.89,320.3,378.51,320.3,373.76Z"/><path class="cls-3" d="M347.14,364.67c2.14.46,3.25,1.9,3.25,3.42a4,4,0,0,1-3.25,3.73v4.38c2.38,3.21,5.34,7.51,6.05,8.2h3.71v0a6.17,6.17,0,0,1-1.76-1.73l-6.06-7.83a6.46,6.46,0,0,0-1.53-1.62v-.1c2.16,0,5.58-1.37,5.58-5.07,0-2.74-1.84-4.7-6-4.86ZM343.9,372v-7.26a4.9,4.9,0,0,1,1.8-.23,7.2,7.2,0,0,1,1.44.13v-1.52l-.59,0h-5.7c.33.46.37.52.37,2.1v17.42a2.47,2.47,0,0,1-.4,1.75h3.48c-.37-.57-.4-.68-.4-1.75V372.2c.4.15.73.74,1.58,1.84.49.6,1.06,1.35,1.66,2.16v-4.38a8,8,0,0,1-2.11.26C344.5,372.08,344.11,372,343.9,372Z"/><path class="cls-3" d="M362.2,384.4h-3.47a2.47,2.47,0,0,0,.39-1.75V365.23c0-1.58,0-1.64-.36-2.1h3.41c-.36.46-.36.52-.36,2.1v17.42A2.47,2.47,0,0,0,362.2,384.4Z"/><path class="cls-3" d="M383.63,384.4h-4c.12-.38.18-.68-.31-1.38L374,375.25l-5.7,7.83a1.2,1.2,0,0,0-.21,1.32h-4a5.61,5.61,0,0,0,1.36-1.54l7.19-9.66-6-8.73c-.58-.79-.79-1.09-1.22-1.34h4.17a1.51,1.51,0,0,0,.28,1.31l4.51,6.55,4.87-6.52a1.28,1.28,0,0,0,.3-1.34H383a5.27,5.27,0,0,0-1.13,1.31L375.6,373l7,10.21A4.63,4.63,0,0,0,383.63,384.4Z"/><path class="cls-3" d="M405.59,384.4H393.47v-.16c.37-.41.37-.89.37-1.86V365.3c0-1,0-1.69-.34-2v-.15h2.9v.15c-.37.27-.37,1-.37,2v17.41h7.88a4,4,0,0,0,2.44-.58l0,.09Z"/><path class="cls-3" d="M412.84,383.17a7.79,7.79,0,0,0,1,.06,9.16,9.16,0,0,0,4.54-1.13l.06.09-.46,1.62a11,11,0,0,1-4.11.79,8.77,8.77,0,0,1-1-.05v-1.38Zm0-12.67a5.87,5.87,0,0,1,5.88,5.94h-5.88v-1.37h4a3.77,3.77,0,0,0-4-3.14Zm-4.27,5.94a5.16,5.16,0,0,0-.06,1c0,2.61,1.09,5.3,4.33,5.76v1.38c-3.57-.35-6.37-2.64-6.37-7.26a6.41,6.41,0,0,1,6.33-6.79h0v1.43h-.07a4.08,4.08,0,0,0-3.92,3.14h4v1.37Z"/><path class="cls-3" d="M428.52,384.4a3.15,3.15,0,0,1-.19-1.48v-.09h-.06a4.75,4.75,0,0,1-3.41,1.65V383c1.85-.12,3.47-1.23,3.47-3v-3.37h0c-.58.46-1.3.62-3.44.95v-1.45c3-.43,3.47-.82,3.47-1.82,0-2-1.67-2.62-3.47-2.68v-1.44h0c2.44,0,5.49.92,5.49,4.33v7.8a3,3,0,0,0,.55,1.89v.16Zm-3.66.08c-.22,0-.45,0-.7,0a4.29,4.29,0,0,1-4.59-4.44c0-1.83,1.09-3.36,4.32-3.78l1-.13v1.45l-.3.05c-2.26.36-3.17,1.19-3.17,2.59a2.86,2.86,0,0,0,3.14,2.77h.33v1.47Zm0-12.82h-.33a6.3,6.3,0,0,0-3.62,1l-.1,0V371a12.54,12.54,0,0,1,4.05-.74Z"/><path class="cls-3" d="M440.33,372.57l-.1,0a4.66,4.66,0,0,0-2.61-.8c-2,0-3.05.8-3.05,2,0,1.8,1.68,2.2,3.11,2.77,2.71,1.07,3.41,2.28,3.41,3.93,0,2.44-1.76,4.2-5.09,4.2a12.84,12.84,0,0,1-3.56-.42l-.42-2,.09,0a6.46,6.46,0,0,0,3.8,1.13c2.11,0,3.14-1.25,3.14-2.52,0-1.56-.76-2-2.92-2.87s-3.6-1.89-3.6-4,1.53-3.59,4.76-3.59a10.53,10.53,0,0,1,3,.48Z"/><path class="cls-3" d="M442.61,367.85V365.2h2.16v2.65Zm-.28,16.55v-.16a3,3,0,0,0,.37-1.8v-9.87c0-1-.06-1.15-.43-1.64v-.12l2.41-.22v11.85a3.22,3.22,0,0,0,.37,1.8v.16Z"/><path class="cls-3" d="M456.13,384.4v-.16a3.36,3.36,0,0,0,.34-1.8V375.5a3.47,3.47,0,0,0-3.79-3.57,3.73,3.73,0,0,0-3.92,4v6.55a3.37,3.37,0,0,0,.33,1.8v.16h-2.68v-.16a3.36,3.36,0,0,0,.34-1.8v-9.83c0-1,0-1.16-.37-1.65v-.12l2.38-.22v1.58h.06c.88-1.06,2.25-1.79,4.6-1.79a4.8,4.8,0,0,1,5,4.71v7.32a3.22,3.22,0,0,0,.37,1.8v.16Z"/><path class="cls-3" d="M472.3,372.57v11.85c0,3.26-2.29,5.48-5.73,5.48h-.21v-1.47h0c2.56,0,4-1.6,4-3.71V382h-.06a5.51,5.51,0,0,1-3.9,1.8v-1.59h.27a3.76,3.76,0,0,0,3.45-2.18,10.17,10.17,0,0,0,0-5.76,3.8,3.8,0,0,0-3.45-2.29h-.27v-1.56a5.45,5.45,0,0,1,3.9,1.82h.06V371a.25.25,0,0,1,.27-.28h2.29v.22A2,2,0,0,0,472.3,372.57Zm-5.94,17.33c-3.05-.08-5.61-1.75-5.79-4.84h1.86a3.69,3.69,0,0,0,3.93,3.37v1.47Zm0-6.12h-.15c-3.63,0-5.94-3-5.94-6.71s2.31-6.67,5.94-6.67h.15V372c-2.63.13-4.14,2.16-4.14,5.11,0,2.74,1.51,5,4.14,5.11Z"/><path class="cls-3" d="M533.21,384.4v-.17a3,3,0,0,0,.37-1.8v-7.32a3.14,3.14,0,0,0-3.38-3.23,3.09,3.09,0,0,0-3.38,3.26v7.29a3.64,3.64,0,0,0,.34,1.8v.17h-2.68v-.17a3,3,0,0,0,.37-1.8v-7.32a3,3,0,0,0-3.14-3.23,3.19,3.19,0,0,0-3.49,3.44v7.11a3.3,3.3,0,0,0,.36,1.8v.17h-2.7v-.17a3,3,0,0,0,.36-1.8v-9.82c0-1,0-1.16-.36-1.65v-.11l2.34-.22v1.42h0a4.81,4.81,0,0,1,4.05-1.7,4.2,4.2,0,0,1,3.81,1.92h.12a5.41,5.41,0,0,1,4.59-1.92,4.66,4.66,0,0,1,4.72,4.79v7.29a3.66,3.66,0,0,0,.33,1.8v.17Z"/><path class="cls-3" d="M548.25,377.54c0,2.94-1.57,5.36-4.27,5.5v1.58h.16c3.8,0,6.11-3.17,6.11-7.06,0-4.17-2.31-7.12-6.11-7.12H544V372C546.68,372.14,548.25,374.35,548.25,377.54ZM544,383h-.26a3.88,3.88,0,0,1-3.6-2.32,12.78,12.78,0,0,1,0-6.5,3.79,3.79,0,0,1,3.6-2.23H544v-1.55a5.59,5.59,0,0,0-4.07,1.74h-.06v-1.62l-2.34.21v.15c.36.46.36.64.36,1.61V390a2.78,2.78,0,0,1-.51,1.8v.12h2.31c.11,0,.18-.06.18-.22v-8.76h.06a5.54,5.54,0,0,0,4.07,1.73Z"/><path class="cls-3" d="M560,380c0,1.75-1.62,2.86-3.47,3v1.48a4.8,4.8,0,0,0,3.41-1.65H560v.08a3.33,3.33,0,0,0,.18,1.49h2.37v-.17a3,3,0,0,1-.54-1.88v-7.79c0-3.41-3-4.33-5.47-4.33h0v1.44c1.8.06,3.47.63,3.47,2.68,0,1-.47,1.38-3.47,1.81v1.46c2.14-.34,2.86-.5,3.44-1h0Zm-3.47,3h-.33a2.85,2.85,0,0,1-3.14-2.77c0-1.39.92-2.21,3.18-2.58l.29,0v-1.46l-1,.13c-3.23.42-4.31,1.95-4.31,3.77a4.28,4.28,0,0,0,4.58,4.45c.24,0,.48,0,.7,0V383Zm0-12.77v1.44h-.33a6.38,6.38,0,0,0-3.63,1l-.08,0V371A12.7,12.7,0,0,1,556.52,370.23Z"/><path class="cls-3" d="M573.71,384.4v-.17a3.24,3.24,0,0,0,.34-1.8V375.5a3.46,3.46,0,0,0-3.77-3.56,3.73,3.73,0,0,0-3.92,4v6.53a3.26,3.26,0,0,0,.33,1.8v.17H564v-.17a3.35,3.35,0,0,0,.33-1.8v-9.82c0-1,0-1.16-.36-1.65v-.11l2.38-.22v1.58h0c.89-1.06,2.25-1.79,4.6-1.79a4.81,4.81,0,0,1,5,4.72v7.29a3.12,3.12,0,0,0,.37,1.8v.17Z"/><path class="cls-3" d="M588.67,372.82,581,391.25a4.67,4.67,0,0,0-.44,1.71h-1.73l3.75-9.43-5.24-11.17c-.43-.88-.6-1.16-1.12-1.48v-.17h3.06v.17c-.17.36-.17.69.19,1.52l3.47,7.57a8.24,8.24,0,0,1,.58,1.52h.09a12.33,12.33,0,0,1,.52-1.41l2.76-7a3,3,0,0,0,.16-2.19v-.17h3.07v.17A3.81,3.81,0,0,0,588.67,372.82Z"/><path class="cls-3" d="M499.28,384a15.38,15.38,0,0,1-4.75.67c-8.74,0-12.34-6-12.34-11.18,0-5.6,4.39-10.6,11.7-10.6a19,19,0,0,1,5.12.76v2.05l-.09.06a8.11,8.11,0,0,0-4.79-1.28c-7.67,0-9.71,5.69-9.71,9.05s2,9.43,9.87,9.43a9.94,9.94,0,0,0,5.9-1.7l.07.09Z"/><path class="cls-3" d="M507.5,370.5a7.07,7.07,0,1,1,0,14.13v-1.49a5.6,5.6,0,0,0,0-11.15Zm0,14.13a7.07,7.07,0,1,1,0-14.13V372a5.6,5.6,0,0,0,0,11.15Z"/><path class="cls-3" d="M258.5,356.79c-.17.29-.35.66-.51.94l-.09.18-.18-.1-2.27-1.25-.16-.09.07-.16a12.58,12.58,0,0,1,1-1.72l.1-.17,2.16,1.33.53-.94.1-.17,2.15,1.21.28.14-.19.38-.89,1.52-.16-.07A16,16,0,0,1,258.5,356.79Z"/><path class="cls-3" d="M263.41,349.13c-.17-2-3-1.13-4.25-1.73l-.2-.1.12-.19a18.15,18.15,0,0,0,1.11-2.09l.06-.11h6.52v2.41h-1c-.33.66-.74,1.36-1.1,2a10.18,10.18,0,0,1-1.28,1.94c-1.24,1-5.46,2-7.1,2s-3.21-.39-4-1.85c-1.33-2.36.27-6.64,2.08-8.39l.11-.11.14.09.06,0h.21v.2c0,1.3-1.57,3.09-1.57,4.62a2.3,2.3,0,0,0,1.18,2.2c1.47.82,4,.61,5.64.31A8.36,8.36,0,0,0,263.41,349.13Z"/><path class="cls-3" d="M270.2,346.73c-.19.3-.44.59-.71.59h-3.94v-2.41H270l-1.45-11,2.16-2.63,0,.5c.08.91.16,1.83.23,2.74.09,1.26.17,2.51.26,3.78.07.62.11,1.26.15,1.9.06,1.55.21,3.13.36,4.68h.85v2.41h-2.35v-.21a1.86,1.86,0,0,0,0-.33Z"/><path class="cls-3" d="M277.56,344.91a4.54,4.54,0,0,0-.18-.83,11.5,11.5,0,0,0-.73-1.73,4.83,4.83,0,0,1-.47-1,9,9,0,0,1,1.19-2.18l.2-.31.15.34a12.14,12.14,0,0,1,1.45,4.49,8.26,8.26,0,0,1-.14,1l-.42,2.49,0,.17h-7v-2.41Zm-2.2,6.68c-.22.38-.46.75-.69,1.12l-.11.16-2.71-1.63,1.21-2.09,2.17,1.33c.21-.34.43-.67.65-1l.12-.16,2.61,1.63-.07.16a10.81,10.81,0,0,1-1,1.61l-.1.16-.17-.1C276.66,352.41,276,352,275.36,351.59Z"/><path class="cls-3" d="M288.29,347.3l-2.08-.13a2.44,2.44,0,0,1-2.07-1.25,2.83,2.83,0,0,1-.2-1.22,3.07,3.07,0,0,1,0-.68,7.33,7.33,0,0,1,.46-1.6,10.76,10.76,0,0,1,.9-1.67,3.34,3.34,0,0,1,1.3-1.2,1.07,1.07,0,0,1,.48-.13,1.19,1.19,0,0,1,.74.26c1.4,1,1.81,3.3,2,4.93,0,.26.3.29.52.3H294a.56.56,0,0,0,.37-.21,2.8,2.8,0,0,0,.44-1,3.36,3.36,0,0,1,.58-1.22,6.28,6.28,0,0,1,2.88-1.83,5.57,5.57,0,0,1,1.26-.33.64.64,0,0,1,.69.47v.05a7,7,0,0,0,.12,1.12,6.5,6.5,0,0,0,.56,1.66,6.57,6.57,0,0,0,.79,1.25h5.2c0-2.94-.3-2.58,2-4.86l.34-.33v1.45l-.55,3.61a.51.51,0,0,0,.35.13c1.54,0,3.16-.08,4.69,0l.08-.55a12.89,12.89,0,0,0-.16-1.51c-.1-.9-.22-1.8-.34-2.71s-.27-1.91-.4-2.87c-.06-.42-.11-1-.21-1.4-.14-.22-.35-.32-.48-.52a1.1,1.1,0,0,1,.05-1,15,15,0,0,1,1.29-2.27l.06-.09h.62l0,.16a1.61,1.61,0,0,1,0,.69s-.07.21-.07.23a10.49,10.49,0,0,0,1.8,1.05l.16.09-.07.17c-.37.82-.76,1.62-1.2,2.4l-.08.14.62,6.39a8.82,8.82,0,0,1-.92,4l-.06.08h-4.93a5.51,5.51,0,0,1-2-.15,2.82,2.82,0,0,1-.6-.88c-.23.31-.44.64-.65.94l-.06.09h-5c-.08.18-.17.36-.25.55s-.21.45-.32.67l-.09.18-5.3-2.8a.86.86,0,0,0-.34.37c-.1.24-.2.47-.31.71h0a.57.57,0,0,1-.45.3h-4.28c0,.17-.09.35-.14.52a10,10,0,0,1-2.86,4.87,5.07,5.07,0,0,1-1.27.7,2.38,2.38,0,0,1-1,.2,9.64,9.64,0,0,1-1.24-.29c-.66-.16-1.32-.32-2-.45a4.18,4.18,0,0,1-2.38-1.08l-.11-.11.09-.13c.1-.17.26-.38.48-.38a3.29,3.29,0,0,1,.61.12c.67.22,1.37.39,2.06.56h0a3.24,3.24,0,0,0,.45,0,3.7,3.7,0,0,0,1.19-.23,8.65,8.65,0,0,0,2.78-1.88,7.78,7.78,0,0,0,1.86-2.47ZM305.58,337l2.17,1.29.1-.16a13.86,13.86,0,0,0,1-1.74l.09-.17-2.75-1.52-.1.17c-.19.31-.39.64-.6.95l-2.07-1.16-.16-.1-.1.16a12.34,12.34,0,0,0-1,1.75l-.08.16,2.68,1.59.09-.2a6,6,0,0,1,.64-1Zm-6.15,7.85c-.09-.32-.17-.65-.26-1a1.74,1.74,0,0,0-.42-.82.57.57,0,0,0-.38-.11,3.33,3.33,0,0,0-.87.16,1.53,1.53,0,0,0-.93.63,17.18,17.18,0,0,0,1.6.91,2.87,2.87,0,0,0,.9.29.9.9,0,0,0,.36-.08Zm-11.22-.31a2.53,2.53,0,0,0-.79-1.84,1.13,1.13,0,0,0-.5-.33h0a.58.58,0,0,0-.19,0h-.25a5.09,5.09,0,0,0-.64.57c-.18.18-.55.59-.55.86s.34.33.45.37h0a4,4,0,0,0,1.35.43h.05a4.43,4.43,0,0,0,.52,0A1.47,1.47,0,0,0,288.21,344.52Z"/><path class="cls-3" d="M320.68,343.51a8.52,8.52,0,0,1-1.05,3.7l-.31.61L318,334.11c0-.93,1.12-2.73,1.61-3.5l.33-.54Z"/><path class="cls-3" d="M344.68,343.46l-.13-.63,0,0,0-.05a.2.2,0,0,1,0-.08,5.89,5.89,0,0,1,1.59-2.25l.23-.13.07.26a10.15,10.15,0,0,1,.14,1.34c.08.91.13,1.83.17,2.74a.71.71,0,0,0,0,.26,5.22,5.22,0,0,0,.69,0h4.31a7.34,7.34,0,0,0,.95-.06A15.33,15.33,0,0,0,355,344a12.37,12.37,0,0,0-3.7-1.89,1.43,1.43,0,0,0-1.3.35,1.61,1.61,0,0,1-.95.33h-.2v-.21a3.13,3.13,0,0,1,1.67-2.35,3.9,3.9,0,0,1,4.1.33c2.5,1.6,4.26,3.15,7.37,3.15h.29l-1,2.61-.18,0c-1-.27-4.41-.72-5.34-.39s-2.07.64-3.09,1l-1.07.46H345.5l-.05-.08a3.68,3.68,0,0,1-.34-.82c-.22.27-.43.55-.64.82l-.06.08h-5.79a2.84,2.84,0,0,1-1.39-.67,9.34,9.34,0,0,1-.82,2.42c-.71,1.45-2.66,4.22-4.5,4.22a20.55,20.55,0,0,1-5.26-2.09l-.12-.07.13-.62h.16a6.09,6.09,0,0,1,2.4.76c1.68.59,3.4-1.17,4.45-2.23.57-.59,2.22-2.3,2.24-3.2a29,29,0,0,0-2-2.91l-.07-.1,1.3-2.41.18.3c.74,1.2,1.63,2.37,2.48,3.49.22.27.61.7,1,.7h6.08c-.08-.49-.17-1-.25-1.45Zm12.28,7.6.06-.15-.14-.09a21.44,21.44,0,0,0-2.29-1.3l-.17-.09-.09.18c-.32.58-1,1.06-1,1.75v.12l2.46,1.48.11-.16a13.26,13.26,0,0,0,1-1.74Zm-12.95.3,2.25,1.27,1.13-2.06L344.77,349l-.1.21a11.11,11.11,0,0,1-.57,1.07l-2.39-1.47-.1.17c-.37.61-.75,1.21-1.1,1.84l-.09.17.17.1c.81.46,1.66,1,2.5,1.35l.16.06.09-.14C343.56,352,343.8,351.69,344,351.36Z"/><path class="cls-3" d="M366.94,326.94a.2.2,0,0,1-.06.13l-.13.23-.16-.23,0,0a2.13,2.13,0,0,0-.82-.32,2.1,2.1,0,0,0-1,.26c-.09.06-.31.22-.3.36s.35.22.46.24a25.76,25.76,0,0,0,3.4.34l.31,0-.14.27a4.72,4.72,0,0,1-.62.91l-.06.07h-.1c-1.19-.06-2.92.86-3.92,1.43l-.29.18v-.35a1.27,1.27,0,0,1,0-.28c.07-.37.72-.8,1.21-1.1a9.75,9.75,0,0,1-1.25-.46h0c-.89-.62.94-3.74,3.45-3a1.1,1.1,0,0,1,.34.26l.05.06V326a2.23,2.23,0,0,1-.3,1Zm22,9.93.08-.14q.65-1.17,1.2-2.4l.07-.17-.16-.09a9.62,9.62,0,0,1-1.8-1.07s.07-.2.08-.23a1.21,1.21,0,0,0,0-.68l0-.15h-.61l-.06.09a15.42,15.42,0,0,0-1.29,2.27,1.08,1.08,0,0,0-.06,1c.14.2.35.31.49.53.1.4.15,1,.21,1.4.14,1,.27,1.91.4,2.87s.24,1.81.35,2.71a12.87,12.87,0,0,1,.15,1.51l-.08.59h-4.79c-.42-4.36-.61-8.74-1-13.1l0-.5-2.15,2.63,1.45,11h-3.67c-.08,0-.73,0-.82-.1l.56-3.64v-1.45l-.34.33c-2.32,2.27-2,1.92-2,4.86h-4.41c-.68,0-2.21.06-2.35-.84-.33-2-.5-4.09-.68-6.12-.14-1.56-.26-3.14-.39-4.71-.07-1-.13-2-.27-3l-.06-.44-.29.34a16.07,16.07,0,0,0-1.45,1.84c-.22.31,1,13.46,1.1,15.11v.19h8.07l.05-.09.65-.94c.24.47.52,1,1.07,1h4.73c.28,0,.53-.29.71-.59l.05.59h7l.06-.08a9.12,9.12,0,0,0,.92-4l-.61-6.39Zm-15.16.11a6.76,6.76,0,0,0-.63,1l-.1.19-2.68-1.59.08-.16a13.43,13.43,0,0,1,1-1.75l.11-.16.16.1,2.07,1.16c.21-.31.4-.64.6-.95l.1-.17,2.75,1.52-.09.18a17,17,0,0,1-1,1.73l-.11.16Z"/><path class="cls-3" d="M399.84,334.33c-.19.25-.55.86-.64,1l-.1.17L396.33,334l1.15-2,.17.11c.67.41,1.37.78,2.06,1.15.23-.36.46-.72.68-1.09l.11-.17,2.72,1.74-1.15,1.8-.16-.06c-.66-.3-1.42-.76-2.07-1.14Zm1.68,4.5a6.94,6.94,0,0,1-1.11.38,7.2,7.2,0,0,0-1.56.67,5.61,5.61,0,0,0-2.44,4.19l0,.13.09.07a7,7,0,0,0,2,.9,14.43,14.43,0,0,0,2.54.61c.73,0,.76-1.11,1.33-1.52.2.59.09,1.39.33,1.93.69,1.48,1.89,1.13,3.24,1.13h6.24l0-.17c.15-.83.29-1.65.42-2.49a6.64,6.64,0,0,0,.15-1,12.12,12.12,0,0,0-1.44-4.49l-.16-.34-.2.31a9,9,0,0,0-1.19,2.18,4.83,4.83,0,0,0,.47,1,9.66,9.66,0,0,1,.73,1.72,5.7,5.7,0,0,1,.19.84H406c-.42,0-1.69.07-1.72-.55-.33-2.82-.66-5.63-1-8.45l0-.45-.3.34c-.92,1-1.72,1.62-1.4,3ZM409,351.59c-.23.38-.46.75-.7,1.12l-.1.16-2.72-1.63,1.22-2.09,2.17,1.33c.21-.34.44-.68.66-1l.11-.16,2.6,1.63-.06.15a9.41,9.41,0,0,1-.95,1.62l-.1.16-.16-.1c-.66-.36-1.33-.78-2-1.18Zm-7.22-11.3.46,2.85h-.81a6,6,0,0,1-3-.93,5.77,5.77,0,0,1,1.21-.51C400.88,341.31,401.23,341.15,401.78,340.29Z"/><path class="cls-3" d="M418.79,339.57l.39-2.64.26.16a7.78,7.78,0,0,1,3.55,5.06,6.52,6.52,0,0,1,.18,1.59,3.88,3.88,0,0,1,0,.76,19.37,19.37,0,0,1-.42,2l0,.08-.08,0c-1.22.7-3.54.76-4.92.76h-3l.65-2.4.57-.32h0a6.37,6.37,0,0,1,1.07,0h.69a31.32,31.32,0,0,0,4-.37.41.41,0,0,0,.05-.19,2,2,0,0,0-.16-.73,7,7,0,0,0-1.49-2.27c-.25-.23-.5-.44-.76-.66S418.71,339.88,418.79,339.57Z"/><path class="cls-3" d="M456.61,343v-.19h.09c.33-.49,1.46-1.71,1.62-1.89l.35-.39v.52a28.48,28.48,0,0,1-.1,3.81h4.55a.53.53,0,0,1,0-.12,11.58,11.58,0,0,0-.15-2.42l-.9-6.55c-.13-.21-.33-.31-.47-.51a1,1,0,0,1,0-1A15.52,15.52,0,0,1,463,332l.06-.09h.63l0,.17a1.52,1.52,0,0,1,0,.67c0,.05-.06.22-.06.26a12.32,12.32,0,0,0,1.79,1l.17.09-.08.17c-.36.82-.76,1.62-1.19,2.4l-.08.14.61,6.39a8.57,8.57,0,0,1-.92,4l-.05.08h-.11l-4.69,0a33.81,33.81,0,0,1-4.79-.17,3.17,3.17,0,0,1-.66-.34s-.18-.13-.23-.13-.24.14-.29.18c-.86.69-2.65.44-3.7.44h-2.26l-.06-.08-.35-.51c-.26.25-.65.59-.92.59h-3c-1.49,0-2.72.18-3.71-1.09a9,9,0,0,1-3.75,1.09h-3.2c-.46,2.41-2.55,6.29-5.3,6.29h0l-3.2-.74a4.21,4.21,0,0,1-2.38-1.08l-.1-.11.08-.13a.89.89,0,0,1,.34-.3c.48-.2,1.35.23,1.83.38a3.89,3.89,0,0,0,2.65,0,9.71,9.71,0,0,0,4.63-4.35c-2-.08-4.34.08-4.34-2.6a6.76,6.76,0,0,1,.61-2.54c.44-1,1.9-3.55,3.31-2.48s1.8,3.3,2,4.92c0,.4.75.31,1,.31,1.59,0,3.16.21,4.66-.43-.75-1.38-2.16.12-2.16-1.25a11.16,11.16,0,0,1,1.76-3.18,1.65,1.65,0,0,1,.67-.31,3.08,3.08,0,0,1,2.15.54c.48.29,1.83,1.35,1.83,2a4,4,0,0,1-1.36,2.46,1.48,1.48,0,0,0,.86.21h4.57c.79,0,.44-1.63.58-2l0,0,0,0q.92-1,1.89-1.95l.38-.37,0,.53a8.94,8.94,0,0,1-.77,3.71,2.81,2.81,0,0,0,.86.15v0H453c.09-.32-.06-1.27,0-1.59.2-.58,1.55-1.59,2-1.95l.46-.34-.14.55c-.19.8-.43,1.59-.63,2.39,0,.14-.18.67-.07.8s.86.14,1,.14H457a9.21,9.21,0,0,0-.22-1.35l-.32.53.19-1Zm-26,1.49c0-.95-.65-2.33-1.75-2.2-.33.18-1.21,1.06-1.21,1.43S429.93,344.87,430.57,344.53Z"/><path class="cls-3" d="M470.59,343.51a8.64,8.64,0,0,1-1,3.7l-.31.61-1.37-13.71c0-.94,1.12-2.73,1.61-3.5l.34-.53Z"/><path class="cls-3" d="M490.59,344.84l.27.07H494a3.09,3.09,0,0,0,0-.5,5.67,5.67,0,0,1,0-1.09c.2-.58,1.55-1.59,2-1.95l.46-.34-.91,3.67c.07.17,1,.2,1.1.21H498a6.53,6.53,0,0,0-.16-1c0-.17-.08-.42-.13-.62h-.06v-.09l-.05,0,.06-.16a22.5,22.5,0,0,1,1.72-2l.35-.38v3.59a4.76,4.76,0,0,1-.1.74h.76v2.41H497a6.45,6.45,0,0,1-1.7-.15c-.2-.08-.4-.2-.58-.29a3,3,0,0,0-.36-.19,1.55,1.55,0,0,0-.24.19,1.82,1.82,0,0,1-.45.29,3.45,3.45,0,0,1-.83.15h-1.65l-.57.09a3.7,3.7,0,0,0-.11.49,5.77,5.77,0,0,1-3.37,4.27,11,11,0,0,1-4.63.94,5.4,5.4,0,0,1-3.22-.91,3.71,3.71,0,0,1-1.45-3.17,9.87,9.87,0,0,1,.62-3.08,8,8,0,0,1,1.5-2.75l.06-.06h.57v.79h-.08c-.2.39-.41.92-.57,1.32a6.41,6.41,0,0,0-.63,2.26,2.72,2.72,0,0,0,1.24,2.44,4.57,4.57,0,0,0,2.5.66,11.37,11.37,0,0,0,3.36-.65c.88-.29,2.51-.92,2.51-2.08a8.89,8.89,0,0,0-1.58-4l0-.09,1.18-2.64.21.23a9.1,9.1,0,0,1,1.08,2A4.7,4.7,0,0,0,490.59,344.84Z"/><path class="cls-3" d="M502.05,337.05c1.95,1.52,6.58,5,6.58,7.27a5.13,5.13,0,0,1-.87,2.92l-.06.08h-8.49v-2.41h7.87c-.76-1.66-2.78-3-4.22-4.07-.35.54-.56.63-1.13.14-1-.83-1.87-1.54-1.53-2.94a24.56,24.56,0,0,1,.95-2.65v0l0,0a27.17,27.17,0,0,1,3.58-1.8c.32-.14,3.56-1.6,3.71-1.59h1.78l-.09.27q-.33.85-.63,1.71l0,.09-.1,0C506.93,335,504.47,336,502.05,337.05Z"/><path class="cls-3" d="M516.83,339.05a6.56,6.56,0,0,1,2,1.95,5.2,5.2,0,0,1,.92,2.36,11,11,0,0,1,.11,1.41,6.23,6.23,0,0,1-.4,2.39,8.07,8.07,0,0,1-3.6,4.54,3,3,0,0,1-1.2.3,5.13,5.13,0,0,1-1.29-.22c-.61-.2-1.24-.42-1.86-.6a6.53,6.53,0,0,1-2.06-1.19l-.07-.06v-.47l0,0a.44.44,0,0,1,.38-.19,8.63,8.63,0,0,1,1.1.4,15.05,15.05,0,0,0,1.42.51,2.24,2.24,0,0,0,.52.06,4.71,4.71,0,0,0,2.16-.86,11.2,11.2,0,0,0,1.93-1.71,7.37,7.37,0,0,0,1.38-1.92,3.83,3.83,0,0,0,.3-1,1.85,1.85,0,0,0,0-.24l0,0v0a3.42,3.42,0,0,0-1-1.39c-.12-.11-.31-.24-.44-.34L516,341.8l-.1-.08,0-.13c.15-.81.36-1.61.56-2.41l.06-.27Z"/><path class="cls-3" d="M522.65,353a19.93,19.93,0,0,1-4.11-1.31l-.11-.08,0-.13a.58.58,0,0,1,.2-.31c.55-.45,2.16.33,3,.33,1.19,0,3.11-1.36,4-2.12s2.32-2.33,2.32-3.69c0-.1,0-.32,0-.5a2.67,2.67,0,0,1-2.86,1.48,2.72,2.72,0,0,1-1.71-2.81c0-1.17,2-4.75,3.32-4.75,1.11,0,2.12,2.43,2.34,3.34a9.54,9.54,0,0,1,.26,1.92h0l-.46,3.28h0c-.51,2.06-2.55,5.35-5,5.35h-1.17v0Zm4.59-9.2c-.12-.6-.61-1.84-1.25-1.84a2.73,2.73,0,0,0-.87.57c-.57.55-.68,1,.14,1.38A2.1,2.1,0,0,0,527.24,343.76Z"/><path class="cls-3" d="M533.06,326.48a3.45,3.45,0,0,0-1.08-.4,2,2,0,0,0-1,.25c-.1.06-.33.23-.31.36s.35.22.46.24a27.74,27.74,0,0,0,3.41.35l.3,0-.14.26a4.79,4.79,0,0,1-.62.92l-.06.07h-.1A8.77,8.77,0,0,0,530,330l-.31.17v-.35a.92.92,0,0,1,0-.28c.07-.36.72-.79,1.21-1.09a8.19,8.19,0,0,1-1.26-.47h0c-1.23-.86,2.13-4.46,3.78-2.79l.06.06v.07a2.35,2.35,0,0,1-.33,1.07Z"/><path class="cls-3" d="M545.39,334.33c-.2.26-.55.86-.64,1l-.1.17-.17-.09-1.22-.65-1.2-.65-.18-.1,1.14-2,.18.11c.67.41,1.36.78,2,1.15.22-.36.46-.72.69-1.09l.11-.17,2.71,1.74-1.14,1.8-.16-.06A23.36,23.36,0,0,1,545.39,334.33Z"/><path class="cls-3" d="M553.58,337.05c2,1.53,6.59,5.05,6.59,7.27a5,5,0,0,1-.88,2.92l-.06.08h-9.51a1.53,1.53,0,0,1-.58-.16,1.93,1.93,0,0,1-.86-1,7,7,0,0,1-.26-1.6,2,2,0,0,0-.08-.33,1.83,1.83,0,0,0-.38.47l-.39.75a.68.68,0,0,1-.56.3,18.59,18.59,0,0,1-2.45-.6,5.42,5.42,0,0,1-1-.29,3.93,3.93,0,0,1-1.16-.62l-.1-.07,0-.13a6.38,6.38,0,0,1,2-3.91,4.43,4.43,0,0,1,1.62-.82,13.55,13.55,0,0,0,1.47-.51,5.73,5.73,0,0,1,0-1.09v-.06a9.89,9.89,0,0,1,1.44-1.88l.3-.34.05.45c.31,2.82.64,5.63,1,8.45h0a.23.23,0,0,0,.06.18,1.48,1.48,0,0,0,1.13.35h7.63c-.78-1.67-2.76-3-4.22-4.07-.35.54-.55.63-1.12.13-1-.84-1.89-1.51-1.54-2.93a26.91,26.91,0,0,1,1-2.65v0l0,0a25.31,25.31,0,0,1,3.57-1.8c.32-.14,3.56-1.6,3.71-1.59h1.79l-.09.27c-.22.57-.43,1.14-.64,1.71l0,.09-.09,0c-2.48.92-4.94,2-7.37,3Zm-5.8,6.05-.47-2.84c-1,1.32-2,1.09-3.29,1.94a6.12,6.12,0,0,0,1.73.59c.52.11,1,.19,1.56.26Z"/><path class="cls-3" d="M581.73,347.32h-3.42l-.06-.08-.35-.51c-.26.25-.65.59-.92.59h-4a2.16,2.16,0,0,1-.77-.35l-.41-.27a10.06,10.06,0,0,1-1.79,3.74c-.74,1.08-2.1,2.8-3.56,2.8a11.14,11.14,0,0,1-3-.91,19.15,19.15,0,0,1-2.3-1.06l-.1-.06v-.63h.18l0,0a.6.6,0,0,1,.29-.08c.13,0,1.09.41,1.24.46a5.52,5.52,0,0,0,1.64.43c1.28,0,2.86-1.46,3.71-2.31.6-.6,2.29-2.35,2.29-3.27a7.69,7.69,0,0,0-1-1.45,11.53,11.53,0,0,0-1.11-1.3l-.13-.1,1.4-2.49.18.27c.57.82,1.13,1.65,1.68,2.48a4.65,4.65,0,0,0,2.07,1.71h3.75c.44,0,.52-.49.54-.84s0-.72,0-1.07v-.08l.06-.06c.61-.67,1.25-1.32,1.9-1.95l.38-.37,0,.53c-.05.6-.11,1.2-.18,1.79a4.58,4.58,0,0,1-.6,1.93,1.55,1.55,0,0,0,.59.12H584c0-.44,0-.89.07-1.33h0c.13-.61,1.56-1.86,2-2.25l.46-.4-.84,3.94.51,0,.53,0H588a9.67,9.67,0,0,0-.44-1.7v-.06c0-.28.69-1,.87-1.22s.58-.65.89-1l.34-.34v4a5.18,5.18,0,0,1-.82,2.61l-.06.1h-.12c-.32,0-.66,0-1,.06a7.41,7.41,0,0,1-.8.07,5.89,5.89,0,0,1-2.57-.65c-.1.05-.25.16-.33.2a1.6,1.6,0,0,1-.57.28ZM583.66,337a7.76,7.76,0,0,0,.56-1l.08-.18.18.08a24.6,24.6,0,0,1,2.23,1.27l.16.09-1,2.11-.19-.1c-.67-.36-1.34-.78-2-1.17-.23.31-.45.66-.65,1l-.1.16-2.77-1.54.11-.17c.32-.55.61-1.14.89-1.72l.09-.18.19.09c.77.41,1.54.85,2.28,1.31Zm.9-3.21-2.68-1.42-1.14,2,2.68,1.51Z"/><path class="cls-3" d="M533.92,343.51a8.64,8.64,0,0,1-1,3.7l-.31.61-1.37-13.71c0-.94,1.12-2.73,1.61-3.5l.34-.53Z"/></svg>