<svg id="Layer_1" data-name="Layer 1" xmlns="http://www.w3.org/2000/svg" xmlns:xlink="http://www.w3.org/1999/xlink" viewBox="0 0 16273.52 3007.33"><defs><style>.cls-1{fill:url(#Neues_Verlaufsfeld_5);}.cls-2{fill:url(#Neues_Verlaufsfeld_5-2);}.cls-3{fill:url(#Neues_Verlaufsfeld_5-3);}.cls-4{fill:#1f427c;}.cls-5{fill:#1280bc;}.cls-6{fill:none;}</style><linearGradient id="Neues_Verlaufsfeld_5" x1="11304.35" y1="2569.38" x2="13862.39" y2="570.81" gradientTransform="matrix(-1, 0, 0, 1, 15831.54, 0)" gradientUnits="userSpaceOnUse"><stop offset="0" stop-color="#81b5d5"/><stop offset="0.36" stop-color="#1280bc"/><stop offset="1" stop-color="#1f427c"/></linearGradient><linearGradient id="Neues_Verlaufsfeld_5-2" x1="2221.23" y1="130.79" x2="387.98" y2="2654.05" gradientTransform="translate(6.86)" xlink:href="#Neues_Verlaufsfeld_5"/><linearGradient id="Neues_Verlaufsfeld_5-3" x1="11304.3" y1="2575.02" x2="13862.44" y2="576.38" xlink:href="#Neues_Verlaufsfeld_5"/></defs><polygon class="cls-1" points="3393.78 2342.29 4704.61 2342.29 2527.56 348.64 2142.72 348.64 3393.78 2342.29"/><polygon class="cls-2" points="1276.93 2342.29 -34.26 2342.29 2142.72 348.37 2527.56 348.37 1276.93 2342.29"/><polygon class="cls-3" points="3393.78 2347.99 4704.61 2347.99 2527.56 354.16 2142.72 354.16 3393.78 2347.99"/><path class="cls-4" d="M5121,1560.59l261.88.93c43.5,0,177.16,1.27,272.62,70.91,99.24,73.64,134.22,198.31,134.22,310.9,0,243.21-130.15,370-280.09,397.48-29.43,5.35-62.16,8.51-142.23,8.51H5121Zm172.17,658.74c18.61,1,47,2,66.49,2,72.53,0,134.85-5.45,183.88-54.59,66.95-66.69,71.46-185.06,71.46-223.45,0-111.45-38.57-214.36-144.42-244-35.28-9.72-80.42-15.3-177.41-10.69Z"/><path class="cls-4" d="M6019.92,2114.3c0,36.1,0,147.8,112.24,147.8,40.94,0,81.3-15.58,96.47-76.47h147.88c-2,26.33-7.46,73.18-52.27,120.25-40.83,42.67-112.62,64.41-194.08,64.41-47,0-136.79-8.64-194.45-68.93-50.74-52.34-71.46-127.18-71.46-215.68,0-89.86,22.12-196.94,115.12-261.45,42.29-28.4,95-46,155.19-46,78.9,0,173,30.66,223.34,133.56,37.09,75.36,35.23,156.37,32.56,202.49Zm205.47-101.94c0-25.19-2.16-123.62-96.08-123.62-71.15,0-100.83,59.17-104.32,123.62Z"/><path class="cls-4" d="M6634.93,1796.74v329.53c0,47.91,0,121.48,86.4,121.48,104,0,104-78,104-171.73V1796.74h166.27v364.71c2.31,119.19,3.33,133.4,3.33,147.55,1.27,15.43,2.21,25,4.22,40.32h-157.4l-5.45-73.36c-16.67,24.34-58.17,87.52-163.13,87.52-74.28,0-135.72-33.7-165.91-74.08-36.4-45-36.4-121.6-36.4-148.67v-344Z"/><path class="cls-4" d="M7448.12,2342c-52.52,14-99.59,16.94-126.05,16.94-162.8,0-162.8-102.13-162.8-148.47v-303H7053V1800.26h106.28V1691.5L7320,1632.43v167.83h131.39v107.12H7320v249.28c1.09,50.5,1.09,82.43,73.5,82.43,24.06,0,34.93-1.12,54.66-3.41Z"/><path class="cls-4" d="M7639.58,2189.51c2.21,35.27,24.44,75.8,91.78,75.8,58.19,0,85.67-32.88,85.67-65.68,0-25.45-13.38-45.05-76.66-62.52l-100.79-27.34c-44.73-13.09-139.89-40.48-139.89-153.46,0-106.93,98.47-172.55,241.87-172.55,113.57,0,205.6,52.34,209.92,163H7803.65c-4.15-61.41-53.4-65.47-78.66-65.47-44,0-76.65,20.47-76.65,54.47,0,37.07,27.16,44.9,75.25,58.09l99.87,27.35c100.43,27.49,148.11,78.91,148.11,154.46,0,95.22-82.43,190.22-254.5,190.22-71,0-138.64-15.11-189-67.45-36.28-38.49-39.49-82.49-40.68-108.9Z"/><path class="cls-4" d="M8344.44,1992.81c-2.38-20-8.64-101.93-71-101.93-76.87,0-85.34,116.09-85.34,176.12,0,30.7,3.22,129.13,40.43,169.95,15.43,16.29,31.62,18.54,43.79,18.54,17.52,0,67.78-7.74,74.38-106.57h159.63c-1.94,43-7.74,109.89-71.23,163.34-39.35,33.9-88.4,51.22-157.43,51.22-73.26,0-138-16.2-188.39-73.17-47.9-55.65-70-128.86-70-217.51,0-251.78,185.16-286.75,258.42-286.75,102.79,0,224.64,56.86,225.14,206.76Z"/><path class="cls-4" d="M8560.18,1559.12h161v313.33c18.89-26,58.9-83.34,159.6-83.34,82.24,0,134.48,40.57,161.31,74.64,19.56,27.13,36,77.35,36,149.69v335.88H8917V2019.14c0-32,0-120.52-90.67-120.52-46.23,0-104.13,26.44-104.13,112.62l1,338.08H8560.18Z"/><path class="cls-4" d="M9333.27,2114.3c0,36.1,0,147.8,112.38,147.8,40.72,0,81.1-15.58,96.58-76.47h147.65c-2.39,26.33-7.53,73.18-52.9,120.25-40.18,42.67-112.43,64.41-193.47,64.41-46.81,0-136.77-8.64-194.34-68.93-50.53-52.34-71.34-127.18-71.34-215.68,0-89.86,21.64-196.94,115.06-261.45,42.31-28.4,94.86-46,154.93-46,78.93,0,173.12,30.66,223.42,133.56,37.28,75.36,35,156.37,32.85,202.49Zm205.65-101.94c0-25.19-2.24-123.62-96.49-123.62-71.28,0-100.67,59.17-103.92,123.62Z"/><path class="cls-4" d="M10610.27,1801.07c-.86-20.83-2-49.23-22-79.47-32.73-52.68-95.1-61.39-132.37-61.39-192.42,0-230.85,179.29-230.85,300.89,0,53.66,7.64,150,65.52,212.15,39.61,44.06,92.27,67.94,186.35,67.94,81.66,0,110.58-10,129.22-15.48v-166.2h-153.56V1928h322.82v395.1c-49.36,16.44-130.15,44.09-288.7,44.09-180.86,0-273.36-44.09-336-105.09-88.94-86.46-105-212.37-105-295.67,0-280,174.86-430.17,414.87-430.17,101.58,0,206.81,28.39,269.19,99.77,52.65,59.77,55.4,122.76,56.86,165Z"/><path class="cls-4" d="M11063.62,1796.74v329.53c0,47.91,0,121.48,86.24,121.48,103.88,0,103.88-78,103.88-171.73V1796.74H11420v364.71c2.58,119.19,3.51,133.4,3.51,147.55,1.07,15.43,2.29,25,4.23,40.32h-157.58l-5.36-73.36c-16.25,24.34-58,87.52-163,87.52-74.75,0-135.85-33.7-166.44-74.08-36.16-45-36.16-121.6-36.16-148.67v-344Z"/><path class="cls-4" d="M11551.27,1558.1h162.48v791.22h-162.48Z"/><path class="cls-4" d="M11844.92,1911.81H11763V1796.74h81.94V1721.6c0-97.64,33-176.35,190.2-176.35,11.45,0,41.86,0,88.15,5.47V1663.4c-17-2.12-21-3.19-34.22-3.19-82.95,0-82.95,43.41-82.95,71.9v64.63h102.59v115.07H12006.1v437.51h-161.18Z"/><path class="cls-4" d="M12466.47,1559.12h510.44v127.32h-340.38v194.83h317.06v131.09h-317.06v337h-170.06Z"/><path class="cls-4" d="M13043.45,1559.12h172.95v141.36h-172.95Zm5.34,236.71h162v553.49h-162Z"/><path class="cls-4" d="M13333.42,1895.31c0-2,0-62.16-3.28-100.55h155.05l4.67,83c15.54-25.11,59.27-96.12,179.38-96.12,108.55,0,154.59,65.68,168.74,103.65,12,34.12,15.67,62.58,15.67,165.33v298.66H13688V2005.91c0-23.22,0-42.42-8.67-60.14-12.07-24.3-37.1-47.15-78.81-47.15-34.93,0-66.6,16.5-84.22,42.48-9.76,14.46-19.91,41.59-19.91,84.35v323.87h-163Z"/><path class="cls-4" d="M14309.71,2349.32c-5-33.75-5-59-5-75.25-61.41,88.5-134.89,88.5-165.58,88.5-79.79,0-116.19-23-137.89-43.69-33-33.1-48.25-77.69-48.25-121.48,0-43.5,15.27-124.6,117.21-172,68-30.35,165-30.35,218.81-30.35,0-36.14-.81-54-7.62-73.63-14.31-40.2-56.88-45.71-71.84-45.71-23.13,0-47.26,9.57-61.56,30.19-12.27,19.11-12.27,36.36-12.27,49.61h-158.81c1-29.6,4.64-88.87,62.52-130.4,50.52-36.05,114.81-44.92,168-44.92,45.42,0,141.85,7.8,196.59,71.34,37.41,44.8,38.13,110.43,38.13,135.59l1,222.25c0,47.34,3.41,94.17,13.19,139.9Zm-199.08-170.52c0,37.12,25.05,78.71,78.72,78.71a90.36,90.36,0,0,0,69-31.8c28.36-34.93,30.59-77.39,30.59-136.87C14184.92,2080.19,14110.63,2112.87,14110.63,2178.8Z"/><path class="cls-4" d="M14567.13,1895.31c0-2,0-62.16-3.31-100.55h155.39l4.43,83c15.13-25.11,59.27-96.12,179.17-96.12,108.65,0,154.52,65.68,168.94,103.65,11.86,34.12,14.92,62.58,14.92,165.33v298.66H14921.6V2005.91c0-23.22,0-42.42-8.51-60.14-12.3-24.3-37.36-47.15-78.7-47.15-35.29,0-67.06,16.5-84.58,42.48-9.88,14.46-19.76,41.59-19.76,84.35v323.87h-162.92Z"/><path class="cls-4" d="M15503.91,1992.81c-2.38-20-8.64-101.93-71.07-101.93-76.79,0-85.24,116.09-85.24,176.12,0,30.7,3.68,129.13,40.19,169.95,15.21,16.29,31.86,18.54,43.94,18.54,17.6,0,67.91-7.74,74-106.57h160.19c-1.83,43-8,109.89-71.13,163.34-39.11,33.9-89.06,51.22-157.74,51.22-73.42,0-137.92-16.2-188.28-73.17-48.11-55.65-69.85-128.86-69.85-217.51,0-251.78,184.71-286.75,258.13-286.75,103.27,0,224.44,56.86,225.34,206.76Z"/><path class="cls-4" d="M15867.24,2114.3c0,36.1,0,147.8,113,147.8,39.92,0,80.79-15.58,96-76.47h148.11c-2.51,26.33-7.65,73.18-52.9,120.25-40.65,42.67-112.37,64.41-193.84,64.41-46.89,0-136.77-8.64-194.75-68.93-50.19-52.34-71.34-127.18-71.34-215.68,0-89.86,22.2-196.94,115-261.45,43.17-28.4,95.62-46,155.75-46,78.75,0,172.8,30.66,223.11,133.56,37.51,75.36,34.91,156.37,32.89,202.49Zm206-101.94c0-25.19-2.29-123.62-96.27-123.62-71.19,0-100.55,59.17-104.33,123.62Z"/><rect class="cls-5" x="5785.12" y="1312.72" width="98.1" height="127.54"/><rect class="cls-5" x="5938.2" y="1312.72" width="96.81" height="127.54"/><path class="cls-6" d="M7002,882.56c-57.41,0-105.06,34.17-113.89,98,0,8.36-2.55,13.34-2.55,18.23a158.35,158.35,0,0,0-.92,19.81c0,92,46.42,130.88,111.38,130.88h6c84.91,0,116.42-37.94,116.42-130.88S7072,882.56,7002,882.56Z"/><path class="cls-6" d="M6300.82,944c0,91.66,51.73,126.82,110.74,126.82H6475V821.29c-19.73-6.37-32.81-8.76-57.43-8.76C6361,812.53,6300.82,850.71,6300.82,944Z"/><path class="cls-5" d="M5951.7,929.07c0,94.42-35.51,141.75-132.53,141.75h-17c-39.13,0-86-8.19-129.94-32.72V388.69l-110.22,15.63v808c-49.13,8.57-108,12-170.44,12-116.22,0-165.53-55.07-165.53-173.95v-371l-108.86,31.45v347c0,181.21,85.65,270.74,268.23,270.74,87,0,210.81-9.57,286.82-29.48V1155.65c45.42,14.83,89.44,22.12,135,22.12h34.29v-.23c150.14-3.82,220.56-81.64,220.56-228.94V626.31L5951.7,643.44Z"/><rect class="cls-5" x="7348.73" y="386.16" width="98.29" height="128.49"/><rect class="cls-5" x="7502.16" y="386.16" width="98.11" height="128.49"/><path class="cls-5" d="M8231.17,404.32V929.07c0,94.42-35.49,141.75-131.9,141.75H8082c-38.17,0-80.93-5.81-123.93-29.08a378.37,378.37,0,0,0,12.06-93.14V388.69l-110.17,15.63V929.07c0,94.42-31.85,141.75-128.67,141.75h-20.82c-37.88,0-80.76-5.81-123.7-29.08,6-24.32,12.35-57.6,12.35-93.14V626.31l-110.35,17.13V929.07c0,94.42-32.14,141.75-128.73,141.75h-20.87c-34.52,0-70.92-3-109.08-21.51v-34.68c0-134.79-70.78-236.49-228-236.49-117.36,0-210.76,62.54-226.52,195-6.08,67.38-45.78,97.65-130.13,97.65h-60.12V736.59c-69.77-19.73-107.55-28-170.36-28-116.18,0-222.9,74.65-222.9,236.45,0,158.17,95.39,232.76,215.52,232.76h63.75c-14.38,78.53-62.27,128.81-159.08,128.81-13.47,0-32.36-3.87-47.1-3.87l19,108H6317c173.09,0,258.52-71.1,266.74-233h85c60.48-1.2,102.56-8.84,134.92-31.62,9.78,14.38,23.31,33,33.9,44.07,40.89,44.09,107.1,66.08,164.51,66.08,97.89,0,164.31-30.77,199.84-103,47.74,16,94.55,24.52,141,24.52h34.16l-.1-.23c60.92-1.25,113.69-16,152.26-45,62.5,34.3,126.15,45.24,186.38,45.24h34v-.23c60.41-1.7,112.7-16.27,151-45,62.53,34.3,126.07,45.24,186.07,45.24h34.44v-.23c150.15-3.82,220.57-81.64,220.57-228.94V388.69ZM6475,1070.82h-63.39c-59,0-110.74-35.16-110.74-126.82,0-93.29,60.21-131.47,116.7-131.47,24.62,0,37.7,2.39,57.43,8.76ZM7002,1149.49h-6c-65,0-111.38-38.85-111.38-130.88a158.35,158.35,0,0,1,.92-19.81c0-4.89,2.55-9.87,2.55-18.23,8.83-63.84,56.48-98,113.89-98,70,0,116.42,43,116.42,136.05S7086.93,1149.49,7002,1149.49Z"/><rect class="cls-5" x="9457.14" y="1312.72" width="97.82" height="127.54"/><rect class="cls-5" x="9610.35" y="1312.72" width="97.95" height="127.54"/><rect class="cls-5" x="13814.2" y="1312.72" width="98.01" height="127.54"/><rect class="cls-5" x="13967.29" y="1312.72" width="96.59" height="127.54"/><path class="cls-6" d="M14327.68,944c0,91.66,50,126.82,108.75,126.82,24.59,0,44.15-4.48,65-10.82V821.29c-19.35-5.17-34.1-8.76-58.95-8.76C14385,812.53,14327.68,850.71,14327.68,944Z"/><path class="cls-6" d="M12056.36,748.6c-59.67,0-106.31,30.89-106.31,126.78,0,90.32,41.24,115,99.08,115,24.54,0,50.36-3.76,77.08-9.83V753.8c-19.54-5.2-32.83-5.2-51.27-5.2Z"/><rect class="cls-5" x="12990.35" y="384.87" width="97.91" height="128.76"/><rect class="cls-5" x="12837.56" y="384.87" width="97.7" height="128.76"/><rect class="cls-5" x="12919.68" y="210.82" width="87.61" height="116.26"/><rect class="cls-5" x="13622.8" y="386.16" width="98.18" height="128.49"/><rect class="cls-5" x="13469.82" y="386.16" width="97.85" height="128.49"/><path class="cls-5" d="M13980.74,643.44V929.07c0,94.42-35.53,141.75-132.23,141.75h-17.41c-38,0-80.75-5.81-123.71-29.08,6.1-24.32,12.36-57.6,12.36-93.14V626.31l-110.24,17.13V929.07c0,94.42-32,141.75-128.85,141.75h-20.83c-40.38,0-82.17-7-126.41-30.27,9-29.56,12.42-56.41,12.42-91.95V626.31l-110.34,17.13V929.07c0,94.42-26.74,141.75-104.13,141.75-39.24,0-80.85-5.81-125.35-29.08,8.91-24.32,12.53-57.6,12.53-93.14V655.94l-109,16.86V929.07c0,94.42-25.8,141.75-102.9,141.75-43.11,0-98.31-5.81-142.2-14.48,9.79-28,15.89-62.43,15.89-107.74V703.55l-108.95,17V929.07c0,94.42-28.42,141.75-103.05,141.75h-232.79V666.71c-70.06-20.82-114-29.46-179.17-29.46-120.12,0-221.69,66.3-221.69,238.13,0,165.17,89.21,226.4,214.46,226.4,25.81,0,49-2.4,77.08-7.29v83.28h348.27c42.86,0,85.63-8.48,119.08-28.28,73.47,14.83,160.49,28.28,219,28.28,52.55,0,100.46-16,136.62-45.24,64.5,34.3,127,45.24,187.16,45.24,61.41,0,109.06-14.8,143.53-45.24,62.58,33.07,126.06,45.24,184.77,45.24h33.08v-.23c60.85-1.25,113.64-16,152.4-45,62.47,34.3,125.86,45.24,185.93,45.24h34.53v-.23c150.21-3.82,220.62-81.64,220.62-228.94V626.31ZM12126.21,980.57c-26.72,6.07-52.54,9.83-77.08,9.83-57.84,0-99.08-24.7-99.08-115,0-95.89,46.64-126.78,106.31-126.78h18.58c18.44,0,31.73,0,51.27,5.2Z"/><path class="cls-5" d="M14218.27,945c0,158.17,93.58,232.76,216.12,232.76a286,286,0,0,0,65.73-7.29c-8,87.88-58.71,136.1-162.66,136.1-12.17,0-48.12-3.87-62.68-3.87l34.47,108h34.37c182.67,0,268.32-91.75,268.32-268.35V736.59c-68.8-19.73-109.16-28-171.43-28C14323.8,708.56,14218.27,783.21,14218.27,945Zm283.12-123.72V1060c-20.81,6.34-40.37,10.82-65,10.82-58.71,0-108.75-35.16-108.75-126.82,0-93.29,57.34-131.47,114.76-131.47C14467.29,812.53,14482,816.12,14501.39,821.29Z"/><path class="cls-5" d="M15137.83,863.86C15104.64,684,15019,658.23,14863.16,658.23l-5,102.77c111.51,3.75,149.48,7.56,172.91,132.35l35.43,177.47h-312.16l-54.38,107h497.71Z"/><rect class="cls-5" x="9016.89" y="1103.18" width="92" height="109.98"/><rect class="cls-5" x="10448.3" y="381.18" width="111.97" height="133.48"/><polygon class="cls-5" points="11290.35 404.32 11290.35 1177.77 11399.76 1177.77 11399.76 388.69 11290.35 404.32"/><path class="cls-5" d="M11041.78,929.07c0,94.42-32.85,141.75-125.25,141.75h-126.18L10778,981.65c-25.52-205.8-150.41-350.38-325.92-350.38-40.28,0-88.07,9.68-141.89,29.28l-3.52,7.12v89.46c38.7-18,75.31-26.6,111.35-26.6,150.77,0,259.72,155.9,263.18,340.29h-489.85c-38.24,0-81-5.81-123.93-29.08,6-24.32,12.08-57.6,12.08-93.14V388.69l-110.24,15.63V929.07c0,94.42-31.83,141.75-128.6,141.75h-20.88c-37.89,0-81-5.81-124-29.08,6.47-24.32,12.52-57.6,12.52-93.14V626.31l-110.24,17.13V929.07c0,94.42-32.06,141.75-128.76,141.75h-70.2c-20.57,0-95.22,1.56-108.85-86.68-25.52-210.74-150.52-344.39-322.41-344.39-43.67,0-91.08,9.78-143.53,27.92V780.3c60.6-28.18,99.86-32.43,135-32.43,100.64,0,172.85,74.62,206.2,176.31H8899.47c-41.74,7.18-164.46,40.35-164.46,216.9v5.07c0,176.24,86.92,264.58,268.79,264.58,86.7,0,140.06-12.22,248.81-41.62l-42.92-82.31c-55.39,11-132.53,18.54-200.19,18.54-113.74,0-162.92-53.87-162.92-170.34v-3.87c0-94.27,61.35-101.65,75-101.65h271.88c23.22,93.14,100.55,148.29,213.17,148.29h79.74v-.23c60.63-1.25,113.55-16,152.08-45,62.33,34.3,126.27,45.24,186.1,45.24h34.37v-.23c60.29-1.7,112.87-16.27,150.75-45,62.54,34.3,126.18,45.24,186.19,45.24h724.42c158.45,0,231.72-78.39,231.72-229.17V388.69l-110.22,15.63Z"/></svg>