<svg xmlns="http://www.w3.org/2000/svg" xmlns:xlink="http://www.w3.org/1999/xlink" viewBox="0 0 450 475.1"><g fill="#1c5aa7"><path d="M1767.3 119.4l.6-.9-3.6-2.5-4.4 6.4 1 .1c2.5.1 4.9-1.1 6.4-3.1m16.6 2.5l-1 1.4-1.8 2.7c-2.9 4.3-6.1 4.7-10 2l-3.2-2.2-3.1-2.1c-2.4 1.5-6.4 1-6.4 1l10.3 7c6.5 4.5 11.6 3.4 15.4-2.1l11-16.1-3.6-2.5-7.6 10.9z"/><path d="M1796.6 103.6l-.6.9 3.6 2.5 4.4-6.4-1-.1c-2.5 0-4.9 1.1-6.4 3.1m-16.6-2.5l1-1.4 1.8-2.7c2.9-4.3 6.1-4.7 10-2l3.2 2.2 3.1 2.1c2.4-1.5 6.4-1 6.4-1l-10.3-7c-6.5-4.5-11.6-3.4-15.4 2.1l-11 16.1 3.6 2.5 7.6-10.9zm-188.9 32.5v-8.9c0-3.5-1.8-5.4-5.9-5.4h-2.7c-1.1 0-1.9-.2-2.1-.8-.4 1.7.4 2.4 1.7 2.4h3.1c2.4 0 3.7 1.1 3.7 3.7v1.7l-5.5.5c-4 .4-5.6 2.1-5.6 5 0 3.3 2 5 5.2 5 1.4 0 2.7-.1 3.8-.3 1.8-.3 1.2-2.3 1.2-2.3-.1.4-.8.6-.8.6-1.3.3-2.6.5-4.2.5-1.8 0-3-1.4-3-3.5 0-2 .9-3.3 3.5-3.5l5.3-.4v6.3c0 1.9.9 3 3.3 2.4-.8-.3-1-1.4-1-3m31.5 0v-8.9c0-3.5-1.8-5.4-5.9-5.4h-2.7c-1.1 0-1.9-.2-2.1-.8-.4 1.7.4 2.4 1.7 2.4h3.1c2.4 0 3.7 1.1 3.7 3.7v1.7l-5.5.5c-4 .4-5.6 2.1-5.6 5 0 3.3 2 5 5.2 5 1.4 0 2.7-.1 3.8-.3 1.8-.3 1.2-2.3 1.2-2.3 0 .4-.7.6-.7.6-1.3.3-2.7.5-4.2.5-1.8 0-3-1.4-3-3.5 0-2 .9-3.3 3.5-3.5l5.3-.4v6.3c0 1.9.9 3 3.3 2.4-.9-.3-1.1-1.4-1.1-3m-44.5-15.1c-.2.6-1 .8-2.1.8h-2.7c-4.1 0-5.9 1.9-5.9 5.4v8.9c0 1.6-.3 2.7-1.1 3 2.4.6 3.4-.5 3.4-2.4v-9.6c0-2.7 1.2-3.7 3.7-3.7h3.1c1.2 0 2-.7 1.6-2.4m27.2 3.4v12.5c-1.1.4-3 .8-4.9.8-3.7 0-4.5-2-4.5-6.9V122c0-1.9-1-3-3.4-2.4.8.3 1.1 1.4 1.1 3v5.7c0 5.7 1.3 8.4 6.8 8.4 1.9 0 3.7-.5 4.9-.8h0v1.4c0 2.7-1.2 3.7-3.7 3.7h-3.1c-1.3 0-2.1.7-1.7 2.4.2-.6 1-.8 2.1-.8h2.7c4.1 0 5.9-1.9 5.9-5.4v-14.6c0-1.6.3-2.7 1.1-3-2.4-.6-3.3.4-3.3 2.3m73 11.7v-9c0-3.5-1.8-5.4-5.9-5.4h-2.7c-1.1 0-1.9-.2-2.1-.8-.4 1.7.4 2.4 1.7 2.4h3.1c2.4 0 3.7 1.1 3.7 3.7v1.7l-5.5.5c-4 .4-5.6 2.1-5.6 5 0 3.3 2 5 5.2 5 1.4 0 2.7-.1 3.8-.3 1.8-.3 1.2-2.3 1.2-2.3-.1.4-.7.6-.7.6-1.3.3-2.6.5-4.2.5-1.8 0-3-1.4-3-3.5 0-2 .9-3.3 3.5-3.5l5.3-.4v6.3c0 1.9.9 3 3.3 2.4-.9-.2-1.1-1.3-1.1-2.9m-38.3-19.7h-2.7c-4.1 0-5.9 1.9-5.9 5.4v14.5c0 1.6-.3 2.7-1.1 3 2.4.6 3.3-.5 3.3-2.4v-7.9h6.1c1.3 0 2.1-.7 1.7-2.4-.2.6-1 .8-2.1.8h-5.7v-5.5c0-2.7 1.2-3.7 3.7-3.7h3c1.3 0 2.1-.7 1.7-2.4-.1.4-.8.6-2 .6m5.8 3.5c.7 0 1.3-.6 1.3-1.3s-.6-1.3-1.3-1.3-1.3.6-1.3 1.3.5 1.3 1.3 1.3m1.1 16.5v-12c0-1.9-.9-3-3.3-2.4.8.3 1.1 1.4 1.1 3v12c0 1.9.9 3 3.3 2.4-.9-.3-1.1-1.4-1.1-3"/><use xlink:href="#D"/><path d="M1710.9 117.4c.7 0 1.3-.6 1.3-1.3s-.6-1.3-1.3-1.3-1.3.6-1.3 1.3.6 1.3 1.3 1.3m1.1 16.5v-12c0-1.9-.9-3-3.3-2.4.8.3 1.1 1.4 1.1 3v12c0 1.9.9 3 3.3 2.4-.8-.3-1.1-1.4-1.1-3m16-.3v-8.8c0-3.5-1.8-5.4-5.9-5.4h-7.2c-.3 0-.5.1-.8.1.8.3 1.1 1.4 1.1 3v12c0 1.9.9 3 3.3 2.4-.8-.3-1.1-1.4-1.1-3v-12c0-.4 0-.7-.1-1h4.7c2.4 0 3.7 1.1 3.7 3.7v9.5c0 1.9.9 3 3.4 2.4-.9-.2-1.1-1.3-1.1-2.9"/><use xlink:href="#D" x="30.9"/><path d="M1702.1 120.9h3.1c1.3 0 2.1-.7 1.7-2.4-.2.6-1 .8-2.1.8h-2.7c-4.1 0-5.9 1.9-5.9 5.4v6.5c0 3.5 1.8 5.4 5.9 5.4h2.7c1.1 0 1.9.2 2.1.8.4-1.7-.4-2.4-1.7-2.4h-3.1c-2.4 0-3.7-1.1-3.7-3.7v-6.6c0-2.7 1.2-3.8 3.7-3.8m39.5 13.5c-1.1.4-3 .8-4.9.8-3.7 0-4.5-2-4.5-6.9v-3.7c0-2.7 1.2-3.7 3.7-3.7h5.8c-.1.3-.1.6-.1 1v12.5zm3.3-14.9c-.3-.1-.6-.1-.8-.1h0-8.3c-4.1 0-5.9 1.9-5.9 5.4l-.1 3.7c0 5.7 1.3 8.4 6.8 8.4 1.9 0 3.8-.5 4.9-.8h0v1.4c0 2.7-1.2 3.7-3.7 3.7h-3.1c-1.3 0-2.1.7-1.7 2.4.2-.6 1-.8 2.1-.8h2.7c4.1 0 5.9-1.9 5.9-5.4V134l.2-13.6c.4-.5.6-.8 1-.9m-17.3-37.1v19c0 1.8-.3 3-1.3 3.4 2.8.6 3.8-.6 3.8-2.7V83c0-1.8.3-3 1.3-3.4-2.8-.6-3.8.7-3.8 2.8m13.5 5.6v10.8c0 3-1.4 4.2-4.1 4.2h-1.6c-1.5 0-2.4.7-1.9 2.7.2-.7 1.1-.9 2.4-.9h1.2c4.6 0 6.7-2.1 6.7-6.1V88.6c0-1.8.3-3 1.3-3.4-2.9-.6-4 .6-4 2.8"/><path d="M1720.5 88v10.9c0 3-1.4 4.2-4.1 4.2h-8.8c-4.2 0-5.1-2.2-5.1-7.7v-10h-6.6c-5.1 0-8.2 2.4-8.2 9.8 0 6 1.8 9.7 8.4 9.8h1.2c1.2 0 2.1.2 2.3.9.4-1.9-.4-2.6-1.8-2.6h-1.6c-4.4 0-5.8-2.6-5.8-7.4v-1.4c0-5.3 1.8-7.3 5.6-7.3h4v8.3c0 6.5 1.5 9.5 7.7 9.5h8.8c4.6 0 6.7-2.1 6.7-6.1V88.6c0-1.8.3-3 1.3-3.4-3-.6-4 .6-4 2.8"/><use xlink:href="#E"/><use xlink:href="#E" x="3.9"/><use xlink:href="#E" x="-41.8"/><path d="M1656.4 83.7a1.54 1.54 0 0 0 1.5-1.5 1.54 1.54 0 0 0-1.5-1.5 1.54 1.54 0 0 0-1.5 1.5c0 .9.6 1.5 1.5 1.5m31.2 11.5v-.3.3zm-43.3-.3v.3-.3z"/><path d="M1615.1 102.1c-1.3.4-3.3 1-5.5 1-4.2 0-5.1-2.3-5.1-7.8v-4.2c0-3 1.4-4.2 4.1-4.2h6.5c-.1.3-.1.7-.1 1.1v14l.1.1zm60.4-19.7v16.5c0 3-1.4 4.2-4.1 4.2h-5.9c1-1 1.4-2.5 1.4-4.3V83.1c0-1.8.3-3 1.3-3.4-2.8-.6-3.8.6-3.8 2.7v16.5c0 3-1.4 4.2-4.1 4.2h-6.5c1-1 1.4-2.5 1.4-4.3v-9.9c0-1.8.3-3 1.3-3.4-2.8-.6-3.8.6-3.8 2.7v10.7c0 3-1.4 4.2-4.1 4.2h-6.6c1.8-1.6 2.5-4.4 2.5-7.9 0-7.4-3.2-9.8-8.2-9.8h-6.6v10c0 5.5-.9 7.7-5.1 7.7h-2.5c-2.5 0-3.9-1-4.1-3.6l.2-13.2c.2-.6.5-.9 1-1.1-.3-.1-.7-.1-1-.1h0-9.3c-4.6 0-6.7 2.1-6.7 6.1l-.1 4.2c0 6.5 1.5 9.5 7.7 9.5 2.1 0 4.2-.5 5.5-.9-.1 2.7-1.5 3.9-4.1 3.9h-3.5c-1.5 0-2.4.7-1.9 2.7.2-.7 1.1-.9 2.4-.9h3c4.4 0 6.5-2 6.7-5.7 1 .6 2.4.9 4.2.9h2.5c6.2 0 7.7-3 7.7-9.5V87h4c3.8 0 5.6 1.9 5.6 7.3v1.4c0 4.9-1.4 7.4-5.8 7.4h-3.6c-1.5 0-2.3.7-1.8 2.6.2-.7 1.1-.9 2.3-.9h38.7c4.6 0 6.7-2.1 6.7-6.1V83c0-1.8.3-3 1.3-3.4-3.2-.6-4.2.7-4.2 2.8m-80 5.8v10.7c0 3-1.4 4.2-4.1 4.2h-1.3c-2.7 0-4.1-1.2-4.1-4.2h0V83c0-1.8.3-3 1.3-3.4-2.8-.6-3.8.6-3.8 2.7v20.8c0 3-1.4 4.2-4.1 4.2h-5.4c-2.7 0-4.1-1.2-4.1-4.2v-5c0-3 1.4-4.2 4.1-4.2h1c1.5 0 2.4-.7 1.9-2.7-.2.7-1.1.9-2.4.9h-.6c-4.6 0-6.7 2.1-6.7 6.1v4.9c0 3.9 2.1 6.1 6.7 6.1h5.4c4.3 0 6.4-1.9 6.7-5.3 1 .6 2.4 1 4.2 1h1.3c4.6 0 6.7-2.1 6.7-6.1v-9.9c0-1.8.3-3 1.3-3.4-2.9-.7-4 .5-4 2.7"/><use xlink:href="#F"/><use xlink:href="#G"/><use xlink:href="#F" x="-125.7"/><use xlink:href="#G" x="-125.7"/><path d="M1774 96.9l.9.6 2.5-3.6-6.4-4.4-.1 1a8.26 8.26 0 0 0 3.1 6.4m-3.9 15.6l-2.7-1.8c-4.3-2.9-4.7-6.1-2-10l2.2-3.2 2.1-3.1c-1.5-2.4-1-6.4-1-6.4l-7 10.3c-4.4 6.5-3.4 11.6 2.1 15.4l16.1 11 2.5-3.6-10.9-7.5-1.4-1.1zm19.8 13.6l-.9-.6-2.5 3.6 6.4 4.4.1-1c0-2.5-1.1-4.8-3.1-6.4m10.1-16.7l-16.1-11-2.5 3.6 10.9 7.5 1.4 1 2.7 1.8c4.3 2.9 4.7 6.1 2 10l-2.2 3.2-2.1 3.1c1.5 2.4 1 6.4 1 6.4l7-10.3c4.5-6.4 3.4-11.5-2.1-15.3"/></g><linearGradient id="A" gradientUnits="userSpaceOnUse" x1="125.637" y1="196.247" x2="107.668" y2="289.089"><stop offset="0" stop-color="#014361"/><stop offset="1" stop-color="#0279af"/></linearGradient><path d="M159.4 303.6l-20.8-136.7-88.3 136.7S79 280 108 280s43.9 13.7 51.4 23.6z" fill="url(#A)"/><linearGradient id="B" gradientUnits="userSpaceOnUse" x1="101.976" y1="236.904" x2="141.625" y2="263.545"><stop offset="0" stop-color="#014361"/><stop offset="1" stop-color="#0477a7"/></linearGradient><circle cx="121.8" cy="250.3" r="23.9" fill="url(#B)"/><path d="M110.4 261l13.2-21.1h7l2 21.1h-6.9l-.1-2.8h-6.9l-1.5 2.8h-6.8zm14.9-14.7l-4.1 7.6h4.4l-.3-7.6z" fill="#231f20"/><path d="M111.2 260.6l13.2-21.1h7l2 21.1h-6.9l-.1-2.8h-6.9l-1.5 2.8h-6.8zm14.9-14.8l-4.1 7.6h4.4l-.3-7.6z" fill="#fff"/><g fill="#009ed4"><use xlink:href="#H"/><path d="M192.6 273.7v-3.8h3.9v3.8h-3.9zm1.5-7.4v-3.4c3.7 0 5.4-1.8 5.4-4.9v-11h4v11.1c0 5.1-3.5 8.2-9.4 8.2zm4.7 7.4v-3.8h4v3.8h-4zm26.5-7.4h0c-.4 4.7-3.9 7.4-8.3 7.4h-.1v-3.1c2.5-.1 4.4-2.4 4.4-4.3h-4.6c-3.6 0-8.6-2.4-8.6-9.4 0-6.7 3.3-9.9 8.6-9.9h8.8v15.9h5.4v3.4h-5.6zm-3.9-16.2h-4.7c-3.7 0-4.6 4.2-4.6 6.8 0 2.5 1.3 5.9 4.6 5.9h4.7v-12.7z"/><path d="M258.1 266.3c-2.5 0-4.5-.6-6-1.7-1.3 3.5-4.2 5.4-8.3 5.4-4 0-6.8-1.9-8.2-5.2-1.4.9-3.2 1.4-5.6 1.4h-.7v-3.4h.7c2.7 0 4.4-1.1 4.5-3.5.3-6.2 3.7-10 9.2-10 5.4 0 8.7 3.6 8.9 9.6 0 2.5 2 3.9 5.3 3.9h.7v3.4h-.5zm-14.3-13.9c-3.3 0-4.9 2.4-4.9 7.2 0 4.6 1.6 7 4.9 7 3.2 0 4.9-2.4 4.9-6.9.1-4.9-1.5-7.3-4.9-7.3z"/><path d="M256.5 243.3v-3.9h4v3.9h-4zm15.7 23c-3.2 0-5.6-.9-7.1-2.6-1.5 1.7-3.8 2.6-6.9 2.6h-.5v-3.4h.5c3 0 4.7-1.5 4.7-4V247h4v12c0 2.5 2 3.9 5.3 3.9h.4v3.4h-.4zm-9.4-23v-3.9h4v3.9h-4z"/><path d="M286.2 266.3c-3.2 0-5.6-.9-7.1-2.6-1.5 1.7-3.8 2.6-6.9 2.6h-.7v-3.4h.7c3 0 4.7-1.5 4.7-4v-19.3h4v19.5c0 2.5 2 3.9 5.3 3.9h.7v3.4c-.1-.1-.6-.1-.7-.1z"/><path d="M285.5 266.3v-3.4c3.7 0 5.6-1.8 5.6-4.9v-18.5h4v18.7c0 5-3.7 8.1-9.6 8.1z"/></g><g fill="#13284d"><use xlink:href="#H" x="136.4"/><path d="M329.4 243.3v-3.8h4v3.8h-4zm15.7 23c-3.2 0-5.6-.9-7.1-2.6-1.5 1.7-3.8 2.6-6.9 2.6h-.5v-3.4h.5c3 0 4.7-1.5 4.7-4V247h4v12c0 2.5 2 3.9 5.3 3.9h.4v3.4h-.4zm-12.5-28.5V234h3.9v3.8h-3.9zm3.1 5.5v-3.8h3.9v3.8h-3.9z"/><path d="M358.3 266.3c-3 0-5.4-1.1-7-3.1-1.4 2-3.9 3.1-6.7 3.1v-3.4c1.8 0 3.3-1 4.1-2.7.7-1.7.6-3.3.6-4.7h.1c.2-6.1 3.5-9.8 8.9-9.8 5.6 0 9 3.9 9 10.4.1 6.4-3.3 10.2-9 10.2zm0-17.7c-3.2 0-4.9 2.5-4.9 7.4 0 4.8 1.7 7.2 4.9 7.2s4.9-2.4 4.9-7.1c.1-5-1.5-7.5-4.9-7.5zm10.2-11.4v-1.9h2v-.4c0-1 .3-4.1 3.7-4.1 2 0 2.8.9 3.5 2.5h-2.4c-.3-.4-.5-.6-1.1-.6-1.2 0-1.4 1.2-1.4 2.1v.5h5.2v1.9h-9.5zm13.2 29.1c-1.6 0 .2 0-9.8 0v-3.4h3.9v-23.4h4.1v23.4h1.7c1.6 0 3.2-1.2 3.9-2.6.7-1.6.6-3.1.6-4.8v-16h4V258c-.1 5.1-3.8 8.3-8.4 8.3zm12.8 0v-26.8h4v26.8h-4z"/></g><path d="M174.6 283.3h3.8l6 18.5H181l-2.8-9.9-1.7-6.1h-.1l-1.6 6.1-2.8 9.9h-3.4l6-18.5zm-2.5 11h8.7v2.6h-8.7v-2.6zm14.2 4v-16.4h3.3v16.6c0 .8.4 1.1.7 1.1.1 0 .3 0 .5-.1l.4 2.4c-.4.2-.9.3-1.7.3-2.4 0-3.2-1.5-3.2-3.9zm6.9-.2c0-3 2.5-4.5 8.2-5.1 0-1.5-.6-2.7-2.5-2.7-1.4 0-2.7.6-3.9 1.4l-1.2-2.2c1.5-1 3.5-1.8 5.7-1.8 3.5 0 5.2 2.1 5.2 6v8.2H202l-.2-1.5h-.1c-1.2 1.1-2.7 1.9-4.3 1.9-2.5-.1-4.2-1.8-4.2-4.2zm8.2 0V295c-3.8.5-5 1.5-5 2.9 0 1.2.8 1.8 2 1.8 1.1-.1 2-.6 3-1.6zm7.2-10.1h2.7l.2 1.9h.1c1.2-1.2 2.5-2.2 4.3-2.2 2 0 3.2.9 3.8 2.5 1.3-1.4 2.7-2.5 4.5-2.5 2.9 0 4.3 2 4.3 5.5v8.7h-3.3v-8.3c0-2.3-.7-3.1-2.1-3.1-.9 0-1.8.6-2.9 1.7v9.7h-3.3v-8.3c0-2.3-.7-3.1-2.1-3.1-.9 0-1.8.6-2.9 1.7v9.7h-3.3V288zm24.3 9.2v-6.6h-2v-2.4l2.2-.1.4-3.8h2.7v3.8h3.5v2.6h-3.5v6.6c0 1.6.6 2.4 2 2.4.5 0 1-.2 1.4-.3l.6 2.4c-.8.2-1.7.5-2.8.5-3.3-.1-4.5-2.1-4.5-5.1zm9.7-15.3h3.3v5.2l-.1 2.7c1.2-1.1 2.5-2.1 4.4-2.1 3 0 4.3 2 4.3 5.5v8.7h-3.3v-8.3c0-2.3-.7-3.1-2.2-3.1-1.2 0-2 .6-3.2 1.7v9.7h-3.3v-20zm15.1 16.2c0-3 2.5-4.5 8.2-5.1 0-1.5-.6-2.7-2.5-2.7-1.4 0-2.7.6-3.9 1.4l-1.2-2.2c1.5-1 3.5-1.8 5.7-1.8 3.5 0 5.2 2.1 5.2 6v8.2h-2.7l-.2-1.5h-.1c-1.2 1.1-2.7 1.9-4.3 1.9-2.6-.1-4.2-1.8-4.2-4.2zm8.1 0V295c-3.8.5-5 1.5-5 2.9 0 1.2.8 1.8 2 1.8 1.1-.1 2-.6 3-1.6zm7.2.2v-16.4h3.3v16.6c0 .8.4 1.1.7 1.1.1 0 .3 0 .5-.1l.4 2.4c-.4.2-.9.3-1.7.3-2.3 0-3.2-1.5-3.2-3.9z" fill="#132d52"/><g fill="#009ad5"><path d="M286.8 283.3h10.7v2h-8.4v6.3h7.1v2h-7.1v8.3h-2.4v-18.6zm13.3.5c0-.9.7-1.5 1.6-1.5s1.6.6 1.6 1.5-.7 1.5-1.6 1.5-1.6-.7-1.6-1.5zm.5 4.3h2.3v13.8h-2.3v-13.8z"/><use xlink:href="#I"/><path d="M322.1 298.3c0-3 2.6-4.5 8.5-5.1 0-1.8-.6-3.5-2.8-3.5-1.6 0-3 .8-4.1 1.5l-.9-1.6c1.3-.8 3.2-1.8 5.4-1.8 3.4 0 4.8 2.2 4.8 5.7v8.4h-2l-.2-1.6h-.1c-1.3 1.1-2.8 2-4.6 2-2.2-.1-4-1.5-4-4zm8.5.2v-3.8c-4.6.6-6.2 1.7-6.2 3.4 0 1.6 1.1 2.2 2.4 2.2 1.4 0 2.5-.6 3.8-1.8zm6.7-10.4h1.9l.2 2h.1c1.3-1.3 2.7-2.3 4.6-2.3 2.9 0 4.2 1.9 4.2 5.4v8.7H346v-8.4c0-2.6-.8-3.7-2.6-3.7-1.4 0-2.4.7-3.8 2.1v10h-2.3v-13.8zm14.4 6.9c0-4.6 3.1-7.2 6.6-7.2 1.8 0 3.1.7 4 1.6l-1.2 1.5c-.8-.7-1.6-1.2-2.7-1.2-2.5 0-4.3 2.1-4.3 5.3s1.7 5.3 4.3 5.3c1.3 0 2.4-.6 3.2-1.4l1 1.6c-1.2 1.1-2.8 1.7-4.4 1.7-3.7 0-6.5-2.7-6.5-7.2zm13.5-11.2c0-.9.7-1.5 1.6-1.5s1.6.6 1.6 1.5-.7 1.5-1.6 1.5-1.6-.7-1.6-1.5zm.4 4.3h2.3v13.8h-2.3v-13.8z"/><use xlink:href="#I" x="65.1"/><path d="M387 304.5c0-1.2.8-2.3 2-3.1v-.1c-.7-.4-1.2-1.2-1.2-2.3s.8-2.1 1.5-2.6v-.1c-.9-.7-1.8-2.1-1.8-3.7 0-3 2.4-4.9 5.2-4.9.8 0 1.4.1 1.9.3h4.8v1.8h-2.8c.6.6 1.1 1.7 1.1 2.8 0 2.9-2.2 4.8-5 4.8-.7 0-1.4-.2-2.1-.5-.5.4-.9.9-.9 1.6 0 .9.6 1.5 2.4 1.5h2.7c3.2 0 4.8 1 4.8 3.3 0 2.6-2.7 4.8-7 4.8-3.2.1-5.6-1.2-5.6-3.6zm10.4-.7c0-1.3-1-1.7-2.8-1.7h-2.4c-.5 0-1.2-.1-1.8-.2-1 .7-1.4 1.5-1.4 2.3 0 1.5 1.5 2.4 4 2.4 2.7 0 4.4-1.4 4.4-2.8zm-1.8-11.1c0-2-1.3-3.2-2.9-3.2s-2.9 1.2-2.9 3.2 1.3 3.3 2.9 3.3c1.6-.1 2.9-1.3 2.9-3.3z"/></g><defs ><path id="D" d="M1662.9 133.6v-8.9c0-3.5-1.8-5.4-5.9-5.4h-7.1c-.3 0-.5.1-.8.1.8.3 1.1 1.4 1.1 3v12c0 1.9.9 3 3.3 2.4-.8-.3-1.1-1.4-1.1-3v-12c0-.4 0-.7-.1-1h4.7c2.4 0 3.7 1.1 3.7 3.7v9.5c0 1.9.9 3 3.3 2.4-.8-.1-1.1-1.2-1.1-2.8"/><path id="E" d="M1694.3 83.7a1.54 1.54 0 0 0 1.5-1.5 1.54 1.54 0 0 0-1.5-1.5 1.54 1.54 0 0 0-1.5 1.5 1.47 1.47 0 0 0 1.5 1.5"/><path id="F" d="M1715.8 106.8a1.54 1.54 0 0 0-1.5 1.5 1.54 1.54 0 0 0 1.5 1.5 1.54 1.54 0 0 0 1.5-1.5c0-.9-.6-1.5-1.5-1.5"/><path id="G" d="M1719.7 106.8a1.54 1.54 0 0 0-1.5 1.5 1.54 1.54 0 0 0 1.5 1.5 1.54 1.54 0 0 0 1.5-1.5 1.47 1.47 0 0 0-1.5-1.5"/><path id="H" d="M194.6 266.3c-2.1 0-3.8-.5-5.2-1.2v.5c0 4.9-3.7 8-8.5 8.1h-1.2c-4.9 0-8.5-3.3-8.5-8.2v-8h4v7.8c0 3 1.5 4.9 5.1 4.9s5-1.9 5-4.9v-25.9h4v19.8c0 2.3 2.2 3.5 5.2 3.5h.7v3.4h-.6z"/><path id="I" d="M307.5 288.1h1.9l.2 2h.1c1.3-1.3 2.7-2.3 4.6-2.3 2.9 0 4.2 1.9 4.2 5.4v8.7h-2.3v-8.4c0-2.6-.8-3.7-2.6-3.7-1.4 0-2.4.7-3.8 2.1v10h-2.3v-13.8z"/></defs></svg>