<?xml version="1.0" encoding="utf-8"?>
<!-- Generator: Adobe Illustrator 24.1.2, SVG Export Plug-In . SVG Version: 6.00 Build 0)  -->
<svg version="1.1" id="Layer_1" xmlns="http://www.w3.org/2000/svg" xmlns:xlink="http://www.w3.org/1999/xlink" x="0px" y="0px"
	 viewBox="0 0 450 475.1" style="enable-background:new 0 0 450 475.1;" xml:space="preserve">
<style type="text/css">
	.st0{fill:#2E3192;}
	.st1{fill:#F17B23;}
	.st2{fill:#FFFFFF;}
</style>
<g>
	<path class="st0" d="M212.9,170.2h-44.6c-9,0-16.3-7.3-16.3-16.2l0,0v-23c0-9,7.3-16.3,16.2-16.3l0,0h44.6c9,0,16.3,7.3,16.3,16.2
		l0,0v2.3h-16.3l-0.5-1c-1-2-2.9-3-5.1-3h-33.4c-3.1,0-5.6,2.6-5.6,5.6v15c0,3.1,2.6,5.6,5.6,5.6h33.4c3.1,0,5.6-2.6,5.6-5.6v-1.2
		h-20.5v-13.5H229v18.6C229.3,162.9,221.9,170.2,212.9,170.2L212.9,170.2z M168.2,118.2c-7.1,0-12.7,5.8-12.7,12.7v22.9
		c0,7.1,5.8,12.7,12.7,12.7h44.6c7.1,0,12.7-5.8,12.7-12.7V139H196v6.3h20.5v4.8c0,5.1-4.1,9.3-9.3,9.3h-33.4
		c-5.1,0-9.3-4.1-9.3-9.3v-15c0-5.1,4.1-9.3,9.3-9.3h33.4c3.1,0,6,1.5,7.7,4h10.6c-0.7-6.4-6.1-11.4-12.7-11.4h-44.6L168.2,118.2z
		 M298.4,170.2h-63.8V85.1h13v71.7h50.8V170.2z M238.2,166.7h56.7v-6.4H244V88.6h-5.9L238.2,166.7L238.2,166.7z"/>
	<path class="st1" d="M251.2,116.5h46.9v36.7h-46.9L251.2,116.5L251.2,116.5z"/>
	<g>
		<path class="st2" d="M265.8,130.6c0,0.2-0.1,0.4-0.3,0.5c-0.2,0.2-0.4,0.2-0.5,0.2h-6.9c-0.2,0-0.4-0.1-0.5-0.2
			c-0.2-0.2-0.3-0.3-0.3-0.5v-1.2c0-0.3,0-0.5,0.1-0.7c0.1-0.1,0.2-0.3,0.4-0.4l1-0.8v2h5.4v-1.4c0-0.2,0.2-0.4,0.4-0.7l1.2-0.9
			L265.8,130.6L265.8,130.6z M261,124.4c0,0.2-0.1,0.4-0.2,0.5s-0.3,0.2-0.5,0.2s-0.4-0.1-0.5-0.2c-0.1-0.1-0.2-0.3-0.2-0.5
			s0.1-0.4,0.2-0.7c0.1-0.1,0.3-0.2,0.5-0.2s0.4,0.1,0.5,0.2C261,124,261,124.2,261,124.4z M263.8,124.4c0,0.2-0.1,0.4-0.2,0.5
			s-0.3,0.2-0.5,0.2s-0.4-0.1-0.5-0.2c-0.1-0.1-0.2-0.3-0.2-0.5s0.1-0.4,0.2-0.7c0.1-0.1,0.3-0.2,0.5-0.2s0.4,0.1,0.5,0.2
			C263.7,124,263.8,124.2,263.8,124.4z M271.8,131.4h-3.6v-10.9l1.1,0.7c0.3,0.3,0.5,0.7,0.5,1.1v7.2h2V131.4L271.8,131.4z"/>
		<path class="st2" d="M279.2,131.4h-9.7l1.2-2h2.9c-0.4-0.8-0.5-1.3-0.5-1.7c0-0.5,0.2-0.9,0.5-1.2s0.8-0.4,1.3-0.4h1.3
			c0.9,0,1.3-0.1,1.4-0.2l0.4-0.7v2.8h-2.9c-0.2,0-0.2,0.1-0.2,0.2c0,0.3,0.1,0.6,0.3,0.8c0.2,0.3,0.5,0.4,0.8,0.4h3.1v2H279.2z"/>
		<path class="st2" d="M285.5,130.2c0,0.2,0,0.5-0.1,0.8s-0.2,0.5-0.5,0.5H277l1.2-2h5.8v-1.2h-1.6c-0.4,0-0.8-0.2-1.1-0.5
			c-0.3-0.3-0.4-0.8-0.4-1.2c0-0.5,0.1-1,0.4-1.3s0.8-0.5,1.4-0.5h1.1c0.8,0,1.4-0.2,1.8-0.8L285.5,130.2L285.5,130.2z M283.9,126.9
			v-1h-1c-0.3,0-0.5,0.2-0.5,0.5c0,0,0,0,0,0.1c0,0.3,0.2,0.4,0.5,0.4H283.9z M284,121.5c0,0.2-0.1,0.4-0.2,0.5s-0.3,0.2-0.5,0.2
			s-0.4-0.1-0.5-0.2c-0.1-0.1-0.2-0.3-0.2-0.5s0.1-0.4,0.2-0.5s0.3-0.2,0.5-0.2s0.4,0.1,0.5,0.2C283.9,121.1,284,121.3,284,121.5z
			 M289.5,131.4h-1.6v-9c0-0.4,0.2-0.8,0.5-1.1l1.1-0.8V131.4z M294.5,132.4c0,0.5-0.2,1-0.5,1.3s-0.8,0.5-1.4,0.5
			c-0.5,0-1.1-0.2-1.4-0.5c-0.4-0.3-0.7-0.8-0.7-1.3h2.1v-2.8c0-0.5,0.2-1,0.5-1.3l1.4-0.8V132.4z M264.5,146.5h-5.8
			c-0.4,0-0.5,0.3-0.5,0.9c0,0.5,0.2,0.8,0.5,0.8h1.4v1.1c0,0.5-0.3,0.9-0.9,0.9c-1.8,0-2.7-0.9-2.7-2.7c0-0.8,0.2-1.4,0.8-2
			s1.2-0.8,2-0.8h1.8c-0.5-0.3-0.9-0.7-1-1c-0.1-0.2-0.2-0.5-0.3-0.8c-0.1-0.3-0.3-0.4-0.5-0.4c-0.3,0-0.7,0.2-0.8,0.5v-1.8
			c0.3-0.5,0.8-0.8,1.2-0.8c0.5,0,1,0.4,1.4,1.2l1,1.8l0.7,0.7c0.3,0.3,0.5,0.4,0.8,0.5h1.2v1.8L264.5,146.5z M263.4,148.9
			c0,0.2-0.1,0.4-0.2,0.5s-0.3,0.2-0.5,0.2s-0.4-0.1-0.5-0.2c-0.1-0.1-0.2-0.3-0.2-0.5s0.1-0.4,0.2-0.5s0.3-0.2,0.5-0.2
			s0.4,0.1,0.5,0.2C263.3,148.4,263.4,148.6,263.4,148.9z"/>
		<path class="st2" d="M268.6,146.5h-6.4l1.2-2h5.2L268.6,146.5L268.6,146.5z"/>
		<path class="st2" d="M275.2,146.5h-8.9l1.2-2h4.9c0-1,0.1-1.6,0.2-1.8s0.5-0.5,1.5-1.2v3h1.2v2H275.2z M271,149.6
			c0,0.2-0.1,0.4-0.2,0.5s-0.3,0.2-0.5,0.2s-0.4-0.1-0.5-0.2c-0.1-0.1-0.2-0.3-0.2-0.5s0.1-0.4,0.2-0.5s0.3-0.2,0.5-0.2
			s0.4,0.1,0.5,0.2S271,149.4,271,149.6z M273.8,149.6c0,0.2-0.1,0.4-0.2,0.5s-0.3,0.2-0.5,0.2s-0.4-0.1-0.5-0.2
			c-0.1-0.1-0.2-0.3-0.2-0.5s0.1-0.4,0.2-0.5s0.3-0.2,0.5-0.2s0.4,0.1,0.5,0.2C273.7,149.2,273.8,149.4,273.8,149.6z"/>
		<path class="st2" d="M279.2,146.5h-6.4l1.2-2h2.5v-7.2c0-0.4,0.2-0.9,0.5-1.1c0.3-0.2,0.8-0.4,1.1-0.8v9h1.2v2h-0.1V146.5z"/>
		<path class="st2" d="M288.8,146.5c0,0.7-0.2,1.2-0.7,1.7c-0.4,0.5-1,0.8-1.6,0.8s-1.2-0.2-1.7-0.7c-0.4-0.4-0.7-1-0.7-1.6v-0.1
			h-7.2l1.2-2h5.1c-0.5-0.4-0.9-0.8-1-1s-0.2-0.5-0.3-0.8c-0.1-0.3-0.3-0.4-0.5-0.4c-0.3,0-0.7,0.2-0.8,0.5v-1.8
			c0.3-0.5,0.8-0.8,1.2-0.8c0.3,0,0.8,0.2,1.1,0.7c0.1,0.1,0.3,0.5,0.7,1.1c0.1,0.3,0.3,0.8,0.7,1.3c0.3,0.5,0.9,1,1.3,1.3l0.1,1.8
			c0,0.2,0.1,0.4,0.2,0.5c0.1,0.2,0.3,0.3,0.5,0.3s0.4-0.1,0.7-0.2c0.1-0.2,0.2-0.3,0.2-0.7v-9c0-0.4,0.2-0.9,0.7-1.2l1-0.8v10.9
			h-0.2V146.5z M282.5,137.9c0,0.2-0.1,0.4-0.2,0.5s-0.3,0.2-0.5,0.2s-0.4-0.1-0.5-0.2s-0.2-0.3-0.2-0.5s0.1-0.4,0.2-0.7
			c0.1-0.1,0.3-0.2,0.5-0.2s0.4,0.1,0.5,0.2C282.4,137.3,282.5,137.6,282.5,137.9z M292.9,146.5h-1.6v-9c0-0.4,0.2-0.8,0.5-1.1
			l1.1-0.8V146.5z"/>
	</g>
</g>
<g>
	<path class="st0" d="M37.8,230.2h-2l-2.5-6c-1.1-2.5-2.2-3.8-2.9-3.8s-1.1,0.4-1.1,1.1c0,0.5,0.2,1.1,0.5,1.6l2.2,3.4
		c0.4,0.5,0.5,1.3,0.5,2c0,0.5-0.9,1.8-2.5,3.6l-3.3,3.4c-4.9,4.3-8.5,6.5-10.5,6.5c-0.5,0-3.1-1.1-7.8-3.4l-7.1-4
		c0-0.2,2,0.7,6.2,2.4c4.5,1.8,7.4,2.9,9.1,2.9c2.4,0,5.1-1.3,8-4c2.7-2.4,4-4.3,4-5.8c0-0.7-0.5-2-1.6-3.6s-1.6-2.9-1.6-4
		c0-1.3,1.1-2.7,3.1-4.7l3.8-3.6v3.1l4.5,9.6h0.9L37.8,230.2L37.8,230.2z M21,245.9l-1.3,2.2l-2.4-2l-1.3,2l-2.4-2l1.3-2.4l2.4,2.2
		l1.3-2.2L21,245.9L21,245.9z"/>
	<path class="st0" d="M48.7,230.2H37.1v-2.9h4v-20.1c0-1.3-0.2-2.4-0.5-3.1c0-0.2-0.5-0.7-1.3-1.6l5.3-5.6v30.4h4.2L48.7,230.2
		L48.7,230.2z"/>
	<path class="st0" d="M57.8,230.2H48v-2.9h3.1c0-0.7-0.4-2-1.3-4.2c-0.9-2.2-1.3-3.6-1.3-4.3c0-0.9,0.7-2,2-3.3l3.3-2.5
		c-0.5,1.3-0.7,2.2-0.7,3.1c0,0.3,0,0.6,0.2,0.9C53.4,219.1,55,223.7,57.8,230.2z M57.8,236.5l-1.4,2.7l-3.1-2.5l-1.4,2.5l-3.1-2.7
		l1.4-2.9l3.1,2.7l1.4-2.7L57.8,236.5z M75,230.2h-4.2c-1.6,2.9-6.2,7.2-13.2,13c-0.2,0-0.4,0.2-0.7,0.5c0-0.4,0.2-0.9,0.7-1.4
		c1.1-0.9,2.5-2.5,4.5-4.5c2-2,4-4.7,5.8-8.2c-1.6,0.4-3.1,0.5-4,0.5c-0.5,0-0.9,0-1.3-0.2c-2.2-0.5-3.3-1.8-3.3-3.8
		c0-1.6,1.3-4.2,3.8-7.6c2.5-3.4,4.3-5.1,5.8-5.1c0,0,0.2,0,0.2,0.2c0,0-0.2,0.4-0.4,0.9c-0.4,0.5-0.5,1.1-0.5,1.3v0.4
		c0.2,0.9,0.9,2.7,2,5.4c1.1,2.4,1.6,4.2,1.6,5.4H75V230.2L75,230.2z M67.2,226.7c-0.4-0.9-1.4-3.1-3.4-6.5
		c-0.5,0.9-0.9,1.6-0.9,2.5C62.8,224.6,64.3,226,67.2,226.7L67.2,226.7z"/>
	<path class="st0" d="M90.9,230.2h-1.4c-0.7,1.3-1.6,2-2.9,2s-2.7-0.5-4.3-1.4c-0.4-0.2-1.4-0.9-3.4-2.4c-0.2,1.1-0.5,1.6-1.4,1.6
		h-3.3v-2.9h4c-0.5-0.7-0.9-1.3-1.1-1.6c-0.4-0.5-0.5-1.3-0.5-2c0-1.4,1.3-3.6,3.8-6.3c2-2,3.8-3.6,5.6-4.9
		c-0.4,1.6-0.4,2.7-0.2,3.3c0.9,3.1,2.4,6.9,4.2,11.6h0.9v3.1L90.9,230.2z M85.1,227.5l-2.9-7.4c-1.1,0.5-1.6,1.3-1.6,2.2
		c0,1.3,0.5,2.5,1.8,3.6C83.5,226.9,84.4,227.5,85.1,227.5L85.1,227.5z"/>
	<path class="st0" d="M95.8,207l-1.8,3.4l-3.6-3.3l2-3.6l-3.3-3.1l1.8-3.6l3.8,3.4l-2,3.4L95.8,207L95.8,207z M100.3,230.2H90v-2.9
		h3.1c0-0.7-0.4-2-1.3-4.2s-1.3-3.6-1.3-4.3c0-0.9,0.7-2,2-3.3l3.3-2.5c-0.5,1.3-0.7,2.2-0.7,3.1c0,0.3,0,0.6,0.2,0.9l4,10.1h1.1
		L100.3,230.2L100.3,230.2z"/>
	<path class="st0" d="M105.8,230.2h-6.2v-2.9h2.9v-21.6c0-0.6-0.2-1.3-0.5-1.8l-1.3-1.3l5.3-5.8v33.3h-0.2V230.2z"/>
	<g>
		<path id="B" class="st0" d="M119.7,230.4c0,0.4-0.5,1.1-1.6,1.8c-1.3,0.7-2.5,1.3-4,1.3c-1.6,0-2.9-0.7-3.8-2.2
			c-0.7-1.3-1.1-3.1-1.1-5.1v-23.9c0-1.4-0.2-2.5-0.4-3.3c-0.4-0.9-0.9-1.8-2-2.4l5.6-5.6v35c0,1.6,0.2,2.9,0.4,3.6
			c0.4,1.4,1.4,2.2,2.9,2.2c0.5,0,1.4-0.2,2.4-0.7C119,230.5,119.6,230.2,119.7,230.4C119.7,230.2,119.7,230.4,119.7,230.4
			L119.7,230.4z"/>
	</g>
	<g>
		<path id="C" class="st0" d="M133,227.8c0,1.4-0.7,2.9-2,4.3c-0.7,0.9-2,2.2-4.2,4l-7.6,6.7c0-0.5,0.2-0.9,0.5-1.4l5.1-4.7
			c2.5-2.4,3.8-4.2,3.8-5.6c0-0.7-1.3-4-4-9.6c-0.2-0.4-0.2-0.5-0.2-0.9c0-0.5,0.4-1.4,1.3-2.2c0.5-0.5,1.6-1.4,3.4-2.9l-0.5,2.2
			c0,0.4,0,0.7,0.2,1.1c0.2,0.5,0.9,2.2,2.4,4.7L133,227.8L133,227.8z"/>
	</g>
	<path class="st0" d="M142.9,230.2H134c1.3-1.3,2-2.7,2-4.3V205c0-0.7-0.5-1.6-1.4-3.1l4.9-5.8l0.4,0.7c-0.5,1.1-0.9,2.7-0.9,4.9
		v19.9c0,1.8-0.2,3.3-0.7,4.2c0,0.2-0.4,0.5-0.7,1.3h5.4L142.9,230.2L142.9,230.2z"/>
	<path class="st0" d="M159.2,230.2h-2.7c0.9,1.3,1.6,2.2,2.2,2.7l-1.4,2c-1.4-1.1-3.1-2.7-4.7-4.7H142v-2.9h8
		c-0.9-1.1-1.4-2-1.8-2.9l-2.9-5.6c-1.3-2.9-2-4.7-2-5.8c0-0.9,0.4-2,1.3-2.9c0.5-0.5,1.6-1.4,3.3-2.7c-0.4,0.9-0.5,1.6-0.5,2.2
		c0,0.4,0.2,1.1,0.5,2.2c0.9,3.4,2.5,7.1,4.5,11.1c0.4,0.7,1.3,2.2,2.5,4.2h4.5v3.3L159.2,230.2z M150.7,236l-2.4,2.7L146,236
		l2.4-2.9L150.7,236z"/>
	<path class="st0" d="M168.1,230.2h-9.8v-2.9h3.1c0-0.7-0.4-2-1.3-4.2c-0.9-2.2-1.3-3.6-1.3-4.3c0-0.9,0.7-2,2-3.3l3.3-2.5
		c-0.5,1.3-0.7,2.2-0.7,3.1c0,0.3,0,0.6,0.2,0.9C163.9,219.1,165.6,223.7,168.1,230.2z M168.3,236.5l-1.4,2.7l-3.1-2.5l-1.4,2.5
		l-3.1-2.7l1.4-2.9l3.1,2.7l1.4-2.7L168.3,236.5z"/>
	<path class="st0" d="M189.3,230.2h-3.1c-0.5,0-2.4,1.8-5.1,5.4s-4.3,5.4-4.7,5.4c-1.4,0-3.6-1.1-6.5-3.4c-2.7-2.2-4.2-3.8-4.2-4.5
		c0-0.4,0.2-0.5,0.4-0.5s1.3,0.9,3.4,2.7c2.2,1.8,3.8,2.7,5.1,2.7c1.6,0,3.1-0.7,4.3-2c-1.4-0.5-2.9-1.6-4.2-3.4
		c-0.7-0.9-1.1-2-1.3-3.3c0-0.5-0.2-1.8-0.2-3.8v-7.8c0-0.7-0.2-1.6-0.4-2.4c-0.4-1.4-1.1-2.4-2-2.9l5.3-5.4v21.7
		c0.2,2.7,0.9,4.5,2.4,5.6c0.5,0.4,0.9,0.7,1.3,0.9c1.4-1.6,2.2-3.1,2.2-4.2c0.2-1.1,0.2-2.2,0.2-3.6v-20.7c0-1.3-0.2-2.2-0.5-3.1
		c-0.2-0.4-0.5-0.9-1.3-1.6l5.1-5.1v30.4h4v2.7h-0.2V230.2z M187.3,240.5c-0.2,0.2-0.3,0.5-0.4,0.7h-6.3l0.4-1.3l0.5,0.4h0.9
		c0-0.4-0.2-0.7-0.5-1.3c-0.2-0.4-0.2-0.7-0.2-1.1s0.7-1.1,2.2-2.4c1.3-1.1,2-1.6,2.4-1.6c-0.9,0.9-1.6,2-2.5,3.3
		c0.2,0.7,0.4,1.3,0.7,1.8c0.5,0.9,1.1,1.3,1.6,1.3h1.3L187.3,240.5L187.3,240.5z"/>
	<path class="st0" d="M194.4,230.2h-6.2v-2.9h2.9v-21.6c0-0.6-0.2-1.3-0.5-1.8l-1.3-1.3l5.3-5.8v33.3h-0.2V230.2z M218.1,230.2h-3.4
		c0.4,0.4,1.1,1.3,2.4,2.7l-1.4,2c-1.4-1.1-3.1-2.7-4.7-4.7h-2.2c-1.3,0-2.5,0.7-3.4,2.2c-1.1,1.4-1.6,2.9-1.6,4.3
		c0,2.2,1.4,4.7,4.2,7.6l-6.2-8.7c0-2.2,0.7-4,2.4-5.8c1.4-1.8,3.3-2.5,4.9-2.5l-2.4-2.9c-3.3-5.8-4.9-9.6-4.9-11.4
		c0-0.9,0.4-2,1.3-2.9c0.5-0.5,1.6-1.4,3.3-2.7c-0.4,0.9-0.5,1.6-0.5,2.2c0,0.4,0.2,1.1,0.4,2c1.1,3.6,2.5,7.2,4.5,11.1
		c0.9,1.8,1.8,3.1,2.5,4.2h5.1L218.1,230.2L218.1,230.2z M210.9,236.5c0,0.6-0.2,1.3-0.5,1.8c-0.4,0.5-0.9,0.7-1.4,0.7
		s-1.1-0.2-1.4-0.7c-0.4-0.5-0.6-1.2-0.5-1.8c0-0.7,0.2-1.3,0.7-1.8c0.4-0.5,0.9-0.7,1.4-0.7s1.1,0.2,1.4,0.7
		C210.5,235.1,210.9,235.8,210.9,236.5L210.9,236.5z"/>
	<path class="st0" d="M227.9,230.2h-10.5v-2.9h3.1c0-0.5-0.5-2-1.4-4.2s-1.4-3.6-1.4-4.2c0-1.3,1.6-3.3,5.1-6
		c-0.5,1.3-0.7,2.2-0.7,3.1c0,0.4,0,0.7,0.2,0.9l4,10.1h1.6L227.9,230.2L227.9,230.2z M227.2,236.5l-1.4,2.7l-3.1-2.5l-1.4,2.5
		l-3.1-2.7l1.4-2.9l3.1,2.7l1.4-2.7L227.2,236.5z"/>
	<path class="st0" d="M238.8,230.2h-11.6v-2.9h4v-20.1c0-1.3-0.2-2.4-0.5-3.1c0-0.2-0.5-0.7-1.3-1.6l5.3-5.6v30.4h4.2L238.8,230.2
		L238.8,230.2z"/>
	<path class="st0" d="M256.9,222H248c0,0.2,0.2,0.5,0.5,0.9c0.4,0.7,1.3,2.2,2.5,4.2h4.2v2.9H253l2,2.7l-1.4,2
		c-1.4-1.1-2.9-2.5-4.7-4.7H238v-2.9h8.7c-0.9-1.3-1.4-2.2-1.8-2.9l-3.4-6.5c-1.1-2.4-1.6-4-1.6-4.7c0-0.9,0.4-2,1.3-2.9
		c0.5-0.5,1.6-1.4,3.3-2.7c-0.4,0.9-0.5,1.6-0.5,2.4c0,0.4,0.2,1.1,0.4,2c0.5,2,1.4,4.5,2.7,7.2h6.3v-13.6c0-1.3-0.2-2-0.5-2.5
		l-1.3-1.3l5.6-5.6v26H256.9z M244,201l-2.2,2.7l-2.4-2.7l2.4-3.1L244,201z"/>
	<g>
		<path id="B_1_" class="st0" d="M271,230.4c0,0.4-0.5,1.1-1.6,1.8c-1.3,0.7-2.5,1.3-4,1.3c-1.6,0-2.9-0.7-3.8-2.2
			c-0.7-1.3-1.1-3.1-1.1-5.1v-23.9c0-1.4-0.2-2.5-0.4-3.3c-0.4-0.9-0.9-1.8-2-2.4l5.6-5.6v35c0,1.6,0.2,2.9,0.4,3.6
			c0.4,1.4,1.4,2.2,2.9,2.2c0.5,0,1.4-0.2,2.4-0.7C270.3,230.5,270.9,230.2,271,230.4C271,230.2,271,230.4,271,230.4L271,230.4z"/>
	</g>
	<path class="st0" d="M298,230.2h-23.7l3.3-5.6c-0.5,0-0.4,0.4,0.5,1.3c0.9,0.9,1.6,1.3,2,1.3h10.5c0-0.7-0.5-2.4-1.4-4.5
		c-0.9-2.2-1.4-3.8-1.4-4.7s0.7-2.2,2-3.4c1.1-1.1,2.2-2,3.4-2.7c-0.5,1.3-0.9,2.4-0.9,3.3c0,0.4,0,0.7,0.2,0.9L298,230.2L298,230.2
		z M285,209.3c0,0.5-0.2,1.1-0.5,1.6s-0.9,0.7-1.3,0.7c-0.5,0-0.9-0.2-1.3-0.7c-0.4-0.4-0.5-0.9-0.5-1.6s0.2-1.3,0.5-1.6
		s0.9-0.7,1.3-0.7c0.5,0,0.9,0.2,1.3,0.7C284.8,208.1,285,208.6,285,209.3z M285,215c0,0.5-0.2,1.1-0.5,1.6s-0.9,0.7-1.3,0.7
		c-0.5,0-0.9-0.2-1.3-0.7c-0.4-0.4-0.5-0.9-0.5-1.6c0-0.5,0.2-1.1,0.5-1.6c0.4-0.4,0.9-0.7,1.3-0.7c0.5,0,0.9,0.2,1.3,0.7
		S285,214.4,285,215z M308.6,230.2h-8.9c1.3-1.3,2-2.7,2-4.3V205c0-0.7-0.5-1.6-1.4-3.1l4.9-5.8l0.4,0.7c-0.5,1.1-0.9,2.7-0.9,4.9
		v19.9c0,1.8-0.2,3.3-0.7,4.2c0,0.2-0.4,0.5-0.7,1.3h5.4L308.6,230.2L308.6,230.2z"/>
	<path class="st0" d="M325.4,230.2h-8l-1.3-1.6l-1.3,1.6h-7.2v-2.9h6.5c-0.5-0.5-2.4-2.9-5.4-6.9l3.4-3.4c0.9-0.7,2.2-2.2,3.8-4.2
		l3.8,4.2l3.4,3.4l-5.4,6.9h7.6L325.4,230.2L325.4,230.2z M317.8,222.7c-0.5-1.1-1.1-1.8-1.8-1.8c-0.5,0-1.1,0.7-1.8,2l1.8,2.4
		L317.8,222.7L317.8,222.7z"/>
	<path class="st0" d="M340.6,230.2h-16.1v-2.9h6.5c-0.5-0.2-1.1-0.5-2-0.9c-2.2-1.1-3.3-2.9-3.3-5.6c0-0.7,0.5-1.8,1.6-3.4
		c1.6-2.4,4-5.1,7.2-8c-0.2,0.5-0.4,1.3-0.7,2.7L340.6,230.2z M331.9,202.3l-2.5,3.1l-2.5-3.1l2.5-3.3L331.9,202.3z M333.7,222.7
		c0-0.5-0.2-0.9-0.5-1.3s-0.7-0.5-1.1-0.5c-1.1,0-1.6,0.5-1.6,1.8s0.5,2,1.6,2c0.4,0,0.7-0.2,1.1-0.5S333.7,223.3,333.7,222.7z
		 M354,230.4c0,0.4-0.5,1.1-1.6,1.8c-1.3,0.7-2.5,1.3-4,1.3c-1.6,0-2.9-0.7-3.8-2.2c-0.7-1.3-1.1-3.1-1.1-5.1v-23.9
		c0-1.4-0.2-2.5-0.4-3.3c-0.4-0.9-0.9-1.8-2-2.4l5.6-5.6v35c0,1.6,0.2,2.9,0.4,3.6c0.4,1.4,1.4,2.2,2.9,2.2c0.5,0,1.4-0.2,2.4-0.7
		C353.3,230.5,353.9,230.2,354,230.4C353.9,230.2,354,230.4,354,230.4z"/>
	<g>
		<path id="C_1_" class="st0" d="M360.7,227.8c0,1.4-0.7,2.9-2,4.3c-0.7,0.9-2,2.2-4.2,4l-7.6,6.7c0-0.5,0.2-0.9,0.5-1.4l5.1-4.7
			c2.5-2.4,3.8-4.2,3.8-5.6c0-0.7-1.3-4-4-9.6c-0.2-0.4-0.2-0.5-0.2-0.9c0-0.5,0.4-1.4,1.3-2.2c0.5-0.5,1.6-1.4,3.4-2.9l-0.5,2.2
			c0,0.4,0,0.7,0.2,1.1c0.2,0.5,0.9,2.2,2.4,4.7L360.7,227.8L360.7,227.8z"/>
	</g>
	<path class="st0" d="M383.4,230.2h-7.8c-3.1,0-5.4-1.1-7.1-3.3c-0.7-1.1-1.1-2.5-1.1-4.3c0-2,0.5-3.6,1.6-4.9l7.4-8.5v2
		c-0.5,0.9-0.9,1.6-0.9,2.2c0,0.4,0,0.5,0.2,0.7l5.4,13.2h2.2L383.4,230.2L383.4,230.2z M374.3,207l-2,3.4l-3.6-3.3l2-3.6l-3.3-3.1
		l1.8-3.6l3.8,3.4l-2,3.4L374.3,207L374.3,207z M376.3,223.7c0-0.5-0.2-1.1-0.5-1.4c-0.4-0.4-0.7-0.5-1.3-0.5
		c-0.5,0-0.9,0.2-1.3,0.5c-0.4,0.4-0.5,0.9-0.5,1.4s0.2,1.1,0.5,1.4c0.4,0.4,0.7,0.5,1.3,0.5c0.5,0,0.9-0.2,1.3-0.5
		C376.2,224.7,376.3,224.4,376.3,223.7z"/>
	<path class="st0" d="M412.6,230.2h-30.1v-2.9h23.6c-0.7-2.2-1.6-3.6-2.9-4.5c-0.9-0.5-2-0.9-3.3-0.9H383l1.8-2.9
		c2.7-1.7,5.2-3.8,7.4-6.2c2.5-2.9,4.3-5.6,5.6-8.2c0.5-1.1,1.1-2.9,2-5.6c0.4,0.9,0.4,2,0.4,3.1c0,3.4-1.1,6.7-3.4,9.4
		c-2.9,3.6-6.2,6.2-9.4,7.8H405c2.2,0,3.8,1.1,5.1,3.3C410.8,223.8,411.5,226.4,412.6,230.2L412.6,230.2z M424.7,230.2h-2.4
		c-0.7,1.4-2.5,3.4-5.4,6l-7.6,6.7c0-0.4,0.2-0.9,0.5-1.4l5.1-4.7c2.5-2.4,3.8-4.2,3.8-5.6c0-0.9-1.3-4-4-9.6
		c-0.2-0.4-0.2-0.5-0.2-0.9c0-0.7,0.4-1.4,1.3-2.2c0.5-0.5,1.6-1.4,3.3-2.9l-0.5,2c0,0.4,0.2,0.7,0.4,1.3c0.5,1.4,1.8,4.2,4.2,8.3
		h1.6L424.7,230.2L424.7,230.2z"/>
	<path class="st0" d="M447.9,229.6c0,0.4,0,0.5-0.2,0.5h-24.1v-2.9h2c0.2,0,0.7-0.4,1.3-0.9l2.5-2.7l0.9,2.4
		c0.4,0.9,1.1,1.4,2.4,1.4h0.5l-1.3-3.8c-0.2-0.4-0.2-0.7-0.2-1.1c0-0.7,0.4-1.4,1.1-2.2l2.7-2.7l2.9,8.2c0.4,1.1,1.3,1.4,2.9,1.4
		l-3.6-10.1v-0.5c0-0.7,0.7-1.8,2.2-3.3l3.1-2.7l-0.5,1.8c-0.2,0.5-0.2,1.1,0,1.6c0.2,0.7,1.1,3.4,2.9,8
		C447.2,226.4,447.9,228.9,447.9,229.6L447.9,229.6z M438.1,205.7l-1.6,3.1l-2.9-2.7L432,209l-3.3-3.1l1.8-3.1l3.1,2.5l1.6-2.7
		L438.1,205.7L438.1,205.7z M434.7,199.7l-1.6,2.9l-3.3-2.9l1.6-3.1L434.7,199.7z M31.1,274.6c0,0.2-0.2,0.4-0.4,0.4H30
		c-1.1,0-1.6,0.2-1.8,0.5s-0.2,1.3-0.2,2.9v1.1c-1.3,1.1-2.4,1.6-3.4,2.2c-1.1,0.4-2.4,0.5-4,0.5c-3.6,0-6.5-1.1-8.7-3.3
		c-2.2-2.2-3.3-5.1-3.3-8.7c0-3.8,1.1-6.7,3.1-9.1c2.2-2.4,4.9-3.4,8.3-3.4c1.4,0,3.1,0.4,4.9,1.3c0.5,0.2,0.9,0.4,1.3,0.4
		s0.7-0.4,0.9-0.9c0.2-0.4,0.2-0.5,0.4-0.5s0.4,0.2,0.4,0.4v0.7c-0.2,1.3-0.2,2.2-0.2,2.7v3.3c0,0.5-0.2,0.9-0.4,0.9
		c-0.2,0-0.4-0.2-0.4-0.5c-0.2-2.2-0.7-4-2-5.3s-2.7-2-4.7-2c-2.4,0-4.3,1.1-5.8,3.3c-1.4,2.2-2.2,5.1-2.2,8.7
		c0,3.4,0.7,6.3,2.2,8.3s3.4,3.1,5.8,3.1c1.8,0,3.1-0.5,3.8-1.6c0.4-0.5,0.5-1.4,0.5-2.9c0-1.1-0.2-1.8-0.4-2
		c-0.2-0.2-0.9-0.4-2.4-0.4h-0.5c-0.2,0-0.2-0.2-0.2-0.2c0-0.2,0.2-0.4,0.7-0.4h8.7C30.9,274.2,31.1,274.4,31.1,274.6L31.1,274.6z
		 M47.8,280.6c0,0.2-0.2,0.2-0.7,0.4c-1.8,0.2-3.4,0.5-4.7,1.1h-0.2c-0.2,0-0.2-0.2-0.2-0.4v-2c-1.1,1.4-2.5,2.2-4.5,2.2
		c-1.6,0-2.9-0.5-3.6-1.4c-0.4-0.4-0.5-0.7-0.5-1.1v-10.5c0-0.7,0-1.3-0.2-1.4c-0.2-0.2-0.4-0.2-0.9-0.2h-0.7c-0.5,0-0.9,0-0.9-0.4
		c0-0.2,0.2-0.2,0.5-0.2s1.1,0,1.8,0.2h0.7c0.7,0,1.6,0,2.2-0.2v9.4c0,1.8,0.2,2.9,0.4,3.4c0.4,0.9,1.1,1.3,2.2,1.3
		c1.3,0,2.2-0.5,2.7-1.4c0.4-0.7,0.5-1.8,0.5-3.4v-5.3c0-0.7,0-1.3-0.2-1.8v-1.1c0-0.4-0.2-0.5-0.2-0.5h-0.7c-0.9,0-1.4,0-1.4-0.4
		c0-0.2,0.2-0.2,0.7-0.2h4.7v9.6c0,1.6,0,2.7,0.2,3.1c0,0.4,0.2,0.7,0.5,0.7s0.9,0.2,2,0.2C47.6,280.4,47.8,280.4,47.8,280.6
		L47.8,280.6z M55.4,281.5c0,0.2-0.2,0.4-0.4,0.4h-6.3c-0.4,0-0.5,0-0.5-0.4c0-0.2,0.2-0.2,0.4-0.2h0.9c0.7,0,0.9-0.2,0.9-0.4v-21.4
		c0-0.2-0.2-0.4-0.5-0.4h-1.3c-0.4,0-0.5-0.2-0.5-0.4c0-0.2,0.4-0.2,0.9-0.4c1.1,0,2.2-0.4,3.1-0.7l1.1-0.5c0.2,0.7,0.2,1.6,0.2,3.1
		v20.5c0,0.2,0.2,0.2,0.2,0.2h1.3C55,281.3,55.4,281.3,55.4,281.5L55.4,281.5z M68.3,260.3c0,0.5-0.2,0.9-0.4,1.3
		c-0.4,0.4-0.7,0.5-1.1,0.5s-0.7-0.2-1.1-0.4c-0.4-0.4-0.4-0.5-0.4-1.1c0-0.4,0.2-0.7,0.4-1.3c0-0.2,0.2-0.2,0.2-0.4
		c0-0.5-0.4-0.7-1.1-0.7c-1.3,0-2.2,0.9-2.5,2.5c-0.2,0.9-0.4,2.4-0.4,4.5v1.6h2.4c0.5,0,0.7,0.2,0.7,0.4s-0.4,0.4-0.9,0.4h-2V281
		c0,0.4,0.4,0.5,0.9,0.5c0.9,0,1.4,0,1.6,0.2v0.2c0,0.2-0.2,0.2-0.4,0.2h-7.4c-0.4,0-0.5,0-0.5-0.2s0.2-0.4,0.5-0.4
		c1.3,0,1.8,0,2-0.2v-13.6h-1.4c-0.2,0-0.2-0.2-0.2-0.4c0-0.2,0.2-0.4,0.5-0.4h0.9c0.2-2.9,0.5-5.1,1.3-6.3c1.1-2,2.7-2.9,4.7-2.9
		c1.1,0,1.8,0.2,2.5,0.7C67.9,258.8,68.3,259.4,68.3,260.3L68.3,260.3z M90.6,279.1c0,0.5,0,1.6-0.2,2.9h-3.3l-14.5-0.2
		c-0.4,0-0.5-0.2-0.5-0.4c0-0.2,0.4-0.2,0.9-0.4c0.9,0,1.4-0.2,1.6-0.4c0.2-0.2,0.2-0.5,0.2-1.3v-19.2c0-0.9,0-1.3-0.2-1.4
		c-0.2-0.2-0.7-0.2-1.8-0.2c-0.4,0-0.7-0.2-0.7-0.4c0-0.2,0.2-0.4,0.4-0.4h0.4l4.5,0.2h3.1c0.4,0,0.5,0.2,0.5,0.4
		c0,0.2,0,0.2-0.2,0.2h-1.3c-0.7,0-1.1,0.2-1.3,0.4s-0.2,0.7-0.2,1.8V281h2.5c2.7,0,4.7-0.2,5.8-0.4c1.1-0.4,1.8-0.7,2.2-1.6
		c0.4-0.7,0.5-1.8,0.7-3.1c0-0.4,0.2-0.4,0.4-0.4c0.4,0,0.4,0.2,0.4,0.5v2.9L90.6,279.1z M99.3,281.5c0,0.2-0.2,0.4-0.5,0.4h-6.3
		c-0.2,0.2-0.2,0.2-0.4,0.2c-0.2,0-0.4,0-0.4-0.2s0.2-0.4,0.7-0.4c0.9,0,1.4,0,1.4-0.2s0.2-0.5,0.2-1.4v-11.4c0-0.2-0.2-0.2-0.4-0.2
		h-1.4c-0.2,0-0.4,0-0.4-0.2s0.2-0.2,0.5-0.2c1.4,0,2.9-0.4,4-1.1l0.4-0.2c0.2,0.4,0.4,0.9,0.4,1.8v12.5c0,0.2,0.2,0.2,0.4,0.4
		c0.4,0.2,0.9,0.2,1.4,0.2C99.1,281.3,99.3,281.3,99.3,281.5z M96.7,260.3c0,1.1-0.5,1.6-1.6,1.6c-0.4,0-0.7-0.2-1.1-0.4
		c-0.4-0.4-0.4-0.5-0.4-1.1c0-1.1,0.5-1.6,1.6-1.6C96.2,258.6,96.7,259.2,96.7,260.3L96.7,260.3z M112.1,260.3
		c0,0.5-0.2,0.9-0.4,1.3c-0.4,0.4-0.7,0.5-1.1,0.5s-0.7-0.2-1.1-0.4c-0.4-0.4-0.4-0.5-0.4-1.1c0-0.4,0.2-0.7,0.4-1.3
		c0-0.2,0.2-0.2,0.2-0.4c0-0.5-0.4-0.7-1.1-0.7c-1.3,0-2.2,0.9-2.5,2.5c-0.2,0.9-0.4,2.4-0.4,4.5v1.6h2.4c0.5,0,0.7,0.2,0.7,0.4
		s-0.4,0.4-0.9,0.4h-2V281c0,0.4,0.4,0.5,0.9,0.5c0.9,0,1.4,0,1.6,0.2v0.2c0,0.2-0.2,0.2-0.4,0.2h-7.1c-0.4,0-0.5,0-0.5-0.2
		s0.2-0.4,0.5-0.4c1.3,0,1.8,0,2-0.2v-13.6h-1.4c-0.2,0-0.2-0.2-0.2-0.4c0-0.2,0.2-0.4,0.5-0.4h1.1c0.2-2.9,0.5-5.1,1.3-6.3
		c1.1-2,2.7-2.9,4.7-2.9c1.1,0,1.8,0.2,2.5,0.7C111.8,258.8,112.1,259.4,112.1,260.3L112.1,260.3z M119.4,279.6
		c0,0.2-0.4,0.5-0.9,1.1c-1.1,0.9-2.2,1.3-3.6,1.3c-1.3,0-2.2-0.4-2.9-0.9c-0.4-0.4-0.5-1.4-0.5-3.3v-10.1c0-0.2-0.2-0.4-0.4-0.4
		h-1.3c-0.5,0-0.7,0-0.7-0.2s0.2-0.2,0.4-0.4c1.8-0.2,3.3-1.1,4.2-2.7c0.2-0.2,0.4-0.4,0.5-0.4c0.2,0,0.2,0,0.2,0.2v0.7
		c0,0.9,0,1.6,0.2,1.8h1.1c1.3,0,2.2,0,2.5-0.2h0.2c0.2,0,0.4,0.2,0.4,0.4c0,0.4-0.9,0.5-2.9,0.5h-1.4v6.3l0.2,6
		c0.2,0.7,0.7,1.3,1.6,1.3c0.7,0,1.6-0.4,2.5-1.3c0.2-0.2,0.2-0.2,0.4-0.2L119.4,279.6L119.4,279.6z"/>
	<g>
		<path id="D" class="st0" d="M127,281.5c0,0.2-0.2,0.4-0.5,0.4h-6.3c-0.2,0.2-0.2,0.2-0.4,0.2c-0.2,0-0.4,0-0.4-0.2
			s0.2-0.4,0.7-0.4c0.9,0,1.4,0,1.4-0.2s0.2-0.5,0.2-1.4v-11.4c0-0.2-0.2-0.2-0.4-0.2h-1.4c-0.2,0-0.4,0-0.4-0.2s0.2-0.2,0.5-0.2
			c1.4,0,2.9-0.4,4-1.1l0.4-0.2c0.2,0.4,0.4,0.9,0.4,1.8v12.5c0,0.2,0.2,0.2,0.4,0.4c0.4,0.2,0.9,0.2,1.4,0.2
			C127,281.3,127,281.3,127,281.5z M124.4,260.3c0,1.1-0.5,1.6-1.6,1.6c-0.4,0-0.7-0.2-1.1-0.4c-0.4-0.4-0.4-0.5-0.4-1.1
			c0-1.1,0.5-1.6,1.6-1.6C123.9,258.6,124.4,259.2,124.4,260.3L124.4,260.3z"/>
	</g>
	<path class="st0" d="M144.2,281.5c0,0.2-0.2,0.2-0.5,0.2h-6.2c-0.4,0-0.4,0-0.4-0.2s0-0.2,0.2-0.2h1.3c0.4,0,0.7,0,0.7-0.2
		s0.2-0.5,0.2-1.1v-6.5c0-2.5-0.2-4-0.4-4.5c-0.4-1.1-1.3-1.4-2.4-1.4s-2.2,0.5-2.9,1.4c-0.2,0.4-0.4,0.7-0.4,1.3V281
		c0,0.4,0.2,0.4,0.7,0.4h1.1c0.2,0,0.4,0,0.4,0.2s-0.2,0.2-0.4,0.2H129c-0.4,0-0.5,0-0.5-0.2s0.2-0.2,0.5-0.2h0.9
		c0.4,0,0.5,0,0.5-0.2l0.2-0.5v-11.8c0-0.4-0.4-0.4-0.9-0.4h-1.1c-0.5,0-0.7,0-0.7-0.2s0.2-0.4,0.7-0.4c0.7,0,1.4-0.2,2.2-0.4
		c0.7-0.2,1.4-0.5,1.6-0.7c0.2-0.2,0.4-0.4,0.5-0.4s0.2,0.2,0.2,0.7v1.6c1.3-1.4,2.7-2.4,4.7-2.4c1.6,0,2.9,0.5,3.6,1.8
		c0.4,0.7,0.5,2,0.5,4v7.8c0,0.7,0,1.1,0.2,1.3c0.2,0.2,0.5,0.2,1.1,0.2h0.5C144.2,281.3,144.2,281.5,144.2,281.5L144.2,281.5z"/>
	<path class="st0" d="M161.4,268.4c0,1.1-0.5,1.6-1.4,1.6c-0.4,0-0.5-0.2-0.9-0.4c-0.2-0.2-0.3-0.5-0.4-0.7c0-0.2,0-0.2,0.2-0.4
		c0-0.2,0.2-0.4,0.2-0.5c0-0.4-0.2-0.4-0.5-0.4c-0.4,0-0.5,0.2-0.7,0.4c-0.2,0.4-0.4,0.5-0.4,0.9c0,0,0,0.5,0.2,1.1
		c0.2,0.7,0.2,1.3,0.2,1.6c0,1.6-0.5,2.9-1.6,4s-2.4,1.6-4,1.6c-0.4,0-1.3-0.2-2.4-0.5c-0.4-0.2-0.5-0.2-0.5-0.2
		c-0.5,0-0.9,0.2-1.3,0.5c-0.4,0.4-0.5,0.7-0.5,1.3c0,1.3,0.7,1.8,2.2,1.8c0.5,0,1.4-0.2,2.7-0.4c0.9-0.2,1.8-0.2,2.5-0.2
		c1.4,0,2.5,0.4,3.3,1.1c0.7,0.7,1.3,1.8,1.3,3.1c0,2-0.9,3.6-2.5,4.9s-3.8,2-6.5,2c-2,0-3.4-0.4-4.5-1.1s-1.6-1.8-1.6-3.1
		s0.5-2.4,1.4-2.9c0.5-0.4,1.3-0.5,2.4-0.9c-1.6-0.7-2.5-1.6-2.5-2.9c0-1.6,1.1-2.7,3.3-3.4c-1.4-1.1-2.2-2.5-2.2-4.2
		c0-1.6,0.5-2.9,1.6-4c1.1-0.9,2.5-1.4,4.2-1.4c0.9,0,1.6,0.2,2.4,0.4c0.5,0.2,1.3,0.7,2,1.4c0.7-1.1,1.6-1.6,2.7-1.6
		C160.9,266.6,161.4,267.3,161.4,268.4z M157.6,284.9c0-1.8-1.1-2.9-3.4-2.9c-0.7,0-1.6,0.2-2.9,0.4l-2.9,0.4
		c-1.3,0.5-1.8,1.6-1.8,3.3c0,1.1,0.4,2.2,1.3,2.7c0.9,0.7,2,1.1,3.3,1.1c1.8,0,3.3-0.5,4.3-1.4
		C157.1,287.4,157.6,286.4,157.6,284.9L157.6,284.9z M155.1,271.9c0-3.3-0.9-4.9-2.7-4.9s-2.7,1.6-2.7,4.7c0,3.4,0.9,5.3,2.9,5.3
		C154.2,276.8,155.1,275.1,155.1,271.9z M185.9,263.7c0,0.4-0.2,0.5-0.4,0.5s-0.4-0.4-0.5-0.9c-0.4-1.6-0.9-2.9-1.6-3.6
		c-0.5-0.5-1.4-0.7-2.5-0.9h-2.7l-3.8,0.2v10.1c2.9,0,4.7-0.2,5.4-0.5c0.7-0.4,1.1-1.4,1.3-3.4c0-0.5,0.2-0.7,0.4-0.7
		s0.4,0.2,0.4,0.5v0.5l-0.2,4.3l0.2,4.2v0.4c0,0.4-0.2,0.4-0.4,0.4s-0.4,0-0.4-0.2s-0.2-0.7-0.2-1.6c-0.2-1.4-0.5-2.2-1.1-2.5
		s-1.6-0.5-3.3-0.5h-2.2v10c0,0.7,0.2,1.1,0.7,1.3c0.2,0.2,0.7,0.2,1.6,0.2c0.4,0,0.5,0.2,0.5,0.4c0,0.2-0.2,0.4-0.7,0.4h-8
		c-0.4,0-0.7-0.2-0.7-0.4c0-0.2,0.4-0.4,1.3-0.4c0.7,0,1.3-0.2,1.4-0.4c0.2-0.2,0.2-0.7,0.2-1.6v-19.8c0-0.4-0.2-0.7-0.4-0.7
		c-0.2-0.2-0.9-0.2-1.8-0.2c-0.4,0-0.5-0.2-0.5-0.4s0.2-0.4,0.5-0.4h9.6l7.2-0.2c0,0.4,0.2,1.1,0.2,2.5c0,0.9,0.2,1.8,0.4,2.5v0.9
		H185.9z M194.4,281.5c0,0.2-0.2,0.4-0.5,0.4h-6.3c-0.2,0.2-0.2,0.2-0.4,0.2s-0.4,0-0.4-0.2s0.2-0.4,0.7-0.4c0.9,0,1.4,0,1.4-0.2
		s0.2-0.5,0.2-1.4v-11.4c0-0.2-0.2-0.2-0.4-0.2h-1.4c-0.2,0-0.4,0-0.4-0.2s0.2-0.2,0.5-0.2c1.4,0,2.9-0.4,4-1.1l0.4-0.2
		c0.2,0.4,0.4,0.9,0.4,1.8v12.5c0,0.2,0.2,0.2,0.4,0.4c0.4,0.2,0.9,0.2,1.4,0.2C194.2,281.3,194.4,281.3,194.4,281.5z M191.7,260.3
		c0,1.1-0.5,1.6-1.6,1.6c-0.4,0-0.7-0.2-1.1-0.4c-0.4-0.4-0.4-0.5-0.4-1.1c0-1.1,0.5-1.6,1.6-1.6
		C191.3,258.6,191.7,259.2,191.7,260.3L191.7,260.3z"/>
	<g>
		<path id="E" class="st0" d="M211.6,281.5c0,0.2-0.2,0.2-0.5,0.2h-6.2c-0.4,0-0.4,0-0.4-0.2s0-0.2,0.2-0.2h1.3c0.4,0,0.7,0,0.7-0.2
			s0.2-0.5,0.2-1.1v-6.5c0-2.5-0.2-4-0.4-4.5c-0.4-1.1-1.3-1.4-2.4-1.4s-2.2,0.5-2.9,1.4c-0.2,0.4-0.4,0.7-0.4,1.3V281
			c0,0.4,0.2,0.4,0.7,0.4h1.1c0.2,0,0.4,0,0.4,0.2s-0.2,0.2-0.4,0.2h-6.5c-0.4,0-0.5,0-0.5-0.2s0.2-0.2,0.5-0.2h0.9
			c0.4,0,0.5,0,0.5-0.2l0.2-0.5v-11.8c0-0.4-0.4-0.4-0.9-0.4h-1.1c-0.5,0-0.7,0-0.7-0.2s0.2-0.4,0.7-0.4c0.7,0,1.4-0.2,2.2-0.4
			c0.7-0.2,1.4-0.5,1.6-0.7c0.2-0.2,0.4-0.4,0.5-0.4c0.2,0,0.2,0.2,0.2,0.7v1.6c1.3-1.4,2.7-2.4,4.7-2.4c1.6,0,2.9,0.5,3.6,1.8
			c0.4,0.7,0.5,2,0.5,4v7.8c0,0.7,0,1.1,0.2,1.3c0.2,0.2,0.5,0.2,1.1,0.2h0.5C211.4,281.3,211.6,281.5,211.6,281.5L211.6,281.5z"/>
	</g>
	<path class="st0" d="M226.6,280.2c0,0.4-0.4,0.7-1.3,1.3c-0.9,0.4-1.6,0.5-2.4,0.5c-1.6,0-2.4-0.7-2.5-2.4
		c-0.9,1.6-2.2,2.5-4.2,2.5c-0.9,0-1.8-0.4-2.5-0.9s-0.9-1.3-0.9-2.2c0-1.8,1.1-3.4,3.4-4.5c0.7-0.4,2.2-0.7,4-1.1v-0.9
		c0-2-0.2-3.3-0.4-4c-0.3-1.1-1.4-1.9-2.5-1.8c-0.7,0-1.4,0.2-2,0.7c-0.5,0.4-0.9,0.9-0.9,1.6c0,0.2,0.2,0.4,0.4,0.4
		c0.4,0,0.5,0.2,0.7,0.4c0.2,0.4,0.4,0.5,0.4,0.9c0,1.1-0.5,1.4-1.4,1.4c-0.5,0-0.9-0.2-1.3-0.5s-0.5-0.7-0.5-1.3
		c0-1.1,0.4-2,1.3-2.7c0.9-0.9,2.4-1.3,4-1.3c2.5,0,4.2,0.7,4.7,2c0.2,0.5,0.4,1.6,0.4,3.1v8.2c0.2,0.9,0.4,1.3,1.1,1.3
		c0.7,0,1.3-0.2,1.6-0.7c0.2-0.2,0.4-0.4,0.5-0.4C226.5,280,226.6,280,226.6,280.2L226.6,280.2z M220.5,276.6V274
		c-1.6,0.4-2.9,0.9-3.6,1.4c-0.7,0.5-1.1,1.4-1.1,2.5c0,0.6,0.2,1.3,0.5,1.8c0.4,0.5,0.9,0.7,1.6,0.7c0.9,0,1.8-0.5,2.4-1.6
		C220.3,278.7,220.5,277.8,220.5,276.6z"/>
	<g>
		<path id="E_1_" class="st0" d="M242.4,281.5c0,0.2-0.2,0.2-0.5,0.2h-6.2c-0.4,0-0.4,0-0.4-0.2s0-0.2,0.2-0.2h1.3
			c0.4,0,0.7,0,0.7-0.2s0.2-0.5,0.2-1.1v-6.5c0-2.5-0.2-4-0.4-4.5c-0.4-1.1-1.3-1.4-2.4-1.4s-2.2,0.5-2.9,1.4
			c-0.2,0.4-0.4,0.7-0.4,1.3V281c0,0.4,0.2,0.4,0.7,0.4h1.1c0.2,0,0.4,0,0.4,0.2s-0.2,0.2-0.4,0.2H227c-0.4,0-0.5,0-0.5-0.2
			s0.2-0.2,0.5-0.2h0.9c0.4,0,0.5,0,0.5-0.2l0.2-0.5v-11.8c0-0.4-0.4-0.4-0.9-0.4h-1.1c-0.5,0-0.7,0-0.7-0.2s0.2-0.4,0.7-0.4
			c0.7,0,1.4-0.2,2.2-0.4c0.7-0.2,1.4-0.5,1.6-0.7c0.2-0.2,0.4-0.4,0.5-0.4s0.2,0.2,0.2,0.7v1.6c1.3-1.4,2.7-2.4,4.7-2.4
			c1.6,0,2.9,0.5,3.6,1.8c0.4,0.7,0.5,2,0.5,4v7.8c0,0.7,0,1.1,0.2,1.3c0.2,0.2,0.5,0.2,1.1,0.2h0.5
			C242.2,281.3,242.4,281.5,242.4,281.5L242.4,281.5z"/>
	</g>
	<path class="st0" d="M256.2,269.9c0,1.1-0.5,1.6-1.6,1.6s-1.4-0.5-1.4-1.4c0-0.2,0.2-0.5,0.4-1.1c0-0.2,0.2-0.4,0.2-0.5
		c0-0.5-0.2-0.9-0.7-1.1c-0.5-0.4-1.1-0.4-1.8-0.4c-1.4,0-2.5,0.5-3.3,1.8c-0.7,1.3-1.1,2.9-1.1,5.1c0,2.4,0.4,4.3,1.3,5.6
		c0.7,1.3,1.8,2,3.3,2c0.9,0,1.8-0.4,2.5-0.9c0.4-0.4,0.7-0.7,1.3-1.6c0.2-0.2,0.2-0.2,0.4-0.2s0.4,0.2,0.4,0.4
		c0,0.4-0.4,0.9-1.3,1.6c-1.1,1.1-2.4,1.6-4,1.6c-2,0-3.8-0.7-5.1-2.2c-1.3-1.4-2-3.3-2-5.4c0-2.4,0.7-4.3,2.2-5.8
		c1.3-1.5,3.2-2.4,5.3-2.4c1.4,0,2.5,0.4,3.6,1.1C255.6,268.2,256.2,269,256.2,269.9L256.2,269.9z M265.1,281.5
		c0,0.2-0.2,0.4-0.5,0.4h-6.3c-0.2,0.2-0.2,0.2-0.4,0.2c-0.2,0-0.4,0-0.4-0.2s0.2-0.4,0.7-0.4c0.9,0,1.4,0,1.4-0.2s0.2-0.5,0.2-1.4
		v-11.4c0-0.2-0.2-0.2-0.4-0.2H258c-0.2,0-0.4,0-0.4-0.2s0.2-0.2,0.5-0.2c1.4,0,2.9-0.4,4-1.1l0.4-0.2c0.2,0.4,0.4,0.9,0.4,1.8v12.5
		c0,0.2,0.2,0.2,0.4,0.4c0.4,0.2,0.9,0.2,1.4,0.2C264.9,281.3,265.1,281.3,265.1,281.5z M262.5,260.3c0,1.1-0.5,1.6-1.6,1.6
		c-0.4,0-0.7-0.2-1.1-0.4c-0.4-0.4-0.4-0.5-0.4-1.1c0-1.1,0.5-1.6,1.6-1.6C262,258.6,262.5,259.2,262.5,260.3L262.5,260.3z
		 M280.3,280.2c0,0.4-0.4,0.7-1.3,1.3c-0.9,0.4-1.6,0.5-2.4,0.5c-1.6,0-2.4-0.7-2.5-2.4c-0.9,1.6-2.2,2.5-4.2,2.5
		c-0.9,0-1.8-0.4-2.5-0.9s-0.9-1.3-0.9-2.2c0-1.8,1.1-3.4,3.4-4.5c0.7-0.4,2.2-0.7,4-1.1v-0.9c0-2-0.2-3.3-0.4-4
		c-0.3-1.1-1.4-1.9-2.5-1.8c-0.7,0-1.4,0.2-2,0.7c-0.5,0.4-0.9,0.9-0.9,1.6c0,0.2,0.2,0.4,0.4,0.4c0.4,0,0.5,0.2,0.7,0.4
		c0.2,0.4,0.4,0.5,0.4,0.9c0,1.1-0.5,1.4-1.4,1.4c-0.5,0-0.9-0.2-1.3-0.5c-0.4-0.4-0.5-0.7-0.5-1.3c0-1.1,0.4-2,1.3-2.7
		c0.9-0.9,2.4-1.3,4-1.3c2.5,0,4.2,0.7,4.7,2c0.2,0.5,0.4,1.6,0.4,3.1v8.2c0.2,0.9,0.4,1.3,1.1,1.3s1.3-0.2,1.6-0.7
		c0.2-0.2,0.4-0.4,0.5-0.4C280.3,280,280.3,280,280.3,280.2L280.3,280.2z M274.1,276.6V274c-1.6,0.4-2.9,0.9-3.6,1.4
		s-1.1,1.4-1.1,2.5c0,0.6,0.2,1.3,0.5,1.8c0.4,0.5,0.9,0.7,1.6,0.7c0.9,0,1.8-0.5,2.4-1.6C274.1,278.7,274.1,277.8,274.1,276.6z"/>
	<path class="st0" d="M287,281.5c0,0.2-0.2,0.4-0.4,0.4h-6.3c-0.4,0-0.5,0-0.5-0.4c0-0.2,0.2-0.2,0.4-0.2h0.9c0.7,0,0.9-0.2,0.9-0.4
		v-21.4c0-0.2-0.2-0.4-0.5-0.4h-1.3c-0.4,0-0.5-0.2-0.5-0.4c0-0.2,0.4-0.2,0.9-0.4c1.1,0,2.2-0.4,3.1-0.7l1.1-0.5
		c0.2,0.7,0.2,1.6,0.2,3.1v20.5c0,0.2,0.2,0.2,0.2,0.2h1.3C286.8,281.3,287,281.3,287,281.5L287,281.5z M313.1,279.1
		c0,0.5,0,1.6-0.2,2.9h-3.3l-14.5-0.2c-0.4,0-0.5-0.2-0.5-0.4c0-0.2,0.4-0.2,0.9-0.4c0.9,0,1.4-0.2,1.6-0.4c0.2-0.2,0.2-0.5,0.2-1.3
		v-19.2c0-0.9,0-1.3-0.2-1.4c-0.2-0.2-0.7-0.2-1.8-0.2c-0.4,0-0.7-0.2-0.7-0.4s0.2-0.4,0.4-0.4h0.4l4.5,0.2h3.1
		c0.4,0,0.5,0.2,0.5,0.4c0,0.2,0,0.2-0.2,0.2H302c-0.7,0-1.1,0.2-1.3,0.4c-0.2,0.2-0.2,0.7-0.2,1.8V281h2.5c2.7,0,4.7-0.2,5.8-0.4
		c1.1-0.4,1.8-0.7,2.2-1.6c0.4-0.7,0.5-1.8,0.7-3.1c0-0.4,0.2-0.4,0.4-0.4c0.4,0,0.4,0.2,0.4,0.5v2.9L313.1,279.1z M327.4,278
		c0,0.2-0.2,0.5-0.5,1.3c-0.4,0.5-0.7,1.1-1.1,1.4c-1.1,1.1-2.4,1.4-4,1.4c-2.2,0-3.8-0.7-5.3-2.2c-1.4-1.4-2.2-3.3-2.2-5.4
		s0.7-4.2,2-5.8c1.3-1.4,3.1-2.4,5.1-2.4c1.6,0,3.1,0.5,4.2,1.4s1.6,2.2,1.8,3.6c-0.7,0.2-1.8,0.2-2.9,0.2h-2.4l-4.2,0.2
		c-0.2,0.7-0.2,1.4-0.2,2.2c0,2.4,0.4,4,1.3,5.3s2.2,1.8,3.8,1.8c0.9,0,1.6-0.2,2.2-0.5c0.5-0.4,1.1-1.3,1.8-2.4
		c0.2-0.2,0.2-0.4,0.4-0.4C327.4,277.8,327.4,277.8,327.4,278z M324.5,271c-0.2-2.7-1.1-4.2-2.9-4.2s-3.1,1.4-3.4,4.2H324.5z
		 M343.4,280.2c0,0.4-0.4,0.7-1.3,1.3c-0.9,0.4-1.6,0.5-2.4,0.5c-1.6,0-2.4-0.7-2.5-2.4c-0.9,1.6-2.2,2.5-4.2,2.5
		c-0.9,0-1.8-0.4-2.5-0.9s-0.9-1.3-0.9-2.2c0-1.8,1.1-3.4,3.4-4.5c0.7-0.4,2.2-0.7,4-1.1v-0.9c0-2-0.2-3.3-0.4-4
		c-0.3-1.1-1.4-1.9-2.5-1.8c-0.7,0-1.4,0.2-2,0.7c-0.5,0.4-0.9,0.9-0.9,1.6c0,0.2,0.2,0.4,0.4,0.4c0.4,0,0.5,0.2,0.7,0.4
		c0.2,0.4,0.4,0.5,0.4,0.9c0,1.1-0.5,1.4-1.4,1.4c-0.5,0-0.9-0.2-1.3-0.5c-0.4-0.4-0.5-0.7-0.5-1.3c0-1.1,0.4-2,1.3-2.7
		c0.9-0.9,2.4-1.3,4-1.3c2.5,0,4.2,0.7,4.7,2c0.2,0.5,0.4,1.6,0.4,3.1v8.2c0.2,0.9,0.4,1.3,1.1,1.3s1.3-0.2,1.6-0.7
		c0.2-0.2,0.4-0.4,0.5-0.4C343.2,280,343.4,280,343.4,280.2L343.4,280.2z M337.2,276.6V274c-1.6,0.4-2.9,0.9-3.6,1.4
		s-1.1,1.4-1.1,2.5c0,0.6,0.2,1.3,0.5,1.8c0.4,0.5,0.9,0.7,1.6,0.7c0.9,0,1.8-0.5,2.4-1.6C337.2,278.7,337.2,277.8,337.2,276.6z
		 M353.9,277.3c0,1.3-0.5,2.5-1.4,3.4s-2.2,1.4-3.4,1.4c-0.7,0-1.8-0.4-2.9-0.9c-0.4-0.2-0.5-0.2-0.7-0.2c-0.4,0-0.5,0.2-0.7,0.7
		c-0.2,0.4-0.2,0.4-0.4,0.4c-0.2,0-0.2-0.2-0.2-0.4v-4.5c0-0.2,0-0.4,0.2-0.4s0.4,0.2,0.4,0.4c0.2,1.1,0.4,1.8,0.9,2.5
		c0.9,1.3,2.2,1.8,3.8,1.8c0.9,0,1.4-0.2,2-0.7c0.5-0.5,0.7-1.1,0.7-2s-0.4-1.6-0.9-2.2c-0.4-0.4-0.5-0.5-0.9-0.7
		c-0.2-0.2-1.1-0.4-2.4-0.9c-2.5-0.9-3.8-2.4-3.8-4.3c0-1.3,0.4-2.4,1.3-3.3s2-1.3,3.3-1.3c0.5,0,1.1,0.2,2,0.4
		c0.2,0,0.4,0.2,0.5,0.2c0.5,0,0.7-0.2,0.9-0.7c0-0.2,0.2-0.4,0.4-0.4c0.2,0,0.2,0.2,0.2,0.4v1.6c0,0.9,0.1,1.8,0.2,2.7l0,0
		c0,0.2-0.2,0.4-0.4,0.4c-0.2,0-0.4-0.4-0.5-1.1c-0.2-0.9-0.7-1.4-1.3-2c-0.6-0.5-1.4-0.7-2.2-0.7c-0.7,0-1.4,0.2-2,0.7
		c-0.5,0.5-0.7,1.1-0.7,1.8c0,1.1,0.7,2,2.4,2.5c2.4,0.9,4,1.6,4.5,2.4C353.5,275.3,353.9,276.2,353.9,277.3L353.9,277.3z"/>
	<g>
		<path id="D_1_" class="st0" d="M363.1,281.5c0,0.2-0.2,0.4-0.5,0.4h-6.3c-0.2,0.2-0.2,0.2-0.4,0.2s-0.4,0-0.4-0.2s0.2-0.4,0.7-0.4
			c0.9,0,1.4,0,1.4-0.2s0.2-0.5,0.2-1.4v-11.4c0-0.2-0.2-0.2-0.4-0.2H356c-0.2,0-0.4,0-0.4-0.2s0.2-0.2,0.5-0.2c1.4,0,2.9-0.4,4-1.1
			l0.4-0.2c0.2,0.4,0.4,0.9,0.4,1.8v12.5c0,0.2,0.2,0.2,0.4,0.4c0.4,0.2,0.9,0.2,1.4,0.2C363.1,281.3,363.1,281.3,363.1,281.5z
			 M360.6,260.3c0,1.1-0.5,1.6-1.6,1.6c-0.4,0-0.7-0.2-1.1-0.4c-0.4-0.4-0.4-0.5-0.4-1.1c0-1.1,0.5-1.6,1.6-1.6
			C360,258.6,360.6,259.2,360.6,260.3L360.6,260.3z"/>
	</g>
	<path class="st0" d="M380.3,281.5c0,0.2-0.2,0.2-0.5,0.2h-6.2c-0.4,0-0.4,0-0.4-0.2s0-0.2,0.2-0.2h1.3c0.4,0,0.7,0,0.7-0.2
		s0.2-0.5,0.2-1.1v-6.5c0-2.5-0.2-4-0.4-4.5c-0.4-1.1-1.3-1.4-2.4-1.4s-2.2,0.5-2.9,1.4c-0.2,0.4-0.4,0.7-0.4,1.3V281
		c0,0.4,0.2,0.4,0.7,0.4h1.1c0.2,0,0.4,0,0.4,0.2s-0.2,0.2-0.4,0.2h-6.5c-0.4,0-0.5,0-0.5-0.2s0.2-0.2,0.5-0.2h0.9
		c0.4,0,0.5,0,0.5-0.2l0.2-0.5v-11.8c0-0.4-0.4-0.4-0.9-0.4h-1.1c-0.5,0-0.7,0-0.7-0.2s0.2-0.4,0.7-0.4c0.7,0,1.4-0.2,2.2-0.4
		c0.7-0.2,1.4-0.5,1.6-0.7s0.4-0.4,0.5-0.4c0.2,0,0.2,0.2,0.2,0.7v1.6c1.3-1.4,2.7-2.4,4.7-2.4c1.6,0,2.9,0.5,3.6,1.8
		c0.4,0.7,0.5,2,0.5,4v7.8c0,0.7,0,1.1,0.2,1.3c0.2,0.2,0.5,0.2,1.1,0.2h0.5C380.3,281.3,380.3,281.5,380.3,281.5L380.3,281.5z
		 M397.5,268.4c0,1.1-0.5,1.6-1.4,1.6c-0.4,0-0.5-0.2-0.9-0.4c-0.2-0.2-0.3-0.5-0.4-0.7c0-0.2,0-0.2,0.2-0.4c0-0.2,0.2-0.4,0.2-0.5
		c0-0.4-0.2-0.4-0.5-0.4s-0.5,0.2-0.7,0.4c-0.2,0.4-0.4,0.5-0.4,0.9c0,0,0,0.5,0.2,1.1c0.2,0.7,0.2,1.3,0.2,1.6c0,1.6-0.5,2.9-1.6,4
		s-2.4,1.6-4,1.6c-0.4,0-1.3-0.2-2.4-0.5c-0.4-0.2-0.5-0.2-0.5-0.2c-0.5,0-0.9,0.2-1.3,0.5c-0.4,0.4-0.5,0.7-0.5,1.3
		c0,1.3,0.7,1.8,2.2,1.8c0.5,0,1.4-0.2,2.7-0.4c0.9-0.2,1.8-0.2,2.5-0.2c1.4,0,2.5,0.4,3.3,1.1s1.3,1.8,1.3,3.1c0,2-0.9,3.6-2.5,4.9
		s-3.8,2-6.5,2c-2,0-3.4-0.4-4.5-1.1s-1.6-1.8-1.6-3.1s0.5-2.4,1.4-2.9c0.5-0.4,1.3-0.5,2.4-0.9c-1.6-0.7-2.5-1.6-2.5-2.9
		c0-1.6,1.1-2.7,3.3-3.4c-1.4-1.1-2.2-2.5-2.2-4.2c0-1.6,0.5-2.9,1.6-4c1.1-0.9,2.5-1.4,4.2-1.4c0.9,0,1.6,0.2,2.4,0.4
		c0.5,0.2,1.3,0.7,2,1.4c0.7-1.1,1.6-1.6,2.7-1.6C397,266.6,397.5,267.3,397.5,268.4L397.5,268.4z M393.7,284.9
		c0-1.8-1.1-2.9-3.4-2.9c-0.7,0-1.6,0.2-2.9,0.4l-2.9,0.4c-1.3,0.5-1.8,1.6-1.8,3.3c0,1.1,0.4,2.2,1.3,2.7c0.9,0.7,2,1.1,3.3,1.1
		c1.8,0,3.3-0.5,4.3-1.4C392.6,287.4,393.7,286.4,393.7,284.9L393.7,284.9z M391.2,271.9c0-3.3-0.9-4.9-2.7-4.9
		c-1.8,0-2.7,1.6-2.7,4.7c0,3.4,0.9,5.3,2.9,5.3C390.3,276.8,391.2,275.1,391.2,271.9z M424.4,274v0.9c-0.2,1.3-0.2,2.5-0.2,3.8v2.7
		c0,0.4-0.2,0.4-0.4,0.4s-0.4-0.2-0.5-0.5c-0.4-0.7-0.7-1.3-0.9-1.4c-1.6,1.4-3.6,2.2-6,2.2c-3.4,0-6.2-1.1-8.5-3.4
		c-2.2-2.4-3.4-5.3-3.4-8.9s1.1-6.5,3.1-8.7c2-2.4,4.7-3.4,8-3.4c1.3,0,2.2,0.2,2.9,0.4c0.7,0.2,1.6,0.5,2.5,1.3
		c0.5,0.4,0.9,0.4,1.1,0.4s0.4-0.2,0.5-0.5c0.4-0.7,0.5-0.9,0.7-0.9s0.4,0.2,0.4,0.4v0.4c-0.2,1.1-0.4,3.1-0.4,6.2
		c0,0.4,0,0.7-0.2,0.7c0,0-0.2,0.2-0.4,0.2c-0.2,0-0.4-0.2-0.4-0.7c-0.4-1.8-0.7-3.3-1.3-4c-1.1-1.8-2.9-2.7-5.4-2.7
		c-1.8,0-3.4,0.5-4.5,1.8c-2,2.2-2.9,5.4-2.9,9.8c0,3.8,0.7,6.7,2.4,8.9c1.4,1.8,3.3,2.7,5.6,2.7c1.3,0,2.4-0.4,3.3-0.9
		c1-0.6,1.8-1.4,2.4-2.4c0.5-1.1,1.1-2.4,1.3-3.8c0.2-0.5,0.2-0.9,0.4-0.9C424.2,273.7,424.4,273.7,424.4,274L424.4,274z
		 M441.6,274.4c0,2.2-0.7,4-2,5.6c-1.4,1.4-3.1,2.2-5.1,2.2c-2.2,0-3.8-0.7-5.3-2.2c-1.4-1.4-2.2-3.3-2.2-5.6c0-2.4,0.7-4.2,2-5.6
		c1.4-1.4,3.1-2.2,5.1-2.2c2.2,0,3.8,0.7,5.3,2.4C440.8,270.2,441.6,272,441.6,274.4L441.6,274.4z M438.3,274.2
		c0-2.5-0.4-4.5-1.3-5.8c-0.5-1.1-1.6-1.6-2.9-1.6s-2.4,0.7-3.1,2s-1.1,3.1-1.1,5.4c0,2.4,0.4,4.2,1.1,5.4c0.7,1.3,1.8,2,3.3,2
		c1.1,0,1.8-0.4,2.4-1.3C437.9,278.9,438.3,276.9,438.3,274.2L438.3,274.2z M449,280.2c0,0.5-0.2,0.9-0.5,1.3s-0.7,0.5-1.3,0.5
		c-0.5,0-0.9-0.2-1.3-0.5c-0.4-0.4-0.5-0.7-0.5-1.3s0.2-0.9,0.5-1.3s0.7-0.5,1.3-0.5c0.5,0,0.9,0.2,1.3,0.5
		C448.8,279.1,449,279.6,449,280.2z"/>
</g>
</svg>
