<svg xmlns="http://www.w3.org/2000/svg" xmlns:xlink="http://www.w3.org/1999/xlink" viewBox="0 0 450 475.1"><g fill="#1c5aa7"><path d="M1767.3 119.4l.6-.9-3.6-2.5-4.4 6.4 1 .1c2.5.1 4.9-1.1 6.4-3.1m16.6 2.5l-1 1.4-1.8 2.7c-2.9 4.3-6.1 4.7-10 2l-3.2-2.2-3.1-2.1c-2.4 1.5-6.4 1-6.4 1l10.3 7c6.5 4.5 11.6 3.4 15.4-2.1l11-16.1-3.6-2.5-7.6 10.9z"/><path d="M1796.6 103.6l-.6.9 3.6 2.5 4.4-6.4-1-.1c-2.5 0-4.9 1.1-6.4 3.1m-16.6-2.5l1-1.4 1.8-2.7c2.9-4.3 6.1-4.7 10-2l3.2 2.2 3.1 2.1c2.4-1.5 6.4-1 6.4-1l-10.3-7c-6.5-4.5-11.6-3.4-15.4 2.1l-11 16.1 3.6 2.5 7.6-10.9zm-188.9 32.5v-8.9c0-3.5-1.8-5.4-5.9-5.4h-2.7c-1.1 0-1.9-.2-2.1-.8-.4 1.7.4 2.4 1.7 2.4h3.1c2.4 0 3.7 1.1 3.7 3.7v1.7l-5.5.5c-4 .4-5.6 2.1-5.6 5 0 3.3 2 5 5.2 5 1.4 0 2.7-.1 3.8-.3 1.8-.3 1.2-2.3 1.2-2.3-.1.4-.8.6-.8.6-1.3.3-2.6.5-4.2.5-1.8 0-3-1.4-3-3.5 0-2 .9-3.3 3.5-3.5l5.3-.4v6.3c0 1.9.9 3 3.3 2.4-.8-.3-1-1.4-1-3m31.5 0v-8.9c0-3.5-1.8-5.4-5.9-5.4h-2.7c-1.1 0-1.9-.2-2.1-.8-.4 1.7.4 2.4 1.7 2.4h3.1c2.4 0 3.7 1.1 3.7 3.7v1.7l-5.5.5c-4 .4-5.6 2.1-5.6 5 0 3.3 2 5 5.2 5 1.4 0 2.7-.1 3.8-.3 1.8-.3 1.2-2.3 1.2-2.3 0 .4-.7.6-.7.6-1.3.3-2.7.5-4.2.5-1.8 0-3-1.4-3-3.5 0-2 .9-3.3 3.5-3.5l5.3-.4v6.3c0 1.9.9 3 3.3 2.4-.9-.3-1.1-1.4-1.1-3m-44.5-15.1c-.2.6-1 .8-2.1.8h-2.7c-4.1 0-5.9 1.9-5.9 5.4v8.9c0 1.6-.3 2.7-1.1 3 2.4.6 3.4-.5 3.4-2.4v-9.6c0-2.7 1.2-3.7 3.7-3.7h3.1c1.2 0 2-.7 1.6-2.4m27.2 3.4v12.5c-1.1.4-3 .8-4.9.8-3.7 0-4.5-2-4.5-6.9V122c0-1.9-1-3-3.4-2.4.8.3 1.1 1.4 1.1 3v5.7c0 5.7 1.3 8.4 6.8 8.4 1.9 0 3.7-.5 4.9-.8h0v1.4c0 2.7-1.2 3.7-3.7 3.7h-3.1c-1.3 0-2.1.7-1.7 2.4.2-.6 1-.8 2.1-.8h2.7c4.1 0 5.9-1.9 5.9-5.4v-14.6c0-1.6.3-2.7 1.1-3-2.4-.6-3.3.4-3.3 2.3m73 11.7v-9c0-3.5-1.8-5.4-5.9-5.4h-2.7c-1.1 0-1.9-.2-2.1-.8-.4 1.7.4 2.4 1.7 2.4h3.1c2.4 0 3.7 1.1 3.7 3.7v1.7l-5.5.5c-4 .4-5.6 2.1-5.6 5 0 3.3 2 5 5.2 5 1.4 0 2.7-.1 3.8-.3 1.8-.3 1.2-2.3 1.2-2.3-.1.4-.7.6-.7.6-1.3.3-2.6.5-4.2.5-1.8 0-3-1.4-3-3.5 0-2 .9-3.3 3.5-3.5l5.3-.4v6.3c0 1.9.9 3 3.3 2.4-.9-.2-1.1-1.3-1.1-2.9m-38.3-19.7h-2.7c-4.1 0-5.9 1.9-5.9 5.4v14.5c0 1.6-.3 2.7-1.1 3 2.4.6 3.3-.5 3.3-2.4v-7.9h6.1c1.3 0 2.1-.7 1.7-2.4-.2.6-1 .8-2.1.8h-5.7v-5.5c0-2.7 1.2-3.7 3.7-3.7h3c1.3 0 2.1-.7 1.7-2.4-.1.4-.8.6-2 .6m5.8 3.5c.7 0 1.3-.6 1.3-1.3s-.6-1.3-1.3-1.3-1.3.6-1.3 1.3.5 1.3 1.3 1.3m1.1 16.5v-12c0-1.9-.9-3-3.3-2.4.8.3 1.1 1.4 1.1 3v12c0 1.9.9 3 3.3 2.4-.9-.3-1.1-1.4-1.1-3"/><use xlink:href="#B"/><path d="M1710.9 117.4c.7 0 1.3-.6 1.3-1.3s-.6-1.3-1.3-1.3-1.3.6-1.3 1.3.6 1.3 1.3 1.3m1.1 16.5v-12c0-1.9-.9-3-3.3-2.4.8.3 1.1 1.4 1.1 3v12c0 1.9.9 3 3.3 2.4-.8-.3-1.1-1.4-1.1-3m16-.3v-8.8c0-3.5-1.8-5.4-5.9-5.4h-7.2c-.3 0-.5.1-.8.1.8.3 1.1 1.4 1.1 3v12c0 1.9.9 3 3.3 2.4-.8-.3-1.1-1.4-1.1-3v-12c0-.4 0-.7-.1-1h4.7c2.4 0 3.7 1.1 3.7 3.7v9.5c0 1.9.9 3 3.4 2.4-.9-.2-1.1-1.3-1.1-2.9"/><use xlink:href="#B" x="30.9"/><path d="M1702.1 120.9h3.1c1.3 0 2.1-.7 1.7-2.4-.2.6-1 .8-2.1.8h-2.7c-4.1 0-5.9 1.9-5.9 5.4v6.5c0 3.5 1.8 5.4 5.9 5.4h2.7c1.1 0 1.9.2 2.1.8.4-1.7-.4-2.4-1.7-2.4h-3.1c-2.4 0-3.7-1.1-3.7-3.7v-6.6c0-2.7 1.2-3.8 3.7-3.8m39.5 13.5c-1.1.4-3 .8-4.9.8-3.7 0-4.5-2-4.5-6.9v-3.7c0-2.7 1.2-3.7 3.7-3.7h5.8c-.1.3-.1.6-.1 1v12.5zm3.3-14.9c-.3-.1-.6-.1-.8-.1h0-8.3c-4.1 0-5.9 1.9-5.9 5.4l-.1 3.7c0 5.7 1.3 8.4 6.8 8.4 1.9 0 3.8-.5 4.9-.8h0v1.4c0 2.7-1.2 3.7-3.7 3.7h-3.1c-1.3 0-2.1.7-1.7 2.4.2-.6 1-.8 2.1-.8h2.7c4.1 0 5.9-1.9 5.9-5.4V134l.2-13.6c.4-.5.6-.8 1-.9m-17.3-37.1v19c0 1.8-.3 3-1.3 3.4 2.8.6 3.8-.6 3.8-2.7V83c0-1.8.3-3 1.3-3.4-2.8-.6-3.8.7-3.8 2.8m13.5 5.6v10.8c0 3-1.4 4.2-4.1 4.2h-1.6c-1.5 0-2.4.7-1.9 2.7.2-.7 1.1-.9 2.4-.9h1.2c4.6 0 6.7-2.1 6.7-6.1V88.6c0-1.8.3-3 1.3-3.4-2.9-.6-4 .6-4 2.8"/><path d="M1720.5 88v10.9c0 3-1.4 4.2-4.1 4.2h-8.8c-4.2 0-5.1-2.2-5.1-7.7v-10h-6.6c-5.1 0-8.2 2.4-8.2 9.8 0 6 1.8 9.7 8.4 9.8h1.2c1.2 0 2.1.2 2.3.9.4-1.9-.4-2.6-1.8-2.6h-1.6c-4.4 0-5.8-2.6-5.8-7.4v-1.4c0-5.3 1.8-7.3 5.6-7.3h4v8.3c0 6.5 1.5 9.5 7.7 9.5h8.8c4.6 0 6.7-2.1 6.7-6.1V88.6c0-1.8.3-3 1.3-3.4-3-.6-4 .6-4 2.8"/><use xlink:href="#C"/><use xlink:href="#C" x="3.9"/><use xlink:href="#C" x="-41.8"/><path d="M1656.4 83.7a1.54 1.54 0 0 0 1.5-1.5 1.54 1.54 0 0 0-1.5-1.5 1.54 1.54 0 0 0-1.5 1.5c0 .9.6 1.5 1.5 1.5m31.2 11.5v-.3.3zm-43.3-.3v.3-.3z"/><path d="M1615.1 102.1c-1.3.4-3.3 1-5.5 1-4.2 0-5.1-2.3-5.1-7.8v-4.2c0-3 1.4-4.2 4.1-4.2h6.5c-.1.3-.1.7-.1 1.1v14l.1.1zm60.4-19.7v16.5c0 3-1.4 4.2-4.1 4.2h-5.9c1-1 1.4-2.5 1.4-4.3V83.1c0-1.8.3-3 1.3-3.4-2.8-.6-3.8.6-3.8 2.7v16.5c0 3-1.4 4.2-4.1 4.2h-6.5c1-1 1.4-2.5 1.4-4.3v-9.9c0-1.8.3-3 1.3-3.4-2.8-.6-3.8.6-3.8 2.7v10.7c0 3-1.4 4.2-4.1 4.2h-6.6c1.8-1.6 2.5-4.4 2.5-7.9 0-7.4-3.2-9.8-8.2-9.8h-6.6v10c0 5.5-.9 7.7-5.1 7.7h-2.5c-2.5 0-3.9-1-4.1-3.6l.2-13.2c.2-.6.5-.9 1-1.1-.3-.1-.7-.1-1-.1h0-9.3c-4.6 0-6.7 2.1-6.7 6.1l-.1 4.2c0 6.5 1.5 9.5 7.7 9.5 2.1 0 4.2-.5 5.5-.9-.1 2.7-1.5 3.9-4.1 3.9h-3.5c-1.5 0-2.4.7-1.9 2.7.2-.7 1.1-.9 2.4-.9h3c4.4 0 6.5-2 6.7-5.7 1 .6 2.4.9 4.2.9h2.5c6.2 0 7.7-3 7.7-9.5V87h4c3.8 0 5.6 1.9 5.6 7.3v1.4c0 4.9-1.4 7.4-5.8 7.4h-3.6c-1.5 0-2.3.7-1.8 2.6.2-.7 1.1-.9 2.3-.9h38.7c4.6 0 6.7-2.1 6.7-6.1V83c0-1.8.3-3 1.3-3.4-3.2-.6-4.2.7-4.2 2.8m-80 5.8v10.7c0 3-1.4 4.2-4.1 4.2h-1.3c-2.7 0-4.1-1.2-4.1-4.2h0V83c0-1.8.3-3 1.3-3.4-2.8-.6-3.8.6-3.8 2.7v20.8c0 3-1.4 4.2-4.1 4.2h-5.4c-2.7 0-4.1-1.2-4.1-4.2v-5c0-3 1.4-4.2 4.1-4.2h1c1.5 0 2.4-.7 1.9-2.7-.2.7-1.1.9-2.4.9h-.6c-4.6 0-6.7 2.1-6.7 6.1v4.9c0 3.9 2.1 6.1 6.7 6.1h5.4c4.3 0 6.4-1.9 6.7-5.3 1 .6 2.4 1 4.2 1h1.3c4.6 0 6.7-2.1 6.7-6.1v-9.9c0-1.8.3-3 1.3-3.4-2.9-.7-4 .5-4 2.7"/><use xlink:href="#D"/><use xlink:href="#E"/><use xlink:href="#D" x="-125.7"/><use xlink:href="#E" x="-125.7"/><path d="M1774 96.9l.9.6 2.5-3.6-6.4-4.4-.1 1a8.26 8.26 0 0 0 3.1 6.4m-3.9 15.6l-2.7-1.8c-4.3-2.9-4.7-6.1-2-10l2.2-3.2 2.1-3.1c-1.5-2.4-1-6.4-1-6.4l-7 10.3c-4.4 6.5-3.4 11.6 2.1 15.4l16.1 11 2.5-3.6-10.9-7.5-1.4-1.1zm19.8 13.6l-.9-.6-2.5 3.6 6.4 4.4.1-1c0-2.5-1.1-4.8-3.1-6.4m10.1-16.7l-16.1-11-2.5 3.6 10.9 7.5 1.4 1 2.7 1.8c4.3 2.9 4.7 6.1 2 10l-2.2 3.2-2.1 3.1c1.5 2.4 1 6.4 1 6.4l7-10.3c4.5-6.4 3.4-11.5-2.1-15.3"/></g><path d="M391.8 196.8c-.4 0-.9.2-1.5.7l-5.5 4c-.1.1-.5.4-.3.9s.6.6.8.6h13c.4 0 .7-.2.8-.6.1-.2 0-.7-.3-.9-.4-.2-5.3-3.9-5.3-3.9-.7-.5-1.2-.8-1.7-.8m0-5.5c.7 0 1.4.4 2.2 1 1 .8 13.6 9.9 13.7 10s.2.3.1.5c0 .1-2.6 3.7-2.6 3.7-1 1.4-2.2 1.4-3.3 1.4H376c-.4 0-.7.2-.9.6-.1.2-.2.6.1 1.1.7 1 14.8 20.4 16.7 22.9 1.5-2 10.4-14.3 10.5-14.5s.1-.3 0-.4-.2-.2-.3-.2h-4.5c-.4 0-.6.2-.7.3-.2.2-5.1 7.1-5.1 7.1l-9-12.4h21c1.4 0 2.8-.2 4.1-2l5.7-7.7c.5-.7.4-1.5-.3-2l-17.4-12.6c-1.5-1.1-2.8-1.6-4-1.6s-2.5.5-4 1.5c-.7.6-18.3 13.3-18.3 13.3-.1.1-.2.4-.1.5l2.3 3.1c.1.2.4.2.6.1l17-12.4c1-1 1.8-1.3 2.4-1.3m-37.6 32.9c-.1.4-.1.9.1 1.7l2.1 6.5c.1.1.2.6.8.6.5 0 .8-.4.9-.6l4.1-12.4c.1-.4-.1-.7-.4-1-.2-.2-.7-.2-1 0-.4.2-5.3 3.9-5.3 3.9-.8.4-1.2.9-1.3 1.3m-5.3-1.8c.2-.7.7-1.2 1.6-1.8l13.7-9.9c.1-.1.4-.1.5.1.1.1 2.7 3.7 2.7 3.7 1 1.4.6 2.5.2 3.5-.4 1.1-7.7 23.9-8 24.7-.1.4 0 .8.3 1 .2.2.5.4 1.1.2 1.1-.4 24-7.8 27-8.8-1.5-2-10.4-14.3-10.5-14.5s-.3-.2-.4-.1-.2.1-.2.2c-.1.1-1.3 3.9-1.4 4.2-.1.4 0 .6.1.7.2.2 5.1 7.1 5.1 7.1l-14.6 4.7 6.5-19.9c.4-1.3.6-2.8-.6-4.5-1.4-2-5-6.9-5.7-7.7-.5-.7-1.3-.8-2-.3l-17.4 12.7a7.63 7.63 0 0 0-2.8 3.3c-.4 1.2-.3 2.5.2 4.2l7 21.5c.1.2.2.3.4.2l3.6-1.2c.2-.1.3-.3.2-.5l-6.5-20c-.2-1.2-.3-2.1-.1-2.8m19.7 45.9c.4.2.9.4 1.6.4h6.8c.1 0 .6-.1.8-.6.1-.5-.1-.9-.3-1l-10.5-7.6c-.3-.2-.7-.2-1 .1-.2.2-.4.6-.2.9.1.4 2 6.2 2 6.3.2.9.4 1.3.8 1.5m-3.3 4.5c-.6-.4-.9-1.1-1.2-2.1-.4-1.3-5.2-16-5.2-16-.1-.2 0-.4.2-.5.1 0 4.3-1.4 4.3-1.4 1.6-.5 2.5.2 3.4.9s20.3 14.7 21 15.2c.3.2.7.2 1.1.1a1.1 1.1 0 0 0 .6-1v-28.4c-2.3.7-16.8 5.5-17 5.5-.2.1-.2.2-.2.3s.1.2.1.3c.1.1 3.3 2.4 3.6 2.6s.6.2.7.1c.2-.1 8.3-2.7 8.3-2.7v15.4l-17-12.3c-1.1-.8-2.5-1.5-4.5-.8-2.3.7-8.2 2.6-9.2 3-.8.2-1.2 1-.9 1.8l6.6 20.5c.6 1.7 1.3 2.9 2.3 3.6s2.3 1.1 4.1 1.1H389c.2 0 .4-.1.4-.4v-3.8c0-.2-.2-.4-.4-.4h-21c-1.3.1-2.2-.1-2.7-.6m49.8-4.5c.4-.2.6-.7.9-1.4l2.1-6.5c.1-.1.2-.6-.3-.9-.4-.3-.9-.1-1 0l-10.5 7.7c-.3.2-.4.6-.3 1 .1.2.4.6.8.6h6.6c.7-.1 1.3-.2 1.7-.5m3.2 4.6c-.6.4-1.3.5-2.3.5h-16.9c-.2 0-.4-.1-.4-.4v-4.6c0-1.7.9-2.3 1.8-3s20.3-14.8 21-15.2c.3-.2.5-.6.4-1-.1-.2-.2-.6-.7-.8-1.1-.4-24-7.8-27-8.7v18c0 .2.1.3.2.4s.2 0 .3-.1 3.3-2.4 3.6-2.6.3-.5.3-.7V246l14.6 4.7-17 12.3c-1.1.8-2.2 1.8-2.2 4v9.6c0 .9.6 1.4 1.4 1.4h21.5c1.8 0 3.1-.4 4.2-1.1 1-.7 1.7-1.9 2.3-3.6l6.9-21.5c.1-.2-.1-.4-.2-.5l-3.6-1.2c-.2-.1-.4.1-.5.2l-6.5 20c-.2 1.4-.6 2.2-1.2 2.6m11.1-48.8c-.1-.4-.5-.8-1.1-1.2l-5.5-4c-.1-.1-.6-.4-1 0-.4.3-.4.7-.3 1l4 12.4c.1.4.5.6.9.6.3 0 .6-.2.8-.6.1-.4 2-6.2 2-6.3.3-.9.3-1.4.2-1.9m5.3-1.6c.2.7.1 1.4-.2 2.4-.4 1.3-5.2 16-5.2 16-.1.2-.2.3-.4.2-.1 0-4.3-1.4-4.3-1.4-1.6-.5-1.9-1.6-2.3-2.7s-7.7-23.9-8.1-24.7c-.1-.4-.5-.6-.9-.7-.2-.1-.7 0-1 .4-.7 1-14.8 20.4-16.7 23 2.3.7 16.8 5.5 17 5.5.2.1.4 0 .4-.1.1-.1.1-.2.1-.3-.1-.1-1.2-3.9-1.4-4.2-.1-.4-.4-.5-.5-.5-.2-.1-8.3-2.7-8.3-2.7l9-12.4 6.5 19.9c.4 1.3 1.1 2.6 3.1 3.3 2.3.7 8.2 2.6 9.1 3 .8.2 1.5-.1 1.8-.9l6.6-20.5c.6-1.7.7-3.1.2-4.3-.4-1.2-1.2-2.2-2.7-3.3-.7-.6-18.3-13.3-18.3-13.3-.2-.1-.4-.1-.5.1l-2.2 3.1a.47.47 0 0 0 .1.6l17 12.4c1.3.7 1.9 1.4 2.1 2.1" fill="#4c86a0"/><g fill="#636569"><path d="M248.2 203.2h-3.9v35.7h5.7v-34c0-.9-.8-1.7-1.8-1.7m-96.2 4.4h-5.7v4.2h5.7v-4.2m143.6 34.6h5.7v4.2h-5.7v-4.2zm-204.1 4.2h5.7v-4.2h-5.7v4.2zm-53.5 0h5.7v-4.2H38v4.2zm7.9 0h5.7v-4.2h-5.7v4.2zm118 0h5.7v-4.2h-5.7v4.2zm7.9 0h5.7v-4.2h-5.7v4.2z"/><path d="M324.2 234.3h0c-4.7 0-7.6-2.6-7.6-7.2 0-4.5 3-7.4 7.7-7.4 2 0 3.5.4 5.3 1.6v-4.9c-2.2-.9-3.9-1.3-6.2-1.3-7.5 0-12.7 5-12.7 12.4 0 2.6.6 4.9 1.8 6.7h-6.6c-3.6 0-4.8-1.2-4.8-4.8v-13.7h-5.7v13.7c0 3.6-1.2 4.8-4.8 4.8h-7.5v-6.6c0-7.4-5.1-12.4-12.7-12.4-2.3 0-3.9.4-6.2 1.3v4.9c1.8-1.2 3.3-1.6 5.3-1.6 4.7 0 7.7 2.8 7.7 7.4v7.2h-14.9v4.9H291c3.2 0 5.5-.6 7.2-1.7 1.6 1.1 3.9 1.7 7.2 1.7h26v-4.9l-7.2-.1zm-129.9-14.5c4.7 0 7.7 2.8 7.7 7.4v7.2h-13v-12.9c1.7-1.3 3.2-1.7 5.3-1.7m-42 .3v14c-1.1.4-10.3 2.2-10.3-6.9-.1-9.2 9-7.3 10.3-7.1m82.3-16.9h-3.9v31.1H222V205c0-.9-.7-1.7-1.8-1.7h-3.9v31.1h-8.6v-6.7c0-7.4-5.1-12.4-12.7-12.4-2.3 0-3.9.4-6.2 1.3V205c0-.9-.7-1.7-1.8-1.7h-3.9v31.1H178c-3.6 0-4.8-1.2-4.8-4.8v-13.7h-5.7v13.7c0 3.6-1.2 4.8-4.8 4.8h-4.9v-18.5c-2.9 0-5.3-.6-9.4-.6-7.5 0-12.3 4.5-12.3 11.9 0 3.1.7 5.3 1.8 7.1h-7.5c-4.7 0-7.6-2.6-7.6-7.2v-11.3H117v11.7c0 7.2 4.7 11.6 12.2 11.6h34.1c3.2 0 5.5-.6 7.2-1.7 1.6 1 3.8 1.6 6.9 1.7h59v-34.3c-.1-.8-.8-1.6-1.8-1.6"/><path d="M64.3 227.2c0-9.2 9-7.3 10.3-7.1v14c-1.1.4-10.3 2.2-10.3-6.9m28.4-12c-2.3 0-3.9.4-6.2 1.3v4.9c1.8-1.2 3.3-1.6 5.3-1.6 4.7 0 7.7 2.8 7.7 7.4v7.2H85.1c-3.4 0-4.7-1-4.8-4.1v-14.4c-2.9 0-5.3-.6-9.4-.6-7.5 0-12.2 4.4-12.3 11.7h0v2.5c0 3.6-1.2 4.8-4.8 4.8h-1.5c-3.6 0-4.8-1.2-4.8-4.8v-13.7h-5.8v13.7c0 3.6-1.2 4.8-4.8 4.8h-1.8c-3.6 0-4.8-1.2-4.8-4.8V205c0-.9-.7-1.7-1.8-1.7h-3.9v38c-1.3.2-2.4.3-3.7.3-3.6 0-4.8-1.2-4.8-4.8v-13.7h-5.7V237c0 3.8.6 5.8 2.2 7.3 1.6 1.4 4.1 2.1 7.8 2.1 3.1 0 5.7-.3 9.9-1.1v-6.6c1 .3 2.3.4 3.7.5h3.4c3.2 0 5.5-.6 7.2-1.7 1.5 1 3.6 1.6 6.5 1.6h3.4c3.5-.1 6-.7 7.5-2.1.2-.2.3-.3.4-.5 4.8 3.7 12.7 2.6 16.7 1.8 1.5.5 3.2.8 5.4.8h20.8v-11.6c.1-7.3-5-12.3-12.6-12.3m150 67.1c-1.8 0-3.3-.4-4.5-1.1v.5c0 4.3-3.2 7-7.5 7.1h-1c-4.3 0-7.5-2.9-7.5-7.1v-7h3.5v6.8c0 2.6 1.3 4.3 4.5 4.3 3.1 0 4.4-1.7 4.4-4.3v-22.7h3.5v17.4c0 2 1.9 3.1 4.5 3.1h.6v3h-.5z"/><path d="M240.9 288.8v-3.4h3.4v3.4h-3.4zm1.4-6.5v-3c3.2 0 4.7-1.6 4.7-4.3v-9.6h3.5v9.7c0 4.5-3.1 7.2-8.2 7.2zm4.1 6.5v-3.4h3.5v3.4h-3.5zm23.2-6.5h0c-.4 4.1-3.4 6.5-7.3 6.5h-.1v-2.7c2.2-.1 3.8-2.1 3.8-3.8h-4.1c-3.1 0-7.5-2.1-7.5-8.2 0-5.9 2.9-8.7 7.5-8.7h7.7v13.9h4.7v3h-4.7zm-3.4-14.1h-4.1c-3.2 0-4 3.7-4 5.9s1.1 5.2 4 5.2h4.1v-11.1z"/><path d="M298.2 282.3c-2.2 0-3.9-.5-5.2-1.5-1.2 3.1-3.7 4.8-7.2 4.8s-6-1.6-7.1-4.5c-1.2.8-2.8 1.3-4.9 1.3h-.6v-3h.6c2.4 0 3.9-.9 4-3.1.3-5.4 3.2-8.8 8-8.8 4.7 0 7.6 3.1 7.8 8.4 0 2.2 1.8 3.4 4.6 3.4h.6v3h-.6zm-12.4-12.1c-2.9 0-4.3 2.1-4.3 6.3 0 4 1.4 6.1 4.3 6.1 2.8 0 4.3-2.1 4.3-6.1 0-4.2-1.4-6.3-4.3-6.3z"/><path d="M296.9 262.2v-3.4h3.5v3.4h-3.5zm13.7 20.1c-2.8 0-4.9-.8-6.2-2.3-1.3 1.5-3.4 2.3-6 2.3h-.4v-3h.4c2.6 0 4.1-1.3 4.1-3.5v-10.4h3.5v10.5c0 2.2 1.8 3.4 4.7 3.4h.4v3h-.5zm-8.2-20.1v-3.4h3.5v3.4h-3.5z"/><path d="M322.9 282.3c-2.8 0-4.9-.8-6.2-2.3-1.3 1.5-3.4 2.3-6 2.3h-.6v-3h.6c2.6 0 4.1-1.3 4.1-3.5v-16.9h3.5v17c0 2.2 1.8 3.4 4.7 3.4h.6v3h-.7z"/><path d="M322.3 282.3v-3c3.2 0 4.9-1.6 4.9-4.3v-16.2h3.5v16.4c0 4.4-3.3 7.1-8.4 7.1z"/></g><defs ><path id="B" d="M1662.9 133.6v-8.9c0-3.5-1.8-5.4-5.9-5.4h-7.1c-.3 0-.5.1-.8.1.8.3 1.1 1.4 1.1 3v12c0 1.9.9 3 3.3 2.4-.8-.3-1.1-1.4-1.1-3v-12c0-.4 0-.7-.1-1h4.7c2.4 0 3.7 1.1 3.7 3.7v9.5c0 1.9.9 3 3.3 2.4-.8-.1-1.1-1.2-1.1-2.8"/><path id="C" d="M1694.3 83.7a1.54 1.54 0 0 0 1.5-1.5 1.54 1.54 0 0 0-1.5-1.5 1.54 1.54 0 0 0-1.5 1.5 1.47 1.47 0 0 0 1.5 1.5"/><path id="D" d="M1715.8 106.8a1.54 1.54 0 0 0-1.5 1.5 1.54 1.54 0 0 0 1.5 1.5 1.54 1.54 0 0 0 1.5-1.5c0-.9-.6-1.5-1.5-1.5"/><path id="E" d="M1719.7 106.8a1.54 1.54 0 0 0-1.5 1.5 1.54 1.54 0 0 0 1.5 1.5 1.54 1.54 0 0 0 1.5-1.5 1.47 1.47 0 0 0-1.5-1.5"/></defs></svg>