<?xml version="1.0" encoding="utf-8"?>
<!-- Generator: Adobe Illustrator 24.1.2, SVG Export Plug-In . SVG Version: 6.00 Build 0)  -->
<svg version="1.1" id="Layer_1" xmlns="http://www.w3.org/2000/svg" xmlns:xlink="http://www.w3.org/1999/xlink" x="0px" y="0px"
	 viewBox="0 0 450 475.1" style="enable-background:new 0 0 450 475.1;" xml:space="preserve">
<style type="text/css">
	.st0{fill:#1C5AA7;}
	.st1{fill:#94D700;}
	.st2{fill:#391350;}
	.st3{fill:#43095F;}
</style>
<g>
	<path class="st0" d="M1767.3,119.4l0.6-0.9l-3.6-2.5l-4.4,6.4l1,0.1C1763.4,122.6,1765.8,121.4,1767.3,119.4 M1783.9,121.9l-1,1.4
		l-1.8,2.7c-2.9,4.3-6.1,4.7-10,2l-3.2-2.2l-3.1-2.1c-2.4,1.5-6.4,1-6.4,1l10.3,7c6.5,4.5,11.6,3.4,15.4-2.1l11-16.1l-3.6-2.5
		L1783.9,121.9L1783.9,121.9z"/>
	<path class="st0" d="M1796.6,103.6l-0.6,0.9l3.6,2.5l4.4-6.4l-1-0.1C1800.5,100.5,1798.1,101.6,1796.6,103.6 M1780,101.1l1-1.4
		l1.8-2.7c2.9-4.3,6.1-4.7,10-2l3.2,2.2l3.1,2.1c2.4-1.5,6.4-1,6.4-1l-10.3-7c-6.5-4.5-11.6-3.4-15.4,2.1l-11,16.1l3.6,2.5
		L1780,101.1L1780,101.1z M1591.1,133.6v-8.9c0-3.5-1.8-5.4-5.9-5.4h-2.7c-1.1,0-1.9-0.2-2.1-0.8c-0.4,1.7,0.4,2.4,1.7,2.4h3.1
		c2.4,0,3.7,1.1,3.7,3.7v1.7l-5.5,0.5c-4,0.4-5.6,2.1-5.6,5c0,3.3,2,5,5.2,5c1.4,0,2.7-0.1,3.8-0.3c1.8-0.3,1.2-2.3,1.2-2.3
		c-0.1,0.4-0.8,0.6-0.8,0.6c-1.3,0.3-2.6,0.5-4.2,0.5c-1.8,0-3-1.4-3-3.5c0-2,0.9-3.3,3.5-3.5l5.3-0.4v6.3c0,1.9,0.9,3,3.3,2.4
		C1591.3,136.3,1591.1,135.2,1591.1,133.6 M1622.6,133.6v-8.9c0-3.5-1.8-5.4-5.9-5.4h-2.7c-1.1,0-1.9-0.2-2.1-0.8
		c-0.4,1.7,0.4,2.4,1.7,2.4h3.1c2.4,0,3.7,1.1,3.7,3.7v1.7l-5.5,0.5c-4,0.4-5.6,2.1-5.6,5c0,3.3,2,5,5.2,5c1.4,0,2.7-0.1,3.8-0.3
		c1.8-0.3,1.2-2.3,1.2-2.3c0,0.4-0.7,0.6-0.7,0.6c-1.3,0.3-2.7,0.5-4.2,0.5c-1.8,0-3-1.4-3-3.5c0-2,0.9-3.3,3.5-3.5l5.3-0.4v6.3
		c0,1.9,0.9,3,3.3,2.4C1622.8,136.3,1622.6,135.2,1622.6,133.6 M1578.1,118.5c-0.2,0.6-1,0.8-2.1,0.8h-2.7c-4.1,0-5.9,1.9-5.9,5.4
		v8.9c0,1.6-0.3,2.7-1.1,3c2.4,0.6,3.4-0.5,3.4-2.4v-9.6c0-2.7,1.2-3.7,3.7-3.7h3.1C1577.7,120.9,1578.5,120.2,1578.1,118.5
		 M1605.3,121.9v12.5c-1.1,0.4-3,0.8-4.9,0.8c-3.7,0-4.5-2-4.5-6.9V122c0-1.9-1-3-3.4-2.4c0.8,0.3,1.1,1.4,1.1,3v5.7
		c0,5.7,1.3,8.4,6.8,8.4c1.9,0,3.7-0.5,4.9-0.8l0,0v1.4c0,2.7-1.2,3.7-3.7,3.7h-3.1c-1.3,0-2.1,0.7-1.7,2.4c0.2-0.6,1-0.8,2.1-0.8
		h2.7c4.1,0,5.9-1.9,5.9-5.4v-14.6c0-1.6,0.3-2.7,1.1-3C1606.2,119,1605.3,120,1605.3,121.9 M1678.3,133.6v-9c0-3.5-1.8-5.4-5.9-5.4
		h-2.7c-1.1,0-1.9-0.2-2.1-0.8c-0.4,1.7,0.4,2.4,1.7,2.4h3.1c2.4,0,3.7,1.1,3.7,3.7v1.7l-5.5,0.5c-4,0.4-5.6,2.1-5.6,5
		c0,3.3,2,5,5.2,5c1.4,0,2.7-0.1,3.8-0.3c1.8-0.3,1.2-2.3,1.2-2.3c-0.1,0.4-0.7,0.6-0.7,0.6c-1.3,0.3-2.6,0.5-4.2,0.5
		c-1.8,0-3-1.4-3-3.5c0-2,0.9-3.3,3.5-3.5l5.3-0.4v6.3c0,1.9,0.9,3,3.3,2.4C1678.5,136.3,1678.3,135.2,1678.3,133.6 M1640,113.9
		h-2.7c-4.1,0-5.9,1.9-5.9,5.4v14.5c0,1.6-0.3,2.7-1.1,3c2.4,0.6,3.3-0.5,3.3-2.4v-7.9h6.1c1.3,0,2.1-0.7,1.7-2.4
		c-0.2,0.6-1,0.8-2.1,0.8h-5.7v-5.5c0-2.7,1.2-3.7,3.7-3.7h3c1.3,0,2.1-0.7,1.7-2.4C1641.9,113.7,1641.2,113.9,1640,113.9
		 M1645.8,117.4c0.7,0,1.3-0.6,1.3-1.3s-0.6-1.3-1.3-1.3s-1.3,0.6-1.3,1.3S1645,117.4,1645.8,117.4 M1646.9,133.9v-12
		c0-1.9-0.9-3-3.3-2.4c0.8,0.3,1.1,1.4,1.1,3v12c0,1.9,0.9,3,3.3,2.4C1647.1,136.6,1646.9,135.5,1646.9,133.9"/>
	<g>
		<path id="B" class="st0" d="M1662.9,133.6v-8.9c0-3.5-1.8-5.4-5.9-5.4h-7.1c-0.3,0-0.5,0.1-0.8,0.1c0.8,0.3,1.1,1.4,1.1,3v12
			c0,1.9,0.9,3,3.3,2.4c-0.8-0.3-1.1-1.4-1.1-3v-12c0-0.4,0-0.7-0.1-1h4.7c2.4,0,3.7,1.1,3.7,3.7v9.5c0,1.9,0.9,3,3.3,2.4
			C1663.2,136.3,1662.9,135.2,1662.9,133.6"/>
	</g>
	<path class="st0" d="M1710.9,117.4c0.7,0,1.3-0.6,1.3-1.3s-0.6-1.3-1.3-1.3s-1.3,0.6-1.3,1.3S1710.2,117.4,1710.9,117.4
		 M1712,133.9v-12c0-1.9-0.9-3-3.3-2.4c0.8,0.3,1.1,1.4,1.1,3v12c0,1.9,0.9,3,3.3,2.4C1712.3,136.6,1712,135.5,1712,133.9
		 M1728,133.6v-8.8c0-3.5-1.8-5.4-5.9-5.4h-7.2c-0.3,0-0.5,0.1-0.8,0.1c0.8,0.3,1.1,1.4,1.1,3v12c0,1.9,0.9,3,3.3,2.4
		c-0.8-0.3-1.1-1.4-1.1-3v-12c0-0.4,0-0.7-0.1-1h4.7c2.4,0,3.7,1.1,3.7,3.7v9.5c0,1.9,0.9,3,3.4,2.4
		C1728.2,136.3,1728,135.2,1728,133.6"/>
	<g>
		<path id="B_1_" class="st0" d="M1693.8,133.6v-8.9c0-3.5-1.8-5.4-5.9-5.4h-7.1c-0.3,0-0.5,0.1-0.8,0.1c0.8,0.3,1.1,1.4,1.1,3v12
			c0,1.9,0.9,3,3.3,2.4c-0.8-0.3-1.1-1.4-1.1-3v-12c0-0.4,0-0.7-0.1-1h4.7c2.4,0,3.7,1.1,3.7,3.7v9.5c0,1.9,0.9,3,3.3,2.4
			C1694.1,136.3,1693.8,135.2,1693.8,133.6"/>
	</g>
	<path class="st0" d="M1702.1,120.9h3.1c1.3,0,2.1-0.7,1.7-2.4c-0.2,0.6-1,0.8-2.1,0.8h-2.7c-4.1,0-5.9,1.9-5.9,5.4v6.5
		c0,3.5,1.8,5.4,5.9,5.4h2.7c1.1,0,1.9,0.2,2.1,0.8c0.4-1.7-0.4-2.4-1.7-2.4h-3.1c-2.4,0-3.7-1.1-3.7-3.7v-6.6
		C1698.4,122,1699.6,120.9,1702.1,120.9 M1741.6,134.4c-1.1,0.4-3,0.8-4.9,0.8c-3.7,0-4.5-2-4.5-6.9v-3.7c0-2.7,1.2-3.7,3.7-3.7h5.8
		c-0.1,0.3-0.1,0.6-0.1,1V134.4L1741.6,134.4z M1744.9,119.5c-0.3-0.1-0.6-0.1-0.8-0.1l0,0h-8.3c-4.1,0-5.9,1.9-5.9,5.4l-0.1,3.7
		c0,5.7,1.3,8.4,6.8,8.4c1.9,0,3.8-0.5,4.9-0.8l0,0v1.4c0,2.7-1.2,3.7-3.7,3.7h-3.1c-1.3,0-2.1,0.7-1.7,2.4c0.2-0.6,1-0.8,2.1-0.8
		h2.7c4.1,0,5.9-1.9,5.9-5.4V134l0.2-13.6C1744.3,119.9,1744.5,119.6,1744.9,119.5 M1727.6,82.4v19c0,1.8-0.3,3-1.3,3.4
		c2.8,0.6,3.8-0.6,3.8-2.7V83c0-1.8,0.3-3,1.3-3.4C1728.6,79,1727.6,80.3,1727.6,82.4 M1741.1,88v10.8c0,3-1.4,4.2-4.1,4.2h-1.6
		c-1.5,0-2.4,0.7-1.9,2.7c0.2-0.7,1.1-0.9,2.4-0.9h1.2c4.6,0,6.7-2.1,6.7-6.1V88.6c0-1.8,0.3-3,1.3-3.4
		C1742.2,84.6,1741.1,85.8,1741.1,88"/>
	<path class="st0" d="M1720.5,88v10.9c0,3-1.4,4.2-4.1,4.2h-8.8c-4.2,0-5.1-2.2-5.1-7.7v-10h-6.6c-5.1,0-8.2,2.4-8.2,9.8
		c0,6,1.8,9.7,8.4,9.8h1.2c1.2,0,2.1,0.2,2.3,0.9c0.4-1.9-0.4-2.6-1.8-2.6h-1.6c-4.4,0-5.8-2.6-5.8-7.4v-1.4c0-5.3,1.8-7.3,5.6-7.3
		h4v8.3c0,6.5,1.5,9.5,7.7,9.5h8.8c4.6,0,6.7-2.1,6.7-6.1V88.6c0-1.8,0.3-3,1.3-3.4C1721.5,84.6,1720.5,85.8,1720.5,88"/>
	<g>
		<path id="C" class="st0" d="M1694.3,83.7c0.8,0,1.5-0.7,1.5-1.5c0-0.8-0.7-1.5-1.5-1.5c-0.8,0-1.5,0.7-1.5,1.5
			C1692.8,83,1693.4,83.7,1694.3,83.7C1694.3,83.7,1694.3,83.7,1694.3,83.7"/>
	</g>
	<g>
		<path id="C_1_" class="st0" d="M1698.2,83.7c0.8,0,1.5-0.7,1.5-1.5c0-0.8-0.7-1.5-1.5-1.5c-0.8,0-1.5,0.7-1.5,1.5
			C1696.7,83,1697.3,83.7,1698.2,83.7C1698.2,83.7,1698.2,83.7,1698.2,83.7"/>
	</g>
	<g>
		<path id="C_2_" class="st0" d="M1652.5,83.7c0.8,0,1.5-0.7,1.5-1.5c0-0.8-0.7-1.5-1.5-1.5c-0.8,0-1.5,0.7-1.5,1.5
			C1651,83,1651.6,83.7,1652.5,83.7C1652.5,83.7,1652.5,83.7,1652.5,83.7"/>
	</g>
	<path class="st0" d="M1656.4,83.7c0.8,0,1.5-0.7,1.5-1.5c0-0.8-0.7-1.5-1.5-1.5c-0.8,0-1.5,0.7-1.5,1.5
		C1654.9,83.1,1655.5,83.7,1656.4,83.7 M1687.6,95.2v-0.3V95.2z M1644.3,94.9v0.3V94.9z"/>
	<path class="st0" d="M1615.1,102.1c-1.3,0.4-3.3,1-5.5,1c-4.2,0-5.1-2.3-5.1-7.8v-4.2c0-3,1.4-4.2,4.1-4.2h6.5
		c-0.1,0.3-0.1,0.7-0.1,1.1L1615.1,102.1L1615.1,102.1z M1675.5,82.4v16.5c0,3-1.4,4.2-4.1,4.2h-5.9c1-1,1.4-2.5,1.4-4.3V83.1
		c0-1.8,0.3-3,1.3-3.4c-2.8-0.6-3.8,0.6-3.8,2.7v16.5c0,3-1.4,4.2-4.1,4.2h-6.5c1-1,1.4-2.5,1.4-4.3v-9.9c0-1.8,0.3-3,1.3-3.4
		c-2.8-0.6-3.8,0.6-3.8,2.7v10.7c0,3-1.4,4.2-4.1,4.2h-6.6c1.8-1.6,2.5-4.4,2.5-7.9c0-7.4-3.2-9.8-8.2-9.8h-6.6v10
		c0,5.5-0.9,7.7-5.1,7.7h-2.5c-2.5,0-3.9-1-4.1-3.6l0.2-13.2c0.2-0.6,0.5-0.9,1-1.1c-0.3-0.1-0.7-0.1-1-0.1l0,0h-9.3
		c-4.6,0-6.7,2.1-6.7,6.1l-0.1,4.2c0,6.5,1.5,9.5,7.7,9.5c2.1,0,4.2-0.5,5.5-0.9c-0.1,2.7-1.5,3.9-4.1,3.9h-3.5
		c-1.5,0-2.4,0.7-1.9,2.7c0.2-0.7,1.1-0.9,2.4-0.9h3c4.4,0,6.5-2,6.7-5.7c1,0.6,2.4,0.9,4.2,0.9h2.5c6.2,0,7.7-3,7.7-9.5V87h4
		c3.8,0,5.6,1.9,5.6,7.3v1.4c0,4.9-1.4,7.4-5.8,7.4h-3.6c-1.5,0-2.3,0.7-1.8,2.6c0.2-0.7,1.1-0.9,2.3-0.9h38.7
		c4.6,0,6.7-2.1,6.7-6.1V83c0-1.8,0.3-3,1.3-3.4C1676.5,79,1675.5,80.3,1675.5,82.4 M1595.5,88.2v10.7c0,3-1.4,4.2-4.1,4.2h-1.3
		c-2.7,0-4.1-1.2-4.1-4.2l0,0V83c0-1.8,0.3-3,1.3-3.4c-2.8-0.6-3.8,0.6-3.8,2.7v20.8c0,3-1.4,4.2-4.1,4.2h-5.4
		c-2.7,0-4.1-1.2-4.1-4.2v-5c0-3,1.4-4.2,4.1-4.2h1c1.5,0,2.4-0.7,1.9-2.7c-0.2,0.7-1.1,0.9-2.4,0.9h-0.6c-4.6,0-6.7,2.1-6.7,6.1
		v4.9c0,3.9,2.1,6.1,6.7,6.1h5.4c4.3,0,6.4-1.9,6.7-5.3c1,0.6,2.4,1,4.2,1h1.3c4.6,0,6.7-2.1,6.7-6.1v-9.9c0-1.8,0.3-3,1.3-3.4
		C1596.6,84.8,1595.5,86,1595.5,88.2"/>
	<g>
		<path id="D" class="st0" d="M1715.8,106.8c-0.8,0-1.5,0.7-1.5,1.5c0,0.8,0.7,1.5,1.5,1.5c0.8,0,1.5-0.7,1.5-1.5
			C1717.3,107.4,1716.7,106.8,1715.8,106.8"/>
	</g>
	<g>
		<path id="E" class="st0" d="M1719.7,106.8c-0.8,0-1.5,0.7-1.5,1.5c0,0.8,0.7,1.5,1.5,1.5c0.8,0,1.5-0.7,1.5-1.5
			C1721.2,107.5,1720.6,106.8,1719.7,106.8C1719.7,106.8,1719.7,106.8,1719.7,106.8"/>
	</g>
	<g>
		<path id="D_1_" class="st0" d="M1590.1,106.8c-0.8,0-1.5,0.7-1.5,1.5c0,0.8,0.7,1.5,1.5,1.5c0.8,0,1.5-0.7,1.5-1.5
			C1591.6,107.4,1591,106.8,1590.1,106.8"/>
	</g>
	<g>
		<path id="E_1_" class="st0" d="M1594,106.8c-0.8,0-1.5,0.7-1.5,1.5c0,0.8,0.7,1.5,1.5,1.5c0.8,0,1.5-0.7,1.5-1.5
			C1595.5,107.5,1594.9,106.8,1594,106.8C1594,106.8,1594,106.8,1594,106.8"/>
	</g>
	<path class="st0" d="M1774,96.9l0.9,0.6l2.5-3.6l-6.4-4.4l-0.1,1C1770.9,93,1772.1,95.3,1774,96.9 M1770.1,112.5l-2.7-1.8
		c-4.3-2.9-4.7-6.1-2-10l2.2-3.2l2.1-3.1c-1.5-2.4-1-6.4-1-6.4l-7,10.3c-4.4,6.5-3.4,11.6,2.1,15.4l16.1,11l2.5-3.6l-10.9-7.5
		L1770.1,112.5L1770.1,112.5z M1789.9,126.1l-0.9-0.6l-2.5,3.6l6.4,4.4l0.1-1C1793,130,1791.9,127.7,1789.9,126.1 M1800,109.4
		l-16.1-11l-2.5,3.6l10.9,7.5l1.4,1l2.7,1.8c4.3,2.9,4.7,6.1,2,10l-2.2,3.2l-2.1,3.1c1.5,2.4,1,6.4,1,6.4l7-10.3
		C1806.6,118.3,1805.5,113.2,1800,109.4"/>
</g>
<path class="st1" d="M113.4,261.1l23.5-23.6L83,183.7l-8.7,8.6l45.2,45.2l-6.6,6.6l-45.2-45.2l-38.7,38.7L83,291.4l23.6-23.6L68,229
	l-8.7,8.7l30,30l-6.5,6.4l-36.4-36.4L68.2,216L113.4,261.1z M120.4,191.6l8.5,8.5l-8.5,8.5L112,200L120.4,191.6z"/>
<g>
	<path class="st2" d="M171.5,196.3h4.2v28.8h4.8v3.3h-4.9c-0.9,7.4-5.3,10.5-11.1,10.5c-6.3,0-11.2-3.4-11.2-12.7
		c0-3,0.4-5.9,1.1-8.7l4.3-0.8c-0.9,3-1.3,6.2-1.3,9c0,7.8,3.8,9.8,7.5,9.8s6.7-2.3,6.7-9.6V196.3z"/>
	<path class="st2" d="M179.9,225.1h9.1V207h4.2v21.4h-13.3V225.1z M183.8,237.6c-1.3,0-2.4-1.1-2.4-2.4c0-1.3,1.1-2.4,2.4-2.4
		c1.3,0,2.4,1.1,2.4,2.4C186.2,236.5,185.1,237.6,183.8,237.6z M190.5,237.6c-1.3,0-2.4-1.1-2.4-2.4c0-1.3,1.1-2.4,2.4-2.4
		c1.3,0,2.4,1.1,2.4,2.4C192.9,236.5,191.8,237.6,190.5,237.6z M199.5,239.3l0.2-3.5c0,0,3.8,0.9,7.3,0.9c4.9,0,8.7-1.9,8.7-7.1
		v-1.1H211c-8.8,0-12-4.2-12-10.7c0-6,3.7-11.3,11.4-11.3c5.1,0,9.1,1.6,9.1,1.6v17h5.1v3.3h-5.1v0.9c0,5.3-3.5,10.7-13.3,10.7
		C203.1,239.9,199.5,239.3,199.5,239.3z M215.8,210.9c0,0-2.2-1.1-5.5-1.1c-4.3,0-6.8,3-6.8,7.5c0,5.2,2.4,7.7,8.2,7.7h4v-14.1
		H215.8z"/>
	<path class="st2" d="M231,224.5c-1,2.5-3.2,3.8-6,3.8h-0.7v-3.3h0.9c2.3,0,4-1.3,4-6.7c0-6.7,3.8-11.9,11.1-11.9
		c6.8,0,10,3.8,10,10.8v7.8h4.5v3.3h-14.4C235.2,228.4,232.4,226.9,231,224.5z M246.2,217.9c0-5.8-2.2-8.1-6.3-8.1s-6.6,3.1-6.6,8.1
		c0,4.8,2.2,7.1,7.7,7.1h5.2V217.9z"/>
	<path class="st2" d="M254.1,225.1h6.7V207h4.2v18.1h4.7v3.3h-15.5v-3.3H254.1z M256.4,200.4c0-1.3,1.1-2.4,2.4-2.4
		c1.3,0,2.4,1.1,2.4,2.4c0,1.3-1.1,2.4-2.4,2.4C257.4,202.8,256.4,201.8,256.4,200.4z M263,200.4c0-1.3,1.1-2.4,2.4-2.4
		c1.3,0,2.4,1.1,2.4,2.4c0,1.3-1.1,2.4-2.4,2.4C264.1,202.8,263,201.8,263,200.4z"/>
	<path class="st2" d="M268.9,225.1h6.4v-28.8h4.2v28.8h5.1v3.3h-15.6V225.1z"/>
	<path class="st2" d="M283.9,225.1h6.4v-28.8h4.2v32.1h-10.5L283.9,225.1L283.9,225.1z M314.5,234.1c0,3,2.7,5.6,8.6,5.6l-0.2,3.3
		c-8.3,0-12.4-3.7-12.4-8.6c0-5.3,3.7-9.3,14.1-9.3h4.5c0.2-1.6,0.3-3.2,0.3-4.7c0-6.9-2.5-10.2-10-10.2c-1.8,0-3.3,0.1-5.1,0.3
		v-3.3c1.5-0.2,3.4-0.3,5.5-0.3c10,0,13.7,4.6,13.7,13.3c0,1.4-0.1,3.1-0.2,5.1h4.2v3.3h-13.1C316.5,228.4,314.5,230.9,314.5,234.1
		L314.5,234.1z M324.3,235.2c0-1.3,1.1-2.4,2.4-2.4c1.3,0,2.5,1.1,2.5,2.4c0,1.3-1.1,2.4-2.5,2.4S324.3,236.6,324.3,235.2z"/>
	<path class="st2" d="M336.6,225.1h9.1V207h4.2v18.1h5.1v3.3h-18.3L336.6,225.1L336.6,225.1z M340.6,237.6c-1.3,0-2.4-1.1-2.4-2.4
		c0-1.3,1.1-2.4,2.4-2.4c1.3,0,2.4,1.1,2.4,2.4C343,236.5,341.9,237.6,340.6,237.6z M347.3,237.6c-1.3,0-2.4-1.1-2.4-2.4
		c0-1.3,1.1-2.4,2.4-2.4c1.3,0,2.4,1.1,2.4,2.4C349.6,236.5,348.6,237.6,347.3,237.6z"/>
	<path class="st2" d="M354.4,225.1h6.4v-28.8h4.2v28.8h5.1v3.3h-15.6L354.4,225.1L354.4,225.1z"/>
	<path class="st2" d="M369.3,225.1H388c0.2-1.6,0.3-3.2,0.3-4.7c0-6.9-2.5-10.2-10-10.2c-1.9,0-3.4,0.1-5.1,0.3v-3.3
		c1.5-0.2,3.4-0.3,5.4-0.3c10,0,13.7,4.6,13.7,13.3c0,1.4-0.1,3.1-0.2,5.1h4.2v3.3h-27.1L369.3,225.1L369.3,225.1z M377.6,199.7
		c0-1.3,1.1-2.5,2.4-2.5c1.3,0,2.5,1.1,2.5,2.5c0,1.3-1.1,2.4-2.5,2.4S377.6,201,377.6,199.7z"/>
	<path class="st2" d="M395.7,225.1h6.4v-28.8h4.2v32.1h-10.5L395.7,225.1L395.7,225.1z M415,196.3h4.2v32.1H415V196.3z"/>
</g>
<g>
	<path class="st3" d="M177.2,272.9c-3.2,1.1-6.3,1.8-9.1,1.8c-3,0-5.4-0.4-7.3-1.3c-1.9-0.9-3.3-2.2-4.4-3.8
		c-1.1-1.6-1.6-3.8-1.6-6.5c0-3,0.5-5.3,1.5-6.9c1-1.6,2.5-3,4.4-3.8c1.9-1,4.2-1.4,6.8-1.4c1.8,0,3.4,0.2,4.8,0.7
		c1.4,0.4,2.6,1.1,3.5,2c0.9,0.9,1.3,1.8,1.3,2.6v0.1h-3.6v-0.1c0-0.5-0.2-1-0.8-1.4s-1.2-0.8-2.1-1.1c-0.9-0.2-1.9-0.4-3-0.4
		c-3,0-5.2,0.9-6.7,2.6c-1.5,1.8-2.3,4.1-2.3,7.1s0.8,5.4,2.3,7.1c1.5,1.8,3.7,2.6,6.6,2.6c1.6,0,3.6-0.3,5.8-0.9v-6.5h-6.7V263
		h10.3v9.9H177.2z M181.9,251.2h4v14.6c0,2.1,0.2,3.5,0.8,4.3c0.5,0.8,1.4,1.3,2.5,1.6c1.2,0.3,2.4,0.5,3.8,0.5
		c1.3,0,2.5-0.2,3.6-0.5c1.1-0.3,1.9-1,2.4-1.8c0.5-0.8,0.8-2.5,0.8-5.2v-13.6h3.6v14.3c0,2.6-0.4,4.5-1.2,5.6
		c-0.8,1.1-2,1.9-3.5,2.5c-1.5,0.7-3.4,0.9-5.7,0.9c-2.1,0-4.1-0.2-5.8-0.8c-1.8-0.4-3.1-1.3-4-2.3c-0.9-1.1-1.3-2.9-1.3-5.4V251.2
		L181.9,251.2z M208.7,274v-22.7h4v20.2h15.6v2.5L208.7,274L208.7,274z M231.7,274v-22.7h16.9v2.5h-13v7.8H247v2.3h-11.4V274H231.7
		L231.7,274z M261.1,274v-22.7h16.9v2.5h-13v7.8h11.4v2.3h-11.4V274H261.1z M287,274h-4v-22.7h4V274z"/>
	<g>
		<path id="F" class="st3" d="M296.2,274h-3.6v-22.7h3.8l13.6,16.2l1.2,1.8l-0.1-1.8v-16.2h3.6v22.6h-3.8l-13.7-16.2l-1.2-1.9
			l0.1,1.9V274H296.2z"/>
	</g>
	<path class="st3" d="M322,274h-3.6l12.3-22.6h4L346,274h-4.2l-3.1-6.3h-13.2L322,274L322,274z M326.5,265.4h10.9l-5.3-10.5
		L326.5,265.4z"/>
	<g>
		<path id="F_1_" class="st3" d="M352.9,274h-3.6v-22.7h3.8l13.6,16.2l1.2,1.8l-0.1-1.8v-16.2h3.6v22.6h-3.8l-13.7-16.2l-1.2-1.9
			l0.1,1.9V274H352.9z"/>
	</g>
	<path class="st3" d="M395.1,269h3.6v0.1c0,0.9-0.4,1.9-1.2,2.7c-0.8,0.9-2,1.6-3.3,2c-1.4,0.4-3.1,0.7-4.9,0.7c-3.8,0-6.9-1-9.3-3
		c-2.4-2-3.6-5.1-3.6-9c0-4,1.2-7,3.6-9c2.4-2,5.5-3.1,9.3-3.1c1.9,0,3.5,0.2,4.9,0.7c1.4,0.4,2.5,1.1,3.3,2.1
		c0.8,1,1.2,1.9,1.2,2.7v0.1h-3.6V256c0-0.5-0.2-1.1-0.7-1.6c-0.4-0.5-1.1-0.9-2-1.2c-0.9-0.2-1.9-0.4-3.1-0.4
		c-3.1,0-5.4,0.9-6.8,2.7c-1.5,1.9-2.2,4.2-2.2,7c0,2.9,0.8,5.2,2.2,7c1.5,1.9,3.7,2.7,6.8,2.7c2.1,0,3.5-0.3,4.4-1
		S395.1,269.8,395.1,269L395.1,269L395.1,269z M403,274v-22.7h16.9v2.5h-13v7.1h11.4v2.3h-11.4v8.2H421v2.5L403,274L403,274z"/>
</g>
</svg>
