<svg xmlns="http://www.w3.org/2000/svg" width="15.971" height="15.195" viewBox="0 0 15.971 15.195">
  <g id="linkedin" transform="translate(0 -0.306)">
    <g id="Сгруппировать_9297" data-name="Сгруппировать 9297" transform="translate(0 4.521)">
      <g id="Сгруппировать_9296" data-name="Сгруппировать 9296">
        <rect id="Прямоугольник_571" data-name="Прямоугольник 571" width="3.571" height="10.98" fill="#00b2e2"/>
      </g>
    </g>
    <g id="Сгруппировать_9299" data-name="Сгруппировать 9299" transform="translate(4.991 4.521)">
      <g id="Сгруппировать_9298" data-name="Сгруппировать 9298">
        <path id="Контур_4038" data-name="Контур 4038" d="M168.309,160.129c-.038-.012-.074-.025-.114-.036s-.1-.02-.145-.028a3.2,3.2,0,0,0-.641-.065,4.962,4.962,0,0,0-3.838,2.1V160H160v10.98h3.571v-5.989s2.7-3.759,3.838-1v6.987h3.57V163.57A3.561,3.561,0,0,0,168.309,160.129Z" transform="translate(-160 -160)" fill="#00b2e2"/>
      </g>
    </g>
    <g id="Сгруппировать_9301" data-name="Сгруппировать 9301" transform="translate(0.47 0)">
      <g id="Сгруппировать_9300" data-name="Сгруппировать 9300">
        <circle id="Эллипс_60" data-name="Эллипс 60" cx="1.5" cy="1.5" r="1.5" transform="translate(0.169 0.306)" fill="#00b2e2"/>
      </g>
    </g>
  </g>
</svg>
