<?xml version="1.0" standalone="no"?>
<!DOCTYPE svg PUBLIC "-//W3C//DTD SVG 1.1//EN" "http://www.w3.org/Graphics/SVG/1.1/DTD/svg11.dtd" >
<svg xmlns="http://www.w3.org/2000/svg" xmlns:xlink="http://www.w3.org/1999/xlink" version="1.1">
<metadata>
Created by FontForge 20190801 at Thu May 18 09:24:33 2017
 By Jimmy Wärting
Copyright, 2018 tptq-arabic.com All rights reserved. For exclusive use on TPTQ Arabic Web Font servers.
</metadata>
<defs>
<font id="TeshrinAR+LT-Regular" horiz-adv-x="600" >
  <font-face 
    font-family="Teshrin AR+LT"
    font-weight="400"
    font-stretch="normal"
    units-per-em="1000"
    panose-1="2 0 0 0 0 0 0 0 0 0"
    ascent="780"
    descent="-220"
    x-height="535"
    cap-height="769"
    bbox="-213 -670.125 2429 1009"
    underline-thickness="50"
    underline-position="-100"
    unicode-range="U+000D-1F6CF"
  />
<missing-glyph horiz-adv-x="712" 
d="M107 702v-27h-27v27h27zM182 702v-27h-27v27h27zM257 702v-27h-27v27h27zM332 702v-27h-27v27h27zM407 702v-27h-27v27h27zM482 702v-27h-27v27h27zM557 702v-27h-27v27h27zM632 702v-27h-27v27h27zM107 627v-27h-27v27h27zM632 627v-27h-27v27h27zM107 552v-27h-27v27
h27zM257 552v-27h-27v27h27zM332 552v-27h-27v27h27zM407 552v-27h-27v27h27zM482 552v-27h-27v27h27zM632 552v-27h-27v27h27zM107 477v-27h-27v27h27zM482 477v-27h-27v27h27zM632 477v-27h-27v27h27zM107 402v-27h-27v27h27zM332 402v-27h-27v27h27zM407 402v-27h-27v27
h27zM482 402v-27h-27v27h27zM632 402v-27h-27v27h27zM107 327v-27h-27v27h27zM332 327v-27h-27v27h27zM632 327v-27h-27v27h27zM107 252v-27h-27v27h27zM632 252v-27h-27v27h27zM107 177v-27h-27v27h27zM332 177v-27h-27v27h27zM632 177v-27h-27v27h27zM107 102v-27h-27v27
h27zM632 102v-27h-27v27h27zM107 27v-27h-27v27h27zM182 27v-27h-27v27h27zM257 27v-27h-27v27h27zM332 27v-27h-27v27h27zM407 27v-27h-27v27h27zM482 27v-27h-27v27h27zM557 27v-27h-27v27h27zM632 27v-27h-27v27h27z" />
    <glyph glyph-name="uniFC03" unicode="&#xfe8b;&#xfef0;" horiz-adv-x="778" arabic-form="isolated" 
d="M699 96.5q-29 -52.5 -83 -72.5q40 -35 40 -91q0 -64 -38 -113t-109.5 -76t-170.5 -27q-158 0 -233 66.5t-75 208.5q0 82 31 155q6 14 16.5 21.5t22.5 7.5q6 0 14 -3q22 -9 22 -31q0 -7 -4 -21q-22 -68 -22 -129q0 -67 22.5 -105t73.5 -55t140 -17q113 0 176.5 31t63.5 87
q0 34 -34.5 53.5t-82.5 24.5q-21 3 -33.5 15t-12.5 31q0 21 12.5 32.5t34.5 11.5q14 0 22 -1l43 -1q64 0 90.5 30.5t26.5 100.5q0 57 -9 115q-3 20 8.5 32t28.5 12q15 0 25.5 -9.5t13.5 -27.5q9 -55 9 -122q0 -81 -29 -133.5zM762 525q9 -8 9 -22q0 -24 -22 -28
q-29 -5 -122 -14l-21 -2q-16 -1 -26 7t-10 22q0 27 29 30l9 1q-19 17 -19 43q0 42 27 65.5t67 23.5q20 0 38 -8q25 -12 25 -33q0 -27 -26 -27q-6 0 -9 1q-15 3 -28 3q-22 0 -33.5 -6t-11.5 -24t7.5 -24t29.5 -6q20 0 63 5q15 1 24 -7z" />
    <glyph glyph-name="uniFC04" unicode="&#xfe8b;&#xfef2;" horiz-adv-x="778" arabic-form="isolated" 
d="M699 96.5q-29 -52.5 -83 -72.5q40 -35 40 -91q0 -64 -38 -113t-109.5 -76t-170.5 -27q-158 0 -233 66.5t-75 208.5q0 82 31 155q6 14 16.5 21.5t22.5 7.5q6 0 14 -3q22 -9 22 -31q0 -7 -4 -21q-22 -68 -22 -129q0 -67 22.5 -105t73.5 -55t140 -17q113 0 176.5 31t63.5 87
q0 34 -34.5 53.5t-82.5 24.5q-21 3 -33.5 15t-12.5 31q0 21 12.5 32.5t34.5 11.5q14 0 22 -1l43 -1q64 0 90.5 30.5t26.5 100.5q0 57 -9 115q-3 20 8.5 32t28.5 12q15 0 25.5 -9.5t13.5 -27.5q9 -55 9 -122q0 -81 -29 -133.5zM762 525q9 -8 9 -22q0 -24 -22 -28
q-29 -5 -122 -14l-21 -2q-16 -1 -26 7t-10 22q0 27 29 30l9 1q-19 17 -19 43q0 42 27 65.5t67 23.5q20 0 38 -8q25 -12 25 -33q0 -27 -26 -27q-6 0 -9 1q-15 3 -28 3q-22 0 -33.5 -6t-11.5 -24t7.5 -24t29.5 -6q20 0 63 5q15 1 24 -7zM250.5 -437q-13.5 14 -13.5 33
t13.5 32.5t32.5 13.5t33 -13.5t14 -32.5t-14 -33t-33 -14t-32.5 14zM360.5 -437q-13.5 14 -13.5 33t13.5 32.5t32.5 13.5t33 -13.5t14 -32.5t-14 -33t-33 -14t-32.5 14z" />
    <glyph glyph-name="uniFC09" unicode="&#xfe91;&#xfef0;" horiz-adv-x="778" arabic-form="isolated" 
d="M699 96.5q-29 -52.5 -83 -72.5q40 -35 40 -91q0 -64 -38 -113t-109.5 -76t-170.5 -27q-158 0 -233 66.5t-75 208.5q0 82 31 155q6 14 16.5 21.5t22.5 7.5q6 0 14 -3q22 -9 22 -31q0 -7 -4 -21q-22 -68 -22 -129q0 -67 22.5 -105t73.5 -55t140 -17q113 0 176.5 31t63.5 87
q0 34 -34.5 53.5t-82.5 24.5q-21 3 -33.5 15t-12.5 31q0 21 12.5 32.5t34.5 11.5q14 0 22 -1l43 -1q64 0 90.5 30.5t26.5 100.5q0 57 -9 115q-3 20 8.5 32t28.5 12q15 0 25.5 -9.5t13.5 -27.5q9 -55 9 -122q0 -81 -29 -133.5zM605 -404q-15 15 -15 36t15 36t36 15t36 -15
t15 -36t-15 -36t-36 -16q-21 1 -36 16z" />
    <glyph glyph-name="uniFC0A" unicode="&#xfe91;&#xfef2;" horiz-adv-x="778" arabic-form="isolated" 
d="M699 96.5q-29 -52.5 -83 -72.5q40 -35 40 -91q0 -64 -38 -113t-109.5 -76t-170.5 -27q-158 0 -233 66.5t-75 208.5q0 82 31 155q6 14 16.5 21.5t22.5 7.5q6 0 14 -3q22 -9 22 -31q0 -7 -4 -21q-22 -68 -22 -129q0 -67 22.5 -105t73.5 -55t140 -17q113 0 176.5 31t63.5 87
q0 34 -34.5 53.5t-82.5 24.5q-21 3 -33.5 15t-12.5 31q0 21 12.5 32.5t34.5 11.5q14 0 22 -1l43 -1q64 0 90.5 30.5t26.5 100.5q0 57 -9 115q-3 20 8.5 32t28.5 12q15 0 25.5 -9.5t13.5 -27.5q9 -55 9 -122q0 -81 -29 -133.5zM605 -404q-15 15 -15 36t15 36t36 15t36 -15
t15 -36t-15 -36t-36 -16q-21 1 -36 16zM250.5 -437q-13.5 14 -13.5 33t13.5 32.5t32.5 13.5t33 -13.5t14 -32.5t-14 -33t-33 -14t-32.5 14zM360.5 -437q-13.5 14 -13.5 33t13.5 32.5t32.5 13.5t33 -13.5t14 -32.5t-14 -33t-33 -14t-32.5 14z" />
    <glyph glyph-name="uniFC0F" unicode="&#xfe97;&#xfef0;" horiz-adv-x="778" arabic-form="isolated" 
d="M699 96.5q-29 -52.5 -83 -72.5q40 -35 40 -91q0 -64 -38 -113t-109.5 -76t-170.5 -27q-158 0 -233 66.5t-75 208.5q0 82 31 155q6 14 16.5 21.5t22.5 7.5q6 0 14 -3q22 -9 22 -31q0 -7 -4 -21q-22 -68 -22 -129q0 -67 22.5 -105t73.5 -55t140 -17q113 0 176.5 31t63.5 87
q0 34 -34.5 53.5t-82.5 24.5q-21 3 -33.5 15t-12.5 31q0 21 12.5 32.5t34.5 11.5q14 0 22 -1l43 -1q64 0 90.5 30.5t26.5 100.5q0 57 -9 115q-3 20 8.5 32t28.5 12q15 0 25.5 -9.5t13.5 -27.5q9 -55 9 -122q0 -81 -29 -133.5zM590.5 492q-13.5 14 -13.5 33t13.5 32.5
t32.5 13.5t33 -13.5t14 -32.5t-14 -33t-33 -14t-32.5 14zM700.5 492q-13.5 14 -13.5 33t13.5 32.5t32.5 13.5t33 -13.5t14 -32.5t-14 -33t-33 -14t-32.5 14z" />
    <glyph glyph-name="uniFC10" unicode="&#xfe97;&#xfef2;" horiz-adv-x="778" arabic-form="isolated" 
d="M699 96.5q-29 -52.5 -83 -72.5q40 -35 40 -91q0 -64 -38 -113t-109.5 -76t-170.5 -27q-158 0 -233 66.5t-75 208.5q0 82 31 155q6 14 16.5 21.5t22.5 7.5q6 0 14 -3q22 -9 22 -31q0 -7 -4 -21q-22 -68 -22 -129q0 -67 22.5 -105t73.5 -55t140 -17q113 0 176.5 31t63.5 87
q0 34 -34.5 53.5t-82.5 24.5q-21 3 -33.5 15t-12.5 31q0 21 12.5 32.5t34.5 11.5q14 0 22 -1l43 -1q64 0 90.5 30.5t26.5 100.5q0 57 -9 115q-3 20 8.5 32t28.5 12q15 0 25.5 -9.5t13.5 -27.5q9 -55 9 -122q0 -81 -29 -133.5zM590.5 492q-13.5 14 -13.5 33t13.5 32.5
t32.5 13.5t33 -13.5t14 -32.5t-14 -33t-33 -14t-32.5 14zM700.5 492q-13.5 14 -13.5 33t13.5 32.5t32.5 13.5t33 -13.5t14 -32.5t-14 -33t-33 -14t-32.5 14zM250.5 -437q-13.5 14 -13.5 33t13.5 32.5t32.5 13.5t33 -13.5t14 -32.5t-14 -33t-33 -14t-32.5 14zM360.5 -437
q-13.5 14 -13.5 33t13.5 32.5t32.5 13.5t33 -13.5t14 -32.5t-14 -33t-33 -14t-32.5 14z" />
    <glyph glyph-name="uniFC13" unicode="&#xfe9b;&#xfef0;" horiz-adv-x="778" arabic-form="isolated" 
d="M699 96.5q-29 -52.5 -83 -72.5q40 -35 40 -91q0 -64 -38 -113t-109.5 -76t-170.5 -27q-158 0 -233 66.5t-75 208.5q0 82 31 155q6 14 16.5 21.5t22.5 7.5q6 0 14 -3q22 -9 22 -31q0 -7 -4 -21q-22 -68 -22 -129q0 -67 22.5 -105t73.5 -55t140 -17q113 0 176.5 31t63.5 87
q0 34 -34.5 53.5t-82.5 24.5q-21 3 -33.5 15t-12.5 31q0 21 12.5 32.5t34.5 11.5q14 0 22 -1l43 -1q64 0 90.5 30.5t26.5 100.5q0 57 -9 115q-3 20 8.5 32t28.5 12q15 0 25.5 -9.5t13.5 -27.5q9 -55 9 -122q0 -81 -29 -133.5zM711 660q13 -13 13 -32q0 -18 -13.5 -31
t-31.5 -13t-31 13t-13 31t13 31.5t31 13.5q19 0 32 -13zM656 556q14 -14 14 -33t-14 -32.5t-33 -13.5t-32.5 13.5t-13.5 32.5t13.5 33t32.5 14t33 -14zM766 556q14 -14 14 -33t-14 -32.5t-33 -13.5t-32.5 13.5t-13.5 32.5t13.5 33t32.5 14t33 -14z" />
    <glyph glyph-name="uniFC14" unicode="&#xfe9b;&#xfef2;" horiz-adv-x="778" arabic-form="isolated" 
d="M699 96.5q-29 -52.5 -83 -72.5q40 -35 40 -91q0 -64 -38 -113t-109.5 -76t-170.5 -27q-158 0 -233 66.5t-75 208.5q0 82 31 155q6 14 16.5 21.5t22.5 7.5q6 0 14 -3q22 -9 22 -31q0 -7 -4 -21q-22 -68 -22 -129q0 -67 22.5 -105t73.5 -55t140 -17q113 0 176.5 31t63.5 87
q0 34 -34.5 53.5t-82.5 24.5q-21 3 -33.5 15t-12.5 31q0 21 12.5 32.5t34.5 11.5q14 0 22 -1l43 -1q64 0 90.5 30.5t26.5 100.5q0 57 -9 115q-3 20 8.5 32t28.5 12q15 0 25.5 -9.5t13.5 -27.5q9 -55 9 -122q0 -81 -29 -133.5zM711 660q13 -13 13 -32q0 -18 -13.5 -31
t-31.5 -13t-31 13t-13 31t13 31.5t31 13.5q19 0 32 -13zM656 556q14 -14 14 -33t-14 -32.5t-33 -13.5t-32.5 13.5t-13.5 32.5t13.5 33t32.5 14t33 -14zM766 556q14 -14 14 -33t-14 -32.5t-33 -13.5t-32.5 13.5t-13.5 32.5t13.5 33t32.5 14t33 -14zM250.5 -437
q-13.5 14 -13.5 33t13.5 32.5t32.5 13.5t33 -13.5t14 -32.5t-14 -33t-33 -14t-32.5 14zM360.5 -437q-13.5 14 -13.5 33t13.5 32.5t32.5 13.5t33 -13.5t14 -32.5t-14 -33t-33 -14t-32.5 14z" />
    <glyph glyph-name="uniFC31" unicode="&#xfed3;&#xfef0;" horiz-adv-x="816" arabic-form="isolated" 
d="M724 466q42 -65 42 -167v-65q0 -80 -33 -133.5t-116 -74.5q39 -34 39 -93q0 -64 -38 -113t-109.5 -76t-170.5 -27q-158 0 -233 66.5t-75 208.5q0 88 38 160q7 13 18 21t23 8q7 0 13 -3q22 -9 22 -33q0 -9 -5 -22q-29 -67 -29 -131q0 -67 22.5 -105t73.5 -55t140 -17
q113 0 176.5 31t63.5 87q0 31 -38.5 47.5t-112.5 24.5q-50 6 -50 49q0 19 14.5 31t36.5 12l62 -1q97 0 148 23.5t51 84.5v43q-25 -62 -121 -62q-146 0 -146 157q0 54 21.5 97t60 67.5t86.5 24.5q84 0 126 -65zM697 305v6q-1 48 -24 85t-79 37q-41 0 -68 -24.5t-27 -63.5
q0 -38 20.5 -54t69.5 -16q91 0 108 30zM562 643q-15 15 -15 36t15 36t36 15t36 -15t15 -36t-15 -36t-36 -15t-36 15z" />
    <glyph glyph-name="uniFC32" unicode="&#xfed3;&#xfef2;" horiz-adv-x="816" arabic-form="isolated" 
d="M724 466q42 -65 42 -167v-65q0 -80 -33 -133.5t-116 -74.5q39 -34 39 -93q0 -64 -38 -113t-109.5 -76t-170.5 -27q-158 0 -233 66.5t-75 208.5q0 88 38 160q7 13 18 21t23 8q7 0 13 -3q22 -9 22 -33q0 -9 -5 -22q-29 -67 -29 -131q0 -67 22.5 -105t73.5 -55t140 -17
q113 0 176.5 31t63.5 87q0 31 -38.5 47.5t-112.5 24.5q-50 6 -50 49q0 19 14.5 31t36.5 12l62 -1q97 0 148 23.5t51 84.5v43q-25 -62 -121 -62q-146 0 -146 157q0 54 21.5 97t60 67.5t86.5 24.5q84 0 126 -65zM697 305v6q-1 48 -24 85t-79 37q-41 0 -68 -24.5t-27 -63.5
q0 -38 20.5 -54t69.5 -16q91 0 108 30zM249.5 -437q-13.5 14 -13.5 33t13.5 32.5t32.5 13.5t33 -13.5t14 -32.5t-14 -33t-33 -14t-32.5 14zM359.5 -437q-13.5 14 -13.5 33t13.5 32.5t32.5 13.5t33 -13.5t14 -32.5t-14 -33t-33 -14t-32.5 14zM562 643q-15 15 -15 36t15 36
t36 15t36 -15t15 -36t-15 -36t-36 -15t-36 15z" />
    <glyph glyph-name="uniFC35" unicode="&#xfed7;&#xfef0;" horiz-adv-x="816" arabic-form="isolated" 
d="M724 466q42 -65 42 -167v-65q0 -80 -33 -133.5t-116 -74.5q39 -34 39 -93q0 -64 -38 -113t-109.5 -76t-170.5 -27q-158 0 -233 66.5t-75 208.5q0 88 38 160q7 13 18 21t23 8q7 0 13 -3q22 -9 22 -33q0 -9 -5 -22q-29 -67 -29 -131q0 -67 22.5 -105t73.5 -55t140 -17
q113 0 176.5 31t63.5 87q0 31 -38.5 47.5t-112.5 24.5q-50 6 -50 49q0 19 14.5 31t36.5 12l62 -1q97 0 148 23.5t51 84.5v43q-25 -62 -121 -62q-146 0 -146 157q0 54 21.5 97t60 67.5t86.5 24.5q84 0 126 -65zM697 305v6q-1 48 -24 85t-79 37q-41 0 -68 -24.5t-27 -63.5
q0 -38 20.5 -54t69.5 -16q91 0 108 30zM508.5 634q-13.5 14 -13.5 33t13.5 32.5t32.5 13.5t33 -13.5t14 -32.5t-14 -33t-33 -14t-32.5 14zM618.5 634q-13.5 14 -13.5 33t13.5 32.5t32.5 13.5t33 -13.5t14 -32.5t-14 -33t-33 -14t-32.5 14z" />
    <glyph glyph-name="uniFC36" unicode="&#xfed7;&#xfef2;" horiz-adv-x="816" arabic-form="isolated" 
d="M724 466q42 -65 42 -167v-65q0 -80 -33 -133.5t-116 -74.5q39 -34 39 -93q0 -64 -38 -113t-109.5 -76t-170.5 -27q-158 0 -233 66.5t-75 208.5q0 88 38 160q7 13 18 21t23 8q7 0 13 -3q22 -9 22 -33q0 -9 -5 -22q-29 -67 -29 -131q0 -67 22.5 -105t73.5 -55t140 -17
q113 0 176.5 31t63.5 87q0 31 -38.5 47.5t-112.5 24.5q-50 6 -50 49q0 19 14.5 31t36.5 12l62 -1q97 0 148 23.5t51 84.5v43q-25 -62 -121 -62q-146 0 -146 157q0 54 21.5 97t60 67.5t86.5 24.5q84 0 126 -65zM697 305v6q-1 48 -24 85t-79 37q-41 0 -68 -24.5t-27 -63.5
q0 -38 20.5 -54t69.5 -16q91 0 108 30zM508.5 634q-13.5 14 -13.5 33t13.5 32.5t32.5 13.5t33 -13.5t14 -32.5t-14 -33t-33 -14t-32.5 14zM618.5 634q-13.5 14 -13.5 33t13.5 32.5t32.5 13.5t33 -13.5t14 -32.5t-14 -33t-33 -14t-32.5 14zM249.5 -437q-13.5 14 -13.5 33
t13.5 32.5t32.5 13.5t33 -13.5t14 -32.5t-14 -33t-33 -14t-32.5 14zM359.5 -437q-13.5 14 -13.5 33t13.5 32.5t32.5 13.5t33 -13.5t14 -32.5t-14 -33t-33 -14t-32.5 14z" />
    <glyph glyph-name="uniFC3D" unicode="&#xfedb;&#xfef0;" horiz-adv-x="839" arabic-form="isolated" 
d="M863 694q0 -23 -30 -43l-309 -199q141 -63 204 -123t63 -143q0 -73 -43 -117t-121 -56q29 -31 29 -80q0 -64 -38 -113t-109.5 -76t-170.5 -27q-158 0 -233 66.5t-75 208.5q0 88 38 160q7 13 18 21t23 8q7 0 13 -3q22 -9 22 -33q0 -9 -5 -22q-29 -67 -29 -131
q0 -67 22.5 -105t73.5 -55t140 -17q113 0 176.5 31t63.5 87q0 36 -28.5 54.5t-87.5 23.5q-21 2 -34 14.5t-13 31.5q0 23 13.5 37t36.5 11q54 -7 93 -7q57 0 106 16t49 58q0 37 -17.5 66t-66 60t-140.5 68q-40 16 -54.5 36t-14.5 45q0 37 36 60l328 215q18 12 33 12
q23 0 33 -21q5 -10 5 -19z" />
    <glyph glyph-name="uniFC3E" unicode="&#xfedb;&#xfef2;" horiz-adv-x="839" arabic-form="isolated" 
d="M863 694q0 -23 -30 -43l-309 -199q141 -63 204 -123t63 -143q0 -73 -43 -117t-121 -56q29 -31 29 -80q0 -64 -38 -113t-109.5 -76t-170.5 -27q-158 0 -233 66.5t-75 208.5q0 88 38 160q7 13 18 21t23 8q7 0 13 -3q22 -9 22 -33q0 -9 -5 -22q-29 -67 -29 -131
q0 -67 22.5 -105t73.5 -55t140 -17q113 0 176.5 31t63.5 87q0 36 -28.5 54.5t-87.5 23.5q-21 2 -34 14.5t-13 31.5q0 23 13.5 37t36.5 11q54 -7 93 -7q57 0 106 16t49 58q0 37 -17.5 66t-66 60t-140.5 68q-40 16 -54.5 36t-14.5 45q0 37 36 60l328 215q18 12 33 12
q23 0 33 -21q5 -10 5 -19zM249.5 -437q-13.5 14 -13.5 33t13.5 32.5t32.5 13.5t33 -13.5t14 -32.5t-14 -33t-33 -14t-32.5 14zM359.5 -437q-13.5 14 -13.5 33t13.5 32.5t32.5 13.5t33 -13.5t14 -32.5t-14 -33t-33 -14t-32.5 14z" />
    <glyph glyph-name="uniFC43" unicode="&#xfedf;&#xfef0;" horiz-adv-x="801" arabic-form="isolated" 
d="M710.5 720.5q10.5 -13.5 10.5 -38.5v-435q0 -99 -24 -151.5t-80 -72.5q39 -34 39 -90q0 -64 -38 -113t-109.5 -76t-170.5 -27q-158 0 -233 66.5t-75 208.5q0 50 11 88t27 72q7 14 17.5 21.5t22.5 7.5q7 0 14 -3q22 -9 22 -33q0 -9 -5 -22q-29 -67 -29 -131
q0 -67 22.5 -105t73.5 -55t140 -17q113 0 176.5 31t63.5 87q0 36 -29 54.5t-87 23.5q-21 1 -34 14t-13 32q0 20 12.5 33t32.5 13l24 -2q42 -3 40 -3q43 0 65.5 8.5t31.5 29.5t9 62v484q0 25 11 38.5t31 13.5t30.5 -13.5z" />
    <glyph glyph-name="uniFC44" unicode="&#xfedf;&#xfef2;" horiz-adv-x="801" arabic-form="isolated" 
d="M710.5 720.5q10.5 -13.5 10.5 -38.5v-435q0 -99 -24 -151.5t-80 -72.5q39 -34 39 -90q0 -64 -38 -113t-109.5 -76t-170.5 -27q-158 0 -233 66.5t-75 208.5q0 50 11 88t27 72q7 14 17.5 21.5t22.5 7.5q7 0 14 -3q22 -9 22 -33q0 -9 -5 -22q-29 -67 -29 -131
q0 -67 22.5 -105t73.5 -55t140 -17q113 0 176.5 31t63.5 87q0 36 -29 54.5t-87 23.5q-21 1 -34 14t-13 32q0 20 12.5 33t32.5 13l24 -2q42 -3 40 -3q43 0 65.5 8.5t31.5 29.5t9 62v484q0 25 11 38.5t31 13.5t30.5 -13.5zM249.5 -437q-13.5 14 -13.5 33t13.5 32.5t32.5 13.5
t33 -13.5t14 -32.5t-14 -33t-33 -14t-32.5 14zM359.5 -437q-13.5 14 -13.5 33t13.5 32.5t32.5 13.5t33 -13.5t14 -32.5t-14 -33t-33 -14t-32.5 14z" />
    <glyph glyph-name="uniFC4F" unicode="&#xfee7;&#xfef0;" horiz-adv-x="778" arabic-form="isolated" 
d="M699 96.5q-29 -52.5 -83 -72.5q40 -35 40 -91q0 -64 -38 -113t-109.5 -76t-170.5 -27q-158 0 -233 66.5t-75 208.5q0 82 31 155q6 14 16.5 21.5t22.5 7.5q6 0 14 -3q22 -9 22 -31q0 -7 -4 -21q-22 -68 -22 -129q0 -67 22.5 -105t73.5 -55t140 -17q113 0 176.5 31t63.5 87
q0 34 -34.5 53.5t-82.5 24.5q-21 3 -33.5 15t-12.5 31q0 21 12.5 32.5t34.5 11.5q14 0 22 -1l43 -1q64 0 90.5 30.5t26.5 100.5q0 57 -9 115q-3 20 8.5 32t28.5 12q15 0 25.5 -9.5t13.5 -27.5q9 -55 9 -122q0 -81 -29 -133.5zM644 501q-15 15 -15 36t15 36t36 15t36 -15
t15 -36t-15 -36t-36 -15t-36 15z" />
    <glyph glyph-name="uniFC50" unicode="&#xfee7;&#xfef2;" horiz-adv-x="778" arabic-form="isolated" 
d="M699 96.5q-29 -52.5 -83 -72.5q40 -35 40 -91q0 -64 -38 -113t-109.5 -76t-170.5 -27q-158 0 -233 66.5t-75 208.5q0 82 31 155q6 14 16.5 21.5t22.5 7.5q6 0 14 -3q22 -9 22 -31q0 -7 -4 -21q-22 -68 -22 -129q0 -67 22.5 -105t73.5 -55t140 -17q113 0 176.5 31t63.5 87
q0 34 -34.5 53.5t-82.5 24.5q-21 3 -33.5 15t-12.5 31q0 21 12.5 32.5t34.5 11.5q14 0 22 -1l43 -1q64 0 90.5 30.5t26.5 100.5q0 57 -9 115q-3 20 8.5 32t28.5 12q15 0 25.5 -9.5t13.5 -27.5q9 -55 9 -122q0 -81 -29 -133.5zM644 501q-15 15 -15 36t15 36t36 15t36 -15
t15 -36t-15 -36t-36 -15t-36 15zM250.5 -437q-13.5 14 -13.5 33t13.5 32.5t32.5 13.5t33 -13.5t14 -32.5t-14 -33t-33 -14t-32.5 14zM360.5 -437q-13.5 14 -13.5 33t13.5 32.5t32.5 13.5t33 -13.5t14 -32.5t-14 -33t-33 -14t-32.5 14z" />
    <glyph glyph-name="uniFC59" unicode="&#xfef3;&#xfef0;" horiz-adv-x="778" arabic-form="isolated" 
d="M699 96.5q-29 -52.5 -83 -72.5q40 -35 40 -91q0 -64 -38 -113t-109.5 -76t-170.5 -27q-158 0 -233 66.5t-75 208.5q0 82 31 155q6 14 16.5 21.5t22.5 7.5q6 0 14 -3q22 -9 22 -31q0 -7 -4 -21q-22 -68 -22 -129q0 -67 22.5 -105t73.5 -55t140 -17q113 0 176.5 31t63.5 87
q0 34 -34.5 53.5t-82.5 24.5q-21 3 -33.5 15t-12.5 31q0 21 12.5 32.5t34.5 11.5q14 0 22 -1l43 -1q64 0 90.5 30.5t26.5 100.5q0 57 -9 115q-3 20 8.5 32t28.5 12q15 0 25.5 -9.5t13.5 -27.5q9 -55 9 -122q0 -81 -29 -133.5zM552.5 -377q-13.5 14 -13.5 33t13.5 32.5
t32.5 13.5t33 -13.5t14 -32.5t-14 -33t-33 -14t-32.5 14zM662.5 -377q-13.5 14 -13.5 33t13.5 32.5t32.5 13.5t33 -13.5t14 -32.5t-14 -33t-33 -14t-32.5 14z" />
    <glyph glyph-name="uniFC5A" unicode="&#xfef3;&#xfef2;" horiz-adv-x="778" arabic-form="isolated" 
d="M699 96.5q-29 -52.5 -83 -72.5q40 -35 40 -91q0 -64 -38 -113t-109.5 -76t-170.5 -27q-158 0 -233 66.5t-75 208.5q0 82 31 155q6 14 16.5 21.5t22.5 7.5q6 0 14 -3q22 -9 22 -31q0 -7 -4 -21q-22 -68 -22 -129q0 -67 22.5 -105t73.5 -55t140 -17q113 0 176.5 31t63.5 87
q0 34 -34.5 53.5t-82.5 24.5q-21 3 -33.5 15t-12.5 31q0 21 12.5 32.5t34.5 11.5q14 0 22 -1l43 -1q64 0 90.5 30.5t26.5 100.5q0 57 -9 115q-3 20 8.5 32t28.5 12q15 0 25.5 -9.5t13.5 -27.5q9 -55 9 -122q0 -81 -29 -133.5zM552.5 -377q-13.5 14 -13.5 33t13.5 32.5
t32.5 13.5t33 -13.5t14 -32.5t-14 -33t-33 -14t-32.5 14zM662.5 -377q-13.5 14 -13.5 33t13.5 32.5t32.5 13.5t33 -13.5t14 -32.5t-14 -33t-33 -14t-32.5 14zM250.5 -437q-13.5 14 -13.5 33t13.5 32.5t32.5 13.5t33 -13.5t14 -32.5t-14 -33t-33 -14t-32.5 14zM360.5 -437
q-13.5 14 -13.5 33t13.5 32.5t32.5 13.5t33 -13.5t14 -32.5t-14 -33t-33 -14t-32.5 14z" />
    <glyph glyph-name="uniFC64" unicode="&#xfe8c;&#xfeae;" horiz-adv-x="665" arabic-form="final" 
d="M682 95v-92l-17 -3q-98 0 -148 42t-57 130q-34 -52 -120 -52q-57 0 -81 34q3 -30 3 -68q0 -90 -28.5 -164.5t-80 -117.5t-116.5 -43q-52 0 -79 15q-13 7 -20.5 18.5t-7.5 25.5q0 7 3 16q10 28 39 28q8 0 12 -1q24 -4 46 -4q45 0 81 27.5t56 78.5t20 118q0 75 -18 152
q-2 12 -2 16q0 18 9 29t28 11q28 0 38 -36q6 -21 28 -29t70 -8q58 0 88.5 15.5t30.5 55.5q0 18 10 29.5t27 11.5t26.5 -11.5t9.5 -29.5v-55q0 -76 29.5 -106t103.5 -30zM579 466q9 -8 9 -22q0 -24 -22 -28q-29 -5 -122 -14l-21 -2q-16 -1 -26 7t-10 22q0 27 29 30l9 1
q-19 17 -19 43q0 42 27 65.5t67 23.5q20 0 38 -8q25 -12 25 -33q0 -27 -26 -27q-6 0 -9 1q-15 3 -28 3q-22 0 -33.5 -6t-11.5 -24t7.5 -24t29.5 -6q20 0 63 5q15 1 24 -7z" />
    <glyph glyph-name="uniFC65" unicode="&#xfe8c;&#xfeb0;" horiz-adv-x="665" arabic-form="final" 
d="M682 95v-92l-17 -3q-98 0 -148 42t-57 130q-34 -52 -120 -52q-57 0 -81 34q3 -30 3 -68q0 -90 -28.5 -164.5t-80 -117.5t-116.5 -43q-52 0 -79 15q-13 7 -20.5 18.5t-7.5 25.5q0 7 3 16q10 28 39 28q8 0 12 -1q24 -4 46 -4q45 0 81 27.5t56 78.5t20 118q0 75 -18 152
q-2 12 -2 16q0 18 9 29t28 11q28 0 38 -36q6 -21 28 -29t70 -8q58 0 88.5 15.5t30.5 55.5q0 18 10 29.5t27 11.5t26.5 -11.5t9.5 -29.5v-55q0 -76 29.5 -106t103.5 -30zM579 466q9 -8 9 -22q0 -24 -22 -28q-29 -5 -122 -14l-21 -2q-16 -1 -26 7t-10 22q0 27 29 30l9 1
q-19 17 -19 43q0 42 27 65.5t67 23.5q20 0 38 -8q25 -12 25 -33q0 -27 -26 -27q-6 0 -9 1q-15 3 -28 3q-22 0 -33.5 -6t-11.5 -24t7.5 -24t29.5 -6q20 0 63 5q15 1 24 -7zM165 393q-15 15 -15 36t15 36t36 15t36 -15t15 -36t-15 -36t-36 -15t-36 15z" />
    <glyph glyph-name="uniFC67" unicode="&#xfe8c;&#xfee6;" horiz-adv-x="1031" arabic-form="final" 
d="M1048 95v-92l-17 -3q-98 0 -148 42t-57 130q-34 -52 -120 -52q-33 0 -52.5 9.5t-30.5 28.5q6 -55 6 -108q0 -141 -74.5 -212.5t-232.5 -71.5q-154 0 -223 67.5t-69 213.5q0 95 31 168q6 14 16.5 21.5t22.5 7.5q7 0 14 -3q22 -9 22 -31q0 -7 -4 -21q-22 -68 -22 -142
q0 -69 21 -108.5t69 -57t131 -17.5q118 0 168 42t50 135q0 91 -17 193q-2 10 -2 15q0 17 10 28.5t28 11.5q17 0 26 -8t14 -26q6 -21 28 -29t70 -8q58 0 88.5 15.5t30.5 55.5q0 18 10 29.5t27 11.5t26.5 -11.5t9.5 -29.5v-55q0 -76 29.5 -106t103.5 -30zM290 389
q-15 15 -15 36t15 36t36 15t36 -15t15 -36t-15 -36t-36 -15t-36 15zM944 466q9 -8 9 -22q0 -24 -22 -28q-29 -5 -122 -14l-21 -2q-16 -1 -26 7t-10 22q0 27 29 30l9 1q-19 17 -19 43q0 42 27 65.5t67 23.5q20 0 38 -8q25 -12 25 -33q0 -27 -26 -27q-6 0 -9 1q-15 3 -28 3
q-22 0 -33.5 -6t-11.5 -24t7.5 -24t29.5 -6q20 0 63 5q15 1 24 -7z" />
    <glyph glyph-name="uniFC68" unicode="&#xfe8c;&#xfef0;" horiz-adv-x="899" arabic-form="final" 
d="M64 167q6 14 16.5 21.5t22.5 7.5q7 0 14 -3q22 -9 22 -31q0 -7 -4 -21q-11 -34 -18 -66.5t-7 -70.5q0 -71 24 -112t78.5 -59t148.5 -18q135 0 202.5 28.5t67.5 88.5q0 21 -12.5 32.5t-41.5 19.5t-93 20q-82 16 -112.5 55t-30.5 112q0 52 31 98t81 73.5t105 27.5
q59 0 97.5 -20t61.5 -51t51 -82l21 -39q24 -44 46 -62t64 -18l17 -3v-92l-17 -3q-47 0 -77.5 12.5t-51 35t-41.5 61.5l-25 45q-24 44 -42 67.5t-44 37t-66 13.5q-35 0 -68 -13t-53 -33.5t-20 -43.5q0 -26 10.5 -39t34 -21t82.5 -22q32 -8 27 -7q71 -16 103.5 -54t32.5 -102
q0 -105 -88 -162.5t-257 -57.5q-168 0 -247 69t-79 217q0 84 34 164zM640 506q9 -8 9 -22q0 -24 -22 -28q-29 -5 -122 -14l-21 -2q-16 -1 -26 7t-10 22q0 27 29 30l9 1q-19 17 -19 43q0 42 27 65.5t67 23.5q20 0 38 -8q25 -12 25 -33q0 -27 -26 -27q-6 0 -9 1q-15 3 -28 3
q-22 0 -33.5 -6t-11.5 -24t7.5 -24t29.5 -6q20 0 63 5q15 1 24 -7z" />
    <glyph glyph-name="uniFC69" unicode="&#xfe8c;&#xfef2;" horiz-adv-x="899" arabic-form="final" 
d="M64 167q6 14 16.5 21.5t22.5 7.5q7 0 14 -3q22 -9 22 -31q0 -7 -4 -21q-11 -34 -18 -66.5t-7 -70.5q0 -71 24 -112t78.5 -59t148.5 -18q135 0 202.5 28.5t67.5 88.5q0 21 -12.5 32.5t-41.5 19.5t-93 20q-82 16 -112.5 55t-30.5 112q0 52 31 98t81 73.5t105 27.5
q59 0 97.5 -20t61.5 -51t51 -82l21 -39q24 -44 46 -62t64 -18l17 -3v-92l-17 -3q-47 0 -77.5 12.5t-51 35t-41.5 61.5l-25 45q-24 44 -42 67.5t-44 37t-66 13.5q-35 0 -68 -13t-53 -33.5t-20 -43.5q0 -26 10.5 -39t34 -21t82.5 -22q32 -8 27 -7q71 -16 103.5 -54t32.5 -102
q0 -105 -88 -162.5t-257 -57.5q-168 0 -247 69t-79 217q0 84 34 164zM640 506q9 -8 9 -22q0 -24 -22 -28q-29 -5 -122 -14l-21 -2q-16 -1 -26 7t-10 22q0 27 29 30l9 1q-19 17 -19 43q0 42 27 65.5t67 23.5q20 0 38 -8q25 -12 25 -33q0 -27 -26 -27q-6 0 -9 1q-15 3 -28 3
q-22 0 -33.5 -6t-11.5 -24t7.5 -24t29.5 -6q20 0 63 5q15 1 24 -7zM267.5 -437q-13.5 14 -13.5 33t13.5 32.5t32.5 13.5t33 -13.5t14 -32.5t-14 -33t-33 -14t-32.5 14zM377.5 -437q-13.5 14 -13.5 33t13.5 32.5t32.5 13.5t33 -13.5t14 -32.5t-14 -33t-33 -14t-32.5 14z" />
    <glyph glyph-name="uniFC6A" unicode="&#xfe92;&#xfeae;" horiz-adv-x="665" arabic-form="final" 
d="M682 95v-92l-17 -3q-98 0 -148 42t-57 130q-34 -52 -120 -52q-57 0 -81 34q3 -30 3 -68q0 -90 -28.5 -164.5t-80 -117.5t-116.5 -43q-52 0 -79 15q-13 7 -20.5 18.5t-7.5 25.5q0 7 3 16q10 28 39 28q8 0 12 -1q24 -4 46 -4q45 0 81 27.5t56 78.5t20 118q0 75 -18 152
q-2 12 -2 16q0 18 9 29t28 11q28 0 38 -36q6 -21 28 -29t70 -8q58 0 88.5 15.5t30.5 55.5q0 18 10 29.5t27 11.5t26.5 -11.5t9.5 -29.5v-55q0 -76 29.5 -106t103.5 -30zM458 -161q-15 15 -15 36t15 36t36 15t36 -15t15 -36t-15 -36t-36 -16q-21 1 -36 16z" />
    <glyph glyph-name="uniFC6B" unicode="&#xfe92;&#xfeb0;" horiz-adv-x="665" arabic-form="final" 
d="M682 95v-92l-17 -3q-98 0 -148 42t-57 130q-34 -52 -120 -52q-57 0 -81 34q3 -30 3 -68q0 -90 -28.5 -164.5t-80 -117.5t-116.5 -43q-52 0 -79 15q-13 7 -20.5 18.5t-7.5 25.5q0 7 3 16q10 28 39 28q8 0 12 -1q24 -4 46 -4q45 0 81 27.5t56 78.5t20 118q0 75 -18 152
q-2 12 -2 16q0 18 9 29t28 11q28 0 38 -36q6 -21 28 -29t70 -8q58 0 88.5 15.5t30.5 55.5q0 18 10 29.5t27 11.5t26.5 -11.5t9.5 -29.5v-55q0 -76 29.5 -106t103.5 -30zM458 -161q-15 15 -15 36t15 36t36 15t36 -15t15 -36t-15 -36t-36 -16q-21 1 -36 16zM165 393
q-15 15 -15 36t15 36t36 15t36 -15t15 -36t-15 -36t-36 -15t-36 15z" />
    <glyph glyph-name="uniFC6D" unicode="&#xfe92;&#xfee6;" horiz-adv-x="1031" arabic-form="final" 
d="M1048 95v-92l-17 -3q-98 0 -148 42t-57 130q-34 -52 -120 -52q-33 0 -52.5 9.5t-30.5 28.5q6 -55 6 -108q0 -141 -74.5 -212.5t-232.5 -71.5q-154 0 -223 67.5t-69 213.5q0 95 31 168q6 14 16.5 21.5t22.5 7.5q7 0 14 -3q22 -9 22 -31q0 -7 -4 -21q-22 -68 -22 -142
q0 -69 21 -108.5t69 -57t131 -17.5q118 0 168 42t50 135q0 91 -17 193q-2 10 -2 15q0 17 10 28.5t28 11.5q17 0 26 -8t14 -26q6 -21 28 -29t70 -8q58 0 88.5 15.5t30.5 55.5q0 18 10 29.5t27 11.5t26.5 -11.5t9.5 -29.5v-55q0 -76 29.5 -106t103.5 -30zM831 -161
q-15 15 -15 36t15 36t36 15t36 -15t15 -36t-15 -36t-36 -16q-21 1 -36 16zM290 389q-15 15 -15 36t15 36t36 15t36 -15t15 -36t-15 -36t-36 -15t-36 15z" />
    <glyph glyph-name="uniFC6E" unicode="&#xfe92;&#xfef0;" horiz-adv-x="899" arabic-form="final" 
d="M64 167q6 14 16.5 21.5t22.5 7.5q7 0 14 -3q22 -9 22 -31q0 -7 -4 -21q-11 -34 -18 -66.5t-7 -70.5q0 -71 24 -112t78.5 -59t148.5 -18q135 0 202.5 28.5t67.5 88.5q0 21 -12.5 32.5t-41.5 19.5t-93 20q-82 16 -112.5 55t-30.5 112q0 52 31 98t81 73.5t105 27.5
q59 0 97.5 -20t61.5 -51t51 -82l21 -39q24 -44 46 -62t64 -18l17 -3v-92l-17 -3q-47 0 -77.5 12.5t-51 35t-41.5 61.5l-25 45q-24 44 -42 67.5t-44 37t-66 13.5q-35 0 -68 -13t-53 -33.5t-20 -43.5q0 -26 10.5 -39t34 -21t82.5 -22q32 -8 27 -7q71 -16 103.5 -54t32.5 -102
q0 -105 -88 -162.5t-257 -57.5q-168 0 -247 69t-79 217q0 84 34 164zM807 -181q-15 15 -15 36t15 36t36 15t36 -15t15 -36t-15 -36t-36 -16q-21 1 -36 16z" />
    <glyph glyph-name="uniFC6F" unicode="&#xfe92;&#xfef2;" horiz-adv-x="899" arabic-form="final" 
d="M64 167q6 14 16.5 21.5t22.5 7.5q7 0 14 -3q22 -9 22 -31q0 -7 -4 -21q-11 -34 -18 -66.5t-7 -70.5q0 -71 24 -112t78.5 -59t148.5 -18q135 0 202.5 28.5t67.5 88.5q0 21 -12.5 32.5t-41.5 19.5t-93 20q-82 16 -112.5 55t-30.5 112q0 52 31 98t81 73.5t105 27.5
q59 0 97.5 -20t61.5 -51t51 -82l21 -39q24 -44 46 -62t64 -18l17 -3v-92l-17 -3q-47 0 -77.5 12.5t-51 35t-41.5 61.5l-25 45q-24 44 -42 67.5t-44 37t-66 13.5q-35 0 -68 -13t-53 -33.5t-20 -43.5q0 -26 10.5 -39t34 -21t82.5 -22q32 -8 27 -7q71 -16 103.5 -54t32.5 -102
q0 -105 -88 -162.5t-257 -57.5q-168 0 -247 69t-79 217q0 84 34 164zM807 -181q-15 15 -15 36t15 36t36 15t36 -15t15 -36t-15 -36t-36 -16q-21 1 -36 16zM267.5 -437q-13.5 14 -13.5 33t13.5 32.5t32.5 13.5t33 -13.5t14 -32.5t-14 -33t-33 -14t-32.5 14zM377.5 -437
q-13.5 14 -13.5 33t13.5 32.5t32.5 13.5t33 -13.5t14 -32.5t-14 -33t-33 -14t-32.5 14z" />
    <glyph glyph-name="uniFC70" unicode="&#xfe98;&#xfeae;" horiz-adv-x="665" arabic-form="final" 
d="M682 95v-92l-17 -3q-98 0 -148 42t-57 130q-34 -52 -120 -52q-57 0 -81 34q3 -30 3 -68q0 -90 -28.5 -164.5t-80 -117.5t-116.5 -43q-52 0 -79 15q-13 7 -20.5 18.5t-7.5 25.5q0 7 3 16q10 28 39 28q8 0 12 -1q24 -4 46 -4q45 0 81 27.5t56 78.5t20 118q0 75 -18 152
q-2 12 -2 16q0 18 9 29t28 11q28 0 38 -36q6 -21 28 -29t70 -8q58 0 88.5 15.5t30.5 55.5q0 18 10 29.5t27 11.5t26.5 -11.5t9.5 -29.5v-55q0 -76 29.5 -106t103.5 -30zM407.5 433q-13.5 14 -13.5 33t13.5 32.5t32.5 13.5t33 -13.5t14 -32.5t-14 -33t-33 -14t-32.5 14z
M517.5 433q-13.5 14 -13.5 33t13.5 32.5t32.5 13.5t33 -13.5t14 -32.5t-14 -33t-33 -14t-32.5 14z" />
    <glyph glyph-name="uniFC71" unicode="&#xfe98;&#xfeb0;" horiz-adv-x="665" arabic-form="final" 
d="M682 95v-92l-17 -3q-98 0 -148 42t-57 130q-34 -52 -120 -52q-57 0 -81 34q3 -30 3 -68q0 -90 -28.5 -164.5t-80 -117.5t-116.5 -43q-52 0 -79 15q-13 7 -20.5 18.5t-7.5 25.5q0 7 3 16q10 28 39 28q8 0 12 -1q24 -4 46 -4q45 0 81 27.5t56 78.5t20 118q0 75 -18 152
q-2 12 -2 16q0 18 9 29t28 11q28 0 38 -36q6 -21 28 -29t70 -8q58 0 88.5 15.5t30.5 55.5q0 18 10 29.5t27 11.5t26.5 -11.5t9.5 -29.5v-55q0 -76 29.5 -106t103.5 -30zM165 393q-15 15 -15 36t15 36t36 15t36 -15t15 -36t-15 -36t-36 -15t-36 15zM407.5 433
q-13.5 14 -13.5 33t13.5 32.5t32.5 13.5t33 -13.5t14 -32.5t-14 -33t-33 -14t-32.5 14zM517.5 433q-13.5 14 -13.5 33t13.5 32.5t32.5 13.5t33 -13.5t14 -32.5t-14 -33t-33 -14t-32.5 14z" />
    <glyph glyph-name="uniFC73" unicode="&#xfe98;&#xfee6;" horiz-adv-x="1031" arabic-form="final" 
d="M1048 95v-92l-17 -3q-98 0 -148 42t-57 130q-34 -52 -120 -52q-33 0 -52.5 9.5t-30.5 28.5q6 -55 6 -108q0 -141 -74.5 -212.5t-232.5 -71.5q-154 0 -223 67.5t-69 213.5q0 95 31 168q6 14 16.5 21.5t22.5 7.5q7 0 14 -3q22 -9 22 -31q0 -7 -4 -21q-22 -68 -22 -142
q0 -69 21 -108.5t69 -57t131 -17.5q118 0 168 42t50 135q0 91 -17 193q-2 10 -2 15q0 17 10 28.5t28 11.5q17 0 26 -8t14 -26q6 -21 28 -29t70 -8q58 0 88.5 15.5t30.5 55.5q0 18 10 29.5t27 11.5t26.5 -11.5t9.5 -29.5v-55q0 -76 29.5 -106t103.5 -30zM290 389
q-15 15 -15 36t15 36t36 15t36 -15t15 -36t-15 -36t-36 -15t-36 15zM772.5 433q-13.5 14 -13.5 33t13.5 32.5t32.5 13.5t33 -13.5t14 -32.5t-14 -33t-33 -14t-32.5 14zM882.5 433q-13.5 14 -13.5 33t13.5 32.5t32.5 13.5t33 -13.5t14 -32.5t-14 -33t-33 -14t-32.5 14z" />
    <glyph glyph-name="uniFC74" unicode="&#xfe98;&#xfef0;" horiz-adv-x="899" arabic-form="final" 
d="M64 167q6 14 16.5 21.5t22.5 7.5q7 0 14 -3q22 -9 22 -31q0 -7 -4 -21q-11 -34 -18 -66.5t-7 -70.5q0 -71 24 -112t78.5 -59t148.5 -18q135 0 202.5 28.5t67.5 88.5q0 21 -12.5 32.5t-41.5 19.5t-93 20q-82 16 -112.5 55t-30.5 112q0 52 31 98t81 73.5t105 27.5
q59 0 97.5 -20t61.5 -51t51 -82l21 -39q24 -44 46 -62t64 -18l17 -3v-92l-17 -3q-47 0 -77.5 12.5t-51 35t-41.5 61.5l-25 45q-24 44 -42 67.5t-44 37t-66 13.5q-35 0 -68 -13t-53 -33.5t-20 -43.5q0 -26 10.5 -39t34 -21t82.5 -22q32 -8 27 -7q71 -16 103.5 -54t32.5 -102
q0 -105 -88 -162.5t-257 -57.5q-168 0 -247 69t-79 217q0 84 34 164zM468.5 473q-13.5 14 -13.5 33t13.5 32.5t32.5 13.5t33 -13.5t14 -32.5t-14 -33t-33 -14t-32.5 14zM578.5 473q-13.5 14 -13.5 33t13.5 32.5t32.5 13.5t33 -13.5t14 -32.5t-14 -33t-33 -14t-32.5 14z" />
    <glyph glyph-name="uniFC75" unicode="&#xfe98;&#xfef2;" horiz-adv-x="899" arabic-form="final" 
d="M64 167q6 14 16.5 21.5t22.5 7.5q7 0 14 -3q22 -9 22 -31q0 -7 -4 -21q-11 -34 -18 -66.5t-7 -70.5q0 -71 24 -112t78.5 -59t148.5 -18q135 0 202.5 28.5t67.5 88.5q0 21 -12.5 32.5t-41.5 19.5t-93 20q-82 16 -112.5 55t-30.5 112q0 52 31 98t81 73.5t105 27.5
q59 0 97.5 -20t61.5 -51t51 -82l21 -39q24 -44 46 -62t64 -18l17 -3v-92l-17 -3q-47 0 -77.5 12.5t-51 35t-41.5 61.5l-25 45q-24 44 -42 67.5t-44 37t-66 13.5q-35 0 -68 -13t-53 -33.5t-20 -43.5q0 -26 10.5 -39t34 -21t82.5 -22q32 -8 27 -7q71 -16 103.5 -54t32.5 -102
q0 -105 -88 -162.5t-257 -57.5q-168 0 -247 69t-79 217q0 84 34 164zM468.5 473q-13.5 14 -13.5 33t13.5 32.5t32.5 13.5t33 -13.5t14 -32.5t-14 -33t-33 -14t-32.5 14zM578.5 473q-13.5 14 -13.5 33t13.5 32.5t32.5 13.5t33 -13.5t14 -32.5t-14 -33t-33 -14t-32.5 14z
M267.5 -437q-13.5 14 -13.5 33t13.5 32.5t32.5 13.5t33 -13.5t14 -32.5t-14 -33t-33 -14t-32.5 14zM377.5 -437q-13.5 14 -13.5 33t13.5 32.5t32.5 13.5t33 -13.5t14 -32.5t-14 -33t-33 -14t-32.5 14z" />
    <glyph glyph-name="uniFC76" unicode="&#xfe9c;&#xfeae;" horiz-adv-x="665" arabic-form="final" 
d="M682 95v-92l-17 -3q-98 0 -148 42t-57 130q-34 -52 -120 -52q-57 0 -81 34q3 -30 3 -68q0 -90 -28.5 -164.5t-80 -117.5t-116.5 -43q-52 0 -79 15q-13 7 -20.5 18.5t-7.5 25.5q0 7 3 16q10 28 39 28q8 0 12 -1q24 -4 46 -4q45 0 81 27.5t56 78.5t20 118q0 75 -18 152
q-2 12 -2 16q0 18 9 29t28 11q28 0 38 -36q6 -21 28 -29t70 -8q58 0 88.5 15.5t30.5 55.5q0 18 10 29.5t27 11.5t26.5 -11.5t9.5 -29.5v-55q0 -76 29.5 -106t103.5 -30zM528 601q13 -13 13 -32q0 -18 -13.5 -31t-31.5 -13t-31 13t-13 31t13 31.5t31 13.5q19 0 32 -13z
M473 497q14 -14 14 -33t-14 -32.5t-33 -13.5t-32.5 13.5t-13.5 32.5t13.5 33t32.5 14t33 -14zM583 497q14 -14 14 -33t-14 -32.5t-33 -13.5t-32.5 13.5t-13.5 32.5t13.5 33t32.5 14t33 -14z" />
    <glyph glyph-name="uniFC77" unicode="&#xfe9c;&#xfeb0;" horiz-adv-x="665" arabic-form="final" 
d="M682 95v-92l-17 -3q-98 0 -148 42t-57 130q-34 -52 -120 -52q-57 0 -81 34q3 -30 3 -68q0 -90 -28.5 -164.5t-80 -117.5t-116.5 -43q-52 0 -79 15q-13 7 -20.5 18.5t-7.5 25.5q0 7 3 16q10 28 39 28q8 0 12 -1q24 -4 46 -4q45 0 81 27.5t56 78.5t20 118q0 75 -18 152
q-2 12 -2 16q0 18 9 29t28 11q28 0 38 -36q6 -21 28 -29t70 -8q58 0 88.5 15.5t30.5 55.5q0 18 10 29.5t27 11.5t26.5 -11.5t9.5 -29.5v-55q0 -76 29.5 -106t103.5 -30zM165 393q-15 15 -15 36t15 36t36 15t36 -15t15 -36t-15 -36t-36 -15t-36 15zM528 601q13 -13 13 -32
q0 -18 -13.5 -31t-31.5 -13t-31 13t-13 31t13 31.5t31 13.5q19 0 32 -13zM473 497q14 -14 14 -33t-14 -32.5t-33 -13.5t-32.5 13.5t-13.5 32.5t13.5 33t32.5 14t33 -14zM583 497q14 -14 14 -33t-14 -32.5t-33 -13.5t-32.5 13.5t-13.5 32.5t13.5 33t32.5 14t33 -14z" />
    <glyph glyph-name="uniFC79" unicode="&#xfe9c;&#xfee6;" horiz-adv-x="1031" arabic-form="final" 
d="M1048 95v-92l-17 -3q-98 0 -148 42t-57 130q-34 -52 -120 -52q-33 0 -52.5 9.5t-30.5 28.5q6 -55 6 -108q0 -141 -74.5 -212.5t-232.5 -71.5q-154 0 -223 67.5t-69 213.5q0 95 31 168q6 14 16.5 21.5t22.5 7.5q7 0 14 -3q22 -9 22 -31q0 -7 -4 -21q-22 -68 -22 -142
q0 -69 21 -108.5t69 -57t131 -17.5q118 0 168 42t50 135q0 91 -17 193q-2 10 -2 15q0 17 10 28.5t28 11.5q17 0 26 -8t14 -26q6 -21 28 -29t70 -8q58 0 88.5 15.5t30.5 55.5q0 18 10 29.5t27 11.5t26.5 -11.5t9.5 -29.5v-55q0 -76 29.5 -106t103.5 -30zM290 389
q-15 15 -15 36t15 36t36 15t36 -15t15 -36t-15 -36t-36 -15t-36 15zM893 601q13 -13 13 -32q0 -18 -13.5 -31t-31.5 -13t-31 13t-13 31t13 31.5t31 13.5q19 0 32 -13zM838 497q14 -14 14 -33t-14 -32.5t-33 -13.5t-32.5 13.5t-13.5 32.5t13.5 33t32.5 14t33 -14zM948 497
q14 -14 14 -33t-14 -32.5t-33 -13.5t-32.5 13.5t-13.5 32.5t13.5 33t32.5 14t33 -14z" />
    <glyph glyph-name="uniFC7A" unicode="&#xfe9c;&#xfef0;" horiz-adv-x="899" arabic-form="final" 
d="M64 167q6 14 16.5 21.5t22.5 7.5q7 0 14 -3q22 -9 22 -31q0 -7 -4 -21q-11 -34 -18 -66.5t-7 -70.5q0 -71 24 -112t78.5 -59t148.5 -18q135 0 202.5 28.5t67.5 88.5q0 21 -12.5 32.5t-41.5 19.5t-93 20q-82 16 -112.5 55t-30.5 112q0 52 31 98t81 73.5t105 27.5
q59 0 97.5 -20t61.5 -51t51 -82l21 -39q24 -44 46 -62t64 -18l17 -3v-92l-17 -3q-47 0 -77.5 12.5t-51 35t-41.5 61.5l-25 45q-24 44 -42 67.5t-44 37t-66 13.5q-35 0 -68 -13t-53 -33.5t-20 -43.5q0 -26 10.5 -39t34 -21t82.5 -22q32 -8 27 -7q71 -16 103.5 -54t32.5 -102
q0 -105 -88 -162.5t-257 -57.5q-168 0 -247 69t-79 217q0 84 34 164zM589 641q13 -13 13 -32q0 -18 -13.5 -31t-31.5 -13t-31 13t-13 31t13 31.5t31 13.5q19 0 32 -13zM534 537q14 -14 14 -33t-14 -32.5t-33 -13.5t-32.5 13.5t-13.5 32.5t13.5 33t32.5 14t33 -14zM644 537
q14 -14 14 -33t-14 -32.5t-33 -13.5t-32.5 13.5t-13.5 32.5t13.5 33t32.5 14t33 -14z" />
    <glyph glyph-name="uniFC7B" unicode="&#xfe9c;&#xfef2;" horiz-adv-x="899" arabic-form="final" 
d="M64 167q6 14 16.5 21.5t22.5 7.5q7 0 14 -3q22 -9 22 -31q0 -7 -4 -21q-11 -34 -18 -66.5t-7 -70.5q0 -71 24 -112t78.5 -59t148.5 -18q135 0 202.5 28.5t67.5 88.5q0 21 -12.5 32.5t-41.5 19.5t-93 20q-82 16 -112.5 55t-30.5 112q0 52 31 98t81 73.5t105 27.5
q59 0 97.5 -20t61.5 -51t51 -82l21 -39q24 -44 46 -62t64 -18l17 -3v-92l-17 -3q-47 0 -77.5 12.5t-51 35t-41.5 61.5l-25 45q-24 44 -42 67.5t-44 37t-66 13.5q-35 0 -68 -13t-53 -33.5t-20 -43.5q0 -26 10.5 -39t34 -21t82.5 -22q32 -8 27 -7q71 -16 103.5 -54t32.5 -102
q0 -105 -88 -162.5t-257 -57.5q-168 0 -247 69t-79 217q0 84 34 164zM589 641q13 -13 13 -32q0 -18 -13.5 -31t-31.5 -13t-31 13t-13 31t13 31.5t31 13.5q19 0 32 -13zM534 537q14 -14 14 -33t-14 -32.5t-33 -13.5t-32.5 13.5t-13.5 32.5t13.5 33t32.5 14t33 -14zM644 537
q14 -14 14 -33t-14 -32.5t-33 -13.5t-32.5 13.5t-13.5 32.5t13.5 33t32.5 14t33 -14zM267.5 -437q-13.5 14 -13.5 33t13.5 32.5t32.5 13.5t33 -13.5t14 -32.5t-14 -33t-33 -14t-32.5 14zM377.5 -437q-13.5 14 -13.5 33t13.5 32.5t32.5 13.5t33 -13.5t14 -32.5t-14 -33
t-33 -14t-32.5 14z" />
    <glyph glyph-name="uniFC83" unicode="&#xfedc;&#xfef0;" horiz-adv-x="1061" arabic-form="final" 
d="M1078 95v-92l-17 -3q-76 0 -124.5 26.5t-107.5 96.5q-14 -57 -57.5 -87.5t-135.5 -34.5q20 -30 20 -68q0 -64 -38 -113t-109.5 -76t-170.5 -27q-158 0 -233 66.5t-75 208.5q0 88 38 160q7 13 18 21t23 8q7 0 13 -3q22 -9 22 -33q0 -9 -5 -22q-29 -67 -29 -131
q0 -67 22.5 -105t73.5 -55t140 -17q113 0 176.5 31t63.5 87q0 36 -26.5 53t-82.5 25q-21 2 -34 14.5t-13 31.5q0 23 13.5 37t36.5 11q65 -7 123 -7q69 0 106 7t52.5 20t22.5 37q-78 104 -179 234q-25 32 -25 64q0 23 13 36.5t43 32.5l319 195q19 11 33 11q21 0 33 -21
q5 -10 5 -20q0 -26 -30 -44l-328 -198l25 -33q84 -111 134 -171q54 -66 86 -96t64.5 -42t83.5 -12z" />
    <glyph glyph-name="uniFC84" unicode="&#xfedc;&#xfef2;" horiz-adv-x="1061" arabic-form="final" 
d="M1078 95v-92l-17 -3q-76 0 -124.5 26.5t-107.5 96.5q-14 -57 -57.5 -87.5t-135.5 -34.5q20 -30 20 -68q0 -64 -38 -113t-109.5 -76t-170.5 -27q-158 0 -233 66.5t-75 208.5q0 88 38 160q7 13 18 21t23 8q7 0 13 -3q22 -9 22 -33q0 -9 -5 -22q-29 -67 -29 -131
q0 -67 22.5 -105t73.5 -55t140 -17q113 0 176.5 31t63.5 87q0 36 -26.5 53t-82.5 25q-21 2 -34 14.5t-13 31.5q0 23 13.5 37t36.5 11q65 -7 123 -7q69 0 106 7t52.5 20t22.5 37q-78 104 -179 234q-25 32 -25 64q0 23 13 36.5t43 32.5l319 195q19 11 33 11q21 0 33 -21
q5 -10 5 -20q0 -26 -30 -44l-328 -198l25 -33q84 -111 134 -171q54 -66 86 -96t64.5 -42t83.5 -12zM249.5 -437q-13.5 14 -13.5 33t13.5 32.5t32.5 13.5t33 -13.5t14 -32.5t-14 -33t-33 -14t-32.5 14zM359.5 -437q-13.5 14 -13.5 33t13.5 32.5t32.5 13.5t33 -13.5t14 -32.5
t-14 -33t-33 -14t-32.5 14z" />
    <glyph glyph-name="uniFC86" unicode="&#xfee0;&#xfef0;" horiz-adv-x="858" arabic-form="final" 
d="M875 95v-92l-17 -3q-69 0 -111.5 19t-58.5 59q-25 -39 -71 -55q39 -34 39 -90q0 -64 -38 -113t-109.5 -76t-170.5 -27q-158 0 -233 66.5t-75 208.5q0 50 11 88t27 72q7 14 17.5 21.5t22.5 7.5q7 0 14 -3q22 -9 22 -33q0 -9 -5 -22q-29 -67 -29 -131q0 -67 22.5 -105
t73.5 -55t140 -17q113 0 176.5 31t63.5 87q0 36 -29 54.5t-87 23.5q-21 1 -34 14t-13 32q0 20 12.5 33t32.5 13l24 -2q42 -3 40 -3q43 0 65.5 8.5t31.5 29.5t9 62v484q0 25 11 38.5t31 13.5t30.5 -13.5t10.5 -38.5v-435v-3v-10q0 -55 13 -84t42 -40.5t82 -11.5z" />
    <glyph glyph-name="uniFC87" unicode="&#xfee0;&#xfef2;" horiz-adv-x="858" arabic-form="final" 
d="M875 95v-92l-17 -3q-69 0 -111.5 19t-58.5 59q-25 -39 -71 -55q39 -34 39 -90q0 -64 -38 -113t-109.5 -76t-170.5 -27q-158 0 -233 66.5t-75 208.5q0 50 11 88t27 72q7 14 17.5 21.5t22.5 7.5q7 0 14 -3q22 -9 22 -33q0 -9 -5 -22q-29 -67 -29 -131q0 -67 22.5 -105
t73.5 -55t140 -17q113 0 176.5 31t63.5 87q0 36 -29 54.5t-87 23.5q-21 1 -34 14t-13 32q0 20 12.5 33t32.5 13l24 -2q42 -3 40 -3q43 0 65.5 8.5t31.5 29.5t9 62v484q0 25 11 38.5t31 13.5t30.5 -13.5t10.5 -38.5v-435v-3v-10q0 -55 13 -84t42 -40.5t82 -11.5zM249.5 -437
q-13.5 14 -13.5 33t13.5 32.5t32.5 13.5t33 -13.5t14 -32.5t-14 -33t-33 -14t-32.5 14zM359.5 -437q-13.5 14 -13.5 33t13.5 32.5t32.5 13.5t33 -13.5t14 -32.5t-14 -33t-33 -14t-32.5 14z" />
    <glyph glyph-name="uniFC8A" unicode="&#xfee8;&#xfeae;" horiz-adv-x="665" arabic-form="final" 
d="M682 95v-92l-17 -3q-98 0 -148 42t-57 130q-34 -52 -120 -52q-57 0 -81 34q3 -30 3 -68q0 -90 -28.5 -164.5t-80 -117.5t-116.5 -43q-52 0 -79 15q-13 7 -20.5 18.5t-7.5 25.5q0 7 3 16q10 28 39 28q8 0 12 -1q24 -4 46 -4q45 0 81 27.5t56 78.5t20 118q0 75 -18 152
q-2 12 -2 16q0 18 9 29t28 11q28 0 38 -36q6 -21 28 -29t70 -8q58 0 88.5 15.5t30.5 55.5q0 18 10 29.5t27 11.5t26.5 -11.5t9.5 -29.5v-55q0 -76 29.5 -106t103.5 -30zM461 442q-15 15 -15 36t15 36t36 15t36 -15t15 -36t-15 -36t-36 -15t-36 15z" />
    <glyph glyph-name="uniFC8B" unicode="&#xfee8;&#xfeb0;" horiz-adv-x="665" arabic-form="final" 
d="M682 95v-92l-17 -3q-98 0 -148 42t-57 130q-34 -52 -120 -52q-57 0 -81 34q3 -30 3 -68q0 -90 -28.5 -164.5t-80 -117.5t-116.5 -43q-52 0 -79 15q-13 7 -20.5 18.5t-7.5 25.5q0 7 3 16q10 28 39 28q8 0 12 -1q24 -4 46 -4q45 0 81 27.5t56 78.5t20 118q0 75 -18 152
q-2 12 -2 16q0 18 9 29t28 11q28 0 38 -36q6 -21 28 -29t70 -8q58 0 88.5 15.5t30.5 55.5q0 18 10 29.5t27 11.5t26.5 -11.5t9.5 -29.5v-55q0 -76 29.5 -106t103.5 -30zM461 442q-15 15 -15 36t15 36t36 15t36 -15t15 -36t-15 -36t-36 -15t-36 15zM165 393q-15 15 -15 36
t15 36t36 15t36 -15t15 -36t-15 -36t-36 -15t-36 15z" />
    <glyph glyph-name="uniFC8D" unicode="&#xfee8;&#xfee6;" horiz-adv-x="1031" arabic-form="final" 
d="M1048 95v-92l-17 -3q-98 0 -148 42t-57 130q-34 -52 -120 -52q-33 0 -52.5 9.5t-30.5 28.5q6 -55 6 -108q0 -141 -74.5 -212.5t-232.5 -71.5q-154 0 -223 67.5t-69 213.5q0 95 31 168q6 14 16.5 21.5t22.5 7.5q7 0 14 -3q22 -9 22 -31q0 -7 -4 -21q-22 -68 -22 -142
q0 -69 21 -108.5t69 -57t131 -17.5q118 0 168 42t50 135q0 91 -17 193q-2 10 -2 15q0 17 10 28.5t28 11.5q17 0 26 -8t14 -26q6 -21 28 -29t70 -8q58 0 88.5 15.5t30.5 55.5q0 18 10 29.5t27 11.5t26.5 -11.5t9.5 -29.5v-55q0 -76 29.5 -106t103.5 -30zM290 389
q-15 15 -15 36t15 36t36 15t36 -15t15 -36t-15 -36t-36 -15t-36 15zM826 442q-15 15 -15 36t15 36t36 15t36 -15t15 -36t-15 -36t-36 -15t-36 15z" />
    <glyph glyph-name="uniFC8E" unicode="&#xfee8;&#xfef0;" horiz-adv-x="899" arabic-form="final" 
d="M64 167q6 14 16.5 21.5t22.5 7.5q7 0 14 -3q22 -9 22 -31q0 -7 -4 -21q-11 -34 -18 -66.5t-7 -70.5q0 -71 24 -112t78.5 -59t148.5 -18q135 0 202.5 28.5t67.5 88.5q0 21 -12.5 32.5t-41.5 19.5t-93 20q-82 16 -112.5 55t-30.5 112q0 52 31 98t81 73.5t105 27.5
q59 0 97.5 -20t61.5 -51t51 -82l21 -39q24 -44 46 -62t64 -18l17 -3v-92l-17 -3q-47 0 -77.5 12.5t-51 35t-41.5 61.5l-25 45q-24 44 -42 67.5t-44 37t-66 13.5q-35 0 -68 -13t-53 -33.5t-20 -43.5q0 -26 10.5 -39t34 -21t82.5 -22q32 -8 27 -7q71 -16 103.5 -54t32.5 -102
q0 -105 -88 -162.5t-257 -57.5q-168 0 -247 69t-79 217q0 84 34 164zM522 482q-15 15 -15 36t15 36t36 15t36 -15t15 -36t-15 -36t-36 -15t-36 15z" />
    <glyph glyph-name="uniFC8F" unicode="&#xfee8;&#xfef2;" horiz-adv-x="899" arabic-form="final" 
d="M64 167q6 14 16.5 21.5t22.5 7.5q7 0 14 -3q22 -9 22 -31q0 -7 -4 -21q-11 -34 -18 -66.5t-7 -70.5q0 -71 24 -112t78.5 -59t148.5 -18q135 0 202.5 28.5t67.5 88.5q0 21 -12.5 32.5t-41.5 19.5t-93 20q-82 16 -112.5 55t-30.5 112q0 52 31 98t81 73.5t105 27.5
q59 0 97.5 -20t61.5 -51t51 -82l21 -39q24 -44 46 -62t64 -18l17 -3v-92l-17 -3q-47 0 -77.5 12.5t-51 35t-41.5 61.5l-25 45q-24 44 -42 67.5t-44 37t-66 13.5q-35 0 -68 -13t-53 -33.5t-20 -43.5q0 -26 10.5 -39t34 -21t82.5 -22q32 -8 27 -7q71 -16 103.5 -54t32.5 -102
q0 -105 -88 -162.5t-257 -57.5q-168 0 -247 69t-79 217q0 84 34 164zM522 482q-15 15 -15 36t15 36t36 15t36 -15t15 -36t-15 -36t-36 -15t-36 15zM267.5 -437q-13.5 14 -13.5 33t13.5 32.5t32.5 13.5t33 -13.5t14 -32.5t-14 -33t-33 -14t-32.5 14zM377.5 -437
q-13.5 14 -13.5 33t13.5 32.5t32.5 13.5t33 -13.5t14 -32.5t-14 -33t-33 -14t-32.5 14z" />
    <glyph glyph-name="uniFC91" unicode="&#xfef4;&#xfeae;" horiz-adv-x="665" arabic-form="final" 
d="M682 95v-92l-17 -3q-98 0 -148 42t-57 130q-34 -52 -120 -52q-57 0 -81 34q3 -30 3 -68q0 -90 -28.5 -164.5t-80 -117.5t-116.5 -43q-52 0 -79 15q-13 7 -20.5 18.5t-7.5 25.5q0 7 3 16q10 28 39 28q8 0 12 -1q24 -4 46 -4q45 0 81 27.5t56 78.5t20 118q0 75 -18 152
q-2 12 -2 16q0 18 9 29t28 11q28 0 38 -36q6 -21 28 -29t70 -8q58 0 88.5 15.5t30.5 55.5q0 18 10 29.5t27 11.5t26.5 -11.5t9.5 -29.5v-55q0 -76 29.5 -106t103.5 -30zM405.5 -134q-13.5 14 -13.5 33t13.5 32.5t32.5 13.5t33 -13.5t14 -32.5t-14 -33t-33 -14t-32.5 14z
M515.5 -134q-13.5 14 -13.5 33t13.5 32.5t32.5 13.5t33 -13.5t14 -32.5t-14 -33t-33 -14t-32.5 14z" />
    <glyph glyph-name="uniFC92" unicode="&#xfef4;&#xfeb0;" horiz-adv-x="665" arabic-form="final" 
d="M682 95v-92l-17 -3q-98 0 -148 42t-57 130q-34 -52 -120 -52q-57 0 -81 34q3 -30 3 -68q0 -90 -28.5 -164.5t-80 -117.5t-116.5 -43q-52 0 -79 15q-13 7 -20.5 18.5t-7.5 25.5q0 7 3 16q10 28 39 28q8 0 12 -1q24 -4 46 -4q45 0 81 27.5t56 78.5t20 118q0 75 -18 152
q-2 12 -2 16q0 18 9 29t28 11q28 0 38 -36q6 -21 28 -29t70 -8q58 0 88.5 15.5t30.5 55.5q0 18 10 29.5t27 11.5t26.5 -11.5t9.5 -29.5v-55q0 -76 29.5 -106t103.5 -30zM405.5 -134q-13.5 14 -13.5 33t13.5 32.5t32.5 13.5t33 -13.5t14 -32.5t-14 -33t-33 -14t-32.5 14z
M515.5 -134q-13.5 14 -13.5 33t13.5 32.5t32.5 13.5t33 -13.5t14 -32.5t-14 -33t-33 -14t-32.5 14zM165 393q-15 15 -15 36t15 36t36 15t36 -15t15 -36t-15 -36t-36 -15t-36 15z" />
    <glyph glyph-name="uniFC94" unicode="&#xfef4;&#xfee6;" horiz-adv-x="1031" arabic-form="final" 
d="M1048 95v-92l-17 -3q-98 0 -148 42t-57 130q-34 -52 -120 -52q-33 0 -52.5 9.5t-30.5 28.5q6 -55 6 -108q0 -141 -74.5 -212.5t-232.5 -71.5q-154 0 -223 67.5t-69 213.5q0 95 31 168q6 14 16.5 21.5t22.5 7.5q7 0 14 -3q22 -9 22 -31q0 -7 -4 -21q-22 -68 -22 -142
q0 -69 21 -108.5t69 -57t131 -17.5q118 0 168 42t50 135q0 91 -17 193q-2 10 -2 15q0 17 10 28.5t28 11.5q17 0 26 -8t14 -26q6 -21 28 -29t70 -8q58 0 88.5 15.5t30.5 55.5q0 18 10 29.5t27 11.5t26.5 -11.5t9.5 -29.5v-55q0 -76 29.5 -106t103.5 -30zM290 389
q-15 15 -15 36t15 36t36 15t36 -15t15 -36t-15 -36t-36 -15t-36 15zM778.5 -134q-13.5 14 -13.5 33t13.5 32.5t32.5 13.5t33 -13.5t14 -32.5t-14 -33t-33 -14t-32.5 14zM888.5 -134q-13.5 14 -13.5 33t13.5 32.5t32.5 13.5t33 -13.5t14 -32.5t-14 -33t-33 -14t-32.5 14z" />
    <glyph glyph-name="uniFC95" unicode="&#xfef4;&#xfef0;" horiz-adv-x="899" arabic-form="final" 
d="M64 167q6 14 16.5 21.5t22.5 7.5q7 0 14 -3q22 -9 22 -31q0 -7 -4 -21q-11 -34 -18 -66.5t-7 -70.5q0 -71 24 -112t78.5 -59t148.5 -18q135 0 202.5 28.5t67.5 88.5q0 21 -12.5 32.5t-41.5 19.5t-93 20q-82 16 -112.5 55t-30.5 112q0 52 31 98t81 73.5t105 27.5
q59 0 97.5 -20t61.5 -51t51 -82l21 -39q24 -44 46 -62t64 -18l17 -3v-92l-17 -3q-47 0 -77.5 12.5t-51 35t-41.5 61.5l-25 45q-24 44 -42 67.5t-44 37t-66 13.5q-35 0 -68 -13t-53 -33.5t-20 -43.5q0 -26 10.5 -39t34 -21t82.5 -22q32 -8 27 -7q71 -16 103.5 -54t32.5 -102
q0 -105 -88 -162.5t-257 -57.5q-168 0 -247 69t-79 217q0 84 34 164zM754.5 -154q-13.5 14 -13.5 33t13.5 32.5t32.5 13.5t33 -13.5t14 -32.5t-14 -33t-33 -14t-32.5 14zM864.5 -154q-13.5 14 -13.5 33t13.5 32.5t32.5 13.5t33 -13.5t14 -32.5t-14 -33t-33 -14t-32.5 14z
" />
    <glyph glyph-name="uniFC96" unicode="&#xfef4;&#xfef2;" horiz-adv-x="899" arabic-form="final" 
d="M64 167q6 14 16.5 21.5t22.5 7.5q7 0 14 -3q22 -9 22 -31q0 -7 -4 -21q-11 -34 -18 -66.5t-7 -70.5q0 -71 24 -112t78.5 -59t148.5 -18q135 0 202.5 28.5t67.5 88.5q0 21 -12.5 32.5t-41.5 19.5t-93 20q-82 16 -112.5 55t-30.5 112q0 52 31 98t81 73.5t105 27.5
q59 0 97.5 -20t61.5 -51t51 -82l21 -39q24 -44 46 -62t64 -18l17 -3v-92l-17 -3q-47 0 -77.5 12.5t-51 35t-41.5 61.5l-25 45q-24 44 -42 67.5t-44 37t-66 13.5q-35 0 -68 -13t-53 -33.5t-20 -43.5q0 -26 10.5 -39t34 -21t82.5 -22q32 -8 27 -7q71 -16 103.5 -54t32.5 -102
q0 -105 -88 -162.5t-257 -57.5q-168 0 -247 69t-79 217q0 84 34 164zM754.5 -154q-13.5 14 -13.5 33t13.5 32.5t32.5 13.5t33 -13.5t14 -32.5t-14 -33t-33 -14t-32.5 14zM864.5 -154q-13.5 14 -13.5 33t13.5 32.5t32.5 13.5t33 -13.5t14 -32.5t-14 -33t-33 -14t-32.5 14z
M267.5 -437q-13.5 14 -13.5 33t13.5 32.5t32.5 13.5t33 -13.5t14 -32.5t-14 -33t-33 -14t-32.5 14zM377.5 -437q-13.5 14 -13.5 33t13.5 32.5t32.5 13.5t33 -13.5t14 -32.5t-14 -33t-33 -14t-32.5 14z" />
    <glyph glyph-name="uniFCFB" unicode="&#xfeb3;&#xfef0;" horiz-adv-x="1373" arabic-form="isolated" 
d="M1323 194q0 -96 -43 -145t-120 -49q-53 0 -85 15.5t-46 48.5q-30 -64 -130 -64q-47 0 -77.5 12.5t-51 35.5t-41.5 61l-25 45q-24 44 -42 67.5t-44 37t-66 13.5q-35 0 -68 -13t-53 -33.5t-20 -43.5q0 -28 12.5 -41.5t39.5 -22t102 -25.5q71 -16 103.5 -54t32.5 -102
q0 -105 -88 -162.5t-257 -57.5q-168 0 -247 69t-79 217q0 88 38 169q6 14 17 21.5t23 7.5q7 0 14 -3q22 -9 22 -33q0 -9 -5 -22q-29 -71 -29 -139q0 -71 24 -112t78.5 -59t148.5 -18q135 0 202.5 28.5t67.5 88.5q0 21 -12.5 32.5t-41 19.5t-93.5 20q-82 16 -112.5 55
t-30.5 112q0 52 31 98t81 73.5t105 27.5q59 0 97.5 -20t61.5 -51t51 -82l21 -39q25 -46 47.5 -63t67.5 -17q53 0 74 21.5t21 76.5v70q0 17 10.5 28.5t26.5 11.5q15 0 26 -11.5t11 -28.5v-70q0 -55 19 -76.5t70 -21.5q48 0 67 20t19 71q0 33 -14 98q-1 4 -1 11q0 16 9.5 27
t26.5 11q27 0 38 -37q16 -52 16 -105z" />
    <glyph glyph-name="uniFCFC" unicode="&#xfeb3;&#xfef2;" horiz-adv-x="1373" arabic-form="isolated" 
d="M1323 194q0 -96 -43 -145t-120 -49q-53 0 -85 15.5t-46 48.5q-30 -64 -130 -64q-47 0 -77.5 12.5t-51 35.5t-41.5 61l-25 45q-24 44 -42 67.5t-44 37t-66 13.5q-35 0 -68 -13t-53 -33.5t-20 -43.5q0 -28 12.5 -41.5t39.5 -22t102 -25.5q71 -16 103.5 -54t32.5 -102
q0 -105 -88 -162.5t-257 -57.5q-168 0 -247 69t-79 217q0 88 38 169q6 14 17 21.5t23 7.5q7 0 14 -3q22 -9 22 -33q0 -9 -5 -22q-29 -71 -29 -139q0 -71 24 -112t78.5 -59t148.5 -18q135 0 202.5 28.5t67.5 88.5q0 21 -12.5 32.5t-41 19.5t-93.5 20q-82 16 -112.5 55
t-30.5 112q0 52 31 98t81 73.5t105 27.5q59 0 97.5 -20t61.5 -51t51 -82l21 -39q25 -46 47.5 -63t67.5 -17q53 0 74 21.5t21 76.5v70q0 17 10.5 28.5t26.5 11.5q15 0 26 -11.5t11 -28.5v-70q0 -55 19 -76.5t70 -21.5q48 0 67 20t19 71q0 33 -14 98q-1 4 -1 11q0 16 9.5 27
t26.5 11q27 0 38 -37q16 -52 16 -105zM267.5 -437q-13.5 14 -13.5 33t13.5 32.5t32.5 13.5t33 -13.5t14 -32.5t-14 -33t-33 -14t-32.5 14zM377.5 -437q-13.5 14 -13.5 33t13.5 32.5t32.5 13.5t33 -13.5t14 -32.5t-14 -33t-33 -14t-32.5 14z" />
    <glyph glyph-name="uniFCFD" unicode="&#xfeb7;&#xfef0;" horiz-adv-x="1373" arabic-form="isolated" 
d="M1323 194q0 -96 -43 -145t-120 -49q-53 0 -85 15.5t-46 48.5q-30 -64 -130 -64q-47 0 -77.5 12.5t-51 35.5t-41.5 61l-25 45q-24 44 -42 67.5t-44 37t-66 13.5q-35 0 -68 -13t-53 -33.5t-20 -43.5q0 -28 12.5 -41.5t39.5 -22t102 -25.5q71 -16 103.5 -54t32.5 -102
q0 -105 -88 -162.5t-257 -57.5q-168 0 -247 69t-79 217q0 88 38 169q6 14 17 21.5t23 7.5q7 0 14 -3q22 -9 22 -33q0 -9 -5 -22q-29 -71 -29 -139q0 -71 24 -112t78.5 -59t148.5 -18q135 0 202.5 28.5t67.5 88.5q0 21 -12.5 32.5t-41 19.5t-93.5 20q-82 16 -112.5 55
t-30.5 112q0 52 31 98t81 73.5t105 27.5q59 0 97.5 -20t61.5 -51t51 -82l21 -39q25 -46 47.5 -63t67.5 -17q53 0 74 21.5t21 76.5v70q0 17 10.5 28.5t26.5 11.5q15 0 26 -11.5t11 -28.5v-70q0 -55 19 -76.5t70 -21.5q48 0 67 20t19 71q0 33 -14 98q-1 4 -1 11q0 16 9.5 27
t26.5 11q27 0 38 -37q16 -52 16 -105zM1067 577q13 -13 13 -32q0 -18 -13.5 -31t-31.5 -13t-31 13t-13 31t13 31.5t31 13.5q19 0 32 -13zM1012 473q14 -14 14 -33t-14 -32.5t-33 -13.5t-32.5 13.5t-13.5 32.5t13.5 33t32.5 14t33 -14zM1122 473q14 -14 14 -33t-14 -32.5
t-33 -13.5t-32.5 13.5t-13.5 32.5t13.5 33t32.5 14t33 -14z" />
    <glyph glyph-name="uniFCFE" unicode="&#xfeb7;&#xfef2;" horiz-adv-x="1373" arabic-form="isolated" 
d="M1323 194q0 -96 -43 -145t-120 -49q-53 0 -85 15.5t-46 48.5q-30 -64 -130 -64q-47 0 -77.5 12.5t-51 35.5t-41.5 61l-25 45q-24 44 -42 67.5t-44 37t-66 13.5q-35 0 -68 -13t-53 -33.5t-20 -43.5q0 -28 12.5 -41.5t39.5 -22t102 -25.5q71 -16 103.5 -54t32.5 -102
q0 -105 -88 -162.5t-257 -57.5q-168 0 -247 69t-79 217q0 88 38 169q6 14 17 21.5t23 7.5q7 0 14 -3q22 -9 22 -33q0 -9 -5 -22q-29 -71 -29 -139q0 -71 24 -112t78.5 -59t148.5 -18q135 0 202.5 28.5t67.5 88.5q0 21 -12.5 32.5t-41 19.5t-93.5 20q-82 16 -112.5 55
t-30.5 112q0 52 31 98t81 73.5t105 27.5q59 0 97.5 -20t61.5 -51t51 -82l21 -39q25 -46 47.5 -63t67.5 -17q53 0 74 21.5t21 76.5v70q0 17 10.5 28.5t26.5 11.5q15 0 26 -11.5t11 -28.5v-70q0 -55 19 -76.5t70 -21.5q48 0 67 20t19 71q0 33 -14 98q-1 4 -1 11q0 16 9.5 27
t26.5 11q27 0 38 -37q16 -52 16 -105zM1067 577q13 -13 13 -32q0 -18 -13.5 -31t-31.5 -13t-31 13t-13 31t13 31.5t31 13.5q19 0 32 -13zM1012 473q14 -14 14 -33t-14 -32.5t-33 -13.5t-32.5 13.5t-13.5 32.5t13.5 33t32.5 14t33 -14zM1122 473q14 -14 14 -33t-14 -32.5
t-33 -13.5t-32.5 13.5t-13.5 32.5t13.5 33t32.5 14t33 -14zM267.5 -437q-13.5 14 -13.5 33t13.5 32.5t32.5 13.5t33 -13.5t14 -32.5t-14 -33t-33 -14t-32.5 14zM377.5 -437q-13.5 14 -13.5 33t13.5 32.5t32.5 13.5t33 -13.5t14 -32.5t-14 -33t-33 -14t-32.5 14z" />
    <glyph glyph-name="uniFD05" unicode="&#xfebb;&#xfef0;" horiz-adv-x="1458" arabic-form="isolated" 
d="M1307.5 404.5q47.5 -30.5 74 -85t26.5 -124.5q0 -100 -60.5 -147.5t-188.5 -47.5h-249q-47 0 -77.5 13.5t-49.5 36t-40 59.5l-31 55q-34 61 -68 89.5t-92 28.5q-38 0 -73 -14.5t-56.5 -37.5t-21.5 -48q0 -26 11.5 -39t36 -21t87.5 -22l29 -7q71 -16 103.5 -54t32.5 -102
q0 -105 -88 -162.5t-257 -57.5q-168 0 -247 69t-79 217q0 88 38 169q6 14 17 21.5t23 7.5q7 0 14 -3q22 -9 22 -33q0 -9 -5 -22q-29 -71 -29 -139q0 -71 24 -112t78.5 -59t148.5 -18q135 0 202.5 28.5t67.5 88.5q0 21 -12.5 32.5t-41.5 19.5t-93 20q-88 16 -120.5 55
t-32.5 112q0 54 32.5 102.5t85 77.5t109.5 29q59 0 99.5 -20.5t66.5 -52.5t52 -80l27 -49q23 -42 31 -53q71 114 129.5 181.5t115 98t121.5 30.5q60 0 107.5 -30.5zM1269.5 106.5q35.5 8.5 51 28.5t15.5 54q0 64 -40.5 106t-101.5 42q-76 0 -147.5 -58t-147.5 -181h3h270
q62 0 97.5 8.5z" />
    <glyph glyph-name="uniFD06" unicode="&#xfebb;&#xfef2;" horiz-adv-x="1458" arabic-form="isolated" 
d="M1307.5 404.5q47.5 -30.5 74 -85t26.5 -124.5q0 -100 -60.5 -147.5t-188.5 -47.5h-249q-47 0 -77.5 13.5t-49.5 36t-40 59.5l-31 55q-34 61 -68 89.5t-92 28.5q-38 0 -73 -14.5t-56.5 -37.5t-21.5 -48q0 -26 11.5 -39t36 -21t87.5 -22l29 -7q71 -16 103.5 -54t32.5 -102
q0 -105 -88 -162.5t-257 -57.5q-168 0 -247 69t-79 217q0 88 38 169q6 14 17 21.5t23 7.5q7 0 14 -3q22 -9 22 -33q0 -9 -5 -22q-29 -71 -29 -139q0 -71 24 -112t78.5 -59t148.5 -18q135 0 202.5 28.5t67.5 88.5q0 21 -12.5 32.5t-41.5 19.5t-93 20q-88 16 -120.5 55
t-32.5 112q0 54 32.5 102.5t85 77.5t109.5 29q59 0 99.5 -20.5t66.5 -52.5t52 -80l27 -49q23 -42 31 -53q71 114 129.5 181.5t115 98t121.5 30.5q60 0 107.5 -30.5zM1269.5 106.5q35.5 8.5 51 28.5t15.5 54q0 64 -40.5 106t-101.5 42q-76 0 -147.5 -58t-147.5 -181h3h270
q62 0 97.5 8.5zM267.5 -437q-13.5 14 -13.5 33t13.5 32.5t32.5 13.5t33 -13.5t14 -32.5t-14 -33t-33 -14t-32.5 14zM377.5 -437q-13.5 14 -13.5 33t13.5 32.5t32.5 13.5t33 -13.5t14 -32.5t-14 -33t-33 -14t-32.5 14z" />
    <glyph glyph-name="uniFD07" unicode="&#xfebf;&#xfef0;" horiz-adv-x="1458" arabic-form="isolated" 
d="M1307.5 404.5q47.5 -30.5 74 -85t26.5 -124.5q0 -100 -60.5 -147.5t-188.5 -47.5h-249q-47 0 -77.5 13.5t-49.5 36t-40 59.5l-31 55q-34 61 -68 89.5t-92 28.5q-38 0 -73 -14.5t-56.5 -37.5t-21.5 -48q0 -26 11.5 -39t36 -21t87.5 -22l29 -7q71 -16 103.5 -54t32.5 -102
q0 -105 -88 -162.5t-257 -57.5q-168 0 -247 69t-79 217q0 88 38 169q6 14 17 21.5t23 7.5q7 0 14 -3q22 -9 22 -33q0 -9 -5 -22q-29 -71 -29 -139q0 -71 24 -112t78.5 -59t148.5 -18q135 0 202.5 28.5t67.5 88.5q0 21 -12.5 32.5t-41.5 19.5t-93 20q-88 16 -120.5 55
t-32.5 112q0 54 32.5 102.5t85 77.5t109.5 29q59 0 99.5 -20.5t66.5 -52.5t52 -80l27 -49q23 -42 31 -53q71 114 129.5 181.5t115 98t121.5 30.5q60 0 107.5 -30.5zM1269.5 106.5q35.5 8.5 51 28.5t15.5 54q0 64 -40.5 106t-101.5 42q-76 0 -147.5 -58t-147.5 -181h3h270
q62 0 97.5 8.5zM1164 547q-15 15 -15 36t15 36t36 15t36 -15t15 -36t-15 -36t-36 -15t-36 15z" />
    <glyph glyph-name="uniFD08" unicode="&#xfebf;&#xfef2;" horiz-adv-x="1458" arabic-form="isolated" 
d="M1307.5 404.5q47.5 -30.5 74 -85t26.5 -124.5q0 -100 -60.5 -147.5t-188.5 -47.5h-249q-47 0 -77.5 13.5t-49.5 36t-40 59.5l-31 55q-34 61 -68 89.5t-92 28.5q-38 0 -73 -14.5t-56.5 -37.5t-21.5 -48q0 -26 11.5 -39t36 -21t87.5 -22l29 -7q71 -16 103.5 -54t32.5 -102
q0 -105 -88 -162.5t-257 -57.5q-168 0 -247 69t-79 217q0 88 38 169q6 14 17 21.5t23 7.5q7 0 14 -3q22 -9 22 -33q0 -9 -5 -22q-29 -71 -29 -139q0 -71 24 -112t78.5 -59t148.5 -18q135 0 202.5 28.5t67.5 88.5q0 21 -12.5 32.5t-41.5 19.5t-93 20q-88 16 -120.5 55
t-32.5 112q0 54 32.5 102.5t85 77.5t109.5 29q59 0 99.5 -20.5t66.5 -52.5t52 -80l27 -49q23 -42 31 -53q71 114 129.5 181.5t115 98t121.5 30.5q60 0 107.5 -30.5zM1269.5 106.5q35.5 8.5 51 28.5t15.5 54q0 64 -40.5 106t-101.5 42q-76 0 -147.5 -58t-147.5 -181h3h270
q62 0 97.5 8.5zM267.5 -437q-13.5 14 -13.5 33t13.5 32.5t32.5 13.5t33 -13.5t14 -32.5t-14 -33t-33 -14t-32.5 14zM377.5 -437q-13.5 14 -13.5 33t13.5 32.5t32.5 13.5t33 -13.5t14 -32.5t-14 -33t-33 -14t-32.5 14zM1164 547q-15 15 -15 36t15 36t36 15t36 -15t15 -36
t-15 -36t-36 -15t-36 15z" />
    <glyph glyph-name="uniFD0D" unicode="&#xfeb7;&#xfeae;" horiz-adv-x="1123" arabic-form="isolated" 
d="M1073 194q0 -96 -43 -145t-120 -49q-104 0 -131 65q-34 -65 -146 -65q-82 0 -124 42.5t-47 131.5q-35 -54 -122 -54q-57 0 -81 34q3 -30 3 -68q0 -90 -28.5 -164.5t-80 -117.5t-116.5 -43q-52 0 -79 15q-13 7 -20.5 18.5t-7.5 25.5q0 7 3 16q10 28 39 28q8 0 12 -1
q24 -4 46 -4q45 0 81 27.5t56 78.5t20 118q0 75 -18 152q-2 12 -2 16q0 18 9 29t28 11q28 0 38 -36q6 -21 28 -29t70 -8q59 0 90 17t31 61q0 18 10.5 29.5t27.5 11.5t26.5 -11.5t9.5 -29.5v-72q0 -71 22 -98.5t79 -27.5q64 0 88.5 21.5t24.5 76.5v70q0 17 10.5 28.5
t26.5 11.5q15 0 26 -11.5t11 -28.5v-70q0 -55 19 -76.5t70 -21.5q48 0 67 20t19 71q0 33 -14 98q-1 4 -1 11q0 16 9.5 27t26.5 11q27 0 38 -37q16 -52 16 -105zM817 577q13 -13 13 -32q0 -18 -13.5 -31t-31.5 -13t-31 13t-13 31t13 31.5t31 13.5q19 0 32 -13zM762 473
q14 -14 14 -33t-14 -32.5t-33 -13.5t-32.5 13.5t-13.5 32.5t13.5 33t32.5 14t33 -14zM872 473q14 -14 14 -33t-14 -32.5t-33 -13.5t-32.5 13.5t-13.5 32.5t13.5 33t32.5 14t33 -14z" />
    <glyph glyph-name="uniFD0E" unicode="&#xfeb3;&#xfeae;" horiz-adv-x="1123" arabic-form="isolated" 
d="M1073 194q0 -96 -43 -145t-120 -49q-104 0 -131 65q-34 -65 -146 -65q-82 0 -124 42.5t-47 131.5q-35 -54 -122 -54q-57 0 -81 34q3 -30 3 -68q0 -90 -28.5 -164.5t-80 -117.5t-116.5 -43q-52 0 -79 15q-13 7 -20.5 18.5t-7.5 25.5q0 7 3 16q10 28 39 28q8 0 12 -1
q24 -4 46 -4q45 0 81 27.5t56 78.5t20 118q0 75 -18 152q-2 12 -2 16q0 18 9 29t28 11q28 0 38 -36q6 -21 28 -29t70 -8q59 0 90 17t31 61q0 18 10.5 29.5t27.5 11.5t26.5 -11.5t9.5 -29.5v-72q0 -71 22 -98.5t79 -27.5q64 0 88.5 21.5t24.5 76.5v70q0 17 10.5 28.5
t26.5 11.5q15 0 26 -11.5t11 -28.5v-70q0 -55 19 -76.5t70 -21.5q48 0 67 20t19 71q0 33 -14 98q-1 4 -1 11q0 16 9.5 27t26.5 11q27 0 38 -37q16 -52 16 -105z" />
    <glyph glyph-name="uniFD0F" unicode="&#xfebb;&#xfeae;" horiz-adv-x="1231" arabic-form="isolated" 
d="M1080.5 404.5q47.5 -30.5 74 -85t26.5 -124.5q0 -100 -60.5 -147.5t-188.5 -47.5h-299q-82 0 -124 42.5t-47 131.5q-35 -54 -122 -54q-57 0 -81 34q3 -30 3 -68q0 -90 -28.5 -164.5t-80 -117.5t-116.5 -43q-52 0 -79 15q-13 7 -20.5 18.5t-7.5 25.5q0 7 3 16q10 28 39 28
q8 0 12 -1q24 -4 46 -4q45 0 81 27.5t56 78.5t20 118q0 75 -18 152q-2 12 -2 16q0 18 9 29t28 11q28 0 38 -36q6 -21 28 -29t70 -8q59 0 90 17t31 61q0 18 10.5 29.5t27.5 11.5t26.5 -11.5t9.5 -29.5v-72q0 -56 13 -84t46 -37q75 123 135.5 194.5t119 104.5t124.5 33
q60 0 107.5 -30.5zM1042.5 106.5q35.5 8.5 51 28.5t15.5 54q0 64 -40.5 106t-101.5 42q-76 0 -147.5 -58t-147.5 -181h273q62 0 97.5 8.5z" />
    <glyph glyph-name="uniFD10" unicode="&#xfebf;&#xfeae;" horiz-adv-x="1231" arabic-form="isolated" 
d="M1080.5 404.5q47.5 -30.5 74 -85t26.5 -124.5q0 -100 -60.5 -147.5t-188.5 -47.5h-299q-82 0 -124 42.5t-47 131.5q-35 -54 -122 -54q-57 0 -81 34q3 -30 3 -68q0 -90 -28.5 -164.5t-80 -117.5t-116.5 -43q-52 0 -79 15q-13 7 -20.5 18.5t-7.5 25.5q0 7 3 16q10 28 39 28
q8 0 12 -1q24 -4 46 -4q45 0 81 27.5t56 78.5t20 118q0 75 -18 152q-2 12 -2 16q0 18 9 29t28 11q28 0 38 -36q6 -21 28 -29t70 -8q59 0 90 17t31 61q0 18 10.5 29.5t27.5 11.5t26.5 -11.5t9.5 -29.5v-72q0 -56 13 -84t46 -37q75 123 135.5 194.5t119 104.5t124.5 33
q60 0 107.5 -30.5zM1042.5 106.5q35.5 8.5 51 28.5t15.5 54q0 64 -40.5 106t-101.5 42q-76 0 -147.5 -58t-147.5 -181h273q62 0 97.5 8.5zM937 547q-15 15 -15 36t15 36t36 15t36 -15t15 -36t-15 -36t-36 -15t-36 15z" />
    <glyph glyph-name="uniFD17" unicode="&#xfeb4;&#xfef0;" horiz-adv-x="1455" arabic-form="final" 
d="M1472 95v-92l-17 -3q-67 0 -108.5 16.5t-59.5 51.5q-15 -33 -48 -50.5t-80 -17.5q-53 0 -85 15.5t-45 48.5q-31 -64 -130 -64q-47 0 -77.5 12.5t-51 35.5t-41.5 61l-25 45q-24 44 -42 67.5t-44 37t-66 13.5q-35 0 -68 -13t-53 -33.5t-20 -43.5q0 -28 12.5 -41.5t39.5 -22
t102 -25.5q71 -16 103.5 -54t32.5 -102q0 -105 -88 -162.5t-257 -57.5q-168 0 -247 69t-79 217q0 88 38 169q6 14 17 21.5t23 7.5q7 0 14 -3q22 -9 22 -33q0 -9 -5 -22q-29 -71 -29 -139q0 -71 24 -112t78.5 -59t148.5 -18q135 0 202.5 28.5t67.5 88.5q0 21 -12.5 32.5
t-41 19.5t-93.5 20q-82 16 -112.5 55t-30.5 112q0 52 31 98t81 73.5t105 27.5q59 0 97.5 -20t61.5 -51t51 -82l21 -39q25 -46 47.5 -63t67.5 -17q53 0 74 21.5t21 76.5v70q0 17 10.5 28.5t26.5 11.5q15 0 26 -11.5t11 -28.5v-70q0 -55 19 -76.5t70 -21.5q49 0 68 21.5
t19 74.5v72q0 17 10.5 28.5t26.5 11.5q15 0 26 -11.5t11 -28.5v-72q0 -52 28.5 -74t103.5 -22z" />
    <glyph glyph-name="uniFD18" unicode="&#xfeb4;&#xfef2;" horiz-adv-x="1455" arabic-form="final" 
d="M1472 95v-92l-17 -3q-67 0 -108.5 16.5t-59.5 51.5q-15 -33 -48 -50.5t-80 -17.5q-53 0 -85 15.5t-45 48.5q-31 -64 -130 -64q-47 0 -77.5 12.5t-51 35.5t-41.5 61l-25 45q-24 44 -42 67.5t-44 37t-66 13.5q-35 0 -68 -13t-53 -33.5t-20 -43.5q0 -28 12.5 -41.5t39.5 -22
t102 -25.5q71 -16 103.5 -54t32.5 -102q0 -105 -88 -162.5t-257 -57.5q-168 0 -247 69t-79 217q0 88 38 169q6 14 17 21.5t23 7.5q7 0 14 -3q22 -9 22 -33q0 -9 -5 -22q-29 -71 -29 -139q0 -71 24 -112t78.5 -59t148.5 -18q135 0 202.5 28.5t67.5 88.5q0 21 -12.5 32.5
t-41 19.5t-93.5 20q-82 16 -112.5 55t-30.5 112q0 52 31 98t81 73.5t105 27.5q59 0 97.5 -20t61.5 -51t51 -82l21 -39q25 -46 47.5 -63t67.5 -17q53 0 74 21.5t21 76.5v70q0 17 10.5 28.5t26.5 11.5q15 0 26 -11.5t11 -28.5v-70q0 -55 19 -76.5t70 -21.5q49 0 68 21.5
t19 74.5v72q0 17 10.5 28.5t26.5 11.5q15 0 26 -11.5t11 -28.5v-72q0 -52 28.5 -74t103.5 -22zM267.5 -437q-13.5 14 -13.5 33t13.5 32.5t32.5 13.5t33 -13.5t14 -32.5t-14 -33t-33 -14t-32.5 14zM377.5 -437q-13.5 14 -13.5 33t13.5 32.5t32.5 13.5t33 -13.5t14 -32.5
t-14 -33t-33 -14t-32.5 14z" />
    <glyph glyph-name="uniFD19" unicode="&#xfeb8;&#xfef0;" horiz-adv-x="1455" arabic-form="final" 
d="M1472 95v-92l-17 -3q-67 0 -108.5 16.5t-59.5 51.5q-15 -33 -48 -50.5t-80 -17.5q-53 0 -85 15.5t-45 48.5q-31 -64 -130 -64q-47 0 -77.5 12.5t-51 35.5t-41.5 61l-25 45q-24 44 -42 67.5t-44 37t-66 13.5q-35 0 -68 -13t-53 -33.5t-20 -43.5q0 -28 12.5 -41.5t39.5 -22
t102 -25.5q71 -16 103.5 -54t32.5 -102q0 -105 -88 -162.5t-257 -57.5q-168 0 -247 69t-79 217q0 88 38 169q6 14 17 21.5t23 7.5q7 0 14 -3q22 -9 22 -33q0 -9 -5 -22q-29 -71 -29 -139q0 -71 24 -112t78.5 -59t148.5 -18q135 0 202.5 28.5t67.5 88.5q0 21 -12.5 32.5
t-41 19.5t-93.5 20q-82 16 -112.5 55t-30.5 112q0 52 31 98t81 73.5t105 27.5q59 0 97.5 -20t61.5 -51t51 -82l21 -39q25 -46 47.5 -63t67.5 -17q53 0 74 21.5t21 76.5v70q0 17 10.5 28.5t26.5 11.5q15 0 26 -11.5t11 -28.5v-70q0 -55 19 -76.5t70 -21.5q49 0 68 21.5
t19 74.5v72q0 17 10.5 28.5t26.5 11.5q15 0 26 -11.5t11 -28.5v-72q0 -52 28.5 -74t103.5 -22zM1067 577q13 -13 13 -32q0 -18 -13.5 -31t-31.5 -13t-31 13t-13 31t13 31.5t31 13.5q19 0 32 -13zM1012 473q14 -14 14 -33t-14 -32.5t-33 -13.5t-32.5 13.5t-13.5 32.5t13.5 33
t32.5 14t33 -14zM1122 473q14 -14 14 -33t-14 -32.5t-33 -13.5t-32.5 13.5t-13.5 32.5t13.5 33t32.5 14t33 -14z" />
    <glyph glyph-name="uniFD1A" unicode="&#xfeb8;&#xfef2;" horiz-adv-x="1455" arabic-form="final" 
d="M1472 95v-92l-17 -3q-67 0 -108.5 16.5t-59.5 51.5q-15 -33 -48 -50.5t-80 -17.5q-53 0 -85 15.5t-45 48.5q-31 -64 -130 -64q-47 0 -77.5 12.5t-51 35.5t-41.5 61l-25 45q-24 44 -42 67.5t-44 37t-66 13.5q-35 0 -68 -13t-53 -33.5t-20 -43.5q0 -28 12.5 -41.5t39.5 -22
t102 -25.5q71 -16 103.5 -54t32.5 -102q0 -105 -88 -162.5t-257 -57.5q-168 0 -247 69t-79 217q0 88 38 169q6 14 17 21.5t23 7.5q7 0 14 -3q22 -9 22 -33q0 -9 -5 -22q-29 -71 -29 -139q0 -71 24 -112t78.5 -59t148.5 -18q135 0 202.5 28.5t67.5 88.5q0 21 -12.5 32.5
t-41 19.5t-93.5 20q-82 16 -112.5 55t-30.5 112q0 52 31 98t81 73.5t105 27.5q59 0 97.5 -20t61.5 -51t51 -82l21 -39q25 -46 47.5 -63t67.5 -17q53 0 74 21.5t21 76.5v70q0 17 10.5 28.5t26.5 11.5q15 0 26 -11.5t11 -28.5v-70q0 -55 19 -76.5t70 -21.5q49 0 68 21.5
t19 74.5v72q0 17 10.5 28.5t26.5 11.5q15 0 26 -11.5t11 -28.5v-72q0 -52 28.5 -74t103.5 -22zM1067 577q13 -13 13 -32q0 -18 -13.5 -31t-31.5 -13t-31 13t-13 31t13 31.5t31 13.5q19 0 32 -13zM1012 473q14 -14 14 -33t-14 -32.5t-33 -13.5t-32.5 13.5t-13.5 32.5t13.5 33
t32.5 14t33 -14zM1122 473q14 -14 14 -33t-14 -32.5t-33 -13.5t-32.5 13.5t-13.5 32.5t13.5 33t32.5 14t33 -14zM267.5 -437q-13.5 14 -13.5 33t13.5 32.5t32.5 13.5t33 -13.5t14 -32.5t-14 -33t-33 -14t-32.5 14zM377.5 -437q-13.5 14 -13.5 33t13.5 32.5t32.5 13.5
t33 -13.5t14 -32.5t-14 -33t-33 -14t-32.5 14z" />
    <glyph glyph-name="uniFD21" unicode="&#xfebc;&#xfef0;" horiz-adv-x="1482" arabic-form="final" 
d="M1499 95v-92l-17 -3q-59 0 -92.5 10.5t-49.5 30.5q-60 -41 -181 -41h-249q-47 0 -77.5 13.5t-49.5 36t-40 59.5l-31 55q-34 61 -68 89.5t-92 28.5q-38 0 -73 -14.5t-56.5 -37.5t-21.5 -48q0 -26 11.5 -39t36 -21t87.5 -22l29 -7q71 -16 103.5 -54t32.5 -102
q0 -105 -88 -162.5t-257 -57.5q-168 0 -247 69t-79 217q0 88 38 169q6 14 17 21.5t23 7.5q7 0 14 -3q22 -9 22 -33q0 -9 -5 -22q-29 -71 -29 -139q0 -71 24 -112t78.5 -59t148.5 -18q135 0 202.5 28.5t67.5 88.5q0 21 -12.5 32.5t-41.5 19.5t-93 20q-88 16 -120.5 55
t-32.5 112q0 54 32.5 102.5t85 77.5t109.5 29q59 0 99.5 -20.5t66.5 -52.5t52 -80l27 -49q23 -42 31 -53q71 114 129.5 181.5t115 98t121.5 30.5q60 0 107.5 -30.5t74 -85t26.5 -124.5q0 -47 -14 -84q28 -13 88 -13zM1269.5 106.5q35.5 8.5 51 28.5t15.5 54q0 64 -40.5 106
t-101.5 42q-76 0 -147.5 -58t-147.5 -181h3h270q62 0 97.5 8.5z" />
    <glyph glyph-name="uniFD22" unicode="&#xfebc;&#xfef2;" horiz-adv-x="1482" arabic-form="final" 
d="M1499 95v-92l-17 -3q-59 0 -92.5 10.5t-49.5 30.5q-60 -41 -181 -41h-249q-47 0 -77.5 13.5t-49.5 36t-40 59.5l-31 55q-34 61 -68 89.5t-92 28.5q-38 0 -73 -14.5t-56.5 -37.5t-21.5 -48q0 -26 11.5 -39t36 -21t87.5 -22l29 -7q71 -16 103.5 -54t32.5 -102
q0 -105 -88 -162.5t-257 -57.5q-168 0 -247 69t-79 217q0 88 38 169q6 14 17 21.5t23 7.5q7 0 14 -3q22 -9 22 -33q0 -9 -5 -22q-29 -71 -29 -139q0 -71 24 -112t78.5 -59t148.5 -18q135 0 202.5 28.5t67.5 88.5q0 21 -12.5 32.5t-41.5 19.5t-93 20q-88 16 -120.5 55
t-32.5 112q0 54 32.5 102.5t85 77.5t109.5 29q59 0 99.5 -20.5t66.5 -52.5t52 -80l27 -49q23 -42 31 -53q71 114 129.5 181.5t115 98t121.5 30.5q60 0 107.5 -30.5t74 -85t26.5 -124.5q0 -47 -14 -84q28 -13 88 -13zM1269.5 106.5q35.5 8.5 51 28.5t15.5 54q0 64 -40.5 106
t-101.5 42q-76 0 -147.5 -58t-147.5 -181h3h270q62 0 97.5 8.5zM267.5 -437q-13.5 14 -13.5 33t13.5 32.5t32.5 13.5t33 -13.5t14 -32.5t-14 -33t-33 -14t-32.5 14zM377.5 -437q-13.5 14 -13.5 33t13.5 32.5t32.5 13.5t33 -13.5t14 -32.5t-14 -33t-33 -14t-32.5 14z" />
    <glyph glyph-name="uniFD23" unicode="&#xfec0;&#xfef0;" horiz-adv-x="1482" arabic-form="final" 
d="M1499 95v-92l-17 -3q-59 0 -92.5 10.5t-49.5 30.5q-60 -41 -181 -41h-249q-47 0 -77.5 13.5t-49.5 36t-40 59.5l-31 55q-34 61 -68 89.5t-92 28.5q-38 0 -73 -14.5t-56.5 -37.5t-21.5 -48q0 -26 11.5 -39t36 -21t87.5 -22l29 -7q71 -16 103.5 -54t32.5 -102
q0 -105 -88 -162.5t-257 -57.5q-168 0 -247 69t-79 217q0 88 38 169q6 14 17 21.5t23 7.5q7 0 14 -3q22 -9 22 -33q0 -9 -5 -22q-29 -71 -29 -139q0 -71 24 -112t78.5 -59t148.5 -18q135 0 202.5 28.5t67.5 88.5q0 21 -12.5 32.5t-41.5 19.5t-93 20q-88 16 -120.5 55
t-32.5 112q0 54 32.5 102.5t85 77.5t109.5 29q59 0 99.5 -20.5t66.5 -52.5t52 -80l27 -49q23 -42 31 -53q71 114 129.5 181.5t115 98t121.5 30.5q60 0 107.5 -30.5t74 -85t26.5 -124.5q0 -47 -14 -84q28 -13 88 -13zM1269.5 106.5q35.5 8.5 51 28.5t15.5 54q0 64 -40.5 106
t-101.5 42q-76 0 -147.5 -58t-147.5 -181h3h270q62 0 97.5 8.5zM1164 547q-15 15 -15 36t15 36t36 15t36 -15t15 -36t-15 -36t-36 -15t-36 15z" />
    <glyph glyph-name="uniFD24" unicode="&#xfec0;&#xfef2;" horiz-adv-x="1482" arabic-form="final" 
d="M1499 95v-92l-17 -3q-59 0 -92.5 10.5t-49.5 30.5q-60 -41 -181 -41h-249q-47 0 -77.5 13.5t-49.5 36t-40 59.5l-31 55q-34 61 -68 89.5t-92 28.5q-38 0 -73 -14.5t-56.5 -37.5t-21.5 -48q0 -26 11.5 -39t36 -21t87.5 -22l29 -7q71 -16 103.5 -54t32.5 -102
q0 -105 -88 -162.5t-257 -57.5q-168 0 -247 69t-79 217q0 88 38 169q6 14 17 21.5t23 7.5q7 0 14 -3q22 -9 22 -33q0 -9 -5 -22q-29 -71 -29 -139q0 -71 24 -112t78.5 -59t148.5 -18q135 0 202.5 28.5t67.5 88.5q0 21 -12.5 32.5t-41.5 19.5t-93 20q-88 16 -120.5 55
t-32.5 112q0 54 32.5 102.5t85 77.5t109.5 29q59 0 99.5 -20.5t66.5 -52.5t52 -80l27 -49q23 -42 31 -53q71 114 129.5 181.5t115 98t121.5 30.5q60 0 107.5 -30.5t74 -85t26.5 -124.5q0 -47 -14 -84q28 -13 88 -13zM1269.5 106.5q35.5 8.5 51 28.5t15.5 54q0 64 -40.5 106
t-101.5 42q-76 0 -147.5 -58t-147.5 -181h3h270q62 0 97.5 8.5zM267.5 -437q-13.5 14 -13.5 33t13.5 32.5t32.5 13.5t33 -13.5t14 -32.5t-14 -33t-33 -14t-32.5 14zM377.5 -437q-13.5 14 -13.5 33t13.5 32.5t32.5 13.5t33 -13.5t14 -32.5t-14 -33t-33 -14t-32.5 14z
M1164 547q-15 15 -15 36t15 36t36 15t36 -15t15 -36t-15 -36t-36 -15t-36 15z" />
    <glyph glyph-name="uniFD29" unicode="&#xfeb8;&#xfeae;" horiz-adv-x="1205" arabic-form="final" 
d="M1222 95v-92l-17 -3q-67 0 -108.5 16.5t-59.5 51.5q-15 -33 -48 -50.5t-80 -17.5q-53 0 -85 16t-45 50q-34 -66 -146 -66q-82 0 -124 42.5t-47 131.5q-35 -54 -122 -54q-57 0 -81 34q3 -30 3 -68q0 -90 -28.5 -164.5t-80 -117.5t-116.5 -43q-52 0 -79 15
q-13 7 -20.5 18.5t-7.5 25.5q0 7 3 16q10 28 39 28q8 0 12 -1q24 -4 46 -4q45 0 81 27.5t56 78.5t20 118q0 75 -18 152q-2 12 -2 16q0 18 9 29t28 11q28 0 38 -36q6 -21 28 -29t70 -8q59 0 90 17t31 61q0 18 10.5 29.5t27.5 11.5t26.5 -11.5t9.5 -29.5v-72q0 -71 22 -98.5
t79 -27.5q63 0 88 21.5t25 76.5v70q0 17 10.5 28.5t26.5 11.5q15 0 26 -11.5t11 -28.5v-70q0 -55 19 -76.5t70 -21.5q49 0 68 21.5t19 74.5v72q0 17 10.5 28.5t26.5 11.5q15 0 26 -11.5t11 -28.5v-72q0 -52 28.5 -74t103.5 -22zM817 577q13 -13 13 -32q0 -18 -13.5 -31
t-31.5 -13t-31 13t-13 31t13 31.5t31 13.5q19 0 32 -13zM762 473q14 -14 14 -33t-14 -32.5t-33 -13.5t-32.5 13.5t-13.5 32.5t13.5 33t32.5 14t33 -14zM872 473q14 -14 14 -33t-14 -32.5t-33 -13.5t-32.5 13.5t-13.5 32.5t13.5 33t32.5 14t33 -14z" />
    <glyph glyph-name="uniFD2A" unicode="&#xfeb4;&#xfeae;" horiz-adv-x="1205" arabic-form="final" 
d="M1222 95v-92l-17 -3q-67 0 -108.5 16.5t-59.5 51.5q-15 -33 -48 -50.5t-80 -17.5q-53 0 -85 16t-45 50q-34 -66 -146 -66q-82 0 -124 42.5t-47 131.5q-35 -54 -122 -54q-57 0 -81 34q3 -30 3 -68q0 -90 -28.5 -164.5t-80 -117.5t-116.5 -43q-52 0 -79 15
q-13 7 -20.5 18.5t-7.5 25.5q0 7 3 16q10 28 39 28q8 0 12 -1q24 -4 46 -4q45 0 81 27.5t56 78.5t20 118q0 75 -18 152q-2 12 -2 16q0 18 9 29t28 11q28 0 38 -36q6 -21 28 -29t70 -8q59 0 90 17t31 61q0 18 10.5 29.5t27.5 11.5t26.5 -11.5t9.5 -29.5v-72q0 -71 22 -98.5
t79 -27.5q63 0 88 21.5t25 76.5v70q0 17 10.5 28.5t26.5 11.5q15 0 26 -11.5t11 -28.5v-70q0 -55 19 -76.5t70 -21.5q49 0 68 21.5t19 74.5v72q0 17 10.5 28.5t26.5 11.5q15 0 26 -11.5t11 -28.5v-72q0 -52 28.5 -74t103.5 -22z" />
    <glyph glyph-name="uniFD2B" unicode="&#xfebc;&#xfeae;" horiz-adv-x="1245" arabic-form="final" 
d="M1262 95v-92l-17 -3q-56 0 -89 9.5t-50 27.5q-59 -37 -174 -37h-299q-82 0 -124 42.5t-47 131.5q-35 -54 -122 -54q-57 0 -81 34q3 -30 3 -68q0 -90 -28.5 -164.5t-80 -117.5t-116.5 -43q-52 0 -79 15q-13 7 -20.5 18.5t-7.5 25.5q0 7 3 16q10 28 39 28q8 0 12 -1
q24 -4 46 -4q45 0 81 27.5t56 78.5t20 118q0 75 -18 152q-2 12 -2 16q0 18 9 29t28 11q28 0 38 -36q6 -21 28 -29t70 -8q59 0 90 17t31 61q0 18 10.5 29.5t27.5 11.5t26.5 -11.5t9.5 -29.5v-72q0 -56 13 -84t46 -37q75 123 135.5 194.5t119 104.5t124.5 33q60 0 107.5 -30.5
t74 -85t26.5 -124.5q0 -50 -15 -88q31 -9 79 -9zM945 98q62 0 97.5 8.5t51 28.5t15.5 54q0 64 -40.5 106t-101.5 42q-76 0 -147.5 -58t-147.5 -181h273z" />
    <glyph glyph-name="uniFD2C" unicode="&#xfec0;&#xfeae;" horiz-adv-x="1245" arabic-form="final" 
d="M1262 95v-92l-17 -3q-56 0 -89 9.5t-50 27.5q-59 -37 -174 -37h-299q-82 0 -124 42.5t-47 131.5q-35 -54 -122 -54q-57 0 -81 34q3 -30 3 -68q0 -90 -28.5 -164.5t-80 -117.5t-116.5 -43q-52 0 -79 15q-13 7 -20.5 18.5t-7.5 25.5q0 7 3 16q10 28 39 28q8 0 12 -1
q24 -4 46 -4q45 0 81 27.5t56 78.5t20 118q0 75 -18 152q-2 12 -2 16q0 18 9 29t28 11q28 0 38 -36q6 -21 28 -29t70 -8q59 0 90 17t31 61q0 18 10.5 29.5t27.5 11.5t26.5 -11.5t9.5 -29.5v-72q0 -56 13 -84t46 -37q75 123 135.5 194.5t119 104.5t124.5 33q60 0 107.5 -30.5
t74 -85t26.5 -124.5q0 -50 -15 -88q31 -9 79 -9zM945 98q62 0 97.5 8.5t51 28.5t15.5 54q0 64 -40.5 106t-101.5 42q-76 0 -147.5 -58t-147.5 -181h273zM937 547q-15 15 -15 36t15 36t36 15t36 -15t15 -36t-15 -36t-36 -15t-36 15z" />
    <glyph glyph-name="uniFDF2" unicode="&#x627;&#xfedf;&#xfee0;&#xfeea;" horiz-adv-x="1405" arabic-form="isolated" 
d="M1071.5 720.5q10.5 -13.5 10.5 -38.5v-435q0 -93 -21 -146.5t-68 -77t-129 -23.5h-1q-137 0 -169 77q-24 -41 -69 -59t-117 -18h-1q-89 1 -136.5 42t-59.5 120q-25 -69 -128 -69q-153 0 -153 155q0 52 26.5 91t86.5 71t163 62v27q0 20 10.5 30.5t29.5 10.5t29.5 -10.5
t10.5 -30.5v-251q0 -62 10 -93.5t35.5 -44t75.5 -12.5h1q56 0 84 8.5t39.5 29.5t11.5 62v484q0 25 11 38.5t31 13.5t30.5 -13.5t10.5 -38.5v-435v-3v-10q0 -55 13 -84t42 -40.5t82 -11.5h1q56 0 84 8.5t39.5 29.5t11.5 62v484q0 25 11 38.5t31 13.5t30.5 -13.5z
M1312.5 722.5q12.5 -11.5 12.5 -28.5v-654q0 -17 -12.5 -28.5t-29.5 -11.5t-29 11.5t-12 28.5v654q0 17 12 28.5t29 11.5t29.5 -11.5zM306 224v7v154q-114 -34 -160 -62.5t-46 -65.5q0 -34 24.5 -50t76.5 -16q85 0 105 33z" />
    <glyph glyph-name="uniFEF5" unicode="&#xfedf;&#xfe82;" horiz-adv-x="577" arabic-form="isolated" 
d="M484 243q18 -38 18 -88q0 -77 -53.5 -116t-150.5 -39q-82 0 -118 3t-62 11q-18 7 -31.5 22.5t-13.5 35.5q0 21 6 37t22 31q57 54 129 113q16 14 42 36.5t39 34.5l-253 228q-18 15 -18 36q0 12 8 23q13 16 32 16q17 0 30 -12q135 -115 256 -238q26 27 38.5 60t12.5 91v166
q0 17 12 28.5t29 11.5t29.5 -11.5t12.5 -28.5v-147q0 -78 -17.5 -129.5t-61.5 -92.5q45 -44 63 -82zM416.5 217q-15.5 28 -51.5 62q-38 -35 -99.5 -87t-107.5 -88q10 -4 39 -5t101 -1q65 0 99.5 13t34.5 47q0 31 -15.5 59zM100.5 719.5q-10.5 -3.5 -14.5 -4.5t-10 -1
q-15 0 -22 9t-7 22q0 21 25 33q22 10 49 10q17 0 43 -6q4 -1 19.5 -4t32.5 -3q12 0 21.5 2t11.5 3q4 1 11 1q15 0 22.5 -8.5t7.5 -21.5q0 -11 -6.5 -20.5t-18.5 -14.5q-17 -8 -49 -8q-24 0 -54 8q-25 7 -41 7q-10 0 -20.5 -3.5z" />
    <glyph glyph-name="uniFEF6" unicode="&#xfee0;&#xfe82;" horiz-adv-x="666" arabic-form="final" 
d="M683 95v-92l-17 -3q-90 0 -138 28.5t-67 95.5q-27 -60 -117.5 -90t-260.5 -34q-25 0 -39 14t-14 35t14 35t39 14q94 2 156 10q-1 96 -22.5 195t-83.5 219q-7 13 -7 27q0 23 19 35q10 6 22 6q26 0 39 -25q43 -82 65 -146t31 -132.5t10 -166.5q73 17 104.5 49t31.5 80v445
q0 17 12 28.5t29 11.5t29.5 -11.5t12.5 -28.5v-446q0 -62 11.5 -93.5t40 -44t83.5 -12.5zM101.5 686.5q-10.5 -3.5 -14.5 -4.5t-10 -1q-15 0 -22 9t-7 22q0 21 25 33q22 10 49 10q17 0 43 -6q4 -1 19.5 -4t32.5 -3q12 0 21.5 2t11.5 3q4 1 11 1q15 0 22.5 -8.5t7.5 -21.5
q0 -11 -6.5 -20.5t-18.5 -14.5q-17 -8 -49 -8q-24 0 -54 8q-25 7 -41 7q-10 0 -20.5 -3.5z" />
    <glyph glyph-name="uniFEF7" unicode="&#xfedf;&#xfe84;" horiz-adv-x="577" arabic-form="isolated" 
d="M484 243q18 -38 18 -88q0 -77 -53.5 -116t-150.5 -39q-82 0 -118 3t-62 11q-18 7 -31.5 22.5t-13.5 35.5q0 21 6 37t22 31q57 54 129 113q16 14 42 36.5t39 34.5l-253 228q-18 15 -18 36q0 12 8 23q13 16 32 16q17 0 30 -12q135 -115 256 -238q26 27 38.5 60t12.5 91v166
q0 17 12 28.5t29 11.5t29.5 -11.5t12.5 -28.5v-147q0 -78 -17.5 -129.5t-61.5 -92.5q45 -44 63 -82zM416.5 217q-15.5 28 -51.5 62q-38 -35 -99.5 -87t-107.5 -88q10 -4 39 -5t101 -1q65 0 99.5 13t34.5 47q0 31 -15.5 59zM251 763q9 -8 9 -22q0 -24 -22 -28
q-29 -5 -122 -14l-21 -2q-16 -1 -26 7t-10 22q0 27 29 30l9 1q-19 17 -19 43q0 42 27 65.5t67 23.5q20 0 38 -8q25 -12 25 -33q0 -27 -26 -27q-6 0 -9 1q-15 3 -28 3q-22 0 -33.5 -6t-11.5 -24t7.5 -24t29.5 -6q20 0 63 5q15 1 24 -7z" />
    <glyph glyph-name="uniFEF8" unicode="&#xfee0;&#xfe84;" horiz-adv-x="666" arabic-form="final" 
d="M683 95v-92l-17 -3q-90 0 -138 28.5t-67 95.5q-27 -60 -117.5 -90t-260.5 -34q-25 0 -39 14t-14 35t14 35t39 14q94 2 156 10q-1 96 -22.5 195t-83.5 219q-7 13 -7 27q0 23 19 35q10 6 22 6q26 0 39 -25q43 -82 65 -146t31 -132.5t10 -166.5q73 17 104.5 49t31.5 80v445
q0 17 12 28.5t29 11.5t29.5 -11.5t12.5 -28.5v-446q0 -62 11.5 -93.5t40 -44t83.5 -12.5zM252 730q9 -8 9 -22q0 -24 -22 -28q-29 -5 -122 -14l-21 -2q-16 -1 -26 7t-10 22q0 27 29 30l9 1q-19 17 -19 43q0 42 27 65.5t67 23.5q20 0 38 -8q25 -12 25 -33q0 -27 -26 -27
q-6 0 -9 1q-15 3 -28 3q-22 0 -33.5 -6t-11.5 -24t7.5 -24t29.5 -6q20 0 63 5q15 1 24 -7z" />
    <glyph glyph-name="uniFEF9" unicode="&#xfedf;&#xfe88;" horiz-adv-x="577" arabic-form="isolated" 
d="M484 243q18 -38 18 -88q0 -77 -53.5 -116t-150.5 -39q-82 0 -118 3t-62 11q-18 7 -31.5 22.5t-13.5 35.5q0 21 6 37t22 31q57 54 129 113q16 14 42 36.5t39 34.5l-253 228q-18 15 -18 36q0 12 8 23q13 16 32 16q17 0 30 -12q135 -115 256 -238q26 27 38.5 60t12.5 91v166
q0 17 12 28.5t29 11.5t29.5 -11.5t12.5 -28.5v-147q0 -78 -17.5 -129.5t-61.5 -92.5q45 -44 63 -82zM416.5 217q-15.5 28 -51.5 62q-38 -35 -99.5 -87t-107.5 -88q10 -4 39 -5t101 -1q65 0 99.5 13t34.5 47q0 31 -15.5 59zM252 -177q9 -8 9 -22q0 -24 -22 -28
q-29 -5 -122 -14l-21 -2q-16 -1 -26 7t-10 22q0 27 29 30l9 1q-19 17 -19 43q0 42 27 65.5t67 23.5q20 0 38 -8q25 -12 25 -33q0 -27 -26 -27q-6 0 -9 1q-15 3 -28 3q-22 0 -33.5 -6t-11.5 -24t7.5 -24t29.5 -6q21 0 63 5q15 1 24 -7z" />
    <glyph glyph-name="uniFEFA" unicode="&#xfee0;&#xfe88;" horiz-adv-x="666" arabic-form="final" 
d="M683 95v-92l-17 -3q-90 0 -138 28.5t-67 95.5q-27 -60 -117.5 -90t-260.5 -34q-25 0 -39 14t-14 35t14 35t39 14q94 2 156 10q-1 96 -22.5 195t-83.5 219q-7 13 -7 27q0 23 19 35q10 6 22 6q26 0 39 -25q43 -82 65 -146t31 -132.5t10 -166.5q73 17 104.5 49t31.5 80v445
q0 17 12 28.5t29 11.5t29.5 -11.5t12.5 -28.5v-446q0 -62 11.5 -93.5t40 -44t83.5 -12.5zM321 -177q9 -8 9 -22q0 -24 -22 -28q-29 -5 -122 -14l-21 -2q-16 -1 -26 7t-10 22q0 27 29 30l9 1q-19 17 -19 43q0 42 27 65.5t67 23.5q20 0 38 -8q25 -12 25 -33q0 -27 -26 -27
q-6 0 -9 1q-15 3 -28 3q-22 0 -33.5 -6t-11.5 -24t7.5 -24t29.5 -6q21 0 63 5q15 1 24 -7z" />
    <glyph glyph-name="uniFEFB" unicode="&#xfedf;&#xfe8e;" horiz-adv-x="577" arabic-form="isolated" 
d="M484 243q18 -38 18 -88q0 -77 -53.5 -116t-150.5 -39q-82 0 -118 3t-62 11q-18 7 -31.5 22.5t-13.5 35.5q0 21 6 37t22 31q57 54 129 113q16 14 42 36.5t39 34.5l-253 228q-18 15 -18 36q0 12 8 23q13 16 32 16q17 0 30 -12q135 -115 256 -238q26 27 38.5 60t12.5 91v166
q0 17 12 28.5t29 11.5t29.5 -11.5t12.5 -28.5v-147q0 -78 -17.5 -129.5t-61.5 -92.5q45 -44 63 -82zM416.5 217q-15.5 28 -51.5 62q-38 -35 -99.5 -87t-107.5 -88q10 -4 39 -5t101 -1q65 0 99.5 13t34.5 47q0 31 -15.5 59z" />
    <glyph glyph-name="uniFEFC" unicode="&#xfee0;&#xfe8e;" horiz-adv-x="666" arabic-form="final" 
d="M683 95v-92l-17 -3q-90 0 -138 28.5t-67 95.5q-27 -60 -117.5 -90t-260.5 -34q-25 0 -39 14t-14 35t14 35t39 14q94 2 156 10q-1 96 -22.5 195t-83.5 219q-7 13 -7 27q0 23 19 35q10 6 22 6q26 0 39 -25q43 -82 65 -146t31 -132.5t10 -166.5q73 17 104.5 49t31.5 80v445
q0 17 12 28.5t29 11.5t29.5 -11.5t12.5 -28.5v-446q0 -62 11.5 -93.5t40 -44t83.5 -12.5z" />
    <glyph glyph-name="uni06280626" unicode="&#xfe91;&#xfe8a;" horiz-adv-x="778" 
d="M699 96.5q-29 -52.5 -83 -72.5q40 -35 40 -91q0 -64 -38 -113t-109.5 -76t-170.5 -27q-158 0 -233 66.5t-75 208.5q0 82 31 155q6 14 16.5 21.5t22.5 7.5q6 0 14 -3q22 -9 22 -31q0 -7 -4 -21q-22 -68 -22 -129q0 -67 22.5 -105t73.5 -55t140 -17q113 0 176.5 31t63.5 87
q0 34 -34.5 53.5t-82.5 24.5q-21 3 -33.5 15t-12.5 31q0 21 12.5 32.5t34.5 11.5q14 0 22 -1l43 -1q64 0 90.5 30.5t26.5 100.5q0 57 -9 115q-3 20 8.5 32t28.5 12q15 0 25.5 -9.5t13.5 -27.5q9 -55 9 -122q0 -81 -29 -133.5zM605 -404q-15 15 -15 36t15 36t36 15t36 -15
t15 -36t-15 -36t-36 -16q-21 1 -36 16zM189 308q9 -8 9 -22q0 -24 -22 -28q-29 -5 -122 -14l-21 -2q-16 -1 -26 7t-10 22q0 27 29 30l9 1q-19 17 -19 43q0 42 27 65.5t67 23.5q20 0 38 -8q25 -12 25 -33q0 -27 -26 -27q-6 0 -9 1q-15 3 -28 3q-22 0 -33.5 -6t-11.5 -24
t7.5 -24t29.5 -6q20 0 63 5q15 1 24 -7z" />
    <glyph glyph-name="uni06280626.fina" unicode="&#xfe92;&#xfe8a;" horiz-adv-x="899" 
d="M64 167q6 14 16.5 21.5t22.5 7.5q7 0 14 -3q22 -9 22 -31q0 -7 -4 -21q-11 -34 -18 -66.5t-7 -70.5q0 -71 24 -112t78.5 -59t148.5 -18q135 0 202.5 28.5t67.5 88.5q0 21 -12.5 32.5t-41.5 19.5t-93 20q-82 16 -112.5 55t-30.5 112q0 52 31 98t81 73.5t105 27.5
q59 0 97.5 -20t61.5 -51t51 -82l21 -39q24 -44 46 -62t64 -18l17 -3v-92l-17 -3q-47 0 -77.5 12.5t-51 35t-41.5 61.5l-25 45q-24 44 -42 67.5t-44 37t-66 13.5q-35 0 -68 -13t-53 -33.5t-20 -43.5q0 -26 10.5 -39t34 -21t82.5 -22q32 -8 27 -7q71 -16 103.5 -54t32.5 -102
q0 -105 -88 -162.5t-257 -57.5q-168 0 -247 69t-79 217q0 84 34 164zM807 -181q-15 15 -15 36t15 36t36 15t36 -15t15 -36t-15 -36t-36 -16q-21 1 -36 16zM195 328q9 -8 9 -22q0 -24 -22 -28q-29 -5 -122 -14l-21 -2q-16 -1 -26 7t-10 22q0 27 29 30l9 1q-19 17 -19 43
q0 42 27 65.5t67 23.5q20 0 38 -8q25 -12 25 -33q0 -27 -26 -27q-6 0 -9 1q-15 3 -28 3q-22 0 -33.5 -6t-11.5 -24t7.5 -24t29.5 -6q20 0 63 5q15 1 24 -7z" />
    <glyph glyph-name="uni062A0626" unicode="&#xfe97;&#xfe8a;" horiz-adv-x="778" 
d="M699 96.5q-29 -52.5 -83 -72.5q40 -35 40 -91q0 -64 -38 -113t-109.5 -76t-170.5 -27q-158 0 -233 66.5t-75 208.5q0 82 31 155q6 14 16.5 21.5t22.5 7.5q6 0 14 -3q22 -9 22 -31q0 -7 -4 -21q-22 -68 -22 -129q0 -67 22.5 -105t73.5 -55t140 -17q113 0 176.5 31t63.5 87
q0 34 -34.5 53.5t-82.5 24.5q-21 3 -33.5 15t-12.5 31q0 21 12.5 32.5t34.5 11.5q14 0 22 -1l43 -1q64 0 90.5 30.5t26.5 100.5q0 57 -9 115q-3 20 8.5 32t28.5 12q15 0 25.5 -9.5t13.5 -27.5q9 -55 9 -122q0 -81 -29 -133.5zM590.5 492q-13.5 14 -13.5 33t13.5 32.5
t32.5 13.5t33 -13.5t14 -32.5t-14 -33t-33 -14t-32.5 14zM700.5 492q-13.5 14 -13.5 33t13.5 32.5t32.5 13.5t33 -13.5t14 -32.5t-14 -33t-33 -14t-32.5 14zM189 308q9 -8 9 -22q0 -24 -22 -28q-29 -5 -122 -14l-21 -2q-16 -1 -26 7t-10 22q0 27 29 30l9 1q-19 17 -19 43
q0 42 27 65.5t67 23.5q20 0 38 -8q25 -12 25 -33q0 -27 -26 -27q-6 0 -9 1q-15 3 -28 3q-22 0 -33.5 -6t-11.5 -24t7.5 -24t29.5 -6q20 0 63 5q15 1 24 -7z" />
    <glyph glyph-name="uni062A0626.fina" unicode="&#xfe98;&#xfe8a;" horiz-adv-x="899" 
d="M64 167q6 14 16.5 21.5t22.5 7.5q7 0 14 -3q22 -9 22 -31q0 -7 -4 -21q-11 -34 -18 -66.5t-7 -70.5q0 -71 24 -112t78.5 -59t148.5 -18q135 0 202.5 28.5t67.5 88.5q0 21 -12.5 32.5t-41.5 19.5t-93 20q-82 16 -112.5 55t-30.5 112q0 52 31 98t81 73.5t105 27.5
q59 0 97.5 -20t61.5 -51t51 -82l21 -39q24 -44 46 -62t64 -18l17 -3v-92l-17 -3q-47 0 -77.5 12.5t-51 35t-41.5 61.5l-25 45q-24 44 -42 67.5t-44 37t-66 13.5q-35 0 -68 -13t-53 -33.5t-20 -43.5q0 -26 10.5 -39t34 -21t82.5 -22q32 -8 27 -7q71 -16 103.5 -54t32.5 -102
q0 -105 -88 -162.5t-257 -57.5q-168 0 -247 69t-79 217q0 84 34 164zM468.5 473q-13.5 14 -13.5 33t13.5 32.5t32.5 13.5t33 -13.5t14 -32.5t-14 -33t-33 -14t-32.5 14zM578.5 473q-13.5 14 -13.5 33t13.5 32.5t32.5 13.5t33 -13.5t14 -32.5t-14 -33t-33 -14t-32.5 14z
M195 328q9 -8 9 -22q0 -24 -22 -28q-29 -5 -122 -14l-21 -2q-16 -1 -26 7t-10 22q0 27 29 30l9 1q-19 17 -19 43q0 42 27 65.5t67 23.5q20 0 38 -8q25 -12 25 -33q0 -27 -26 -27q-6 0 -9 1q-15 3 -28 3q-22 0 -33.5 -6t-11.5 -24t7.5 -24t29.5 -6q20 0 63 5q15 1 24 -7z" />
    <glyph glyph-name="uni062B0626" unicode="&#xfe9b;&#xfe8a;" horiz-adv-x="778" 
d="M699 96.5q-29 -52.5 -83 -72.5q40 -35 40 -91q0 -64 -38 -113t-109.5 -76t-170.5 -27q-158 0 -233 66.5t-75 208.5q0 82 31 155q6 14 16.5 21.5t22.5 7.5q6 0 14 -3q22 -9 22 -31q0 -7 -4 -21q-22 -68 -22 -129q0 -67 22.5 -105t73.5 -55t140 -17q113 0 176.5 31t63.5 87
q0 34 -34.5 53.5t-82.5 24.5q-21 3 -33.5 15t-12.5 31q0 21 12.5 32.5t34.5 11.5q14 0 22 -1l43 -1q64 0 90.5 30.5t26.5 100.5q0 57 -9 115q-3 20 8.5 32t28.5 12q15 0 25.5 -9.5t13.5 -27.5q9 -55 9 -122q0 -81 -29 -133.5zM711 660q13 -13 13 -32q0 -18 -13.5 -31
t-31.5 -13t-31 13t-13 31t13 31.5t31 13.5q19 0 32 -13zM656 556q14 -14 14 -33t-14 -32.5t-33 -13.5t-32.5 13.5t-13.5 32.5t13.5 33t32.5 14t33 -14zM766 556q14 -14 14 -33t-14 -32.5t-33 -13.5t-32.5 13.5t-13.5 32.5t13.5 33t32.5 14t33 -14zM189 308q9 -8 9 -22
q0 -24 -22 -28q-29 -5 -122 -14l-21 -2q-16 -1 -26 7t-10 22q0 27 29 30l9 1q-19 17 -19 43q0 42 27 65.5t67 23.5q20 0 38 -8q25 -12 25 -33q0 -27 -26 -27q-6 0 -9 1q-15 3 -28 3q-22 0 -33.5 -6t-11.5 -24t7.5 -24t29.5 -6q20 0 63 5q15 1 24 -7z" />
    <glyph glyph-name="uni062B0626.fina" unicode="&#xfe9c;&#xfe8a;" horiz-adv-x="899" 
d="M64 167q6 14 16.5 21.5t22.5 7.5q7 0 14 -3q22 -9 22 -31q0 -7 -4 -21q-11 -34 -18 -66.5t-7 -70.5q0 -71 24 -112t78.5 -59t148.5 -18q135 0 202.5 28.5t67.5 88.5q0 21 -12.5 32.5t-41.5 19.5t-93 20q-82 16 -112.5 55t-30.5 112q0 52 31 98t81 73.5t105 27.5
q59 0 97.5 -20t61.5 -51t51 -82l21 -39q24 -44 46 -62t64 -18l17 -3v-92l-17 -3q-47 0 -77.5 12.5t-51 35t-41.5 61.5l-25 45q-24 44 -42 67.5t-44 37t-66 13.5q-35 0 -68 -13t-53 -33.5t-20 -43.5q0 -26 10.5 -39t34 -21t82.5 -22q32 -8 27 -7q71 -16 103.5 -54t32.5 -102
q0 -105 -88 -162.5t-257 -57.5q-168 0 -247 69t-79 217q0 84 34 164zM589 641q13 -13 13 -32q0 -18 -13.5 -31t-31.5 -13t-31 13t-13 31t13 31.5t31 13.5q19 0 32 -13zM534 537q14 -14 14 -33t-14 -32.5t-33 -13.5t-32.5 13.5t-13.5 32.5t13.5 33t32.5 14t33 -14zM644 537
q14 -14 14 -33t-14 -32.5t-33 -13.5t-32.5 13.5t-13.5 32.5t13.5 33t32.5 14t33 -14zM195 328q9 -8 9 -22q0 -24 -22 -28q-29 -5 -122 -14l-21 -2q-16 -1 -26 7t-10 22q0 27 29 30l9 1q-19 17 -19 43q0 42 27 65.5t67 23.5q20 0 38 -8q25 -12 25 -33q0 -27 -26 -27
q-6 0 -9 1q-15 3 -28 3q-22 0 -33.5 -6t-11.5 -24t7.5 -24t29.5 -6q20 0 63 5q15 1 24 -7z" />
    <glyph glyph-name="uni06330632" unicode="&#xfeb3;&#xfeb0;" horiz-adv-x="1123" 
d="M1073 194q0 -96 -43 -145t-120 -49q-104 0 -131 65q-34 -65 -146 -65q-82 0 -124 42.5t-47 131.5q-35 -54 -122 -54q-57 0 -81 34q3 -30 3 -68q0 -90 -28.5 -164.5t-80 -117.5t-116.5 -43q-52 0 -79 15q-13 7 -20.5 18.5t-7.5 25.5q0 7 3 16q10 28 39 28q8 0 12 -1
q24 -4 46 -4q45 0 81 27.5t56 78.5t20 118q0 75 -18 152q-2 12 -2 16q0 18 9 29t28 11q28 0 38 -36q6 -21 28 -29t70 -8q59 0 90 17t31 61q0 18 10.5 29.5t27.5 11.5t26.5 -11.5t9.5 -29.5v-72q0 -71 22 -98.5t79 -27.5q64 0 88.5 21.5t24.5 76.5v70q0 17 10.5 28.5
t26.5 11.5q15 0 26 -11.5t11 -28.5v-70q0 -55 19 -76.5t70 -21.5q48 0 67 20t19 71q0 33 -14 98q-1 4 -1 11q0 16 9.5 27t26.5 11q27 0 38 -37q16 -52 16 -105zM158 402q-15 15 -15 36t15 36t36 15t36 -15t15 -36t-15 -36t-36 -15t-36 15z" />
    <glyph glyph-name="uni06330632.fina" unicode="&#xfeb4;&#xfeb0;" horiz-adv-x="1205" 
d="M1222 95v-92l-17 -3q-67 0 -108.5 16.5t-59.5 51.5q-15 -33 -48 -50.5t-80 -17.5q-53 0 -85 16t-45 50q-34 -66 -146 -66q-82 0 -124 42.5t-47 131.5q-35 -54 -122 -54q-57 0 -81 34q3 -30 3 -68q0 -90 -28.5 -164.5t-80 -117.5t-116.5 -43q-52 0 -79 15
q-13 7 -20.5 18.5t-7.5 25.5q0 7 3 16q10 28 39 28q8 0 12 -1q24 -4 46 -4q45 0 81 27.5t56 78.5t20 118q0 75 -18 152q-2 12 -2 16q0 18 9 29t28 11q28 0 38 -36q6 -21 28 -29t70 -8q59 0 90 17t31 61q0 18 10.5 29.5t27.5 11.5t26.5 -11.5t9.5 -29.5v-72q0 -71 22 -98.5
t79 -27.5q63 0 88 21.5t25 76.5v70q0 17 10.5 28.5t26.5 11.5q15 0 26 -11.5t11 -28.5v-70q0 -55 19 -76.5t70 -21.5q49 0 68 21.5t19 74.5v72q0 17 10.5 28.5t26.5 11.5q15 0 26 -11.5t11 -28.5v-72q0 -52 28.5 -74t103.5 -22zM158 402q-15 15 -15 36t15 36t36 15t36 -15
t15 -36t-15 -36t-36 -15t-36 15z" />
    <glyph glyph-name="uni06330626" unicode="&#xfeb3;&#xfe8a;" horiz-adv-x="1373" 
d="M1323 194q0 -96 -43 -145t-120 -49q-53 0 -85 15.5t-46 48.5q-30 -64 -130 -64q-47 0 -77.5 12.5t-51 35.5t-41.5 61l-25 45q-24 44 -42 67.5t-44 37t-66 13.5q-35 0 -68 -13t-53 -33.5t-20 -43.5q0 -28 12.5 -41.5t39.5 -22t102 -25.5q71 -16 103.5 -54t32.5 -102
q0 -105 -88 -162.5t-257 -57.5q-168 0 -247 69t-79 217q0 88 38 169q6 14 17 21.5t23 7.5q7 0 14 -3q22 -9 22 -33q0 -9 -5 -22q-29 -71 -29 -139q0 -71 24 -112t78.5 -59t148.5 -18q135 0 202.5 28.5t67.5 88.5q0 21 -12.5 32.5t-41 19.5t-93.5 20q-82 16 -112.5 55
t-30.5 112q0 52 31 98t81 73.5t105 27.5q59 0 97.5 -20t61.5 -51t51 -82l21 -39q25 -46 47.5 -63t67.5 -17q53 0 74 21.5t21 76.5v70q0 17 10.5 28.5t26.5 11.5q15 0 26 -11.5t11 -28.5v-70q0 -55 19 -76.5t70 -21.5q48 0 67 20t19 71q0 33 -14 98q-1 4 -1 11q0 16 9.5 27
t26.5 11q27 0 38 -37q16 -52 16 -105zM197 330q9 -8 9 -22q0 -24 -22 -28q-29 -5 -122 -14l-21 -2q-16 -1 -26 7t-10 22q0 27 29 30l9 1q-19 17 -19 43q0 42 27 65.5t67 23.5q20 0 38 -8q25 -12 25 -33q0 -27 -26 -27q-6 0 -9 1q-15 3 -28 3q-22 0 -33.5 -6t-11.5 -24
t7.5 -24t29.5 -6q20 0 63 5q15 1 24 -7z" />
    <glyph glyph-name="uni06330626.fina" unicode="&#xfeb4;&#xfe8a;" horiz-adv-x="1455" 
d="M1472 95v-92l-17 -3q-67 0 -108.5 16.5t-59.5 51.5q-15 -33 -48 -50.5t-80 -17.5q-53 0 -85 15.5t-45 48.5q-31 -64 -130 -64q-47 0 -77.5 12.5t-51 35.5t-41.5 61l-25 45q-24 44 -42 67.5t-44 37t-66 13.5q-35 0 -68 -13t-53 -33.5t-20 -43.5q0 -28 12.5 -41.5t39.5 -22
t102 -25.5q71 -16 103.5 -54t32.5 -102q0 -105 -88 -162.5t-257 -57.5q-168 0 -247 69t-79 217q0 88 38 169q6 14 17 21.5t23 7.5q7 0 14 -3q22 -9 22 -33q0 -9 -5 -22q-29 -71 -29 -139q0 -71 24 -112t78.5 -59t148.5 -18q135 0 202.5 28.5t67.5 88.5q0 21 -12.5 32.5
t-41 19.5t-93.5 20q-82 16 -112.5 55t-30.5 112q0 52 31 98t81 73.5t105 27.5q59 0 97.5 -20t61.5 -51t51 -82l21 -39q25 -46 47.5 -63t67.5 -17q53 0 74 21.5t21 76.5v70q0 17 10.5 28.5t26.5 11.5q15 0 26 -11.5t11 -28.5v-70q0 -55 19 -76.5t70 -21.5q49 0 68 21.5
t19 74.5v72q0 17 10.5 28.5t26.5 11.5q15 0 26 -11.5t11 -28.5v-72q0 -52 28.5 -74t103.5 -22zM197 330q9 -8 9 -22q0 -24 -22 -28q-29 -5 -122 -14l-21 -2q-16 -1 -26 7t-10 22q0 27 29 30l9 1q-19 17 -19 43q0 42 27 65.5t67 23.5q20 0 38 -8q25 -12 25 -33q0 -27 -26 -27
q-6 0 -9 1q-15 3 -28 3q-22 0 -33.5 -6t-11.5 -24t7.5 -24t29.5 -6q20 0 63 5q15 1 24 -7z" />
    <glyph glyph-name="uni06340632" unicode="&#xfeb7;&#xfeb0;" horiz-adv-x="1123" 
d="M1073 194q0 -96 -43 -145t-120 -49q-104 0 -131 65q-34 -65 -146 -65q-82 0 -124 42.5t-47 131.5q-35 -54 -122 -54q-57 0 -81 34q3 -30 3 -68q0 -90 -28.5 -164.5t-80 -117.5t-116.5 -43q-52 0 -79 15q-13 7 -20.5 18.5t-7.5 25.5q0 7 3 16q10 28 39 28q8 0 12 -1
q24 -4 46 -4q45 0 81 27.5t56 78.5t20 118q0 75 -18 152q-2 12 -2 16q0 18 9 29t28 11q28 0 38 -36q6 -21 28 -29t70 -8q59 0 90 17t31 61q0 18 10.5 29.5t27.5 11.5t26.5 -11.5t9.5 -29.5v-72q0 -71 22 -98.5t79 -27.5q64 0 88.5 21.5t24.5 76.5v70q0 17 10.5 28.5
t26.5 11.5q15 0 26 -11.5t11 -28.5v-70q0 -55 19 -76.5t70 -21.5q48 0 67 20t19 71q0 33 -14 98q-1 4 -1 11q0 16 9.5 27t26.5 11q27 0 38 -37q16 -52 16 -105zM817 577q13 -13 13 -32q0 -18 -13.5 -31t-31.5 -13t-31 13t-13 31t13 31.5t31 13.5q19 0 32 -13zM762 473
q14 -14 14 -33t-14 -32.5t-33 -13.5t-32.5 13.5t-13.5 32.5t13.5 33t32.5 14t33 -14zM872 473q14 -14 14 -33t-14 -32.5t-33 -13.5t-32.5 13.5t-13.5 32.5t13.5 33t32.5 14t33 -14zM158 402q-15 15 -15 36t15 36t36 15t36 -15t15 -36t-15 -36t-36 -15t-36 15z" />
    <glyph glyph-name="uni06340632.fina" unicode="&#xfeb8;&#xfeb0;" horiz-adv-x="1205" 
d="M1222 95v-92l-17 -3q-67 0 -108.5 16.5t-59.5 51.5q-15 -33 -48 -50.5t-80 -17.5q-53 0 -85 16t-45 50q-34 -66 -146 -66q-82 0 -124 42.5t-47 131.5q-35 -54 -122 -54q-57 0 -81 34q3 -30 3 -68q0 -90 -28.5 -164.5t-80 -117.5t-116.5 -43q-52 0 -79 15
q-13 7 -20.5 18.5t-7.5 25.5q0 7 3 16q10 28 39 28q8 0 12 -1q24 -4 46 -4q45 0 81 27.5t56 78.5t20 118q0 75 -18 152q-2 12 -2 16q0 18 9 29t28 11q28 0 38 -36q6 -21 28 -29t70 -8q59 0 90 17t31 61q0 18 10.5 29.5t27.5 11.5t26.5 -11.5t9.5 -29.5v-72q0 -71 22 -98.5
t79 -27.5q63 0 88 21.5t25 76.5v70q0 17 10.5 28.5t26.5 11.5q15 0 26 -11.5t11 -28.5v-70q0 -55 19 -76.5t70 -21.5q49 0 68 21.5t19 74.5v72q0 17 10.5 28.5t26.5 11.5q15 0 26 -11.5t11 -28.5v-72q0 -52 28.5 -74t103.5 -22zM817 577q13 -13 13 -32q0 -18 -13.5 -31
t-31.5 -13t-31 13t-13 31t13 31.5t31 13.5q19 0 32 -13zM762 473q14 -14 14 -33t-14 -32.5t-33 -13.5t-32.5 13.5t-13.5 32.5t13.5 33t32.5 14t33 -14zM872 473q14 -14 14 -33t-14 -32.5t-33 -13.5t-32.5 13.5t-13.5 32.5t13.5 33t32.5 14t33 -14zM158 402q-15 15 -15 36
t15 36t36 15t36 -15t15 -36t-15 -36t-36 -15t-36 15z" />
    <glyph glyph-name="uni06340626" unicode="&#xfeb7;&#xfe8a;" horiz-adv-x="1373" 
d="M1323 194q0 -96 -43 -145t-120 -49q-53 0 -85 15.5t-46 48.5q-30 -64 -130 -64q-47 0 -77.5 12.5t-51 35.5t-41.5 61l-25 45q-24 44 -42 67.5t-44 37t-66 13.5q-35 0 -68 -13t-53 -33.5t-20 -43.5q0 -28 12.5 -41.5t39.5 -22t102 -25.5q71 -16 103.5 -54t32.5 -102
q0 -105 -88 -162.5t-257 -57.5q-168 0 -247 69t-79 217q0 88 38 169q6 14 17 21.5t23 7.5q7 0 14 -3q22 -9 22 -33q0 -9 -5 -22q-29 -71 -29 -139q0 -71 24 -112t78.5 -59t148.5 -18q135 0 202.5 28.5t67.5 88.5q0 21 -12.5 32.5t-41 19.5t-93.5 20q-82 16 -112.5 55
t-30.5 112q0 52 31 98t81 73.5t105 27.5q59 0 97.5 -20t61.5 -51t51 -82l21 -39q25 -46 47.5 -63t67.5 -17q53 0 74 21.5t21 76.5v70q0 17 10.5 28.5t26.5 11.5q15 0 26 -11.5t11 -28.5v-70q0 -55 19 -76.5t70 -21.5q48 0 67 20t19 71q0 33 -14 98q-1 4 -1 11q0 16 9.5 27
t26.5 11q27 0 38 -37q16 -52 16 -105zM1067 577q13 -13 13 -32q0 -18 -13.5 -31t-31.5 -13t-31 13t-13 31t13 31.5t31 13.5q19 0 32 -13zM1012 473q14 -14 14 -33t-14 -32.5t-33 -13.5t-32.5 13.5t-13.5 32.5t13.5 33t32.5 14t33 -14zM1122 473q14 -14 14 -33t-14 -32.5
t-33 -13.5t-32.5 13.5t-13.5 32.5t13.5 33t32.5 14t33 -14zM197 330q9 -8 9 -22q0 -24 -22 -28q-29 -5 -122 -14l-21 -2q-16 -1 -26 7t-10 22q0 27 29 30l9 1q-19 17 -19 43q0 42 27 65.5t67 23.5q20 0 38 -8q25 -12 25 -33q0 -27 -26 -27q-6 0 -9 1q-15 3 -28 3
q-22 0 -33.5 -6t-11.5 -24t7.5 -24t29.5 -6q20 0 63 5q15 1 24 -7z" />
    <glyph glyph-name="uni06340626.fina" unicode="&#xfeb8;&#xfe8a;" horiz-adv-x="1455" 
d="M1472 95v-92l-17 -3q-67 0 -108.5 16.5t-59.5 51.5q-15 -33 -48 -50.5t-80 -17.5q-53 0 -85 15.5t-45 48.5q-31 -64 -130 -64q-47 0 -77.5 12.5t-51 35.5t-41.5 61l-25 45q-24 44 -42 67.5t-44 37t-66 13.5q-35 0 -68 -13t-53 -33.5t-20 -43.5q0 -28 12.5 -41.5t39.5 -22
t102 -25.5q71 -16 103.5 -54t32.5 -102q0 -105 -88 -162.5t-257 -57.5q-168 0 -247 69t-79 217q0 88 38 169q6 14 17 21.5t23 7.5q7 0 14 -3q22 -9 22 -33q0 -9 -5 -22q-29 -71 -29 -139q0 -71 24 -112t78.5 -59t148.5 -18q135 0 202.5 28.5t67.5 88.5q0 21 -12.5 32.5
t-41 19.5t-93.5 20q-82 16 -112.5 55t-30.5 112q0 52 31 98t81 73.5t105 27.5q59 0 97.5 -20t61.5 -51t51 -82l21 -39q25 -46 47.5 -63t67.5 -17q53 0 74 21.5t21 76.5v70q0 17 10.5 28.5t26.5 11.5q15 0 26 -11.5t11 -28.5v-70q0 -55 19 -76.5t70 -21.5q49 0 68 21.5
t19 74.5v72q0 17 10.5 28.5t26.5 11.5q15 0 26 -11.5t11 -28.5v-72q0 -52 28.5 -74t103.5 -22zM1067 577q13 -13 13 -32q0 -18 -13.5 -31t-31.5 -13t-31 13t-13 31t13 31.5t31 13.5q19 0 32 -13zM1012 473q14 -14 14 -33t-14 -32.5t-33 -13.5t-32.5 13.5t-13.5 32.5t13.5 33
t32.5 14t33 -14zM1122 473q14 -14 14 -33t-14 -32.5t-33 -13.5t-32.5 13.5t-13.5 32.5t13.5 33t32.5 14t33 -14zM197 330q9 -8 9 -22q0 -24 -22 -28q-29 -5 -122 -14l-21 -2q-16 -1 -26 7t-10 22q0 27 29 30l9 1q-19 17 -19 43q0 42 27 65.5t67 23.5q20 0 38 -8
q25 -12 25 -33q0 -27 -26 -27q-6 0 -9 1q-15 3 -28 3q-22 0 -33.5 -6t-11.5 -24t7.5 -24t29.5 -6q20 0 63 5q15 1 24 -7z" />
    <glyph glyph-name="uni06350632" unicode="&#xfebb;&#xfeb0;" horiz-adv-x="1231" 
d="M1080.5 404.5q47.5 -30.5 74 -85t26.5 -124.5q0 -100 -60.5 -147.5t-188.5 -47.5h-299q-82 0 -124 42.5t-47 131.5q-35 -54 -122 -54q-57 0 -81 34q3 -30 3 -68q0 -90 -28.5 -164.5t-80 -117.5t-116.5 -43q-52 0 -79 15q-13 7 -20.5 18.5t-7.5 25.5q0 7 3 16q10 28 39 28
q8 0 12 -1q24 -4 46 -4q45 0 81 27.5t56 78.5t20 118q0 75 -18 152q-2 12 -2 16q0 18 9 29t28 11q28 0 38 -36q6 -21 28 -29t70 -8q59 0 90 17t31 61q0 18 10.5 29.5t27.5 11.5t26.5 -11.5t9.5 -29.5v-72q0 -56 13 -84t46 -37q75 123 135.5 194.5t119 104.5t124.5 33
q60 0 107.5 -30.5zM1042.5 106.5q35.5 8.5 51 28.5t15.5 54q0 64 -40.5 106t-101.5 42q-76 0 -147.5 -58t-147.5 -181h273q62 0 97.5 8.5zM158 402q-15 15 -15 36t15 36t36 15t36 -15t15 -36t-15 -36t-36 -15t-36 15z" />
    <glyph glyph-name="uni06350632.fina" unicode="&#xfebc;&#xfeb0;" horiz-adv-x="1245" 
d="M1262 95v-92l-17 -3q-56 0 -89 9.5t-50 27.5q-59 -37 -174 -37h-299q-82 0 -124 42.5t-47 131.5q-35 -54 -122 -54q-57 0 -81 34q3 -30 3 -68q0 -90 -28.5 -164.5t-80 -117.5t-116.5 -43q-52 0 -79 15q-13 7 -20.5 18.5t-7.5 25.5q0 7 3 16q10 28 39 28q8 0 12 -1
q24 -4 46 -4q45 0 81 27.5t56 78.5t20 118q0 75 -18 152q-2 12 -2 16q0 18 9 29t28 11q28 0 38 -36q6 -21 28 -29t70 -8q59 0 90 17t31 61q0 18 10.5 29.5t27.5 11.5t26.5 -11.5t9.5 -29.5v-72q0 -56 13 -84t46 -37q75 123 135.5 194.5t119 104.5t124.5 33q60 0 107.5 -30.5
t74 -85t26.5 -124.5q0 -50 -15 -88q31 -9 79 -9zM945 98q62 0 97.5 8.5t51 28.5t15.5 54q0 64 -40.5 106t-101.5 42q-76 0 -147.5 -58t-147.5 -181h273zM158 402q-15 15 -15 36t15 36t36 15t36 -15t15 -36t-15 -36t-36 -15t-36 15z" />
    <glyph glyph-name="uni06350626" unicode="&#xfebb;&#xfe8a;" horiz-adv-x="1458" 
d="M1307.5 404.5q47.5 -30.5 74 -85t26.5 -124.5q0 -100 -60.5 -147.5t-188.5 -47.5h-249q-47 0 -77.5 13.5t-49.5 36t-40 59.5l-31 55q-34 61 -68 89.5t-92 28.5q-38 0 -73 -14.5t-56.5 -37.5t-21.5 -48q0 -26 11.5 -39t36 -21t87.5 -22l29 -7q71 -16 103.5 -54t32.5 -102
q0 -105 -88 -162.5t-257 -57.5q-168 0 -247 69t-79 217q0 88 38 169q6 14 17 21.5t23 7.5q7 0 14 -3q22 -9 22 -33q0 -9 -5 -22q-29 -71 -29 -139q0 -71 24 -112t78.5 -59t148.5 -18q135 0 202.5 28.5t67.5 88.5q0 21 -12.5 32.5t-41.5 19.5t-93 20q-88 16 -120.5 55
t-32.5 112q0 54 32.5 102.5t85 77.5t109.5 29q59 0 99.5 -20.5t66.5 -52.5t52 -80l27 -49q23 -42 31 -53q71 114 129.5 181.5t115 98t121.5 30.5q60 0 107.5 -30.5zM1269.5 106.5q35.5 8.5 51 28.5t15.5 54q0 64 -40.5 106t-101.5 42q-76 0 -147.5 -58t-147.5 -181h3h270
q62 0 97.5 8.5zM196 328q9 -8 9 -22q0 -24 -22 -28q-29 -5 -122 -14l-21 -2q-16 -1 -26 7t-10 22q0 27 29 30l9 1q-19 17 -19 43q0 42 27 65.5t67 23.5q20 0 38 -8q25 -12 25 -33q0 -27 -26 -27q-6 0 -9 1q-15 3 -28 3q-22 0 -33.5 -6t-11.5 -24t7.5 -24t29.5 -6q20 0 63 5
q15 1 24 -7z" />
    <glyph glyph-name="uni06350626.fina" unicode="&#xfebc;&#xfe8a;" horiz-adv-x="1482" 
d="M1499 95v-92l-17 -3q-59 0 -92.5 10.5t-49.5 30.5q-60 -41 -181 -41h-249q-47 0 -77.5 13.5t-49.5 36t-40 59.5l-31 55q-34 61 -68 89.5t-92 28.5q-38 0 -73 -14.5t-56.5 -37.5t-21.5 -48q0 -26 11.5 -39t36 -21t87.5 -22l29 -7q71 -16 103.5 -54t32.5 -102
q0 -105 -88 -162.5t-257 -57.5q-168 0 -247 69t-79 217q0 88 38 169q6 14 17 21.5t23 7.5q7 0 14 -3q22 -9 22 -33q0 -9 -5 -22q-29 -71 -29 -139q0 -71 24 -112t78.5 -59t148.5 -18q135 0 202.5 28.5t67.5 88.5q0 21 -12.5 32.5t-41.5 19.5t-93 20q-88 16 -120.5 55
t-32.5 112q0 54 32.5 102.5t85 77.5t109.5 29q59 0 99.5 -20.5t66.5 -52.5t52 -80l27 -49q23 -42 31 -53q71 114 129.5 181.5t115 98t121.5 30.5q60 0 107.5 -30.5t74 -85t26.5 -124.5q0 -47 -14 -84q28 -13 88 -13zM1269.5 106.5q35.5 8.5 51 28.5t15.5 54q0 64 -40.5 106
t-101.5 42q-76 0 -147.5 -58t-147.5 -181h3h270q62 0 97.5 8.5zM196 328q9 -8 9 -22q0 -24 -22 -28q-29 -5 -122 -14l-21 -2q-16 -1 -26 7t-10 22q0 27 29 30l9 1q-19 17 -19 43q0 42 27 65.5t67 23.5q20 0 38 -8q25 -12 25 -33q0 -27 -26 -27q-6 0 -9 1q-15 3 -28 3
q-22 0 -33.5 -6t-11.5 -24t7.5 -24t29.5 -6q20 0 63 5q15 1 24 -7z" />
    <glyph glyph-name="uni06360632" unicode="&#xfebf;&#xfeb0;" horiz-adv-x="1231" 
d="M1080.5 404.5q47.5 -30.5 74 -85t26.5 -124.5q0 -100 -60.5 -147.5t-188.5 -47.5h-299q-82 0 -124 42.5t-47 131.5q-35 -54 -122 -54q-57 0 -81 34q3 -30 3 -68q0 -90 -28.5 -164.5t-80 -117.5t-116.5 -43q-52 0 -79 15q-13 7 -20.5 18.5t-7.5 25.5q0 7 3 16q10 28 39 28
q8 0 12 -1q24 -4 46 -4q45 0 81 27.5t56 78.5t20 118q0 75 -18 152q-2 12 -2 16q0 18 9 29t28 11q28 0 38 -36q6 -21 28 -29t70 -8q59 0 90 17t31 61q0 18 10.5 29.5t27.5 11.5t26.5 -11.5t9.5 -29.5v-72q0 -56 13 -84t46 -37q75 123 135.5 194.5t119 104.5t124.5 33
q60 0 107.5 -30.5zM1042.5 106.5q35.5 8.5 51 28.5t15.5 54q0 64 -40.5 106t-101.5 42q-76 0 -147.5 -58t-147.5 -181h273q62 0 97.5 8.5zM937 547q-15 15 -15 36t15 36t36 15t36 -15t15 -36t-15 -36t-36 -15t-36 15zM158 402q-15 15 -15 36t15 36t36 15t36 -15t15 -36
t-15 -36t-36 -15t-36 15z" />
    <glyph glyph-name="uni06360632.fina" unicode="&#xfec0;&#xfeb0;" horiz-adv-x="1245" 
d="M1262 95v-92l-17 -3q-56 0 -89 9.5t-50 27.5q-59 -37 -174 -37h-299q-82 0 -124 42.5t-47 131.5q-35 -54 -122 -54q-57 0 -81 34q3 -30 3 -68q0 -90 -28.5 -164.5t-80 -117.5t-116.5 -43q-52 0 -79 15q-13 7 -20.5 18.5t-7.5 25.5q0 7 3 16q10 28 39 28q8 0 12 -1
q24 -4 46 -4q45 0 81 27.5t56 78.5t20 118q0 75 -18 152q-2 12 -2 16q0 18 9 29t28 11q28 0 38 -36q6 -21 28 -29t70 -8q59 0 90 17t31 61q0 18 10.5 29.5t27.5 11.5t26.5 -11.5t9.5 -29.5v-72q0 -56 13 -84t46 -37q75 123 135.5 194.5t119 104.5t124.5 33q60 0 107.5 -30.5
t74 -85t26.5 -124.5q0 -50 -15 -88q31 -9 79 -9zM945 98q62 0 97.5 8.5t51 28.5t15.5 54q0 64 -40.5 106t-101.5 42q-76 0 -147.5 -58t-147.5 -181h273zM937 547q-15 15 -15 36t15 36t36 15t36 -15t15 -36t-15 -36t-36 -15t-36 15zM158 402q-15 15 -15 36t15 36t36 15
t36 -15t15 -36t-15 -36t-36 -15t-36 15z" />
    <glyph glyph-name="uni06360626" unicode="&#xfebf;&#xfe8a;" horiz-adv-x="1458" 
d="M1307.5 404.5q47.5 -30.5 74 -85t26.5 -124.5q0 -100 -60.5 -147.5t-188.5 -47.5h-249q-47 0 -77.5 13.5t-49.5 36t-40 59.5l-31 55q-34 61 -68 89.5t-92 28.5q-38 0 -73 -14.5t-56.5 -37.5t-21.5 -48q0 -26 11.5 -39t36 -21t87.5 -22l29 -7q71 -16 103.5 -54t32.5 -102
q0 -105 -88 -162.5t-257 -57.5q-168 0 -247 69t-79 217q0 88 38 169q6 14 17 21.5t23 7.5q7 0 14 -3q22 -9 22 -33q0 -9 -5 -22q-29 -71 -29 -139q0 -71 24 -112t78.5 -59t148.5 -18q135 0 202.5 28.5t67.5 88.5q0 21 -12.5 32.5t-41.5 19.5t-93 20q-88 16 -120.5 55
t-32.5 112q0 54 32.5 102.5t85 77.5t109.5 29q59 0 99.5 -20.5t66.5 -52.5t52 -80l27 -49q23 -42 31 -53q71 114 129.5 181.5t115 98t121.5 30.5q60 0 107.5 -30.5zM1269.5 106.5q35.5 8.5 51 28.5t15.5 54q0 64 -40.5 106t-101.5 42q-76 0 -147.5 -58t-147.5 -181h3h270
q62 0 97.5 8.5zM196 328q9 -8 9 -22q0 -24 -22 -28q-29 -5 -122 -14l-21 -2q-16 -1 -26 7t-10 22q0 27 29 30l9 1q-19 17 -19 43q0 42 27 65.5t67 23.5q20 0 38 -8q25 -12 25 -33q0 -27 -26 -27q-6 0 -9 1q-15 3 -28 3q-22 0 -33.5 -6t-11.5 -24t7.5 -24t29.5 -6q20 0 63 5
q15 1 24 -7zM1164 547q-15 15 -15 36t15 36t36 15t36 -15t15 -36t-15 -36t-36 -15t-36 15z" />
    <glyph glyph-name="uni06360626.fina" unicode="&#xfec0;&#xfe8a;" horiz-adv-x="1482" 
d="M1499 95v-92l-17 -3q-59 0 -92.5 10.5t-49.5 30.5q-60 -41 -181 -41h-249q-47 0 -77.5 13.5t-49.5 36t-40 59.5l-31 55q-34 61 -68 89.5t-92 28.5q-38 0 -73 -14.5t-56.5 -37.5t-21.5 -48q0 -26 11.5 -39t36 -21t87.5 -22l29 -7q71 -16 103.5 -54t32.5 -102
q0 -105 -88 -162.5t-257 -57.5q-168 0 -247 69t-79 217q0 88 38 169q6 14 17 21.5t23 7.5q7 0 14 -3q22 -9 22 -33q0 -9 -5 -22q-29 -71 -29 -139q0 -71 24 -112t78.5 -59t148.5 -18q135 0 202.5 28.5t67.5 88.5q0 21 -12.5 32.5t-41.5 19.5t-93 20q-88 16 -120.5 55
t-32.5 112q0 54 32.5 102.5t85 77.5t109.5 29q59 0 99.5 -20.5t66.5 -52.5t52 -80l27 -49q23 -42 31 -53q71 114 129.5 181.5t115 98t121.5 30.5q60 0 107.5 -30.5t74 -85t26.5 -124.5q0 -47 -14 -84q28 -13 88 -13zM1269.5 106.5q35.5 8.5 51 28.5t15.5 54q0 64 -40.5 106
t-101.5 42q-76 0 -147.5 -58t-147.5 -181h3h270q62 0 97.5 8.5zM196 328q9 -8 9 -22q0 -24 -22 -28q-29 -5 -122 -14l-21 -2q-16 -1 -26 7t-10 22q0 27 29 30l9 1q-19 17 -19 43q0 42 27 65.5t67 23.5q20 0 38 -8q25 -12 25 -33q0 -27 -26 -27q-6 0 -9 1q-15 3 -28 3
q-22 0 -33.5 -6t-11.5 -24t7.5 -24t29.5 -6q20 0 63 5q15 1 24 -7zM1164 547q-15 15 -15 36t15 36t36 15t36 -15t15 -36t-15 -36t-36 -15t-36 15z" />
    <glyph glyph-name="uni06410626" unicode="&#xfed3;&#xfe8a;" horiz-adv-x="816" 
d="M724 466q42 -65 42 -167v-65q0 -80 -33 -133.5t-116 -74.5q39 -34 39 -93q0 -64 -38 -113t-109.5 -76t-170.5 -27q-158 0 -233 66.5t-75 208.5q0 88 38 160q7 13 18 21t23 8q7 0 13 -3q22 -9 22 -33q0 -9 -5 -22q-29 -67 -29 -131q0 -67 22.5 -105t73.5 -55t140 -17
q113 0 176.5 31t63.5 87q0 31 -38.5 47.5t-112.5 24.5q-50 6 -50 49q0 19 14.5 31t36.5 12l62 -1q97 0 148 23.5t51 84.5v43q-25 -62 -121 -62q-146 0 -146 157q0 54 21.5 97t60 67.5t86.5 24.5q84 0 126 -65zM697 305v6q-1 48 -24 85t-79 37q-41 0 -68 -24.5t-27 -63.5
q0 -38 20.5 -54t69.5 -16q91 0 108 30zM189 309q9 -8 9 -22q0 -24 -22 -28q-29 -5 -122 -14l-21 -2q-16 -1 -26 7t-10 22q0 27 29 30l9 1q-19 17 -19 43q0 42 27 65.5t67 23.5q20 0 38 -8q25 -12 25 -33q0 -27 -26 -27q-6 0 -9 1q-15 3 -28 3q-22 0 -33.5 -6t-11.5 -24
t7.5 -24t29.5 -6q20 0 63 5q15 1 24 -7zM562 643q-15 15 -15 36t15 36t36 15t36 -15t15 -36t-15 -36t-36 -15t-36 15z" />
    <glyph glyph-name="uni06420626" unicode="&#xfed7;&#xfe8a;" horiz-adv-x="816" 
d="M724 466q42 -65 42 -167v-65q0 -80 -33 -133.5t-116 -74.5q39 -34 39 -93q0 -64 -38 -113t-109.5 -76t-170.5 -27q-158 0 -233 66.5t-75 208.5q0 88 38 160q7 13 18 21t23 8q7 0 13 -3q22 -9 22 -33q0 -9 -5 -22q-29 -67 -29 -131q0 -67 22.5 -105t73.5 -55t140 -17
q113 0 176.5 31t63.5 87q0 31 -38.5 47.5t-112.5 24.5q-50 6 -50 49q0 19 14.5 31t36.5 12l62 -1q97 0 148 23.5t51 84.5v43q-25 -62 -121 -62q-146 0 -146 157q0 54 21.5 97t60 67.5t86.5 24.5q84 0 126 -65zM697 305v6q-1 48 -24 85t-79 37q-41 0 -68 -24.5t-27 -63.5
q0 -38 20.5 -54t69.5 -16q91 0 108 30zM508.5 634q-13.5 14 -13.5 33t13.5 32.5t32.5 13.5t33 -13.5t14 -32.5t-14 -33t-33 -14t-32.5 14zM618.5 634q-13.5 14 -13.5 33t13.5 32.5t32.5 13.5t33 -13.5t14 -32.5t-14 -33t-33 -14t-32.5 14zM189 309q9 -8 9 -22q0 -24 -22 -28
q-29 -5 -122 -14l-21 -2q-16 -1 -26 7t-10 22q0 27 29 30l9 1q-19 17 -19 43q0 42 27 65.5t67 23.5q20 0 38 -8q25 -12 25 -33q0 -27 -26 -27q-6 0 -9 1q-15 3 -28 3q-22 0 -33.5 -6t-11.5 -24t7.5 -24t29.5 -6q20 0 63 5q15 1 24 -7z" />
    <glyph glyph-name="uni06430626" unicode="&#xfedb;&#xfe8a;" horiz-adv-x="839" 
d="M863 694q0 -23 -30 -43l-309 -199q141 -63 204 -123t63 -143q0 -73 -43 -117t-121 -56q29 -31 29 -80q0 -64 -38 -113t-109.5 -76t-170.5 -27q-158 0 -233 66.5t-75 208.5q0 88 38 160q7 13 18 21t23 8q7 0 13 -3q22 -9 22 -33q0 -9 -5 -22q-29 -67 -29 -131
q0 -67 22.5 -105t73.5 -55t140 -17q113 0 176.5 31t63.5 87q0 36 -28.5 54.5t-87.5 23.5q-21 2 -34 14.5t-13 31.5q0 23 13.5 37t36.5 11q54 -7 93 -7q57 0 106 16t49 58q0 37 -17.5 66t-66 60t-140.5 68q-40 16 -54.5 36t-14.5 45q0 37 36 60l328 215q18 12 33 12
q23 0 33 -21q5 -10 5 -19zM189 308q9 -8 9 -22q0 -24 -22 -28q-29 -5 -122 -14l-21 -2q-16 -1 -26 7t-10 22q0 27 29 30l9 1q-19 17 -19 43q0 42 27 65.5t67 23.5q20 0 38 -8q25 -12 25 -33q0 -27 -26 -27q-6 0 -9 1q-15 3 -28 3q-22 0 -33.5 -6t-11.5 -24t7.5 -24t29.5 -6
q20 0 63 5q15 1 24 -7z" />
    <glyph glyph-name="uni06430626.fina" unicode="&#xfedc;&#xfe8a;" horiz-adv-x="1061" 
d="M1078 95v-92l-17 -3q-76 0 -124.5 26.5t-107.5 96.5q-14 -57 -57.5 -87.5t-135.5 -34.5q20 -30 20 -68q0 -64 -38 -113t-109.5 -76t-170.5 -27q-158 0 -233 66.5t-75 208.5q0 88 38 160q7 13 18 21t23 8q7 0 13 -3q22 -9 22 -33q0 -9 -5 -22q-29 -67 -29 -131
q0 -67 22.5 -105t73.5 -55t140 -17q113 0 176.5 31t63.5 87q0 36 -26.5 53t-82.5 25q-21 2 -34 14.5t-13 31.5q0 23 13.5 37t36.5 11q65 -7 123 -7q69 0 106 7t52.5 20t22.5 37q-78 104 -179 234q-25 32 -25 64q0 23 13 36.5t43 32.5l319 195q19 11 33 11q21 0 33 -21
q5 -10 5 -20q0 -26 -30 -44l-328 -198l25 -33q84 -111 134 -171q54 -66 86 -96t64.5 -42t83.5 -12zM194 315q9 -8 9 -22q0 -24 -22 -28q-29 -5 -122 -14l-21 -2q-16 -1 -26 7t-10 22q0 27 29 30l9 1q-19 17 -19 43q0 42 27 65.5t67 23.5q20 0 38 -8q25 -12 25 -33
q0 -27 -26 -27q-6 0 -9 1q-15 3 -28 3q-22 0 -33.5 -6t-11.5 -24t7.5 -24t29.5 -6q20 0 63 5q15 1 24 -7z" />
    <glyph glyph-name="uni06440626" unicode="&#xfedf;&#xfe8a;" horiz-adv-x="801" 
d="M710.5 720.5q10.5 -13.5 10.5 -38.5v-435q0 -99 -24 -151.5t-80 -72.5q39 -34 39 -90q0 -64 -38 -113t-109.5 -76t-170.5 -27q-158 0 -233 66.5t-75 208.5q0 50 11 88t27 72q7 14 17.5 21.5t22.5 7.5q7 0 14 -3q22 -9 22 -33q0 -9 -5 -22q-29 -67 -29 -131
q0 -67 22.5 -105t73.5 -55t140 -17q113 0 176.5 31t63.5 87q0 36 -29 54.5t-87 23.5q-21 1 -34 14t-13 32q0 20 12.5 33t32.5 13l24 -2q42 -3 40 -3q43 0 65.5 8.5t31.5 29.5t9 62v484q0 25 11 38.5t31 13.5t30.5 -13.5zM189 308q9 -8 9 -22q0 -24 -22 -28q-29 -5 -122 -14
l-21 -2q-16 -1 -26 7t-10 22q0 27 29 30l9 1q-19 17 -19 43q0 42 27 65.5t67 23.5q20 0 38 -8q25 -12 25 -33q0 -27 -26 -27q-6 0 -9 1q-15 3 -28 3q-22 0 -33.5 -6t-11.5 -24t7.5 -24t29.5 -6q20 0 63 5q15 1 24 -7z" />
    <glyph glyph-name="uni06440626.fina" unicode="&#xfee0;&#xfe8a;" horiz-adv-x="858" 
d="M875 95v-92l-17 -3q-69 0 -111.5 19t-58.5 59q-25 -39 -71 -55q39 -34 39 -90q0 -64 -38 -113t-109.5 -76t-170.5 -27q-158 0 -233 66.5t-75 208.5q0 50 11 88t27 72q7 14 17.5 21.5t22.5 7.5q7 0 14 -3q22 -9 22 -33q0 -9 -5 -22q-29 -67 -29 -131q0 -67 22.5 -105
t73.5 -55t140 -17q113 0 176.5 31t63.5 87q0 36 -29 54.5t-87 23.5q-21 1 -34 14t-13 32q0 20 12.5 33t32.5 13l24 -2q42 -3 40 -3q43 0 65.5 8.5t31.5 29.5t9 62v484q0 25 11 38.5t31 13.5t30.5 -13.5t10.5 -38.5v-435v-3v-10q0 -55 13 -84t42 -40.5t82 -11.5zM189 308
q9 -8 9 -22q0 -24 -22 -28q-29 -5 -122 -14l-21 -2q-16 -1 -26 7t-10 22q0 27 29 30l9 1q-19 17 -19 43q0 42 27 65.5t67 23.5q20 0 38 -8q25 -12 25 -33q0 -27 -26 -27q-6 0 -9 1q-15 3 -28 3q-22 0 -33.5 -6t-11.5 -24t7.5 -24t29.5 -6q20 0 63 5q15 1 24 -7z" />
    <glyph glyph-name="uni06460626" unicode="&#xfee7;&#xfe8a;" horiz-adv-x="778" 
d="M699 96.5q-29 -52.5 -83 -72.5q40 -35 40 -91q0 -64 -38 -113t-109.5 -76t-170.5 -27q-158 0 -233 66.5t-75 208.5q0 82 31 155q6 14 16.5 21.5t22.5 7.5q6 0 14 -3q22 -9 22 -31q0 -7 -4 -21q-22 -68 -22 -129q0 -67 22.5 -105t73.5 -55t140 -17q113 0 176.5 31t63.5 87
q0 34 -34.5 53.5t-82.5 24.5q-21 3 -33.5 15t-12.5 31q0 21 12.5 32.5t34.5 11.5q14 0 22 -1l43 -1q64 0 90.5 30.5t26.5 100.5q0 57 -9 115q-3 20 8.5 32t28.5 12q15 0 25.5 -9.5t13.5 -27.5q9 -55 9 -122q0 -81 -29 -133.5zM644 501q-15 15 -15 36t15 36t36 15t36 -15
t15 -36t-15 -36t-36 -15t-36 15zM189 308q9 -8 9 -22q0 -24 -22 -28q-29 -5 -122 -14l-21 -2q-16 -1 -26 7t-10 22q0 27 29 30l9 1q-19 17 -19 43q0 42 27 65.5t67 23.5q20 0 38 -8q25 -12 25 -33q0 -27 -26 -27q-6 0 -9 1q-15 3 -28 3q-22 0 -33.5 -6t-11.5 -24t7.5 -24
t29.5 -6q20 0 63 5q15 1 24 -7z" />
    <glyph glyph-name="uni06460626.fina" unicode="&#xfee8;&#xfe8a;" horiz-adv-x="899" 
d="M64 167q6 14 16.5 21.5t22.5 7.5q7 0 14 -3q22 -9 22 -31q0 -7 -4 -21q-11 -34 -18 -66.5t-7 -70.5q0 -71 24 -112t78.5 -59t148.5 -18q135 0 202.5 28.5t67.5 88.5q0 21 -12.5 32.5t-41.5 19.5t-93 20q-82 16 -112.5 55t-30.5 112q0 52 31 98t81 73.5t105 27.5
q59 0 97.5 -20t61.5 -51t51 -82l21 -39q24 -44 46 -62t64 -18l17 -3v-92l-17 -3q-47 0 -77.5 12.5t-51 35t-41.5 61.5l-25 45q-24 44 -42 67.5t-44 37t-66 13.5q-35 0 -68 -13t-53 -33.5t-20 -43.5q0 -26 10.5 -39t34 -21t82.5 -22q32 -8 27 -7q71 -16 103.5 -54t32.5 -102
q0 -105 -88 -162.5t-257 -57.5q-168 0 -247 69t-79 217q0 84 34 164zM522 482q-15 15 -15 36t15 36t36 15t36 -15t15 -36t-15 -36t-36 -15t-36 15zM195 328q9 -8 9 -22q0 -24 -22 -28q-29 -5 -122 -14l-21 -2q-16 -1 -26 7t-10 22q0 27 29 30l9 1q-19 17 -19 43
q0 42 27 65.5t67 23.5q20 0 38 -8q25 -12 25 -33q0 -27 -26 -27q-6 0 -9 1q-15 3 -28 3q-22 0 -33.5 -6t-11.5 -24t7.5 -24t29.5 -6q20 0 63 5q15 1 24 -7z" />
    <glyph glyph-name="uni06490631.fina" unicode="&#xfbe9;&#xfeae;" horiz-adv-x="665" 
d="M682 95v-92l-17 -3q-98 0 -148 42t-57 130q-34 -52 -120 -52q-57 0 -81 34q3 -30 3 -68q0 -90 -28.5 -164.5t-80 -117.5t-116.5 -43q-52 0 -79 15q-13 7 -20.5 18.5t-7.5 25.5q0 7 3 16q10 28 39 28q8 0 12 -1q24 -4 46 -4q45 0 81 27.5t56 78.5t20 118q0 75 -18 152
q-2 12 -2 16q0 18 9 29t28 11q28 0 38 -36q6 -21 28 -29t70 -8q58 0 88.5 15.5t30.5 55.5q0 18 10 29.5t27 11.5t26.5 -11.5t9.5 -29.5v-55q0 -76 29.5 -106t103.5 -30z" />
    <glyph glyph-name="uni06490632.fina" unicode="&#xfbe9;&#xfeb0;" horiz-adv-x="665" 
d="M682 95v-92l-17 -3q-98 0 -148 42t-57 130q-34 -52 -120 -52q-57 0 -81 34q3 -30 3 -68q0 -90 -28.5 -164.5t-80 -117.5t-116.5 -43q-52 0 -79 15q-13 7 -20.5 18.5t-7.5 25.5q0 7 3 16q10 28 39 28q8 0 12 -1q24 -4 46 -4q45 0 81 27.5t56 78.5t20 118q0 75 -18 152
q-2 12 -2 16q0 18 9 29t28 11q28 0 38 -36q6 -21 28 -29t70 -8q58 0 88.5 15.5t30.5 55.5q0 18 10 29.5t27 11.5t26.5 -11.5t9.5 -29.5v-55q0 -76 29.5 -106t103.5 -30zM165 393q-15 15 -15 36t15 36t36 15t36 -15t15 -36t-15 -36t-36 -15t-36 15z" />
    <glyph glyph-name="uni06490646.fina" unicode="&#xfbe9;&#xfee6;" horiz-adv-x="1031" 
d="M1048 95v-92l-17 -3q-98 0 -148 42t-57 130q-34 -52 -120 -52q-33 0 -52.5 9.5t-30.5 28.5q6 -55 6 -108q0 -141 -74.5 -212.5t-232.5 -71.5q-154 0 -223 67.5t-69 213.5q0 95 31 168q6 14 16.5 21.5t22.5 7.5q7 0 14 -3q22 -9 22 -31q0 -7 -4 -21q-22 -68 -22 -142
q0 -69 21 -108.5t69 -57t131 -17.5q118 0 168 42t50 135q0 91 -17 193q-2 10 -2 15q0 17 10 28.5t28 11.5q17 0 26 -8t14 -26q6 -21 28 -29t70 -8q58 0 88.5 15.5t30.5 55.5q0 18 10 29.5t27 11.5t26.5 -11.5t9.5 -29.5v-55q0 -76 29.5 -106t103.5 -30z" />
    <glyph glyph-name="uni06490649" unicode="&#xfbe8;&#xfef0;" horiz-adv-x="778" 
d="M699 96.5q-29 -52.5 -83 -72.5q40 -35 40 -91q0 -64 -38 -113t-109.5 -76t-170.5 -27q-158 0 -233 66.5t-75 208.5q0 82 31 155q6 14 16.5 21.5t22.5 7.5q6 0 14 -3q22 -9 22 -31q0 -7 -4 -21q-22 -68 -22 -129q0 -67 22.5 -105t73.5 -55t140 -17q113 0 176.5 31t63.5 87
q0 34 -34.5 53.5t-82.5 24.5q-21 3 -33.5 15t-12.5 31q0 21 12.5 32.5t34.5 11.5q14 0 22 -1l43 -1q64 0 90.5 30.5t26.5 100.5q0 57 -9 115q-3 20 8.5 32t28.5 12q15 0 25.5 -9.5t13.5 -27.5q9 -55 9 -122q0 -81 -29 -133.5z" />
    <glyph glyph-name="uni06490649.fina" unicode="&#xfbe9;&#xfef0;" horiz-adv-x="899" 
d="M64 167q6 14 16.5 21.5t22.5 7.5q7 0 14 -3q22 -9 22 -31q0 -7 -4 -21q-11 -34 -18 -66.5t-7 -70.5q0 -71 24 -112t78.5 -59t148.5 -18q135 0 202.5 28.5t67.5 88.5q0 21 -12.5 32.5t-41.5 19.5t-93 20q-82 16 -112.5 55t-30.5 112q0 52 31 98t81 73.5t105 27.5
q59 0 97.5 -20t61.5 -51t51 -82l21 -39q24 -44 46 -62t64 -18l17 -3v-92l-17 -3q-47 0 -77.5 12.5t-51 35t-41.5 61.5l-25 45q-24 44 -42 67.5t-44 37t-66 13.5q-35 0 -68 -13t-53 -33.5t-20 -43.5q0 -26 10.5 -39t34 -21t82.5 -22q32 -8 27 -7q71 -16 103.5 -54t32.5 -102
q0 -105 -88 -162.5t-257 -57.5q-168 0 -247 69t-79 217q0 84 34 164z" />
    <glyph glyph-name="uni064A0626" unicode="&#xfef3;&#xfe8a;" horiz-adv-x="899" 
d="M64 167q6 14 16.5 21.5t22.5 7.5q7 0 14 -3q22 -9 22 -31q0 -7 -4 -21q-11 -34 -18 -66.5t-7 -70.5q0 -71 24 -112t78.5 -59t148.5 -18q135 0 202.5 28.5t67.5 88.5q0 21 -12.5 32.5t-41.5 19.5t-93 20q-82 16 -112.5 55t-30.5 112q0 52 31 98t81 73.5t105 27.5
q59 0 97.5 -20t61.5 -51t51 -82l21 -39q24 -44 46 -62t64 -18l17 -3v-92l-17 -3q-47 0 -77.5 12.5t-51 35t-41.5 61.5l-25 45q-24 44 -42 67.5t-44 37t-66 13.5q-35 0 -68 -13t-53 -33.5t-20 -43.5q0 -26 10.5 -39t34 -21t82.5 -22q32 -8 27 -7q71 -16 103.5 -54t32.5 -102
q0 -105 -88 -162.5t-257 -57.5q-168 0 -247 69t-79 217q0 84 34 164zM754.5 -154q-13.5 14 -13.5 33t13.5 32.5t32.5 13.5t33 -13.5t14 -32.5t-14 -33t-33 -14t-32.5 14zM864.5 -154q-13.5 14 -13.5 33t13.5 32.5t32.5 13.5t33 -13.5t14 -32.5t-14 -33t-33 -14t-32.5 14z
M195 328q9 -8 9 -22q0 -24 -22 -28q-29 -5 -122 -14l-21 -2q-16 -1 -26 7t-10 22q0 27 29 30l9 1q-19 17 -19 43q0 42 27 65.5t67 23.5q20 0 38 -8q25 -12 25 -33q0 -27 -26 -27q-6 0 -9 1q-15 3 -28 3q-22 0 -33.5 -6t-11.5 -24t7.5 -24t29.5 -6q20 0 63 5q15 1 24 -7z" />
    <glyph glyph-name="uni064A0626.fina" unicode="&#xfef4;&#xfe8a;" horiz-adv-x="778" 
d="M699 96.5q-29 -52.5 -83 -72.5q40 -35 40 -91q0 -64 -38 -113t-109.5 -76t-170.5 -27q-158 0 -233 66.5t-75 208.5q0 82 31 155q6 14 16.5 21.5t22.5 7.5q6 0 14 -3q22 -9 22 -31q0 -7 -4 -21q-22 -68 -22 -129q0 -67 22.5 -105t73.5 -55t140 -17q113 0 176.5 31t63.5 87
q0 34 -34.5 53.5t-82.5 24.5q-21 3 -33.5 15t-12.5 31q0 21 12.5 32.5t34.5 11.5q14 0 22 -1l43 -1q64 0 90.5 30.5t26.5 100.5q0 57 -9 115q-3 20 8.5 32t28.5 12q15 0 25.5 -9.5t13.5 -27.5q9 -55 9 -122q0 -81 -29 -133.5zM552.5 -377q-13.5 14 -13.5 33t13.5 32.5
t32.5 13.5t33 -13.5t14 -32.5t-14 -33t-33 -14t-32.5 14zM662.5 -377q-13.5 14 -13.5 33t13.5 32.5t32.5 13.5t33 -13.5t14 -32.5t-14 -33t-33 -14t-32.5 14zM189 308q9 -8 9 -22q0 -24 -22 -28q-29 -5 -122 -14l-21 -2q-16 -1 -26 7t-10 22q0 27 29 30l9 1q-19 17 -19 43
q0 42 27 65.5t67 23.5q20 0 38 -8q25 -12 25 -33q0 -27 -26 -27q-6 0 -9 1q-15 3 -28 3q-22 0 -33.5 -6t-11.5 -24t7.5 -24t29.5 -6q20 0 63 5q15 1 24 -7z" />
    <glyph glyph-name="uni06260626" unicode="&#xfe8b;&#xfe8a;" horiz-adv-x="778" 
d="M699 96.5q-29 -52.5 -83 -72.5q40 -35 40 -91q0 -64 -38 -113t-109.5 -76t-170.5 -27q-158 0 -233 66.5t-75 208.5q0 82 31 155q6 14 16.5 21.5t22.5 7.5q6 0 14 -3q22 -9 22 -31q0 -7 -4 -21q-22 -68 -22 -129q0 -67 22.5 -105t73.5 -55t140 -17q113 0 176.5 31t63.5 87
q0 34 -34.5 53.5t-82.5 24.5q-21 3 -33.5 15t-12.5 31q0 21 12.5 32.5t34.5 11.5q14 0 22 -1l43 -1q64 0 90.5 30.5t26.5 100.5q0 57 -9 115q-3 20 8.5 32t28.5 12q15 0 25.5 -9.5t13.5 -27.5q9 -55 9 -122q0 -81 -29 -133.5zM189 308q9 -8 9 -22q0 -24 -22 -28
q-29 -5 -122 -14l-21 -2q-16 -1 -26 7t-10 22q0 27 29 30l9 1q-19 17 -19 43q0 42 27 65.5t67 23.5q20 0 38 -8q25 -12 25 -33q0 -27 -26 -27q-6 0 -9 1q-15 3 -28 3q-22 0 -33.5 -6t-11.5 -24t7.5 -24t29.5 -6q20 0 63 5q15 1 24 -7zM762 525q9 -8 9 -22q0 -24 -22 -28
q-29 -5 -122 -14l-21 -2q-16 -1 -26 7t-10 22q0 27 29 30l9 1q-19 17 -19 43q0 42 27 65.5t67 23.5q20 0 38 -8q25 -12 25 -33q0 -27 -26 -27q-6 0 -9 1q-15 3 -28 3q-22 0 -33.5 -6t-11.5 -24t7.5 -24t29.5 -6q20 0 63 5q15 1 24 -7z" />
    <glyph glyph-name="uni06260626.fina" unicode="&#xfe8c;&#xfe8a;" horiz-adv-x="899" 
d="M64 167q6 14 16.5 21.5t22.5 7.5q7 0 14 -3q22 -9 22 -31q0 -7 -4 -21q-11 -34 -18 -66.5t-7 -70.5q0 -71 24 -112t78.5 -59t148.5 -18q135 0 202.5 28.5t67.5 88.5q0 21 -12.5 32.5t-41.5 19.5t-93 20q-82 16 -112.5 55t-30.5 112q0 52 31 98t81 73.5t105 27.5
q59 0 97.5 -20t61.5 -51t51 -82l21 -39q24 -44 46 -62t64 -18l17 -3v-92l-17 -3q-47 0 -77.5 12.5t-51 35t-41.5 61.5l-25 45q-24 44 -42 67.5t-44 37t-66 13.5q-35 0 -68 -13t-53 -33.5t-20 -43.5q0 -26 10.5 -39t34 -21t82.5 -22q32 -8 27 -7q71 -16 103.5 -54t32.5 -102
q0 -105 -88 -162.5t-257 -57.5q-168 0 -247 69t-79 217q0 84 34 164zM640 506q9 -8 9 -22q0 -24 -22 -28q-29 -5 -122 -14l-21 -2q-16 -1 -26 7t-10 22q0 27 29 30l9 1q-19 17 -19 43q0 42 27 65.5t67 23.5q20 0 38 -8q25 -12 25 -33q0 -27 -26 -27q-6 0 -9 1q-15 3 -28 3
q-22 0 -33.5 -6t-11.5 -24t7.5 -24t29.5 -6q20 0 63 5q15 1 24 -7zM195 328q9 -8 9 -22q0 -24 -22 -28q-29 -5 -122 -14l-21 -2q-16 -1 -26 7t-10 22q0 27 29 30l9 1q-19 17 -19 43q0 42 27 65.5t67 23.5q20 0 38 -8q25 -12 25 -33q0 -27 -26 -27q-6 0 -9 1q-15 3 -28 3
q-22 0 -33.5 -6t-11.5 -24t7.5 -24t29.5 -6q20 0 63 5q15 1 24 -7z" />
    <glyph glyph-name="uni066E.init" unicode="&#x66e;" horiz-adv-x="257" 
d="M-17 3v92l17 3q72 0 101.5 33t29.5 108q0 44 -9 102q-3 20 8.5 32t28.5 12q15 0 25.5 -9.5t13.5 -27.5q9 -55 9 -109q0 -118 -53.5 -178.5t-153.5 -60.5z" />
    <glyph glyph-name="uni066E.medi" unicode="&#x66e;" horiz-adv-x="345" 
d="M362 95v-92l-17 -3q-76 0 -119 21t-56 64q-25 -85 -170 -85l-17 3v92l17 3q53 0 81.5 10.5t41.5 38.5t13 81v61q0 18 10 29.5t27 11.5t26.5 -11.5t9.5 -29.5v-61q0 -53 13 -81t41.5 -38.5t81.5 -10.5z" />
    <glyph glyph-name="uni066E.fina" unicode="&#x66e;" horiz-adv-x="928" 
d="M945 95v-92l-17 -3q-76 0 -118.5 25.5t-55.5 77.5q-35 -55 -116.5 -79t-225.5 -24t-226.5 22.5t-119 72.5t-36.5 138q0 55 12 94q5 16 15.5 26.5t24.5 10.5q15 0 23.5 -10t8.5 -25q0 -4 -2 -14q-9 -36 -9 -69q0 -61 26 -92t92 -43.5t194 -12.5q126 0 191 12t90.5 41.5
t25.5 87.5v50q0 18 10 29.5t27 11.5t26.5 -11.5t9.5 -29.5v-55q0 -56 12.5 -85t40.5 -40t80 -11z" />
    <glyph glyph-name="uni066F.fina" unicode="&#x66f;" horiz-adv-x="767" 
d="M784 92v-89l-17 -3h-75q-9 -81 -46 -129.5t-110 -71.5t-190 -23q-166 0 -241 67t-75 214q0 95 31 168q6 14 16.5 21.5t22.5 7.5q7 0 14 -3q22 -9 22 -31q0 -7 -4 -21q-22 -68 -22 -142q0 -65 23.5 -105t76 -59t142.5 -19q95 0 153 12t87 39.5t35 74.5h-127
q-81 0 -119.5 39t-38.5 116q0 59 23 106.5t64 74t93 26.5q86 0 129.5 -68.5t43.5 -171.5v-24h72zM434 108q22 -15 77 -15h118v30q0 51 -25.5 96t-85.5 45q-47 0 -76.5 -29.5t-29.5 -75.5q0 -36 22 -51z" />
    <glyph glyph-name="uni06A1.init" unicode="&#x6a1;" horiz-adv-x="438" 
d="M345 469.5q43 -66.5 43 -170.5v-65q0 -120 -61 -177t-190 -57h-137l-17 3v92l17 3h136q69 0 108.5 11.5t57 37.5t17.5 72v29q-26 -63 -126 -63q-151 0 -151 157q0 55 22 99.5t61.5 69.5t89.5 25q87 0 130 -66.5zM318 304v7q0 50 -24 88.5t-83 38.5q-44 0 -72 -26t-28 -67
q0 -38 21.5 -54t73.5 -16q92 0 112 29z" />
    <glyph glyph-name="uni06A1.medi" unicode="&#x6a1;" horiz-adv-x="493" 
d="M510 95v-92l-18 -3q-94 0 -153 14.5t-100 37.5q-85 -52 -238 -52l-18 3v92l18 3q102 0 153 10q-42 24 -61 61.5t-19 92.5q0 96 47 149.5t126 53.5q80 0 126.5 -53t46.5 -150q0 -56 -19 -93.5t-62 -61.5q53 -9 153 -9zM172 339.5q-28 -27.5 -28 -77.5q0 -46 21.5 -72
t83.5 -53q42 19 63.5 36t29.5 37.5t8 51.5q0 50 -27.5 77.5t-75.5 27.5q-47 0 -75 -27.5z" />
    <glyph glyph-name="uni06A1.fina" unicode="&#x6a1;" horiz-adv-x="910" 
d="M927 95v-92l-18 -3q-88 0 -145.5 13t-98.5 34q-60 -30 -140 -38.5t-191 -8.5q-113 0 -178.5 23.5t-95.5 76.5t-30 145q0 62 14 106q5 17 15.5 27.5t24.5 10.5q17 0 25.5 -10t8.5 -26q0 -5 -2 -15q-11 -48 -11 -79q0 -61 22.5 -95.5t72.5 -50t138 -15.5q168 0 238 8
q-45 25 -65 63t-20 93q0 96 47 149.5t126 53.5q80 0 126.5 -53t46.5 -150q0 -55 -19.5 -92.5t-62.5 -62.5q53 -9 154 -9zM589 339.5q-28 -27.5 -28 -77.5q0 -44 21.5 -70.5t83.5 -53.5q60 27 80.5 53.5t20.5 70.5q0 50 -27.5 77.5t-75.5 27.5q-47 0 -75 -27.5z" />
    <glyph glyph-name="uniFB57" unicode="&#x67e;" horiz-adv-x="928" arabic-form="final" 
d="M945 95v-92l-17 -3q-76 0 -118.5 25.5t-55.5 77.5q-35 -55 -116.5 -79t-225.5 -24t-226.5 22.5t-119 72.5t-36.5 138q0 55 12 94q5 16 15.5 26.5t24.5 10.5q15 0 23.5 -10t8.5 -25q0 -4 -2 -14q-9 -36 -9 -69q0 -61 26 -92t92 -43.5t194 -12.5q126 0 191 12t90.5 41.5
t25.5 87.5v50q0 18 10 29.5t27 11.5t26.5 -11.5t9.5 -29.5v-55q0 -56 12.5 -85t40.5 -40t80 -11zM324.5 -168q-13.5 14 -13.5 33t13.5 32.5t32.5 13.5t33 -13.5t14 -32.5t-14 -33t-33 -14t-32.5 14zM434.5 -168q-13.5 14 -13.5 33t13.5 32.5t32.5 13.5t33 -13.5t14 -32.5
t-14 -33t-33 -14t-32.5 14zM382 -271.5q-13 13.5 -13 31.5t13 31t31 13t31.5 -13t13.5 -31q0 -19 -13 -32t-32 -13q-18 0 -31 13.5z" />
    <glyph glyph-name="uniFB58" unicode="&#x67e;" horiz-adv-x="257" arabic-form="initial" 
d="M-17 3v92l17 3q72 0 101.5 33t29.5 108q0 44 -9 102q-3 20 8.5 32t28.5 12q15 0 25.5 -9.5t13.5 -27.5q9 -55 9 -109q0 -118 -53.5 -178.5t-153.5 -60.5zM-12.5 -169q-13.5 14 -13.5 33t13.5 32.5t32.5 13.5t33 -13.5t14 -32.5t-14 -33t-33 -14t-32.5 14zM97.5 -169
q-13.5 14 -13.5 33t13.5 32.5t32.5 13.5t33 -13.5t14 -32.5t-14 -33t-33 -14t-32.5 14zM45 -272.5q-13 13.5 -13 31.5t13 31t31 13t31.5 -13t13.5 -31q0 -19 -13 -32t-32 -13q-18 0 -31 13.5z" />
    <glyph glyph-name="uniFB59" unicode="&#x67e;" horiz-adv-x="345" arabic-form="medial" 
d="M362 95v-92l-17 -3q-76 0 -119 21t-56 64q-25 -85 -170 -85l-17 3v92l17 3q53 0 81.5 10.5t41.5 38.5t13 81v61q0 18 10 29.5t27 11.5t26.5 -11.5t9.5 -29.5v-61q0 -53 13 -81t41.5 -38.5t81.5 -10.5zM85.5 -168q-13.5 14 -13.5 33t13.5 32.5t32.5 13.5t33 -13.5
t14 -32.5t-14 -33t-33 -14t-32.5 14zM195.5 -168q-13.5 14 -13.5 33t13.5 32.5t32.5 13.5t33 -13.5t14 -32.5t-14 -33t-33 -14t-32.5 14zM143 -271.5q-13 13.5 -13 31.5t13 31t31 13t31.5 -13t13.5 -31q0 -19 -13 -32t-32 -13q-18 0 -31 13.5z" />
    <glyph glyph-name="uniFB6B" unicode="&#x6a4;" horiz-adv-x="910" arabic-form="final" 
d="M927 95v-92l-18 -3q-88 0 -145.5 13t-98.5 34q-60 -30 -140 -38.5t-191 -8.5q-113 0 -178.5 23.5t-95.5 76.5t-30 145q0 62 14 106q5 17 15.5 27.5t24.5 10.5q17 0 25.5 -10t8.5 -26q0 -5 -2 -15q-11 -48 -11 -79q0 -61 22.5 -95.5t72.5 -50t138 -15.5q168 0 238 8
q-45 25 -65 63t-20 93q0 96 47 149.5t126 53.5q80 0 126.5 -53t46.5 -150q0 -55 -19.5 -92.5t-62.5 -62.5q53 -9 154 -9zM589 339.5q-28 -27.5 -28 -77.5q0 -44 21.5 -70.5t83.5 -53.5q60 27 80.5 53.5t20.5 70.5q0 50 -27.5 77.5t-75.5 27.5q-47 0 -75 -27.5zM695 736
q13 -13 13 -32q0 -18 -13.5 -31t-31.5 -13t-31 13t-13 31t13 31.5t31 13.5q19 0 32 -13zM640 632q14 -14 14 -33t-14 -32.5t-33 -13.5t-32.5 13.5t-13.5 32.5t13.5 33t32.5 14t33 -14zM750 632q14 -14 14 -33t-14 -32.5t-33 -13.5t-32.5 13.5t-13.5 32.5t13.5 33t32.5 14
t33 -14z" />
    <glyph glyph-name="uniFB6C" unicode="&#x6a4;" horiz-adv-x="438" arabic-form="initial" 
d="M345 469.5q43 -66.5 43 -170.5v-65q0 -120 -61 -177t-190 -57h-137l-17 3v92l17 3h136q69 0 108.5 11.5t57 37.5t17.5 72v29q-26 -63 -126 -63q-151 0 -151 157q0 55 22 99.5t61.5 69.5t89.5 25q87 0 130 -66.5zM318 304v7q0 50 -24 88.5t-83 38.5q-44 0 -72 -26t-28 -67
q0 -38 21.5 -54t73.5 -16q92 0 112 29zM246 807q13 -13 13 -32q0 -18 -13.5 -31t-31.5 -13t-31 13t-13 31t13 31.5t31 13.5q19 0 32 -13zM191 703q14 -14 14 -33t-14 -32.5t-33 -13.5t-32.5 13.5t-13.5 32.5t13.5 33t32.5 14t33 -14zM301 703q14 -14 14 -33t-14 -32.5
t-33 -13.5t-32.5 13.5t-13.5 32.5t13.5 33t32.5 14t33 -14z" />
    <glyph glyph-name="uniFB6D" unicode="&#x6a4;" horiz-adv-x="493" arabic-form="medial" 
d="M510 95v-92l-18 -3q-94 0 -153 14.5t-100 37.5q-85 -52 -238 -52l-18 3v92l18 3q102 0 153 10q-42 24 -61 61.5t-19 92.5q0 96 47 149.5t126 53.5q80 0 126.5 -53t46.5 -150q0 -56 -19 -93.5t-62 -61.5q53 -9 153 -9zM172 339.5q-28 -27.5 -28 -77.5q0 -46 21.5 -72
t83.5 -53q42 19 63.5 36t29.5 37.5t8 51.5q0 50 -27.5 77.5t-75.5 27.5q-47 0 -75 -27.5zM278 736q13 -13 13 -32q0 -18 -13.5 -31t-31.5 -13t-31 13t-13 31t13 31.5t31 13.5q19 0 32 -13zM223 632q14 -14 14 -33t-14 -32.5t-33 -13.5t-32.5 13.5t-13.5 32.5t13.5 33
t32.5 14t33 -14zM333 632q14 -14 14 -33t-14 -32.5t-33 -13.5t-32.5 13.5t-13.5 32.5t13.5 33t32.5 14t33 -14z" />
    <glyph glyph-name="uniFB7B" unicode="&#x686;" horiz-adv-x="685" arabic-form="final" 
d="M702 95v-92l-17 -3q-77 0 -118 19.5t-57.5 61.5t-18.5 118q-154 -52 -234 -88.5t-118 -80t-38 -108.5q0 -91 56.5 -133.5t176.5 -42.5q121 0 239 37q8 3 16 3q14 0 24 -8t14 -22q2 -5 2 -14q0 -14 -8.5 -25.5t-22.5 -18.5q-31 -15 -98.5 -32.5t-176.5 -17.5
q-146 0 -219.5 69.5t-73.5 198.5v9q0 89 48 150.5t147 108t269 94.5q-15 5 -29.5 9t-26.5 8q-80 26 -135.5 40t-100.5 14q-46 0 -94 -25q-10 -5 -19 -5q-10 0 -19 5.5t-14 15.5q-5 9 -5 21q0 11 5 21.5t14 17.5q53 42 136 42q45 0 86.5 -12t106.5 -37q55 -22 93.5 -34.5
t82.5 -19.5q23 -4 34.5 -18t11.5 -34q0 -24 -12 -38t-45 -25l-19 -6q2 -50 14 -75t41 -35t85 -10zM320 -44q-14 -14 -33 -14t-32.5 14t-13.5 33t13.5 32.5t32.5 13.5t33 -13.5t14 -32.5t-14 -33zM430 -44q-14 -14 -33 -14t-32.5 14t-13.5 33t13.5 32.5t32.5 13.5t33 -13.5
t14 -32.5t-14 -33zM312 -147.5q-13 13.5 -13 31.5t13 31t31 13t31.5 -13t13.5 -31q0 -19 -13 -32t-32 -13q-18 0 -31 13.5z" />
    <glyph glyph-name="uniFB7C" unicode="&#x686;" horiz-adv-x="669" arabic-form="initial" 
d="M660 225q0 -20 -11 -32t-33 -20q-70 -26 -143 -56q-23 -9 -65 -25.5t-76 -28.5q-95 -34 -170.5 -48.5t-160.5 -14.5l-18 3v92l18 3q93 0 166 11t156 37q21 6 105 35l43.5 14.5l46.5 15.5q-61 23 -117 48q-64 28 -104 40.5t-86 12.5q-44 0 -94 -22q-12 -5 -21 -5
q-21 0 -31 19q-5 10 -5 19q0 22 25 41q20 15 54.5 27.5t74.5 12.5q52 0 92.5 -13t100.5 -42q56 -28 104 -46.5t112 -32.5q37 -9 37 -45zM297.5 -103q-13.5 14 -13.5 33t13.5 32.5t32.5 13.5t33 -13.5t14 -32.5t-14 -33t-33 -14t-32.5 14zM407.5 -103q-13.5 14 -13.5 33
t13.5 32.5t32.5 13.5t33 -13.5t14 -32.5t-14 -33t-33 -14t-32.5 14zM355 -206.5q-13 13.5 -13 31.5t13 31t31 13t31.5 -13t13.5 -31q0 -19 -13 -32t-32 -13q-18 0 -31 13.5z" />
    <glyph glyph-name="uniFB7D" unicode="&#x686;" horiz-adv-x="725" arabic-form="medial" 
d="M742 95v-92l-17 -3q-67 0 -106 14t-58 44.5t-26 83.5l-70 -28q-20 -8 -59.5 -23.5t-73.5 -27.5q-95 -34 -170.5 -48.5t-160.5 -14.5l-18 3v92l18 3q93 0 166 11t156 37q21 6 105 35l43.5 14.5l46.5 15.5q-61 23 -117 48q-64 28 -104 40.5t-86 12.5q-44 0 -94 -22
q-12 -5 -21 -5q-21 0 -31 19q-5 10 -5 19q0 22 25 41q20 15 54.5 27.5t74.5 12.5q52 0 92.5 -13t100.5 -42q56 -28 104 -46.5t112 -32.5q37 -9 37 -45q0 -20 -11 -32t-33 -20l-25 -9q10 -38 39.5 -52t94.5 -14zM363 -103q-14 -14 -33 -14t-32.5 14t-13.5 33t13.5 32.5
t32.5 13.5t33 -13.5t14 -32.5t-14 -33zM473 -37.5q14 -13.5 14 -32.5t-14 -33t-33 -14t-32.5 14t-13.5 33t13.5 32.5t32.5 13.5t33 -13.5zM417.5 -144q13.5 -13 13.5 -31q0 -19 -13 -32t-32 -13q-18 0 -31 13.5t-13 31.5t13 31t31 13t31.5 -13z" />
    <glyph glyph-name="uniFB8B" unicode="&#x698;" horiz-adv-x="378" arabic-form="final" 
d="M395 95v-92l-17 -3q-78 0 -118 40q-7 -80 -37 -143.5t-78.5 -99.5t-107.5 -36q-52 0 -79 15q-13 7 -20.5 18.5t-7.5 25.5q0 7 3 16q10 28 39 28q8 0 12 -1q24 -4 46 -4q45 0 80.5 27.5t55.5 78.5t20 118q0 63 -11 147q-2 23 6.5 37.5t30.5 14.5q29 0 36 -39q7 -45 10 -77
q7 -31 35.5 -49.5t84.5 -18.5zM240 551q13 -13 13 -32q0 -18 -13.5 -31t-31.5 -13t-31 13t-13 31t13 31.5t31 13.5q19 0 32 -13zM185 447q14 -14 14 -33t-14 -32.5t-33 -13.5t-32.5 13.5t-13.5 32.5t13.5 33t32.5 14t33 -14zM295 447q14 -14 14 -33t-14 -32.5t-33 -13.5
t-32.5 13.5t-13.5 32.5t13.5 33t32.5 14t33 -14z" />
    <glyph glyph-name="uniFB8F" unicode="&#x6a9;" horiz-adv-x="868" arabic-form="final" 
d="M885 95v-92l-17 -3q-75 0 -123 25.5t-105 93.5q-11 -59 -53.5 -89t-129.5 -30h-122q-117 0 -182.5 19.5t-94 63.5t-28.5 122q0 28 8 55q12 40 42 40q15 0 22.5 -10t7.5 -24q0 -8 -1 -12q-6 -30 -6 -48q0 -44 20.5 -67t72 -32t151.5 -9h108q76 0 105 14t33 47
q-61 84 -181 237q-25 32 -25 64q0 23 13 36.5t43 32.5l319 195q19 11 33 11q21 0 33 -21q5 -10 5 -20q0 -26 -30 -44l-328 -198l25 -33q84 -111 134 -171q54 -66 86 -96t64.5 -42t83.5 -12z" />
    <glyph glyph-name="uniFB90" unicode="&#x6a9;" horiz-adv-x="428" arabic-form="initial" 
d="M452 694q0 -23 -30 -43l-309 -199q141 -63 204 -123t63 -143q0 -91 -59 -138.5t-164 -47.5h-156l-18 3v92l18 3h155q62 0 108 16t46 58q0 37 -18 65t-66 58.5t-140 70.5q-40 16 -54.5 36t-14.5 45q0 35 36 60l328 215q18 12 33 12q23 0 33 -21q5 -10 5 -19z" />
    <glyph glyph-name="uniFB91" unicode="&#x6a9;" horiz-adv-x="533" arabic-form="medial" 
d="M550 95v-92l-17 -3q-75 0 -123 25.5t-105 93.5q-11 -59 -53.5 -89t-129.5 -30h-121l-18 3v92l18 3h119q76 0 105 14t33 47q-37 50 -116 153l-65 84q-25 32 -25 64q0 23 13 36.5t43 32.5l319 195q19 11 33 11q21 0 33 -21q5 -10 5 -20q0 -26 -30 -44l-327 -198l158 -204
q54 -66 86 -96t64.5 -42t83.5 -12z" />
    <glyph glyph-name="uniFB93" unicode="&#x6af;" horiz-adv-x="868" arabic-form="final" 
d="M885 95v-92l-17 -3q-75 0 -123 25.5t-105 93.5q-11 -59 -53.5 -89t-129.5 -30h-122q-117 0 -182.5 19.5t-94 63.5t-28.5 122q0 28 8 55q12 40 42 40q15 0 22.5 -10t7.5 -24q0 -8 -1 -12q-6 -30 -6 -48q0 -44 20.5 -67t72 -32t151.5 -9h108q76 0 105 14t33 47
q-61 84 -181 237q-25 32 -25 64q0 23 13 36.5t43 32.5l319 195q19 11 33 11q21 0 33 -21q5 -10 5 -20q0 -26 -30 -44l-328 -198l25 -33q84 -111 134 -171q54 -66 86 -96t64.5 -42t83.5 -12zM342 624q-6 -7 -6 -19q0 -10 7 -17t19 -7t23 7l323 192q25 14 25 32q0 4 -4 14
q-7 13 -21 13q-11 0 -25 -8l-319 -190q-16 -10 -22 -17z" />
    <glyph glyph-name="uniFB94" unicode="&#x6af;" horiz-adv-x="428" arabic-form="initial" 
d="M452 694q0 -23 -30 -43l-309 -199q141 -63 204 -123t63 -143q0 -91 -59 -138.5t-164 -47.5h-156l-18 3v92l18 3h155q62 0 108 16t46 58q0 37 -18 65t-66 58.5t-140 70.5q-40 16 -54.5 36t-14.5 45q0 35 36 60l328 215q18 12 33 12q23 0 33 -21q5 -10 5 -19zM-44 602
q-6 -7 -6 -20q0 -9 6.5 -15.5t17.5 -6.5q13 0 25 8l317 202q15 10 21 17.5t6 20.5q0 10 -6.5 16t-16.5 6q-11 0 -26 -9l-317 -202q-15 -10 -21 -17z" />
    <glyph glyph-name="uniFB95" unicode="&#x6af;" horiz-adv-x="533" arabic-form="medial" 
d="M550 95v-92l-17 -3q-75 0 -123 25.5t-105 93.5q-11 -59 -53.5 -89t-129.5 -30h-121l-18 3v92l18 3h119q76 0 105 14t33 47q-37 50 -116 153l-65 84q-25 32 -25 64q0 23 13 36.5t43 32.5l319 195q19 11 33 11q21 0 33 -21q5 -10 5 -20q0 -26 -30 -44l-327 -198l158 -204
q54 -66 86 -96t64.5 -42t83.5 -12zM36 626q-6 -7 -6 -19q0 -10 7 -17t19 -7t23 7l323 192q25 14 25 32q0 4 -4 14q-7 13 -21 13q-11 0 -25 -8l-319 -190q-16 -10 -22 -17z" />
    <glyph glyph-name="uniFB9F" unicode="&#x6ba;" horiz-adv-x="744" arabic-form="final" 
d="M761 95v-92l-17 -3q-81 0 -115 41q-5 -132 -79.5 -198.5t-227.5 -66.5q-154 0 -223 67.5t-69 213.5q0 95 31 168q6 14 16.5 21.5t22.5 7.5q7 0 14 -3q22 -9 22 -31q0 -7 -4 -21q-22 -68 -22 -142q0 -69 21 -108.5t69 -57t131 -17.5q81 0 128.5 19t68.5 59t21 105
q0 89 -9 180q-2 20 7.5 31.5t29.5 11.5q39 0 43 -39q2 -15 4 -52q5 -41 13 -59t31 -25t76 -7z" />
    <glyph glyph-name="uniFBE8" unicode="&#x649;" horiz-adv-x="257" arabic-form="initial" 
d="M-17 3v92l17 3q72 0 101.5 33t29.5 108q0 44 -9 102q-3 20 8.5 32t28.5 12q15 0 25.5 -9.5t13.5 -27.5q9 -55 9 -109q0 -118 -53.5 -178.5t-153.5 -60.5z" />
    <glyph glyph-name="uniFBE9" unicode="&#x649;" horiz-adv-x="345" arabic-form="medial" 
d="M362 95v-92l-17 -3q-76 0 -119 21t-56 64q-25 -85 -170 -85l-17 3v92l17 3q53 0 81.5 10.5t41.5 38.5t13 81v61q0 18 10 29.5t27 11.5t26.5 -11.5t9.5 -29.5v-61q0 -53 13 -81t41.5 -38.5t81.5 -10.5z" />
    <glyph glyph-name="uniFBFD" unicode="&#x6cc;" horiz-adv-x="702" arabic-form="final" 
d="M719 95v-92l-17 -3h-65q19 -29 19 -67q0 -64 -38 -113t-109.5 -76t-170.5 -27q-158 0 -233 66.5t-75 208.5q0 88 38 160q7 13 18 21t23 8q7 0 13 -3q22 -9 22 -33q0 -9 -5 -22q-29 -67 -29 -131q0 -67 22.5 -105t73.5 -55t140 -17q113 0 176.5 31t63.5 87
q0 36 -28.5 54.5t-87.5 23.5q-21 2 -34 14.5t-13 31.5q0 23 13.5 36t36.5 12q84 -7 193 -7h36z" />
    <glyph glyph-name="uniFBFE" unicode="&#x6cc;" horiz-adv-x="257" arabic-form="initial" 
d="M-17 3v92l17 3q72 0 101.5 33t29.5 108q0 44 -9 102q-3 20 8.5 32t28.5 12q15 0 25.5 -9.5t13.5 -27.5q9 -55 9 -109q0 -118 -53.5 -178.5t-153.5 -60.5zM-9 -147.5q-13 13.5 -13 31.5q0 17 13 30t31 13t31.5 -13t13.5 -30q0 -18 -13 -31.5t-32 -13.5q-18 0 -31 13.5z
M95.5 -147.5q-12.5 13.5 -12.5 31.5q0 17 13 30t30 13q18 0 31.5 -13t13.5 -30q0 -18 -13 -31.5t-32 -13.5q-18 0 -30.5 13.5z" />
    <glyph glyph-name="uniFBFF" unicode="&#x6cc;" horiz-adv-x="345" arabic-form="medial" 
d="M362 95v-92l-17 -3q-76 0 -119 21t-56 64q-25 -85 -170 -85l-17 3v92l17 3q53 0 81.5 10.5t41.5 38.5t13 81v61q0 18 10 29.5t27 11.5t26.5 -11.5t9.5 -29.5v-61q0 -53 13 -81t41.5 -38.5t81.5 -10.5zM84.5 -154q-13.5 14 -13.5 33t13.5 32.5t32.5 13.5t33 -13.5
t14 -32.5t-14 -33t-33 -14t-32.5 14zM194.5 -154q-13.5 14 -13.5 33t13.5 32.5t32.5 13.5t33 -13.5t14 -32.5t-14 -33t-33 -14t-32.5 14z" />
    <glyph glyph-name="uniFE82" unicode="&#x622;" horiz-adv-x="298" arabic-form="final" 
d="M163 248q0 -62 11.5 -93.5t40 -44t83.5 -12.5l17 -3v-92l-17 -3q-82 0 -129 23.5t-68 77t-21 146.5v402q0 17 12 28.5t29 11.5t29.5 -11.5t12.5 -28.5v-401zM52.5 781.5q-10.5 -3.5 -14.5 -4.5t-10 -1q-15 0 -22 9t-7 22q0 21 25 33q22 10 49 10q17 0 43 -6q4 -1 19.5 -4
t32.5 -3q12 0 21.5 2t11.5 3q4 1 11 1q15 0 22.5 -8.5t7.5 -21.5q0 -11 -6.5 -20.5t-18.5 -14.5q-17 -8 -49 -8q-24 0 -54 8q-25 7 -41 7q-10 0 -20.5 -3.5z" />
    <glyph glyph-name="uniFE84" unicode="&#x623;" horiz-adv-x="298" arabic-form="final" 
d="M163 248q0 -62 11.5 -93.5t40 -44t83.5 -12.5l17 -3v-92l-17 -3q-82 0 -129 23.5t-68 77t-21 146.5v402q0 17 12 28.5t29 11.5t29.5 -11.5t12.5 -28.5v-401zM203 825q9 -8 9 -22q0 -24 -22 -28q-29 -5 -122 -14l-21 -2q-16 -1 -26 7t-10 22q0 27 29 30l9 1q-19 17 -19 43
q0 42 27 65.5t67 23.5q20 0 38 -8q25 -12 25 -33q0 -27 -26 -27q-6 0 -9 1q-15 3 -28 3q-22 0 -33.5 -6t-11.5 -24t7.5 -24t29.5 -6q20 0 63 5q15 1 24 -7z" />
    <glyph glyph-name="uniFE86" unicode="&#x624;" horiz-adv-x="486" arabic-form="final" 
d="M503 92v-89l-17 -3h-79q-20 -112 -84 -175.5t-163 -63.5q-60 0 -100 18q-17 8 -27.5 21t-10.5 29q0 19 12 31.5t29 12.5q5 0 13 -2q40 -12 75 -12q78 0 126.5 34t63.5 111h-122q-81 0 -119.5 39.5t-38.5 116.5q0 58 23 104t64 72t93 26q86 0 129.5 -69.5t43.5 -173.5v-21
h72zM153.5 109q22.5 -16 76.5 -16h118v30q0 50 -25.5 95.5t-85.5 45.5q-47 0 -76.5 -28t-29.5 -72q0 -39 22.5 -55zM323 498q9 -8 9 -22q0 -24 -22 -28q-29 -5 -122 -14l-21 -2q-16 -1 -26 7t-10 22q0 27 29 30l9 1q-19 17 -19 43q0 42 27 65.5t67 23.5q20 0 38 -8
q25 -12 25 -33q0 -27 -26 -27q-6 0 -9 1q-15 3 -28 3q-22 0 -33.5 -6t-11.5 -24t7.5 -24t29.5 -6q20 0 63 5q15 1 24 -7z" />
    <glyph glyph-name="uniFE88" unicode="&#x625;" horiz-adv-x="298" arabic-form="final" 
d="M163 248q0 -62 11.5 -93.5t40 -44t83.5 -12.5l17 -3v-92l-17 -3q-82 0 -129 23.5t-68 77t-21 146.5v447q0 17 12 28.5t29 11.5t29.5 -11.5t12.5 -28.5v-446zM232 -167q9 -8 9 -22q0 -24 -22 -28q-29 -5 -122 -14l-21 -2q-16 -1 -26 7t-10 22q0 27 29 30l9 1
q-19 17 -19 43q0 42 27 65.5t67 23.5q20 0 38 -8q25 -12 25 -33q0 -27 -26 -27q-6 0 -9 1q-15 3 -28 3q-22 0 -33.5 -6t-11.5 -24t7.5 -24t29.5 -6q21 0 63 5q15 1 24 -7z" />
    <glyph glyph-name="uniFE8A" unicode="&#x626;" horiz-adv-x="702" arabic-form="final" 
d="M719 95v-92l-17 -3h-65q19 -29 19 -67q0 -64 -38 -113t-109.5 -76t-170.5 -27q-158 0 -233 66.5t-75 208.5q0 88 38 160q7 13 18 21t23 8q7 0 13 -3q22 -9 22 -33q0 -9 -5 -22q-29 -67 -29 -131q0 -67 22.5 -105t73.5 -55t140 -17q113 0 176.5 31t63.5 87
q0 36 -28.5 54.5t-87.5 23.5q-21 2 -34 14.5t-13 31.5q0 23 13.5 36t36.5 12q84 -7 193 -7h36zM188 308q9 -8 9 -22q0 -24 -22 -28q-29 -5 -122 -14l-21 -2q-16 -1 -26 7t-10 22q0 27 29 30l9 1q-19 17 -19 43q0 42 27 65.5t67 23.5q20 0 38 -8q25 -12 25 -33q0 -27 -26 -27
q-6 0 -9 1q-15 3 -28 3q-22 0 -33.5 -6t-11.5 -24t7.5 -24t29.5 -6q20 0 63 5q15 1 24 -7z" />
    <glyph glyph-name="uniFE8B" unicode="&#x626;" horiz-adv-x="257" arabic-form="initial" 
d="M-17 3v92l17 3q72 0 101.5 33t29.5 108q0 44 -9 102q-3 20 8.5 32t28.5 12q15 0 25.5 -9.5t13.5 -27.5q9 -55 9 -109q0 -118 -53.5 -178.5t-153.5 -60.5zM235 521q9 -8 9 -22q0 -24 -22 -28q-29 -5 -122 -14l-21 -2q-16 -1 -26 7t-10 22q0 27 29 30l9 1q-19 17 -19 43
q0 42 27 65.5t67 23.5q20 0 38 -8q25 -12 25 -33q0 -27 -26 -27q-6 0 -9 1q-15 3 -28 3q-22 0 -33.5 -6t-11.5 -24t7.5 -24t29.5 -6q20 0 63 5q15 1 24 -7z" />
    <glyph glyph-name="uniFE8C" unicode="&#x626;" horiz-adv-x="345" arabic-form="medial" 
d="M362 95v-92l-17 -3q-76 0 -119 21t-56 64q-25 -85 -170 -85l-17 3v92l17 3q53 0 81.5 10.5t41.5 38.5t13 81v61q0 18 10 29.5t27 11.5t26.5 -11.5t9.5 -29.5v-61q0 -53 13 -81t41.5 -38.5t81.5 -10.5zM255 466q9 -8 9 -22q0 -24 -22 -28q-29 -5 -122 -14l-21 -2
q-16 -1 -26 7t-10 22q0 27 29 30l9 1q-19 17 -19 43q0 42 27 65.5t67 23.5q20 0 38 -8q25 -12 25 -33q0 -27 -26 -27q-6 0 -9 1q-15 3 -28 3q-22 0 -33.5 -6t-11.5 -24t7.5 -24t29.5 -6q20 0 63 5q15 1 24 -7z" />
    <glyph glyph-name="uniFE8E" unicode="&#x627;" horiz-adv-x="298" arabic-form="final" 
d="M163 248q0 -62 11.5 -93.5t40 -44t83.5 -12.5l17 -3v-92l-17 -3q-82 0 -129 23.5t-68 77t-21 146.5v447q0 17 12 28.5t29 11.5t29.5 -11.5t12.5 -28.5v-446z" />
    <glyph glyph-name="uniFE90" unicode="&#x628;" horiz-adv-x="928" arabic-form="final" 
d="M945 95v-92l-17 -3q-76 0 -118.5 25.5t-55.5 77.5q-35 -55 -116.5 -79t-225.5 -24t-226.5 22.5t-119 72.5t-36.5 138q0 55 12 94q5 16 15.5 26.5t24.5 10.5q15 0 23.5 -10t8.5 -25q0 -4 -2 -14q-9 -36 -9 -69q0 -61 26 -92t92 -43.5t194 -12.5q126 0 191 12t90.5 41.5
t25.5 87.5v50q0 18 10 29.5t27 11.5t26.5 -11.5t9.5 -29.5v-55q0 -56 12.5 -85t40.5 -40t80 -11zM376 -181q-15 15 -15 36t15 36t36 15t36 -15t15 -36t-15 -36t-36 -16q-21 1 -36 16z" />
    <glyph glyph-name="uniFE91" unicode="&#x628;" horiz-adv-x="257" arabic-form="initial" 
d="M-17 3v92l17 3q72 0 101.5 33t29.5 108q0 44 -9 102q-3 20 8.5 32t28.5 12q15 0 25.5 -9.5t13.5 -27.5q9 -55 9 -109q0 -118 -53.5 -178.5t-153.5 -60.5zM39 -182q-15 15 -15 36t15 36t36 15t36 -15t15 -36t-15 -36t-36 -16q-21 1 -36 16z" />
    <glyph glyph-name="uniFE92" unicode="&#x628;" horiz-adv-x="345" arabic-form="medial" 
d="M362 95v-92l-17 -3q-76 0 -119 21t-56 64q-25 -85 -170 -85l-17 3v92l17 3q53 0 81.5 10.5t41.5 38.5t13 81v61q0 18 10 29.5t27 11.5t26.5 -11.5t9.5 -29.5v-61q0 -53 13 -81t41.5 -38.5t81.5 -10.5zM137 -181q-15 15 -15 36t15 36t36 15t36 -15t15 -36t-15 -36t-36 -16
q-21 1 -36 16z" />
    <glyph glyph-name="uniFE94" unicode="&#x629;" horiz-adv-x="507" arabic-form="final" 
d="M524 95v-92l-17 -3q-89 1 -136.5 42t-59.5 120q-25 -69 -128 -69q-153 0 -153 155q0 52 26.5 91t86.5 71t163 62v27q0 20 10.5 30.5t29.5 10.5t29.5 -10.5t10.5 -30.5v-251q0 -62 10 -93.5t35.5 -44t75.5 -12.5zM306 224v7v154q-114 -34 -160 -62.5t-46 -65.5
q0 -34 24.5 -50t76.5 -16q85 0 105 33zM115.5 628q-13.5 14 -13.5 33t13.5 32.5t32.5 13.5t33 -13.5t14 -32.5t-14 -33t-33 -14t-32.5 14zM225.5 628q-13.5 14 -13.5 33t13.5 32.5t32.5 13.5t33 -13.5t14 -32.5t-14 -33t-33 -14t-32.5 14z" />
    <glyph glyph-name="uniFE96" unicode="&#x62a;" horiz-adv-x="928" arabic-form="final" 
d="M945 95v-92l-17 -3q-76 0 -118.5 25.5t-55.5 77.5q-35 -55 -116.5 -79t-225.5 -24t-226.5 22.5t-119 72.5t-36.5 138q0 55 12 94q5 16 15.5 26.5t24.5 10.5q15 0 23.5 -10t8.5 -25q0 -4 -2 -14q-9 -36 -9 -69q0 -61 26 -92t92 -43.5t194 -12.5q126 0 191 12t90.5 41.5
t25.5 87.5v50q0 18 10 29.5t27 11.5t26.5 -11.5t9.5 -29.5v-55q0 -56 12.5 -85t40.5 -40t80 -11zM329.5 394q-13.5 14 -13.5 33t13.5 32.5t32.5 13.5t33 -13.5t14 -32.5t-14 -33t-33 -14t-32.5 14zM439.5 394q-13.5 14 -13.5 33t13.5 32.5t32.5 13.5t33 -13.5t14 -32.5
t-14 -33t-33 -14t-32.5 14z" />
    <glyph glyph-name="uniFE97" unicode="&#x62a;" horiz-adv-x="257" arabic-form="initial" 
d="M-17 3v92l17 3q72 0 101.5 33t29.5 108q0 44 -9 102q-3 20 8.5 32t28.5 12q15 0 25.5 -9.5t13.5 -27.5q9 -55 9 -109q0 -118 -53.5 -178.5t-153.5 -60.5zM63.5 488q-13.5 14 -13.5 33t13.5 32.5t32.5 13.5t33 -13.5t14 -32.5t-14 -33t-33 -14t-32.5 14zM173.5 488
q-13.5 14 -13.5 33t13.5 32.5t32.5 13.5t33 -13.5t14 -32.5t-14 -33t-33 -14t-32.5 14z" />
    <glyph glyph-name="uniFE98" unicode="&#x62a;" horiz-adv-x="345" arabic-form="medial" 
d="M362 95v-92l-17 -3q-76 0 -119 21t-56 64q-25 -85 -170 -85l-17 3v92l17 3q53 0 81.5 10.5t41.5 38.5t13 81v61q0 18 10 29.5t27 11.5t26.5 -11.5t9.5 -29.5v-61q0 -53 13 -81t41.5 -38.5t81.5 -10.5zM83.5 433q-13.5 14 -13.5 33t13.5 32.5t32.5 13.5t33 -13.5t14 -32.5
t-14 -33t-33 -14t-32.5 14zM193.5 433q-13.5 14 -13.5 33t13.5 32.5t32.5 13.5t33 -13.5t14 -32.5t-14 -33t-33 -14t-32.5 14z" />
    <glyph glyph-name="uniFE9A" unicode="&#x62b;" horiz-adv-x="928" arabic-form="final" 
d="M945 95v-92l-17 -3q-76 0 -118.5 25.5t-55.5 77.5q-35 -55 -116.5 -79t-225.5 -24t-226.5 22.5t-119 72.5t-36.5 138q0 55 12 94q5 16 15.5 26.5t24.5 10.5q15 0 23.5 -10t8.5 -25q0 -4 -2 -14q-9 -36 -9 -69q0 -61 26 -92t92 -43.5t194 -12.5q126 0 191 12t90.5 41.5
t25.5 87.5v50q0 18 10 29.5t27 11.5t26.5 -11.5t9.5 -29.5v-55q0 -56 12.5 -85t40.5 -40t80 -11zM450 562q13 -13 13 -32q0 -18 -13.5 -31t-31.5 -13t-31 13t-13 31t13 31.5t31 13.5q19 0 32 -13zM395 458q14 -14 14 -33t-14 -32.5t-33 -13.5t-32.5 13.5t-13.5 32.5t13.5 33
t32.5 14t33 -14zM505 458q14 -14 14 -33t-14 -32.5t-33 -13.5t-32.5 13.5t-13.5 32.5t13.5 33t32.5 14t33 -14z" />
    <glyph glyph-name="uniFE9B" unicode="&#x62b;" horiz-adv-x="257" arabic-form="initial" 
d="M-17 3v92l17 3q72 0 101.5 33t29.5 108q0 44 -9 102q-3 20 8.5 32t28.5 12q15 0 25.5 -9.5t13.5 -27.5q9 -55 9 -109q0 -118 -53.5 -178.5t-153.5 -60.5zM184 656q13 -13 13 -32q0 -18 -13.5 -31t-31.5 -13t-31 13t-13 31t13 31.5t31 13.5q19 0 32 -13zM129 552
q14 -14 14 -33t-14 -32.5t-33 -13.5t-32.5 13.5t-13.5 32.5t13.5 33t32.5 14t33 -14zM239 552q14 -14 14 -33t-14 -32.5t-33 -13.5t-32.5 13.5t-13.5 32.5t13.5 33t32.5 14t33 -14z" />
    <glyph glyph-name="uniFE9C" unicode="&#x62b;" horiz-adv-x="345" arabic-form="medial" 
d="M362 95v-92l-17 -3q-76 0 -119 21t-56 64q-25 -85 -170 -85l-17 3v92l17 3q53 0 81.5 10.5t41.5 38.5t13 81v61q0 18 10 29.5t27 11.5t26.5 -11.5t9.5 -29.5v-61q0 -53 13 -81t41.5 -38.5t81.5 -10.5zM204 601q13 -13 13 -32q0 -18 -13.5 -31t-31.5 -13t-31 13t-13 31
t13 31.5t31 13.5q19 0 32 -13zM149 497q14 -14 14 -33t-14 -32.5t-33 -13.5t-32.5 13.5t-13.5 32.5t13.5 33t32.5 14t33 -14zM259 497q14 -14 14 -33t-14 -32.5t-33 -13.5t-32.5 13.5t-13.5 32.5t13.5 33t32.5 14t33 -14z" />
    <glyph glyph-name="uniFE9E" unicode="&#x62c;" horiz-adv-x="685" arabic-form="final" 
d="M702 95v-92l-17 -3q-77 0 -118 19.5t-57.5 61.5t-18.5 118q-154 -52 -234 -88.5t-118 -80t-38 -108.5q0 -91 56.5 -133.5t176.5 -42.5q121 0 239 37q8 3 16 3q14 0 24 -8t14 -22q2 -5 2 -14q0 -14 -8.5 -25.5t-22.5 -18.5q-31 -15 -98.5 -32.5t-176.5 -17.5
q-146 0 -219.5 69.5t-73.5 198.5v9q0 89 48 150.5t147 108t269 94.5q-15 5 -29.5 9t-26.5 8q-80 26 -135.5 40t-100.5 14q-46 0 -94 -25q-10 -5 -19 -5q-10 0 -19 5.5t-14 15.5q-5 9 -5 21q0 11 5 21.5t14 17.5q53 42 136 42q45 0 86.5 -12t106.5 -37q55 -22 93.5 -34.5
t82.5 -19.5q23 -4 34.5 -18t11.5 -34q0 -24 -12 -38t-45 -25l-19 -6q2 -50 14 -75t41 -35t85 -10zM313 0q15 15 36 15t36 -15t15 -36t-15 -36t-36 -15t-36 15t-15 36t15 36z" />
    <glyph glyph-name="uniFE9F" unicode="&#x62c;" horiz-adv-x="669" arabic-form="initial" 
d="M660 225q0 -20 -11 -32t-33 -20q-70 -26 -143 -56q-23 -9 -65 -25.5t-76 -28.5q-95 -34 -170.5 -48.5t-160.5 -14.5l-18 3v92l18 3q93 0 166 11t156 37q21 6 105 35l43.5 14.5l46.5 15.5q-61 23 -117 48q-64 28 -104 40.5t-86 12.5q-44 0 -94 -22q-12 -5 -21 -5
q-21 0 -31 19q-5 10 -5 19q0 22 25 41q20 15 54.5 27.5t74.5 12.5q52 0 92.5 -13t100.5 -42q56 -28 104 -46.5t112 -32.5q37 -9 37 -45zM349 -116q-15 15 -15 36t15 36t36 15t36 -15t15 -36t-15 -36t-36 -16q-21 1 -36 16z" />
    <glyph glyph-name="uniFEA0" unicode="&#x62c;" horiz-adv-x="725" arabic-form="medial" 
d="M742 95v-92l-17 -3q-67 0 -106 14t-58 44.5t-26 83.5l-70 -28q-20 -8 -59.5 -23.5t-73.5 -27.5q-95 -34 -170.5 -48.5t-160.5 -14.5l-18 3v92l18 3q93 0 166 11t156 37q21 6 105 35l43.5 14.5l46.5 15.5q-61 23 -117 48q-64 28 -104 40.5t-86 12.5q-44 0 -94 -22
q-12 -5 -21 -5q-21 0 -31 19q-5 10 -5 19q0 22 25 41q20 15 54.5 27.5t74.5 12.5q52 0 92.5 -13t100.5 -42q56 -28 104 -46.5t112 -32.5q37 -9 37 -45q0 -20 -11 -32t-33 -20l-25 -9q10 -38 39.5 -52t94.5 -14zM421 -44q15 -15 15 -36t-15 -36t-36 -16q-21 1 -36 16t-15 36
t15 36t36 15t36 -15z" />
    <glyph glyph-name="uniFEA2" unicode="&#x62d;" horiz-adv-x="685" arabic-form="final" 
d="M702 95v-92l-17 -3q-77 0 -118 19.5t-57.5 61.5t-18.5 118q-154 -52 -234 -88.5t-118 -80t-38 -108.5q0 -91 56.5 -133.5t176.5 -42.5q121 0 239 37q8 3 16 3q14 0 24 -8t14 -22q2 -5 2 -14q0 -14 -8.5 -25.5t-22.5 -18.5q-31 -15 -98.5 -32.5t-176.5 -17.5
q-146 0 -219.5 69.5t-73.5 198.5v9q0 89 48 150.5t147 108t269 94.5q-15 5 -29.5 9t-26.5 8q-80 26 -135.5 40t-100.5 14q-46 0 -94 -25q-10 -5 -19 -5q-10 0 -19 5.5t-14 15.5q-5 9 -5 21q0 11 5 21.5t14 17.5q53 42 136 42q45 0 86.5 -12t106.5 -37q55 -22 93.5 -34.5
t82.5 -19.5q23 -4 34.5 -18t11.5 -34q0 -24 -12 -38t-45 -25l-19 -6q2 -50 14 -75t41 -35t85 -10z" />
    <glyph glyph-name="uniFEA3" unicode="&#x62d;" horiz-adv-x="669" arabic-form="initial" 
d="M660 225q0 -20 -11 -32t-33 -20q-70 -26 -143 -56q-23 -9 -65 -25.5t-76 -28.5q-95 -34 -170.5 -48.5t-160.5 -14.5l-18 3v92l18 3q93 0 166 11t156 37q21 6 105 35l43.5 14.5l46.5 15.5q-61 23 -117 48q-64 28 -104 40.5t-86 12.5q-44 0 -94 -22q-12 -5 -21 -5
q-21 0 -31 19q-5 10 -5 19q0 22 25 41q20 15 54.5 27.5t74.5 12.5q52 0 92.5 -13t100.5 -42q56 -28 104 -46.5t112 -32.5q37 -9 37 -45z" />
    <glyph glyph-name="uniFEA4" unicode="&#x62d;" horiz-adv-x="725" arabic-form="medial" 
d="M742 95v-92l-17 -3q-67 0 -106 14t-58 44.5t-26 83.5l-70 -28q-20 -8 -59.5 -23.5t-73.5 -27.5q-95 -34 -170.5 -48.5t-160.5 -14.5l-18 3v92l18 3q93 0 166 11t156 37q21 6 105 35l43.5 14.5l46.5 15.5q-61 23 -117 48q-64 28 -104 40.5t-86 12.5q-44 0 -94 -22
q-12 -5 -21 -5q-21 0 -31 19q-5 10 -5 19q0 22 25 41q20 15 54.5 27.5t74.5 12.5q52 0 92.5 -13t100.5 -42q56 -28 104 -46.5t112 -32.5q37 -9 37 -45q0 -20 -11 -32t-33 -20l-25 -9q10 -38 39.5 -52t94.5 -14z" />
    <glyph glyph-name="uniFEA6" unicode="&#x62e;" horiz-adv-x="685" arabic-form="final" 
d="M702 95v-92l-17 -3q-77 0 -118 19.5t-57.5 61.5t-18.5 118q-154 -52 -234 -88.5t-118 -80t-38 -108.5q0 -91 56.5 -133.5t176.5 -42.5q121 0 239 37q8 3 16 3q14 0 24 -8t14 -22q2 -5 2 -14q0 -14 -8.5 -25.5t-22.5 -18.5q-31 -15 -98.5 -32.5t-176.5 -17.5
q-146 0 -219.5 69.5t-73.5 198.5v9q0 89 48 150.5t147 108t269 94.5q-15 5 -29.5 9t-26.5 8q-80 26 -135.5 40t-100.5 14q-46 0 -94 -25q-10 -5 -19 -5q-10 0 -19 5.5t-14 15.5q-5 9 -5 21q0 11 5 21.5t14 17.5q53 42 136 42q45 0 86.5 -12t106.5 -37q55 -22 93.5 -34.5
t82.5 -19.5q23 -4 34.5 -18t11.5 -34q0 -24 -12 -38t-45 -25l-19 -6q2 -50 14 -75t41 -35t85 -10zM289 583q-15 15 -15 36t15 36t36 15t36 -15t15 -36t-15 -36t-36 -15t-36 15z" />
    <glyph glyph-name="uniFEA7" unicode="&#x62e;" horiz-adv-x="669" arabic-form="initial" 
d="M660 225q0 -20 -11 -32t-33 -20q-70 -26 -143 -56q-23 -9 -65 -25.5t-76 -28.5q-95 -34 -170.5 -48.5t-160.5 -14.5l-18 3v92l18 3q93 0 166 11t156 37q21 6 105 35l43.5 14.5l46.5 15.5q-61 23 -117 48q-64 28 -104 40.5t-86 12.5q-44 0 -94 -22q-12 -5 -21 -5
q-21 0 -31 19q-5 10 -5 19q0 22 25 41q20 15 54.5 27.5t74.5 12.5q52 0 92.5 -13t100.5 -42q56 -28 104 -46.5t112 -32.5q37 -9 37 -45zM289 516q-15 15 -15 36t15 36t36 15t36 -15t15 -36t-15 -36t-36 -15t-36 15z" />
    <glyph glyph-name="uniFEA8" unicode="&#x62e;" horiz-adv-x="725" arabic-form="medial" 
d="M742 95v-92l-17 -3q-67 0 -106 14t-58 44.5t-26 83.5l-70 -28q-20 -8 -59.5 -23.5t-73.5 -27.5q-95 -34 -170.5 -48.5t-160.5 -14.5l-18 3v92l18 3q93 0 166 11t156 37q21 6 105 35l43.5 14.5l46.5 15.5q-61 23 -117 48q-64 28 -104 40.5t-86 12.5q-44 0 -94 -22
q-12 -5 -21 -5q-21 0 -31 19q-5 10 -5 19q0 22 25 41q20 15 54.5 27.5t74.5 12.5q52 0 92.5 -13t100.5 -42q56 -28 104 -46.5t112 -32.5q37 -9 37 -45q0 -20 -11 -32t-33 -20l-25 -9q10 -38 39.5 -52t94.5 -14zM289 516q-15 15 -15 36t15 36t36 15t36 -15t15 -36t-15 -36
t-36 -15t-36 15z" />
    <glyph glyph-name="uniFEAA" unicode="&#x62f;" horiz-adv-x="559" arabic-form="final" 
d="M576 95v-92l-17 -3q-72 0 -111.5 19.5t-66.5 67.5q-19 -45 -63.5 -68t-122.5 -23q-46 0 -85.5 7t-60.5 17q-14 7 -21.5 19t-7.5 26q0 9 3 18q10 29 42 29q5 0 15 -2q19 -5 55.5 -9.5t71.5 -4.5q123 0 144 59l-19 56l-79 235q-3 9 -3 16q0 17 11.5 29t31.5 12
q14 0 24.5 -9.5t14.5 -24.5l67 -202q26 -79 44 -112.5t42.5 -45t73.5 -11.5z" />
    <glyph glyph-name="uniFEAC" unicode="&#x630;" horiz-adv-x="559" arabic-form="final" 
d="M576 95v-92l-17 -3q-72 0 -111.5 19.5t-66.5 67.5q-19 -45 -63.5 -68t-122.5 -23q-46 0 -85.5 7t-60.5 17q-14 7 -21.5 19t-7.5 26q0 9 3 18q10 29 42 29q5 0 15 -2q19 -5 55.5 -9.5t71.5 -4.5q123 0 144 59l-19 56l-79 235q-3 9 -3 16q0 17 11.5 29t31.5 12
q14 0 24.5 -9.5t14.5 -24.5l67 -202q26 -79 44 -112.5t42.5 -45t73.5 -11.5zM249 616q-15 15 -15 36t15 36t36 15t36 -15t15 -36t-15 -36t-36 -15t-36 15z" />
    <glyph glyph-name="uniFEAE" unicode="&#x631;" horiz-adv-x="378" arabic-form="final" 
d="M395 95v-92l-17 -3q-78 0 -118 40q-7 -80 -37 -143.5t-78.5 -99.5t-107.5 -36q-52 0 -79 15q-13 7 -20.5 18.5t-7.5 25.5q0 7 3 16q10 28 39 28q8 0 12 -1q24 -4 46 -4q45 0 80.5 27.5t55.5 78.5t20 118q0 63 -11 147q-2 23 6.5 37.5t30.5 14.5q29 0 36 -39q7 -45 10 -77
q7 -31 35.5 -49.5t84.5 -18.5z" />
    <glyph glyph-name="uniFEB0" unicode="&#x632;" horiz-adv-x="378" arabic-form="final" 
d="M395 95v-92l-17 -3q-78 0 -118 40q-7 -80 -37 -143.5t-78.5 -99.5t-107.5 -36q-52 0 -79 15q-13 7 -20.5 18.5t-7.5 25.5q0 7 3 16q10 28 39 28q8 0 12 -1q24 -4 46 -4q45 0 80.5 27.5t55.5 78.5t20 118q0 63 -11 147q-2 23 6.5 37.5t30.5 14.5q29 0 36 -39q7 -45 10 -77
q7 -31 35.5 -49.5t84.5 -18.5zM173 392q-15 15 -15 36t15 36t36 15t36 -15t15 -36t-15 -36t-36 -15t-36 15z" />
    <glyph glyph-name="uniFEB2" unicode="&#x633;" horiz-adv-x="1298" arabic-form="final" 
d="M1315 95v-92l-17 -3q-67 0 -108.5 16.5t-59.5 51.5q-15 -33 -48 -50.5t-80 -17.5q-53 0 -85 16t-45 50q-34 -66 -145 -66q-75 0 -99 27q-8 -125 -82.5 -188t-223.5 -63q-154 0 -223 67.5t-69 213.5q0 52 10.5 97t23.5 77q6 14 16.5 21.5t22.5 7.5q7 0 14 -3q22 -9 22 -31
q0 -7 -4 -21q-25 -77 -25 -148q0 -69 21 -108.5t69 -57t131 -17.5q118 0 168 42t50 135q0 46 -5.5 91t-17.5 114q-1 3 -1 9q0 17 10.5 29.5t28.5 12.5q16 0 26.5 -11t13.5 -29l17 -98q5 -29 15.5 -44t32.5 -21t63 -6q61 0 85.5 21.5t24.5 76.5v70q0 17 10.5 28.5t26.5 11.5
q15 0 26 -11.5t11 -28.5v-70q0 -55 19 -76.5t70 -21.5q49 0 68 21.5t19 74.5v72q0 17 10.5 28.5t26.5 11.5q15 0 26 -11.5t11 -28.5v-72q0 -52 28.5 -74t103.5 -22z" />
    <glyph glyph-name="uniFEB3" unicode="&#x633;" horiz-adv-x="799" arabic-form="initial" 
d="M749 194q0 -96 -43 -145t-120 -49q-53 0 -85.5 16t-45.5 50q-34 -66 -145 -66q-58 0 -92.5 16.5t-48.5 51.5q-17 -35 -58 -51.5t-110 -16.5l-18 3v92l18 3q57 0 86 8t40.5 28t11.5 60v72q0 17 10.5 28.5t26.5 11.5q15 0 26 -11.5t11 -28.5v-71q0 -54 22.5 -75.5
t79.5 -21.5q61 0 85.5 21.5t24.5 76.5v70q0 17 10.5 28.5t26.5 11.5q15 0 26 -11.5t11 -28.5v-70q0 -55 19 -76.5t70 -21.5q48 0 67 20t19 71q0 33 -14 98q-1 4 -1 11q0 16 9.5 27t26.5 11q27 0 38 -37q16 -52 16 -105z" />
    <glyph glyph-name="uniFEB4" unicode="&#x633;" horiz-adv-x="881" arabic-form="medial" 
d="M898 95v-92l-17 -3q-67 0 -108.5 16.5t-59.5 51.5q-15 -33 -48 -50.5t-80 -17.5q-53 0 -85 16t-45 50q-34 -66 -145 -66q-58 0 -92.5 16.5t-48.5 51.5q-17 -35 -58 -51.5t-110 -16.5l-18 3v92l18 3q57 0 86 8t40.5 28t11.5 60v72q0 17 10.5 28.5t26.5 11.5q15 0 26 -11.5
t11 -28.5v-71q0 -54 22.5 -75.5t79.5 -21.5q61 0 85.5 21.5t24.5 76.5v70q0 17 10.5 28.5t26.5 11.5q15 0 26 -11.5t11 -28.5v-70q0 -55 19 -76.5t70 -21.5q49 0 68 21.5t19 74.5v72q0 17 10.5 28.5t26.5 11.5q15 0 26 -11.5t11 -28.5v-72q0 -52 28.5 -74t103.5 -22z" />
    <glyph glyph-name="uniFEB6" unicode="&#x634;" horiz-adv-x="1298" arabic-form="final" 
d="M1315 95v-92l-17 -3q-67 0 -108.5 16.5t-59.5 51.5q-15 -33 -48 -50.5t-80 -17.5q-53 0 -85 16t-45 50q-34 -66 -145 -66q-75 0 -99 27q-8 -125 -82.5 -188t-223.5 -63q-154 0 -223 67.5t-69 213.5q0 52 10.5 97t23.5 77q6 14 16.5 21.5t22.5 7.5q7 0 14 -3q22 -9 22 -31
q0 -7 -4 -21q-25 -77 -25 -148q0 -69 21 -108.5t69 -57t131 -17.5q118 0 168 42t50 135q0 46 -5.5 91t-17.5 114q-1 3 -1 9q0 17 10.5 29.5t28.5 12.5q16 0 26.5 -11t13.5 -29l17 -98q5 -29 15.5 -44t32.5 -21t63 -6q61 0 85.5 21.5t24.5 76.5v70q0 17 10.5 28.5t26.5 11.5
q15 0 26 -11.5t11 -28.5v-70q0 -55 19 -76.5t70 -21.5q49 0 68 21.5t19 74.5v72q0 17 10.5 28.5t26.5 11.5q15 0 26 -11.5t11 -28.5v-72q0 -52 28.5 -74t103.5 -22zM910 577q13 -13 13 -32q0 -18 -13.5 -31t-31.5 -13t-31 13t-13 31t13 31.5t31 13.5q19 0 32 -13zM855 473
q14 -14 14 -33t-14 -32.5t-33 -13.5t-32.5 13.5t-13.5 32.5t13.5 33t32.5 14t33 -14zM965 473q14 -14 14 -33t-14 -32.5t-33 -13.5t-32.5 13.5t-13.5 32.5t13.5 33t32.5 14t33 -14z" />
    <glyph glyph-name="uniFEB7" unicode="&#x634;" horiz-adv-x="799" arabic-form="initial" 
d="M749 194q0 -96 -43 -145t-120 -49q-53 0 -85.5 16t-45.5 50q-34 -66 -145 -66q-58 0 -92.5 16.5t-48.5 51.5q-17 -35 -58 -51.5t-110 -16.5l-18 3v92l18 3q57 0 86 8t40.5 28t11.5 60v72q0 17 10.5 28.5t26.5 11.5q15 0 26 -11.5t11 -28.5v-71q0 -54 22.5 -75.5
t79.5 -21.5q61 0 85.5 21.5t24.5 76.5v70q0 17 10.5 28.5t26.5 11.5q15 0 26 -11.5t11 -28.5v-70q0 -55 19 -76.5t70 -21.5q48 0 67 20t19 71q0 33 -14 98q-1 4 -1 11q0 16 9.5 27t26.5 11q27 0 38 -37q16 -52 16 -105zM493 577q13 -13 13 -32q0 -18 -13.5 -31t-31.5 -13
t-31 13t-13 31t13 31.5t31 13.5q19 0 32 -13zM438 473q14 -14 14 -33t-14 -32.5t-33 -13.5t-32.5 13.5t-13.5 32.5t13.5 33t32.5 14t33 -14zM548 473q14 -14 14 -33t-14 -32.5t-33 -13.5t-32.5 13.5t-13.5 32.5t13.5 33t32.5 14t33 -14z" />
    <glyph glyph-name="uniFEB8" unicode="&#x634;" horiz-adv-x="881" arabic-form="medial" 
d="M898 95v-92l-17 -3q-67 0 -108.5 16.5t-59.5 51.5q-15 -33 -48 -50.5t-80 -17.5q-53 0 -85 16t-45 50q-34 -66 -145 -66q-58 0 -92.5 16.5t-48.5 51.5q-17 -35 -58 -51.5t-110 -16.5l-18 3v92l18 3q57 0 86 8t40.5 28t11.5 60v72q0 17 10.5 28.5t26.5 11.5q15 0 26 -11.5
t11 -28.5v-71q0 -54 22.5 -75.5t79.5 -21.5q61 0 85.5 21.5t24.5 76.5v70q0 17 10.5 28.5t26.5 11.5q15 0 26 -11.5t11 -28.5v-70q0 -55 19 -76.5t70 -21.5q49 0 68 21.5t19 74.5v72q0 17 10.5 28.5t26.5 11.5q15 0 26 -11.5t11 -28.5v-72q0 -52 28.5 -74t103.5 -22z
M492 571q13 -13 13 -32q0 -18 -13.5 -31t-31.5 -13t-31 13t-13 31t13 31.5t31 13.5q19 0 32 -13zM437 467q14 -14 14 -33t-14 -32.5t-33 -13.5t-32.5 13.5t-13.5 32.5t13.5 33t32.5 14t33 -14zM547 467q14 -14 14 -33t-14 -32.5t-33 -13.5t-32.5 13.5t-13.5 32.5t13.5 33
t32.5 14t33 -14z" />
    <glyph glyph-name="uniFEBA" unicode="&#x635;" horiz-adv-x="1342" arabic-form="final" 
d="M1359 95v-92l-17 -3q-66 0 -100.5 13t-48.5 39q-61 -52 -194 -52h-246q-92 0 -125 35q-6 -129 -80.5 -194t-225.5 -65q-154 0 -223 67.5t-69 213.5q0 52 10.5 97t23.5 77q6 14 16.5 21.5t22.5 7.5q7 0 14 -3q22 -9 22 -31q0 -7 -4 -21q-25 -77 -25 -148q0 -69 21 -108.5
t69 -57t131 -17.5q118 0 168 42t50 135q0 46 -5.5 91t-17.5 114q-1 3 -1 9q0 17 10.5 29.5t28.5 12.5q16 0 26.5 -11t13.5 -29q4 -20 17 -98q4 -26 13.5 -40.5t29.5 -21.5q74 121 134 192t118 103.5t124 32.5q60 0 107.5 -30.5t74 -85t26.5 -124.5q0 -43 -10 -74
q25 -23 104 -23zM1109.5 106.5q35.5 8.5 51 28.5t15.5 54q0 64 -40.5 106t-101.5 42q-76 0 -147.5 -58t-147.5 -181h15h258q62 0 97.5 8.5z" />
    <glyph glyph-name="uniFEBB" unicode="&#x635;" horiz-adv-x="908" arabic-form="initial" 
d="M757.5 404.5q47.5 -30.5 74 -85t26.5 -124.5q0 -100 -60.5 -147.5t-188.5 -47.5h-289q-62 0 -99 16.5t-52 52.5q-16 -36 -57.5 -52.5t-110.5 -16.5l-18 3v92l18 3q57 0 86 8t40.5 28t11.5 60v72q0 17 10.5 28.5t26.5 11.5q15 0 26 -11.5t11 -28.5v-71q0 -45 11.5 -66.5
t45.5 -27.5q75 124 136 196t119 105t125 33q60 0 107.5 -30.5zM719.5 106.5q35.5 8.5 51 28.5t15.5 54q0 64 -40.5 106t-101.5 42q-76 0 -147.5 -58t-147.5 -181h273q62 0 97.5 8.5z" />
    <glyph glyph-name="uniFEBC" unicode="&#x635;" horiz-adv-x="949" arabic-form="medial" 
d="M966 95v-92l-17 -3q-66 0 -100 12.5t-48 37.5q-60 -50 -192 -50h-289q-62 0 -99 16.5t-52 52.5q-16 -36 -57.5 -52.5t-110.5 -16.5l-18 3v92l18 3q57 0 86 8t40.5 28t11.5 60v72q0 17 10.5 28.5t26.5 11.5q15 0 26 -11.5t11 -28.5v-71q0 -45 11.5 -66.5t45.5 -27.5
q75 124 136 196t119 105t125 33q60 0 107.5 -30.5t74 -85t26.5 -124.5q0 -41 -11 -76q26 -21 102 -21zM719.5 106.5q35.5 8.5 51 28.5t15.5 54q0 64 -40.5 106t-101.5 42q-76 0 -147.5 -58t-147.5 -181h273q62 0 97.5 8.5z" />
    <glyph glyph-name="uniFEBE" unicode="&#x636;" horiz-adv-x="1342" arabic-form="final" 
d="M1359 95v-92l-17 -3q-66 0 -100.5 13t-48.5 39q-61 -52 -194 -52h-246q-92 0 -125 35q-6 -129 -80.5 -194t-225.5 -65q-154 0 -223 67.5t-69 213.5q0 52 10.5 97t23.5 77q6 14 16.5 21.5t22.5 7.5q7 0 14 -3q22 -9 22 -31q0 -7 -4 -21q-25 -77 -25 -148q0 -69 21 -108.5
t69 -57t131 -17.5q118 0 168 42t50 135q0 46 -5.5 91t-17.5 114q-1 3 -1 9q0 17 10.5 29.5t28.5 12.5q16 0 26.5 -11t13.5 -29q4 -20 17 -98q4 -26 13.5 -40.5t29.5 -21.5q74 121 134 192t118 103.5t124 32.5q60 0 107.5 -30.5t74 -85t26.5 -124.5q0 -43 -10 -74
q25 -23 104 -23zM1109.5 106.5q35.5 8.5 51 28.5t15.5 54q0 64 -40.5 106t-101.5 42q-76 0 -147.5 -58t-147.5 -181h15h258q62 0 97.5 8.5zM1004 557q-15 15 -15 36t15 36t36 15t36 -15t15 -36t-15 -36t-36 -15t-36 15z" />
    <glyph glyph-name="uniFEBF" unicode="&#x636;" horiz-adv-x="908" arabic-form="initial" 
d="M757.5 404.5q47.5 -30.5 74 -85t26.5 -124.5q0 -100 -60.5 -147.5t-188.5 -47.5h-289q-62 0 -99 16.5t-52 52.5q-16 -36 -57.5 -52.5t-110.5 -16.5l-18 3v92l18 3q57 0 86 8t40.5 28t11.5 60v72q0 17 10.5 28.5t26.5 11.5q15 0 26 -11.5t11 -28.5v-71q0 -45 11.5 -66.5
t45.5 -27.5q75 124 136 196t119 105t125 33q60 0 107.5 -30.5zM719.5 106.5q35.5 8.5 51 28.5t15.5 54q0 64 -40.5 106t-101.5 42q-76 0 -147.5 -58t-147.5 -181h273q62 0 97.5 8.5zM614 547q-15 15 -15 36t15 36t36 15t36 -15t15 -36t-15 -36t-36 -15t-36 15z" />
    <glyph glyph-name="uniFEC0" unicode="&#x636;" horiz-adv-x="949" arabic-form="medial" 
d="M966 95v-92l-17 -3q-66 0 -100 12.5t-48 37.5q-60 -50 -192 -50h-289q-62 0 -99 16.5t-52 52.5q-16 -36 -57.5 -52.5t-110.5 -16.5l-18 3v92l18 3q57 0 86 8t40.5 28t11.5 60v72q0 17 10.5 28.5t26.5 11.5q15 0 26 -11.5t11 -28.5v-71q0 -45 11.5 -66.5t45.5 -27.5
q75 124 136 196t119 105t125 33q60 0 107.5 -30.5t74 -85t26.5 -124.5q0 -41 -11 -76q26 -21 102 -21zM719.5 106.5q35.5 8.5 51 28.5t15.5 54q0 64 -40.5 106t-101.5 42q-76 0 -147.5 -58t-147.5 -181h273q62 0 97.5 8.5zM614 547q-15 15 -15 36t15 36t36 15t36 -15t15 -36
t-15 -36t-36 -15t-36 15z" />
    <glyph glyph-name="uniFEC2" unicode="&#x637;" horiz-adv-x="773" arabic-form="final" 
d="M790 95v-92l-17 -3q-59 0 -92.5 10.5t-49.5 30.5q-59 -41 -185 -41h-169q-173 0 -236 21q-17 6 -26.5 18t-9.5 27q0 20 12.5 33.5t30.5 13.5q6 0 9 -1q28 -6 51 -8l42 68v522q0 17 12 28.5t30 11.5t30.5 -11.5t12.5 -28.5v-316q0 -57 -31 -126q71 99 134.5 141t142.5 42
q100 0 157 -65.5t57 -174.5q0 -48 -12 -83q26 -14 90 -14zM581.5 116q41.5 18 41.5 73q0 64 -39.5 106t-102.5 42q-58 0 -104 -23t-90 -73.5t-100 -141.5q27 -1 91 -1h181q81 0 122.5 18z" />
    <glyph glyph-name="uniFEC3" unicode="&#x637;" horiz-adv-x="690" arabic-form="initial" 
d="M583 369.5q57 -65.5 57 -174.5q0 -104 -57.5 -149.5t-191.5 -45.5h-391l-17 4v91l17 3h50q25 43 45 74v522q0 17 12 28.5t30 11.5q17 0 29.5 -11.5t12.5 -28.5v-316q0 -59 -31 -128q72 100 135.5 142.5t142.5 42.5q100 0 157 -65.5zM526.5 116q41.5 18 41.5 73
q0 64 -39.5 106t-102.5 42q-58 0 -104 -23t-90.5 -74t-100.5 -142h273q81 0 122.5 18z" />
    <glyph glyph-name="uniFEC4" unicode="&#x637;" horiz-adv-x="716" arabic-form="medial" 
d="M733 95v-92l-17 -3q-58 0 -91.5 10t-49.5 30q-57 -40 -184 -40h-391l-17 4v91l17 3h50q25 43 45 74v522q0 17 12 28.5t30 11.5q17 0 29.5 -11.5t12.5 -28.5v-316q0 -59 -31 -128q72 100 135.5 142.5t142.5 42.5q100 0 157 -65.5t57 -174.5q0 -48 -12 -84q28 -13 88 -13z
M526.5 116q41.5 18 41.5 73q0 64 -39.5 106t-102.5 42q-58 0 -104 -23t-90.5 -74t-100.5 -142h273q81 0 122.5 18z" />
    <glyph glyph-name="uniFEC6" unicode="&#x638;" horiz-adv-x="773" arabic-form="final" 
d="M790 95v-92l-17 -3q-59 0 -92.5 10.5t-49.5 30.5q-59 -41 -185 -41h-169q-173 0 -236 21q-17 6 -26.5 18t-9.5 27q0 20 12.5 33.5t30.5 13.5q6 0 9 -1q28 -6 51 -8l42 68v522q0 17 12 28.5t30 11.5t30.5 -11.5t12.5 -28.5v-316q0 -57 -31 -126q71 99 134.5 141t142.5 42
q100 0 157 -65.5t57 -174.5q0 -48 -12 -83q26 -14 90 -14zM581.5 116q41.5 18 41.5 73q0 64 -39.5 106t-102.5 42q-58 0 -104 -23t-90 -73.5t-100 -141.5q27 -1 91 -1h181q81 0 122.5 18zM445 557q-15 15 -15 36t15 36t36 15t36 -15t15 -36t-15 -36t-36 -15t-36 15z" />
    <glyph glyph-name="uniFEC7" unicode="&#x638;" horiz-adv-x="690" arabic-form="initial" 
d="M583 369.5q57 -65.5 57 -174.5q0 -104 -57.5 -149.5t-191.5 -45.5h-391l-17 4v91l17 3h50q25 43 45 74v522q0 17 12 28.5t30 11.5q17 0 29.5 -11.5t12.5 -28.5v-316q0 -59 -31 -128q72 100 135.5 142.5t142.5 42.5q100 0 157 -65.5zM526.5 116q41.5 18 41.5 73
q0 64 -39.5 106t-102.5 42q-58 0 -104 -23t-90.5 -74t-100.5 -142h273q81 0 122.5 18zM390 547q-15 15 -15 36t15 36t36 15t36 -15t15 -36t-15 -36t-36 -15t-36 15z" />
    <glyph glyph-name="uniFEC8" unicode="&#x638;" horiz-adv-x="716" arabic-form="medial" 
d="M733 95v-92l-17 -3q-58 0 -91.5 10t-49.5 30q-57 -40 -184 -40h-391l-17 4v91l17 3h50q25 43 45 74v522q0 17 12 28.5t30 11.5q17 0 29.5 -11.5t12.5 -28.5v-316q0 -59 -31 -128q72 100 135.5 142.5t142.5 42.5q100 0 157 -65.5t57 -174.5q0 -48 -12 -84q28 -13 88 -13z
M526.5 116q41.5 18 41.5 73q0 64 -39.5 106t-102.5 42q-58 0 -104 -23t-90.5 -74t-100.5 -142h273q81 0 122.5 18zM390 547q-15 15 -15 36t15 36t36 15t36 -15t15 -36t-15 -36t-36 -15t-36 15z" />
    <glyph glyph-name="uniFECA" unicode="&#x639;" horiz-adv-x="578" arabic-form="final" 
d="M595 95v-92l-17 -3h-20q-73 0 -116.5 4.5t-80.5 19t-71 45.5q-103 -52 -146.5 -94t-43.5 -97q0 -62 47.5 -96.5t169.5 -34.5q62 0 109.5 7t95.5 17q3 1 8 1q16 0 29 -12t13 -32q0 -15 -8.5 -27t-23.5 -18q-37 -14 -96 -24t-137 -10q-134 0 -205.5 57t-71.5 164
q0 88 50.5 144.5t150.5 109.5q-69 73 -114 134q-14 19 -20.5 36t-6.5 38q0 14 3 30q11 60 72 78q62 18 157 18t139.5 -37t44.5 -117q0 -61 -32 -103.5t-106 -86.5q21 -11 56.5 -13.5t130.5 -2.5h23zM215.5 354q-41.5 -6 -62.5 -17q27 -36 80.5 -95.5t78.5 -82.5
q67 34 96 65.5t29 68.5t-28 52t-98 15q-54 0 -95.5 -6z" />
    <glyph glyph-name="uniFECB" unicode="&#x639;" horiz-adv-x="527" arabic-form="initial" 
d="M482.5 48q-9.5 -12 -27.5 -16q-86 -20 -190 -26t-265 -6l-17 3v92l17 3q83 0 113 1q-35 48 -35 125q0 107 55 163.5t154 56.5q59 0 105 -24q40 -21 40 -50q0 -20 -12 -30.5t-30 -10.5q-10 0 -16 2q-51 15 -87 15q-64 0 -101 -32t-37 -90t37 -90t112 -32q22 0 63.5 6.5
t80.5 13.5q20 3 35 -10t15 -35q0 -17 -9.5 -29z" />
    <glyph glyph-name="uniFECC" unicode="&#x639;" horiz-adv-x="548" arabic-form="medial" 
d="M565 95v-92l-17 -3h-20q-109 0 -162 9t-100 43q-51 -29 -112 -40.5t-140 -11.5h-14l-17 3v92l17 3h22q68 0 109 3t69 10q-67 73 -108 131q-15 21 -23 40t-8 42q0 79 79 101q60 18 152 18q95 0 139.5 -37t44.5 -117q0 -59 -29.5 -101t-97.5 -83q21 -4 59.5 -5.5
t116.5 -1.5h23zM132 324q28 -39 77 -98.5t72 -80.5q67 34 96.5 65.5t29.5 67.5q0 37 -28 52t-98 15q-104 0 -149 -21z" />
    <glyph glyph-name="uniFECE" unicode="&#x63a;" horiz-adv-x="578" arabic-form="final" 
d="M595 95v-92l-17 -3h-20q-73 0 -116.5 4.5t-80.5 19t-71 45.5q-103 -52 -146.5 -94t-43.5 -97q0 -62 47.5 -96.5t169.5 -34.5q62 0 109.5 7t95.5 17q3 1 8 1q16 0 29 -12t13 -32q0 -15 -8.5 -27t-23.5 -18q-37 -14 -96 -24t-137 -10q-134 0 -205.5 57t-71.5 164
q0 88 50.5 144.5t150.5 109.5q-69 73 -114 134q-14 19 -20.5 36t-6.5 38q0 14 3 30q11 60 72 78q62 18 157 18t139.5 -37t44.5 -117q0 -61 -32 -103.5t-106 -86.5q21 -11 56.5 -13.5t130.5 -2.5h23zM215.5 354q-41.5 -6 -62.5 -17q27 -36 80.5 -95.5t78.5 -82.5
q67 34 96 65.5t29 68.5t-28 52t-98 15q-54 0 -95.5 -6zM268 570q-15 15 -15 36t15 36t36 15t36 -15t15 -36t-15 -36t-36 -15t-36 15z" />
    <glyph glyph-name="uniFECF" unicode="&#x63a;" horiz-adv-x="527" arabic-form="initial" 
d="M482.5 48q-9.5 -12 -27.5 -16q-86 -20 -190 -26t-265 -6l-17 3v92l17 3q83 0 113 1q-35 48 -35 125q0 107 55 163.5t154 56.5q59 0 105 -24q40 -21 40 -50q0 -20 -12 -30.5t-30 -10.5q-10 0 -16 2q-51 15 -87 15q-64 0 -101 -32t-37 -90t37 -90t112 -32q22 0 63.5 6.5
t80.5 13.5q20 3 35 -10t15 -35q0 -17 -9.5 -29zM235 556q-15 15 -15 36t15 36t36 15t36 -15t15 -36t-15 -36t-36 -15t-36 15z" />
    <glyph glyph-name="uniFED0" unicode="&#x63a;" horiz-adv-x="548" arabic-form="medial" 
d="M565 95v-92l-17 -3h-20q-109 0 -162 9t-100 43q-51 -29 -112 -40.5t-140 -11.5h-14l-17 3v92l17 3h22q68 0 109 3t69 10q-67 73 -108 131q-15 21 -23 40t-8 42q0 79 79 101q60 18 152 18q95 0 139.5 -37t44.5 -117q0 -59 -29.5 -101t-97.5 -83q21 -4 59.5 -5.5
t116.5 -1.5h23zM132 324q28 -39 77 -98.5t72 -80.5q67 34 96.5 65.5t29.5 67.5q0 37 -28 52t-98 15q-104 0 -149 -21zM240 555q-15 15 -15 36t15 36t36 15t36 -15t15 -36t-15 -36t-36 -15t-36 15z" />
    <glyph glyph-name="uniFED2" unicode="&#x641;" horiz-adv-x="910" arabic-form="final" 
d="M927 95v-92l-18 -3q-88 0 -145.5 13t-98.5 34q-60 -30 -140 -38.5t-191 -8.5q-113 0 -178.5 23.5t-95.5 76.5t-30 145q0 62 14 106q5 17 15.5 27.5t24.5 10.5q17 0 25.5 -10t8.5 -26q0 -5 -2 -15q-11 -48 -11 -79q0 -61 22.5 -95.5t72.5 -50t138 -15.5q168 0 238 8
q-45 25 -65 63t-20 93q0 96 47 149.5t126 53.5q80 0 126.5 -53t46.5 -150q0 -55 -19.5 -92.5t-62.5 -62.5q53 -9 154 -9zM589 339.5q-28 -27.5 -28 -77.5q0 -44 21.5 -70.5t83.5 -53.5q60 27 80.5 53.5t20.5 70.5q0 50 -27.5 77.5t-75.5 27.5q-47 0 -75 -27.5zM628 577
q-15 15 -15 36t15 36t36 15t36 -15t15 -36t-15 -36t-36 -15t-36 15z" />
    <glyph glyph-name="uniFED3" unicode="&#x641;" horiz-adv-x="438" arabic-form="initial" 
d="M345 469.5q43 -66.5 43 -170.5v-65q0 -120 -61 -177t-190 -57h-137l-17 3v92l17 3h136q69 0 108.5 11.5t57 37.5t17.5 72v29q-26 -63 -126 -63q-151 0 -151 157q0 55 22 99.5t61.5 69.5t89.5 25q87 0 130 -66.5zM318 304v7q0 50 -24 88.5t-83 38.5q-44 0 -72 -26t-28 -67
q0 -38 21.5 -54t73.5 -16q92 0 112 29zM179 648q-15 15 -15 36t15 36t36 15t36 -15t15 -36t-15 -36t-36 -15t-36 15z" />
    <glyph glyph-name="uniFED4" unicode="&#x641;" horiz-adv-x="493" arabic-form="medial" 
d="M510 95v-92l-18 -3q-94 0 -153 14.5t-100 37.5q-85 -52 -238 -52l-18 3v92l18 3q102 0 153 10q-42 24 -61 61.5t-19 92.5q0 96 47 149.5t126 53.5q80 0 126.5 -53t46.5 -150q0 -56 -19 -93.5t-62 -61.5q53 -9 153 -9zM172 339.5q-28 -27.5 -28 -77.5q0 -46 21.5 -72
t83.5 -53q42 19 63.5 36t29.5 37.5t8 51.5q0 50 -27.5 77.5t-75.5 27.5q-47 0 -75 -27.5zM211 577q-15 15 -15 36t15 36t36 15t36 -15t15 -36t-15 -36t-36 -15t-36 15z" />
    <glyph glyph-name="uniFED6" unicode="&#x642;" horiz-adv-x="767" arabic-form="final" 
d="M784 92v-89l-17 -3h-75q-9 -81 -46 -129.5t-110 -71.5t-190 -23q-166 0 -241 67t-75 214q0 95 31 168q6 14 16.5 21.5t22.5 7.5q7 0 14 -3q22 -9 22 -31q0 -7 -4 -21q-22 -68 -22 -142q0 -65 23.5 -105t76 -59t142.5 -19q95 0 153 12t87 39.5t35 74.5h-127
q-81 0 -119.5 39t-38.5 116q0 59 23 106.5t64 74t93 26.5q86 0 129.5 -68.5t43.5 -171.5v-24h72zM434 108q22 -15 77 -15h118v30q0 51 -25.5 96t-85.5 45q-47 0 -76.5 -29.5t-29.5 -75.5q0 -36 22 -51zM432.5 465q-13.5 14 -13.5 33t13.5 32.5t32.5 13.5t33 -13.5t14 -32.5
t-14 -33t-33 -14t-32.5 14zM542.5 465q-13.5 14 -13.5 33t13.5 32.5t32.5 13.5t33 -13.5t14 -32.5t-14 -33t-33 -14t-32.5 14z" />
    <glyph glyph-name="uniFED7" unicode="&#x642;" horiz-adv-x="438" arabic-form="initial" 
d="M345 469.5q43 -66.5 43 -170.5v-65q0 -120 -61 -177t-190 -57h-137l-17 3v92l17 3h136q69 0 108.5 11.5t57 37.5t17.5 72v29q-26 -63 -126 -63q-151 0 -151 157q0 55 22 99.5t61.5 69.5t89.5 25q87 0 130 -66.5zM318 304v7q0 50 -24 88.5t-83 38.5q-44 0 -72 -26t-28 -67
q0 -38 21.5 -54t73.5 -16q92 0 112 29zM125.5 639q-13.5 14 -13.5 33t13.5 32.5t32.5 13.5t33 -13.5t14 -32.5t-14 -33t-33 -14t-32.5 14zM235.5 639q-13.5 14 -13.5 33t13.5 32.5t32.5 13.5t33 -13.5t14 -32.5t-14 -33t-33 -14t-32.5 14z" />
    <glyph glyph-name="uniFED8" unicode="&#x642;" horiz-adv-x="493" arabic-form="medial" 
d="M510 95v-92l-18 -3q-94 0 -153 14.5t-100 37.5q-85 -52 -238 -52l-18 3v92l18 3q102 0 153 10q-42 24 -61 61.5t-19 92.5q0 96 47 149.5t126 53.5q80 0 126.5 -53t46.5 -150q0 -56 -19 -93.5t-62 -61.5q53 -9 153 -9zM172 339.5q-28 -27.5 -28 -77.5q0 -46 21.5 -72
t83.5 -53q42 19 63.5 36t29.5 37.5t8 51.5q0 50 -27.5 77.5t-75.5 27.5q-47 0 -75 -27.5zM157.5 568q-13.5 14 -13.5 33t13.5 32.5t32.5 13.5t33 -13.5t14 -32.5t-14 -33t-33 -14t-32.5 14zM267.5 568q-13.5 14 -13.5 33t13.5 32.5t32.5 13.5t33 -13.5t14 -32.5t-14 -33
t-33 -14t-32.5 14z" />
    <glyph glyph-name="uniFEDA" unicode="&#x643;" horiz-adv-x="890" arabic-form="final" 
d="M907 95v-92l-17 -3q-72 0 -115 20.5t-58 64.5q-36 -45 -120 -65t-234 -20q-126 0 -198 22.5t-103.5 72.5t-31.5 138q0 55 12 94q5 16 15.5 26.5t24.5 10.5q15 0 23.5 -10t8.5 -25q0 -4 -2 -14q-9 -36 -9 -69q0 -61 22 -92t77.5 -43.5t164.5 -12.5q124 0 188 7t89.5 24.5
t25.5 51.5v501q0 25 11 38.5t31 13.5t30.5 -13.5t10.5 -38.5v-448q0 -55 13 -84t42 -40.5t82 -11.5zM277 326q0 36 34 36l51 -1q51 0 73.5 5t22.5 16q0 9 -13 15.5t-50 16.5q-41 11 -57 27t-16 47q0 38 28.5 66t95.5 48q12 3 21 3q28 0 28 -28q0 -32 -37 -42
q-47 -14 -65.5 -23t-18.5 -18q0 -7 10.5 -11.5t37.5 -11.5l20 -6q38 -11 52.5 -29.5t14.5 -53.5q0 -48 -34.5 -72t-111.5 -24q-32 0 -53 3q-33 4 -33 37z" />
    <glyph glyph-name="uniFEDB" unicode="&#x643;" horiz-adv-x="428" arabic-form="initial" 
d="M452 694q0 -23 -30 -43l-309 -199q141 -63 204 -123t63 -143q0 -91 -59 -138.5t-164 -47.5h-156l-18 3v92l18 3h155q62 0 108 16t46 58q0 37 -18 65t-66 58.5t-140 70.5q-40 16 -54.5 36t-14.5 45q0 35 36 60l328 215q18 12 33 12q23 0 33 -21q5 -10 5 -19z" />
    <glyph glyph-name="uniFEDC" unicode="&#x643;" horiz-adv-x="533" arabic-form="medial" 
d="M550 95v-92l-17 -3q-75 0 -123 25.5t-105 93.5q-11 -59 -53.5 -89t-129.5 -30h-121l-18 3v92l18 3h119q76 0 105 14t33 47q-37 50 -116 153l-65 84q-25 32 -25 64q0 23 13 36.5t43 32.5l319 195q19 11 33 11q21 0 33 -21q5 -10 5 -20q0 -26 -30 -44l-327 -198l158 -204
q54 -66 86 -96t64.5 -42t83.5 -12z" />
    <glyph glyph-name="uniFEDE" unicode="&#x644;" horiz-adv-x="698" arabic-form="final" 
d="M715 95v-92l-17 -3q-96 0 -140 37q-14 -112 -81.5 -171.5t-186.5 -59.5q-130 0 -195 63t-65 195q0 52 9 95.5t23 72.5q6 14 16.5 21.5t22.5 7.5q7 0 14 -3q22 -9 22 -31q0 -7 -4 -21q-23 -71 -23 -121q0 -98 42.5 -138.5t141.5 -40.5q69 0 109 17.5t57.5 56.5t17.5 107
v595q0 25 11 38.5t31 13.5t30.5 -13.5t10.5 -38.5v-448q0 -55 13 -84t42 -40.5t82 -11.5z" />
    <glyph glyph-name="uniFEDF" unicode="&#x644;" horiz-adv-x="299" arabic-form="initial" 
d="M198 100.5q-21 -53.5 -68 -77t-129 -23.5l-18 3v92l18 3q56 0 84 8.5t39.5 29.5t11.5 62v484q0 25 11 38.5t31 13.5t30.5 -13.5t10.5 -38.5v-435q0 -93 -21 -146.5z" />
    <glyph glyph-name="uniFEE0" unicode="&#x644;" horiz-adv-x="356" arabic-form="medial" 
d="M373 95v-92l-17 -3q-137 0 -169 77q-24 -41 -69 -59t-117 -18l-18 3v92l18 3q56 0 84 8.5t39.5 29.5t11.5 62v484q0 25 11 38.5t31 13.5t30.5 -13.5t10.5 -38.5v-435v-3v-10q0 -55 13 -84t42 -40.5t82 -11.5z" />
    <glyph glyph-name="uniFEE2" unicode="&#x645;" horiz-adv-x="662" arabic-form="final" 
d="M679 95v-92l-17 -3q-62 0 -98.5 22.5t-59.5 65.5q-15 -46 -55.5 -69t-111.5 -23q-87 0 -129 44q-94 -29 -94 -47l1 -273q0 -25 -11 -38.5t-31 -13.5t-31.5 13.5t-11.5 38.5v266q0 79 71 113q34 15 70 27q-2 24 -2 39q0 63 25.5 110.5t68.5 73.5t93 26q68 0 107 -37.5
t69 -106.5l23 -53q17 -41 40.5 -60.5t66.5 -19.5zM436 105q33 12 46 30l-14 33q-25 58 -50.5 83.5t-67.5 25.5q-45 0 -77.5 -30t-32.5 -79q0 -42 24 -58.5t84 -16.5q55 0 88 12z" />
    <glyph glyph-name="uniFEE3" unicode="&#x645;" horiz-adv-x="522" arabic-form="initial" 
d="M428 319q44 -56 44 -145q0 -84 -47 -131t-131 -47q-67 0 -101.5 21.5t-46.5 64.5q-21 -45 -53.5 -63.5t-91.5 -18.5l-18 3v92l18 3q30 0 46 3.5t28.5 18t24.5 45.5l23 59q27 70 70 110.5t112 40.5q79 0 123 -56zM375.5 110.5q26.5 17.5 26.5 55.5q-2 49 -28 80t-74 31
q-44 0 -71 -21.5t-43 -65.5l-14 -38q7 -29 34.5 -44t84.5 -15q58 0 84.5 17.5z" />
    <glyph glyph-name="uniFEE4" unicode="&#x645;" arabic-form="medial" 
d="M617 95v-92l-17 -3q-62 0 -99 22.5t-59 64.5q-15 -45 -55.5 -68t-111.5 -23q-112 0 -149 73q-11 -34 -40 -51.5t-85 -17.5l-18 3v92l18 3q44 0 70.5 7t37.5 25q-2 22 -2 35q0 63 25.5 110.5t68.5 73.5t93 26q68 0 107 -37.5t69 -106.5l23 -53q17 -41 40.5 -60.5
t66.5 -19.5zM374 105q33 12 46 30l-14 33q-25 58 -50.5 83.5t-67.5 25.5q-45 0 -77.5 -30t-32.5 -79q0 -42 24 -58.5t84 -16.5q55 0 88 12z" />
    <glyph glyph-name="uniFEE6" unicode="&#x646;" horiz-adv-x="744" arabic-form="final" 
d="M761 95v-92l-17 -3q-81 0 -115 41q-5 -132 -79.5 -198.5t-227.5 -66.5q-154 0 -223 67.5t-69 213.5q0 95 31 168q6 14 16.5 21.5t22.5 7.5q7 0 14 -3q22 -9 22 -31q0 -7 -4 -21q-22 -68 -22 -142q0 -69 21 -108.5t69 -57t131 -17.5q81 0 128.5 19t68.5 59t21 105
q0 89 -9 180q-2 20 7.5 31.5t29.5 11.5q39 0 43 -39q2 -15 4 -52q5 -41 13 -59t31 -25t76 -7zM302 387q-15 15 -15 36t15 36t36 15t36 -15t15 -36t-15 -36t-36 -15t-36 15z" />
    <glyph glyph-name="uniFEE7" unicode="&#x646;" horiz-adv-x="257" arabic-form="initial" 
d="M-17 3v92l17 3q72 0 101.5 33t29.5 108q0 44 -9 102q-3 20 8.5 32t28.5 12q15 0 25.5 -9.5t13.5 -27.5q9 -55 9 -109q0 -118 -53.5 -178.5t-153.5 -60.5zM117 497q-15 15 -15 36t15 36t36 15t36 -15t15 -36t-15 -36t-36 -15t-36 15z" />
    <glyph glyph-name="uniFEE8" unicode="&#x646;" horiz-adv-x="345" arabic-form="medial" 
d="M362 95v-92l-17 -3q-76 0 -119 21t-56 64q-25 -85 -170 -85l-17 3v92l17 3q53 0 81.5 10.5t41.5 38.5t13 81v61q0 18 10 29.5t27 11.5t26.5 -11.5t9.5 -29.5v-61q0 -53 13 -81t41.5 -38.5t81.5 -10.5zM137 442q-15 15 -15 36t15 36t36 15t36 -15t15 -36t-15 -36t-36 -15
t-36 15z" />
    <glyph glyph-name="uniFEE9" unicode="&#x647;" horiz-adv-x="462" arabic-form="isolated" 
d="M76.5 44.5q46.5 -44.5 144.5 -44.5t144.5 44.5t46.5 138.5q0 117 -50.5 182t-140.5 65t-140.5 -65t-50.5 -182q0 -94 46.5 -138.5zM132 292.5q32 39.5 89 39.5t89 -39.5t32 -111.5q0 -46 -27 -64.5t-94 -18.5t-94 18.5t-27 64.5q0 72 32 111.5z" />
    <glyph glyph-name="uniFEEA" unicode="&#x647;" horiz-adv-x="507" arabic-form="final" 
d="M524 95v-92l-17 -3q-89 1 -136.5 42t-59.5 120q-25 -69 -128 -69q-153 0 -153 155q0 52 26.5 91t86.5 71t163 62v27q0 20 10.5 30.5t29.5 10.5t29.5 -10.5t10.5 -30.5v-251q0 -62 10 -93.5t35.5 -44t75.5 -12.5zM306 224v7v154q-114 -34 -160 -62.5t-46 -65.5
q0 -34 24.5 -50t76.5 -16q85 0 105 33z" />
    <glyph glyph-name="uniFEEB" unicode="&#x647;" horiz-adv-x="626" arabic-form="initial" 
d="M430 400.5q77 -43.5 111.5 -96.5t34.5 -123q0 -90 -43.5 -135.5t-122.5 -45.5q-50 0 -94 12.5t-93 35.5q-32 -22 -79.5 -35t-143.5 -13l-17 3v92l17 3q108 0 140 1q-41 34 -56 72.5t-15 89.5q0 137 88 172v5q0 9 1 13q4 16 16 24.5t29 8.5q9 0 20 -3q130 -37 207 -80.5z
M157 348.5q-23 -31.5 -23 -79.5q0 -46 18.5 -77t70.5 -59l12 -6q84 37 84 129q0 57 -21.5 90.5t-69.5 33.5t-71 -31.5zM483 117.5q23 19.5 23 61.5q0 101 -134 162q12 -37 12 -85q0 -93 -67 -150q48 -8 93 -8q50 0 73 19.5z" />
    <glyph glyph-name="uniFEEC" unicode="&#x647;" horiz-adv-x="524" arabic-form="medial" 
d="M541 95v-92l-17 -3h-87q37 -24 37 -73q0 -75 -48.5 -123t-130.5 -48q-100 0 -153 64t-58 180h-83l-18 3v92l18 3h82v18q0 95 22.5 162t64 102t95.5 35q74 0 113.5 -62.5t39.5 -155.5q0 -79 -49 -99h155zM151 116v-24h16q65 0 101 5.5t58 26t22 65.5q0 58 -21.5 93
t-66.5 35q-109 0 -109 -201zM375 -125.5q29 20.5 29 53.5q0 43 -34 63.5t-123 20.5h-96q4 -73 40.5 -115.5t104.5 -42.5q50 0 79 20.5z" />
    <glyph glyph-name="uniFEEE" unicode="&#x648;" horiz-adv-x="486" arabic-form="final" 
d="M503 92v-89l-17 -3h-79q-20 -112 -84 -175.5t-163 -63.5q-60 0 -100 18q-17 8 -27.5 21t-10.5 29q0 19 12 31.5t29 12.5q5 0 13 -2q40 -12 75 -12q78 0 126.5 34t63.5 111h-122q-81 0 -119.5 39.5t-38.5 116.5q0 58 23 104t64 72t93 26q86 0 129.5 -69.5t43.5 -173.5v-21
h72zM153.5 109q22.5 -16 76.5 -16h118v30q0 50 -25.5 95.5t-85.5 45.5q-47 0 -76.5 -28t-29.5 -72q0 -39 22.5 -55z" />
    <glyph glyph-name="uniFEF0" unicode="&#x649;" horiz-adv-x="702" arabic-form="final" 
d="M719 95v-92l-17 -3h-65q19 -29 19 -67q0 -64 -38 -113t-109.5 -76t-170.5 -27q-158 0 -233 66.5t-75 208.5q0 88 38 160q7 13 18 21t23 8q7 0 13 -3q22 -9 22 -33q0 -9 -5 -22q-29 -67 -29 -131q0 -67 22.5 -105t73.5 -55t140 -17q113 0 176.5 31t63.5 87
q0 36 -28.5 54.5t-87.5 23.5q-21 2 -34 14.5t-13 31.5q0 23 13.5 36t36.5 12q84 -7 193 -7h36z" />
    <glyph glyph-name="uniFEF2" unicode="&#x64a;" horiz-adv-x="702" arabic-form="final" 
d="M719 95v-92l-17 -3h-65q19 -29 19 -67q0 -64 -38 -113t-109.5 -76t-170.5 -27q-158 0 -233 66.5t-75 208.5q0 88 38 160q7 13 18 21t23 8q7 0 13 -3q22 -9 22 -33q0 -9 -5 -22q-29 -67 -29 -131q0 -67 22.5 -105t73.5 -55t140 -17q113 0 176.5 31t63.5 87
q0 36 -28.5 54.5t-87.5 23.5q-21 2 -34 14.5t-13 31.5q0 23 13.5 36t36.5 12q84 -7 193 -7h36zM249.5 -437q-13.5 14 -13.5 33t13.5 32.5t32.5 13.5t33 -13.5t14 -32.5t-14 -33t-33 -14t-32.5 14zM359.5 -437q-13.5 14 -13.5 33t13.5 32.5t32.5 13.5t33 -13.5t14 -32.5
t-14 -33t-33 -14t-32.5 14z" />
    <glyph glyph-name="uniFEF3" unicode="&#x64a;" horiz-adv-x="257" arabic-form="initial" 
d="M-17 3v92l17 3q72 0 101.5 33t29.5 108q0 44 -9 102q-3 20 8.5 32t28.5 12q15 0 25.5 -9.5t13.5 -27.5q9 -55 9 -109q0 -118 -53.5 -178.5t-153.5 -60.5zM-9 -147.5q-13 13.5 -13 31.5q0 17 13 30t31 13t31.5 -13t13.5 -30q0 -18 -13 -31.5t-32 -13.5q-18 0 -31 13.5z
M95.5 -147.5q-12.5 13.5 -12.5 31.5q0 17 13 30t30 13q18 0 31.5 -13t13.5 -30q0 -18 -13 -31.5t-32 -13.5q-18 0 -30.5 13.5z" />
    <glyph glyph-name="uniFEF4" unicode="&#x64a;" horiz-adv-x="345" arabic-form="medial" 
d="M362 95v-92l-17 -3q-76 0 -119 21t-56 64q-25 -85 -170 -85l-17 3v92l17 3q53 0 81.5 10.5t41.5 38.5t13 81v61q0 18 10 29.5t27 11.5t26.5 -11.5t9.5 -29.5v-61q0 -53 13 -81t41.5 -38.5t81.5 -10.5zM84.5 -154q-13.5 14 -13.5 33t13.5 32.5t32.5 13.5t33 -13.5
t14 -32.5t-14 -33t-33 -14t-32.5 14zM194.5 -154q-13.5 14 -13.5 33t13.5 32.5t32.5 13.5t33 -13.5t14 -32.5t-14 -33t-33 -14t-32.5 14z" />
    <glyph glyph-name=".notdef" horiz-adv-x="712" 
d="M107 702v-27h-27v27h27zM182 702v-27h-27v27h27zM257 702v-27h-27v27h27zM332 702v-27h-27v27h27zM407 702v-27h-27v27h27zM482 702v-27h-27v27h27zM557 702v-27h-27v27h27zM632 702v-27h-27v27h27zM107 627v-27h-27v27h27zM632 627v-27h-27v27h27zM107 552v-27h-27v27
h27zM257 552v-27h-27v27h27zM332 552v-27h-27v27h27zM407 552v-27h-27v27h27zM482 552v-27h-27v27h27zM632 552v-27h-27v27h27zM107 477v-27h-27v27h27zM482 477v-27h-27v27h27zM632 477v-27h-27v27h27zM107 402v-27h-27v27h27zM332 402v-27h-27v27h27zM407 402v-27h-27v27
h27zM482 402v-27h-27v27h27zM632 402v-27h-27v27h27zM107 327v-27h-27v27h27zM332 327v-27h-27v27h27zM632 327v-27h-27v27h27zM107 252v-27h-27v27h27zM632 252v-27h-27v27h27zM107 177v-27h-27v27h27zM332 177v-27h-27v27h27zM632 177v-27h-27v27h27zM107 102v-27h-27v27
h27zM632 102v-27h-27v27h27zM107 27v-27h-27v27h27zM182 27v-27h-27v27h27zM257 27v-27h-27v27h27zM332 27v-27h-27v27h27zM407 27v-27h-27v27h27zM482 27v-27h-27v27h27zM557 27v-27h-27v27h27zM632 27v-27h-27v27h27z" />
    <glyph glyph-name=".null" horiz-adv-x="0" 
 />
    <glyph glyph-name="nonmarkingreturn" unicode="&#xd;" horiz-adv-x="261" 
 />
    <glyph glyph-name="space" unicode=" " horiz-adv-x="200" 
 />
    <glyph glyph-name="exclam" unicode="!" horiz-adv-x="248" 
d="M167 231q0 -17 -12.5 -28.5t-29.5 -11.5t-29 11.5t-12 28.5v463q0 17 12 28.5t29 11.5t29.5 -11.5t12.5 -28.5v-463zM86 15q-16 16 -16 38t16 37.5t38 15.5t37.5 -15.5t15.5 -37.5t-15.5 -38t-37.5 -16t-38 16z" />
    <glyph glyph-name="quotedbl" unicode="&#x22;" horiz-adv-x="425" 
d="M61 720q-1 19 15 33t36 14q21 0 37 -13t15 -34l-12 -193q0 -20 -10.5 -33t-29.5 -13t-29 13t-10 33zM261 720q-1 19 15 33t36 14q21 0 37 -13t15 -34l-12 -193q0 -20 -10.5 -33t-29.5 -13t-29 13t-10 33z" />
    <glyph glyph-name="numbersign" unicode="#" horiz-adv-x="624" 
d="M448 242h65q17 0 28 -11t11 -28t-12 -28.5t-30 -11.5h-73l-17 -136q-2 -16 -13.5 -26t-26.5 -10q-19 0 -30 14.5t-9 34.5l16 123h-155l-17 -136q-2 -16 -13.5 -26t-26.5 -10q-19 0 -30 14.5t-9 34.5l16 123h-48q-16 0 -27.5 11.5t-11.5 28.5t11.5 28t27.5 11h58l36 275
h-57q-16 0 -27.5 11.5t-11.5 28.5t11.5 28t27.5 11h67l17 126q2 18 12.5 29t27.5 11t29.5 -13t10.5 -32l-16 -121h154l17 126q2 18 12.5 29t27.5 11t29.5 -13t10.5 -32l-16 -121h56q17 0 28 -11t11 -28t-12 -28.5t-30 -11.5h-63zM367 242l36 275h-154l-36 -275h154z" />
    <glyph glyph-name="dollar" unicode="$" horiz-adv-x="579" 
d="M429.5 750.5q40.5 -12.5 64.5 -30.5q20 -17 20 -34q0 -19 -13 -32t-31 -13q-7 0 -16 3.5t-19 8.5q-21 10 -41.5 17t-50.5 10v-257q98 -12 147 -59.5t49 -145.5q0 -96 -50 -153t-146 -71v-83q0 -19 -13.5 -32.5t-33.5 -13.5q-19 0 -32.5 13t-13.5 33v79q-48 2 -93 12
t-72 27q-32 19 -32 43q0 18 13 31t32 13q7 0 19.5 -4.5t16.5 -6.5q62 -24 116 -30v268l-3 1q-93 11 -145.5 64.5t-52.5 140.5q0 88 54 143.5t147 69.5v57q0 20 13.5 33.5t32.5 13.5q20 0 33.5 -13.5t13.5 -33.5v-53q46 -3 86.5 -15.5zM250 677q-105 -21 -105 -130
q0 -50 24 -75t81 -36v241zM343 78q98 22 98 140q0 50 -20 75.5t-78 37.5v-253z" />
    <glyph glyph-name="percent" unicode="%" horiz-adv-x="972" 
d="M403 406q-26 -43 -70.5 -65.5t-99.5 -22.5q-54 0 -98.5 22t-70.5 65t-26 102v68q0 59 26 103t70.5 68t98.5 24t99 -24t71 -68t26 -103v-68q0 -58 -26 -101zM238 -1q-11 11 -11 27q0 14 8 25l428 682q15 22 35 22q17 0 28 -11t11 -28q0 -12 -7 -23l-431 -686
q-11 -19 -34 -19q-16 0 -27 11zM314 656.5q-29 30.5 -80 30.5q-52 0 -81 -31t-29 -81v-68q0 -50 29 -80t82 -30t80.5 30t27.5 80v68q0 51 -29 81.5zM907 74q-26 -43 -70.5 -65.5t-99.5 -22.5q-54 0 -98.5 22t-70.5 65t-26 102v68q0 59 26 103t70.5 68t98.5 24t99 -24t71 -68
t26 -103v-68q0 -58 -26 -101zM818 324.5q-29 30.5 -80 30.5q-52 0 -81 -31t-29 -81v-68q0 -50 29 -80t82 -30t80.5 30t27.5 80v68q0 51 -29 81.5z" />
    <glyph glyph-name="ampersand" unicode="&#x26;" horiz-adv-x="690" 
d="M623.5 381.5q13.5 -13.5 13.5 -32.5q0 -120 -65 -214l74 -76q12 -12 12 -30q0 -19 -13.5 -32t-32.5 -13q-20 0 -34 16l-67 67q-46 -39 -103 -60.5t-117 -21.5q-117 0 -176.5 53t-59.5 152q0 54 26.5 102.5t75.5 77.5l36 22l-19 20q-43 50 -62 89t-19 86q0 55 29.5 96.5
t77 63.5t100.5 22q99 0 154 -47t55 -130q0 -50 -31 -95t-87 -79l-58 -36l177 -183q35 67 35 150q0 20 13 33t32 13q20 0 33.5 -13.5zM276 441l48 29q87 52 87 119q0 54 -31 76t-80 22q-48 0 -79.5 -25.5t-31.5 -72.5q0 -24 9.5 -48t38.5 -59zM252 332l-24 -14
q-35 -22 -56 -56t-21 -75q0 -50 38 -83t102 -33q95 0 161 57z" />
    <glyph glyph-name="quotesingle" unicode="'" horiz-adv-x="225" 
d="M61 720q-1 19 15 33t36 14q21 0 37 -13t15 -34l-12 -193q0 -20 -10.5 -33t-29.5 -13t-29 13t-10 33z" />
    <glyph glyph-name="parenleft" unicode="(" horiz-adv-x="320" 
d="M274.5 -86q12.5 -12 12.5 -29t-12.5 -29.5t-29.5 -12.5h-20q-77 0 -110 47.5t-33 132.5v678q0 85 33 132.5t110 47.5h20q17 0 29.5 -12.5t12.5 -29.5t-12.5 -29t-29.5 -12h-10q-28 0 -40.5 -12.5t-16 -33t-3.5 -57.5v-666q0 -37 3.5 -57.5t16 -33t40.5 -12.5h10
q17 0 29.5 -12z" />
    <glyph glyph-name="parenright" unicode=")" horiz-adv-x="320" 
d="M85 -74q28 0 40.5 12.5t16 33t3.5 57.5v666q0 37 -3.5 57.5t-16 33t-40.5 12.5h-10q-17 0 -29.5 12t-12.5 29t12.5 29.5t29.5 12.5h20q77 0 110 -47.5t33 -132.5v-678q0 -85 -33 -132.5t-110 -47.5h-20q-17 0 -29.5 12.5t-12.5 29.5t12.5 29t29.5 12h10z" />
    <glyph glyph-name="asterisk" unicode="*" horiz-adv-x="517" 
d="M59 625.5q12 10.5 29 10.5q9 0 16 -3l114 -40v134q0 16 11.5 27t27.5 11q17 0 28 -11t11 -28v-137l38 14q50 19 71.5 26.5t26.5 7.5q17 0 28 -11t11 -28q0 -26 -33 -39l-111 -41l23 -30q39 -50 55.5 -72.5t16.5 -30.5q0 -16 -11 -27.5t-28 -11.5q-21 0 -32 14l-95 120
l-88 -109q-9 -11 -16.5 -16.5t-18.5 -5.5q-16 0 -27.5 11.5t-11.5 27.5q0 9 10 23t54 69l31 38l-117 43q-11 5 -18 14.5t-7 22.5q0 17 12 27.5z" />
    <glyph glyph-name="plus" unicode="+" horiz-adv-x="530" 
d="M456 427q16 0 27.5 -11.5t11.5 -28.5t-11.5 -28t-27.5 -11h-148v-151q0 -16 -12.5 -28t-29.5 -12t-30 12t-13 28v151h-148q-17 0 -28.5 11t-11.5 28t11.5 28.5t28.5 11.5h148v151q0 16 13 27.5t30 11.5t29.5 -11.5t12.5 -27.5v-151h148z" />
    <glyph glyph-name="comma" unicode="," horiz-adv-x="222" 
d="M115.5 -147q-12.5 -13 -31.5 -13q-20 0 -32.5 14t-12.5 34q0 8 1 12l28 169q3 19 15.5 31.5t30.5 12.5q20 0 32.5 -12t12.5 -35q0 -10 -1 -15l-27 -165q-3 -20 -15.5 -33z" />
    <glyph glyph-name="hyphen" unicode="-" horiz-adv-x="480" 
d="M82.5 238.5q-11.5 11.5 -11.5 27.5q0 17 11.5 28.5t27.5 11.5h259q17 0 28.5 -11.5t11.5 -28.5q0 -16 -11.5 -27.5t-28.5 -11.5h-259q-16 0 -27.5 11.5z" />
    <glyph glyph-name="period" unicode="." horiz-adv-x="195" 
d="M39.5 12q-17.5 17 -17.5 42t17.5 42t42.5 17q24 0 41.5 -17t17.5 -42t-17.5 -42t-41.5 -17q-25 0 -42.5 17z" />
    <glyph glyph-name="slash" unicode="/" horiz-adv-x="460" 
d="M37.5 -174.5q-10.5 10.5 -10.5 26.5q0 6 5 21l327 903q11 32 37 32q37 0 37 -34q0 -12 -4 -23l-330 -914q-4 -10 -14 -16t-21 -6q-16 0 -26.5 10.5z" />
    <glyph glyph-name="zero" unicode="0" horiz-adv-x="605" 
d="M128.5 700.5q57.5 68.5 173.5 68.5q117 0 175 -68.5t58 -190.5v-272q0 -115 -58.5 -184t-174.5 -69q-117 0 -174 66t-57 187v272q0 122 57.5 190.5zM200 115q31 -41 102 -41q72 0 103.5 41t31.5 116v286q0 84 -33 123.5t-102 39.5q-68 0 -100.5 -39.5t-32.5 -123.5v-286
q0 -75 31 -116z" />
    <glyph glyph-name="one" unicode="1" horiz-adv-x="377" 
d="M176 748q21 12 33 16.5t24 4.5q27 0 39 -14.5t12 -34.5v-686q0 -20 -14.5 -34.5t-34.5 -14.5t-34.5 14.5t-14.5 34.5v613l-99 -56q-12 -7 -24 -7q-19 0 -32.5 13.5t-13.5 31.5q0 26 29 43z" />
    <glyph glyph-name="two" unicode="2" horiz-adv-x="553" 
d="M458 448.5q-30 -58.5 -84 -123.5l-198 -237h290q18 0 31 -12.5t13 -30.5t-13 -31.5t-31 -13.5h-386q-13 0 -25 10.5t-12 31.5q0 14 6 24.5t23 30.5l240 290q77 93 77 172q0 57 -38.5 88.5t-107.5 31.5q-38 0 -66 -8.5t-61 -24.5q-14 -7 -25 -7q-18 0 -31 12.5t-13 31.5
q0 13 6.5 22t19.5 18q37 25 88 35.5t99 10.5q108 0 168 -51t60 -144q0 -67 -30 -125.5z" />
    <glyph glyph-name="three" unicode="3" horiz-adv-x="547" 
d="M219 433q72 0 118.5 31.5t46.5 95.5q0 60 -40.5 89.5t-108.5 29.5q-30 0 -54 -7.5t-48 -19.5q-26 -12 -36 -12q-18 0 -29.5 11t-11.5 30q0 13 6.5 22.5t19.5 18.5q34 24 76.5 35t87.5 11q103 0 166 -53.5t63 -143.5q0 -62 -30 -105t-80 -68q60 -22 92.5 -71t32.5 -113
q0 -66 -34.5 -118t-96 -81.5t-140.5 -29.5q-38 0 -79 7.5t-71 26.5q-26 16 -26 41q0 19 12.5 29.5t30.5 10.5q12 0 23 -6q22 -10 44 -15t58 -5q91 0 137.5 35.5t46.5 103.5q0 72 -47.5 103t-127.5 31h-31q-18 0 -31 12.5t-13 30.5t13 30.5t31 12.5h30z" />
    <glyph glyph-name="four" unicode="4" horiz-adv-x="566" 
d="M267 760.5q12 8.5 26 8.5q20 0 33.5 -12.5t13.5 -31.5q0 -13 -4 -22l-203 -464h215v158q0 20 14.5 34.5t34.5 14.5t34.5 -14.5t14.5 -34.5v-158h58q18 0 31 -12.5t13 -30.5t-13 -31.5t-31 -13.5h-58v-117q0 -20 -14.5 -34.5t-34.5 -14.5t-34.5 14.5t-14.5 34.5v117h-282
q-17 0 -29.5 12.5t-12.5 34.5q0 14 4.5 27.5t14.5 36.5l207 477q5 13 17 21.5z" />
    <glyph glyph-name="five" unicode="5" horiz-adv-x="552" 
d="M170 79q30 -6 65 -6q83 0 129.5 36.5t46.5 113.5q0 73 -42.5 108.5t-117.5 35.5q-40 0 -71 -9t-72 -27l-8 -2q-8 0 -14 6t-6 15v363q0 21 12 31.5t25 10.5h313q18 0 31 -13.5t13 -31.5t-13 -30.5t-31 -12.5h-259v-230q42 15 97 15q104 0 171 -54t67 -163
q0 -82 -38.5 -138.5t-102 -84t-136.5 -27.5q-37 0 -78 7.5t-71 26.5q-26 16 -26 41q0 19 12.5 29.5t30.5 10.5q12 0 23 -6q20 -9 50 -15z" />
    <glyph glyph-name="six" unicode="6" horiz-adv-x="558" 
d="M158 15.5q-55 30.5 -85.5 84t-30.5 119.5q0 46 17 90.5t31 70.5t17 32l153 324q7 15 19 24t28 9q20 0 34 -13t14 -33q0 -12 -7 -26l-121 -250q27 6 57 6q71 0 126 -30.5t85.5 -84t30.5 -119.5t-30.5 -119.5t-85.5 -84t-126 -30.5t-126 30.5zM177 322q-39 -41 -39 -103
q0 -61 39 -102.5t105 -41.5q65 0 104 41.5t39 102.5q0 62 -39 103t-104 41q-66 0 -105 -41z" />
    <glyph glyph-name="seven" unicode="7" horiz-adv-x="501" 
d="M130 55l239 612h-309q-18 0 -31 12.5t-13 30.5t13 31.5t31 13.5h374q16 0 30 -12t14 -40q0 -12 -8 -32.5t-11 -27.5l-237 -623q-6 -16 -17.5 -25.5t-29.5 -9.5q-20 0 -34.5 14.5t-14.5 34.5q0 9 4 21z" />
    <glyph glyph-name="eight" unicode="8" horiz-adv-x="583" 
d="M169.5 14q-53.5 29 -83 80t-29.5 115q0 61 27 109t76 77q-40 27 -62 70t-22 96q0 59 27 106.5t76.5 74.5t113.5 27t113.5 -27t76.5 -74.5t27 -106.5q0 -54 -22.5 -97.5t-63.5 -70.5q48 -28 74.5 -76t26.5 -108q0 -64 -29.5 -115t-83 -80t-121.5 -29t-121.5 29z
M203.5 647.5q-34.5 -36.5 -34.5 -89.5t34.5 -89.5t91.5 -36.5q56 0 91 36.5t35 89.5t-35 89.5t-91 36.5q-57 0 -91.5 -36.5zM193.5 308.5q-37.5 -39.5 -37.5 -97.5t37.5 -97.5t99.5 -39.5t100 39.5t38 97.5t-38 97.5t-100 39.5t-99.5 -39.5z" />
    <glyph glyph-name="nine" unicode="9" horiz-adv-x="559" 
d="M401 738.5q55 -30.5 85.5 -84t30.5 -119.5q0 -46 -17 -90.5t-31 -70.5t-17 -32l-153 -324q-7 -15 -19 -24t-28 -9q-20 0 -34 13t-14 33q0 12 7 26l121 250q-27 -6 -57 -6q-71 0 -126 30.5t-85.5 84t-30.5 119.5t30.5 119.5t85.5 84t126 30.5t126 -30.5zM382 432
q39 41 39 103q0 61 -39 102.5t-105 41.5q-65 0 -104 -41.5t-39 -102.5q0 -62 39 -103t104 -41q66 0 105 41z" />
    <glyph glyph-name="colon" unicode=":" horiz-adv-x="313" 
d="M106.5 20q-17.5 17 -17.5 42t17.5 42t42.5 17q24 0 41.5 -17t17.5 -42t-17.5 -42t-41.5 -17q-25 0 -42.5 17zM106.5 313q-17.5 17 -17.5 42t17.5 42t42.5 17q24 0 41.5 -17t17.5 -42t-17.5 -42t-41.5 -17q-25 0 -42.5 17z" />
    <glyph glyph-name="semicolon" unicode=";" horiz-adv-x="258" 
d="M100.5 533q14.5 14 34.5 14t35 -14t15 -33v-44q0 -19 -15 -32.5t-35 -13.5t-34.5 13.5t-14.5 32.5v44q0 19 14.5 33zM131.5 -147q-12.5 -13 -31.5 -13q-20 0 -32.5 14t-12.5 34q0 8 1 12l28 169q3 19 15.5 31.5t30.5 12.5q20 0 32.5 -12t12.5 -35q0 -10 -1 -15l-27 -165
q-3 -20 -15.5 -33z" />
    <glyph glyph-name="less" unicode="&#x3c;" horiz-adv-x="518" 
d="M436.5 152q-12.5 -12 -29.5 -12q-13 0 -25 7l-305 163q-23 13 -32 30.5t-9 42.5q0 26 8 42t35 31l301 166q3 1 10.5 5.5t16.5 4.5q17 0 29.5 -12.5t12.5 -29.5q0 -25 -29 -40l-311 -166l317 -164q10 -6 16.5 -16t6.5 -22q0 -18 -12.5 -30z" />
    <glyph glyph-name="equal" unicode="=" horiz-adv-x="606" 
d="M84.5 488q-11.5 11 -11.5 28t11.5 28.5t28.5 11.5h381q16 0 27.5 -11.5t11.5 -28.5t-11.5 -28t-27.5 -11h-381q-17 0 -28.5 11zM84.5 238q-11.5 11 -11.5 28t11.5 28.5t28.5 11.5h381q16 0 27.5 -11.5t11.5 -28.5t-11.5 -28t-27.5 -11h-381q-17 0 -28.5 11z" />
    <glyph glyph-name="greater" unicode="&#x3e;" horiz-adv-x="518" 
d="M98 550q-29 15 -29 40q0 17 12.5 29.5t29.5 12.5q9 0 16.5 -4.5t10.5 -5.5l301 -166q27 -15 35 -31t8 -42q0 -25 -9 -42.5t-32 -30.5l-305 -163q-12 -7 -25 -7q-17 0 -29.5 12t-12.5 30q0 12 6.5 22t16.5 16l317 164z" />
    <glyph glyph-name="question" unicode="?" horiz-adv-x="502" 
d="M452 483.5q-14 -32.5 -34 -53t-53 -46.5q-39 -31 -57 -54t-18 -58v-28q0 -20 -13.5 -34.5t-33.5 -14.5t-33 14t-13 35v13q0 42 13 72.5t32 50t51 45.5q28 23 44 39t27 39.5t11 54.5q0 62 -33.5 95.5t-92.5 33.5q-55 0 -90.5 -27t-35.5 -82v-10q0 -20 -13.5 -34.5
t-33.5 -14.5t-33 14t-13 35v10q0 56 28.5 99.5t78.5 67.5t110 24q102 0 160.5 -55.5t58.5 -152.5q0 -45 -14 -77.5zM213.5 108q14.5 14 34.5 14t35 -14t15 -33v-44q0 -19 -15 -32.5t-35 -13.5t-34.5 13.5t-14.5 32.5v44q0 19 14.5 33z" />
    <glyph glyph-name="at" unicode="@" horiz-adv-x="698" 
d="M459.5 -71.5q12.5 -12.5 12.5 -30.5t-12.5 -30.5t-30.5 -12.5h-70q-293 0 -293 316v216q0 128 70 195t214 67q263 0 263 -219v-295q0 -19 -13.5 -32.5t-33.5 -13.5q-19 0 -32.5 13.5t-13.5 32.5v17q-29 -37 -62 -52t-78 -15q-159 0 -159 154q0 88 49 128t150 40h100v18
q0 68 -45 105t-133 37q-93 0 -138 -38t-45 -130v-231q0 -95 32 -145t80 -66t112 -16h46q18 0 30.5 -12.5zM415 328q-41 0 -62 -7.5t-30 -25.5t-9 -53q0 -40 18 -59t59 -19q57 0 93 31.5t36 103.5v29h-105z" />
    <glyph glyph-name="A" unicode="A" horiz-adv-x="675" 
d="M171 188l-60 -167q-5 -14 -17.5 -23t-28.5 -9q-20 0 -34.5 14.5t-14.5 34.5q0 12 4 21l251 652q10 27 26.5 41.5t42.5 14.5q28 0 44 -14.5t25 -41.5l238 -645q5 -13 5 -24q0 -22 -16 -37.5t-38 -15.5q-18 0 -32 10.5t-19 27.5l-55 161h-321zM462 276l-126 368l-133 -368
h259z" />
    <glyph glyph-name="B" unicode="B" horiz-adv-x="676" 
d="M107.5 740.5q14.5 14.5 34.5 14.5h208q126 0 188.5 -52t62.5 -147q0 -60 -26.5 -99t-78.5 -63q59 -18 92.5 -63t33.5 -115q0 -95 -63 -155.5t-197 -60.5h-220q-20 0 -34.5 14.5t-14.5 34.5v657q0 20 14.5 34.5zM191 429h158q85 0 118 29t33 89q0 70 -42.5 95t-119.5 25
h-147v-238zM191 88h160q81 0 125 28.5t44 93.5q0 49 -15 77.5t-51 42t-100 13.5h-163v-255z" />
    <glyph glyph-name="C" unicode="C" horiz-adv-x="611" 
d="M540 103q20 0 32 -12t12 -30q0 -21 -23 -37q-28 -19 -79.5 -29t-100.5 -10q-94 0 -167 39t-114 116t-41 188v92q0 111 41.5 189.5t114 119t166.5 40.5q42 0 90 -8.5t78 -25.5q34 -19 34 -44q0 -18 -14 -31t-36 -13q-8 0 -28 9q-23 11 -50.5 18t-73.5 7q-62 0 -112 -28
t-79.5 -85.5t-29.5 -140.5v-106q0 -125 59.5 -186.5t161.5 -61.5q48 0 74 6t57 18q20 6 28 6z" />
    <glyph glyph-name="D" unicode="D" horiz-adv-x="699" 
d="M107.5 14.5q-14.5 14.5 -14.5 34.5v657q0 20 14.5 34.5t34.5 14.5h183q144 0 228.5 -85t84.5 -250v-92q0 -164 -84 -246t-229 -82h-183q-20 0 -34.5 14.5zM191 88h134q104 0 158.5 54.5t54.5 178.5v106q0 123 -58 181.5t-155 58.5h-134v-579z" />
    <glyph glyph-name="E" unicode="E" horiz-adv-x="604" 
d="M191 429h286q19 0 31.5 -12t12.5 -30t-13 -31t-31 -13h-286v-255h316q18 0 31 -13t13 -31t-13 -31t-31 -13h-365q-20 0 -34.5 14.5t-14.5 34.5v657q0 20 14.5 34.5t34.5 14.5h363q18 0 31 -13t13 -31t-13 -31t-31 -13h-314v-238z" />
    <glyph glyph-name="F" unicode="F" horiz-adv-x="580" 
d="M191 429h286q19 0 31.5 -12t12.5 -30t-13 -31t-31 -13h-286v-304q0 -20 -14.5 -34.5t-34.5 -14.5t-34.5 14.5t-14.5 34.5v667q0 20 14 34.5t35 14.5h363q18 0 31 -13t13 -31t-13 -31t-31 -13h-314v-238z" />
    <glyph glyph-name="G" unicode="G" horiz-adv-x="681" 
d="M391 -15q-94 0 -169.5 39t-119 116.5t-43.5 187.5v92q0 110 43.5 189t119 119.5t169.5 40.5q104 0 180 -38q11 -5 18.5 -16t7.5 -24q0 -18 -13 -31t-31 -13q-13 0 -25 7q-46 27 -137 27q-62 0 -114.5 -28.5t-84.5 -85.5t-32 -140v-106q0 -124 64 -186t167 -62
q71 0 129 14v243h-159q-18 0 -31 13t-13 31t13 31t31 13h213q18 0 31 -13t13 -31v-308q0 -31 -43 -48q-82 -33 -184 -33z" />
    <glyph glyph-name="H" unicode="H" horiz-adv-x="749" 
d="M641.5 4.5q-14.5 -14.5 -34.5 -14.5t-34.5 14.5t-14.5 34.5v301h-367v-301q0 -20 -14.5 -34.5t-34.5 -14.5t-34.5 14.5t-14.5 34.5v681q0 20 14.5 34.5t34.5 14.5t34.5 -14.5t14.5 -34.5v-289h367v289q0 20 14.5 34.5t34.5 14.5t34.5 -14.5t14.5 -34.5v-681
q0 -20 -14.5 -34.5z" />
    <glyph glyph-name="I" unicode="I" horiz-adv-x="284" 
d="M176.5 4.5q-14.5 -14.5 -34.5 -14.5t-34.5 14.5t-14.5 34.5v681q0 20 14.5 34.5t34.5 14.5t34.5 -14.5t14.5 -34.5v-681q0 -20 -14.5 -34.5z" />
    <glyph glyph-name="J" unicode="J" horiz-adv-x="481" 
d="M67 1q-15 4 -25 16t-10 27q0 18 11 31t29 13q4 0 24 -4q8 -1 30.5 -6t38.5 -5q39 0 66.5 8.5t45.5 36t18 81.5v468h-201q-18 0 -31 13t-13 31t13 31t31 13h255q18 0 31 -13.5t13 -32.5v-514q0 -102 -63 -156t-165 -54q-40 0 -98 16z" />
    <glyph glyph-name="K" unicode="K" horiz-adv-x="648" 
d="M308 429l211 316q17 25 41 25q19 0 32.5 -13.5t13.5 -32.5q0 -13 -12 -31l-207 -302l219 -319q13 -19 13 -33q0 -20 -14.5 -34.5t-34.5 -14.5q-25 0 -46 31l-217 322h-116v-304q0 -20 -14.5 -34.5t-34.5 -14.5t-34.5 14.5t-14.5 34.5v681q0 20 14.5 34.5t34.5 14.5
t34.5 -14.5t14.5 -34.5v-291h117z" />
    <glyph glyph-name="L" unicode="L" horiz-adv-x="514" 
d="M107.5 754.5q14.5 14.5 34.5 14.5t34.5 -14.5t14.5 -34.5v-632h272q18 0 31 -13t13 -31t-13 -31t-31 -13h-321q-20 0 -34.5 14.5t-14.5 34.5v671q0 20 14.5 34.5z" />
    <glyph glyph-name="M" unicode="M" horiz-adv-x="850" 
d="M424 305l225 424q11 21 25 30.5t35 9.5q20 0 34 -14.5t14 -34.5v-681q0 -20 -14 -34.5t-34 -14.5t-32.5 14t-12.5 35v530l-180 -337q-14 -26 -26 -37.5t-36 -11.5q-22 0 -33.5 11t-24.5 35l-178 332v-522q0 -20 -14 -34.5t-34 -14.5t-32.5 14t-12.5 35v681
q0 20 14.5 34.5t34.5 14.5q21 0 35 -9.5t25 -30.5z" />
    <glyph glyph-name="N" unicode="N" horiz-adv-x="739" 
d="M186 40q0 -20 -14 -34.5t-34 -14.5t-32.5 14t-12.5 35v680q0 20 14.5 34.5t34.5 14.5t33 -9t27 -31l351 -554v545q0 21 12.5 35t32.5 14t34 -14.5t14 -34.5v-680q0 -20 -14.5 -34.5t-34.5 -14.5t-33 9t-27 31l-351 558v-549z" />
    <glyph glyph-name="O" unicode="O" horiz-adv-x="727" 
d="M141.5 678.5q80.5 90.5 221.5 90.5q93 0 161 -40t105 -118.5t37 -190.5v-92q0 -167 -80.5 -255t-222.5 -88t-222 88t-80 255v92q0 168 80.5 258.5zM213 133.5q51 -60.5 150 -60.5q100 0 151.5 60.5t51.5 187.5v106q0 126 -54.5 190t-148.5 64q-93 0 -147 -64t-54 -190
v-106q0 -127 51 -187.5z" />
    <glyph glyph-name="P" unicode="P" horiz-adv-x="635" 
d="M191 283v-243q0 -20 -14.5 -34.5t-34.5 -14.5t-34.5 14.5t-14.5 34.5v666q0 20 14.5 34.5t34.5 14.5h208q83 0 139.5 -30.5t84 -82.5t27.5 -116q0 -109 -63.5 -176t-183.5 -67h-163zM191 369h158q83 0 117 41.5t34 106.5q0 76 -40 113t-122 37h-147v-298z" />
    <glyph glyph-name="Q" unicode="Q" horiz-adv-x="727" 
d="M141.5 678.5q80.5 90.5 221.5 90.5q93 0 161 -40t105 -118.5t37 -190.5v-92q0 -94 -26 -163t-75 -112l49 -71q12 -18 12 -30q0 -18 -13 -31t-31 -13q-22 0 -40 25l-52 74q-58 -22 -127 -22q-142 0 -222 88t-80 255v92q0 168 80.5 258.5zM387 221q13 13 31 13q23 0 39 -25
l54 -79q55 61 55 191v106q0 126 -54.5 190t-148.5 64q-93 0 -147 -64t-54 -190v-106q0 -127 51 -187.5t150 -60.5q42 0 75 10l-57 83q-7 10 -7 24q0 18 13 31z" />
    <glyph glyph-name="R" unicode="R" horiz-adv-x="663" 
d="M603 67q1 -3 5 -11t4 -17q0 -17 -13.5 -32.5t-39.5 -15.5q-31 0 -43 25l-143 307h-182v-283q0 -20 -14.5 -34.5t-34.5 -14.5t-34.5 14.5t-14.5 34.5v666q0 20 14.5 34.5t34.5 14.5h208q126 0 188.5 -56.5t62.5 -157.5q0 -74 -33.5 -125.5t-98.5 -74.5zM191 409h158
q85 0 118 33.5t33 95.5q0 73 -38.5 101t-123.5 28h-147v-258z" />
    <glyph glyph-name="S" unicode="S" horiz-adv-x="607" 
d="M102 116q8 0 36 -11q41 -15 75.5 -23.5t84.5 -8.5q76 0 121.5 38t45.5 107q0 55 -37 82t-127 38l-50 6q-93 11 -145.5 64.5t-52.5 140.5q0 103 72.5 160.5t191.5 57.5q55 0 109.5 -12.5t81.5 -34.5q20 -17 20 -34q0 -19 -13 -32t-31 -13q-9 0 -35 11q-33 14 -62 22t-74 8
q-82 0 -123 -33t-41 -102q0 -39 14.5 -62.5t46 -36t87.5 -19.5l50 -6q102 -12 159 -60.5t57 -144.5q0 -111 -77.5 -170t-211.5 -59q-52 0 -103.5 11t-81.5 29q-32 19 -32 43q0 18 13 31t32 13z" />
    <glyph glyph-name="T" unicode="T" horiz-adv-x="608" 
d="M358 40q0 -20 -14.5 -34.5t-34.5 -14.5t-34.5 14.5t-14.5 34.5v624h-207q-18 0 -31 13.5t-13 31.5t13 32t31 14h502q18 0 31 -14t13 -32t-13 -31.5t-31 -13.5h-197v-624z" />
    <glyph glyph-name="U" unicode="U" horiz-adv-x="755" 
d="M586.5 754.5q14.5 14.5 34.5 14.5t34.5 -14.5t14.5 -34.5v-392q0 -168 -76.5 -255.5t-216.5 -87.5t-216 87.5t-76 255.5v392q0 20 15 34.5t35 14.5t34.5 -14.5t14.5 -34.5v-399q0 -129 47.5 -188.5t145.5 -59.5q99 0 147 59.5t48 188.5v399q0 20 14.5 34.5z" />
    <glyph glyph-name="V" unicode="V" horiz-adv-x="648" 
d="M35 692q-5 13 -5 24q0 22 16 37.5t38 15.5q18 0 32 -10.5t19 -27.5l188 -601l205 607q5 14 17.5 23t28.5 9q20 0 34.5 -14.5t14.5 -34.5q0 -7 -4 -21l-231 -651q-10 -30 -24 -44t-43 -14q-45 0 -65 57z" />
    <glyph glyph-name="W" unicode="W" horiz-adv-x="986" 
d="M563 360l-68 248l-72 -237l-100 -326q-9 -27 -22.5 -41t-41.5 -14q-22 0 -35.5 13t-20.5 41l-161 648q-4 20 -4 29q0 21 15.5 34.5t38.5 13.5q18 0 32.5 -11t17.5 -27l125 -590l176 571q17 57 56 57q26 0 39 -14.5t19 -38.5l154 -586l152 607q5 14 17.5 23t28.5 9
q20 0 34.5 -14.5t14.5 -34.5q0 -7 -4 -21l-181 -653q-8 -28 -21 -42t-39 -14t-41 13.5t-23 41.5z" />
    <glyph glyph-name="X" unicode="X" horiz-adv-x="618" 
d="M59.5 754.5q14.5 14.5 34.5 14.5q13 0 24 -6t17 -16l176 -290l178 284q18 28 42 28q20 0 33 -13t13 -33q0 -12 -11 -29l-198 -304l207 -319q12 -20 12 -32q0 -20 -14.5 -34.5t-34.5 -14.5q-14 0 -26 8t-19 20l-185 298l-191 -297q-18 -29 -43 -29q-19 0 -33 14t-14 33
q0 15 11 31l213 316l-193 302q-5 8 -9 16.5t-4 17.5q0 20 14.5 34.5z" />
    <glyph glyph-name="Y" unicode="Y" horiz-adv-x="603" 
d="M349 40q0 -20 -14.5 -34.5t-34.5 -14.5t-34.5 14.5t-14.5 34.5v246l-211 406q-7 14 -7 28q0 21 15 35t38 14q33 0 51 -38l166 -346l181 352q7 14 19 23t27 9q20 0 33 -12t13 -30q0 -12 -6 -24l-221 -420v-243z" />
    <glyph glyph-name="Z" unicode="Z" horiz-adv-x="616" 
d="M88 664q-18 0 -31 14t-13 32t13 31.5t31 13.5h450q16 0 30 -12t14 -40q0 -26 -23 -57l-404 -555h374q18 0 31 -14t13 -32t-13 -31.5t-31 -13.5h-451q-16 0 -30 12t-14 40q0 26 23 57l406 555h-375z" />
    <glyph glyph-name="bracketleft" unicode="[" horiz-adv-x="314" 
d="M100.5 868.5q12.5 12.5 29.5 12.5h111q17 0 29.5 -12.5t12.5 -29.5t-12.5 -29t-29.5 -12h-60v-872h60q17 0 29.5 -12.5t12.5 -29.5t-12.5 -29t-29.5 -12h-111q-18 0 -30 13t-12 34v949q0 17 12.5 29.5z" />
    <glyph glyph-name="backslash" unicode="\" horiz-adv-x="460" 
d="M31 751q-1 2 -3 8t-2 11q0 16 11 27t27 11q26 0 37 -32l327 -903q5 -15 5 -21q0 -16 -10.5 -26.5t-26.5 -10.5q-11 0 -21 6t-14 16z" />
    <glyph glyph-name="bracketright" unicode="]" horiz-adv-x="314" 
d="M73 -157q-17 0 -29.5 12t-12.5 29t12.5 29.5t29.5 12.5h60v872h-60q-17 0 -29.5 12t-12.5 29t12.5 29.5t29.5 12.5h111q17 0 29.5 -12.5t12.5 -29.5v-949q0 -21 -12 -34t-30 -13h-111z" />
    <glyph glyph-name="asciicircum" unicode="^" horiz-adv-x="553" 
d="M91 397q-19 0 -32.5 13.5t-13.5 32.5q0 12 12 32l142 235q19 31 33 43t42 12q27 0 41 -11.5t33 -41.5l148 -237q12 -20 12 -32q0 -19 -13.5 -32.5t-33.5 -13.5q-14 0 -24 8t-19 22l-146 239l-138 -242q-16 -27 -43 -27z" />
    <glyph glyph-name="underscore" unicode="_" horiz-adv-x="523" 
d="M78 -199q-16 0 -27.5 11.5t-11.5 28.5t11.5 28.5t27.5 11.5h367q17 0 28.5 -12t11.5 -28q0 -17 -11.5 -28.5t-28.5 -11.5h-367z" />
    <glyph glyph-name="grave" unicode="`" horiz-adv-x="458" 
d="M272 637l-53 84q-1 1 -6 9t-5 17q0 15 11 26t26 11q19 0 34 -22l55 -86q9 -14 9 -24q0 -16 -10.5 -26.5t-26.5 -10.5q-19 0 -34 22z" />
    <glyph glyph-name="a" unicode="a" horiz-adv-x="550" 
d="M224 -15q-90 0 -134.5 40t-44.5 114q0 88 56.5 128t172.5 40h110v12q0 49 -11 80.5t-41.5 49t-87.5 17.5q-31 0 -61 -10.5t-54 -28.5q-15 -11 -30 -11q-18 0 -29 11t-11 29q0 22 18 35q37 27 77.5 42.5t106.5 15.5q83 0 130 -24t66.5 -72.5t19.5 -128.5v-293
q0 -19 -13.5 -32.5t-33.5 -13.5q-19 0 -32.5 13.5t-13.5 32.5v27q-52 -73 -160 -73zM269 228q-51 0 -79 -7.5t-40 -26t-12 -52.5q0 -78 97 -78q60 0 104.5 32.5t44.5 102.5v29h-115z" />
    <glyph glyph-name="b" unicode="b" horiz-adv-x="608" 
d="M91.5 755.5q13.5 13.5 32.5 13.5q20 0 33.5 -13.5t13.5 -33.5v-257q28 39 69.5 61.5t95.5 22.5q105 0 161.5 -69.5t56.5 -179.5v-66q0 -116 -56.5 -182.5t-161.5 -66.5q-104 0 -165 94v-48q0 -19 -13.5 -32.5t-33.5 -13.5q-19 0 -32.5 13.5t-13.5 32.5v691
q0 20 13.5 33.5zM171 229q0 -40 20.5 -77.5t55.5 -61t76 -23.5q65 0 101.5 43t36.5 119v76q0 76 -37.5 119t-102.5 43q-36 0 -68.5 -19t-54.5 -51.5t-27 -71.5v-96z" />
    <glyph glyph-name="c" unicode="c" horiz-adv-x="496" 
d="M451.5 508.5q6.5 -10.5 6.5 -22.5q0 -17 -12.5 -29t-29.5 -12q-10 0 -20 5q-39 17 -98 17q-72 0 -111.5 -41.5t-39.5 -120.5v-76q0 -76 39 -119t108 -43q59 0 106 26q10 7 23 7q17 0 29.5 -12.5t12.5 -29.5q0 -12 -6 -21.5t-16 -14.5q-63 -37 -151 -37q-71 0 -124.5 30.5
t-83.5 87t-30 131.5v66q0 111 62 180t183 69q79 0 135 -25q11 -5 17.5 -15.5z" />
    <glyph glyph-name="d" unicode="d" horiz-adv-x="609" 
d="M272 -15q-105 0 -161.5 66.5t-56.5 182.5v66q0 110 56.5 179.5t161.5 69.5q54 0 95.5 -22.5t70.5 -62.5v258q0 20 13.5 33.5t32.5 13.5q20 0 33.5 -13.5t13.5 -33.5v-691q0 -19 -13.5 -32.5t-33.5 -13.5q-19 0 -32.5 13.5t-13.5 32.5v49q-63 -95 -166 -95zM438 306
q0 43 -21.5 80t-56 59t-73.5 22q-65 0 -102.5 -43t-37.5 -119v-76q0 -76 36.5 -119t101.5 -43q41 0 76 23.5t55.5 61t20.5 77.5l1 -1v78z" />
    <glyph glyph-name="e" unicode="e" horiz-adv-x="561" 
d="M174 14q-56 29 -88 85t-32 135v66q0 75 29.5 131.5t81 87t117.5 30.5q103 0 166 -61t63 -178v-45q0 -17 -10 -27.5t-27 -10.5h-327q1 -75 46 -117.5t118 -42.5q31 0 67.5 6t61.5 18q12 5 24 5q16 0 27.5 -9.5t11.5 -28.5q0 -12 -6 -21.5t-16 -14.5q-29 -17 -79 -27
t-100 -10q-72 0 -128 29zM418 306v9q0 75 -35.5 113.5t-100.5 38.5q-64 0 -99.5 -42.5t-35.5 -118.5h271z" />
    <glyph glyph-name="f" unicode="f" horiz-adv-x="357" 
d="M80 452q-17 0 -29 12t-12 29t12 29.5t29 12.5h22v44q0 90 50 140t147 50q15 0 26 -4q30 -11 30 -39q0 -17 -12.5 -29t-29.5 -12l-23 1q-43 0 -69 -29t-26 -84v-38h107q17 0 29 -12.5t12 -29.5t-12 -29t-29 -12h-107v-421q0 -19 -13.5 -32.5t-33.5 -13.5q-19 0 -32.5 13.5
t-13.5 32.5v421h-22z" />
    <glyph glyph-name="g" unicode="g" horiz-adv-x="607" 
d="M83 -185.5q-6 10.5 -6 22.5q0 20 12 30.5t29 10.5q10 0 20 -5q28 -12 64.5 -18t67.5 -6q92 0 129.5 45.5t37.5 130.5v54q-63 -94 -165 -94q-105 0 -161.5 66.5t-56.5 182.5v66q0 110 56.5 179.5t161.5 69.5t165 -84v37q0 20 13.5 33.5t32.5 13.5q20 0 33.5 -13.5
t13.5 -33.5v-483q0 -73 -29 -130t-87.5 -90t-145.5 -33q-51 0 -96 8t-73 25q-10 5 -16 15.5zM410 396.5q-22 32.5 -54.5 51.5t-68.5 19q-65 0 -102.5 -43t-37.5 -119v-76q0 -76 36.5 -119t101.5 -43q41 0 76 23.5t55.5 61t20.5 77.5v96q-5 39 -27 71.5z" />
    <glyph glyph-name="h" unicode="h" horiz-adv-x="608" 
d="M91.5 755.5q13.5 13.5 32.5 13.5q20 0 33.5 -13.5t13.5 -33.5v-254q29 39 71 60t97 21q99 0 147.5 -57.5t48.5 -165.5v-295q0 -19 -13.5 -32.5t-33.5 -13.5q-19 0 -32.5 13.5t-13.5 32.5v288q0 72 -36 107.5t-90 35.5q-38 0 -71.5 -17.5t-53.5 -51.5t-20 -80v-282
q0 -19 -13.5 -32.5t-33.5 -13.5q-19 0 -32.5 13.5t-13.5 32.5v691q0 20 13.5 33.5z" />
    <glyph glyph-name="i" unicode="i" horiz-adv-x="247" 
d="M90.5 756.5q13.5 13.5 32.5 13.5q20 0 33.5 -13.5t13.5 -33.5v-54q0 -19 -13.5 -32.5t-33.5 -13.5q-19 0 -32.5 13.5t-13.5 32.5v54q0 20 13.5 33.5zM90.5 535.5q13.5 13.5 32.5 13.5q20 0 33.5 -13.5t13.5 -33.5v-471q0 -19 -13.5 -32.5t-33.5 -13.5q-19 0 -32.5 13.5
t-13.5 32.5v471q0 20 13.5 33.5z" />
    <glyph glyph-name="j" unicode="j" horiz-adv-x="257" 
d="M99.5 756.5q13.5 13.5 32.5 13.5q20 0 33.5 -13.5t13.5 -33.5v-54q0 -19 -13.5 -32.5t-33.5 -13.5q-19 0 -32.5 13.5t-13.5 32.5v54q0 20 13.5 33.5zM-40 -219.5q-11 11.5 -11 27.5q0 17 12.5 29.5t29.5 12.5l23 -1q40 0 56 26t16 87v540q0 20 13.5 33.5t32.5 13.5
q20 0 33.5 -13.5t13.5 -33.5v-546q0 -91 -37 -140.5t-129 -49.5q-17 0 -25 1q-17 2 -28 13.5z" />
    </font>
</defs>
</svg>
