<?xml version="1.0" standalone="no"?>
<!DOCTYPE svg PUBLIC "-//W3C//DTD SVG 1.1//EN" "http://www.w3.org/Graphics/SVG/1.1/DTD/svg11.dtd" >
<svg xmlns="http://www.w3.org/2000/svg" xmlns:xlink="http://www.w3.org/1999/xlink" version="1.1">
<metadata>
Created by FontForge 20190801 at Thu May 18 09:24:37 2017
 By Jimmy Wärting
Copyright, 2018 tptq-arabic.com All rights reserved. For exclusive use on TPTQ Arabic Web Font servers.
</metadata>
<defs>
<font id="TeshrinAR+LT-Medium" horiz-adv-x="600" >
  <font-face 
    font-family="Teshrin AR+LT Medium"
    font-weight="500"
    font-stretch="normal"
    units-per-em="1000"
    panose-1="2 0 0 0 0 0 0 0 0 0"
    ascent="780"
    descent="-220"
    x-height="539"
    cap-height="769"
    bbox="-204 -549.118 2429 1022"
    underline-thickness="50"
    underline-position="-100"
    unicode-range="U+000D-1F6CF"
  />
<missing-glyph horiz-adv-x="712" 
d="M107 702v-27h-27v27h27zM182 702v-27h-27v27h27zM257 702v-27h-27v27h27zM332 702v-27h-27v27h27zM407 702v-27h-27v27h27zM482 702v-27h-27v27h27zM557 702v-27h-27v27h27zM632 702v-27h-27v27h27zM107 627v-27h-27v27h27zM632 627v-27h-27v27h27zM107 552v-27h-27v27
h27zM257 552v-27h-27v27h27zM332 552v-27h-27v27h27zM407 552v-27h-27v27h27zM482 552v-27h-27v27h27zM632 552v-27h-27v27h27zM107 477v-27h-27v27h27zM482 477v-27h-27v27h27zM632 477v-27h-27v27h27zM107 402v-27h-27v27h27zM332 402v-27h-27v27h27zM407 402v-27h-27v27
h27zM482 402v-27h-27v27h27zM632 402v-27h-27v27h27zM107 327v-27h-27v27h27zM332 327v-27h-27v27h27zM632 327v-27h-27v27h27zM107 252v-27h-27v27h27zM632 252v-27h-27v27h27zM107 177v-27h-27v27h27zM332 177v-27h-27v27h27zM632 177v-27h-27v27h27zM107 102v-27h-27v27
h27zM632 102v-27h-27v27h27zM107 27v-27h-27v27h27zM182 27v-27h-27v27h27zM257 27v-27h-27v27h27zM332 27v-27h-27v27h27zM407 27v-27h-27v27h27zM482 27v-27h-27v27h27zM557 27v-27h-27v27h27zM632 27v-27h-27v27h27z" />
    <glyph glyph-name="uniFC03" unicode="&#xfe8b;&#xfef0;" horiz-adv-x="788" arabic-form="isolated" 
d="M714.5 112.5q-27.5 -53.5 -79.5 -78.5q38 -36 38 -95q0 -67 -39 -118t-112.5 -79t-174.5 -28q-163 0 -240.5 69.5t-77.5 216.5q0 46 9 86t21 69q7 17 19.5 27t27.5 10q7 0 11 -1q31 -7 31 -40q0 -10 -3 -21q-21 -63 -21 -122q1 -64 23 -101t72.5 -53.5t137.5 -16.5
q111 0 172.5 28t61.5 76q0 30 -31.5 46.5t-81.5 22.5q-25 4 -39.5 19.5t-14.5 39.5q0 27 15.5 42t42.5 15q13 0 21 -1l43 -1q58 0 82 28t24 90q0 50 -10 110l-1 9q0 20 13 32t31 12q39 0 48 -47q9 -51 9 -114q0 -78 -27.5 -131.5zM773.5 536.5q8.5 -8.5 8.5 -22.5
q0 -27 -26 -31q-31 -6 -112 -13l-31 -3q-19 -1 -29 8t-10 25q0 29 32 32l6 1q-18 16 -18 42q0 43 27.5 67t67.5 24q24 0 43 -8q24 -12 24 -34q0 -14 -7 -22t-19 -8q-5 0 -8 1q-15 3 -31 3q-22 0 -34 -6t-12 -23q0 -16 8 -22t31 -6q14 0 38 2q20 2 27 2q16 0 24.5 -8.5z" />
    <glyph glyph-name="uniFC04" unicode="&#xfe8b;&#xfef2;" horiz-adv-x="788" arabic-form="isolated" 
d="M714.5 112.5q-27.5 -53.5 -79.5 -78.5q38 -36 38 -95q0 -67 -39 -118t-112.5 -79t-174.5 -28q-163 0 -240.5 69.5t-77.5 216.5q0 46 9 86t21 69q7 17 19.5 27t27.5 10q7 0 11 -1q31 -7 31 -40q0 -10 -3 -21q-21 -63 -21 -122q1 -64 23 -101t72.5 -53.5t137.5 -16.5
q111 0 172.5 28t61.5 76q0 30 -31.5 46.5t-81.5 22.5q-25 4 -39.5 19.5t-14.5 39.5q0 27 15.5 42t42.5 15q13 0 21 -1l43 -1q58 0 82 28t24 90q0 50 -10 110l-1 9q0 20 13 32t31 12q39 0 48 -47q9 -51 9 -114q0 -78 -27.5 -131.5zM773.5 536.5q8.5 -8.5 8.5 -22.5
q0 -27 -26 -31q-31 -6 -112 -13l-31 -3q-19 -1 -29 8t-10 25q0 29 32 32l6 1q-18 16 -18 42q0 43 27.5 67t67.5 24q24 0 43 -8q24 -12 24 -34q0 -14 -7 -22t-19 -8q-5 0 -8 1q-15 3 -31 3q-22 0 -34 -6t-12 -23q0 -16 8 -22t31 -6q14 0 38 2q20 2 27 2q16 0 24.5 -8.5z
M253 -443.5q-15 15.5 -15 35.5t15 35t35 15t35.5 -15t15.5 -35t-15 -35.5t-36 -15.5q-20 0 -35 15.5zM370.5 -444q-14.5 15 -14.5 36q0 20 15 35t35 15t35.5 -15t15.5 -35t-15 -35.5t-36 -15.5t-35.5 15z" />
    <glyph glyph-name="uniFC09" unicode="&#xfe91;&#xfef0;" horiz-adv-x="788" arabic-form="isolated" 
d="M714.5 112.5q-27.5 -53.5 -79.5 -78.5q38 -36 38 -95q0 -67 -39 -118t-112.5 -79t-174.5 -28q-163 0 -240.5 69.5t-77.5 216.5q0 46 9 86t21 69q7 17 19.5 27t27.5 10q7 0 11 -1q31 -7 31 -40q0 -10 -3 -21q-21 -63 -21 -122q1 -64 23 -101t72.5 -53.5t137.5 -16.5
q111 0 172.5 28t61.5 76q0 30 -31.5 46.5t-81.5 22.5q-25 4 -39.5 19.5t-14.5 39.5q0 27 15.5 42t42.5 15q13 0 21 -1l43 -1q58 0 82 28t24 90q0 50 -10 110l-1 9q0 20 13 32t31 12q39 0 48 -47q9 -51 9 -114q0 -78 -27.5 -131.5zM610.5 -410.5q-16.5 16.5 -16.5 39.5
t16.5 39.5t39.5 16.5t39.5 -16.5t16.5 -39.5t-16.5 -39.5t-39.5 -17.5q-23 1 -39.5 17.5z" />
    <glyph glyph-name="uniFC0A" unicode="&#xfe91;&#xfef2;" horiz-adv-x="788" arabic-form="isolated" 
d="M714.5 112.5q-27.5 -53.5 -79.5 -78.5q38 -36 38 -95q0 -67 -39 -118t-112.5 -79t-174.5 -28q-163 0 -240.5 69.5t-77.5 216.5q0 46 9 86t21 69q7 17 19.5 27t27.5 10q7 0 11 -1q31 -7 31 -40q0 -10 -3 -21q-21 -63 -21 -122q1 -64 23 -101t72.5 -53.5t137.5 -16.5
q111 0 172.5 28t61.5 76q0 30 -31.5 46.5t-81.5 22.5q-25 4 -39.5 19.5t-14.5 39.5q0 27 15.5 42t42.5 15q13 0 21 -1l43 -1q58 0 82 28t24 90q0 50 -10 110l-1 9q0 20 13 32t31 12q39 0 48 -47q9 -51 9 -114q0 -78 -27.5 -131.5zM610.5 -410.5q-16.5 16.5 -16.5 39.5
t16.5 39.5t39.5 16.5t39.5 -16.5t16.5 -39.5t-16.5 -39.5t-39.5 -17.5q-23 1 -39.5 17.5zM253 -443.5q-15 15.5 -15 35.5t15 35t35 15t35.5 -15t15.5 -35t-15 -35.5t-36 -15.5q-20 0 -35 15.5zM370.5 -444q-14.5 15 -14.5 36q0 20 15 35t35 15t35.5 -15t15.5 -35t-15 -35.5
t-36 -15.5t-35.5 15z" />
    <glyph glyph-name="uniFC0F" unicode="&#xfe97;&#xfef0;" horiz-adv-x="788" arabic-form="isolated" 
d="M714.5 112.5q-27.5 -53.5 -79.5 -78.5q38 -36 38 -95q0 -67 -39 -118t-112.5 -79t-174.5 -28q-163 0 -240.5 69.5t-77.5 216.5q0 46 9 86t21 69q7 17 19.5 27t27.5 10q7 0 11 -1q31 -7 31 -40q0 -10 -3 -21q-21 -63 -21 -122q1 -64 23 -101t72.5 -53.5t137.5 -16.5
q111 0 172.5 28t61.5 76q0 30 -31.5 46.5t-81.5 22.5q-25 4 -39.5 19.5t-14.5 39.5q0 27 15.5 42t42.5 15q13 0 21 -1l43 -1q58 0 82 28t24 90q0 50 -10 110l-1 9q0 20 13 32t31 12q39 0 48 -47q9 -51 9 -114q0 -78 -27.5 -131.5zM588 503.5q-15 15.5 -15 36.5t15 36t36 15
t36.5 -15t15.5 -36t-15 -36.5t-37 -15.5q-21 0 -36 15.5zM709 503.5q-15 15.5 -15 36.5t15.5 36t35.5 15q21 0 37 -15t16 -36t-15.5 -36.5t-37.5 -15.5q-21 0 -36 15.5z" />
    <glyph glyph-name="uniFC10" unicode="&#xfe97;&#xfef2;" horiz-adv-x="788" arabic-form="isolated" 
d="M714.5 112.5q-27.5 -53.5 -79.5 -78.5q38 -36 38 -95q0 -67 -39 -118t-112.5 -79t-174.5 -28q-163 0 -240.5 69.5t-77.5 216.5q0 46 9 86t21 69q7 17 19.5 27t27.5 10q7 0 11 -1q31 -7 31 -40q0 -10 -3 -21q-21 -63 -21 -122q1 -64 23 -101t72.5 -53.5t137.5 -16.5
q111 0 172.5 28t61.5 76q0 30 -31.5 46.5t-81.5 22.5q-25 4 -39.5 19.5t-14.5 39.5q0 27 15.5 42t42.5 15q13 0 21 -1l43 -1q58 0 82 28t24 90q0 50 -10 110l-1 9q0 20 13 32t31 12q39 0 48 -47q9 -51 9 -114q0 -78 -27.5 -131.5zM588 503.5q-15 15.5 -15 36.5t15 36t36 15
t36.5 -15t15.5 -36t-15 -36.5t-37 -15.5q-21 0 -36 15.5zM709 503.5q-15 15.5 -15 36.5t15.5 36t35.5 15q21 0 37 -15t16 -36t-15.5 -36.5t-37.5 -15.5q-21 0 -36 15.5zM253 -443.5q-15 15.5 -15 35.5t15 35t35 15t35.5 -15t15.5 -35t-15 -35.5t-36 -15.5q-20 0 -35 15.5z
M370.5 -444q-14.5 15 -14.5 36q0 20 15 35t35 15t35.5 -15t15.5 -35t-15 -35.5t-36 -15.5t-35.5 15z" />
    <glyph glyph-name="uniFC13" unicode="&#xfe9b;&#xfef0;" horiz-adv-x="788" arabic-form="isolated" 
d="M714.5 112.5q-27.5 -53.5 -79.5 -78.5q38 -36 38 -95q0 -67 -39 -118t-112.5 -79t-174.5 -28q-163 0 -240.5 69.5t-77.5 216.5q0 46 9 86t21 69q7 17 19.5 27t27.5 10q7 0 11 -1q31 -7 31 -40q0 -10 -3 -21q-21 -63 -21 -122q1 -64 23 -101t72.5 -53.5t137.5 -16.5
q111 0 172.5 28t61.5 76q0 30 -31.5 46.5t-81.5 22.5q-25 4 -39.5 19.5t-14.5 39.5q0 27 15.5 42t42.5 15q13 0 21 -1l43 -1q58 0 82 28t24 90q0 50 -10 110l-1 9q0 20 13 32t31 12q39 0 48 -47q9 -51 9 -114q0 -78 -27.5 -131.5zM720.5 686.5q14.5 -14.5 14.5 -34.5
q0 -19 -14.5 -33.5t-34.5 -14.5q-19 0 -33.5 14.5t-14.5 33.5q0 20 14 34.5t34 14.5t34.5 -14.5zM662 575q15 -15 15 -36t-15.5 -36t-36.5 -15q-20 0 -35.5 15t-15.5 36q0 20 15.5 35.5t35.5 15.5q22 0 37 -15zM781 574.5q15 -15.5 15 -35.5q0 -21 -15.5 -36t-35.5 -15
q-21 0 -36 15t-15 36t15 36t36 15t36 -15.5z" />
    <glyph glyph-name="uniFC14" unicode="&#xfe9b;&#xfef2;" horiz-adv-x="788" arabic-form="isolated" 
d="M714.5 112.5q-27.5 -53.5 -79.5 -78.5q38 -36 38 -95q0 -67 -39 -118t-112.5 -79t-174.5 -28q-163 0 -240.5 69.5t-77.5 216.5q0 46 9 86t21 69q7 17 19.5 27t27.5 10q7 0 11 -1q31 -7 31 -40q0 -10 -3 -21q-21 -63 -21 -122q1 -64 23 -101t72.5 -53.5t137.5 -16.5
q111 0 172.5 28t61.5 76q0 30 -31.5 46.5t-81.5 22.5q-25 4 -39.5 19.5t-14.5 39.5q0 27 15.5 42t42.5 15q13 0 21 -1l43 -1q58 0 82 28t24 90q0 50 -10 110l-1 9q0 20 13 32t31 12q39 0 48 -47q9 -51 9 -114q0 -78 -27.5 -131.5zM720.5 686.5q14.5 -14.5 14.5 -34.5
q0 -19 -14.5 -33.5t-34.5 -14.5q-19 0 -33.5 14.5t-14.5 33.5q0 20 14 34.5t34 14.5t34.5 -14.5zM662 575q15 -15 15 -36t-15.5 -36t-36.5 -15q-20 0 -35.5 15t-15.5 36q0 20 15.5 35.5t35.5 15.5q22 0 37 -15zM781 574.5q15 -15.5 15 -35.5q0 -21 -15.5 -36t-35.5 -15
q-21 0 -36 15t-15 36t15 36t36 15t36 -15.5zM253 -443.5q-15 15.5 -15 35.5t15 35t35 15t35.5 -15t15.5 -35t-15 -35.5t-36 -15.5q-20 0 -35 15.5zM370.5 -444q-14.5 15 -14.5 36q0 20 15 35t35 15t35.5 -15t15.5 -35t-15 -35.5t-36 -15.5t-35.5 15z" />
    <glyph glyph-name="uniFC31" unicode="&#xfed3;&#xfef0;" horiz-adv-x="829" arabic-form="isolated" 
d="M740.5 486.5q43.5 -67.5 43.5 -173.5v-60q0 -86 -33.5 -142t-112.5 -79q35 -37 35 -95q0 -67 -39 -117t-112.5 -78t-174.5 -28q-163 0 -240.5 69.5t-77.5 216.5q0 88 35 158q19 37 49 37q6 0 10 -1q14 -5 22.5 -16t8.5 -26q0 -10 -4 -21q-26 -63 -26 -123q1 -64 23 -101
t72.5 -53.5t137.5 -16.5q111 0 172.5 28t61.5 76q0 28 -34.5 42t-105.5 22q-57 6 -57 60q0 24 18 39t45 15q18 -1 57 -1q94 0 142 24t48 82v41q-27 -66 -123 -66q-147 0 -147 157q0 56 21.5 101t61.5 71t93 26q87 0 130.5 -67.5zM704 326v2q-1 43 -24 76t-77 33
q-40 0 -65.5 -21.5t-25.5 -56.5q0 -34 19.5 -47.5t67.5 -13.5q90 0 105 28zM570.5 662q-16.5 17 -16.5 40t16.5 39.5t39.5 16.5t39.5 -16.5t16.5 -39.5t-16.5 -40t-39.5 -17t-39.5 17z" />
    <glyph glyph-name="uniFC32" unicode="&#xfed3;&#xfef2;" horiz-adv-x="829" arabic-form="isolated" 
d="M740.5 486.5q43.5 -67.5 43.5 -173.5v-60q0 -86 -33.5 -142t-112.5 -79q35 -37 35 -95q0 -67 -39 -117t-112.5 -78t-174.5 -28q-163 0 -240.5 69.5t-77.5 216.5q0 88 35 158q19 37 49 37q6 0 10 -1q14 -5 22.5 -16t8.5 -26q0 -10 -4 -21q-26 -63 -26 -123q1 -64 23 -101
t72.5 -53.5t137.5 -16.5q111 0 172.5 28t61.5 76q0 28 -34.5 42t-105.5 22q-57 6 -57 60q0 24 18 39t45 15q18 -1 57 -1q94 0 142 24t48 82v41q-27 -66 -123 -66q-147 0 -147 157q0 56 21.5 101t61.5 71t93 26q87 0 130.5 -67.5zM704 326v2q-1 43 -24 76t-77 33
q-40 0 -65.5 -21.5t-25.5 -56.5q0 -34 19.5 -47.5t67.5 -13.5q90 0 105 28zM252 -442.5q-15 15.5 -15 35.5t15 35t35 15t35.5 -15t15.5 -35t-15 -35.5t-36 -15.5q-20 0 -35 15.5zM369.5 -443q-14.5 15 -14.5 36q0 20 15 35t35 15t35.5 -15t15.5 -35t-15 -35.5t-36 -15.5
t-35.5 15zM570.5 662q-16.5 17 -16.5 40t16.5 39.5t39.5 16.5t39.5 -16.5t16.5 -39.5t-16.5 -40t-39.5 -17t-39.5 17z" />
    <glyph glyph-name="uniFC35" unicode="&#xfed7;&#xfef0;" horiz-adv-x="829" arabic-form="isolated" 
d="M740.5 486.5q43.5 -67.5 43.5 -173.5v-60q0 -86 -33.5 -142t-112.5 -79q35 -37 35 -95q0 -67 -39 -117t-112.5 -78t-174.5 -28q-163 0 -240.5 69.5t-77.5 216.5q0 88 35 158q19 37 49 37q6 0 10 -1q14 -5 22.5 -16t8.5 -26q0 -10 -4 -21q-26 -63 -26 -123q1 -64 23 -101
t72.5 -53.5t137.5 -16.5q111 0 172.5 28t61.5 76q0 28 -34.5 42t-105.5 22q-57 6 -57 60q0 24 18 39t45 15q18 -1 57 -1q94 0 142 24t48 82v41q-27 -66 -123 -66q-147 0 -147 157q0 56 21.5 101t61.5 71t93 26q87 0 130.5 -67.5zM704 326v2q-1 43 -24 76t-77 33
q-40 0 -65.5 -21.5t-25.5 -56.5q0 -34 19.5 -47.5t67.5 -13.5q90 0 105 28zM511 652.5q-15 15.5 -15 36.5t15 36t36 15t36.5 -15t15.5 -36t-15 -36.5t-37 -15.5q-21 0 -36 15.5zM632 652.5q-15 15.5 -15 36.5t15.5 36t35.5 15q21 0 37 -15t16 -36t-15.5 -36.5t-37.5 -15.5
q-21 0 -36 15.5z" />
    <glyph glyph-name="uniFC36" unicode="&#xfed7;&#xfef2;" horiz-adv-x="829" arabic-form="isolated" 
d="M740.5 486.5q43.5 -67.5 43.5 -173.5v-60q0 -86 -33.5 -142t-112.5 -79q35 -37 35 -95q0 -67 -39 -117t-112.5 -78t-174.5 -28q-163 0 -240.5 69.5t-77.5 216.5q0 88 35 158q19 37 49 37q6 0 10 -1q14 -5 22.5 -16t8.5 -26q0 -10 -4 -21q-26 -63 -26 -123q1 -64 23 -101
t72.5 -53.5t137.5 -16.5q111 0 172.5 28t61.5 76q0 28 -34.5 42t-105.5 22q-57 6 -57 60q0 24 18 39t45 15q18 -1 57 -1q94 0 142 24t48 82v41q-27 -66 -123 -66q-147 0 -147 157q0 56 21.5 101t61.5 71t93 26q87 0 130.5 -67.5zM704 326v2q-1 43 -24 76t-77 33
q-40 0 -65.5 -21.5t-25.5 -56.5q0 -34 19.5 -47.5t67.5 -13.5q90 0 105 28zM511 652.5q-15 15.5 -15 36.5t15 36t36 15t36.5 -15t15.5 -36t-15 -36.5t-37 -15.5q-21 0 -36 15.5zM632 652.5q-15 15.5 -15 36.5t15.5 36t35.5 15q21 0 37 -15t16 -36t-15.5 -36.5t-37.5 -15.5
q-21 0 -36 15.5zM252 -442.5q-15 15.5 -15 35.5t15 35t35 15t35.5 -15t15.5 -35t-15 -35.5t-36 -15.5q-20 0 -35 15.5zM369.5 -443q-14.5 15 -14.5 36q0 20 15 35t35 15t35.5 -15t15.5 -35t-15 -35.5t-36 -15.5t-35.5 15z" />
    <glyph glyph-name="uniFC3D" unicode="&#xfedb;&#xfef0;" horiz-adv-x="847" arabic-form="isolated" 
d="M875 688q0 -28 -37 -50l-291 -179q135 -56 195 -115t60 -145q0 -74 -40.5 -119t-114.5 -60q26 -34 26 -81q0 -67 -39 -118t-112.5 -79t-174.5 -28q-163 0 -240 69t-78 217q0 88 35 158q19 37 49 37q6 0 10 -1q14 -5 22.5 -16t8.5 -26q0 -10 -4 -21q-26 -63 -26 -123
q1 -64 23 -101t72.5 -53.5t137.5 -16.5q111 0 172.5 28t61.5 76q0 31 -26.5 47t-81.5 22q-25 3 -40 19t-15 40q0 27 15 43.5t39 16.5q7 0 31 -2q54 -3 65 -3q53 0 98 14t45 50q0 33 -17 59t-62.5 53.5t-132.5 60.5q-44 16 -60.5 38t-16.5 51q0 26 11.5 43.5t35.5 32.5
l314 200q20 12 37 12q14 0 25.5 -8.5t15.5 -24.5q4 -12 4 -17z" />
    <glyph glyph-name="uniFC3E" unicode="&#xfedb;&#xfef2;" horiz-adv-x="847" arabic-form="isolated" 
d="M875 688q0 -28 -37 -50l-291 -179q135 -56 195 -115t60 -145q0 -74 -40.5 -119t-114.5 -60q26 -34 26 -81q0 -67 -39 -118t-112.5 -79t-174.5 -28q-163 0 -240 69t-78 217q0 88 35 158q19 37 49 37q6 0 10 -1q14 -5 22.5 -16t8.5 -26q0 -10 -4 -21q-26 -63 -26 -123
q1 -64 23 -101t72.5 -53.5t137.5 -16.5q111 0 172.5 28t61.5 76q0 31 -26.5 47t-81.5 22q-25 3 -40 19t-15 40q0 27 15 43.5t39 16.5q7 0 31 -2q54 -3 65 -3q53 0 98 14t45 50q0 33 -17 59t-62.5 53.5t-132.5 60.5q-44 16 -60.5 38t-16.5 51q0 26 11.5 43.5t35.5 32.5
l314 200q20 12 37 12q14 0 25.5 -8.5t15.5 -24.5q4 -12 4 -17zM252 -443.5q-15 15.5 -15 35.5t15 35t35 15t35.5 -15t15.5 -35t-15 -35.5t-36 -15.5q-20 0 -35 15.5zM369.5 -444q-14.5 15 -14.5 36q0 20 15 35t35 15t35.5 -15t15.5 -35t-15 -35.5t-36 -15.5t-35.5 15z" />
    <glyph glyph-name="uniFC43" unicode="&#xfedf;&#xfef0;" horiz-adv-x="810" arabic-form="isolated" 
d="M722.5 724.5q12.5 -15.5 12.5 -44.5v-420q0 -95 -23.5 -149.5t-75.5 -77.5q37 -35 37 -94q0 -67 -39 -118t-112.5 -79t-174.5 -28q-163 0 -240.5 69.5t-77.5 216.5q0 84 35 159q8 17 21 27t28 10q6 0 10 -1q15 -4 23 -15t8 -26q0 -11 -4 -22q-26 -63 -26 -124
q1 -64 23 -101t72.5 -53.5t137.5 -16.5q111 0 172.5 28t61.5 76q0 31 -27.5 47.5t-84.5 21.5q-25 1 -40 18t-15 41q0 28 17.5 44t45.5 14q20 -3 53 -3q39 0 59.5 7.5t28.5 27.5t8 58v463q0 29 13 44.5t37 15.5t36.5 -15.5z" />
    <glyph glyph-name="uniFC44" unicode="&#xfedf;&#xfef2;" horiz-adv-x="810" arabic-form="isolated" 
d="M722.5 724.5q12.5 -15.5 12.5 -44.5v-420q0 -95 -23.5 -149.5t-75.5 -77.5q37 -35 37 -94q0 -67 -39 -118t-112.5 -79t-174.5 -28q-163 0 -240.5 69.5t-77.5 216.5q0 84 35 159q8 17 21 27t28 10q6 0 10 -1q15 -4 23 -15t8 -26q0 -11 -4 -22q-26 -63 -26 -124
q1 -64 23 -101t72.5 -53.5t137.5 -16.5q111 0 172.5 28t61.5 76q0 31 -27.5 47.5t-84.5 21.5q-25 1 -40 18t-15 41q0 28 17.5 44t45.5 14q20 -3 53 -3q39 0 59.5 7.5t28.5 27.5t8 58v463q0 29 13 44.5t37 15.5t36.5 -15.5zM252 -443.5q-15 15.5 -15 35.5t15 35t35 15
t35.5 -15t15.5 -35t-15 -35.5t-36 -15.5q-20 0 -35 15.5zM369.5 -444q-14.5 15 -14.5 36q0 20 15 35t35 15t35.5 -15t15.5 -35t-15 -35.5t-36 -15.5t-35.5 15z" />
    <glyph glyph-name="uniFC4F" unicode="&#xfee7;&#xfef0;" horiz-adv-x="788" arabic-form="isolated" 
d="M714.5 112.5q-27.5 -53.5 -79.5 -78.5q38 -36 38 -95q0 -67 -39 -118t-112.5 -79t-174.5 -28q-163 0 -240.5 69.5t-77.5 216.5q0 46 9 86t21 69q7 17 19.5 27t27.5 10q7 0 11 -1q31 -7 31 -40q0 -10 -3 -21q-21 -63 -21 -122q1 -64 23 -101t72.5 -53.5t137.5 -16.5
q111 0 172.5 28t61.5 76q0 30 -31.5 46.5t-81.5 22.5q-25 4 -39.5 19.5t-14.5 39.5q0 27 15.5 42t42.5 15q13 0 21 -1l43 -1q58 0 82 28t24 90q0 50 -10 110l-1 9q0 20 13 32t31 12q39 0 48 -47q9 -51 9 -114q0 -78 -27.5 -131.5zM647.5 513q-16.5 17 -16.5 40t16.5 39.5
t39.5 16.5t39.5 -16.5t16.5 -39.5t-16.5 -40t-39.5 -17t-39.5 17z" />
    <glyph glyph-name="uniFC50" unicode="&#xfee7;&#xfef2;" horiz-adv-x="788" arabic-form="isolated" 
d="M714.5 112.5q-27.5 -53.5 -79.5 -78.5q38 -36 38 -95q0 -67 -39 -118t-112.5 -79t-174.5 -28q-163 0 -240.5 69.5t-77.5 216.5q0 46 9 86t21 69q7 17 19.5 27t27.5 10q7 0 11 -1q31 -7 31 -40q0 -10 -3 -21q-21 -63 -21 -122q1 -64 23 -101t72.5 -53.5t137.5 -16.5
q111 0 172.5 28t61.5 76q0 30 -31.5 46.5t-81.5 22.5q-25 4 -39.5 19.5t-14.5 39.5q0 27 15.5 42t42.5 15q13 0 21 -1l43 -1q58 0 82 28t24 90q0 50 -10 110l-1 9q0 20 13 32t31 12q39 0 48 -47q9 -51 9 -114q0 -78 -27.5 -131.5zM647.5 513q-16.5 17 -16.5 40t16.5 39.5
t39.5 16.5t39.5 -16.5t16.5 -39.5t-16.5 -40t-39.5 -17t-39.5 17zM253 -443.5q-15 15.5 -15 35.5t15 35t35 15t35.5 -15t15.5 -35t-15 -35.5t-36 -15.5q-20 0 -35 15.5zM370.5 -444q-14.5 15 -14.5 36q0 20 15 35t35 15t35.5 -15t15.5 -35t-15 -35.5t-36 -15.5t-35.5 15z
" />
    <glyph glyph-name="uniFC59" unicode="&#xfef3;&#xfef0;" horiz-adv-x="788" arabic-form="isolated" 
d="M634 -179q-39 -51 -112.5 -79t-174.5 -28q-163 0 -240.5 69.5t-77.5 216.5q0 46 9 86t21 69q7 17 19.5 27t27.5 10q7 0 11 -1q31 -7 31 -40q0 -10 -3 -21q-21 -63 -21 -122q1 -64 23 -101t72.5 -53.5t137.5 -16.5q111 0 172.5 28t61.5 76q0 30 -31.5 46.5t-81.5 22.5
q-25 4 -39.5 19.5t-14.5 39.5q0 27 15.5 42t42.5 15q13 0 21 -1l43 -1q58 0 82 28t24 90q0 50 -10 110l-1 9q0 20 13 32t31 12q39 0 48 -47q9 -51 9 -114q0 -78 -27.5 -131.5t-79.5 -78.5q38 -36 38 -95q0 -67 -39 -118zM626 -313q15 -15 15 -34q0 -20 -15 -35t-35 -15
t-34.5 15t-14.5 35t14.5 34.5t34.5 14.5t35 -15zM741 -312.5q15 -14.5 15 -34.5t-14.5 -35t-35.5 -15q-20 0 -34.5 15t-14.5 35q0 19 15 34t34 15q20 0 35 -14.5z" />
    <glyph glyph-name="uniFC5A" unicode="&#xfef3;&#xfef2;" horiz-adv-x="788" arabic-form="isolated" 
d="M634 -179q-39 -51 -112.5 -79t-174.5 -28q-163 0 -240.5 69.5t-77.5 216.5q0 46 9 86t21 69q7 17 19.5 27t27.5 10q7 0 11 -1q31 -7 31 -40q0 -10 -3 -21q-21 -63 -21 -122q1 -64 23 -101t72.5 -53.5t137.5 -16.5q111 0 172.5 28t61.5 76q0 30 -31.5 46.5t-81.5 22.5
q-25 4 -39.5 19.5t-14.5 39.5q0 27 15.5 42t42.5 15q13 0 21 -1l43 -1q58 0 82 28t24 90q0 50 -10 110l-1 9q0 20 13 32t31 12q39 0 48 -47q9 -51 9 -114q0 -78 -27.5 -131.5t-79.5 -78.5q38 -36 38 -95q0 -67 -39 -118zM626 -313q15 -15 15 -34q0 -20 -15 -35t-35 -15
t-34.5 15t-14.5 35t14.5 34.5t34.5 14.5t35 -15zM741 -312.5q15 -14.5 15 -34.5t-14.5 -35t-35.5 -15q-20 0 -34.5 15t-14.5 35q0 19 15 34t34 15q20 0 35 -14.5zM324 -372q15 -15 15 -34q0 -20 -15 -35t-35 -15t-34.5 15t-14.5 35t14.5 34.5t34.5 14.5t35 -15zM439 -371.5
q15 -14.5 15 -34.5t-14.5 -35t-35.5 -15q-20 0 -34.5 15t-14.5 35q0 19 15 34t34 15q20 0 35 -14.5z" />
    <glyph glyph-name="uniFC64" unicode="&#xfe8c;&#xfeae;" horiz-adv-x="682" arabic-form="final" 
d="M699 121v-118l-17 -3q-98 0 -149.5 42t-59.5 129q-32 -53 -115 -53q-55 0 -80 33q2 -32 2 -50q0 -95 -30 -173t-83 -123.5t-121 -45.5q-55 0 -84 17q-31 20 -31 54q0 9 1 14q4 21 18 32t33 11l10 -1q18 -3 45 -3q44 0 78.5 26.5t54 76t19.5 114.5q0 71 -15 143
q-2 12 -2 16q0 22 12.5 35.5t33.5 13.5q31 0 41 -37q9 -19 30.5 -27.5t64.5 -8.5q58 0 86 14t28 52q0 19 12.5 32.5t32.5 13.5t32 -14t12 -35v-51q0 -69 27.5 -96t96.5 -27zM601.5 478.5q8.5 -8.5 8.5 -22.5q0 -27 -26 -31q-31 -6 -112 -13l-31 -3q-19 -1 -29 8t-10 25
q0 29 32 32l6 1q-18 16 -18 42q0 43 27.5 67t67.5 24q24 0 43 -8q24 -12 24 -34q0 -14 -7 -22t-19 -8q-5 0 -8 1q-15 3 -31 3q-22 0 -34 -6t-12 -23q0 -16 8 -22t31 -6q14 0 38 2q20 2 27 2q16 0 24.5 -8.5z" />
    <glyph glyph-name="uniFC65" unicode="&#xfe8c;&#xfeb0;" horiz-adv-x="682" arabic-form="final" 
d="M699 121v-118l-17 -3q-98 0 -149.5 42t-59.5 129q-32 -53 -115 -53q-55 0 -80 33q2 -32 2 -50q0 -95 -30 -173t-83 -123.5t-121 -45.5q-55 0 -84 17q-31 20 -31 54q0 9 1 14q4 21 18 32t33 11l10 -1q18 -3 45 -3q44 0 78.5 26.5t54 76t19.5 114.5q0 71 -15 143
q-2 12 -2 16q0 22 12.5 35.5t33.5 13.5q31 0 41 -37q9 -19 30.5 -27.5t64.5 -8.5q58 0 86 14t28 52q0 19 12.5 32.5t32.5 13.5t32 -14t12 -35v-51q0 -69 27.5 -96t96.5 -27zM601.5 478.5q8.5 -8.5 8.5 -22.5q0 -27 -26 -31q-31 -6 -112 -13l-31 -3q-19 -1 -29 8t-10 25
q0 29 32 32l6 1q-18 16 -18 42q0 43 27.5 67t67.5 24q24 0 43 -8q24 -12 24 -34q0 -14 -7 -22t-19 -8q-5 0 -8 1q-15 3 -31 3q-22 0 -34 -6t-12 -23q0 -16 8 -22t31 -6q14 0 38 2q20 2 27 2q16 0 24.5 -8.5zM175.5 408q-16.5 17 -16.5 40t16.5 39.5t39.5 16.5t39.5 -16.5
t16.5 -39.5t-16.5 -40t-39.5 -17t-39.5 17z" />
    <glyph glyph-name="uniFC67" unicode="&#xfe8c;&#xfee6;" horiz-adv-x="1041" arabic-form="final" 
d="M1058 121v-118l-17 -3q-97 0 -148.5 42t-60.5 129q-32 -53 -115 -53q-57 0 -81 35q4 -40 4 -89q0 -150 -75.5 -225t-237.5 -75q-157 0 -227.5 70t-70.5 223q0 92 29 166q7 17 19 26.5t28 9.5q7 0 11 -1q31 -7 31 -40q0 -9 -3 -20q-20 -62 -20 -134q0 -66 20.5 -104
t66.5 -55t126 -17q113 0 160.5 40t47.5 131q0 84 -15 184q-2 10 -2 15q0 21 12.5 34.5t33.5 13.5q38 0 48 -41q9 -15 30 -21.5t63 -6.5q57 0 85 14t28 50q0 19 12.5 32.5t32.5 13.5t32 -14t12 -35v-51q0 -69 27.5 -96t96.5 -27zM292.5 393q-16.5 17 -16.5 40t16.5 39.5
t39.5 16.5t39.5 -16.5t16.5 -39.5t-16.5 -40t-39.5 -17t-39.5 17zM959.5 478.5q8.5 -8.5 8.5 -22.5q0 -27 -26 -31q-31 -6 -112 -13l-31 -3q-19 -1 -29 8t-10 25q0 29 32 32l6 1q-18 16 -18 42q0 43 27.5 67t67.5 24q24 0 43 -8q24 -12 24 -34q0 -14 -7 -22t-19 -8
q-5 0 -8 1q-15 3 -31 3q-22 0 -34 -6t-12 -23q0 -16 8 -22t31 -6q14 0 38 2q20 2 27 2q16 0 24.5 -8.5z" />
    <glyph glyph-name="uniFC68" unicode="&#xfe8c;&#xfef0;" horiz-adv-x="921" arabic-form="final" 
d="M61 175q7 17 19.5 27t27.5 10q7 0 11 -1q31 -7 31 -40q0 -10 -3 -21q-23 -67 -23 -128q0 -70 24 -109.5t77.5 -57.5t147.5 -18q265 0 265 103q0 19 -12 29t-40 17.5t-91 19.5q-60 12 -93 34t-46 56t-13 86q0 56 31.5 105.5t84.5 79t113 29.5q61 0 101 -20.5t64.5 -52
t52.5 -82.5l21 -39q23 -43 45.5 -60.5t64.5 -17.5l17 -3v-118l-17 -3q-68 0 -105 26.5t-68 84.5l-25 45q-24 44 -43 68t-46.5 37.5t-69.5 13.5q-36 0 -68.5 -11.5t-52.5 -30t-20 -38.5q0 -21 11.5 -33t34 -19.5t75.5 -20.5l41 -10q69 -17 102 -56t33 -105q0 -112 -90 -174.5
t-265 -62.5q-173 0 -254.5 72.5t-81.5 228.5q0 87 32 160zM658.5 527.5q8.5 -8.5 8.5 -22.5q0 -27 -26 -31q-31 -6 -112 -13l-31 -3q-19 -1 -29 8t-10 25q0 29 32 32l6 1q-18 16 -18 42q0 43 27.5 67t67.5 24q24 0 43 -8q24 -12 24 -34q0 -14 -7 -22t-19 -8q-5 0 -8 1
q-15 3 -31 3q-22 0 -34 -6t-12 -23q0 -16 8 -22t31 -6q14 0 38 2q20 2 27 2q16 0 24.5 -8.5z" />
    <glyph glyph-name="uniFC69" unicode="&#xfe8c;&#xfef2;" horiz-adv-x="921" arabic-form="final" 
d="M61 175q7 17 19.5 27t27.5 10q7 0 11 -1q31 -7 31 -40q0 -10 -3 -21q-23 -67 -23 -128q0 -70 24 -109.5t77.5 -57.5t147.5 -18q265 0 265 103q0 19 -12 29t-40 17.5t-91 19.5q-60 12 -93 34t-46 56t-13 86q0 56 31.5 105.5t84.5 79t113 29.5q61 0 101 -20.5t64.5 -52
t52.5 -82.5l21 -39q23 -43 45.5 -60.5t64.5 -17.5l17 -3v-118l-17 -3q-68 0 -105 26.5t-68 84.5l-25 45q-24 44 -43 68t-46.5 37.5t-69.5 13.5q-36 0 -68.5 -11.5t-52.5 -30t-20 -38.5q0 -21 11.5 -33t34 -19.5t75.5 -20.5l41 -10q69 -17 102 -56t33 -105q0 -112 -90 -174.5
t-265 -62.5q-173 0 -254.5 72.5t-81.5 228.5q0 87 32 160zM658.5 527.5q8.5 -8.5 8.5 -22.5q0 -27 -26 -31q-31 -6 -112 -13l-31 -3q-19 -1 -29 8t-10 25q0 29 32 32l6 1q-18 16 -18 42q0 43 27.5 67t67.5 24q24 0 43 -8q24 -12 24 -34q0 -14 -7 -22t-19 -8q-5 0 -8 1
q-15 3 -31 3q-22 0 -34 -6t-12 -23q0 -16 8 -22t31 -6q14 0 38 2q20 2 27 2q16 0 24.5 -8.5zM273 -443.5q-15 15.5 -15 35.5t15 35t35 15t35.5 -15t15.5 -35t-15 -35.5t-36 -15.5q-20 0 -35 15.5zM390.5 -444q-14.5 15 -14.5 36q0 20 15 35t35 15t35.5 -15t15.5 -35
t-15 -35.5t-36 -15.5t-35.5 15z" />
    <glyph glyph-name="uniFC6A" unicode="&#xfe92;&#xfeae;" horiz-adv-x="682" arabic-form="final" 
d="M699 121v-118l-17 -3q-98 0 -149.5 42t-59.5 129q-32 -53 -115 -53q-55 0 -80 33q2 -32 2 -50q0 -95 -30 -173t-83 -123.5t-121 -45.5q-55 0 -84 17q-31 20 -31 54q0 9 1 14q4 21 18 32t33 11l10 -1q18 -3 45 -3q44 0 78.5 26.5t54 76t19.5 114.5q0 71 -15 143
q-2 12 -2 16q0 22 12.5 35.5t33.5 13.5q31 0 41 -37q9 -19 30.5 -27.5t64.5 -8.5q58 0 86 14t28 52q0 19 12.5 32.5t32.5 13.5t32 -14t12 -35v-51q0 -69 27.5 -96t96.5 -27zM468.5 -164.5q-16.5 16.5 -16.5 39.5t16.5 39.5t39.5 16.5t39.5 -16.5t16.5 -39.5t-16.5 -39.5
t-39.5 -17.5q-23 1 -39.5 17.5z" />
    <glyph glyph-name="uniFC6B" unicode="&#xfe92;&#xfeb0;" horiz-adv-x="682" arabic-form="final" 
d="M699 121v-118l-17 -3q-98 0 -149.5 42t-59.5 129q-32 -53 -115 -53q-55 0 -80 33q2 -32 2 -50q0 -95 -30 -173t-83 -123.5t-121 -45.5q-55 0 -84 17q-31 20 -31 54q0 9 1 14q4 21 18 32t33 11l10 -1q18 -3 45 -3q44 0 78.5 26.5t54 76t19.5 114.5q0 71 -15 143
q-2 12 -2 16q0 22 12.5 35.5t33.5 13.5q31 0 41 -37q9 -19 30.5 -27.5t64.5 -8.5q58 0 86 14t28 52q0 19 12.5 32.5t32.5 13.5t32 -14t12 -35v-51q0 -69 27.5 -96t96.5 -27zM468.5 -164.5q-16.5 16.5 -16.5 39.5t16.5 39.5t39.5 16.5t39.5 -16.5t16.5 -39.5t-16.5 -39.5
t-39.5 -17.5q-23 1 -39.5 17.5zM175.5 408q-16.5 17 -16.5 40t16.5 39.5t39.5 16.5t39.5 -16.5t16.5 -39.5t-16.5 -40t-39.5 -17t-39.5 17z" />
    <glyph glyph-name="uniFC6D" unicode="&#xfe92;&#xfee6;" horiz-adv-x="1041" arabic-form="final" 
d="M1058 121v-118l-17 -3q-97 0 -148.5 42t-60.5 129q-32 -53 -115 -53q-57 0 -81 35q4 -40 4 -89q0 -150 -75.5 -225t-237.5 -75q-157 0 -227.5 70t-70.5 223q0 92 29 166q7 17 19 26.5t28 9.5q7 0 11 -1q31 -7 31 -40q0 -9 -3 -20q-20 -62 -20 -134q0 -66 20.5 -104
t66.5 -55t126 -17q113 0 160.5 40t47.5 131q0 84 -15 184q-2 10 -2 15q0 21 12.5 34.5t33.5 13.5q38 0 48 -41q9 -15 30 -21.5t63 -6.5q57 0 85 14t28 50q0 19 12.5 32.5t32.5 13.5t32 -14t12 -35v-51q0 -69 27.5 -96t96.5 -27zM833.5 -163.5q-16.5 16.5 -16.5 39.5
t16.5 39.5t39.5 16.5t39.5 -16.5t16.5 -39.5t-16.5 -39.5t-39.5 -17.5q-23 1 -39.5 17.5zM292.5 393q-16.5 17 -16.5 40t16.5 39.5t39.5 16.5t39.5 -16.5t16.5 -39.5t-16.5 -40t-39.5 -17t-39.5 17z" />
    <glyph glyph-name="uniFC6E" unicode="&#xfe92;&#xfef0;" horiz-adv-x="921" arabic-form="final" 
d="M61 175q7 17 19.5 27t27.5 10q7 0 11 -1q31 -7 31 -40q0 -10 -3 -21q-23 -67 -23 -128q0 -70 24 -109.5t77.5 -57.5t147.5 -18q265 0 265 103q0 19 -12 29t-40 17.5t-91 19.5q-60 12 -93 34t-46 56t-13 86q0 56 31.5 105.5t84.5 79t113 29.5q61 0 101 -20.5t64.5 -52
t52.5 -82.5l21 -39q23 -43 45.5 -60.5t64.5 -17.5l17 -3v-118l-17 -3q-68 0 -105 26.5t-68 84.5l-25 45q-24 44 -43 68t-46.5 37.5t-69.5 13.5q-36 0 -68.5 -11.5t-52.5 -30t-20 -38.5q0 -21 11.5 -33t34 -19.5t75.5 -20.5l41 -10q69 -17 102 -56t33 -105q0 -112 -90 -174.5
t-265 -62.5q-173 0 -254.5 72.5t-81.5 228.5q0 87 32 160zM823.5 -186.5q-16.5 16.5 -16.5 39.5t16.5 39.5t39.5 16.5t39.5 -16.5t16.5 -39.5t-16.5 -39.5t-39.5 -17.5q-23 1 -39.5 17.5z" />
    <glyph glyph-name="uniFC6F" unicode="&#xfe92;&#xfef2;" horiz-adv-x="921" arabic-form="final" 
d="M61 175q7 17 19.5 27t27.5 10q7 0 11 -1q31 -7 31 -40q0 -10 -3 -21q-23 -67 -23 -128q0 -70 24 -109.5t77.5 -57.5t147.5 -18q265 0 265 103q0 19 -12 29t-40 17.5t-91 19.5q-60 12 -93 34t-46 56t-13 86q0 56 31.5 105.5t84.5 79t113 29.5q61 0 101 -20.5t64.5 -52
t52.5 -82.5l21 -39q23 -43 45.5 -60.5t64.5 -17.5l17 -3v-118l-17 -3q-68 0 -105 26.5t-68 84.5l-25 45q-24 44 -43 68t-46.5 37.5t-69.5 13.5q-36 0 -68.5 -11.5t-52.5 -30t-20 -38.5q0 -21 11.5 -33t34 -19.5t75.5 -20.5l41 -10q69 -17 102 -56t33 -105q0 -112 -90 -174.5
t-265 -62.5q-173 0 -254.5 72.5t-81.5 228.5q0 87 32 160zM823.5 -186.5q-16.5 16.5 -16.5 39.5t16.5 39.5t39.5 16.5t39.5 -16.5t16.5 -39.5t-16.5 -39.5t-39.5 -17.5q-23 1 -39.5 17.5zM273 -443.5q-15 15.5 -15 35.5t15 35t35 15t35.5 -15t15.5 -35t-15 -35.5t-36 -15.5
q-20 0 -35 15.5zM390.5 -444q-14.5 15 -14.5 36q0 20 15 35t35 15t35.5 -15t15.5 -35t-15 -35.5t-36 -15.5t-35.5 15z" />
    <glyph glyph-name="uniFC70" unicode="&#xfe98;&#xfeae;" horiz-adv-x="682" arabic-form="final" 
d="M699 121v-118l-17 -3q-98 0 -149.5 42t-59.5 129q-32 -53 -115 -53q-55 0 -80 33q2 -32 2 -50q0 -95 -30 -173t-83 -123.5t-121 -45.5q-55 0 -84 17q-31 20 -31 54q0 9 1 14q4 21 18 32t33 11l10 -1q18 -3 45 -3q44 0 78.5 26.5t54 76t19.5 114.5q0 71 -15 143
q-2 12 -2 16q0 22 12.5 35.5t33.5 13.5q31 0 41 -37q9 -19 30.5 -27.5t64.5 -8.5q58 0 86 14t28 52q0 19 12.5 32.5t32.5 13.5t32 -14t12 -35v-51q0 -69 27.5 -96t96.5 -27zM416 445.5q-15 15.5 -15 36.5t15 36t36 15t36.5 -15t15.5 -36t-15 -36.5t-37 -15.5q-21 0 -36 15.5
zM537 445.5q-15 15.5 -15 36.5t15.5 36t35.5 15q21 0 37 -15t16 -36t-15.5 -36.5t-37.5 -15.5q-21 0 -36 15.5z" />
    <glyph glyph-name="uniFC71" unicode="&#xfe98;&#xfeb0;" horiz-adv-x="682" arabic-form="final" 
d="M699 121v-118l-17 -3q-98 0 -149.5 42t-59.5 129q-32 -53 -115 -53q-55 0 -80 33q2 -32 2 -50q0 -95 -30 -173t-83 -123.5t-121 -45.5q-55 0 -84 17q-31 20 -31 54q0 9 1 14q4 21 18 32t33 11l10 -1q18 -3 45 -3q44 0 78.5 26.5t54 76t19.5 114.5q0 71 -15 143
q-2 12 -2 16q0 22 12.5 35.5t33.5 13.5q31 0 41 -37q9 -19 30.5 -27.5t64.5 -8.5q58 0 86 14t28 52q0 19 12.5 32.5t32.5 13.5t32 -14t12 -35v-51q0 -69 27.5 -96t96.5 -27zM175.5 408q-16.5 17 -16.5 40t16.5 39.5t39.5 16.5t39.5 -16.5t16.5 -39.5t-16.5 -40t-39.5 -17
t-39.5 17zM416 445.5q-15 15.5 -15 36.5t15 36t36 15t36.5 -15t15.5 -36t-15 -36.5t-37 -15.5q-21 0 -36 15.5zM537 445.5q-15 15.5 -15 36.5t15.5 36t35.5 15q21 0 37 -15t16 -36t-15.5 -36.5t-37.5 -15.5q-21 0 -36 15.5z" />
    <glyph glyph-name="uniFC73" unicode="&#xfe98;&#xfee6;" horiz-adv-x="1041" arabic-form="final" 
d="M1058 121v-118l-17 -3q-97 0 -148.5 42t-60.5 129q-32 -53 -115 -53q-57 0 -81 35q4 -40 4 -89q0 -150 -75.5 -225t-237.5 -75q-157 0 -227.5 70t-70.5 223q0 92 29 166q7 17 19 26.5t28 9.5q7 0 11 -1q31 -7 31 -40q0 -9 -3 -20q-20 -62 -20 -134q0 -66 20.5 -104
t66.5 -55t126 -17q113 0 160.5 40t47.5 131q0 84 -15 184q-2 10 -2 15q0 21 12.5 34.5t33.5 13.5q38 0 48 -41q9 -15 30 -21.5t63 -6.5q57 0 85 14t28 50q0 19 12.5 32.5t32.5 13.5t32 -14t12 -35v-51q0 -69 27.5 -96t96.5 -27zM292.5 393q-16.5 17 -16.5 40t16.5 39.5
t39.5 16.5t39.5 -16.5t16.5 -39.5t-16.5 -40t-39.5 -17t-39.5 17zM774 445.5q-15 15.5 -15 36.5t15 36t36 15t36.5 -15t15.5 -36t-15 -36.5t-37 -15.5q-21 0 -36 15.5zM895 445.5q-15 15.5 -15 36.5t15.5 36t35.5 15q21 0 37 -15t16 -36t-15.5 -36.5t-37.5 -15.5
q-21 0 -36 15.5z" />
    <glyph glyph-name="uniFC74" unicode="&#xfe98;&#xfef0;" horiz-adv-x="921" arabic-form="final" 
d="M61 175q7 17 19.5 27t27.5 10q7 0 11 -1q31 -7 31 -40q0 -10 -3 -21q-23 -67 -23 -128q0 -70 24 -109.5t77.5 -57.5t147.5 -18q265 0 265 103q0 19 -12 29t-40 17.5t-91 19.5q-60 12 -93 34t-46 56t-13 86q0 56 31.5 105.5t84.5 79t113 29.5q61 0 101 -20.5t64.5 -52
t52.5 -82.5l21 -39q23 -43 45.5 -60.5t64.5 -17.5l17 -3v-118l-17 -3q-68 0 -105 26.5t-68 84.5l-25 45q-24 44 -43 68t-46.5 37.5t-69.5 13.5q-36 0 -68.5 -11.5t-52.5 -30t-20 -38.5q0 -21 11.5 -33t34 -19.5t75.5 -20.5l41 -10q69 -17 102 -56t33 -105q0 -112 -90 -174.5
t-265 -62.5q-173 0 -254.5 72.5t-81.5 228.5q0 87 32 160zM473 494.5q-15 15.5 -15 36.5t15 36t36 15t36.5 -15t15.5 -36t-15 -36.5t-37 -15.5q-21 0 -36 15.5zM594 494.5q-15 15.5 -15 36.5t15.5 36t35.5 15q21 0 37 -15t16 -36t-15.5 -36.5t-37.5 -15.5q-21 0 -36 15.5z
" />
    <glyph glyph-name="uniFC75" unicode="&#xfe98;&#xfef2;" horiz-adv-x="921" arabic-form="final" 
d="M61 175q7 17 19.5 27t27.5 10q7 0 11 -1q31 -7 31 -40q0 -10 -3 -21q-23 -67 -23 -128q0 -70 24 -109.5t77.5 -57.5t147.5 -18q265 0 265 103q0 19 -12 29t-40 17.5t-91 19.5q-60 12 -93 34t-46 56t-13 86q0 56 31.5 105.5t84.5 79t113 29.5q61 0 101 -20.5t64.5 -52
t52.5 -82.5l21 -39q23 -43 45.5 -60.5t64.5 -17.5l17 -3v-118l-17 -3q-68 0 -105 26.5t-68 84.5l-25 45q-24 44 -43 68t-46.5 37.5t-69.5 13.5q-36 0 -68.5 -11.5t-52.5 -30t-20 -38.5q0 -21 11.5 -33t34 -19.5t75.5 -20.5l41 -10q69 -17 102 -56t33 -105q0 -112 -90 -174.5
t-265 -62.5q-173 0 -254.5 72.5t-81.5 228.5q0 87 32 160zM473 494.5q-15 15.5 -15 36.5t15 36t36 15t36.5 -15t15.5 -36t-15 -36.5t-37 -15.5q-21 0 -36 15.5zM594 494.5q-15 15.5 -15 36.5t15.5 36t35.5 15q21 0 37 -15t16 -36t-15.5 -36.5t-37.5 -15.5q-21 0 -36 15.5z
M273 -443.5q-15 15.5 -15 35.5t15 35t35 15t35.5 -15t15.5 -35t-15 -35.5t-36 -15.5q-20 0 -35 15.5zM390.5 -444q-14.5 15 -14.5 36q0 20 15 35t35 15t35.5 -15t15.5 -35t-15 -35.5t-36 -15.5t-35.5 15z" />
    <glyph glyph-name="uniFC76" unicode="&#xfe9c;&#xfeae;" horiz-adv-x="682" arabic-form="final" 
d="M699 121v-118l-17 -3q-98 0 -149.5 42t-59.5 129q-32 -53 -115 -53q-55 0 -80 33q2 -32 2 -50q0 -95 -30 -173t-83 -123.5t-121 -45.5q-55 0 -84 17q-31 20 -31 54q0 9 1 14q4 21 18 32t33 11l10 -1q18 -3 45 -3q44 0 78.5 26.5t54 76t19.5 114.5q0 71 -15 143
q-2 12 -2 16q0 22 12.5 35.5t33.5 13.5q31 0 41 -37q9 -19 30.5 -27.5t64.5 -8.5q58 0 86 14t28 52q0 19 12.5 32.5t32.5 13.5t32 -14t12 -35v-51q0 -69 27.5 -96t96.5 -27zM548.5 628.5q14.5 -14.5 14.5 -34.5q0 -19 -14.5 -33.5t-34.5 -14.5q-19 0 -33.5 14.5t-14.5 33.5
q0 20 14 34.5t34 14.5t34.5 -14.5zM490 517q15 -15 15 -36t-15.5 -36t-36.5 -15q-20 0 -35.5 15t-15.5 36q0 20 15.5 35.5t35.5 15.5q22 0 37 -15zM609 516.5q15 -15.5 15 -35.5q0 -21 -15.5 -36t-35.5 -15q-21 0 -36 15t-15 36t15 36t36 15t36 -15.5z" />
    <glyph glyph-name="uniFC77" unicode="&#xfe9c;&#xfeb0;" horiz-adv-x="682" arabic-form="final" 
d="M699 121v-118l-17 -3q-98 0 -149.5 42t-59.5 129q-32 -53 -115 -53q-55 0 -80 33q2 -32 2 -50q0 -95 -30 -173t-83 -123.5t-121 -45.5q-55 0 -84 17q-31 20 -31 54q0 9 1 14q4 21 18 32t33 11l10 -1q18 -3 45 -3q44 0 78.5 26.5t54 76t19.5 114.5q0 71 -15 143
q-2 12 -2 16q0 22 12.5 35.5t33.5 13.5q31 0 41 -37q9 -19 30.5 -27.5t64.5 -8.5q58 0 86 14t28 52q0 19 12.5 32.5t32.5 13.5t32 -14t12 -35v-51q0 -69 27.5 -96t96.5 -27zM175.5 408q-16.5 17 -16.5 40t16.5 39.5t39.5 16.5t39.5 -16.5t16.5 -39.5t-16.5 -40t-39.5 -17
t-39.5 17zM548.5 628.5q14.5 -14.5 14.5 -34.5q0 -19 -14.5 -33.5t-34.5 -14.5q-19 0 -33.5 14.5t-14.5 33.5q0 20 14 34.5t34 14.5t34.5 -14.5zM490 517q15 -15 15 -36t-15.5 -36t-36.5 -15q-20 0 -35.5 15t-15.5 36q0 20 15.5 35.5t35.5 15.5q22 0 37 -15zM609 516.5
q15 -15.5 15 -35.5q0 -21 -15.5 -36t-35.5 -15q-21 0 -36 15t-15 36t15 36t36 15t36 -15.5z" />
    <glyph glyph-name="uniFC79" unicode="&#xfe9c;&#xfee6;" horiz-adv-x="1041" arabic-form="final" 
d="M1058 121v-118l-17 -3q-97 0 -148.5 42t-60.5 129q-32 -53 -115 -53q-57 0 -81 35q4 -40 4 -89q0 -150 -75.5 -225t-237.5 -75q-157 0 -227.5 70t-70.5 223q0 92 29 166q7 17 19 26.5t28 9.5q7 0 11 -1q31 -7 31 -40q0 -9 -3 -20q-20 -62 -20 -134q0 -66 20.5 -104
t66.5 -55t126 -17q113 0 160.5 40t47.5 131q0 84 -15 184q-2 10 -2 15q0 21 12.5 34.5t33.5 13.5q38 0 48 -41q9 -15 30 -21.5t63 -6.5q57 0 85 14t28 50q0 19 12.5 32.5t32.5 13.5t32 -14t12 -35v-51q0 -69 27.5 -96t96.5 -27zM292.5 393q-16.5 17 -16.5 40t16.5 39.5
t39.5 16.5t39.5 -16.5t16.5 -39.5t-16.5 -40t-39.5 -17t-39.5 17zM906.5 628.5q14.5 -14.5 14.5 -34.5q0 -19 -14.5 -33.5t-34.5 -14.5q-19 0 -33.5 14.5t-14.5 33.5q0 20 14 34.5t34 14.5t34.5 -14.5zM848 517q15 -15 15 -36t-15.5 -36t-36.5 -15q-20 0 -35.5 15t-15.5 36
q0 20 15.5 35.5t35.5 15.5q22 0 37 -15zM967 516.5q15 -15.5 15 -35.5q0 -21 -15.5 -36t-35.5 -15q-21 0 -36 15t-15 36t15 36t36 15t36 -15.5z" />
    <glyph glyph-name="uniFC7A" unicode="&#xfe9c;&#xfef0;" horiz-adv-x="921" arabic-form="final" 
d="M61 175q7 17 19.5 27t27.5 10q7 0 11 -1q31 -7 31 -40q0 -10 -3 -21q-23 -67 -23 -128q0 -70 24 -109.5t77.5 -57.5t147.5 -18q265 0 265 103q0 19 -12 29t-40 17.5t-91 19.5q-60 12 -93 34t-46 56t-13 86q0 56 31.5 105.5t84.5 79t113 29.5q61 0 101 -20.5t64.5 -52
t52.5 -82.5l21 -39q23 -43 45.5 -60.5t64.5 -17.5l17 -3v-118l-17 -3q-68 0 -105 26.5t-68 84.5l-25 45q-24 44 -43 68t-46.5 37.5t-69.5 13.5q-36 0 -68.5 -11.5t-52.5 -30t-20 -38.5q0 -21 11.5 -33t34 -19.5t75.5 -20.5l41 -10q69 -17 102 -56t33 -105q0 -112 -90 -174.5
t-265 -62.5q-173 0 -254.5 72.5t-81.5 228.5q0 87 32 160zM605.5 677.5q14.5 -14.5 14.5 -34.5q0 -19 -14.5 -33.5t-34.5 -14.5q-19 0 -33.5 14.5t-14.5 33.5q0 20 14 34.5t34 14.5t34.5 -14.5zM547 566q15 -15 15 -36t-15.5 -36t-36.5 -15q-20 0 -35.5 15t-15.5 36
q0 20 15.5 35.5t35.5 15.5q22 0 37 -15zM666 565.5q15 -15.5 15 -35.5q0 -21 -15.5 -36t-35.5 -15q-21 0 -36 15t-15 36t15 36t36 15t36 -15.5z" />
    <glyph glyph-name="uniFC7B" unicode="&#xfe9c;&#xfef2;" horiz-adv-x="921" arabic-form="final" 
d="M61 175q7 17 19.5 27t27.5 10q7 0 11 -1q31 -7 31 -40q0 -10 -3 -21q-23 -67 -23 -128q0 -70 24 -109.5t77.5 -57.5t147.5 -18q265 0 265 103q0 19 -12 29t-40 17.5t-91 19.5q-60 12 -93 34t-46 56t-13 86q0 56 31.5 105.5t84.5 79t113 29.5q61 0 101 -20.5t64.5 -52
t52.5 -82.5l21 -39q23 -43 45.5 -60.5t64.5 -17.5l17 -3v-118l-17 -3q-68 0 -105 26.5t-68 84.5l-25 45q-24 44 -43 68t-46.5 37.5t-69.5 13.5q-36 0 -68.5 -11.5t-52.5 -30t-20 -38.5q0 -21 11.5 -33t34 -19.5t75.5 -20.5l41 -10q69 -17 102 -56t33 -105q0 -112 -90 -174.5
t-265 -62.5q-173 0 -254.5 72.5t-81.5 228.5q0 87 32 160zM605.5 677.5q14.5 -14.5 14.5 -34.5q0 -19 -14.5 -33.5t-34.5 -14.5q-19 0 -33.5 14.5t-14.5 33.5q0 20 14 34.5t34 14.5t34.5 -14.5zM547 566q15 -15 15 -36t-15.5 -36t-36.5 -15q-20 0 -35.5 15t-15.5 36
q0 20 15.5 35.5t35.5 15.5q22 0 37 -15zM666 565.5q15 -15.5 15 -35.5q0 -21 -15.5 -36t-35.5 -15q-21 0 -36 15t-15 36t15 36t36 15t36 -15.5zM273 -443.5q-15 15.5 -15 35.5t15 35t35 15t35.5 -15t15.5 -35t-15 -35.5t-36 -15.5q-20 0 -35 15.5zM390.5 -444
q-14.5 15 -14.5 36q0 20 15 35t35 15t35.5 -15t15.5 -35t-15 -35.5t-36 -15.5t-35.5 15z" />
    <glyph glyph-name="uniFC83" unicode="&#xfedc;&#xfef0;" horiz-adv-x="1072" arabic-form="final" 
d="M1089 121v-118l-17 -3q-56 0 -95 11.5t-73 37.5t-75 76q-13 -51 -54.5 -79.5t-121.5 -34.5q20 -31 20 -72q0 -67 -39 -118t-112.5 -79t-174.5 -28q-163 0 -240 69t-78 217q0 88 35 158q19 37 49 37q6 0 10 -1q14 -5 22.5 -16t8.5 -26q0 -10 -4 -21q-26 -63 -26 -123
q1 -64 23 -101t72.5 -53.5t137.5 -16.5q111 0 172.5 28t61.5 76q0 31 -24.5 46t-78.5 23q-24 3 -39 19t-15 40q0 28 16.5 45.5t43.5 14.5q65 -5 112 -5q67 0 102.5 6t50 17.5t19.5 32.5q-63 83 -165 209q-14 18 -21.5 35t-7.5 37q0 28 15.5 44.5t48.5 36.5l309 186
q19 11 35 11q15 0 27 -8.5t16 -24.5q3 -9 3 -17q0 -31 -36 -52l-313 -183l15 -19q88 -113 140 -173q50 -60 81 -88t64 -39t83 -11z" />
    <glyph glyph-name="uniFC84" unicode="&#xfedc;&#xfef2;" horiz-adv-x="1072" arabic-form="final" 
d="M1089 121v-118l-17 -3q-56 0 -95 11.5t-73 37.5t-75 76q-13 -51 -54.5 -79.5t-121.5 -34.5q20 -31 20 -72q0 -67 -39 -118t-112.5 -79t-174.5 -28q-163 0 -240 69t-78 217q0 88 35 158q19 37 49 37q6 0 10 -1q14 -5 22.5 -16t8.5 -26q0 -10 -4 -21q-26 -63 -26 -123
q1 -64 23 -101t72.5 -53.5t137.5 -16.5q111 0 172.5 28t61.5 76q0 31 -24.5 46t-78.5 23q-24 3 -39 19t-15 40q0 28 16.5 45.5t43.5 14.5q65 -5 112 -5q67 0 102.5 6t50 17.5t19.5 32.5q-63 83 -165 209q-14 18 -21.5 35t-7.5 37q0 28 15.5 44.5t48.5 36.5l309 186
q19 11 35 11q15 0 27 -8.5t16 -24.5q3 -9 3 -17q0 -31 -36 -52l-313 -183l15 -19q88 -113 140 -173q50 -60 81 -88t64 -39t83 -11zM252 -443.5q-15 15.5 -15 35.5t15 35t35 15t35.5 -15t15.5 -35t-15 -35.5t-36 -15.5q-20 0 -35 15.5zM369.5 -444q-14.5 15 -14.5 36
q0 20 15 35t35 15t35.5 -15t15.5 -35t-15 -35.5t-36 -15.5t-35.5 15z" />
    <glyph glyph-name="uniFC86" unicode="&#xfee0;&#xfef0;" horiz-adv-x="861" arabic-form="final" 
d="M878 121v-118l-17 -3q-133 0 -163 86q-21 -34 -62 -53q37 -35 37 -94q0 -67 -39 -118t-112.5 -79t-174.5 -28q-163 0 -240.5 69.5t-77.5 216.5q0 84 35 159q8 17 21 27t28 10q6 0 10 -1q15 -4 23 -15t8 -26q0 -11 -4 -22q-26 -63 -26 -124q1 -64 23 -101t72.5 -53.5
t137.5 -16.5q111 0 172.5 28t61.5 76q0 31 -27.5 47.5t-84.5 21.5q-25 1 -40 18t-15 41q0 28 17.5 44t45.5 14q20 -3 53 -3q39 0 59.5 7.5t28.5 27.5t8 58v463q0 29 13 44.5t37 15.5t36.5 -15.5t12.5 -44.5v-427q0 -52 12 -79.5t39 -38.5t75 -11z" />
    <glyph glyph-name="uniFC87" unicode="&#xfee0;&#xfef2;" horiz-adv-x="861" arabic-form="final" 
d="M878 121v-118l-17 -3q-133 0 -163 86q-21 -34 -62 -53q37 -35 37 -94q0 -67 -39 -118t-112.5 -79t-174.5 -28q-163 0 -240.5 69.5t-77.5 216.5q0 84 35 159q8 17 21 27t28 10q6 0 10 -1q15 -4 23 -15t8 -26q0 -11 -4 -22q-26 -63 -26 -124q1 -64 23 -101t72.5 -53.5
t137.5 -16.5q111 0 172.5 28t61.5 76q0 31 -27.5 47.5t-84.5 21.5q-25 1 -40 18t-15 41q0 28 17.5 44t45.5 14q20 -3 53 -3q39 0 59.5 7.5t28.5 27.5t8 58v463q0 29 13 44.5t37 15.5t36.5 -15.5t12.5 -44.5v-427q0 -52 12 -79.5t39 -38.5t75 -11zM252 -443.5
q-15 15.5 -15 35.5t15 35t35 15t35.5 -15t15.5 -35t-15 -35.5t-36 -15.5q-20 0 -35 15.5zM369.5 -444q-14.5 15 -14.5 36q0 20 15 35t35 15t35.5 -15t15.5 -35t-15 -35.5t-36 -15.5t-35.5 15z" />
    <glyph glyph-name="uniFC8A" unicode="&#xfee8;&#xfeae;" horiz-adv-x="682" arabic-form="final" 
d="M699 121v-118l-17 -3q-98 0 -149.5 42t-59.5 129q-32 -53 -115 -53q-55 0 -80 33q2 -32 2 -50q0 -95 -30 -173t-83 -123.5t-121 -45.5q-55 0 -84 17q-31 20 -31 54q0 9 1 14q4 21 18 32t33 11l10 -1q18 -3 45 -3q44 0 78.5 26.5t54 76t19.5 114.5q0 71 -15 143
q-2 12 -2 16q0 22 12.5 35.5t33.5 13.5q31 0 41 -37q9 -19 30.5 -27.5t64.5 -8.5q58 0 86 14t28 52q0 19 12.5 32.5t32.5 13.5t32 -14t12 -35v-51q0 -69 27.5 -96t96.5 -27zM475.5 455q-16.5 17 -16.5 40t16.5 39.5t39.5 16.5t39.5 -16.5t16.5 -39.5t-16.5 -40t-39.5 -17
t-39.5 17z" />
    <glyph glyph-name="uniFC8B" unicode="&#xfee8;&#xfeb0;" horiz-adv-x="682" arabic-form="final" 
d="M699 121v-118l-17 -3q-98 0 -149.5 42t-59.5 129q-32 -53 -115 -53q-55 0 -80 33q2 -32 2 -50q0 -95 -30 -173t-83 -123.5t-121 -45.5q-55 0 -84 17q-31 20 -31 54q0 9 1 14q4 21 18 32t33 11l10 -1q18 -3 45 -3q44 0 78.5 26.5t54 76t19.5 114.5q0 71 -15 143
q-2 12 -2 16q0 22 12.5 35.5t33.5 13.5q31 0 41 -37q9 -19 30.5 -27.5t64.5 -8.5q58 0 86 14t28 52q0 19 12.5 32.5t32.5 13.5t32 -14t12 -35v-51q0 -69 27.5 -96t96.5 -27zM475.5 455q-16.5 17 -16.5 40t16.5 39.5t39.5 16.5t39.5 -16.5t16.5 -39.5t-16.5 -40t-39.5 -17
t-39.5 17zM175.5 408q-16.5 17 -16.5 40t16.5 39.5t39.5 16.5t39.5 -16.5t16.5 -39.5t-16.5 -40t-39.5 -17t-39.5 17z" />
    <glyph glyph-name="uniFC8D" unicode="&#xfee8;&#xfee6;" horiz-adv-x="1041" arabic-form="final" 
d="M1058 121v-118l-17 -3q-97 0 -148.5 42t-60.5 129q-32 -53 -115 -53q-57 0 -81 35q4 -40 4 -89q0 -150 -75.5 -225t-237.5 -75q-157 0 -227.5 70t-70.5 223q0 92 29 166q7 17 19 26.5t28 9.5q7 0 11 -1q31 -7 31 -40q0 -9 -3 -20q-20 -62 -20 -134q0 -66 20.5 -104
t66.5 -55t126 -17q113 0 160.5 40t47.5 131q0 84 -15 184q-2 10 -2 15q0 21 12.5 34.5t33.5 13.5q38 0 48 -41q9 -15 30 -21.5t63 -6.5q57 0 85 14t28 50q0 19 12.5 32.5t32.5 13.5t32 -14t12 -35v-51q0 -69 27.5 -96t96.5 -27zM292.5 393q-16.5 17 -16.5 40t16.5 39.5
t39.5 16.5t39.5 -16.5t16.5 -39.5t-16.5 -40t-39.5 -17t-39.5 17zM833.5 455q-16.5 17 -16.5 40t16.5 39.5t39.5 16.5t39.5 -16.5t16.5 -39.5t-16.5 -40t-39.5 -17t-39.5 17z" />
    <glyph glyph-name="uniFC8E" unicode="&#xfee8;&#xfef0;" horiz-adv-x="921" arabic-form="final" 
d="M61 175q7 17 19.5 27t27.5 10q7 0 11 -1q31 -7 31 -40q0 -10 -3 -21q-23 -67 -23 -128q0 -70 24 -109.5t77.5 -57.5t147.5 -18q265 0 265 103q0 19 -12 29t-40 17.5t-91 19.5q-60 12 -93 34t-46 56t-13 86q0 56 31.5 105.5t84.5 79t113 29.5q61 0 101 -20.5t64.5 -52
t52.5 -82.5l21 -39q23 -43 45.5 -60.5t64.5 -17.5l17 -3v-118l-17 -3q-68 0 -105 26.5t-68 84.5l-25 45q-24 44 -43 68t-46.5 37.5t-69.5 13.5q-36 0 -68.5 -11.5t-52.5 -30t-20 -38.5q0 -21 11.5 -33t34 -19.5t75.5 -20.5l41 -10q69 -17 102 -56t33 -105q0 -112 -90 -174.5
t-265 -62.5q-173 0 -254.5 72.5t-81.5 228.5q0 87 32 160zM532.5 504q-16.5 17 -16.5 40t16.5 39.5t39.5 16.5t39.5 -16.5t16.5 -39.5t-16.5 -40t-39.5 -17t-39.5 17z" />
    <glyph glyph-name="uniFC8F" unicode="&#xfee8;&#xfef2;" horiz-adv-x="921" arabic-form="final" 
d="M61 175q7 17 19.5 27t27.5 10q7 0 11 -1q31 -7 31 -40q0 -10 -3 -21q-23 -67 -23 -128q0 -70 24 -109.5t77.5 -57.5t147.5 -18q265 0 265 103q0 19 -12 29t-40 17.5t-91 19.5q-60 12 -93 34t-46 56t-13 86q0 56 31.5 105.5t84.5 79t113 29.5q61 0 101 -20.5t64.5 -52
t52.5 -82.5l21 -39q23 -43 45.5 -60.5t64.5 -17.5l17 -3v-118l-17 -3q-68 0 -105 26.5t-68 84.5l-25 45q-24 44 -43 68t-46.5 37.5t-69.5 13.5q-36 0 -68.5 -11.5t-52.5 -30t-20 -38.5q0 -21 11.5 -33t34 -19.5t75.5 -20.5l41 -10q69 -17 102 -56t33 -105q0 -112 -90 -174.5
t-265 -62.5q-173 0 -254.5 72.5t-81.5 228.5q0 87 32 160zM532.5 504q-16.5 17 -16.5 40t16.5 39.5t39.5 16.5t39.5 -16.5t16.5 -39.5t-16.5 -40t-39.5 -17t-39.5 17zM273 -443.5q-15 15.5 -15 35.5t15 35t35 15t35.5 -15t15.5 -35t-15 -35.5t-36 -15.5q-20 0 -35 15.5z
M390.5 -444q-14.5 15 -14.5 36q0 20 15 35t35 15t35.5 -15t15.5 -35t-15 -35.5t-36 -15.5t-35.5 15z" />
    <glyph glyph-name="uniFC91" unicode="&#xfef4;&#xfeae;" horiz-adv-x="682" arabic-form="final" 
d="M699 121v-118l-17 -3q-98 0 -149.5 42t-59.5 129q-32 -53 -115 -53q-55 0 -80 33q2 -32 2 -50q0 -95 -30 -173t-83 -123.5t-121 -45.5q-55 0 -84 17q-31 20 -31 54q0 9 1 14q4 21 18 32t33 11l10 -1q18 -3 45 -3q44 0 78.5 26.5t54 76t19.5 114.5q0 71 -15 143
q-2 12 -2 16q0 22 12.5 35.5t33.5 13.5q31 0 41 -37q9 -19 30.5 -27.5t64.5 -8.5q58 0 86 14t28 52q0 19 12.5 32.5t32.5 13.5t32 -14t12 -35v-51q0 -69 27.5 -96t96.5 -27zM413 -138.5q-15 15.5 -15 35.5t15 35t35 15t35.5 -15t15.5 -35t-15 -35.5t-36 -15.5
q-20 0 -35 15.5zM530.5 -139q-14.5 15 -14.5 36q0 20 15 35t35 15t35.5 -15t15.5 -35t-15 -35.5t-36 -15.5t-35.5 15z" />
    <glyph glyph-name="uniFC92" unicode="&#xfef4;&#xfeb0;" horiz-adv-x="682" arabic-form="final" 
d="M699 121v-118l-17 -3q-98 0 -149.5 42t-59.5 129q-32 -53 -115 -53q-55 0 -80 33q2 -32 2 -50q0 -95 -30 -173t-83 -123.5t-121 -45.5q-55 0 -84 17q-31 20 -31 54q0 9 1 14q4 21 18 32t33 11l10 -1q18 -3 45 -3q44 0 78.5 26.5t54 76t19.5 114.5q0 71 -15 143
q-2 12 -2 16q0 22 12.5 35.5t33.5 13.5q31 0 41 -37q9 -19 30.5 -27.5t64.5 -8.5q58 0 86 14t28 52q0 19 12.5 32.5t32.5 13.5t32 -14t12 -35v-51q0 -69 27.5 -96t96.5 -27zM413 -138.5q-15 15.5 -15 35.5t15 35t35 15t35.5 -15t15.5 -35t-15 -35.5t-36 -15.5
q-20 0 -35 15.5zM530.5 -139q-14.5 15 -14.5 36q0 20 15 35t35 15t35.5 -15t15.5 -35t-15 -35.5t-36 -15.5t-35.5 15zM175.5 408q-16.5 17 -16.5 40t16.5 39.5t39.5 16.5t39.5 -16.5t16.5 -39.5t-16.5 -40t-39.5 -17t-39.5 17z" />
    <glyph glyph-name="uniFC94" unicode="&#xfef4;&#xfee6;" horiz-adv-x="1041" arabic-form="final" 
d="M1058 121v-118l-17 -3q-97 0 -148.5 42t-60.5 129q-32 -53 -115 -53q-57 0 -81 35q4 -40 4 -89q0 -150 -75.5 -225t-237.5 -75q-157 0 -227.5 70t-70.5 223q0 92 29 166q7 17 19 26.5t28 9.5q7 0 11 -1q31 -7 31 -40q0 -9 -3 -20q-20 -62 -20 -134q0 -66 20.5 -104
t66.5 -55t126 -17q113 0 160.5 40t47.5 131q0 84 -15 184q-2 10 -2 15q0 21 12.5 34.5t33.5 13.5q38 0 48 -41q9 -15 30 -21.5t63 -6.5q57 0 85 14t28 50q0 19 12.5 32.5t32.5 13.5t32 -14t12 -35v-51q0 -69 27.5 -96t96.5 -27zM292.5 393q-16.5 17 -16.5 40t16.5 39.5
t39.5 16.5t39.5 -16.5t16.5 -39.5t-16.5 -40t-39.5 -17t-39.5 17zM778 -137.5q-15 15.5 -15 35.5t15 35t35 15t35.5 -15t15.5 -35t-15 -35.5t-36 -15.5q-20 0 -35 15.5zM895.5 -138q-14.5 15 -14.5 36q0 20 15 35t35 15t35.5 -15t15.5 -35t-15 -35.5t-36 -15.5t-35.5 15z
" />
    <glyph glyph-name="uniFC95" unicode="&#xfef4;&#xfef0;" horiz-adv-x="921" arabic-form="final" 
d="M61 175q7 17 19.5 27t27.5 10q7 0 11 -1q31 -7 31 -40q0 -10 -3 -21q-23 -67 -23 -128q0 -70 24 -109.5t77.5 -57.5t147.5 -18q265 0 265 103q0 19 -12 29t-40 17.5t-91 19.5q-60 12 -93 34t-46 56t-13 86q0 56 31.5 105.5t84.5 79t113 29.5q61 0 101 -20.5t64.5 -52
t52.5 -82.5l21 -39q23 -43 45.5 -60.5t64.5 -17.5l17 -3v-118l-17 -3q-68 0 -105 26.5t-68 84.5l-25 45q-24 44 -43 68t-46.5 37.5t-69.5 13.5q-36 0 -68.5 -11.5t-52.5 -30t-20 -38.5q0 -21 11.5 -33t34 -19.5t75.5 -20.5l41 -10q69 -17 102 -56t33 -105q0 -112 -90 -174.5
t-265 -62.5q-173 0 -254.5 72.5t-81.5 228.5q0 87 32 160zM769.5 -158q-14.5 15 -14.5 35t14.5 34.5t34.5 14.5t35 -15t15 -34q0 -20 -15 -35t-35 -15t-34.5 15zM884.5 -158q-14.5 15 -14.5 35q0 19 15 34t34 15q20 0 35 -14.5t15 -34.5t-14.5 -35t-35.5 -15q-20 0 -34.5 15
z" />
    <glyph glyph-name="uniFC96" unicode="&#xfef4;&#xfef2;" horiz-adv-x="921" arabic-form="final" 
d="M61 175q7 17 19.5 27t27.5 10q7 0 11 -1q31 -7 31 -40q0 -10 -3 -21q-23 -67 -23 -128q0 -70 24 -109.5t77.5 -57.5t147.5 -18q265 0 265 103q0 19 -12 29t-40 17.5t-91 19.5q-60 12 -93 34t-46 56t-13 86q0 56 31.5 105.5t84.5 79t113 29.5q61 0 101 -20.5t64.5 -52
t52.5 -82.5l21 -39q23 -43 45.5 -60.5t64.5 -17.5l17 -3v-118l-17 -3q-68 0 -105 26.5t-68 84.5l-25 45q-24 44 -43 68t-46.5 37.5t-69.5 13.5q-36 0 -68.5 -11.5t-52.5 -30t-20 -38.5q0 -21 11.5 -33t34 -19.5t75.5 -20.5l41 -10q69 -17 102 -56t33 -105q0 -112 -90 -174.5
t-265 -62.5q-173 0 -254.5 72.5t-81.5 228.5q0 87 32 160zM769.5 -158q-14.5 15 -14.5 35t14.5 34.5t34.5 14.5t35 -15t15 -34q0 -20 -15 -35t-35 -15t-34.5 15zM884.5 -158q-14.5 15 -14.5 35q0 19 15 34t34 15q20 0 35 -14.5t15 -34.5t-14.5 -35t-35.5 -15q-20 0 -34.5 15
zM273 -443.5q-15 15.5 -15 35.5t15 35t35 15t35.5 -15t15.5 -35t-15 -35.5t-36 -15.5q-20 0 -35 15.5zM390.5 -444q-14.5 15 -14.5 36q0 20 15 35t35 15t35.5 -15t15.5 -35t-15 -35.5t-36 -15.5t-35.5 15z" />
    <glyph glyph-name="uniFCFB" unicode="&#xfeb3;&#xfef0;" horiz-adv-x="1400" arabic-form="isolated" 
d="M1355 205q0 -102 -46 -153.5t-127 -51.5q-104 0 -133 69q-31 -69 -133 -69q-46 0 -76 13t-50.5 36t-41.5 62l-25 45q-24 44 -43 68t-46.5 37.5t-69.5 13.5q-36 0 -68.5 -11.5t-52.5 -30t-20 -38.5q0 -22 13 -34.5t38 -20.5t82 -21l29 -7q69 -17 102 -56t33 -105
q0 -111 -90.5 -174t-264.5 -63q-173 0 -254.5 72.5t-81.5 228.5q0 87 35 164q8 17 20.5 27t27.5 10q7 0 11 -1q14 -5 22.5 -15.5t8.5 -25.5q0 -11 -4 -22q-26 -67 -26 -130q0 -70 24 -109.5t77.5 -57.5t147.5 -18q265 0 265 103q0 19 -12 29t-39.5 17t-91.5 20
q-60 12 -93 34t-46 56t-13 86q0 56 31.5 105.5t84.5 79t113 29.5q61 0 101 -20.5t65 -52t52 -82.5l21 -39q24 -45 45.5 -61.5t64.5 -16.5q51 0 71 19.5t20 68.5v61q0 22 12.5 35.5t32.5 13.5q19 0 32 -14t13 -35v-61q0 -50 18 -69t64 -19q44 0 62 18t18 63q0 22 -6 51t-7 36
q-2 10 -2 13q0 20 12.5 32.5t32.5 12.5q33 0 45 -40q16 -52 16 -105z" />
    <glyph glyph-name="uniFCFC" unicode="&#xfeb3;&#xfef2;" horiz-adv-x="1400" arabic-form="isolated" 
d="M1355 205q0 -102 -46 -153.5t-127 -51.5q-104 0 -133 69q-31 -69 -133 -69q-46 0 -76 13t-50.5 36t-41.5 62l-25 45q-24 44 -43 68t-46.5 37.5t-69.5 13.5q-36 0 -68.5 -11.5t-52.5 -30t-20 -38.5q0 -22 13 -34.5t38 -20.5t82 -21l29 -7q69 -17 102 -56t33 -105
q0 -111 -90.5 -174t-264.5 -63q-173 0 -254.5 72.5t-81.5 228.5q0 87 35 164q8 17 20.5 27t27.5 10q7 0 11 -1q14 -5 22.5 -15.5t8.5 -25.5q0 -11 -4 -22q-26 -67 -26 -130q0 -70 24 -109.5t77.5 -57.5t147.5 -18q265 0 265 103q0 19 -12 29t-39.5 17t-91.5 20
q-60 12 -93 34t-46 56t-13 86q0 56 31.5 105.5t84.5 79t113 29.5q61 0 101 -20.5t65 -52t52 -82.5l21 -39q24 -45 45.5 -61.5t64.5 -16.5q51 0 71 19.5t20 68.5v61q0 22 12.5 35.5t32.5 13.5q19 0 32 -14t13 -35v-61q0 -50 18 -69t64 -19q44 0 62 18t18 63q0 22 -6 51t-7 36
q-2 10 -2 13q0 20 12.5 32.5t32.5 12.5q33 0 45 -40q16 -52 16 -105zM270 -446.5q-15 15.5 -15 35.5t15 35t35 15t35.5 -15t15.5 -35t-15 -35.5t-36 -15.5q-20 0 -35 15.5zM387.5 -447q-14.5 15 -14.5 36q0 20 15 35t35 15t35.5 -15t15.5 -35t-15 -35.5t-36 -15.5t-35.5 15z
" />
    <glyph glyph-name="uniFCFD" unicode="&#xfeb7;&#xfef0;" horiz-adv-x="1400" arabic-form="isolated" 
d="M1355 205q0 -102 -46 -153.5t-127 -51.5q-104 0 -133 69q-31 -69 -133 -69q-46 0 -76 13t-50.5 36t-41.5 62l-25 45q-24 44 -43 68t-46.5 37.5t-69.5 13.5q-36 0 -68.5 -11.5t-52.5 -30t-20 -38.5q0 -22 13 -34.5t38 -20.5t82 -21l29 -7q69 -17 102 -56t33 -105
q0 -111 -90.5 -174t-264.5 -63q-173 0 -254.5 72.5t-81.5 228.5q0 87 35 164q8 17 20.5 27t27.5 10q7 0 11 -1q14 -5 22.5 -15.5t8.5 -25.5q0 -11 -4 -22q-26 -67 -26 -130q0 -70 24 -109.5t77.5 -57.5t147.5 -18q265 0 265 103q0 19 -12 29t-39.5 17t-91.5 20
q-60 12 -93 34t-46 56t-13 86q0 56 31.5 105.5t84.5 79t113 29.5q61 0 101 -20.5t65 -52t52 -82.5l21 -39q24 -45 45.5 -61.5t64.5 -16.5q51 0 71 19.5t20 68.5v61q0 22 12.5 35.5t32.5 13.5q19 0 32 -14t13 -35v-61q0 -50 18 -69t64 -19q44 0 62 18t18 63q0 22 -6 51t-7 36
q-2 10 -2 13q0 20 12.5 32.5t32.5 12.5q33 0 45 -40q16 -52 16 -105zM1090.5 603.5q14.5 -14.5 14.5 -34.5q0 -19 -14.5 -33.5t-34.5 -14.5q-19 0 -33.5 14.5t-14.5 33.5q0 20 14 34.5t34 14.5t34.5 -14.5zM1032 492q15 -15 15 -36t-15.5 -36t-36.5 -15q-20 0 -35.5 15
t-15.5 36q0 20 15.5 35.5t35.5 15.5q22 0 37 -15zM1151 491.5q15 -15.5 15 -35.5q0 -21 -15.5 -36t-35.5 -15q-21 0 -36 15t-15 36t15 36t36 15t36 -15.5z" />
    <glyph glyph-name="uniFCFE" unicode="&#xfeb7;&#xfef2;" horiz-adv-x="1400" arabic-form="isolated" 
d="M1355 205q0 -102 -46 -153.5t-127 -51.5q-104 0 -133 69q-31 -69 -133 -69q-46 0 -76 13t-50.5 36t-41.5 62l-25 45q-24 44 -43 68t-46.5 37.5t-69.5 13.5q-36 0 -68.5 -11.5t-52.5 -30t-20 -38.5q0 -22 13 -34.5t38 -20.5t82 -21l29 -7q69 -17 102 -56t33 -105
q0 -111 -90.5 -174t-264.5 -63q-173 0 -254.5 72.5t-81.5 228.5q0 87 35 164q8 17 20.5 27t27.5 10q7 0 11 -1q14 -5 22.5 -15.5t8.5 -25.5q0 -11 -4 -22q-26 -67 -26 -130q0 -70 24 -109.5t77.5 -57.5t147.5 -18q265 0 265 103q0 19 -12 29t-39.5 17t-91.5 20
q-60 12 -93 34t-46 56t-13 86q0 56 31.5 105.5t84.5 79t113 29.5q61 0 101 -20.5t65 -52t52 -82.5l21 -39q24 -45 45.5 -61.5t64.5 -16.5q51 0 71 19.5t20 68.5v61q0 22 12.5 35.5t32.5 13.5q19 0 32 -14t13 -35v-61q0 -50 18 -69t64 -19q44 0 62 18t18 63q0 22 -6 51t-7 36
q-2 10 -2 13q0 20 12.5 32.5t32.5 12.5q33 0 45 -40q16 -52 16 -105zM1090.5 603.5q14.5 -14.5 14.5 -34.5q0 -19 -14.5 -33.5t-34.5 -14.5q-19 0 -33.5 14.5t-14.5 33.5q0 20 14 34.5t34 14.5t34.5 -14.5zM1032 492q15 -15 15 -36t-15.5 -36t-36.5 -15q-20 0 -35.5 15
t-15.5 36q0 20 15.5 35.5t35.5 15.5q22 0 37 -15zM1151 491.5q15 -15.5 15 -35.5q0 -21 -15.5 -36t-35.5 -15q-21 0 -36 15t-15 36t15 36t36 15t36 -15.5zM270 -446.5q-15 15.5 -15 35.5t15 35t35 15t35.5 -15t15.5 -35t-15 -35.5t-36 -15.5q-20 0 -35 15.5zM387.5 -447
q-14.5 15 -14.5 36q0 20 15 35t35 15t35.5 -15t15.5 -35t-15 -35.5t-36 -15.5t-35.5 15z" />
    <glyph glyph-name="uniFD05" unicode="&#xfebb;&#xfef0;" horiz-adv-x="1487" arabic-form="isolated" 
d="M1339 425.5q49 -31.5 76 -88t27 -130.5q0 -104 -61.5 -155.5t-187.5 -51.5h-262q-48 0 -79.5 14t-51 36.5t-41.5 60.5l-30 53q-35 63 -69.5 91t-95.5 28q-38 0 -72.5 -12.5t-55.5 -33t-21 -42.5q0 -21 12.5 -33t35.5 -19.5t79 -20.5l43 -10q69 -17 102 -56t33 -105
q0 -111 -90.5 -174t-264.5 -63q-173 0 -254.5 72.5t-81.5 228.5q0 87 35 164q8 17 20.5 27t27.5 10q7 0 11 -1q14 -5 22.5 -15.5t8.5 -25.5q0 -11 -4 -22q-26 -67 -26 -130q0 -70 24 -109.5t77.5 -57.5t147.5 -18q265 0 265 103q0 19 -12 29t-40 17.5t-91 19.5t-97.5 34
t-48.5 56t-14 86q0 58 33 109t87.5 82t116.5 31q61 0 102.5 -20.5t68 -53t53.5 -81.5l26 -47q25 -44 33 -54q70 114 129.5 181t117.5 97.5t124 30.5q64 0 113 -31.5zM1295 131.5q33 7.5 47.5 25t14.5 48.5q0 57 -38 95t-99 38q-79 0 -148.5 -51.5t-141.5 -162.5h274
q58 0 91 7.5z" />
    <glyph glyph-name="uniFD06" unicode="&#xfebb;&#xfef2;" horiz-adv-x="1487" arabic-form="isolated" 
d="M1339 425.5q49 -31.5 76 -88t27 -130.5q0 -104 -61.5 -155.5t-187.5 -51.5h-262q-48 0 -79.5 14t-51 36.5t-41.5 60.5l-30 53q-35 63 -69.5 91t-95.5 28q-38 0 -72.5 -12.5t-55.5 -33t-21 -42.5q0 -21 12.5 -33t35.5 -19.5t79 -20.5l43 -10q69 -17 102 -56t33 -105
q0 -111 -90.5 -174t-264.5 -63q-173 0 -254.5 72.5t-81.5 228.5q0 87 35 164q8 17 20.5 27t27.5 10q7 0 11 -1q14 -5 22.5 -15.5t8.5 -25.5q0 -11 -4 -22q-26 -67 -26 -130q0 -70 24 -109.5t77.5 -57.5t147.5 -18q265 0 265 103q0 19 -12 29t-40 17.5t-91 19.5t-97.5 34
t-48.5 56t-14 86q0 58 33 109t87.5 82t116.5 31q61 0 102.5 -20.5t68 -53t53.5 -81.5l26 -47q25 -44 33 -54q70 114 129.5 181t117.5 97.5t124 30.5q64 0 113 -31.5zM1295 131.5q33 7.5 47.5 25t14.5 48.5q0 57 -38 95t-99 38q-79 0 -148.5 -51.5t-141.5 -162.5h274
q58 0 91 7.5zM275 -443.5q-15 15.5 -15 35.5t15 35t35 15t35.5 -15t15.5 -35t-15 -35.5t-36 -15.5q-20 0 -35 15.5zM392.5 -444q-14.5 15 -14.5 36q0 20 15 35t35 15t35.5 -15t15.5 -35t-15 -35.5t-36 -15.5t-35.5 15z" />
    <glyph glyph-name="uniFD07" unicode="&#xfebf;&#xfef0;" horiz-adv-x="1487" arabic-form="isolated" 
d="M1339 425.5q49 -31.5 76 -88t27 -130.5q0 -104 -61.5 -155.5t-187.5 -51.5h-262q-48 0 -79.5 14t-51 36.5t-41.5 60.5l-30 53q-35 63 -69.5 91t-95.5 28q-38 0 -72.5 -12.5t-55.5 -33t-21 -42.5q0 -21 12.5 -33t35.5 -19.5t79 -20.5l43 -10q69 -17 102 -56t33 -105
q0 -111 -90.5 -174t-264.5 -63q-173 0 -254.5 72.5t-81.5 228.5q0 87 35 164q8 17 20.5 27t27.5 10q7 0 11 -1q14 -5 22.5 -15.5t8.5 -25.5q0 -11 -4 -22q-26 -67 -26 -130q0 -70 24 -109.5t77.5 -57.5t147.5 -18q265 0 265 103q0 19 -12 29t-40 17.5t-91 19.5t-97.5 34
t-48.5 56t-14 86q0 58 33 109t87.5 82t116.5 31q61 0 102.5 -20.5t68 -53t53.5 -81.5l26 -47q25 -44 33 -54q70 114 129.5 181t117.5 97.5t124 30.5q64 0 113 -31.5zM1295 131.5q33 7.5 47.5 25t14.5 48.5q0 57 -38 95t-99 38q-79 0 -148.5 -51.5t-141.5 -162.5h274
q58 0 91 7.5zM1186.5 565q-16.5 17 -16.5 40t16.5 39.5t39.5 16.5t39.5 -16.5t16.5 -39.5t-16.5 -40t-39.5 -17t-39.5 17z" />
    <glyph glyph-name="uniFD08" unicode="&#xfebf;&#xfef2;" horiz-adv-x="1487" arabic-form="isolated" 
d="M1339 425.5q49 -31.5 76 -88t27 -130.5q0 -104 -61.5 -155.5t-187.5 -51.5h-262q-48 0 -79.5 14t-51 36.5t-41.5 60.5l-30 53q-35 63 -69.5 91t-95.5 28q-38 0 -72.5 -12.5t-55.5 -33t-21 -42.5q0 -21 12.5 -33t35.5 -19.5t79 -20.5l43 -10q69 -17 102 -56t33 -105
q0 -111 -90.5 -174t-264.5 -63q-173 0 -254.5 72.5t-81.5 228.5q0 87 35 164q8 17 20.5 27t27.5 10q7 0 11 -1q14 -5 22.5 -15.5t8.5 -25.5q0 -11 -4 -22q-26 -67 -26 -130q0 -70 24 -109.5t77.5 -57.5t147.5 -18q265 0 265 103q0 19 -12 29t-40 17.5t-91 19.5t-97.5 34
t-48.5 56t-14 86q0 58 33 109t87.5 82t116.5 31q61 0 102.5 -20.5t68 -53t53.5 -81.5l26 -47q25 -44 33 -54q70 114 129.5 181t117.5 97.5t124 30.5q64 0 113 -31.5zM1295 131.5q33 7.5 47.5 25t14.5 48.5q0 57 -38 95t-99 38q-79 0 -148.5 -51.5t-141.5 -162.5h274
q58 0 91 7.5zM275 -443.5q-15 15.5 -15 35.5t15 35t35 15t35.5 -15t15.5 -35t-15 -35.5t-36 -15.5q-20 0 -35 15.5zM392.5 -444q-14.5 15 -14.5 36q0 20 15 35t35 15t35.5 -15t15.5 -35t-15 -35.5t-36 -15.5t-35.5 15zM1186.5 565q-16.5 17 -16.5 40t16.5 39.5t39.5 16.5
t39.5 -16.5t16.5 -39.5t-16.5 -40t-39.5 -17t-39.5 17z" />
    <glyph glyph-name="uniFD0D" unicode="&#xfeb7;&#xfeae;" horiz-adv-x="1148" arabic-form="isolated" 
d="M1102 205q0 -102 -46 -153.5t-127 -51.5q-105 0 -133 70q-33 -70 -145 -70q-83 0 -127 42t-51 130q-33 -54 -115 -54q-55 0 -79 33l1 -50q0 -95 -30 -173t-83 -123.5t-121 -45.5q-55 0 -84 17q-31 20 -31 54q0 9 1 14q4 21 18 32t33 11l10 -1q18 -3 45 -3q44 0 78.5 26.5
t54 76t19.5 114.5q0 67 -16 143q-1 5 -1 15q0 23 12 36.5t34 13.5q33 0 43 -41q9 -16 30.5 -23t62.5 -7q58 0 87 15t29 54q0 19 12.5 32.5t32.5 13.5q21 0 33 -13.5t12 -34.5v-67q0 -64 20.5 -88.5t74.5 -24.5q58 0 80.5 19.5t22.5 68.5v61q0 21 13 35t32 14t32 -14t13 -35
v-61q0 -50 18 -69t64 -19q44 0 62 18t18 63q0 31 -13 87q-1 4 -1 12q0 20 12 33t33 13q32 0 44 -40q16 -52 16 -105zM837.5 603.5q14.5 -14.5 14.5 -34.5q0 -19 -14.5 -33.5t-34.5 -14.5q-19 0 -33.5 14.5t-14.5 33.5q0 20 14 34.5t34 14.5t34.5 -14.5zM779 492
q15 -15 15 -36t-15.5 -36t-36.5 -15q-20 0 -35.5 15t-15.5 36q0 20 15.5 35.5t35.5 15.5q22 0 37 -15zM898 491.5q15 -15.5 15 -35.5q0 -21 -15.5 -36t-35.5 -15q-21 0 -36 15t-15 36t15 36t36 15t36 -15.5z" />
    <glyph glyph-name="uniFD0E" unicode="&#xfeb3;&#xfeae;" horiz-adv-x="1148" arabic-form="isolated" 
d="M1102 205q0 -102 -46 -153.5t-127 -51.5q-105 0 -133 70q-33 -70 -145 -70q-83 0 -127 42t-51 130q-33 -54 -115 -54q-55 0 -79 33l1 -50q0 -95 -30 -173t-83 -123.5t-121 -45.5q-55 0 -84 17q-31 20 -31 54q0 9 1 14q4 21 18 32t33 11l10 -1q18 -3 45 -3q44 0 78.5 26.5
t54 76t19.5 114.5q0 67 -16 143q-1 5 -1 15q0 23 12 36.5t34 13.5q33 0 43 -41q9 -16 30.5 -23t62.5 -7q58 0 87 15t29 54q0 19 12.5 32.5t32.5 13.5q21 0 33 -13.5t12 -34.5v-67q0 -64 20.5 -88.5t74.5 -24.5q58 0 80.5 19.5t22.5 68.5v61q0 21 13 35t32 14t32 -14t13 -35
v-61q0 -50 18 -69t64 -19q44 0 62 18t18 63q0 31 -13 87q-1 4 -1 12q0 20 12 33t33 13q32 0 44 -40q16 -52 16 -105z" />
    <glyph glyph-name="uniFD0F" unicode="&#xfebb;&#xfeae;" horiz-adv-x="1259" arabic-form="isolated" 
d="M1110 425.5q49 -31.5 76 -88t27 -130.5q0 -104 -61.5 -155.5t-187.5 -51.5h-313q-83 0 -127 42t-51 130q-33 -54 -115 -54q-55 0 -79 33l1 -50q0 -95 -30 -173t-83 -123.5t-121 -45.5q-55 0 -84 17q-31 20 -31 54q0 9 1 14q4 21 18 32t33 11l10 -1q18 -3 45 -3
q44 0 78.5 26.5t54 76t19.5 114.5q0 67 -16 143q-1 5 -1 15q0 23 12 36.5t34 13.5q33 0 43 -41q9 -16 30.5 -23t62.5 -7q58 0 87 15t29 54q0 19 12.5 32.5t32.5 13.5q21 0 33 -13.5t12 -34.5v-67q0 -50 12 -75.5t41 -33.5q73 122 134.5 193.5t121 103.5t127.5 32
q64 0 113 -31.5zM1095 141.5q34 17.5 34 63.5q0 56 -38.5 94.5t-99.5 38.5q-79 0 -148.5 -52t-140.5 -162h273q86 0 120 17.5z" />
    <glyph glyph-name="uniFD10" unicode="&#xfebf;&#xfeae;" horiz-adv-x="1259" arabic-form="isolated" 
d="M1110 425.5q49 -31.5 76 -88t27 -130.5q0 -104 -61.5 -155.5t-187.5 -51.5h-313q-83 0 -127 42t-51 130q-33 -54 -115 -54q-55 0 -79 33l1 -50q0 -95 -30 -173t-83 -123.5t-121 -45.5q-55 0 -84 17q-31 20 -31 54q0 9 1 14q4 21 18 32t33 11l10 -1q18 -3 45 -3
q44 0 78.5 26.5t54 76t19.5 114.5q0 67 -16 143q-1 5 -1 15q0 23 12 36.5t34 13.5q33 0 43 -41q9 -16 30.5 -23t62.5 -7q58 0 87 15t29 54q0 19 12.5 32.5t32.5 13.5q21 0 33 -13.5t12 -34.5v-67q0 -50 12 -75.5t41 -33.5q73 122 134.5 193.5t121 103.5t127.5 32
q64 0 113 -31.5zM1095 141.5q34 17.5 34 63.5q0 56 -38.5 94.5t-99.5 38.5q-79 0 -148.5 -52t-140.5 -162h273q86 0 120 17.5zM957.5 565q-16.5 17 -16.5 40t16.5 39.5t39.5 16.5t39.5 -16.5t16.5 -39.5t-16.5 -40t-39.5 -17t-39.5 17z" />
    <glyph glyph-name="uniFD17" unicode="&#xfeb4;&#xfef0;" horiz-adv-x="1479" arabic-form="final" 
d="M1496 121v-118l-17 -3q-67 0 -108.5 18t-59.5 56q-15 -36 -48 -55t-82 -19q-103 0 -132 69q-31 -69 -133 -69q-46 0 -76 13t-50.5 36t-41.5 62l-25 45q-24 44 -43 68t-46.5 37.5t-69.5 13.5q-36 0 -68.5 -11.5t-52.5 -30t-20 -38.5q0 -22 13 -34.5t38 -20.5t82 -21l29 -7
q69 -17 102 -56t33 -105q0 -111 -90.5 -174t-264.5 -63q-173 0 -254.5 72.5t-81.5 228.5q0 87 35 164q8 17 20.5 27t27.5 10q7 0 11 -1q14 -5 22.5 -15.5t8.5 -25.5q0 -11 -4 -22q-26 -67 -26 -130q0 -70 24 -109.5t77.5 -57.5t147.5 -18q265 0 265 103q0 19 -12 29
t-39.5 17t-91.5 20q-60 12 -93 34t-46 56t-13 86q0 56 31.5 105.5t84.5 79t113 29.5q61 0 101 -20.5t65 -52t52 -82.5l21 -39q24 -45 45.5 -61.5t64.5 -16.5q51 0 71 19.5t20 68.5v61q0 22 12.5 35.5t32.5 13.5q19 0 32 -14t13 -35v-61q0 -50 18 -69t64 -19q45 0 62.5 19
t17.5 68v62q0 22 12.5 35.5t32.5 13.5q19 0 32 -14t13 -35v-62q0 -48 26.5 -67.5t98.5 -19.5z" />
    <glyph glyph-name="uniFD18" unicode="&#xfeb4;&#xfef2;" horiz-adv-x="1479" arabic-form="final" 
d="M1496 121v-118l-17 -3q-67 0 -108.5 18t-59.5 56q-15 -36 -48 -55t-82 -19q-103 0 -132 69q-31 -69 -133 -69q-46 0 -76 13t-50.5 36t-41.5 62l-25 45q-24 44 -43 68t-46.5 37.5t-69.5 13.5q-36 0 -68.5 -11.5t-52.5 -30t-20 -38.5q0 -22 13 -34.5t38 -20.5t82 -21l29 -7
q69 -17 102 -56t33 -105q0 -111 -90.5 -174t-264.5 -63q-173 0 -254.5 72.5t-81.5 228.5q0 87 35 164q8 17 20.5 27t27.5 10q7 0 11 -1q14 -5 22.5 -15.5t8.5 -25.5q0 -11 -4 -22q-26 -67 -26 -130q0 -70 24 -109.5t77.5 -57.5t147.5 -18q265 0 265 103q0 19 -12 29
t-39.5 17t-91.5 20q-60 12 -93 34t-46 56t-13 86q0 56 31.5 105.5t84.5 79t113 29.5q61 0 101 -20.5t65 -52t52 -82.5l21 -39q24 -45 45.5 -61.5t64.5 -16.5q51 0 71 19.5t20 68.5v61q0 22 12.5 35.5t32.5 13.5q19 0 32 -14t13 -35v-61q0 -50 18 -69t64 -19q45 0 62.5 19
t17.5 68v62q0 22 12.5 35.5t32.5 13.5q19 0 32 -14t13 -35v-62q0 -48 26.5 -67.5t98.5 -19.5zM270 -446.5q-15 15.5 -15 35.5t15 35t35 15t35.5 -15t15.5 -35t-15 -35.5t-36 -15.5q-20 0 -35 15.5zM387.5 -447q-14.5 15 -14.5 36q0 20 15 35t35 15t35.5 -15t15.5 -35
t-15 -35.5t-36 -15.5t-35.5 15z" />
    <glyph glyph-name="uniFD19" unicode="&#xfeb8;&#xfef0;" horiz-adv-x="1479" arabic-form="final" 
d="M1496 121v-118l-17 -3q-67 0 -108.5 18t-59.5 56q-15 -36 -48 -55t-82 -19q-103 0 -132 69q-31 -69 -133 -69q-46 0 -76 13t-50.5 36t-41.5 62l-25 45q-24 44 -43 68t-46.5 37.5t-69.5 13.5q-36 0 -68.5 -11.5t-52.5 -30t-20 -38.5q0 -22 13 -34.5t38 -20.5t82 -21l29 -7
q69 -17 102 -56t33 -105q0 -111 -90.5 -174t-264.5 -63q-173 0 -254.5 72.5t-81.5 228.5q0 87 35 164q8 17 20.5 27t27.5 10q7 0 11 -1q14 -5 22.5 -15.5t8.5 -25.5q0 -11 -4 -22q-26 -67 -26 -130q0 -70 24 -109.5t77.5 -57.5t147.5 -18q265 0 265 103q0 19 -12 29
t-39.5 17t-91.5 20q-60 12 -93 34t-46 56t-13 86q0 56 31.5 105.5t84.5 79t113 29.5q61 0 101 -20.5t65 -52t52 -82.5l21 -39q24 -45 45.5 -61.5t64.5 -16.5q51 0 71 19.5t20 68.5v61q0 22 12.5 35.5t32.5 13.5q19 0 32 -14t13 -35v-61q0 -50 18 -69t64 -19q45 0 62.5 19
t17.5 68v62q0 22 12.5 35.5t32.5 13.5q19 0 32 -14t13 -35v-62q0 -48 26.5 -67.5t98.5 -19.5zM1090.5 603.5q14.5 -14.5 14.5 -34.5q0 -19 -14.5 -33.5t-34.5 -14.5q-19 0 -33.5 14.5t-14.5 33.5q0 20 14 34.5t34 14.5t34.5 -14.5zM1032 492q15 -15 15 -36t-15.5 -36
t-36.5 -15q-20 0 -35.5 15t-15.5 36q0 20 15.5 35.5t35.5 15.5q22 0 37 -15zM1151 491.5q15 -15.5 15 -35.5q0 -21 -15.5 -36t-35.5 -15q-21 0 -36 15t-15 36t15 36t36 15t36 -15.5z" />
    <glyph glyph-name="uniFD1A" unicode="&#xfeb8;&#xfef2;" horiz-adv-x="1479" arabic-form="final" 
d="M1496 121v-118l-17 -3q-67 0 -108.5 18t-59.5 56q-15 -36 -48 -55t-82 -19q-103 0 -132 69q-31 -69 -133 -69q-46 0 -76 13t-50.5 36t-41.5 62l-25 45q-24 44 -43 68t-46.5 37.5t-69.5 13.5q-36 0 -68.5 -11.5t-52.5 -30t-20 -38.5q0 -22 13 -34.5t38 -20.5t82 -21l29 -7
q69 -17 102 -56t33 -105q0 -111 -90.5 -174t-264.5 -63q-173 0 -254.5 72.5t-81.5 228.5q0 87 35 164q8 17 20.5 27t27.5 10q7 0 11 -1q14 -5 22.5 -15.5t8.5 -25.5q0 -11 -4 -22q-26 -67 -26 -130q0 -70 24 -109.5t77.5 -57.5t147.5 -18q265 0 265 103q0 19 -12 29
t-39.5 17t-91.5 20q-60 12 -93 34t-46 56t-13 86q0 56 31.5 105.5t84.5 79t113 29.5q61 0 101 -20.5t65 -52t52 -82.5l21 -39q24 -45 45.5 -61.5t64.5 -16.5q51 0 71 19.5t20 68.5v61q0 22 12.5 35.5t32.5 13.5q19 0 32 -14t13 -35v-61q0 -50 18 -69t64 -19q45 0 62.5 19
t17.5 68v62q0 22 12.5 35.5t32.5 13.5q19 0 32 -14t13 -35v-62q0 -48 26.5 -67.5t98.5 -19.5zM1090.5 603.5q14.5 -14.5 14.5 -34.5q0 -19 -14.5 -33.5t-34.5 -14.5q-19 0 -33.5 14.5t-14.5 33.5q0 20 14 34.5t34 14.5t34.5 -14.5zM1032 492q15 -15 15 -36t-15.5 -36
t-36.5 -15q-20 0 -35.5 15t-15.5 36q0 20 15.5 35.5t35.5 15.5q22 0 37 -15zM1151 491.5q15 -15.5 15 -35.5q0 -21 -15.5 -36t-35.5 -15q-21 0 -36 15t-15 36t15 36t36 15t36 -15.5zM270 -446.5q-15 15.5 -15 35.5t15 35t35 15t35.5 -15t15.5 -35t-15 -35.5t-36 -15.5
q-20 0 -35 15.5zM387.5 -447q-14.5 15 -14.5 36q0 20 15 35t35 15t35.5 -15t15.5 -35t-15 -35.5t-36 -15.5t-35.5 15z" />
    <glyph glyph-name="uniFD21" unicode="&#xfebc;&#xfef0;" horiz-adv-x="1512" arabic-form="final" 
d="M1529 121v-118l-17 -3q-60 0 -92.5 11t-47.5 34q-61 -45 -179 -45h-262q-48 0 -79.5 14t-51 36.5t-41.5 60.5l-30 53q-35 63 -69.5 91t-95.5 28q-38 0 -72.5 -12.5t-55.5 -33t-21 -42.5q0 -21 12.5 -33t35.5 -19.5t79 -20.5l43 -10q69 -17 102 -56t33 -105
q0 -111 -90.5 -174t-264.5 -63q-173 0 -254.5 72.5t-81.5 228.5q0 87 35 164q8 17 20.5 27t27.5 10q7 0 11 -1q14 -5 22.5 -15.5t8.5 -25.5q0 -11 -4 -22q-26 -67 -26 -130q0 -70 24 -109.5t77.5 -57.5t147.5 -18q265 0 265 103q0 19 -12 29t-40 17.5t-91 19.5t-97.5 34
t-48.5 56t-14 86q0 58 33 109t87.5 82t116.5 31q61 0 102.5 -20.5t68 -53t53.5 -81.5l26 -47q25 -44 33 -54q70 114 129.5 181t117.5 97.5t124 30.5q64 0 113 -31.5t76 -88t27 -130.5q0 -41 -9 -74q29 -9 79 -9zM1295 131.5q33 7.5 47.5 25t14.5 48.5q0 57 -38 95t-99 38
q-79 0 -148.5 -51.5t-141.5 -162.5h274q58 0 91 7.5z" />
    <glyph glyph-name="uniFD22" unicode="&#xfebc;&#xfef2;" horiz-adv-x="1512" arabic-form="final" 
d="M1529 121v-118l-17 -3q-60 0 -92.5 11t-47.5 34q-61 -45 -179 -45h-262q-48 0 -79.5 14t-51 36.5t-41.5 60.5l-30 53q-35 63 -69.5 91t-95.5 28q-38 0 -72.5 -12.5t-55.5 -33t-21 -42.5q0 -21 12.5 -33t35.5 -19.5t79 -20.5l43 -10q69 -17 102 -56t33 -105
q0 -111 -90.5 -174t-264.5 -63q-173 0 -254.5 72.5t-81.5 228.5q0 87 35 164q8 17 20.5 27t27.5 10q7 0 11 -1q14 -5 22.5 -15.5t8.5 -25.5q0 -11 -4 -22q-26 -67 -26 -130q0 -70 24 -109.5t77.5 -57.5t147.5 -18q265 0 265 103q0 19 -12 29t-40 17.5t-91 19.5t-97.5 34
t-48.5 56t-14 86q0 58 33 109t87.5 82t116.5 31q61 0 102.5 -20.5t68 -53t53.5 -81.5l26 -47q25 -44 33 -54q70 114 129.5 181t117.5 97.5t124 30.5q64 0 113 -31.5t76 -88t27 -130.5q0 -41 -9 -74q29 -9 79 -9zM1295 131.5q33 7.5 47.5 25t14.5 48.5q0 57 -38 95t-99 38
q-79 0 -148.5 -51.5t-141.5 -162.5h274q58 0 91 7.5zM275 -443.5q-15 15.5 -15 35.5t15 35t35 15t35.5 -15t15.5 -35t-15 -35.5t-36 -15.5q-20 0 -35 15.5zM392.5 -444q-14.5 15 -14.5 36q0 20 15 35t35 15t35.5 -15t15.5 -35t-15 -35.5t-36 -15.5t-35.5 15z" />
    <glyph glyph-name="uniFD23" unicode="&#xfec0;&#xfef0;" horiz-adv-x="1512" arabic-form="final" 
d="M1529 121v-118l-17 -3q-60 0 -92.5 11t-47.5 34q-61 -45 -179 -45h-262q-48 0 -79.5 14t-51 36.5t-41.5 60.5l-30 53q-35 63 -69.5 91t-95.5 28q-38 0 -72.5 -12.5t-55.5 -33t-21 -42.5q0 -21 12.5 -33t35.5 -19.5t79 -20.5l43 -10q69 -17 102 -56t33 -105
q0 -111 -90.5 -174t-264.5 -63q-173 0 -254.5 72.5t-81.5 228.5q0 87 35 164q8 17 20.5 27t27.5 10q7 0 11 -1q14 -5 22.5 -15.5t8.5 -25.5q0 -11 -4 -22q-26 -67 -26 -130q0 -70 24 -109.5t77.5 -57.5t147.5 -18q265 0 265 103q0 19 -12 29t-40 17.5t-91 19.5t-97.5 34
t-48.5 56t-14 86q0 58 33 109t87.5 82t116.5 31q61 0 102.5 -20.5t68 -53t53.5 -81.5l26 -47q25 -44 33 -54q70 114 129.5 181t117.5 97.5t124 30.5q64 0 113 -31.5t76 -88t27 -130.5q0 -41 -9 -74q29 -9 79 -9zM1295 131.5q33 7.5 47.5 25t14.5 48.5q0 57 -38 95t-99 38
q-79 0 -148.5 -51.5t-141.5 -162.5h274q58 0 91 7.5zM1186.5 565q-16.5 17 -16.5 40t16.5 39.5t39.5 16.5t39.5 -16.5t16.5 -39.5t-16.5 -40t-39.5 -17t-39.5 17z" />
    <glyph glyph-name="uniFD24" unicode="&#xfec0;&#xfef2;" horiz-adv-x="1512" arabic-form="final" 
d="M1529 121v-118l-17 -3q-60 0 -92.5 11t-47.5 34q-61 -45 -179 -45h-262q-48 0 -79.5 14t-51 36.5t-41.5 60.5l-30 53q-35 63 -69.5 91t-95.5 28q-38 0 -72.5 -12.5t-55.5 -33t-21 -42.5q0 -21 12.5 -33t35.5 -19.5t79 -20.5l43 -10q69 -17 102 -56t33 -105
q0 -111 -90.5 -174t-264.5 -63q-173 0 -254.5 72.5t-81.5 228.5q0 87 35 164q8 17 20.5 27t27.5 10q7 0 11 -1q14 -5 22.5 -15.5t8.5 -25.5q0 -11 -4 -22q-26 -67 -26 -130q0 -70 24 -109.5t77.5 -57.5t147.5 -18q265 0 265 103q0 19 -12 29t-40 17.5t-91 19.5t-97.5 34
t-48.5 56t-14 86q0 58 33 109t87.5 82t116.5 31q61 0 102.5 -20.5t68 -53t53.5 -81.5l26 -47q25 -44 33 -54q70 114 129.5 181t117.5 97.5t124 30.5q64 0 113 -31.5t76 -88t27 -130.5q0 -41 -9 -74q29 -9 79 -9zM1295 131.5q33 7.5 47.5 25t14.5 48.5q0 57 -38 95t-99 38
q-79 0 -148.5 -51.5t-141.5 -162.5h274q58 0 91 7.5zM275 -443.5q-15 15.5 -15 35.5t15 35t35 15t35.5 -15t15.5 -35t-15 -35.5t-36 -15.5q-20 0 -35 15.5zM392.5 -444q-14.5 15 -14.5 36q0 20 15 35t35 15t35.5 -15t15.5 -35t-15 -35.5t-36 -15.5t-35.5 15zM1186.5 565
q-16.5 17 -16.5 40t16.5 39.5t39.5 16.5t39.5 -16.5t16.5 -39.5t-16.5 -40t-39.5 -17t-39.5 17z" />
    <glyph glyph-name="uniFD29" unicode="&#xfeb8;&#xfeae;" horiz-adv-x="1226" arabic-form="final" 
d="M1243 121v-118l-17 -3q-67 0 -108.5 18t-59.5 56q-15 -36 -48 -55t-83 -19q-104 0 -131 70q-34 -70 -145 -70q-83 0 -127 42t-51 130q-33 -54 -115 -54q-55 0 -79 33l1 -50q0 -95 -30 -173t-83 -123.5t-121 -45.5q-55 0 -84 17q-31 20 -31 54q0 9 1 14q4 21 18 32t33 11
l10 -1q18 -3 45 -3q44 0 78.5 26.5t54 76t19.5 114.5q0 67 -16 143q-1 5 -1 15q0 23 12 36.5t34 13.5q33 0 43 -41q9 -16 30.5 -23t62.5 -7q58 0 87 15t29 54q0 19 12.5 32.5t32.5 13.5q21 0 33 -13.5t12 -34.5v-67q0 -64 20.5 -88.5t74.5 -24.5q57 0 80 19.5t23 68.5v61
q0 21 13 35t32 14t32 -14t13 -35v-61q0 -50 18 -69t64 -19q45 0 62.5 19t17.5 68v62q0 21 13 35t32 14t32 -14t13 -35v-62q0 -48 27 -67.5t98 -19.5zM837.5 603.5q14.5 -14.5 14.5 -34.5q0 -19 -14.5 -33.5t-34.5 -14.5q-19 0 -33.5 14.5t-14.5 33.5q0 20 14 34.5t34 14.5
t34.5 -14.5zM779 492q15 -15 15 -36t-15.5 -36t-36.5 -15q-20 0 -35.5 15t-15.5 36q0 20 15.5 35.5t35.5 15.5q22 0 37 -15zM898 491.5q15 -15.5 15 -35.5q0 -21 -15.5 -36t-35.5 -15q-21 0 -36 15t-15 36t15 36t36 15t36 -15.5z" />
    <glyph glyph-name="uniFD2A" unicode="&#xfeb4;&#xfeae;" horiz-adv-x="1226" arabic-form="final" 
d="M1243 121v-118l-17 -3q-67 0 -108.5 18t-59.5 56q-15 -36 -48 -55t-83 -19q-104 0 -131 70q-34 -70 -145 -70q-83 0 -127 42t-51 130q-33 -54 -115 -54q-55 0 -79 33l1 -50q0 -95 -30 -173t-83 -123.5t-121 -45.5q-55 0 -84 17q-31 20 -31 54q0 9 1 14q4 21 18 32t33 11
l10 -1q18 -3 45 -3q44 0 78.5 26.5t54 76t19.5 114.5q0 67 -16 143q-1 5 -1 15q0 23 12 36.5t34 13.5q33 0 43 -41q9 -16 30.5 -23t62.5 -7q58 0 87 15t29 54q0 19 12.5 32.5t32.5 13.5q21 0 33 -13.5t12 -34.5v-67q0 -64 20.5 -88.5t74.5 -24.5q57 0 80 19.5t23 68.5v61
q0 21 13 35t32 14t32 -14t13 -35v-61q0 -50 18 -69t64 -19q45 0 62.5 19t17.5 68v62q0 21 13 35t32 14t32 -14t13 -35v-62q0 -48 27 -67.5t98 -19.5z" />
    <glyph glyph-name="uniFD2B" unicode="&#xfebc;&#xfeae;" horiz-adv-x="1277" arabic-form="final" 
d="M1294 121v-118l-17 -3q-58 0 -90.5 10.5t-47.5 31.5q-61 -42 -175 -42h-313q-83 0 -127 42t-51 130q-33 -54 -115 -54q-55 0 -79 33l1 -50q0 -95 -30 -173t-83 -123.5t-121 -45.5q-55 0 -84 17q-31 20 -31 54q0 9 1 14q4 21 18 32t33 11l10 -1q18 -3 45 -3
q44 0 78.5 26.5t54 76t19.5 114.5q0 67 -16 143q-1 5 -1 15q0 23 12 36.5t34 13.5q33 0 43 -41q9 -16 30.5 -23t62.5 -7q58 0 87 15t29 54q0 19 12.5 32.5t32.5 13.5q21 0 33 -13.5t12 -34.5v-67q0 -50 12 -75.5t41 -33.5q73 122 134.5 193.5t121 103.5t127.5 32
q64 0 113 -31.5t76 -88t27 -130.5q0 -44 -10 -75q26 -8 74 -8zM1095 141.5q34 17.5 34 63.5q0 56 -38.5 94.5t-99.5 38.5q-79 0 -148.5 -52t-140.5 -162h273q86 0 120 17.5z" />
    <glyph glyph-name="uniFD2C" unicode="&#xfec0;&#xfeae;" horiz-adv-x="1277" arabic-form="final" 
d="M1294 121v-118l-17 -3q-58 0 -90.5 10.5t-47.5 31.5q-61 -42 -175 -42h-313q-83 0 -127 42t-51 130q-33 -54 -115 -54q-55 0 -79 33l1 -50q0 -95 -30 -173t-83 -123.5t-121 -45.5q-55 0 -84 17q-31 20 -31 54q0 9 1 14q4 21 18 32t33 11l10 -1q18 -3 45 -3
q44 0 78.5 26.5t54 76t19.5 114.5q0 67 -16 143q-1 5 -1 15q0 23 12 36.5t34 13.5q33 0 43 -41q9 -16 30.5 -23t62.5 -7q58 0 87 15t29 54q0 19 12.5 32.5t32.5 13.5q21 0 33 -13.5t12 -34.5v-67q0 -50 12 -75.5t41 -33.5q73 122 134.5 193.5t121 103.5t127.5 32
q64 0 113 -31.5t76 -88t27 -130.5q0 -44 -10 -75q26 -8 74 -8zM1095 141.5q34 17.5 34 63.5q0 56 -38.5 94.5t-99.5 38.5q-79 0 -148.5 -52t-140.5 -162h273q86 0 120 17.5zM957.5 565q-16.5 17 -16.5 40t16.5 39.5t39.5 16.5t39.5 -16.5t16.5 -39.5t-16.5 -40t-39.5 -17
t-39.5 17z" />
    <glyph glyph-name="uniFDF2" unicode="&#x627;&#xfedf;&#xfee0;&#xfeea;" horiz-adv-x="1405" arabic-form="isolated" 
d="M1067 722q13 -16 13 -44v-418q0 -96 -22.5 -153t-70 -82t-127.5 -25q-129 0 -161 81q-25 -43 -70 -62t-115 -19h-1q-92 1 -140.5 42.5t-60.5 123.5q-24 -75 -128 -75q-82 0 -118.5 43t-36.5 122q0 55 26 96t86.5 74.5t165.5 62.5v22q0 22 12.5 34.5t34.5 12.5t34 -12.5
t12 -34.5v-255q0 -55 9.5 -82.5t33 -38.5t70.5 -11h1q50 0 75.5 7.5t35.5 27t10 58.5v461q0 28 13 44t37 16q23 0 36 -16t13 -44v-425q0 -52 12 -79.5t39 -38.5t75 -11q50 0 75.5 7.5t35.5 27t10 58.5v461q0 28 13 44t37 16q23 0 36 -16zM1315 724q14 -14 14 -36v-637
q0 -22 -14 -36.5t-36 -14.5t-35.5 14t-13.5 37v637q0 22 13.5 36t35.5 14t36 -14zM307 240v146q-109 -31 -153.5 -56.5t-44.5 -58.5q0 -29 24 -42.5t73 -13.5q78 0 101 25z" />
    <glyph glyph-name="uniFEF5" unicode="&#xfedf;&#xfe82;" horiz-adv-x="577" arabic-form="isolated" 
d="M490.5 256.5q18.5 -38.5 18.5 -89.5q0 -85 -53 -126t-160 -41q-78 0 -114 2.5t-61 10.5q-26 7 -40.5 26t-14.5 49q0 24 8.5 43.5t27.5 37.5q33 29 107 92q67 57 87 75q-79 68 -238 202q-23 20 -23 46q0 14 7 25q15 21 39 21q20 0 37 -13q133 -108 247 -217q22 24 33 53
t10 77v158q0 22 13.5 36t35.5 14t36 -14t14 -36v-139q0 -73 -18 -122t-63 -89q46 -43 64.5 -81.5zM411.5 230q-15.5 25 -51.5 55q-75 -66 -192 -159q21 -2 130 -2q63 0 96 11t33 42q0 28 -15.5 53zM97 721.5q-11 -3.5 -15 -4.5t-11 -1q-15 0 -22 10t-7 25q0 23 27 36
q22 10 49 10q20 0 43 -7q4 -1 19.5 -4t32.5 -3q11 0 34 5q4 1 11 1q15 0 23 -9.5t8 -23.5q0 -27 -27 -39q-17 -8 -49 -8q-20 0 -54 9q-25 7 -41 7q-10 0 -21 -3.5z" />
    <glyph glyph-name="uniFEF6" unicode="&#xfee0;&#xfe82;" horiz-adv-x="663" arabic-form="final" 
d="M680 121v-118l-17 -3q-87 0 -136 29.5t-68 94.5q-26 -59 -113.5 -90t-249.5 -34q-32 0 -51 17.5t-19 44.5q0 26 17.5 44t47.5 18q90 2 142 8q-3 90 -24 182.5t-80 201.5q-9 18 -9 33q0 27 23 42q11 7 25 7t27 -8t20 -23q60 -113 81 -200t23 -221q67 17 96 46t29 72v424
q0 22 13.5 36t35.5 14t36 -14t14 -36v-429q0 -56 10 -84t35.5 -39.5t74.5 -11.5zM108 694.5q-11 -3.5 -15 -4.5t-11 -1q-15 0 -22 10t-7 25q0 23 27 36q22 10 49 10q20 0 43 -7q4 -1 19.5 -4t32.5 -3q11 0 34 5q4 1 11 1q15 0 23 -9.5t8 -23.5q0 -27 -27 -39q-17 -8 -49 -8
q-20 0 -54 9q-25 7 -41 7q-10 0 -21 -3.5z" />
    <glyph glyph-name="uniFEF7" unicode="&#xfedf;&#xfe84;" horiz-adv-x="577" arabic-form="isolated" 
d="M490.5 256.5q18.5 -38.5 18.5 -89.5q0 -85 -53 -126t-160 -41q-78 0 -114 2.5t-61 10.5q-26 7 -40.5 26t-14.5 49q0 24 8.5 43.5t27.5 37.5q33 29 107 92q67 57 87 75q-79 68 -238 202q-23 20 -23 46q0 14 7 25q15 21 39 21q20 0 37 -13q133 -108 247 -217q22 24 33 53
t10 77v158q0 22 13.5 36t35.5 14t36 -14t14 -36v-139q0 -73 -18 -122t-63 -89q46 -43 64.5 -81.5zM411.5 230q-15.5 25 -51.5 55q-75 -66 -192 -159q21 -2 130 -2q63 0 96 11t33 42q0 28 -15.5 53zM252.5 765.5q8.5 -8.5 8.5 -22.5q0 -27 -26 -31q-31 -6 -112 -13l-31 -3
q-19 -1 -29 8t-10 25q0 29 32 32l6 1q-18 16 -18 42q0 43 27.5 67t67.5 24q24 0 43 -8q24 -12 24 -34q0 -14 -7 -22t-19 -8q-5 0 -8 1q-15 3 -31 3q-22 0 -34 -6t-12 -23q0 -16 8 -22t31 -6q14 0 38 2q20 2 27 2q16 0 24.5 -8.5z" />
    <glyph glyph-name="uniFEF8" unicode="&#xfee0;&#xfe84;" horiz-adv-x="663" arabic-form="final" 
d="M680 121v-118l-17 -3q-87 0 -136 29.5t-68 94.5q-26 -59 -113.5 -90t-249.5 -34q-32 0 -51 17.5t-19 44.5q0 26 17.5 44t47.5 18q90 2 142 8q-3 90 -24 182.5t-80 201.5q-9 18 -9 33q0 27 23 42q11 7 25 7t27 -8t20 -23q60 -113 81 -200t23 -221q67 17 96 46t29 72v424
q0 22 13.5 36t35.5 14t36 -14t14 -36v-429q0 -56 10 -84t35.5 -39.5t74.5 -11.5zM263.5 738.5q8.5 -8.5 8.5 -22.5q0 -27 -26 -31q-31 -6 -112 -13l-31 -3q-19 -1 -29 8t-10 25q0 29 32 32l6 1q-18 16 -18 42q0 43 27.5 67t67.5 24q24 0 43 -8q24 -12 24 -34q0 -14 -7 -22
t-19 -8q-5 0 -8 1q-15 3 -31 3q-22 0 -34 -6t-12 -23q0 -16 8 -22t31 -6q14 0 38 2q20 2 27 2q16 0 24.5 -8.5z" />
    <glyph glyph-name="uniFEF9" unicode="&#xfedf;&#xfe88;" horiz-adv-x="577" arabic-form="isolated" 
d="M490.5 256.5q18.5 -38.5 18.5 -89.5q0 -85 -53 -126t-160 -41q-78 0 -114 2.5t-61 10.5q-26 7 -40.5 26t-14.5 49q0 24 8.5 43.5t27.5 37.5q33 29 107 92q67 57 87 75q-79 68 -238 202q-23 20 -23 46q0 14 7 25q15 21 39 21q20 0 37 -13q133 -108 247 -217q22 24 33 53
t10 77v158q0 22 13.5 36t35.5 14t36 -14t14 -36v-139q0 -73 -18 -122t-63 -89q46 -43 64.5 -81.5zM411.5 230q-15.5 25 -51.5 55q-75 -66 -192 -159q21 -2 130 -2q63 0 96 11t33 42q0 28 -15.5 53zM253.5 -177.5q8.5 -8.5 8.5 -22.5q0 -27 -26 -31q-31 -6 -112 -13l-31 -3
q-19 -1 -29 8t-10 25q0 29 32 32l6 1q-18 16 -18 42q0 43 27.5 67t67.5 24q24 0 43 -8q24 -12 24 -34q0 -14 -7 -22t-19 -8q-5 0 -8 1q-15 3 -31 3q-22 0 -34 -6t-12 -23q0 -16 8 -22t31 -6q14 0 38 2q20 2 27 2q16 0 24.5 -8.5z" />
    <glyph glyph-name="uniFEFA" unicode="&#xfee0;&#xfe88;" horiz-adv-x="663" arabic-form="final" 
d="M680 121v-118l-17 -3q-87 0 -136 29.5t-68 94.5q-26 -59 -113.5 -90t-249.5 -34q-32 0 -51 17.5t-19 44.5q0 26 17.5 44t47.5 18q90 2 142 8q-3 90 -24 182.5t-80 201.5q-9 18 -9 33q0 27 23 42q11 7 25 7t27 -8t20 -23q60 -113 81 -200t23 -221q67 17 96 46t29 72v424
q0 22 13.5 36t35.5 14t36 -14t14 -36v-429q0 -56 10 -84t35.5 -39.5t74.5 -11.5zM325.5 -177.5q8.5 -8.5 8.5 -22.5q0 -27 -26 -31q-31 -6 -112 -13l-31 -3q-19 -1 -29 8t-10 25q0 29 32 32l6 1q-18 16 -18 42q0 43 27.5 67t67.5 24q24 0 43 -8q24 -12 24 -34q0 -14 -7 -22
t-19 -8q-5 0 -8 1q-15 3 -31 3q-22 0 -34 -6t-12 -23q0 -16 8 -22t31 -6q14 0 38 2q20 2 27 2q16 0 24.5 -8.5z" />
    <glyph glyph-name="uniFEFB" unicode="&#xfedf;&#xfe8e;" horiz-adv-x="577" arabic-form="isolated" 
d="M490.5 256.5q18.5 -38.5 18.5 -89.5q0 -85 -53 -126t-160 -41q-78 0 -114 2.5t-61 10.5q-26 7 -40.5 26t-14.5 49q0 24 8.5 43.5t27.5 37.5q33 29 107 92q67 57 87 75q-79 68 -238 202q-23 20 -23 46q0 14 7 25q15 21 39 21q20 0 37 -13q133 -108 247 -217q22 24 33 53
t10 77v158q0 22 13.5 36t35.5 14t36 -14t14 -36v-139q0 -73 -18 -122t-63 -89q46 -43 64.5 -81.5zM411.5 230q-15.5 25 -51.5 55q-75 -66 -192 -159q21 -2 130 -2q63 0 96 11t33 42q0 28 -15.5 53z" />
    <glyph glyph-name="uniFEFC" unicode="&#xfee0;&#xfe8e;" horiz-adv-x="663" arabic-form="final" 
d="M680 121v-118l-17 -3q-87 0 -136 29.5t-68 94.5q-26 -59 -113.5 -90t-249.5 -34q-32 0 -51 17.5t-19 44.5q0 26 17.5 44t47.5 18q90 2 142 8q-3 90 -24 182.5t-80 201.5q-9 18 -9 33q0 27 23 42q11 7 25 7t27 -8t20 -23q60 -113 81 -200t23 -221q67 17 96 46t29 72v424
q0 22 13.5 36t35.5 14t36 -14t14 -36v-429q0 -56 10 -84t35.5 -39.5t74.5 -11.5z" />
    <glyph glyph-name="uni06280626" unicode="&#xfe91;&#xfe8a;" horiz-adv-x="788" 
d="M714.5 112.5q-27.5 -53.5 -79.5 -78.5q38 -36 38 -95q0 -67 -39 -118t-112.5 -79t-174.5 -28q-163 0 -240.5 69.5t-77.5 216.5q0 46 9 86t21 69q7 17 19.5 27t27.5 10q7 0 11 -1q31 -7 31 -40q0 -10 -3 -21q-21 -63 -21 -122q1 -64 23 -101t72.5 -53.5t137.5 -16.5
q111 0 172.5 28t61.5 76q0 30 -31.5 46.5t-81.5 22.5q-25 4 -39.5 19.5t-14.5 39.5q0 27 15.5 42t42.5 15q13 0 21 -1l43 -1q58 0 82 28t24 90q0 50 -10 110l-1 9q0 20 13 32t31 12q39 0 48 -47q9 -51 9 -114q0 -78 -27.5 -131.5zM610.5 -410.5q-16.5 16.5 -16.5 39.5
t16.5 39.5t39.5 16.5t39.5 -16.5t16.5 -39.5t-16.5 -39.5t-39.5 -17.5q-23 1 -39.5 17.5zM200.5 321.5q8.5 -8.5 8.5 -22.5q0 -27 -26 -31q-31 -6 -112 -13l-31 -3q-19 -1 -29 8t-10 25q0 29 32 32l6 1q-18 16 -18 42q0 43 27.5 67t67.5 24q24 0 43 -8q24 -12 24 -34
q0 -14 -7 -22t-19 -8q-5 0 -8 1q-15 3 -31 3q-22 0 -34 -6t-12 -23q0 -16 8 -22t31 -6q14 0 38 2q20 2 27 2q16 0 24.5 -8.5z" />
    <glyph glyph-name="uni06280626.fina" unicode="&#xfe92;&#xfe8a;" horiz-adv-x="921" 
d="M61 175q7 17 19.5 27t27.5 10q7 0 11 -1q31 -7 31 -40q0 -10 -3 -21q-23 -67 -23 -128q0 -70 24 -109.5t77.5 -57.5t147.5 -18q265 0 265 103q0 19 -12 29t-40 17.5t-91 19.5q-60 12 -93 34t-46 56t-13 86q0 56 31.5 105.5t84.5 79t113 29.5q61 0 101 -20.5t64.5 -52
t52.5 -82.5l21 -39q23 -43 45.5 -60.5t64.5 -17.5l17 -3v-118l-17 -3q-68 0 -105 26.5t-68 84.5l-25 45q-24 44 -43 68t-46.5 37.5t-69.5 13.5q-36 0 -68.5 -11.5t-52.5 -30t-20 -38.5q0 -21 11.5 -33t34 -19.5t75.5 -20.5l41 -10q69 -17 102 -56t33 -105q0 -112 -90 -174.5
t-265 -62.5q-173 0 -254.5 72.5t-81.5 228.5q0 87 32 160zM823.5 -186.5q-16.5 16.5 -16.5 39.5t16.5 39.5t39.5 16.5t39.5 -16.5t16.5 -39.5t-16.5 -39.5t-39.5 -17.5q-23 1 -39.5 17.5zM204.5 341.5q8.5 -8.5 8.5 -22.5q0 -27 -26 -31q-31 -6 -112 -13l-31 -3
q-19 -1 -29 8t-10 25q0 29 32 32l6 1q-18 16 -18 42q0 43 27.5 67t67.5 24q24 0 43 -8q24 -12 24 -34q0 -14 -7 -22t-19 -8q-5 0 -8 1q-15 3 -31 3q-22 0 -34 -6t-12 -23q0 -16 8 -22t31 -6q14 0 38 2q20 2 27 2q16 0 24.5 -8.5z" />
    <glyph glyph-name="uni062A0626" unicode="&#xfe97;&#xfe8a;" horiz-adv-x="788" 
d="M714.5 112.5q-27.5 -53.5 -79.5 -78.5q38 -36 38 -95q0 -67 -39 -118t-112.5 -79t-174.5 -28q-163 0 -240.5 69.5t-77.5 216.5q0 46 9 86t21 69q7 17 19.5 27t27.5 10q7 0 11 -1q31 -7 31 -40q0 -10 -3 -21q-21 -63 -21 -122q1 -64 23 -101t72.5 -53.5t137.5 -16.5
q111 0 172.5 28t61.5 76q0 30 -31.5 46.5t-81.5 22.5q-25 4 -39.5 19.5t-14.5 39.5q0 27 15.5 42t42.5 15q13 0 21 -1l43 -1q58 0 82 28t24 90q0 50 -10 110l-1 9q0 20 13 32t31 12q39 0 48 -47q9 -51 9 -114q0 -78 -27.5 -131.5zM588 503.5q-15 15.5 -15 36.5t15 36t36 15
t36.5 -15t15.5 -36t-15 -36.5t-37 -15.5q-21 0 -36 15.5zM709 503.5q-15 15.5 -15 36.5t15.5 36t35.5 15q21 0 37 -15t16 -36t-15.5 -36.5t-37.5 -15.5q-21 0 -36 15.5zM200.5 321.5q8.5 -8.5 8.5 -22.5q0 -27 -26 -31q-31 -6 -112 -13l-31 -3q-19 -1 -29 8t-10 25
q0 29 32 32l6 1q-18 16 -18 42q0 43 27.5 67t67.5 24q24 0 43 -8q24 -12 24 -34q0 -14 -7 -22t-19 -8q-5 0 -8 1q-15 3 -31 3q-22 0 -34 -6t-12 -23q0 -16 8 -22t31 -6q14 0 38 2q20 2 27 2q16 0 24.5 -8.5z" />
    <glyph glyph-name="uni062A0626.fina" unicode="&#xfe98;&#xfe8a;" horiz-adv-x="921" 
d="M61 175q7 17 19.5 27t27.5 10q7 0 11 -1q31 -7 31 -40q0 -10 -3 -21q-23 -67 -23 -128q0 -70 24 -109.5t77.5 -57.5t147.5 -18q265 0 265 103q0 19 -12 29t-40 17.5t-91 19.5q-60 12 -93 34t-46 56t-13 86q0 56 31.5 105.5t84.5 79t113 29.5q61 0 101 -20.5t64.5 -52
t52.5 -82.5l21 -39q23 -43 45.5 -60.5t64.5 -17.5l17 -3v-118l-17 -3q-68 0 -105 26.5t-68 84.5l-25 45q-24 44 -43 68t-46.5 37.5t-69.5 13.5q-36 0 -68.5 -11.5t-52.5 -30t-20 -38.5q0 -21 11.5 -33t34 -19.5t75.5 -20.5l41 -10q69 -17 102 -56t33 -105q0 -112 -90 -174.5
t-265 -62.5q-173 0 -254.5 72.5t-81.5 228.5q0 87 32 160zM473 494.5q-15 15.5 -15 36.5t15 36t36 15t36.5 -15t15.5 -36t-15 -36.5t-37 -15.5q-21 0 -36 15.5zM594 494.5q-15 15.5 -15 36.5t15.5 36t35.5 15q21 0 37 -15t16 -36t-15.5 -36.5t-37.5 -15.5q-21 0 -36 15.5z
M204.5 341.5q8.5 -8.5 8.5 -22.5q0 -27 -26 -31q-31 -6 -112 -13l-31 -3q-19 -1 -29 8t-10 25q0 29 32 32l6 1q-18 16 -18 42q0 43 27.5 67t67.5 24q24 0 43 -8q24 -12 24 -34q0 -14 -7 -22t-19 -8q-5 0 -8 1q-15 3 -31 3q-22 0 -34 -6t-12 -23q0 -16 8 -22t31 -6q14 0 38 2
q20 2 27 2q16 0 24.5 -8.5z" />
    <glyph glyph-name="uni062B0626" unicode="&#xfe9b;&#xfe8a;" horiz-adv-x="788" 
d="M714.5 112.5q-27.5 -53.5 -79.5 -78.5q38 -36 38 -95q0 -67 -39 -118t-112.5 -79t-174.5 -28q-163 0 -240.5 69.5t-77.5 216.5q0 46 9 86t21 69q7 17 19.5 27t27.5 10q7 0 11 -1q31 -7 31 -40q0 -10 -3 -21q-21 -63 -21 -122q1 -64 23 -101t72.5 -53.5t137.5 -16.5
q111 0 172.5 28t61.5 76q0 30 -31.5 46.5t-81.5 22.5q-25 4 -39.5 19.5t-14.5 39.5q0 27 15.5 42t42.5 15q13 0 21 -1l43 -1q58 0 82 28t24 90q0 50 -10 110l-1 9q0 20 13 32t31 12q39 0 48 -47q9 -51 9 -114q0 -78 -27.5 -131.5zM720.5 686.5q14.5 -14.5 14.5 -34.5
q0 -19 -14.5 -33.5t-34.5 -14.5q-19 0 -33.5 14.5t-14.5 33.5q0 20 14 34.5t34 14.5t34.5 -14.5zM662 575q15 -15 15 -36t-15.5 -36t-36.5 -15q-20 0 -35.5 15t-15.5 36q0 20 15.5 35.5t35.5 15.5q22 0 37 -15zM781 574.5q15 -15.5 15 -35.5q0 -21 -15.5 -36t-35.5 -15
q-21 0 -36 15t-15 36t15 36t36 15t36 -15.5zM200.5 321.5q8.5 -8.5 8.5 -22.5q0 -27 -26 -31q-31 -6 -112 -13l-31 -3q-19 -1 -29 8t-10 25q0 29 32 32l6 1q-18 16 -18 42q0 43 27.5 67t67.5 24q24 0 43 -8q24 -12 24 -34q0 -14 -7 -22t-19 -8q-5 0 -8 1q-15 3 -31 3
q-22 0 -34 -6t-12 -23q0 -16 8 -22t31 -6q14 0 38 2q20 2 27 2q16 0 24.5 -8.5z" />
    <glyph glyph-name="uni062B0626.fina" unicode="&#xfe9c;&#xfe8a;" horiz-adv-x="921" 
d="M61 175q7 17 19.5 27t27.5 10q7 0 11 -1q31 -7 31 -40q0 -10 -3 -21q-23 -67 -23 -128q0 -70 24 -109.5t77.5 -57.5t147.5 -18q265 0 265 103q0 19 -12 29t-40 17.5t-91 19.5q-60 12 -93 34t-46 56t-13 86q0 56 31.5 105.5t84.5 79t113 29.5q61 0 101 -20.5t64.5 -52
t52.5 -82.5l21 -39q23 -43 45.5 -60.5t64.5 -17.5l17 -3v-118l-17 -3q-68 0 -105 26.5t-68 84.5l-25 45q-24 44 -43 68t-46.5 37.5t-69.5 13.5q-36 0 -68.5 -11.5t-52.5 -30t-20 -38.5q0 -21 11.5 -33t34 -19.5t75.5 -20.5l41 -10q69 -17 102 -56t33 -105q0 -112 -90 -174.5
t-265 -62.5q-173 0 -254.5 72.5t-81.5 228.5q0 87 32 160zM605.5 677.5q14.5 -14.5 14.5 -34.5q0 -19 -14.5 -33.5t-34.5 -14.5q-19 0 -33.5 14.5t-14.5 33.5q0 20 14 34.5t34 14.5t34.5 -14.5zM547 566q15 -15 15 -36t-15.5 -36t-36.5 -15q-20 0 -35.5 15t-15.5 36
q0 20 15.5 35.5t35.5 15.5q22 0 37 -15zM666 565.5q15 -15.5 15 -35.5q0 -21 -15.5 -36t-35.5 -15q-21 0 -36 15t-15 36t15 36t36 15t36 -15.5zM204.5 341.5q8.5 -8.5 8.5 -22.5q0 -27 -26 -31q-31 -6 -112 -13l-31 -3q-19 -1 -29 8t-10 25q0 29 32 32l6 1q-18 16 -18 42
q0 43 27.5 67t67.5 24q24 0 43 -8q24 -12 24 -34q0 -14 -7 -22t-19 -8q-5 0 -8 1q-15 3 -31 3q-22 0 -34 -6t-12 -23q0 -16 8 -22t31 -6q14 0 38 2q20 2 27 2q16 0 24.5 -8.5z" />
    <glyph glyph-name="uni06330632" unicode="&#xfeb3;&#xfeb0;" horiz-adv-x="1148" 
d="M1102 205q0 -102 -46 -153.5t-127 -51.5q-105 0 -133 70q-33 -70 -145 -70q-83 0 -127 42t-51 130q-33 -54 -115 -54q-55 0 -79 33l1 -50q0 -95 -30 -173t-83 -123.5t-121 -45.5q-55 0 -84 17q-31 20 -31 54q0 9 1 14q4 21 18 32t33 11l10 -1q18 -3 45 -3q44 0 78.5 26.5
t54 76t19.5 114.5q0 67 -16 143q-1 5 -1 15q0 23 12 36.5t34 13.5q33 0 43 -41q9 -16 30.5 -23t62.5 -7q58 0 87 15t29 54q0 19 12.5 32.5t32.5 13.5q21 0 33 -13.5t12 -34.5v-67q0 -64 20.5 -88.5t74.5 -24.5q58 0 80.5 19.5t22.5 68.5v61q0 21 13 35t32 14t32 -14t13 -35
v-61q0 -50 18 -69t64 -19q44 0 62 18t18 63q0 31 -13 87q-1 4 -1 12q0 20 12 33t33 13q32 0 44 -40q16 -52 16 -105zM169.5 415q-16.5 17 -16.5 40t16.5 39.5t39.5 16.5t39.5 -16.5t16.5 -39.5t-16.5 -40t-39.5 -17t-39.5 17z" />
    <glyph glyph-name="uni06330632.fina" unicode="&#xfeb4;&#xfeb0;" horiz-adv-x="1226" 
d="M1243 121v-118l-17 -3q-67 0 -108.5 18t-59.5 56q-15 -36 -48 -55t-83 -19q-104 0 -131 70q-34 -70 -145 -70q-83 0 -127 42t-51 130q-33 -54 -115 -54q-55 0 -79 33l1 -50q0 -95 -30 -173t-83 -123.5t-121 -45.5q-55 0 -84 17q-31 20 -31 54q0 9 1 14q4 21 18 32t33 11
l10 -1q18 -3 45 -3q44 0 78.5 26.5t54 76t19.5 114.5q0 67 -16 143q-1 5 -1 15q0 23 12 36.5t34 13.5q33 0 43 -41q9 -16 30.5 -23t62.5 -7q58 0 87 15t29 54q0 19 12.5 32.5t32.5 13.5q21 0 33 -13.5t12 -34.5v-67q0 -64 20.5 -88.5t74.5 -24.5q57 0 80 19.5t23 68.5v61
q0 21 13 35t32 14t32 -14t13 -35v-61q0 -50 18 -69t64 -19q45 0 62.5 19t17.5 68v62q0 21 13 35t32 14t32 -14t13 -35v-62q0 -48 27 -67.5t98 -19.5zM169.5 415q-16.5 17 -16.5 40t16.5 39.5t39.5 16.5t39.5 -16.5t16.5 -39.5t-16.5 -40t-39.5 -17t-39.5 17z" />
    <glyph glyph-name="uni06330626" unicode="&#xfeb3;&#xfe8a;" horiz-adv-x="1400" 
d="M1355 205q0 -102 -46 -153.5t-127 -51.5q-104 0 -133 69q-31 -69 -133 -69q-46 0 -76 13t-50.5 36t-41.5 62l-25 45q-24 44 -43 68t-46.5 37.5t-69.5 13.5q-36 0 -68.5 -11.5t-52.5 -30t-20 -38.5q0 -22 13 -34.5t38 -20.5t82 -21l29 -7q69 -17 102 -56t33 -105
q0 -111 -90.5 -174t-264.5 -63q-173 0 -254.5 72.5t-81.5 228.5q0 87 35 164q8 17 20.5 27t27.5 10q7 0 11 -1q14 -5 22.5 -15.5t8.5 -25.5q0 -11 -4 -22q-26 -67 -26 -130q0 -70 24 -109.5t77.5 -57.5t147.5 -18q265 0 265 103q0 19 -12 29t-39.5 17t-91.5 20
q-60 12 -93 34t-46 56t-13 86q0 56 31.5 105.5t84.5 79t113 29.5q61 0 101 -20.5t65 -52t52 -82.5l21 -39q24 -45 45.5 -61.5t64.5 -16.5q51 0 71 19.5t20 68.5v61q0 22 12.5 35.5t32.5 13.5q19 0 32 -14t13 -35v-61q0 -50 18 -69t64 -19q44 0 62 18t18 63q0 22 -6 51t-7 36
q-2 10 -2 13q0 20 12.5 32.5t32.5 12.5q33 0 45 -40q16 -52 16 -105zM206.5 342.5q8.5 -8.5 8.5 -22.5q0 -27 -26 -31q-31 -6 -112 -13l-31 -3q-19 -1 -29 8t-10 25q0 29 32 32l6 1q-18 16 -18 42q0 43 27.5 67t67.5 24q24 0 43 -8q24 -12 24 -34q0 -14 -7 -22t-19 -8
q-5 0 -8 1q-15 3 -31 3q-22 0 -34 -6t-12 -23q0 -16 8 -22t31 -6q14 0 38 2q20 2 27 2q16 0 24.5 -8.5z" />
    <glyph glyph-name="uni06330626.fina" unicode="&#xfeb4;&#xfe8a;" horiz-adv-x="1479" 
d="M1496 121v-118l-17 -3q-67 0 -108.5 18t-59.5 56q-15 -36 -48 -55t-82 -19q-103 0 -132 69q-31 -69 -133 -69q-46 0 -76 13t-50.5 36t-41.5 62l-25 45q-24 44 -43 68t-46.5 37.5t-69.5 13.5q-36 0 -68.5 -11.5t-52.5 -30t-20 -38.5q0 -22 13 -34.5t38 -20.5t82 -21l29 -7
q69 -17 102 -56t33 -105q0 -111 -90.5 -174t-264.5 -63q-173 0 -254.5 72.5t-81.5 228.5q0 87 35 164q8 17 20.5 27t27.5 10q7 0 11 -1q14 -5 22.5 -15.5t8.5 -25.5q0 -11 -4 -22q-26 -67 -26 -130q0 -70 24 -109.5t77.5 -57.5t147.5 -18q265 0 265 103q0 19 -12 29
t-39.5 17t-91.5 20q-60 12 -93 34t-46 56t-13 86q0 56 31.5 105.5t84.5 79t113 29.5q61 0 101 -20.5t65 -52t52 -82.5l21 -39q24 -45 45.5 -61.5t64.5 -16.5q51 0 71 19.5t20 68.5v61q0 22 12.5 35.5t32.5 13.5q19 0 32 -14t13 -35v-61q0 -50 18 -69t64 -19q45 0 62.5 19
t17.5 68v62q0 22 12.5 35.5t32.5 13.5q19 0 32 -14t13 -35v-62q0 -48 26.5 -67.5t98.5 -19.5zM206.5 342.5q8.5 -8.5 8.5 -22.5q0 -27 -26 -31q-31 -6 -112 -13l-31 -3q-19 -1 -29 8t-10 25q0 29 32 32l6 1q-18 16 -18 42q0 43 27.5 67t67.5 24q24 0 43 -8q24 -12 24 -34
q0 -14 -7 -22t-19 -8q-5 0 -8 1q-15 3 -31 3q-22 0 -34 -6t-12 -23q0 -16 8 -22t31 -6q14 0 38 2q20 2 27 2q16 0 24.5 -8.5z" />
    <glyph glyph-name="uni06340632" unicode="&#xfeb7;&#xfeb0;" horiz-adv-x="1148" 
d="M1102 205q0 -102 -46 -153.5t-127 -51.5q-105 0 -133 70q-33 -70 -145 -70q-83 0 -127 42t-51 130q-33 -54 -115 -54q-55 0 -79 33l1 -50q0 -95 -30 -173t-83 -123.5t-121 -45.5q-55 0 -84 17q-31 20 -31 54q0 9 1 14q4 21 18 32t33 11l10 -1q18 -3 45 -3q44 0 78.5 26.5
t54 76t19.5 114.5q0 67 -16 143q-1 5 -1 15q0 23 12 36.5t34 13.5q33 0 43 -41q9 -16 30.5 -23t62.5 -7q58 0 87 15t29 54q0 19 12.5 32.5t32.5 13.5q21 0 33 -13.5t12 -34.5v-67q0 -64 20.5 -88.5t74.5 -24.5q58 0 80.5 19.5t22.5 68.5v61q0 21 13 35t32 14t32 -14t13 -35
v-61q0 -50 18 -69t64 -19q44 0 62 18t18 63q0 31 -13 87q-1 4 -1 12q0 20 12 33t33 13q32 0 44 -40q16 -52 16 -105zM837.5 603.5q14.5 -14.5 14.5 -34.5q0 -19 -14.5 -33.5t-34.5 -14.5q-19 0 -33.5 14.5t-14.5 33.5q0 20 14 34.5t34 14.5t34.5 -14.5zM779 492
q15 -15 15 -36t-15.5 -36t-36.5 -15q-20 0 -35.5 15t-15.5 36q0 20 15.5 35.5t35.5 15.5q22 0 37 -15zM898 491.5q15 -15.5 15 -35.5q0 -21 -15.5 -36t-35.5 -15q-21 0 -36 15t-15 36t15 36t36 15t36 -15.5zM169.5 415q-16.5 17 -16.5 40t16.5 39.5t39.5 16.5t39.5 -16.5
t16.5 -39.5t-16.5 -40t-39.5 -17t-39.5 17z" />
    <glyph glyph-name="uni06340632.fina" unicode="&#xfeb8;&#xfeb0;" horiz-adv-x="1226" 
d="M1243 121v-118l-17 -3q-67 0 -108.5 18t-59.5 56q-15 -36 -48 -55t-83 -19q-104 0 -131 70q-34 -70 -145 -70q-83 0 -127 42t-51 130q-33 -54 -115 -54q-55 0 -79 33l1 -50q0 -95 -30 -173t-83 -123.5t-121 -45.5q-55 0 -84 17q-31 20 -31 54q0 9 1 14q4 21 18 32t33 11
l10 -1q18 -3 45 -3q44 0 78.5 26.5t54 76t19.5 114.5q0 67 -16 143q-1 5 -1 15q0 23 12 36.5t34 13.5q33 0 43 -41q9 -16 30.5 -23t62.5 -7q58 0 87 15t29 54q0 19 12.5 32.5t32.5 13.5q21 0 33 -13.5t12 -34.5v-67q0 -64 20.5 -88.5t74.5 -24.5q57 0 80 19.5t23 68.5v61
q0 21 13 35t32 14t32 -14t13 -35v-61q0 -50 18 -69t64 -19q45 0 62.5 19t17.5 68v62q0 21 13 35t32 14t32 -14t13 -35v-62q0 -48 27 -67.5t98 -19.5zM837.5 603.5q14.5 -14.5 14.5 -34.5q0 -19 -14.5 -33.5t-34.5 -14.5q-19 0 -33.5 14.5t-14.5 33.5q0 20 14 34.5t34 14.5
t34.5 -14.5zM779 492q15 -15 15 -36t-15.5 -36t-36.5 -15q-20 0 -35.5 15t-15.5 36q0 20 15.5 35.5t35.5 15.5q22 0 37 -15zM898 491.5q15 -15.5 15 -35.5q0 -21 -15.5 -36t-35.5 -15q-21 0 -36 15t-15 36t15 36t36 15t36 -15.5zM169.5 415q-16.5 17 -16.5 40t16.5 39.5
t39.5 16.5t39.5 -16.5t16.5 -39.5t-16.5 -40t-39.5 -17t-39.5 17z" />
    <glyph glyph-name="uni06340626" unicode="&#xfeb7;&#xfe8a;" horiz-adv-x="1400" 
d="M1355 205q0 -102 -46 -153.5t-127 -51.5q-104 0 -133 69q-31 -69 -133 -69q-46 0 -76 13t-50.5 36t-41.5 62l-25 45q-24 44 -43 68t-46.5 37.5t-69.5 13.5q-36 0 -68.5 -11.5t-52.5 -30t-20 -38.5q0 -22 13 -34.5t38 -20.5t82 -21l29 -7q69 -17 102 -56t33 -105
q0 -111 -90.5 -174t-264.5 -63q-173 0 -254.5 72.5t-81.5 228.5q0 87 35 164q8 17 20.5 27t27.5 10q7 0 11 -1q14 -5 22.5 -15.5t8.5 -25.5q0 -11 -4 -22q-26 -67 -26 -130q0 -70 24 -109.5t77.5 -57.5t147.5 -18q265 0 265 103q0 19 -12 29t-39.5 17t-91.5 20
q-60 12 -93 34t-46 56t-13 86q0 56 31.5 105.5t84.5 79t113 29.5q61 0 101 -20.5t65 -52t52 -82.5l21 -39q24 -45 45.5 -61.5t64.5 -16.5q51 0 71 19.5t20 68.5v61q0 22 12.5 35.5t32.5 13.5q19 0 32 -14t13 -35v-61q0 -50 18 -69t64 -19q44 0 62 18t18 63q0 22 -6 51t-7 36
q-2 10 -2 13q0 20 12.5 32.5t32.5 12.5q33 0 45 -40q16 -52 16 -105zM1090.5 603.5q14.5 -14.5 14.5 -34.5q0 -19 -14.5 -33.5t-34.5 -14.5q-19 0 -33.5 14.5t-14.5 33.5q0 20 14 34.5t34 14.5t34.5 -14.5zM1032 492q15 -15 15 -36t-15.5 -36t-36.5 -15q-20 0 -35.5 15
t-15.5 36q0 20 15.5 35.5t35.5 15.5q22 0 37 -15zM1151 491.5q15 -15.5 15 -35.5q0 -21 -15.5 -36t-35.5 -15q-21 0 -36 15t-15 36t15 36t36 15t36 -15.5zM206.5 342.5q8.5 -8.5 8.5 -22.5q0 -27 -26 -31q-31 -6 -112 -13l-31 -3q-19 -1 -29 8t-10 25q0 29 32 32l6 1
q-18 16 -18 42q0 43 27.5 67t67.5 24q24 0 43 -8q24 -12 24 -34q0 -14 -7 -22t-19 -8q-5 0 -8 1q-15 3 -31 3q-22 0 -34 -6t-12 -23q0 -16 8 -22t31 -6q14 0 38 2q20 2 27 2q16 0 24.5 -8.5z" />
    <glyph glyph-name="uni06340626.fina" unicode="&#xfeb8;&#xfe8a;" horiz-adv-x="1479" 
d="M1496 121v-118l-17 -3q-67 0 -108.5 18t-59.5 56q-15 -36 -48 -55t-82 -19q-103 0 -132 69q-31 -69 -133 -69q-46 0 -76 13t-50.5 36t-41.5 62l-25 45q-24 44 -43 68t-46.5 37.5t-69.5 13.5q-36 0 -68.5 -11.5t-52.5 -30t-20 -38.5q0 -22 13 -34.5t38 -20.5t82 -21l29 -7
q69 -17 102 -56t33 -105q0 -111 -90.5 -174t-264.5 -63q-173 0 -254.5 72.5t-81.5 228.5q0 87 35 164q8 17 20.5 27t27.5 10q7 0 11 -1q14 -5 22.5 -15.5t8.5 -25.5q0 -11 -4 -22q-26 -67 -26 -130q0 -70 24 -109.5t77.5 -57.5t147.5 -18q265 0 265 103q0 19 -12 29
t-39.5 17t-91.5 20q-60 12 -93 34t-46 56t-13 86q0 56 31.5 105.5t84.5 79t113 29.5q61 0 101 -20.5t65 -52t52 -82.5l21 -39q24 -45 45.5 -61.5t64.5 -16.5q51 0 71 19.5t20 68.5v61q0 22 12.5 35.5t32.5 13.5q19 0 32 -14t13 -35v-61q0 -50 18 -69t64 -19q45 0 62.5 19
t17.5 68v62q0 22 12.5 35.5t32.5 13.5q19 0 32 -14t13 -35v-62q0 -48 26.5 -67.5t98.5 -19.5zM1090.5 603.5q14.5 -14.5 14.5 -34.5q0 -19 -14.5 -33.5t-34.5 -14.5q-19 0 -33.5 14.5t-14.5 33.5q0 20 14 34.5t34 14.5t34.5 -14.5zM1032 492q15 -15 15 -36t-15.5 -36
t-36.5 -15q-20 0 -35.5 15t-15.5 36q0 20 15.5 35.5t35.5 15.5q22 0 37 -15zM1151 491.5q15 -15.5 15 -35.5q0 -21 -15.5 -36t-35.5 -15q-21 0 -36 15t-15 36t15 36t36 15t36 -15.5zM206.5 342.5q8.5 -8.5 8.5 -22.5q0 -27 -26 -31q-31 -6 -112 -13l-31 -3q-19 -1 -29 8
t-10 25q0 29 32 32l6 1q-18 16 -18 42q0 43 27.5 67t67.5 24q24 0 43 -8q24 -12 24 -34q0 -14 -7 -22t-19 -8q-5 0 -8 1q-15 3 -31 3q-22 0 -34 -6t-12 -23q0 -16 8 -22t31 -6q14 0 38 2q20 2 27 2q16 0 24.5 -8.5z" />
    <glyph glyph-name="uni06350632" unicode="&#xfebb;&#xfeb0;" horiz-adv-x="1259" 
d="M1110 425.5q49 -31.5 76 -88t27 -130.5q0 -104 -61.5 -155.5t-187.5 -51.5h-313q-83 0 -127 42t-51 130q-33 -54 -115 -54q-55 0 -79 33l1 -50q0 -95 -30 -173t-83 -123.5t-121 -45.5q-55 0 -84 17q-31 20 -31 54q0 9 1 14q4 21 18 32t33 11l10 -1q18 -3 45 -3
q44 0 78.5 26.5t54 76t19.5 114.5q0 67 -16 143q-1 5 -1 15q0 23 12 36.5t34 13.5q33 0 43 -41q9 -16 30.5 -23t62.5 -7q58 0 87 15t29 54q0 19 12.5 32.5t32.5 13.5q21 0 33 -13.5t12 -34.5v-67q0 -50 12 -75.5t41 -33.5q73 122 134.5 193.5t121 103.5t127.5 32
q64 0 113 -31.5zM1095 141.5q34 17.5 34 63.5q0 56 -38.5 94.5t-99.5 38.5q-79 0 -148.5 -52t-140.5 -162h273q86 0 120 17.5zM169.5 415q-16.5 17 -16.5 40t16.5 39.5t39.5 16.5t39.5 -16.5t16.5 -39.5t-16.5 -40t-39.5 -17t-39.5 17z" />
    <glyph glyph-name="uni06350632.fina" unicode="&#xfebc;&#xfeb0;" horiz-adv-x="1277" 
d="M1294 121v-118l-17 -3q-58 0 -90.5 10.5t-47.5 31.5q-61 -42 -175 -42h-313q-83 0 -127 42t-51 130q-33 -54 -115 -54q-55 0 -79 33l1 -50q0 -95 -30 -173t-83 -123.5t-121 -45.5q-55 0 -84 17q-31 20 -31 54q0 9 1 14q4 21 18 32t33 11l10 -1q18 -3 45 -3
q44 0 78.5 26.5t54 76t19.5 114.5q0 67 -16 143q-1 5 -1 15q0 23 12 36.5t34 13.5q33 0 43 -41q9 -16 30.5 -23t62.5 -7q58 0 87 15t29 54q0 19 12.5 32.5t32.5 13.5q21 0 33 -13.5t12 -34.5v-67q0 -50 12 -75.5t41 -33.5q73 122 134.5 193.5t121 103.5t127.5 32
q64 0 113 -31.5t76 -88t27 -130.5q0 -44 -10 -75q26 -8 74 -8zM1095 141.5q34 17.5 34 63.5q0 56 -38.5 94.5t-99.5 38.5q-79 0 -148.5 -52t-140.5 -162h273q86 0 120 17.5zM169.5 415q-16.5 17 -16.5 40t16.5 39.5t39.5 16.5t39.5 -16.5t16.5 -39.5t-16.5 -40t-39.5 -17
t-39.5 17z" />
    <glyph glyph-name="uni06350626" unicode="&#xfebb;&#xfe8a;" horiz-adv-x="1487" 
d="M1339 425.5q49 -31.5 76 -88t27 -130.5q0 -104 -61.5 -155.5t-187.5 -51.5h-262q-48 0 -79.5 14t-51 36.5t-41.5 60.5l-30 53q-35 63 -69.5 91t-95.5 28q-38 0 -72.5 -12.5t-55.5 -33t-21 -42.5q0 -21 12.5 -33t35.5 -19.5t79 -20.5l43 -10q69 -17 102 -56t33 -105
q0 -111 -90.5 -174t-264.5 -63q-173 0 -254.5 72.5t-81.5 228.5q0 87 35 164q8 17 20.5 27t27.5 10q7 0 11 -1q14 -5 22.5 -15.5t8.5 -25.5q0 -11 -4 -22q-26 -67 -26 -130q0 -70 24 -109.5t77.5 -57.5t147.5 -18q265 0 265 103q0 19 -12 29t-40 17.5t-91 19.5t-97.5 34
t-48.5 56t-14 86q0 58 33 109t87.5 82t116.5 31q61 0 102.5 -20.5t68 -53t53.5 -81.5l26 -47q25 -44 33 -54q70 114 129.5 181t117.5 97.5t124 30.5q64 0 113 -31.5zM1295 131.5q33 7.5 47.5 25t14.5 48.5q0 57 -38 95t-99 38q-79 0 -148.5 -51.5t-141.5 -162.5h274
q58 0 91 7.5zM205.5 341.5q8.5 -8.5 8.5 -22.5q0 -27 -26 -31q-31 -6 -112 -13l-31 -3q-19 -1 -29 8t-10 25q0 29 32 32l6 1q-18 16 -18 42q0 43 27.5 67t67.5 24q24 0 43 -8q24 -12 24 -34q0 -14 -7 -22t-19 -8q-5 0 -8 1q-15 3 -31 3q-22 0 -34 -6t-12 -23q0 -16 8 -22
t31 -6q14 0 38 2q20 2 27 2q16 0 24.5 -8.5z" />
    <glyph glyph-name="uni06350626.fina" unicode="&#xfebc;&#xfe8a;" horiz-adv-x="1512" 
d="M1529 121v-118l-17 -3q-60 0 -92.5 11t-47.5 34q-61 -45 -179 -45h-262q-48 0 -79.5 14t-51 36.5t-41.5 60.5l-30 53q-35 63 -69.5 91t-95.5 28q-38 0 -72.5 -12.5t-55.5 -33t-21 -42.5q0 -21 12.5 -33t35.5 -19.5t79 -20.5l43 -10q69 -17 102 -56t33 -105
q0 -111 -90.5 -174t-264.5 -63q-173 0 -254.5 72.5t-81.5 228.5q0 87 35 164q8 17 20.5 27t27.5 10q7 0 11 -1q14 -5 22.5 -15.5t8.5 -25.5q0 -11 -4 -22q-26 -67 -26 -130q0 -70 24 -109.5t77.5 -57.5t147.5 -18q265 0 265 103q0 19 -12 29t-40 17.5t-91 19.5t-97.5 34
t-48.5 56t-14 86q0 58 33 109t87.5 82t116.5 31q61 0 102.5 -20.5t68 -53t53.5 -81.5l26 -47q25 -44 33 -54q70 114 129.5 181t117.5 97.5t124 30.5q64 0 113 -31.5t76 -88t27 -130.5q0 -41 -9 -74q29 -9 79 -9zM1295 131.5q33 7.5 47.5 25t14.5 48.5q0 57 -38 95t-99 38
q-79 0 -148.5 -51.5t-141.5 -162.5h274q58 0 91 7.5zM205.5 341.5q8.5 -8.5 8.5 -22.5q0 -27 -26 -31q-31 -6 -112 -13l-31 -3q-19 -1 -29 8t-10 25q0 29 32 32l6 1q-18 16 -18 42q0 43 27.5 67t67.5 24q24 0 43 -8q24 -12 24 -34q0 -14 -7 -22t-19 -8q-5 0 -8 1
q-15 3 -31 3q-22 0 -34 -6t-12 -23q0 -16 8 -22t31 -6q14 0 38 2q20 2 27 2q16 0 24.5 -8.5z" />
    <glyph glyph-name="uni06360632" unicode="&#xfebf;&#xfeb0;" horiz-adv-x="1259" 
d="M1110 425.5q49 -31.5 76 -88t27 -130.5q0 -104 -61.5 -155.5t-187.5 -51.5h-313q-83 0 -127 42t-51 130q-33 -54 -115 -54q-55 0 -79 33l1 -50q0 -95 -30 -173t-83 -123.5t-121 -45.5q-55 0 -84 17q-31 20 -31 54q0 9 1 14q4 21 18 32t33 11l10 -1q18 -3 45 -3
q44 0 78.5 26.5t54 76t19.5 114.5q0 67 -16 143q-1 5 -1 15q0 23 12 36.5t34 13.5q33 0 43 -41q9 -16 30.5 -23t62.5 -7q58 0 87 15t29 54q0 19 12.5 32.5t32.5 13.5q21 0 33 -13.5t12 -34.5v-67q0 -50 12 -75.5t41 -33.5q73 122 134.5 193.5t121 103.5t127.5 32
q64 0 113 -31.5zM1095 141.5q34 17.5 34 63.5q0 56 -38.5 94.5t-99.5 38.5q-79 0 -148.5 -52t-140.5 -162h273q86 0 120 17.5zM957.5 565q-16.5 17 -16.5 40t16.5 39.5t39.5 16.5t39.5 -16.5t16.5 -39.5t-16.5 -40t-39.5 -17t-39.5 17zM169.5 415q-16.5 17 -16.5 40
t16.5 39.5t39.5 16.5t39.5 -16.5t16.5 -39.5t-16.5 -40t-39.5 -17t-39.5 17z" />
    <glyph glyph-name="uni06360632.fina" unicode="&#xfec0;&#xfeb0;" horiz-adv-x="1277" 
d="M1294 121v-118l-17 -3q-58 0 -90.5 10.5t-47.5 31.5q-61 -42 -175 -42h-313q-83 0 -127 42t-51 130q-33 -54 -115 -54q-55 0 -79 33l1 -50q0 -95 -30 -173t-83 -123.5t-121 -45.5q-55 0 -84 17q-31 20 -31 54q0 9 1 14q4 21 18 32t33 11l10 -1q18 -3 45 -3
q44 0 78.5 26.5t54 76t19.5 114.5q0 67 -16 143q-1 5 -1 15q0 23 12 36.5t34 13.5q33 0 43 -41q9 -16 30.5 -23t62.5 -7q58 0 87 15t29 54q0 19 12.5 32.5t32.5 13.5q21 0 33 -13.5t12 -34.5v-67q0 -50 12 -75.5t41 -33.5q73 122 134.5 193.5t121 103.5t127.5 32
q64 0 113 -31.5t76 -88t27 -130.5q0 -44 -10 -75q26 -8 74 -8zM1095 141.5q34 17.5 34 63.5q0 56 -38.5 94.5t-99.5 38.5q-79 0 -148.5 -52t-140.5 -162h273q86 0 120 17.5zM957.5 565q-16.5 17 -16.5 40t16.5 39.5t39.5 16.5t39.5 -16.5t16.5 -39.5t-16.5 -40t-39.5 -17
t-39.5 17zM169.5 415q-16.5 17 -16.5 40t16.5 39.5t39.5 16.5t39.5 -16.5t16.5 -39.5t-16.5 -40t-39.5 -17t-39.5 17z" />
    <glyph glyph-name="uni06360626" unicode="&#xfebf;&#xfe8a;" horiz-adv-x="1487" 
d="M1339 425.5q49 -31.5 76 -88t27 -130.5q0 -104 -61.5 -155.5t-187.5 -51.5h-262q-48 0 -79.5 14t-51 36.5t-41.5 60.5l-30 53q-35 63 -69.5 91t-95.5 28q-38 0 -72.5 -12.5t-55.5 -33t-21 -42.5q0 -21 12.5 -33t35.5 -19.5t79 -20.5l43 -10q69 -17 102 -56t33 -105
q0 -111 -90.5 -174t-264.5 -63q-173 0 -254.5 72.5t-81.5 228.5q0 87 35 164q8 17 20.5 27t27.5 10q7 0 11 -1q14 -5 22.5 -15.5t8.5 -25.5q0 -11 -4 -22q-26 -67 -26 -130q0 -70 24 -109.5t77.5 -57.5t147.5 -18q265 0 265 103q0 19 -12 29t-40 17.5t-91 19.5t-97.5 34
t-48.5 56t-14 86q0 58 33 109t87.5 82t116.5 31q61 0 102.5 -20.5t68 -53t53.5 -81.5l26 -47q25 -44 33 -54q70 114 129.5 181t117.5 97.5t124 30.5q64 0 113 -31.5zM1295 131.5q33 7.5 47.5 25t14.5 48.5q0 57 -38 95t-99 38q-79 0 -148.5 -51.5t-141.5 -162.5h274
q58 0 91 7.5zM205.5 341.5q8.5 -8.5 8.5 -22.5q0 -27 -26 -31q-31 -6 -112 -13l-31 -3q-19 -1 -29 8t-10 25q0 29 32 32l6 1q-18 16 -18 42q0 43 27.5 67t67.5 24q24 0 43 -8q24 -12 24 -34q0 -14 -7 -22t-19 -8q-5 0 -8 1q-15 3 -31 3q-22 0 -34 -6t-12 -23q0 -16 8 -22
t31 -6q14 0 38 2q20 2 27 2q16 0 24.5 -8.5zM1186.5 565q-16.5 17 -16.5 40t16.5 39.5t39.5 16.5t39.5 -16.5t16.5 -39.5t-16.5 -40t-39.5 -17t-39.5 17z" />
    <glyph glyph-name="uni06360626.fina" unicode="&#xfec0;&#xfe8a;" horiz-adv-x="1512" 
d="M1529 121v-118l-17 -3q-60 0 -92.5 11t-47.5 34q-61 -45 -179 -45h-262q-48 0 -79.5 14t-51 36.5t-41.5 60.5l-30 53q-35 63 -69.5 91t-95.5 28q-38 0 -72.5 -12.5t-55.5 -33t-21 -42.5q0 -21 12.5 -33t35.5 -19.5t79 -20.5l43 -10q69 -17 102 -56t33 -105
q0 -111 -90.5 -174t-264.5 -63q-173 0 -254.5 72.5t-81.5 228.5q0 87 35 164q8 17 20.5 27t27.5 10q7 0 11 -1q14 -5 22.5 -15.5t8.5 -25.5q0 -11 -4 -22q-26 -67 -26 -130q0 -70 24 -109.5t77.5 -57.5t147.5 -18q265 0 265 103q0 19 -12 29t-40 17.5t-91 19.5t-97.5 34
t-48.5 56t-14 86q0 58 33 109t87.5 82t116.5 31q61 0 102.5 -20.5t68 -53t53.5 -81.5l26 -47q25 -44 33 -54q70 114 129.5 181t117.5 97.5t124 30.5q64 0 113 -31.5t76 -88t27 -130.5q0 -41 -9 -74q29 -9 79 -9zM1295 131.5q33 7.5 47.5 25t14.5 48.5q0 57 -38 95t-99 38
q-79 0 -148.5 -51.5t-141.5 -162.5h274q58 0 91 7.5zM205.5 341.5q8.5 -8.5 8.5 -22.5q0 -27 -26 -31q-31 -6 -112 -13l-31 -3q-19 -1 -29 8t-10 25q0 29 32 32l6 1q-18 16 -18 42q0 43 27.5 67t67.5 24q24 0 43 -8q24 -12 24 -34q0 -14 -7 -22t-19 -8q-5 0 -8 1
q-15 3 -31 3q-22 0 -34 -6t-12 -23q0 -16 8 -22t31 -6q14 0 38 2q20 2 27 2q16 0 24.5 -8.5zM1186.5 565q-16.5 17 -16.5 40t16.5 39.5t39.5 16.5t39.5 -16.5t16.5 -39.5t-16.5 -40t-39.5 -17t-39.5 17z" />
    <glyph glyph-name="uni06410626" unicode="&#xfed3;&#xfe8a;" horiz-adv-x="829" 
d="M740.5 486.5q43.5 -67.5 43.5 -173.5v-60q0 -86 -33.5 -142t-112.5 -79q35 -37 35 -95q0 -67 -39 -117t-112.5 -78t-174.5 -28q-163 0 -240.5 69.5t-77.5 216.5q0 88 35 158q19 37 49 37q6 0 10 -1q14 -5 22.5 -16t8.5 -26q0 -10 -4 -21q-26 -63 -26 -123q1 -64 23 -101
t72.5 -53.5t137.5 -16.5q111 0 172.5 28t61.5 76q0 28 -34.5 42t-105.5 22q-57 6 -57 60q0 24 18 39t45 15q18 -1 57 -1q94 0 142 24t48 82v41q-27 -66 -123 -66q-147 0 -147 157q0 56 21.5 101t61.5 71t93 26q87 0 130.5 -67.5zM704 326v2q-1 43 -24 76t-77 33
q-40 0 -65.5 -21.5t-25.5 -56.5q0 -34 19.5 -47.5t67.5 -13.5q90 0 105 28zM201.5 321.5q8.5 -8.5 8.5 -22.5q0 -27 -26 -31q-31 -6 -112 -13l-31 -3q-19 -1 -29 8t-10 25q0 29 32 32l6 1q-18 16 -18 42q0 43 27.5 67t67.5 24q24 0 43 -8q24 -12 24 -34q0 -14 -7 -22t-19 -8
q-5 0 -8 1q-15 3 -31 3q-22 0 -34 -6t-12 -23q0 -16 8 -22t31 -6q14 0 38 2q20 2 27 2q16 0 24.5 -8.5zM570.5 662q-16.5 17 -16.5 40t16.5 39.5t39.5 16.5t39.5 -16.5t16.5 -39.5t-16.5 -40t-39.5 -17t-39.5 17z" />
    <glyph glyph-name="uni06420626" unicode="&#xfed7;&#xfe8a;" horiz-adv-x="829" 
d="M740.5 486.5q43.5 -67.5 43.5 -173.5v-60q0 -86 -33.5 -142t-112.5 -79q35 -37 35 -95q0 -67 -39 -117t-112.5 -78t-174.5 -28q-163 0 -240.5 69.5t-77.5 216.5q0 88 35 158q19 37 49 37q6 0 10 -1q14 -5 22.5 -16t8.5 -26q0 -10 -4 -21q-26 -63 -26 -123q1 -64 23 -101
t72.5 -53.5t137.5 -16.5q111 0 172.5 28t61.5 76q0 28 -34.5 42t-105.5 22q-57 6 -57 60q0 24 18 39t45 15q18 -1 57 -1q94 0 142 24t48 82v41q-27 -66 -123 -66q-147 0 -147 157q0 56 21.5 101t61.5 71t93 26q87 0 130.5 -67.5zM704 326v2q-1 43 -24 76t-77 33
q-40 0 -65.5 -21.5t-25.5 -56.5q0 -34 19.5 -47.5t67.5 -13.5q90 0 105 28zM511 652.5q-15 15.5 -15 36.5t15 36t36 15t36.5 -15t15.5 -36t-15 -36.5t-37 -15.5q-21 0 -36 15.5zM632 652.5q-15 15.5 -15 36.5t15.5 36t35.5 15q21 0 37 -15t16 -36t-15.5 -36.5t-37.5 -15.5
q-21 0 -36 15.5zM201.5 321.5q8.5 -8.5 8.5 -22.5q0 -27 -26 -31q-31 -6 -112 -13l-31 -3q-19 -1 -29 8t-10 25q0 29 32 32l6 1q-18 16 -18 42q0 43 27.5 67t67.5 24q24 0 43 -8q24 -12 24 -34q0 -14 -7 -22t-19 -8q-5 0 -8 1q-15 3 -31 3q-22 0 -34 -6t-12 -23q0 -16 8 -22
t31 -6q14 0 38 2q20 2 27 2q16 0 24.5 -8.5z" />
    <glyph glyph-name="uni06430626" unicode="&#xfedb;&#xfe8a;" horiz-adv-x="847" 
d="M875 688q0 -28 -37 -50l-291 -179q135 -56 195 -115t60 -145q0 -74 -40.5 -119t-114.5 -60q26 -34 26 -81q0 -67 -39 -118t-112.5 -79t-174.5 -28q-163 0 -240 69t-78 217q0 88 35 158q19 37 49 37q6 0 10 -1q14 -5 22.5 -16t8.5 -26q0 -10 -4 -21q-26 -63 -26 -123
q1 -64 23 -101t72.5 -53.5t137.5 -16.5q111 0 172.5 28t61.5 76q0 31 -26.5 47t-81.5 22q-25 3 -40 19t-15 40q0 27 15 43.5t39 16.5q7 0 31 -2q54 -3 65 -3q53 0 98 14t45 50q0 33 -17 59t-62.5 53.5t-132.5 60.5q-44 16 -60.5 38t-16.5 51q0 26 11.5 43.5t35.5 32.5
l314 200q20 12 37 12q14 0 25.5 -8.5t15.5 -24.5q4 -12 4 -17zM199.5 320.5q8.5 -8.5 8.5 -22.5q0 -27 -26 -31q-31 -6 -112 -13l-31 -3q-19 -1 -29 8t-10 25q0 29 32 32l6 1q-18 16 -18 42q0 43 27.5 67t67.5 24q24 0 43 -8q24 -12 24 -34q0 -14 -7 -22t-19 -8q-5 0 -8 1
q-15 3 -31 3q-22 0 -34 -6t-12 -23q0 -16 8 -22t31 -6q14 0 38 2q20 2 27 2q16 0 24.5 -8.5z" />
    <glyph glyph-name="uni06430626.fina" unicode="&#xfedc;&#xfe8a;" horiz-adv-x="1072" 
d="M1089 121v-118l-17 -3q-56 0 -95 11.5t-73 37.5t-75 76q-13 -51 -54.5 -79.5t-121.5 -34.5q20 -31 20 -72q0 -67 -39 -118t-112.5 -79t-174.5 -28q-163 0 -240 69t-78 217q0 88 35 158q19 37 49 37q6 0 10 -1q14 -5 22.5 -16t8.5 -26q0 -10 -4 -21q-26 -63 -26 -123
q1 -64 23 -101t72.5 -53.5t137.5 -16.5q111 0 172.5 28t61.5 76q0 31 -24.5 46t-78.5 23q-24 3 -39 19t-15 40q0 28 16.5 45.5t43.5 14.5q65 -5 112 -5q67 0 102.5 6t50 17.5t19.5 32.5q-63 83 -165 209q-14 18 -21.5 35t-7.5 37q0 28 15.5 44.5t48.5 36.5l309 186
q19 11 35 11q15 0 27 -8.5t16 -24.5q3 -9 3 -17q0 -31 -36 -52l-313 -183l15 -19q88 -113 140 -173q50 -60 81 -88t64 -39t83 -11zM203.5 325.5q8.5 -8.5 8.5 -22.5q0 -27 -26 -31q-31 -6 -112 -13l-31 -3q-19 -1 -29 8t-10 25q0 29 32 32l6 1q-18 16 -18 42q0 43 27.5 67
t67.5 24q24 0 43 -8q24 -12 24 -34q0 -14 -7 -22t-19 -8q-5 0 -8 1q-15 3 -31 3q-22 0 -34 -6t-12 -23q0 -16 8 -22t31 -6q14 0 38 2q20 2 27 2q16 0 24.5 -8.5z" />
    <glyph glyph-name="uni06440626" unicode="&#xfedf;&#xfe8a;" horiz-adv-x="810" 
d="M722.5 724.5q12.5 -15.5 12.5 -44.5v-420q0 -95 -23.5 -149.5t-75.5 -77.5q37 -35 37 -94q0 -67 -39 -118t-112.5 -79t-174.5 -28q-163 0 -240.5 69.5t-77.5 216.5q0 84 35 159q8 17 21 27t28 10q6 0 10 -1q15 -4 23 -15t8 -26q0 -11 -4 -22q-26 -63 -26 -124
q1 -64 23 -101t72.5 -53.5t137.5 -16.5q111 0 172.5 28t61.5 76q0 31 -27.5 47.5t-84.5 21.5q-25 1 -40 18t-15 41q0 28 17.5 44t45.5 14q20 -3 53 -3q39 0 59.5 7.5t28.5 27.5t8 58v463q0 29 13 44.5t37 15.5t36.5 -15.5zM200.5 321.5q8.5 -8.5 8.5 -22.5q0 -27 -26 -31
q-31 -6 -112 -13l-31 -3q-19 -1 -29 8t-10 25q0 29 32 32l6 1q-18 16 -18 42q0 43 27.5 67t67.5 24q24 0 43 -8q24 -12 24 -34q0 -14 -7 -22t-19 -8q-5 0 -8 1q-15 3 -31 3q-22 0 -34 -6t-12 -23q0 -16 8 -22t31 -6q14 0 38 2q20 2 27 2q16 0 24.5 -8.5z" />
    <glyph glyph-name="uni06440626.fina" unicode="&#xfee0;&#xfe8a;" horiz-adv-x="861" 
d="M878 121v-118l-17 -3q-133 0 -163 86q-21 -34 -62 -53q37 -35 37 -94q0 -67 -39 -118t-112.5 -79t-174.5 -28q-163 0 -240.5 69.5t-77.5 216.5q0 84 35 159q8 17 21 27t28 10q6 0 10 -1q15 -4 23 -15t8 -26q0 -11 -4 -22q-26 -63 -26 -124q1 -64 23 -101t72.5 -53.5
t137.5 -16.5q111 0 172.5 28t61.5 76q0 31 -27.5 47.5t-84.5 21.5q-25 1 -40 18t-15 41q0 28 17.5 44t45.5 14q20 -3 53 -3q39 0 59.5 7.5t28.5 27.5t8 58v463q0 29 13 44.5t37 15.5t36.5 -15.5t12.5 -44.5v-427q0 -52 12 -79.5t39 -38.5t75 -11zM200.5 321.5
q8.5 -8.5 8.5 -22.5q0 -27 -26 -31q-31 -6 -112 -13l-31 -3q-19 -1 -29 8t-10 25q0 29 32 32l6 1q-18 16 -18 42q0 43 27.5 67t67.5 24q24 0 43 -8q24 -12 24 -34q0 -14 -7 -22t-19 -8q-5 0 -8 1q-15 3 -31 3q-22 0 -34 -6t-12 -23q0 -16 8 -22t31 -6q14 0 38 2q20 2 27 2
q16 0 24.5 -8.5z" />
    <glyph glyph-name="uni06460626" unicode="&#xfee7;&#xfe8a;" horiz-adv-x="788" 
d="M714.5 112.5q-27.5 -53.5 -79.5 -78.5q38 -36 38 -95q0 -67 -39 -118t-112.5 -79t-174.5 -28q-163 0 -240.5 69.5t-77.5 216.5q0 46 9 86t21 69q7 17 19.5 27t27.5 10q7 0 11 -1q31 -7 31 -40q0 -10 -3 -21q-21 -63 -21 -122q1 -64 23 -101t72.5 -53.5t137.5 -16.5
q111 0 172.5 28t61.5 76q0 30 -31.5 46.5t-81.5 22.5q-25 4 -39.5 19.5t-14.5 39.5q0 27 15.5 42t42.5 15q13 0 21 -1l43 -1q58 0 82 28t24 90q0 50 -10 110l-1 9q0 20 13 32t31 12q39 0 48 -47q9 -51 9 -114q0 -78 -27.5 -131.5zM647.5 513q-16.5 17 -16.5 40t16.5 39.5
t39.5 16.5t39.5 -16.5t16.5 -39.5t-16.5 -40t-39.5 -17t-39.5 17zM200.5 321.5q8.5 -8.5 8.5 -22.5q0 -27 -26 -31q-31 -6 -112 -13l-31 -3q-19 -1 -29 8t-10 25q0 29 32 32l6 1q-18 16 -18 42q0 43 27.5 67t67.5 24q24 0 43 -8q24 -12 24 -34q0 -14 -7 -22t-19 -8
q-5 0 -8 1q-15 3 -31 3q-22 0 -34 -6t-12 -23q0 -16 8 -22t31 -6q14 0 38 2q20 2 27 2q16 0 24.5 -8.5z" />
    <glyph glyph-name="uni06460626.fina" unicode="&#xfee8;&#xfe8a;" horiz-adv-x="921" 
d="M61 175q7 17 19.5 27t27.5 10q7 0 11 -1q31 -7 31 -40q0 -10 -3 -21q-23 -67 -23 -128q0 -70 24 -109.5t77.5 -57.5t147.5 -18q265 0 265 103q0 19 -12 29t-40 17.5t-91 19.5q-60 12 -93 34t-46 56t-13 86q0 56 31.5 105.5t84.5 79t113 29.5q61 0 101 -20.5t64.5 -52
t52.5 -82.5l21 -39q23 -43 45.5 -60.5t64.5 -17.5l17 -3v-118l-17 -3q-68 0 -105 26.5t-68 84.5l-25 45q-24 44 -43 68t-46.5 37.5t-69.5 13.5q-36 0 -68.5 -11.5t-52.5 -30t-20 -38.5q0 -21 11.5 -33t34 -19.5t75.5 -20.5l41 -10q69 -17 102 -56t33 -105q0 -112 -90 -174.5
t-265 -62.5q-173 0 -254.5 72.5t-81.5 228.5q0 87 32 160zM532.5 504q-16.5 17 -16.5 40t16.5 39.5t39.5 16.5t39.5 -16.5t16.5 -39.5t-16.5 -40t-39.5 -17t-39.5 17zM204.5 341.5q8.5 -8.5 8.5 -22.5q0 -27 -26 -31q-31 -6 -112 -13l-31 -3q-19 -1 -29 8t-10 25q0 29 32 32
l6 1q-18 16 -18 42q0 43 27.5 67t67.5 24q24 0 43 -8q24 -12 24 -34q0 -14 -7 -22t-19 -8q-5 0 -8 1q-15 3 -31 3q-22 0 -34 -6t-12 -23q0 -16 8 -22t31 -6q14 0 38 2q20 2 27 2q16 0 24.5 -8.5z" />
    <glyph glyph-name="uni06490631.fina" unicode="&#xfbe9;&#xfeae;" horiz-adv-x="682" 
d="M699 121v-118l-17 -3q-98 0 -149.5 42t-59.5 129q-32 -53 -115 -53q-55 0 -80 33q2 -32 2 -50q0 -95 -30 -173t-83 -123.5t-121 -45.5q-55 0 -84 17q-31 20 -31 54q0 9 1 14q4 21 18 32t33 11l10 -1q18 -3 45 -3q44 0 78.5 26.5t54 76t19.5 114.5q0 71 -15 143
q-2 12 -2 16q0 22 12.5 35.5t33.5 13.5q31 0 41 -37q9 -19 30.5 -27.5t64.5 -8.5q58 0 86 14t28 52q0 19 12.5 32.5t32.5 13.5t32 -14t12 -35v-51q0 -69 27.5 -96t96.5 -27z" />
    <glyph glyph-name="uni06490632.fina" unicode="&#xfbe9;&#xfeb0;" horiz-adv-x="682" 
d="M699 121v-118l-17 -3q-98 0 -149.5 42t-59.5 129q-32 -53 -115 -53q-55 0 -80 33q2 -32 2 -50q0 -95 -30 -173t-83 -123.5t-121 -45.5q-55 0 -84 17q-31 20 -31 54q0 9 1 14q4 21 18 32t33 11l10 -1q18 -3 45 -3q44 0 78.5 26.5t54 76t19.5 114.5q0 71 -15 143
q-2 12 -2 16q0 22 12.5 35.5t33.5 13.5q31 0 41 -37q9 -19 30.5 -27.5t64.5 -8.5q58 0 86 14t28 52q0 19 12.5 32.5t32.5 13.5t32 -14t12 -35v-51q0 -69 27.5 -96t96.5 -27zM175.5 408q-16.5 17 -16.5 40t16.5 39.5t39.5 16.5t39.5 -16.5t16.5 -39.5t-16.5 -40t-39.5 -17
t-39.5 17z" />
    <glyph glyph-name="uni06490646.fina" unicode="&#xfbe9;&#xfee6;" horiz-adv-x="1041" 
d="M1058 121v-118l-17 -3q-97 0 -148.5 42t-60.5 129q-32 -53 -115 -53q-57 0 -81 35q4 -40 4 -89q0 -150 -75.5 -225t-237.5 -75q-157 0 -227.5 70t-70.5 223q0 92 29 166q7 17 19 26.5t28 9.5q7 0 11 -1q31 -7 31 -40q0 -9 -3 -20q-20 -62 -20 -134q0 -66 20.5 -104
t66.5 -55t126 -17q113 0 160.5 40t47.5 131q0 84 -15 184q-2 10 -2 15q0 21 12.5 34.5t33.5 13.5q38 0 48 -41q9 -15 30 -21.5t63 -6.5q57 0 85 14t28 50q0 19 12.5 32.5t32.5 13.5t32 -14t12 -35v-51q0 -69 27.5 -96t96.5 -27z" />
    <glyph glyph-name="uni06490649" unicode="&#xfbe8;&#xfef0;" horiz-adv-x="788" 
d="M714.5 112.5q-27.5 -53.5 -79.5 -78.5q38 -36 38 -95q0 -67 -39 -118t-112.5 -79t-174.5 -28q-163 0 -240.5 69.5t-77.5 216.5q0 46 9 86t21 69q7 17 19.5 27t27.5 10q7 0 11 -1q31 -7 31 -40q0 -10 -3 -21q-21 -63 -21 -122q1 -64 23 -101t72.5 -53.5t137.5 -16.5
q111 0 172.5 28t61.5 76q0 30 -31.5 46.5t-81.5 22.5q-25 4 -39.5 19.5t-14.5 39.5q0 27 15.5 42t42.5 15q13 0 21 -1l43 -1q58 0 82 28t24 90q0 50 -10 110l-1 9q0 20 13 32t31 12q39 0 48 -47q9 -51 9 -114q0 -78 -27.5 -131.5z" />
    <glyph glyph-name="uni06490649.fina" unicode="&#xfbe9;&#xfef0;" horiz-adv-x="921" 
d="M61 175q7 17 19.5 27t27.5 10q7 0 11 -1q31 -7 31 -40q0 -10 -3 -21q-23 -67 -23 -128q0 -70 24 -109.5t77.5 -57.5t147.5 -18q265 0 265 103q0 19 -12 29t-40 17.5t-91 19.5q-60 12 -93 34t-46 56t-13 86q0 56 31.5 105.5t84.5 79t113 29.5q61 0 101 -20.5t64.5 -52
t52.5 -82.5l21 -39q23 -43 45.5 -60.5t64.5 -17.5l17 -3v-118l-17 -3q-68 0 -105 26.5t-68 84.5l-25 45q-24 44 -43 68t-46.5 37.5t-69.5 13.5q-36 0 -68.5 -11.5t-52.5 -30t-20 -38.5q0 -21 11.5 -33t34 -19.5t75.5 -20.5l41 -10q69 -17 102 -56t33 -105q0 -112 -90 -174.5
t-265 -62.5q-173 0 -254.5 72.5t-81.5 228.5q0 87 32 160z" />
    <glyph glyph-name="uni064A0626" unicode="&#xfef3;&#xfe8a;" horiz-adv-x="921" 
d="M15 280q-10 9 -10 25q0 29 32 32l6 1q-18 16 -18 42q0 43 27.5 67t67.5 24q24 0 43 -8q24 -12 24 -34q0 -14 -7 -22t-19 -8q-5 0 -8 1q-15 3 -31 3q-22 0 -34 -6t-12 -23q0 -16 8 -22t31 -6q14 0 38 2q20 2 27 2q16 0 24.5 -8.5t8.5 -22.5q0 -27 -26 -31q-31 -6 -112 -13
l-31 -3q-19 -1 -29 8zM816 26.5q-37 26.5 -68 84.5l-25 45q-24 44 -43 68t-46.5 37.5t-69.5 13.5q-36 0 -68.5 -11.5t-52.5 -30t-20 -38.5q0 -21 11.5 -33t34 -19.5t75.5 -20.5l41 -10q69 -17 102 -56t33 -105q0 -112 -90 -174.5t-265 -62.5q-173 0 -254.5 72.5t-81.5 228.5
q0 87 32 160q7 17 19.5 27t27.5 10q7 0 11 -1q31 -7 31 -40q0 -10 -3 -21q-23 -67 -23 -128q0 -70 24 -109.5t77.5 -57.5t147.5 -18q265 0 265 103q0 19 -12 29t-40 17.5t-91 19.5q-60 12 -93 34t-46 56t-13 86q0 56 31.5 105.5t84.5 79t113 29.5q61 0 101 -20.5t64.5 -52
t52.5 -82.5l21 -39q23 -43 45.5 -60.5t64.5 -17.5l17 -3v-118l-17 -3q-68 0 -105 26.5zM839 -89q15 -15 15 -34q0 -20 -15 -35t-35 -15t-34.5 15t-14.5 35t14.5 34.5t34.5 14.5t35 -15zM954 -88.5q15 -14.5 15 -34.5t-14.5 -35t-35.5 -15q-20 0 -34.5 15t-14.5 35
q0 19 15 34t34 15q20 0 35 -14.5z" />
    <glyph glyph-name="uni064A0626.fina" unicode="&#xfef4;&#xfe8a;" horiz-adv-x="788" 
d="M11 260q-10 9 -10 25q0 29 32 32l6 1q-18 16 -18 42q0 43 27.5 67t67.5 24q24 0 43 -8q24 -12 24 -34q0 -14 -7 -22t-19 -8q-5 0 -8 1q-15 3 -31 3q-22 0 -34 -6t-12 -23q0 -16 8 -22t31 -6q14 0 38 2q20 2 27 2q16 0 24.5 -8.5t8.5 -22.5q0 -27 -26 -31q-31 -6 -112 -13
l-31 -3q-19 -1 -29 8zM634 -179q-39 -51 -112.5 -79t-174.5 -28q-163 0 -240.5 69.5t-77.5 216.5q0 46 9 86t21 69q7 17 19.5 27t27.5 10q7 0 11 -1q31 -7 31 -40q0 -10 -3 -21q-21 -63 -21 -122q1 -64 23 -101t72.5 -53.5t137.5 -16.5q111 0 172.5 28t61.5 76
q0 30 -31.5 46.5t-81.5 22.5q-25 4 -39.5 19.5t-14.5 39.5q0 27 15.5 42t42.5 15q13 0 21 -1l43 -1q58 0 82 28t24 90q0 50 -10 110l-1 9q0 20 13 32t31 12q39 0 48 -47q9 -51 9 -114q0 -78 -27.5 -131.5t-79.5 -78.5q38 -36 38 -95q0 -67 -39 -118zM626 -313q15 -15 15 -34
q0 -20 -15 -35t-35 -15t-34.5 15t-14.5 35t14.5 34.5t34.5 14.5t35 -15zM741 -312.5q15 -14.5 15 -34.5t-14.5 -35t-35.5 -15q-20 0 -34.5 15t-14.5 35q0 19 15 34t34 15q20 0 35 -14.5z" />
    <glyph glyph-name="uni06260626" unicode="&#xfe8b;&#xfe8a;" horiz-adv-x="788" 
d="M714.5 112.5q-27.5 -53.5 -79.5 -78.5q38 -36 38 -95q0 -67 -39 -118t-112.5 -79t-174.5 -28q-163 0 -240.5 69.5t-77.5 216.5q0 46 9 86t21 69q7 17 19.5 27t27.5 10q7 0 11 -1q31 -7 31 -40q0 -10 -3 -21q-21 -63 -21 -122q1 -64 23 -101t72.5 -53.5t137.5 -16.5
q111 0 172.5 28t61.5 76q0 30 -31.5 46.5t-81.5 22.5q-25 4 -39.5 19.5t-14.5 39.5q0 27 15.5 42t42.5 15q13 0 21 -1l43 -1q58 0 82 28t24 90q0 50 -10 110l-1 9q0 20 13 32t31 12q39 0 48 -47q9 -51 9 -114q0 -78 -27.5 -131.5zM200.5 321.5q8.5 -8.5 8.5 -22.5
q0 -27 -26 -31q-31 -6 -112 -13l-31 -3q-19 -1 -29 8t-10 25q0 29 32 32l6 1q-18 16 -18 42q0 43 27.5 67t67.5 24q24 0 43 -8q24 -12 24 -34q0 -14 -7 -22t-19 -8q-5 0 -8 1q-15 3 -31 3q-22 0 -34 -6t-12 -23q0 -16 8 -22t31 -6q14 0 38 2q20 2 27 2q16 0 24.5 -8.5z
M773.5 536.5q8.5 -8.5 8.5 -22.5q0 -27 -26 -31q-31 -6 -112 -13l-31 -3q-19 -1 -29 8t-10 25q0 29 32 32l6 1q-18 16 -18 42q0 43 27.5 67t67.5 24q24 0 43 -8q24 -12 24 -34q0 -14 -7 -22t-19 -8q-5 0 -8 1q-15 3 -31 3q-22 0 -34 -6t-12 -23q0 -16 8 -22t31 -6q14 0 38 2
q20 2 27 2q16 0 24.5 -8.5z" />
    <glyph glyph-name="uni06260626.fina" unicode="&#xfe8c;&#xfe8a;" horiz-adv-x="921" 
d="M61 175q7 17 19.5 27t27.5 10q7 0 11 -1q31 -7 31 -40q0 -10 -3 -21q-23 -67 -23 -128q0 -70 24 -109.5t77.5 -57.5t147.5 -18q265 0 265 103q0 19 -12 29t-40 17.5t-91 19.5q-60 12 -93 34t-46 56t-13 86q0 56 31.5 105.5t84.5 79t113 29.5q61 0 101 -20.5t64.5 -52
t52.5 -82.5l21 -39q23 -43 45.5 -60.5t64.5 -17.5l17 -3v-118l-17 -3q-68 0 -105 26.5t-68 84.5l-25 45q-24 44 -43 68t-46.5 37.5t-69.5 13.5q-36 0 -68.5 -11.5t-52.5 -30t-20 -38.5q0 -21 11.5 -33t34 -19.5t75.5 -20.5l41 -10q69 -17 102 -56t33 -105q0 -112 -90 -174.5
t-265 -62.5q-173 0 -254.5 72.5t-81.5 228.5q0 87 32 160zM658.5 527.5q8.5 -8.5 8.5 -22.5q0 -27 -26 -31q-31 -6 -112 -13l-31 -3q-19 -1 -29 8t-10 25q0 29 32 32l6 1q-18 16 -18 42q0 43 27.5 67t67.5 24q24 0 43 -8q24 -12 24 -34q0 -14 -7 -22t-19 -8q-5 0 -8 1
q-15 3 -31 3q-22 0 -34 -6t-12 -23q0 -16 8 -22t31 -6q14 0 38 2q20 2 27 2q16 0 24.5 -8.5zM204.5 341.5q8.5 -8.5 8.5 -22.5q0 -27 -26 -31q-31 -6 -112 -13l-31 -3q-19 -1 -29 8t-10 25q0 29 32 32l6 1q-18 16 -18 42q0 43 27.5 67t67.5 24q24 0 43 -8q24 -12 24 -34
q0 -14 -7 -22t-19 -8q-5 0 -8 1q-15 3 -31 3q-22 0 -34 -6t-12 -23q0 -16 8 -22t31 -6q14 0 38 2q20 2 27 2q16 0 24.5 -8.5z" />
    <glyph glyph-name="uni066E.init" unicode="&#x66e;" horiz-adv-x="261" 
d="M-17 3v118l17 3q68 0 96 29.5t28 96.5q0 34 -9 99l-1 9q0 20 13 32t31 12q39 0 48 -47q9 -52 9 -105q0 -120 -56.5 -185t-158.5 -65z" />
    <glyph glyph-name="uni066E.medi" unicode="&#x66e;" horiz-adv-x="349" 
d="M366 121v-118l-17 -3q-76 0 -119.5 22.5t-56.5 70.5q-14 -47 -56 -70t-117 -23l-17 3v118l17 3q51 0 78.5 10t40 35.5t12.5 74.5v54q0 23 12 37t33 14t32.5 -13.5t11.5 -36.5v-55q0 -49 12 -74.5t39.5 -35.5t77.5 -10z" />
    <glyph glyph-name="uni066E.fina" unicode="&#x66e;" horiz-adv-x="939" 
d="M956 121v-118l-17 -3q-76 0 -119.5 26t-56.5 80q-33 -57 -115 -81.5t-233 -24.5q-148 0 -231 23.5t-119 75.5t-36 144q0 54 12 93q6 23 20.5 35.5t33.5 9.5q16 -2 24.5 -13.5t8.5 -28.5q0 -9 -1 -13q-8 -30 -8 -65q0 -57 25 -85.5t89 -40t189 -11.5t188 10.5t88 38
t25 82.5v43q0 23 12 37t33 14t32.5 -14t11.5 -36v-48q0 -52 12 -79t38.5 -37.5t76.5 -10.5z" />
    <glyph glyph-name="uni066F.fina" unicode="&#x66f;" horiz-adv-x="780" 
d="M797 118v-115l-17 -3h-73q-11 -82 -49.5 -132.5t-111.5 -74t-189 -23.5q-119 0 -190.5 31t-104.5 96t-33 170q0 92 29 166q7 17 19 26.5t28 9.5q7 0 11 -1q31 -7 31 -40q0 -9 -3 -20q-20 -62 -20 -134q0 -66 23 -105t76 -57.5t144 -18.5q94 0 150 11t83 35t32 65h-128
q-163 0 -163 163q0 61 23.5 111t66 78.5t99.5 28.5q89 0 135 -72.5t46 -182.5v-6h69zM441.5 130q21.5 -12 76.5 -12h115v23q0 46 -25.5 86t-83.5 40q-46 0 -75 -26.5t-29 -67.5q0 -31 21.5 -43z" />
    <glyph glyph-name="uni06A1.init" unicode="&#x6a1;" horiz-adv-x="446" 
d="M355 492q45 -69 45 -177v-63q0 -129 -64 -190.5t-199 -61.5h-137l-17 3v118l17 3h140q67 0 106 10.5t56.5 35t17.5 65.5v31q-30 -65 -127 -65q-77 0 -115.5 40.5t-38.5 117.5q0 57 22.5 103t63.5 72.5t95 26.5q90 0 135 -69zM319 328v3q0 44 -24.5 78.5t-80.5 34.5
q-43 0 -70 -23t-27 -59q0 -33 20.5 -46.5t72.5 -13.5q90 0 109 26z" />
    <glyph glyph-name="uni06A1.medi" unicode="&#x6a1;" horiz-adv-x="497" 
d="M514 121v-118l-18 -3q-93 0 -152.5 14t-101.5 37q-85 -51 -241 -51l-18 3v118l18 3q87 0 139 7q-37 25 -53.5 61t-16.5 87q0 97 48 152t131 55t131 -54t48 -153q0 -51 -16.5 -87.5t-53.5 -61.5q56 -6 138 -6zM176.5 342.5q-26.5 -24.5 -26.5 -71.5q0 -39 21.5 -63
t78.5 -46q57 23 77.5 46.5t20.5 62.5q0 47 -26 71.5t-73 24.5q-46 0 -72.5 -24.5z" />
    <glyph glyph-name="uni06A1.fina" unicode="&#x6a1;" horiz-adv-x="923" 
d="M940 121v-118l-17 -3q-161 0 -251 49q-58 -29 -135.5 -39t-180.5 -10q-121 0 -192 24.5t-103 80t-32 150.5q0 61 14 105q6 21 18.5 33.5t29.5 12.5q20 0 30.5 -11.5t10.5 -29.5q0 -12 -2 -18q-10 -42 -10 -73q0 -57 23.5 -89.5t76 -46.5t143.5 -14q140 0 207 5
q-39 25 -56.5 61.5t-17.5 88.5q0 97 48.5 152t130.5 55q83 0 131 -54t48 -153q0 -51 -17 -87.5t-54 -60.5q53 -7 140 -7zM603 342.5q-26 -24.5 -26 -71.5q0 -38 21 -61.5t78 -47.5q57 23 77.5 47t20.5 62q0 47 -26 71.5t-73 24.5q-46 0 -72 -24.5z" />
    <glyph glyph-name="uniFB57" unicode="&#x67e;" horiz-adv-x="939" arabic-form="final" 
d="M956 121v-118l-17 -3q-76 0 -119.5 26t-56.5 80q-33 -57 -115 -81.5t-233 -24.5q-148 0 -231 23.5t-119 75.5t-36 144q0 54 12 93q6 23 20.5 35.5t33.5 9.5q16 -2 24.5 -13.5t8.5 -28.5q0 -9 -1 -13q-8 -30 -8 -65q0 -57 25 -85.5t89 -40t189 -11.5t188 10.5t88 38
t25 82.5v43q0 23 12 37t33 14t32.5 -14t11.5 -36v-48q0 -52 12 -79t38.5 -37.5t76.5 -10.5zM320.5 -168.5q-15.5 15.5 -15.5 36.5q0 20 15.5 35t35.5 15t36 -15t16 -35q0 -21 -15 -36.5t-37 -15.5q-20 0 -35.5 15.5zM440 -168.5q-15 15.5 -15 36.5q0 20 15 35t36 15
q20 0 35.5 -15t15.5 -35q0 -21 -15 -36.5t-36 -15.5t-36 15.5zM383 -280.5q-14 14.5 -14 34.5q0 19 14.5 33.5t33.5 14.5q20 0 34.5 -14.5t14.5 -33.5q0 -20 -14.5 -34.5t-34.5 -14.5t-34 14.5z" />
    <glyph glyph-name="uniFB58" unicode="&#x67e;" horiz-adv-x="261" arabic-form="initial" 
d="M-17 3v118l17 3q68 0 96 29.5t28 96.5q0 34 -9 99l-1 9q0 20 13 32t31 12q39 0 48 -47q9 -52 9 -105q0 -120 -56.5 -185t-158.5 -65zM-20.5 -171.5q-15.5 15.5 -15.5 36.5q0 20 15.5 35t35.5 15t36 -15t16 -35q0 -21 -15 -36.5t-37 -15.5q-20 0 -35.5 15.5zM99 -171.5
q-15 15.5 -15 36.5q0 20 15 35t36 15q20 0 35.5 -15t15.5 -35q0 -21 -15 -36.5t-36 -15.5t-36 15.5zM42 -283.5q-14 14.5 -14 34.5q0 19 14.5 33.5t33.5 14.5q20 0 34.5 -14.5t14.5 -33.5q0 -20 -14.5 -34.5t-34.5 -14.5t-34 14.5z" />
    <glyph glyph-name="uniFB59" unicode="&#x67e;" horiz-adv-x="349" arabic-form="medial" 
d="M366 121v-118l-17 -3q-76 0 -119.5 22.5t-56.5 70.5q-14 -47 -56 -70t-117 -23l-17 3v118l17 3q51 0 78.5 10t40 35.5t12.5 74.5v54q0 23 12 37t33 14t32.5 -13.5t11.5 -36.5v-55q0 -49 12 -74.5t39.5 -35.5t77.5 -10zM79.5 -170.5q-15.5 15.5 -15.5 36.5q0 20 15.5 35
t35.5 15t36 -15t16 -35q0 -21 -15 -36.5t-37 -15.5q-20 0 -35.5 15.5zM199 -170.5q-15 15.5 -15 36.5q0 20 15 35t36 15q20 0 35.5 -15t15.5 -35q0 -21 -15 -36.5t-36 -15.5t-36 15.5zM142 -282.5q-14 14.5 -14 34.5q0 19 14.5 33.5t33.5 14.5q20 0 34.5 -14.5t14.5 -33.5
q0 -20 -14.5 -34.5t-34.5 -14.5t-34 14.5z" />
    <glyph glyph-name="uniFB6B" unicode="&#x6a4;" horiz-adv-x="923" arabic-form="final" 
d="M940 121v-118l-17 -3q-161 0 -251 49q-58 -29 -135.5 -39t-180.5 -10q-121 0 -192 24.5t-103 80t-32 150.5q0 61 14 105q6 21 18.5 33.5t29.5 12.5q20 0 30.5 -11.5t10.5 -29.5q0 -12 -2 -18q-10 -42 -10 -73q0 -57 23.5 -89.5t76 -46.5t143.5 -14q140 0 207 5
q-39 25 -56.5 61.5t-17.5 88.5q0 97 48.5 152t130.5 55q83 0 131 -54t48 -153q0 -51 -17 -87.5t-54 -60.5q53 -7 140 -7zM603 342.5q-26 -24.5 -26 -71.5q0 -38 21 -61.5t78 -47.5q57 23 77.5 47t20.5 62q0 47 -26 71.5t-73 24.5q-46 0 -72 -24.5zM709.5 767.5
q14.5 -14.5 14.5 -34.5q0 -19 -14.5 -33.5t-34.5 -14.5q-19 0 -33.5 14.5t-14.5 33.5q0 20 14 34.5t34 14.5t34.5 -14.5zM651 656q15 -15 15 -36t-15.5 -36t-36.5 -15q-20 0 -35.5 15t-15.5 36q0 20 15.5 35.5t35.5 15.5q22 0 37 -15zM770 655.5q15 -15.5 15 -35.5
q0 -21 -15.5 -36t-35.5 -15q-21 0 -36 15t-15 36t15 36t36 15t36 -15.5z" />
    <glyph glyph-name="uniFB6C" unicode="&#x6a4;" horiz-adv-x="446" arabic-form="initial" 
d="M355 492q45 -69 45 -177v-63q0 -129 -64 -190.5t-199 -61.5h-137l-17 3v118l17 3h140q67 0 106 10.5t56.5 35t17.5 65.5v31q-30 -65 -127 -65q-77 0 -115.5 40.5t-38.5 117.5q0 57 22.5 103t63.5 72.5t95 26.5q90 0 135 -69zM319 328v3q0 44 -24.5 78.5t-80.5 34.5
q-43 0 -70 -23t-27 -59q0 -33 20.5 -46.5t72.5 -13.5q90 0 109 26zM253.5 842.5q14.5 -14.5 14.5 -34.5q0 -19 -14.5 -33.5t-34.5 -14.5q-19 0 -33.5 14.5t-14.5 33.5q0 20 14 34.5t34 14.5t34.5 -14.5zM195 731q15 -15 15 -36t-15.5 -36t-36.5 -15q-20 0 -35.5 15t-15.5 36
q0 20 15.5 35.5t35.5 15.5q22 0 37 -15zM314 730.5q15 -15.5 15 -35.5q0 -21 -15.5 -36t-35.5 -15q-21 0 -36 15t-15 36t15 36t36 15t36 -15.5z" />
    <glyph glyph-name="uniFB6D" unicode="&#x6a4;" horiz-adv-x="497" arabic-form="medial" 
d="M514 121v-118l-18 -3q-93 0 -152.5 14t-101.5 37q-85 -51 -241 -51l-18 3v118l18 3q87 0 139 7q-37 25 -53.5 61t-16.5 87q0 97 48 152t131 55t131 -54t48 -153q0 -51 -16.5 -87.5t-53.5 -61.5q56 -6 138 -6zM176.5 342.5q-26.5 -24.5 -26.5 -71.5q0 -39 21.5 -63
t78.5 -46q57 23 77.5 46.5t20.5 62.5q0 47 -26 71.5t-73 24.5q-46 0 -72.5 -24.5zM282.5 767.5q14.5 -14.5 14.5 -34.5q0 -19 -14.5 -33.5t-34.5 -14.5q-19 0 -33.5 14.5t-14.5 33.5q0 20 14 34.5t34 14.5t34.5 -14.5zM224 656q15 -15 15 -36t-15.5 -36t-36.5 -15
q-20 0 -35.5 15t-15.5 36q0 20 15.5 35.5t35.5 15.5q22 0 37 -15zM343 655.5q15 -15.5 15 -35.5q0 -21 -15.5 -36t-35.5 -15q-21 0 -36 15t-15 36t15 36t36 15t36 -15.5z" />
    <glyph glyph-name="uniFB7B" unicode="&#x686;" horiz-adv-x="689" arabic-form="final" 
d="M706 121v-118l-17 -3q-72 0 -111 19t-54.5 60t-17.5 113q-155 -52 -235 -88t-119 -77t-39 -100q0 -81 54.5 -118.5t173.5 -37.5q116 0 229 33q11 3 19 3q22 0 35.5 -14.5t13.5 -39.5q0 -19 -10.5 -33.5t-28.5 -23.5q-36 -16 -101.5 -32t-167.5 -16q-152 0 -226.5 70.5
t-74.5 201.5v9q0 88 46.5 149t142 107t258.5 93q-97 31 -157 46t-110 15q-46 0 -92 -22q-9 -4 -22 -4q-27 0 -41 27q-5 13 -5 23q0 30 25 49q53 43 137 43q45 0 87.5 -12t106.5 -36q52 -20 90 -32.5t80 -19.5q30 -5 44 -22.5t14 -43.5q0 -30 -14.5 -46.5t-50.5 -29.5l-9 -3
q4 -35 17 -53.5t39.5 -25.5t73.5 -7zM338 -37q-14 -14 -34 -14q-19 0 -33.5 14.5t-14.5 33.5t14.5 33t33.5 14t33.5 -14t14.5 -33q0 -20 -14 -34zM449 -37q-14 -14 -34 -14t-33.5 14t-13.5 34q0 19 14 33t33 14t33.5 -14t14.5 -33q0 -20 -14 -34zM329 -140.5
q-13 13.5 -13 31.5t13 31.5t31 13.5q19 0 32.5 -13.5t13.5 -31.5q0 -19 -13.5 -32t-32.5 -13q-18 0 -31 13.5z" />
    <glyph glyph-name="uniFB7C" unicode="&#x686;" horiz-adv-x="675" arabic-form="initial" 
d="M665 241q0 -26 -13 -41t-40 -26q-15 -6 -125 -51q-84 -36 -147 -59q-93 -36 -171 -50t-168 -14l-18 3v118l18 3q102 0 174.5 10t153.5 33q36 10 137 43l41 14q-40 14 -91 36q-68 28 -109.5 40t-91.5 12q-26 0 -47.5 -5.5t-47.5 -14.5q-11 -4 -22 -4q-30 0 -39 30
q-3 9 -3 17q0 27 31 51q22 15 56 27t73 12q53 0 95 -13t105 -42q56 -26 100 -42.5t101 -29.5q48 -10 48 -57zM377.5 -94q-14.5 -15 -35.5 -15q-20 0 -34.5 15t-14.5 35q0 19 14.5 33t34.5 14t35 -14t15 -33q0 -20 -14.5 -35zM491.5 -26q14.5 -14 14.5 -33q0 -20 -14.5 -35
t-34.5 -15q-21 0 -35 14.5t-14 35.5q0 19 14.5 33t34.5 14t34.5 -14zM433 -136.5q14 -13.5 14 -32.5t-13.5 -33t-32.5 -14t-32.5 14t-13.5 33t13.5 32.5t32.5 13.5q18 0 32 -13.5z" />
    <glyph glyph-name="uniFB7D" unicode="&#x686;" horiz-adv-x="727" arabic-form="medial" 
d="M744 121v-118l-17 -3q-67 0 -106.5 14.5t-59 45t-25.5 83.5l-50 -21q-101 -41 -146 -58q-93 -36 -171 -50t-168 -14l-18 3v118l18 3q102 0 174.5 10t153.5 33q36 10 137 43l41 14q-40 14 -91 36q-68 28 -109.5 40t-91.5 12q-26 0 -47.5 -5.5t-47.5 -14.5q-11 -4 -22 -4
q-30 0 -39 30q-3 9 -3 17q0 27 31 51q22 15 56 27t73 12q53 0 95 -13t105 -42q56 -26 100 -42.5t101 -29.5q48 -10 48 -57q0 -26 -13 -41t-40 -26l-13 -5q12 -26 41 -35.5t87 -9.5zM377.5 -94q-14.5 -15 -35.5 -15q-20 0 -34.5 15t-14.5 35q0 19 14.5 33t34.5 14t35 -14
t15 -33q0 -20 -14.5 -35zM491.5 -26q14.5 -14 14.5 -33q0 -20 -14.5 -35t-34.5 -15q-21 0 -35 14.5t-14 35.5q0 19 14.5 33t34.5 14t34.5 -14zM433 -136.5q14 -13.5 14 -32.5t-13.5 -33t-32.5 -14t-32.5 14t-13.5 33t13.5 32.5t32.5 13.5q18 0 32 -13.5z" />
    <glyph glyph-name="uniFB8B" unicode="&#x698;" horiz-adv-x="387" arabic-form="final" 
d="M404 121v-118l-17 -3q-72 0 -110 38q-9 -80 -40.5 -143.5t-81 -99.5t-109.5 -36q-55 0 -84 17q-31 20 -31 54q0 9 1 14q4 21 17.5 32t32.5 11q7 0 11 -1q18 -3 45 -3q43 0 77.5 26.5t53.5 74.5t19 112q0 57 -10 141q-1 4 -1 12q0 22 11.5 36.5t34.5 14.5q36 0 44 -47
l8 -61v0q5 -68 112 -68zM253.5 579.5q14.5 -14.5 14.5 -34.5q0 -19 -14.5 -33.5t-34.5 -14.5q-19 0 -33.5 14.5t-14.5 33.5q0 20 14 34.5t34 14.5t34.5 -14.5zM195 468q15 -15 15 -36t-15.5 -36t-36.5 -15q-20 0 -35.5 15t-15.5 36q0 20 15.5 35.5t35.5 15.5q22 0 37 -15z
M314 467.5q15 -15.5 15 -35.5q0 -21 -15.5 -36t-35.5 -15q-21 0 -36 15t-15 36t15 36t36 15t36 -15.5z" />
    <glyph glyph-name="uniFB8F" unicode="&#x6a9;" horiz-adv-x="877" arabic-form="final" 
d="M894 121v-118l-17 -3q-55 0 -93 11t-71.5 37t-74.5 74q-11 -60 -55 -91t-133 -31h-112q-119 0 -186 21t-95 67.5t-28 127.5q0 32 8 61q15 49 52 49q18 0 27 -12t9 -29q0 -9 -1 -13q-5 -25 -5 -47q0 -42 19.5 -63t68 -29.5t144.5 -8.5h97q77 0 106 12t32 41
q-67 91 -167 212q-14 18 -21.5 35t-7.5 37q0 28 15.5 44.5t48.5 36.5l309 186q19 11 35 11q15 0 27 -8.5t16 -24.5q3 -9 3 -17q0 -31 -36 -52l-313 -183l15 -19q88 -113 140 -173q50 -60 81 -88t63.5 -39t82.5 -11z" />
    <glyph glyph-name="uniFB90" unicode="&#x6a9;" horiz-adv-x="433" arabic-form="initial" 
d="M461 688q0 -27 -37 -50l-291 -179q135 -56 195 -115t60 -145q0 -98 -60 -148.5t-167 -50.5h-160l-18 3v118l18 3h163q58 0 100.5 13.5t42.5 50.5q0 32 -17 57t-62.5 52.5t-132.5 63.5q-44 16 -60.5 38t-16.5 51q0 26 11.5 43t35.5 33l314 200q20 12 37 12q14 0 25.5 -8.5
t15.5 -24.5q4 -12 4 -17z" />
    <glyph glyph-name="uniFB91" unicode="&#x6a9;" horiz-adv-x="544" arabic-form="medial" 
d="M561 121v-118l-17 -3q-55 0 -93.5 11t-72 36.5t-73.5 73.5q-11 -60 -55.5 -90.5t-133.5 -30.5h-115l-18 3v118l18 3h113q77 0 106 12t32 41q-38 50 -110 140l-57 72q-14 18 -21.5 35t-7.5 37q0 28 15.5 44.5t48.5 36.5l309 186q19 11 35 11q15 0 27 -8.5t16 -24.5
q3 -9 3 -17q0 -31 -36 -52l-312 -183l69 -86l85 -106q50 -60 81 -88t64 -39t83 -11z" />
    <glyph glyph-name="uniFB93" unicode="&#x6af;" horiz-adv-x="877" arabic-form="final" 
d="M894 121v-118l-17 -3q-55 0 -93 11t-71.5 37t-74.5 74q-11 -60 -55 -91t-133 -31h-112q-119 0 -186 21t-95 67.5t-28 127.5q0 32 8 61q15 49 52 49q18 0 27 -12t9 -29q0 -9 -1 -13q-5 -25 -5 -47q0 -42 19.5 -63t68 -29.5t144.5 -8.5h97q77 0 106 12t32 41
q-67 91 -167 212q-14 18 -21.5 35t-7.5 37q0 28 15.5 44.5t48.5 36.5l309 186q19 11 35 11q15 0 27 -8.5t16 -24.5q3 -9 3 -17q0 -31 -36 -52l-313 -183l15 -19q88 -113 140 -173q50 -60 81 -88t63.5 -39t82.5 -11zM346.5 629q-6.5 -8 -6.5 -19t8 -18t20 -7q10 0 21 6
l330 192q23 13 23 32q0 7 -2 11q-8 17 -24 17q-12 0 -23 -7l-326 -190q-14 -9 -20.5 -17z" />
    <glyph glyph-name="uniFB94" unicode="&#x6af;" horiz-adv-x="433" arabic-form="initial" 
d="M461 688q0 -27 -37 -50l-291 -179q135 -56 195 -115t60 -145q0 -98 -60 -148.5t-167 -50.5h-160l-18 3v118l18 3h163q58 0 100.5 13.5t42.5 50.5q0 32 -17 57t-62.5 52.5t-132.5 63.5q-44 16 -60.5 38t-16.5 51q0 26 11.5 43t35.5 33l314 200q20 12 37 12q14 0 25.5 -8.5
t15.5 -24.5q4 -12 4 -17zM-37 614q-6 -8 -6 -20q0 -10 7.5 -17t19.5 -7q11 0 22 7l325 200q14 9 20 17t6 20q0 11 -7 17.5t-18 6.5q-12 0 -24 -8l-325 -199q-14 -9 -20 -17z" />
    <glyph glyph-name="uniFB95" unicode="&#x6af;" horiz-adv-x="544" arabic-form="medial" 
d="M561 121v-118l-17 -3q-55 0 -93.5 11t-72 36.5t-73.5 73.5q-11 -60 -55.5 -90.5t-133.5 -30.5h-115l-18 3v118l18 3h113q77 0 106 12t32 41q-38 50 -110 140l-57 72q-14 18 -21.5 35t-7.5 37q0 28 15.5 44.5t48.5 36.5l309 186q19 11 35 11q15 0 27 -8.5t16 -24.5
q3 -9 3 -17q0 -31 -36 -52l-312 -183l69 -86l85 -106q50 -60 81 -88t64 -39t83 -11zM35.5 629q-6.5 -8 -6.5 -19t8 -18t20 -7q10 0 21 6l330 192q23 13 23 32q0 7 -2 11q-8 17 -24 17q-12 0 -23 -7l-326 -190q-14 -9 -20.5 -17z" />
    <glyph glyph-name="uniFB9F" unicode="&#x6ba;" horiz-adv-x="751" arabic-form="final" 
d="M768 121v-118l-17 -3q-77 0 -111 36q-9 -130 -85.5 -196t-227.5 -66q-157 0 -227.5 70t-70.5 223q0 92 29 166q7 17 19 26.5t28 9.5q7 0 11 -1q31 -7 31 -40q0 -9 -3 -20q-20 -62 -20 -134q0 -66 20.5 -104t66.5 -55t126 -17q78 0 123.5 18.5t65.5 57t20 101.5
q0 78 -8 168q-3 24 9 39t36 15q21 0 34 -12.5t15 -33.5l4 -44v1q4 -38 11.5 -54.5t30 -23t73.5 -6.5z" />
    <glyph glyph-name="uniFBE8" unicode="&#x649;" horiz-adv-x="261" arabic-form="initial" 
d="M-17 3v118l17 3q68 0 96 29.5t28 96.5q0 34 -9 99l-1 9q0 20 13 32t31 12q39 0 48 -47q9 -52 9 -105q0 -120 -56.5 -185t-158.5 -65z" />
    <glyph glyph-name="uniFBE9" unicode="&#x649;" horiz-adv-x="349" arabic-form="medial" 
d="M366 121v-118l-17 -3q-76 0 -119.5 22.5t-56.5 70.5q-14 -47 -56 -70t-117 -23l-17 3v118l17 3q51 0 78.5 10t40 35.5t12.5 74.5v54q0 23 12 37t33 14t32.5 -13.5t11.5 -36.5v-55q0 -49 12 -74.5t39.5 -35.5t77.5 -10z" />
    <glyph glyph-name="uniFBFD" unicode="&#x6cc;" horiz-adv-x="718" arabic-form="final" 
d="M735 121v-118l-17 -3h-59q14 -26 14 -63q0 -67 -39 -117t-112.5 -78t-174.5 -28q-163 0 -240 69t-78 217q0 88 35 158q19 37 49 37q6 0 10 -1q14 -5 22.5 -16t8.5 -26q0 -10 -4 -21q-26 -63 -26 -123q1 -64 23 -101t72.5 -53.5t137.5 -16.5q111 0 172.5 28t61.5 76
q0 31 -26.5 47t-81.5 22q-25 3 -40 19t-15 40q0 28 16.5 44.5t44.5 15.5q75 -5 189 -5h40z" />
    <glyph glyph-name="uniFBFE" unicode="&#x6cc;" horiz-adv-x="261" arabic-form="initial" 
d="M-17 3v118l17 3q68 0 96 29.5t28 96.5q0 34 -9 99l-1 9q0 20 13 32t31 12q39 0 48 -47q9 -52 9 -105q0 -120 -56.5 -185t-158.5 -65zM-15 -153.5q-14 14.5 -14 34.5q0 19 14 33t33 14q20 0 34.5 -14t14.5 -33q0 -20 -14.5 -34.5t-34.5 -14.5q-19 0 -33 14.5zM97 -153.5
q-14 14.5 -14 34.5q0 19 14 33t33 14q20 0 34.5 -14t14.5 -33q0 -20 -14.5 -34.5t-34.5 -14.5q-19 0 -33 14.5z" />
    <glyph glyph-name="uniFBFF" unicode="&#x6cc;" horiz-adv-x="349" arabic-form="medial" 
d="M366 121v-118l-17 -3q-76 0 -119.5 22.5t-56.5 70.5q-14 -47 -56 -70t-117 -23l-17 3v118l17 3q51 0 78.5 10t40 35.5t12.5 74.5v54q0 23 12 37t33 14t32.5 -13.5t11.5 -36.5v-55q0 -49 12 -74.5t39.5 -35.5t77.5 -10zM151 -88.5q15 -14.5 15 -34.5t-15 -35.5t-35 -15.5
t-35 15.5t-15 35.5t15 34.5t35 14.5t35 -14.5zM268 -88.5q15 -14.5 15 -34.5t-15 -35.5t-35 -15.5q-21 0 -35.5 15t-14.5 36q0 20 15 34.5t35 14.5t35 -14.5z" />
    <glyph glyph-name="uniFE82" unicode="&#x622;" horiz-adv-x="296" arabic-form="final" 
d="M174 261q0 -55 9.5 -83.5t35.5 -41t77 -12.5l17 -3v-118l-17 -3q-82 0 -130 25.5t-69.5 80t-21.5 145.5v394q0 22 13.5 36t35.5 14t36 -14t14 -36v-384zM55 782.5q-11 -3.5 -15 -4.5t-11 -1q-15 0 -22 10t-7 25q0 23 27 36q22 10 49 10q20 0 43 -7q4 -1 19.5 -4t32.5 -3
q11 0 34 5q4 1 11 1q15 0 23 -9.5t8 -23.5q0 -27 -27 -39q-17 -8 -49 -8q-20 0 -54 9q-25 7 -41 7q-10 0 -21 -3.5z" />
    <glyph glyph-name="uniFE84" unicode="&#x623;" horiz-adv-x="296" arabic-form="final" 
d="M174 261q0 -55 9.5 -83.5t35.5 -41t77 -12.5l17 -3v-118l-17 -3q-82 0 -130 25.5t-69.5 80t-21.5 145.5v394q0 22 13.5 36t35.5 14t36 -14t14 -36v-384zM210.5 826.5q8.5 -8.5 8.5 -22.5q0 -27 -26 -31q-31 -6 -112 -13l-31 -3q-19 -1 -29 8t-10 25q0 29 32 32l6 1
q-18 16 -18 42q0 43 27.5 67t67.5 24q24 0 43 -8q24 -12 24 -34q0 -14 -7 -22t-19 -8q-5 0 -8 1q-15 3 -31 3q-22 0 -34 -6t-12 -23q0 -16 8 -22t31 -6q14 0 38 2q20 2 27 2q16 0 24.5 -8.5z" />
    <glyph glyph-name="uniFE86" unicode="&#x624;" horiz-adv-x="498" arabic-form="final" 
d="M515 118v-115l-17 -3h-77q-21 -113 -87 -177.5t-167 -64.5q-67 0 -106 18q-21 9 -32.5 24.5t-11.5 35.5q0 25 14 40.5t35 15.5q4 0 14 -2q46 -12 80 -12q156 0 187 128h-125q-163 0 -163 165q0 60 23.5 109.5t66 78t99.5 28.5q90 0 135.5 -73t45.5 -185v-5h69z
M159.5 132.5q21.5 -13.5 76.5 -13.5h115v22q0 47 -25.5 87.5t-83.5 40.5q-47 0 -75.5 -25.5t-28.5 -64.5q0 -33 21.5 -46.5zM334.5 518.5q8.5 -8.5 8.5 -22.5q0 -27 -26 -31q-31 -6 -112 -13l-31 -3q-19 -1 -29 8t-10 25q0 29 32 32l6 1q-18 16 -18 42q0 43 27.5 67t67.5 24
q24 0 43 -8q24 -12 24 -34q0 -14 -7 -22t-19 -8q-5 0 -8 1q-15 3 -31 3q-22 0 -34 -6t-12 -23q0 -16 8 -22t31 -6q14 0 38 2q20 2 27 2q16 0 24.5 -8.5z" />
    <glyph glyph-name="uniFE88" unicode="&#x625;" horiz-adv-x="296" arabic-form="final" 
d="M174 261q0 -55 9.5 -83.5t35.5 -41t77 -12.5l17 -3v-118l-17 -3q-82 0 -130 25.5t-69.5 80t-21.5 145.5v437q0 22 13.5 36t35.5 14t36 -14t14 -36v-427zM238.5 -169.5q8.5 -8.5 8.5 -22.5q0 -27 -26 -31q-31 -6 -112 -13l-31 -3q-19 -1 -29 8t-10 25q0 29 32 32l6 1
q-18 16 -18 42q0 43 27.5 67t67.5 24q24 0 43 -8q24 -12 24 -34q0 -14 -7 -22t-19 -8q-5 0 -8 1q-15 3 -31 3q-22 0 -34 -6t-12 -23q0 -16 8 -22t31 -6q14 0 38 2q20 2 27 2q16 0 24.5 -8.5z" />
    <glyph glyph-name="uniFE8A" unicode="&#x626;" horiz-adv-x="718" arabic-form="final" 
d="M735 121v-118l-17 -3h-59q14 -26 14 -63q0 -67 -39 -117t-112.5 -78t-174.5 -28q-163 0 -240 69t-78 217q0 88 35 158q19 37 49 37q6 0 10 -1q14 -5 22.5 -16t8.5 -26q0 -10 -4 -21q-26 -63 -26 -123q1 -64 23 -101t72.5 -53.5t137.5 -16.5q111 0 172.5 28t61.5 76
q0 31 -26.5 47t-81.5 22q-25 3 -40 19t-15 40q0 28 16.5 44.5t44.5 15.5q75 -5 189 -5h40zM199.5 320.5q8.5 -8.5 8.5 -22.5q0 -27 -26 -31q-31 -6 -112 -13l-31 -3q-19 -1 -29 8t-10 25q0 29 32 32l6 1q-18 16 -18 42q0 43 27.5 67t67.5 24q24 0 43 -8q24 -12 24 -34
q0 -14 -7 -22t-19 -8q-5 0 -8 1q-15 3 -31 3q-22 0 -34 -6t-12 -23q0 -16 8 -22t31 -6q14 0 38 2q20 2 27 2q16 0 24.5 -8.5z" />
    <glyph glyph-name="uniFE8B" unicode="&#x626;" horiz-adv-x="261" arabic-form="initial" 
d="M-17 3v118l17 3q68 0 96 29.5t28 96.5q0 34 -9 99l-1 9q0 20 13 32t31 12q39 0 48 -47q9 -52 9 -105q0 -120 -56.5 -185t-158.5 -65zM239.5 533.5q8.5 -8.5 8.5 -22.5q0 -27 -26 -31q-31 -6 -112 -13l-31 -3q-19 -1 -29 8t-10 25q0 29 32 32l6 1q-18 16 -18 42
q0 43 27.5 67t67.5 24q24 0 43 -8q24 -12 24 -34q0 -14 -7 -22t-19 -8q-5 0 -8 1q-15 3 -31 3q-22 0 -34 -6t-12 -23q0 -16 8 -22t31 -6q14 0 38 2q20 2 27 2q16 0 24.5 -8.5z" />
    <glyph glyph-name="uniFE8C" unicode="&#x626;" horiz-adv-x="349" arabic-form="medial" 
d="M366 121v-118l-17 -3q-76 0 -119.5 22.5t-56.5 70.5q-14 -47 -56 -70t-117 -23l-17 3v118l17 3q51 0 78.5 10t40 35.5t12.5 74.5v54q0 23 12 37t33 14t32.5 -13.5t11.5 -36.5v-55q0 -49 12 -74.5t39.5 -35.5t77.5 -10zM262.5 480.5q8.5 -8.5 8.5 -22.5q0 -27 -26 -31
q-31 -6 -112 -13l-31 -3q-19 -1 -29 8t-10 25q0 29 32 32l6 1q-18 16 -18 42q0 43 27.5 67t67.5 24q24 0 43 -8q24 -12 24 -34q0 -14 -7 -22t-19 -8q-5 0 -8 1q-15 3 -31 3q-22 0 -34 -6t-12 -23q0 -16 8 -22t31 -6q14 0 38 2q20 2 27 2q16 0 24.5 -8.5z" />
    <glyph glyph-name="uniFE8E" unicode="&#x627;" horiz-adv-x="296" arabic-form="final" 
d="M174 261q0 -55 9.5 -83.5t35.5 -41t77 -12.5l17 -3v-118l-17 -3q-82 0 -130 25.5t-69.5 80t-21.5 145.5v437q0 22 13.5 36t35.5 14t36 -14t14 -36v-427z" />
    <glyph glyph-name="uniFE90" unicode="&#x628;" horiz-adv-x="939" arabic-form="final" 
d="M956 121v-118l-17 -3q-76 0 -119.5 26t-56.5 80q-33 -57 -115 -81.5t-233 -24.5q-148 0 -231 23.5t-119 75.5t-36 144q0 54 12 93q6 23 20.5 35.5t33.5 9.5q16 -2 24.5 -13.5t8.5 -28.5q0 -9 -1 -13q-8 -30 -8 -65q0 -57 25 -85.5t89 -40t189 -11.5t188 10.5t88 38
t25 82.5v43q0 23 12 37t33 14t32.5 -14t11.5 -36v-48q0 -52 12 -79t38.5 -37.5t76.5 -10.5zM376.5 -183.5q-16.5 16.5 -16.5 39.5t16.5 39.5t39.5 16.5t39.5 -16.5t16.5 -39.5t-16.5 -39.5t-39.5 -17.5q-23 1 -39.5 17.5z" />
    <glyph glyph-name="uniFE91" unicode="&#x628;" horiz-adv-x="261" arabic-form="initial" 
d="M-17 3v118l17 3q68 0 96 29.5t28 96.5q0 34 -9 99l-1 9q0 20 13 32t31 12q39 0 48 -47q9 -52 9 -105q0 -120 -56.5 -185t-158.5 -65zM35.5 -186.5q-16.5 16.5 -16.5 39.5t16.5 39.5t39.5 16.5t39.5 -16.5t16.5 -39.5t-16.5 -39.5t-39.5 -17.5q-23 1 -39.5 17.5z" />
    <glyph glyph-name="uniFE92" unicode="&#x628;" horiz-adv-x="349" arabic-form="medial" 
d="M366 121v-118l-17 -3q-76 0 -119.5 22.5t-56.5 70.5q-14 -47 -56 -70t-117 -23l-17 3v118l17 3q51 0 78.5 10t40 35.5t12.5 74.5v54q0 23 12 37t33 14t32.5 -13.5t11.5 -36.5v-55q0 -49 12 -74.5t39.5 -35.5t77.5 -10zM135.5 -185.5q-16.5 16.5 -16.5 39.5t16.5 39.5
t39.5 16.5t39.5 -16.5t16.5 -39.5t-16.5 -39.5t-39.5 -17.5q-23 1 -39.5 17.5z" />
    <glyph glyph-name="uniFE94" unicode="&#x629;" horiz-adv-x="513" arabic-form="final" 
d="M530 121v-118l-17 -3q-92 1 -140.5 42.5t-60.5 123.5q-24 -75 -128 -75q-82 0 -118.5 43t-36.5 122q0 55 26 96t86.5 74.5t165.5 62.5v22q0 22 12.5 34.5t34.5 12.5t34 -12.5t12 -34.5v-255q0 -55 9.5 -82.5t33 -38.5t70.5 -11zM307 240v146q-109 -31 -153.5 -56.5
t-44.5 -58.5q0 -29 24 -42.5t73 -13.5q78 0 101 25zM119 641.5q-15 15.5 -15 36.5t15 36t36 15t36.5 -15t15.5 -36t-15 -36.5t-37 -15.5q-21 0 -36 15.5zM240 641.5q-15 15.5 -15 36.5t15.5 36t35.5 15q21 0 37 -15t16 -36t-15.5 -36.5t-37.5 -15.5q-21 0 -36 15.5z" />
    <glyph glyph-name="uniFE96" unicode="&#x62a;" horiz-adv-x="939" arabic-form="final" 
d="M956 121v-118l-17 -3q-76 0 -119.5 26t-56.5 80q-33 -57 -115 -81.5t-233 -24.5q-148 0 -231 23.5t-119 75.5t-36 144q0 54 12 93q6 23 20.5 35.5t33.5 9.5q16 -2 24.5 -13.5t8.5 -28.5q0 -9 -1 -13q-8 -30 -8 -65q0 -57 25 -85.5t89 -40t189 -11.5t188 10.5t88 38
t25 82.5v43q0 23 12 37t33 14t32.5 -14t11.5 -36v-48q0 -52 12 -79t38.5 -37.5t76.5 -10.5zM328 411.5q-15 15.5 -15 36.5t15 36t36 15t36.5 -15t15.5 -36t-15 -36.5t-37 -15.5q-21 0 -36 15.5zM449 411.5q-15 15.5 -15 36.5t15.5 36t35.5 15q21 0 37 -15t16 -36
t-15.5 -36.5t-37.5 -15.5q-21 0 -36 15.5z" />
    <glyph glyph-name="uniFE97" unicode="&#x62a;" horiz-adv-x="261" arabic-form="initial" 
d="M-17 3v118l17 3q68 0 96 29.5t28 96.5q0 34 -9 99l-1 9q0 20 13 32t31 12q39 0 48 -47q9 -52 9 -105q0 -120 -56.5 -185t-158.5 -65zM54 500.5q-15 15.5 -15 36.5t15 36t36 15t36.5 -15t15.5 -36t-15 -36.5t-37 -15.5q-21 0 -36 15.5zM175 500.5q-15 15.5 -15 36.5
t15.5 36t35.5 15q21 0 37 -15t16 -36t-15.5 -36.5t-37.5 -15.5q-21 0 -36 15.5z" />
    <glyph glyph-name="uniFE98" unicode="&#x62a;" horiz-adv-x="349" arabic-form="medial" 
d="M366 121v-118l-17 -3q-76 0 -119.5 22.5t-56.5 70.5q-14 -47 -56 -70t-117 -23l-17 3v118l17 3q51 0 78.5 10t40 35.5t12.5 74.5v54q0 23 12 37t33 14t32.5 -13.5t11.5 -36.5v-55q0 -49 12 -74.5t39.5 -35.5t77.5 -10zM77 447.5q-15 15.5 -15 36.5t15 36t36 15t36.5 -15
t15.5 -36t-15 -36.5t-37 -15.5q-21 0 -36 15.5zM198 447.5q-15 15.5 -15 36.5t15.5 36t35.5 15q21 0 37 -15t16 -36t-15.5 -36.5t-37.5 -15.5q-21 0 -36 15.5z" />
    <glyph glyph-name="uniFE9A" unicode="&#x62b;" horiz-adv-x="939" arabic-form="final" 
d="M956 121v-118l-17 -3q-76 0 -119.5 26t-56.5 80q-33 -57 -115 -81.5t-233 -24.5q-148 0 -231 23.5t-119 75.5t-36 144q0 54 12 93q6 23 20.5 35.5t33.5 9.5q16 -2 24.5 -13.5t8.5 -28.5q0 -9 -1 -13q-8 -30 -8 -65q0 -57 25 -85.5t89 -40t189 -11.5t188 10.5t88 38
t25 82.5v43q0 23 12 37t33 14t32.5 -14t11.5 -36v-48q0 -52 12 -79t38.5 -37.5t76.5 -10.5zM460.5 594.5q14.5 -14.5 14.5 -34.5q0 -19 -14.5 -33.5t-34.5 -14.5q-19 0 -33.5 14.5t-14.5 33.5q0 20 14 34.5t34 14.5t34.5 -14.5zM402 483q15 -15 15 -36t-15.5 -36t-36.5 -15
q-20 0 -35.5 15t-15.5 36q0 20 15.5 35.5t35.5 15.5q22 0 37 -15zM521 482.5q15 -15.5 15 -35.5q0 -21 -15.5 -36t-35.5 -15q-21 0 -36 15t-15 36t15 36t36 15t36 -15.5z" />
    <glyph glyph-name="uniFE9B" unicode="&#x62b;" horiz-adv-x="261" arabic-form="initial" 
d="M-17 3v118l17 3q68 0 96 29.5t28 96.5q0 34 -9 99l-1 9q0 20 13 32t31 12q39 0 48 -47q9 -52 9 -105q0 -120 -56.5 -185t-158.5 -65zM186.5 683.5q14.5 -14.5 14.5 -34.5q0 -19 -14.5 -33.5t-34.5 -14.5q-19 0 -33.5 14.5t-14.5 33.5q0 20 14 34.5t34 14.5t34.5 -14.5z
M128 572q15 -15 15 -36t-15.5 -36t-36.5 -15q-20 0 -35.5 15t-15.5 36q0 20 15.5 35.5t35.5 15.5q22 0 37 -15zM247 571.5q15 -15.5 15 -35.5q0 -21 -15.5 -36t-35.5 -15q-21 0 -36 15t-15 36t15 36t36 15t36 -15.5z" />
    <glyph glyph-name="uniFE9C" unicode="&#x62b;" horiz-adv-x="349" arabic-form="medial" 
d="M366 121v-118l-17 -3q-76 0 -119.5 22.5t-56.5 70.5q-14 -47 -56 -70t-117 -23l-17 3v118l17 3q51 0 78.5 10t40 35.5t12.5 74.5v54q0 23 12 37t33 14t32.5 -13.5t11.5 -36.5v-55q0 -49 12 -74.5t39.5 -35.5t77.5 -10zM209.5 630.5q14.5 -14.5 14.5 -34.5
q0 -19 -14.5 -33.5t-34.5 -14.5q-19 0 -33.5 14.5t-14.5 33.5q0 20 14 34.5t34 14.5t34.5 -14.5zM151 519q15 -15 15 -36t-15.5 -36t-36.5 -15q-20 0 -35.5 15t-15.5 36q0 20 15.5 35.5t35.5 15.5q22 0 37 -15zM270 518.5q15 -15.5 15 -35.5q0 -21 -15.5 -36t-35.5 -15
q-21 0 -36 15t-15 36t15 36t36 15t36 -15.5z" />
    <glyph glyph-name="uniFE9E" unicode="&#x62c;" horiz-adv-x="689" arabic-form="final" 
d="M706 121v-118l-17 -3q-72 0 -111 19t-54.5 60t-17.5 113q-155 -52 -235 -88t-119 -77t-39 -100q0 -81 54.5 -118.5t173.5 -37.5q116 0 229 33q11 3 19 3q22 0 35.5 -14.5t13.5 -39.5q0 -19 -10.5 -33.5t-28.5 -23.5q-36 -16 -101.5 -32t-167.5 -16q-152 0 -226.5 70.5
t-74.5 201.5v9q0 88 46.5 149t142 107t258.5 93q-97 31 -157 46t-110 15q-46 0 -92 -22q-9 -4 -22 -4q-27 0 -41 27q-5 13 -5 23q0 30 25 49q53 43 137 43q45 0 87.5 -12t106.5 -36q52 -20 90 -32.5t80 -19.5q30 -5 44 -22.5t14 -43.5q0 -30 -14.5 -46.5t-50.5 -29.5l-9 -3
q4 -35 17 -53.5t39.5 -25.5t73.5 -7zM321.5 7.5q16.5 16.5 39.5 16.5t39.5 -16.5t16.5 -39.5t-16.5 -39.5t-39.5 -16.5t-39.5 16.5t-16.5 39.5t16.5 39.5z" />
    <glyph glyph-name="uniFE9F" unicode="&#x62c;" horiz-adv-x="675" arabic-form="initial" 
d="M665 241q0 -26 -13 -41t-40 -26q-15 -6 -125 -51q-84 -36 -147 -59q-93 -36 -171 -50t-168 -14l-18 3v118l18 3q102 0 174.5 10t153.5 33q36 10 137 43l41 14q-40 14 -91 36q-68 28 -109.5 40t-91.5 12q-26 0 -47.5 -5.5t-47.5 -14.5q-11 -4 -22 -4q-30 0 -39 30
q-3 9 -3 17q0 27 31 51q22 15 56 27t73 12q53 0 95 -13t105 -42q56 -26 100 -42.5t101 -29.5q48 -10 48 -57zM360.5 -116.5q-16.5 16.5 -16.5 39.5t16.5 39.5t39.5 16.5t39.5 -16.5t16.5 -39.5t-16.5 -39.5t-39.5 -17.5q-23 1 -39.5 17.5z" />
    <glyph glyph-name="uniFEA0" unicode="&#x62c;" horiz-adv-x="727" arabic-form="medial" 
d="M744 121v-118l-17 -3q-67 0 -106.5 14.5t-59 45t-25.5 83.5l-50 -21q-101 -41 -146 -58q-93 -36 -171 -50t-168 -14l-18 3v118l18 3q102 0 174.5 10t153.5 33q36 10 137 43l41 14q-40 14 -91 36q-68 28 -109.5 40t-91.5 12q-26 0 -47.5 -5.5t-47.5 -14.5q-11 -4 -22 -4
q-30 0 -39 30q-3 9 -3 17q0 27 31 51q22 15 56 27t73 12q53 0 95 -13t105 -42q56 -26 100 -42.5t101 -29.5q48 -10 48 -57q0 -26 -13 -41t-40 -26l-13 -5q12 -26 41 -35.5t87 -9.5zM439.5 -37.5q16.5 -16.5 16.5 -39.5t-16.5 -39.5t-39.5 -17.5q-23 1 -39.5 17.5t-16.5 39.5
t16.5 39.5t39.5 16.5t39.5 -16.5z" />
    <glyph glyph-name="uniFEA2" unicode="&#x62d;" horiz-adv-x="689" arabic-form="final" 
d="M706 121v-118l-17 -3q-72 0 -111 19t-54.5 60t-17.5 113q-155 -52 -235 -88t-119 -77t-39 -100q0 -81 54.5 -118.5t173.5 -37.5q116 0 229 33q11 3 19 3q22 0 35.5 -14.5t13.5 -39.5q0 -19 -10.5 -33.5t-28.5 -23.5q-36 -16 -101.5 -32t-167.5 -16q-152 0 -226.5 70.5
t-74.5 201.5v9q0 88 46.5 149t142 107t258.5 93q-97 31 -157 46t-110 15q-46 0 -92 -22q-9 -4 -22 -4q-27 0 -41 27q-5 13 -5 23q0 30 25 49q53 43 137 43q45 0 87.5 -12t106.5 -36q52 -20 90 -32.5t80 -19.5q30 -5 44 -22.5t14 -43.5q0 -30 -14.5 -46.5t-50.5 -29.5l-9 -3
q4 -35 17 -53.5t39.5 -25.5t73.5 -7z" />
    <glyph glyph-name="uniFEA3" unicode="&#x62d;" horiz-adv-x="675" arabic-form="initial" 
d="M665 241q0 -26 -13 -41t-40 -26q-15 -6 -125 -51q-84 -36 -147 -59q-93 -36 -171 -50t-168 -14l-18 3v118l18 3q102 0 174.5 10t153.5 33q36 10 137 43l41 14q-40 14 -91 36q-68 28 -109.5 40t-91.5 12q-26 0 -47.5 -5.5t-47.5 -14.5q-11 -4 -22 -4q-30 0 -39 30
q-3 9 -3 17q0 27 31 51q22 15 56 27t73 12q53 0 95 -13t105 -42q56 -26 100 -42.5t101 -29.5q48 -10 48 -57z" />
    <glyph glyph-name="uniFEA4" unicode="&#x62d;" horiz-adv-x="727" arabic-form="medial" 
d="M744 121v-118l-17 -3q-67 0 -106.5 14.5t-59 45t-25.5 83.5l-50 -21q-101 -41 -146 -58q-93 -36 -171 -50t-168 -14l-18 3v118l18 3q102 0 174.5 10t153.5 33q36 10 137 43l41 14q-40 14 -91 36q-68 28 -109.5 40t-91.5 12q-26 0 -47.5 -5.5t-47.5 -14.5q-11 -4 -22 -4
q-30 0 -39 30q-3 9 -3 17q0 27 31 51q22 15 56 27t73 12q53 0 95 -13t105 -42q56 -26 100 -42.5t101 -29.5q48 -10 48 -57q0 -26 -13 -41t-40 -26l-13 -5q12 -26 41 -35.5t87 -9.5z" />
    <glyph glyph-name="uniFEA6" unicode="&#x62e;" horiz-adv-x="689" arabic-form="final" 
d="M706 121v-118l-17 -3q-72 0 -111 19t-54.5 60t-17.5 113q-155 -52 -235 -88t-119 -77t-39 -100q0 -81 54.5 -118.5t173.5 -37.5q116 0 229 33q11 3 19 3q22 0 35.5 -14.5t13.5 -39.5q0 -19 -10.5 -33.5t-28.5 -23.5q-36 -16 -101.5 -32t-167.5 -16q-152 0 -226.5 70.5
t-74.5 201.5v9q0 88 46.5 149t142 107t258.5 93q-97 31 -157 46t-110 15q-46 0 -92 -22q-9 -4 -22 -4q-27 0 -41 27q-5 13 -5 23q0 30 25 49q53 43 137 43q45 0 87.5 -12t106.5 -36q52 -20 90 -32.5t80 -19.5q30 -5 44 -22.5t14 -43.5q0 -30 -14.5 -46.5t-50.5 -29.5l-9 -3
q4 -35 17 -53.5t39.5 -25.5t73.5 -7zM292.5 586q-16.5 17 -16.5 40t16.5 39.5t39.5 16.5t39.5 -16.5t16.5 -39.5t-16.5 -40t-39.5 -17t-39.5 17z" />
    <glyph glyph-name="uniFEA7" unicode="&#x62e;" horiz-adv-x="675" arabic-form="initial" 
d="M665 241q0 -26 -13 -41t-40 -26q-15 -6 -125 -51q-84 -36 -147 -59q-93 -36 -171 -50t-168 -14l-18 3v118l18 3q102 0 174.5 10t153.5 33q36 10 137 43l41 14q-40 14 -91 36q-68 28 -109.5 40t-91.5 12q-26 0 -47.5 -5.5t-47.5 -14.5q-11 -4 -22 -4q-30 0 -39 30
q-3 9 -3 17q0 27 31 51q22 15 56 27t73 12q53 0 95 -13t105 -42q56 -26 100 -42.5t101 -29.5q48 -10 48 -57zM285.5 532q-16.5 17 -16.5 40t16.5 39.5t39.5 16.5t39.5 -16.5t16.5 -39.5t-16.5 -40t-39.5 -17t-39.5 17z" />
    <glyph glyph-name="uniFEA8" unicode="&#x62e;" horiz-adv-x="727" arabic-form="medial" 
d="M744 121v-118l-17 -3q-67 0 -106.5 14.5t-59 45t-25.5 83.5l-50 -21q-101 -41 -146 -58q-93 -36 -171 -50t-168 -14l-18 3v118l18 3q102 0 174.5 10t153.5 33q36 10 137 43l41 14q-40 14 -91 36q-68 28 -109.5 40t-91.5 12q-26 0 -47.5 -5.5t-47.5 -14.5q-11 -4 -22 -4
q-30 0 -39 30q-3 9 -3 17q0 27 31 51q22 15 56 27t73 12q53 0 95 -13t105 -42q56 -26 100 -42.5t101 -29.5q48 -10 48 -57q0 -26 -13 -41t-40 -26l-13 -5q12 -26 41 -35.5t87 -9.5zM285.5 532q-16.5 17 -16.5 40t16.5 39.5t39.5 16.5t39.5 -16.5t16.5 -39.5t-16.5 -40
t-39.5 -17t-39.5 17z" />
    <glyph glyph-name="uniFEAA" unicode="&#x62f;" horiz-adv-x="563" arabic-form="final" 
d="M580 121v-118l-17 -3q-72 0 -112 22t-68 73q-18 -48 -62.5 -73.5t-123.5 -25.5q-45 0 -82 6.5t-59 16.5q-18 9 -28 24.5t-10 34.5q0 28 16 44t40 16q5 0 15 -2q58 -14 122 -14q113 0 138 51l-19 51l-81 227q-4 9 -4 20q0 21 14.5 35.5t35.5 14.5q18 0 31 -11.5t18 -29.5
l73 -209q23 -68 39 -97.5t39 -39.5t68 -10z" />
    <glyph glyph-name="uniFEAC" unicode="&#x630;" horiz-adv-x="563" arabic-form="final" 
d="M580 121v-118l-17 -3q-72 0 -112 22t-68 73q-18 -48 -62.5 -73.5t-123.5 -25.5q-45 0 -82 6.5t-59 16.5q-18 9 -28 24.5t-10 34.5q0 28 16 44t40 16q5 0 15 -2q58 -14 122 -14q113 0 138 51l-19 51l-81 227q-4 9 -4 20q0 21 14.5 35.5t35.5 14.5q18 0 31 -11.5t18 -29.5
l73 -209q23 -68 39 -97.5t39 -39.5t68 -10zM250.5 629q-16.5 17 -16.5 40t16.5 39.5t39.5 16.5t39.5 -16.5t16.5 -39.5t-16.5 -40t-39.5 -17t-39.5 17z" />
    <glyph glyph-name="uniFEAE" unicode="&#x631;" horiz-adv-x="387" arabic-form="final" 
d="M404 121v-118l-17 -3q-72 0 -110 38q-9 -80 -40.5 -143.5t-81 -99.5t-109.5 -36q-55 0 -84 17q-31 20 -31 54q0 9 1 14q4 21 17.5 32t32.5 11q7 0 11 -1q18 -3 45 -3q43 0 77.5 26.5t53.5 74.5t19 112q0 57 -10 141q-1 4 -1 12q0 22 11.5 36.5t34.5 14.5q36 0 44 -47
l8 -61v0q5 -68 112 -68z" />
    <glyph glyph-name="uniFEB0" unicode="&#x632;" horiz-adv-x="387" arabic-form="final" 
d="M404 121v-118l-17 -3q-72 0 -110 38q-9 -80 -40.5 -143.5t-81 -99.5t-109.5 -36q-55 0 -84 17q-31 20 -31 54q0 9 1 14q4 21 17.5 32t32.5 11q7 0 11 -1q18 -3 45 -3q43 0 77.5 26.5t53.5 74.5t19 112q0 57 -10 141q-1 4 -1 12q0 22 11.5 36.5t34.5 14.5q36 0 44 -47
l8 -61v0q5 -68 112 -68zM180.5 406q-16.5 17 -16.5 40t16.5 39.5t39.5 16.5t39.5 -16.5t16.5 -39.5t-16.5 -40t-39.5 -17t-39.5 17z" />
    <glyph glyph-name="uniFEB2" unicode="&#x633;" horiz-adv-x="1304" arabic-form="final" 
d="M1321 121v-118l-17 -3q-67 0 -109 18t-59 56q-15 -36 -48.5 -55t-81.5 -19q-105 0 -133 69q-32 -69 -141 -69q-68 0 -94 25q-11 -126 -87 -188.5t-224 -62.5q-157 0 -227.5 70t-70.5 223q0 51 9.5 95.5t21.5 74.5q7 17 19.5 27t28.5 10q7 0 11 -1q30 -9 30 -40
q0 -10 -3 -21q-22 -73 -22 -138q0 -66 20.5 -104t66.5 -55t126 -17q114 0 162 40t48 131q0 44 -5.5 87t-16.5 107q-3 24 10 41.5t37 17.5q38 0 46 -46q11 -61 15 -86q5 -27 15 -41t30.5 -19.5t57.5 -5.5q56 0 78.5 19.5t22.5 68.5v61q0 22 12.5 35.5t32.5 13.5q19 0 32 -14
t13 -35v-61q0 -50 17.5 -69t64.5 -19q44 0 62 19t18 68v62q0 22 12.5 35.5t32.5 13.5q18 0 31.5 -14t13.5 -35v-62q0 -48 26.5 -67.5t98.5 -19.5z" />
    <glyph glyph-name="uniFEB3" unicode="&#x633;" horiz-adv-x="807" arabic-form="initial" 
d="M762 205q0 -102 -46 -153.5t-127 -51.5q-106 0 -133 70q-34 -70 -144 -70q-114 0 -142 72q-17 -37 -59 -54.5t-110 -17.5l-18 3v118l18 3q54 0 81.5 7t38.5 25.5t11 54.5v62q0 22 12.5 35.5t32.5 13.5q19 0 32 -14t13 -35v-61q0 -49 21.5 -68.5t74.5 -19.5
q56 0 78.5 19.5t22.5 68.5v61q0 22 12.5 35.5t32.5 13.5q19 0 32 -14t13 -35v-61q0 -50 18 -69t64 -19q44 0 62 18t18 63q0 22 -6 51t-7 36q-1 4 -1 13q0 19 12 32t32 13q33 0 45 -40q16 -52 16 -105z" />
    <glyph glyph-name="uniFEB4" unicode="&#x633;" horiz-adv-x="886" arabic-form="medial" 
d="M903 121v-118l-17 -3q-67 0 -108.5 18t-59.5 56q-15 -36 -48 -55t-82 -19q-105 0 -132 70q-34 -70 -144 -70q-114 0 -142 72q-17 -37 -59 -54.5t-110 -17.5l-18 3v118l18 3q54 0 81.5 7t38.5 25.5t11 54.5v62q0 22 12.5 35.5t32.5 13.5q19 0 32 -14t13 -35v-61
q0 -49 21.5 -68.5t74.5 -19.5q56 0 78.5 19.5t22.5 68.5v61q0 22 12.5 35.5t32.5 13.5q19 0 32 -14t13 -35v-61q0 -50 18 -69t64 -19q45 0 62.5 19t17.5 68v62q0 22 12.5 35.5t32.5 13.5q19 0 32 -14t13 -35v-62q0 -48 27 -67.5t98 -19.5z" />
    <glyph glyph-name="uniFEB6" unicode="&#x634;" horiz-adv-x="1304" arabic-form="final" 
d="M1321 121v-118l-17 -3q-67 0 -109 18t-59 56q-15 -36 -48.5 -55t-81.5 -19q-105 0 -133 69q-32 -69 -141 -69q-68 0 -94 25q-11 -126 -87 -188.5t-224 -62.5q-157 0 -227.5 70t-70.5 223q0 51 9.5 95.5t21.5 74.5q7 17 19.5 27t28.5 10q7 0 11 -1q30 -9 30 -40
q0 -10 -3 -21q-22 -73 -22 -138q0 -66 20.5 -104t66.5 -55t126 -17q114 0 162 40t48 131q0 44 -5.5 87t-16.5 107q-3 24 10 41.5t37 17.5q38 0 46 -46q11 -61 15 -86q5 -27 15 -41t30.5 -19.5t57.5 -5.5q56 0 78.5 19.5t22.5 68.5v61q0 22 12.5 35.5t32.5 13.5q19 0 32 -14
t13 -35v-61q0 -50 17.5 -69t64.5 -19q44 0 62 19t18 68v62q0 22 12.5 35.5t32.5 13.5q18 0 31.5 -14t13.5 -35v-62q0 -48 26.5 -67.5t98.5 -19.5zM915.5 603.5q14.5 -14.5 14.5 -34.5q0 -19 -14.5 -33.5t-34.5 -14.5q-19 0 -33.5 14.5t-14.5 33.5q0 20 14 34.5t34 14.5
t34.5 -14.5zM857 492q15 -15 15 -36t-15.5 -36t-36.5 -15q-20 0 -35.5 15t-15.5 36q0 20 15.5 35.5t35.5 15.5q22 0 37 -15zM976 491.5q15 -15.5 15 -35.5q0 -21 -15.5 -36t-35.5 -15q-21 0 -36 15t-15 36t15 36t36 15t36 -15.5z" />
    <glyph glyph-name="uniFEB7" unicode="&#x634;" horiz-adv-x="807" arabic-form="initial" 
d="M762 205q0 -102 -46 -153.5t-127 -51.5q-106 0 -133 70q-34 -70 -144 -70q-114 0 -142 72q-17 -37 -59 -54.5t-110 -17.5l-18 3v118l18 3q54 0 81.5 7t38.5 25.5t11 54.5v62q0 22 12.5 35.5t32.5 13.5q19 0 32 -14t13 -35v-61q0 -49 21.5 -68.5t74.5 -19.5
q56 0 78.5 19.5t22.5 68.5v61q0 22 12.5 35.5t32.5 13.5q19 0 32 -14t13 -35v-61q0 -50 18 -69t64 -19q44 0 62 18t18 63q0 22 -6 51t-7 36q-1 4 -1 13q0 19 12 32t32 13q33 0 45 -40q16 -52 16 -105zM497.5 603.5q14.5 -14.5 14.5 -34.5q0 -19 -14.5 -33.5t-34.5 -14.5
q-19 0 -33.5 14.5t-14.5 33.5q0 20 14 34.5t34 14.5t34.5 -14.5zM439 492q15 -15 15 -36t-15.5 -36t-36.5 -15q-20 0 -35.5 15t-15.5 36q0 20 15.5 35.5t35.5 15.5q22 0 37 -15zM558 491.5q15 -15.5 15 -35.5q0 -21 -15.5 -36t-35.5 -15q-21 0 -36 15t-15 36t15 36t36 15
t36 -15.5z" />
    <glyph glyph-name="uniFEB8" unicode="&#x634;" horiz-adv-x="886" arabic-form="medial" 
d="M903 121v-118l-17 -3q-67 0 -108.5 18t-59.5 56q-15 -36 -48 -55t-82 -19q-105 0 -132 70q-34 -70 -144 -70q-114 0 -142 72q-17 -37 -59 -54.5t-110 -17.5l-18 3v118l18 3q54 0 81.5 7t38.5 25.5t11 54.5v62q0 22 12.5 35.5t32.5 13.5q19 0 32 -14t13 -35v-61
q0 -49 21.5 -68.5t74.5 -19.5q56 0 78.5 19.5t22.5 68.5v61q0 22 12.5 35.5t32.5 13.5q19 0 32 -14t13 -35v-61q0 -50 18 -69t64 -19q45 0 62.5 19t17.5 68v62q0 22 12.5 35.5t32.5 13.5q19 0 32 -14t13 -35v-62q0 -48 27 -67.5t98 -19.5zM496.5 598.5
q14.5 -14.5 14.5 -34.5q0 -19 -14.5 -33.5t-34.5 -14.5q-19 0 -33.5 14.5t-14.5 33.5q0 20 14 34.5t34 14.5t34.5 -14.5zM438 487q15 -15 15 -36t-15.5 -36t-36.5 -15q-20 0 -35.5 15t-15.5 36q0 20 15.5 35.5t35.5 15.5q22 0 37 -15zM557 486.5q15 -15.5 15 -35.5
q0 -21 -15.5 -36t-35.5 -15q-21 0 -36 15t-15 36t15 36t36 15t36 -15.5z" />
    <glyph glyph-name="uniFEBA" unicode="&#x635;" horiz-adv-x="1355" arabic-form="final" 
d="M1372 121v-118l-17 -3q-65 0 -99 13.5t-47 40.5q-61 -54 -189 -54h-266q-83 0 -115 34q-10 -130 -85.5 -195t-226.5 -65q-157 0 -227.5 70t-70.5 223q0 51 9.5 95.5t21.5 74.5q7 17 19.5 27t28.5 10q7 0 11 -1q30 -9 30 -40q0 -10 -3 -21q-22 -73 -22 -138
q0 -66 20.5 -104t66.5 -55t126 -17q114 0 162 40t48 131q0 45 -5 89.5t-16 104.5l-1 9q0 21 12.5 35.5t34.5 14.5q38 0 47 -45q8 -42 10 -57l5 -30q4 -24 12.5 -37t26.5 -20q73 120 133.5 190t120 102t126.5 32q63 0 112 -31.5t76 -88t27 -130.5q0 -35 -8 -67q28 -16 95 -16
zM1122 131.5q33 7.5 47.5 25t14.5 48.5q0 57 -38 95t-99 38q-79 0 -149 -52t-141 -162h274q58 0 91 7.5z" />
    <glyph glyph-name="uniFEBB" unicode="&#x635;" horiz-adv-x="914" arabic-form="initial" 
d="M765 425.5q49 -31.5 76 -88t27 -130.5q0 -104 -61.5 -155.5t-186.5 -51.5h-304q-119 0 -150 72q-32 -72 -165 -72l-18 3v118l18 3q52 0 78.5 7.5t37.5 25.5t11 54v62q0 21 13 35t32 14t32 -14t13 -34v-61q0 -41 10.5 -60t40.5 -26q74 122 135.5 194t121 104t127.5 32
q63 0 112 -31.5zM722 131.5q33 7.5 47.5 25t14.5 48.5q0 57 -38.5 95t-99.5 38q-79 0 -148.5 -52t-140.5 -162h273q59 0 92 7.5z" />
    <glyph glyph-name="uniFEBC" unicode="&#x635;" horiz-adv-x="953" arabic-form="medial" 
d="M970 121v-118l-17 -3q-64 0 -97.5 13.5t-47.5 39.5q-60 -53 -188 -53h-304q-119 0 -150 72q-32 -72 -165 -72l-18 3v118l18 3q52 0 78.5 7.5t37.5 25.5t11 54v62q0 21 13 35t32 14t32 -14t13 -34v-61q0 -41 10.5 -60t40.5 -26q74 122 135.5 194t121 104t127.5 32
q63 0 112 -31.5t76 -88t27 -130.5q0 -34 -8 -68q27 -15 93 -15zM722 131.5q33 7.5 47.5 25t14.5 48.5q0 57 -38.5 95t-99.5 38q-79 0 -148.5 -52t-140.5 -162h273q59 0 92 7.5z" />
    <glyph glyph-name="uniFEBE" unicode="&#x636;" horiz-adv-x="1355" arabic-form="final" 
d="M1372 121v-118l-17 -3q-65 0 -99 13.5t-47 40.5q-61 -54 -189 -54h-266q-83 0 -115 34q-10 -130 -85.5 -195t-226.5 -65q-157 0 -227.5 70t-70.5 223q0 51 9.5 95.5t21.5 74.5q7 17 19.5 27t28.5 10q7 0 11 -1q30 -9 30 -40q0 -10 -3 -21q-22 -73 -22 -138
q0 -66 20.5 -104t66.5 -55t126 -17q114 0 162 40t48 131q0 45 -5 89.5t-16 104.5l-1 9q0 21 12.5 35.5t34.5 14.5q38 0 47 -45q8 -42 10 -57l5 -30q4 -24 12.5 -37t26.5 -20q73 120 133.5 190t120 102t126.5 32q63 0 112 -31.5t76 -88t27 -130.5q0 -35 -8 -67q28 -16 95 -16
zM1122 131.5q33 7.5 47.5 25t14.5 48.5q0 57 -38 95t-99 38q-79 0 -149 -52t-141 -162h274q58 0 91 7.5zM1013.5 573q-16.5 17 -16.5 40t16.5 39.5t39.5 16.5t39.5 -16.5t16.5 -39.5t-16.5 -40t-39.5 -17t-39.5 17z" />
    <glyph glyph-name="uniFEBF" unicode="&#x636;" horiz-adv-x="914" arabic-form="initial" 
d="M765 425.5q49 -31.5 76 -88t27 -130.5q0 -104 -61.5 -155.5t-186.5 -51.5h-304q-119 0 -150 72q-32 -72 -165 -72l-18 3v118l18 3q52 0 78.5 7.5t37.5 25.5t11 54v62q0 21 13 35t32 14t32 -14t13 -34v-61q0 -41 10.5 -60t40.5 -26q74 122 135.5 194t121 104t127.5 32
q63 0 112 -31.5zM722 131.5q33 7.5 47.5 25t14.5 48.5q0 57 -38.5 95t-99.5 38q-79 0 -148.5 -52t-140.5 -162h273q59 0 92 7.5zM613.5 565q-16.5 17 -16.5 40t16.5 39.5t39.5 16.5t39.5 -16.5t16.5 -39.5t-16.5 -40t-39.5 -17t-39.5 17z" />
    <glyph glyph-name="uniFEC0" unicode="&#x636;" horiz-adv-x="953" arabic-form="medial" 
d="M970 121v-118l-17 -3q-64 0 -97.5 13.5t-47.5 39.5q-60 -53 -188 -53h-304q-119 0 -150 72q-32 -72 -165 -72l-18 3v118l18 3q52 0 78.5 7.5t37.5 25.5t11 54v62q0 21 13 35t32 14t32 -14t13 -34v-61q0 -41 10.5 -60t40.5 -26q74 122 135.5 194t121 104t127.5 32
q63 0 112 -31.5t76 -88t27 -130.5q0 -34 -8 -68q27 -15 93 -15zM722 131.5q33 7.5 47.5 25t14.5 48.5q0 57 -38.5 95t-99.5 38q-79 0 -148.5 -52t-140.5 -162h273q59 0 92 7.5zM613.5 565q-16.5 17 -16.5 40t16.5 39.5t39.5 16.5t39.5 -16.5t16.5 -39.5t-16.5 -40t-39.5 -17
t-39.5 17z" />
    <glyph glyph-name="uniFEC2" unicode="&#x637;" horiz-adv-x="779" arabic-form="final" 
d="M796 121v-118l-17 -3q-58 0 -91 11t-48 32q-59 -43 -180 -43h-196q-162 0 -222 23q-40 18 -40 55q0 7 1 11q3 21 18.5 35t35.5 14q7 0 11 -1q15 -3 45 -7q22 38 41 67v491q0 22 14 36t36 14t36.5 -14t14.5 -36v-272q0 -54 -32 -118q66 85 128 122t137 37
q103 0 161.5 -67.5t58.5 -182.5q0 -39 -8 -74q29 -9 79 -9zM586 140q38 16 38 65q0 57 -37.5 95t-100.5 38q-58 0 -104.5 -20.5t-90 -66.5t-94.5 -126q21 -1 71 -1h203q77 0 115 16z" />
    <glyph glyph-name="uniFEC3" unicode="&#x637;" horiz-adv-x="691" arabic-form="initial" 
d="M586.5 389.5q58.5 -67.5 58.5 -181.5q0 -108 -59 -158t-189 -50h-397l-17 4v117l17 3h44l21 34q20 33 26 42v488q0 22 14 36t36 14t36 -14t14 -36v-272q0 -53 -30 -115q65 84 127 120t137 36q103 0 161.5 -67.5zM523 140q38 16 38 65q0 57 -37.5 95t-100.5 38
q-59 0 -105 -21t-90 -67t-94 -126h274q77 0 115 16z" />
    <glyph glyph-name="uniFEC4" unicode="&#x637;" horiz-adv-x="716" arabic-form="medial" 
d="M733 121v-118l-17 -3q-58 0 -91 11t-48 32q-59 -43 -180 -43h-397l-17 4v117l17 3h44l21 34q20 33 26 42v488q0 22 14 36t36 14t36 -14t14 -36v-272q0 -53 -30 -115q65 84 127 120t137 36q103 0 161.5 -67.5t58.5 -181.5q0 -42 -9 -75q31 -9 80 -9zM523 140q38 16 38 65
q0 57 -37.5 95t-100.5 38q-59 0 -105 -21t-90 -67t-94 -126h274q77 0 115 16z" />
    <glyph glyph-name="uniFEC6" unicode="&#x638;" horiz-adv-x="779" arabic-form="final" 
d="M796 121v-118l-17 -3q-58 0 -91 11t-48 32q-59 -43 -180 -43h-196q-162 0 -222 23q-40 18 -40 55q0 7 1 11q3 21 18.5 35t35.5 14q7 0 11 -1q15 -3 45 -7q22 38 41 67v491q0 22 14 36t36 14t36.5 -14t14.5 -36v-272q0 -54 -32 -118q66 85 128 122t137 37
q103 0 161.5 -67.5t58.5 -182.5q0 -39 -8 -74q29 -9 79 -9zM586 140q38 16 38 65q0 57 -37.5 95t-100.5 38q-58 0 -104.5 -20.5t-90 -66.5t-94.5 -126q21 -1 71 -1h203q77 0 115 16zM448.5 573q-16.5 17 -16.5 40t16.5 39.5t39.5 16.5t39.5 -16.5t16.5 -39.5t-16.5 -40
t-39.5 -17t-39.5 17z" />
    <glyph glyph-name="uniFEC7" unicode="&#x638;" horiz-adv-x="691" arabic-form="initial" 
d="M586.5 389.5q58.5 -67.5 58.5 -181.5q0 -108 -59 -158t-189 -50h-397l-17 4v117l17 3h44l21 34q20 33 26 42v488q0 22 14 36t36 14t36 -14t14 -36v-272q0 -53 -30 -115q65 84 127 120t137 36q103 0 161.5 -67.5zM523 140q38 16 38 65q0 57 -37.5 95t-100.5 38
q-59 0 -105 -21t-90 -67t-94 -126h274q77 0 115 16zM385.5 565q-16.5 17 -16.5 40t16.5 39.5t39.5 16.5t39.5 -16.5t16.5 -39.5t-16.5 -40t-39.5 -17t-39.5 17z" />
    <glyph glyph-name="uniFEC8" unicode="&#x638;" horiz-adv-x="716" arabic-form="medial" 
d="M733 121v-118l-17 -3q-58 0 -91 11t-48 32q-59 -43 -180 -43h-397l-17 4v117l17 3h44l21 34q20 33 26 42v488q0 22 14 36t36 14t36 -14t14 -36v-272q0 -53 -30 -115q65 84 127 120t137 36q103 0 161.5 -67.5t58.5 -181.5q0 -42 -9 -75q31 -9 80 -9zM523 140q38 16 38 65
q0 57 -37.5 95t-100.5 38q-59 0 -105 -21t-90 -67t-94 -126h274q77 0 115 16zM385.5 565q-16.5 17 -16.5 40t16.5 39.5t39.5 16.5t39.5 -16.5t16.5 -39.5t-16.5 -40t-39.5 -17t-39.5 17z" />
    <glyph glyph-name="uniFECA" unicode="&#x639;" horiz-adv-x="587" arabic-form="final" 
d="M604 121v-118l-17 -3h-21q-71 0 -114.5 4.5t-81 20t-72.5 46.5q-101 -49 -144 -88.5t-43 -91.5q0 -57 47 -88t163 -31q96 0 199 24q8 2 13 2q21 0 35.5 -15.5t14.5 -41.5q0 -19 -11 -34t-30 -23q-36 -15 -94.5 -25t-136.5 -10q-138 0 -210 58.5t-72 170.5q0 92 48 149
t149 110q-67 69 -108 124q-28 37 -28 80q0 16 3 35q6 32 26.5 53.5t53.5 30.5q63 17 158 17q99 0 145 -38t46 -119q0 -60 -29 -103.5t-100 -85.5q21 -4 58.5 -5.5t111.5 -1.5h24zM227.5 354.5q-39.5 -5.5 -60.5 -15.5q34 -40 82.5 -91t72.5 -72q64 32 92 61t28 62t-27.5 47
t-96.5 14q-51 0 -90.5 -5.5z" />
    <glyph glyph-name="uniFECB" unicode="&#x639;" horiz-adv-x="523" arabic-form="initial" 
d="M441 28q-85 -17 -187 -22.5t-254 -5.5l-17 3v118l17 3q69 0 96 1q-28 46 -28 116q0 109 57 167t159 58q34 0 63.5 -8.5t48.5 -23.5q35 -20 35 -51q0 -24 -12.5 -37t-32.5 -13q-6 0 -16 2q-56 14 -86 14q-62 0 -98 -29t-36 -82q0 -111 144 -111q29 0 111 14q18 4 27 5
q4 1 10 1q23 0 38 -16t15 -41q0 -50 -54 -62z" />
    <glyph glyph-name="uniFECC" unicode="&#x639;" horiz-adv-x="553" arabic-form="medial" 
d="M570 121v-118l-17 -3h-21q-106 0 -160 10t-102 46q-51 -32 -112.5 -44t-142.5 -12h-15l-17 3v118l17 3h23q109 0 162 7q-52 54 -97 114q-31 42 -31 86q0 15 3 33q12 62 83 81q62 17 154 17q98 0 144.5 -38t46.5 -119q0 -56 -25.5 -97t-87.5 -81q32 -3 154 -3h24z
M198.5 339.5q-37.5 -5.5 -59.5 -14.5q35 -43 80 -93t68 -70q64 31 92.5 60t28.5 62t-27.5 47t-96.5 14q-48 0 -85.5 -5.5z" />
    <glyph glyph-name="uniFECE" unicode="&#x63a;" horiz-adv-x="587" arabic-form="final" 
d="M604 121v-118l-17 -3h-21q-71 0 -114.5 4.5t-81 20t-72.5 46.5q-101 -49 -144 -88.5t-43 -91.5q0 -57 47 -88t163 -31q96 0 199 24q8 2 13 2q21 0 35.5 -15.5t14.5 -41.5q0 -19 -11 -34t-30 -23q-36 -15 -94.5 -25t-136.5 -10q-138 0 -210 58.5t-72 170.5q0 92 48 149
t149 110q-67 69 -108 124q-28 37 -28 80q0 16 3 35q6 32 26.5 53.5t53.5 30.5q63 17 158 17q99 0 145 -38t46 -119q0 -60 -29 -103.5t-100 -85.5q21 -4 58.5 -5.5t111.5 -1.5h24zM227.5 354.5q-39.5 -5.5 -60.5 -15.5q34 -40 82.5 -91t72.5 -72q64 32 92 61t28 62t-27.5 47
t-96.5 14q-51 0 -90.5 -5.5zM274.5 585q-16.5 17 -16.5 40t16.5 39.5t39.5 16.5t39.5 -16.5t16.5 -39.5t-16.5 -40t-39.5 -17t-39.5 17z" />
    <glyph glyph-name="uniFECF" unicode="&#x63a;" horiz-adv-x="523" arabic-form="initial" 
d="M441 28q-85 -17 -187 -22.5t-254 -5.5l-17 3v118l17 3q69 0 96 1q-28 46 -28 116q0 109 57 167t159 58q34 0 63.5 -8.5t48.5 -23.5q35 -20 35 -51q0 -24 -12.5 -37t-32.5 -13q-6 0 -16 2q-56 14 -86 14q-62 0 -98 -29t-36 -82q0 -111 144 -111q29 0 111 14q18 4 27 5
q4 1 10 1q23 0 38 -16t15 -41q0 -50 -54 -62zM231.5 574q-16.5 17 -16.5 40t16.5 39.5t39.5 16.5t39.5 -16.5t16.5 -39.5t-16.5 -40t-39.5 -17t-39.5 17z" />
    <glyph glyph-name="uniFED0" unicode="&#x63a;" horiz-adv-x="553" arabic-form="medial" 
d="M570 121v-118l-17 -3h-21q-106 0 -160 10t-102 46q-51 -32 -112.5 -44t-142.5 -12h-15l-17 3v118l17 3h23q109 0 162 7q-52 54 -97 114q-31 42 -31 86q0 15 3 33q12 62 83 81q62 17 154 17q98 0 144.5 -38t46.5 -119q0 -56 -25.5 -97t-87.5 -81q32 -3 154 -3h24z
M198.5 339.5q-37.5 -5.5 -59.5 -14.5q35 -43 80 -93t68 -70q64 31 92.5 60t28.5 62t-27.5 47t-96.5 14q-48 0 -85.5 -5.5zM243.5 571q-16.5 17 -16.5 40t16.5 39.5t39.5 16.5t39.5 -16.5t16.5 -39.5t-16.5 -40t-39.5 -17t-39.5 17z" />
    <glyph glyph-name="uniFED2" unicode="&#x641;" horiz-adv-x="923" arabic-form="final" 
d="M940 121v-118l-17 -3q-161 0 -251 49q-58 -29 -135.5 -39t-180.5 -10q-121 0 -192 24.5t-103 80t-32 150.5q0 61 14 105q6 21 18.5 33.5t29.5 12.5q20 0 30.5 -11.5t10.5 -29.5q0 -12 -2 -18q-10 -42 -10 -73q0 -57 23.5 -89.5t76 -46.5t143.5 -14q140 0 207 5
q-39 25 -56.5 61.5t-17.5 88.5q0 97 48.5 152t130.5 55q83 0 131 -54t48 -153q0 -51 -17 -87.5t-54 -60.5q53 -7 140 -7zM603 342.5q-26 -24.5 -26 -71.5q0 -38 21 -61.5t78 -47.5q57 23 77.5 47t20.5 62q0 47 -26 71.5t-73 24.5q-46 0 -72 -24.5zM636.5 594
q-16.5 17 -16.5 40t16.5 39.5t39.5 16.5t39.5 -16.5t16.5 -39.5t-16.5 -40t-39.5 -17t-39.5 17z" />
    <glyph glyph-name="uniFED3" unicode="&#x641;" horiz-adv-x="446" arabic-form="initial" 
d="M355 492q45 -69 45 -177v-63q0 -129 -64 -190.5t-199 -61.5h-137l-17 3v118l17 3h140q67 0 106 10.5t56.5 35t17.5 65.5v31q-30 -65 -127 -65q-77 0 -115.5 40.5t-38.5 117.5q0 57 22.5 103t63.5 72.5t95 26.5q90 0 135 -69zM319 328v3q0 44 -24.5 78.5t-80.5 34.5
q-43 0 -70 -23t-27 -59q0 -33 20.5 -46.5t72.5 -13.5q90 0 109 26zM180.5 669q-16.5 17 -16.5 40t16.5 39.5t39.5 16.5t39.5 -16.5t16.5 -39.5t-16.5 -40t-39.5 -17t-39.5 17z" />
    <glyph glyph-name="uniFED4" unicode="&#x641;" horiz-adv-x="497" arabic-form="medial" 
d="M514 121v-118l-18 -3q-93 0 -152.5 14t-101.5 37q-85 -51 -241 -51l-18 3v118l18 3q87 0 139 7q-37 25 -53.5 61t-16.5 87q0 97 48 152t131 55t131 -54t48 -153q0 -51 -16.5 -87.5t-53.5 -61.5q56 -6 138 -6zM176.5 342.5q-26.5 -24.5 -26.5 -71.5q0 -39 21.5 -63
t78.5 -46q57 23 77.5 46.5t20.5 62.5q0 47 -26 71.5t-73 24.5q-46 0 -72.5 -24.5zM209.5 594q-16.5 17 -16.5 40t16.5 39.5t39.5 16.5t39.5 -16.5t16.5 -39.5t-16.5 -40t-39.5 -17t-39.5 17z" />
    <glyph glyph-name="uniFED6" unicode="&#x642;" horiz-adv-x="780" arabic-form="final" 
d="M797 118v-115l-17 -3h-73q-11 -82 -49.5 -132.5t-111.5 -74t-189 -23.5q-119 0 -190.5 31t-104.5 96t-33 170q0 92 29 166q7 17 19 26.5t28 9.5q7 0 11 -1q31 -7 31 -40q0 -9 -3 -20q-20 -62 -20 -134q0 -66 23 -105t76 -57.5t144 -18.5q94 0 150 11t83 35t32 65h-128
q-163 0 -163 163q0 61 23.5 111t66 78.5t99.5 28.5q89 0 135 -72.5t46 -182.5v-6h69zM441.5 130q21.5 -12 76.5 -12h115v23q0 46 -25.5 86t-83.5 40q-46 0 -75 -26.5t-29 -67.5q0 -31 21.5 -43zM431 483.5q-15 15.5 -15 36.5t15 36t36 15t36.5 -15t15.5 -36t-15 -36.5
t-37 -15.5q-21 0 -36 15.5zM552 483.5q-15 15.5 -15 36.5t15.5 36t35.5 15q21 0 37 -15t16 -36t-15.5 -36.5t-37.5 -15.5q-21 0 -36 15.5z" />
    <glyph glyph-name="uniFED7" unicode="&#x642;" horiz-adv-x="446" arabic-form="initial" 
d="M355 492q45 -69 45 -177v-63q0 -129 -64 -190.5t-199 -61.5h-137l-17 3v118l17 3h140q67 0 106 10.5t56.5 35t17.5 65.5v31q-30 -65 -127 -65q-77 0 -115.5 40.5t-38.5 117.5q0 57 22.5 103t63.5 72.5t95 26.5q90 0 135 -69zM319 328v3q0 44 -24.5 78.5t-80.5 34.5
q-43 0 -70 -23t-27 -59q0 -33 20.5 -46.5t72.5 -13.5q90 0 109 26zM121 659.5q-15 15.5 -15 36.5t15 36t36 15t36.5 -15t15.5 -36t-15 -36.5t-37 -15.5q-21 0 -36 15.5zM242 659.5q-15 15.5 -15 36.5t15.5 36t35.5 15q21 0 37 -15t16 -36t-15.5 -36.5t-37.5 -15.5
q-21 0 -36 15.5z" />
    <glyph glyph-name="uniFED8" unicode="&#x642;" horiz-adv-x="497" arabic-form="medial" 
d="M514 121v-118l-18 -3q-93 0 -152.5 14t-101.5 37q-85 -51 -241 -51l-18 3v118l18 3q87 0 139 7q-37 25 -53.5 61t-16.5 87q0 97 48 152t131 55t131 -54t48 -153q0 -51 -16.5 -87.5t-53.5 -61.5q56 -6 138 -6zM176.5 342.5q-26.5 -24.5 -26.5 -71.5q0 -39 21.5 -63
t78.5 -46q57 23 77.5 46.5t20.5 62.5q0 47 -26 71.5t-73 24.5q-46 0 -72.5 -24.5zM150 584.5q-15 15.5 -15 36.5t15 36t36 15t36.5 -15t15.5 -36t-15 -36.5t-37 -15.5q-21 0 -36 15.5zM271 584.5q-15 15.5 -15 36.5t15.5 36t35.5 15q21 0 37 -15t16 -36t-15.5 -36.5
t-37.5 -15.5q-21 0 -36 15.5z" />
    <glyph glyph-name="uniFEDA" unicode="&#x643;" horiz-adv-x="891" arabic-form="final" 
d="M908 121v-118l-17 -3q-135 0 -164 90q-39 -48 -122.5 -69t-230.5 -21q-132 0 -206.5 23.5t-106.5 75t-32 141.5q0 50 11 90q5 21 17.5 33t30.5 12q19 0 29 -11.5t10 -28.5q0 -7 -1 -11q-8 -38 -8 -65q0 -56 22 -84t77.5 -39.5t163.5 -11.5q117 0 177 7t84 24.5t24 51.5
v471q0 28 13.5 44t36.5 16t36.5 -16t13.5 -43v-447v-7q4 -59 32 -80t93 -21zM287.5 309.5q-8.5 10.5 -8.5 25.5q0 19 9.5 29t26.5 10l9 -1q28 -2 49 -2q49 0 70 4.5t21 14.5q0 8 -15.5 14.5t-54.5 15.5q-37 9 -52.5 26.5t-15.5 48.5q0 39 29 67t98 49q16 4 21 4
q14 0 23 -8.5t9 -23.5q0 -33 -38 -43q-49 -15 -67.5 -23.5t-18.5 -16.5q0 -6 11.5 -10t29.5 -8.5t25 -6.5q40 -11 56 -29.5t16 -54.5q0 -49 -35 -74.5t-113 -25.5q-40 0 -59 5q-17 3 -25.5 13.5z" />
    <glyph glyph-name="uniFEDB" unicode="&#x643;" horiz-adv-x="433" arabic-form="initial" 
d="M461 688q0 -27 -37 -50l-291 -179q135 -56 195 -115t60 -145q0 -98 -60 -148.5t-167 -50.5h-160l-18 3v118l18 3h163q58 0 100.5 13.5t42.5 50.5q0 32 -17 57t-62.5 52.5t-132.5 63.5q-44 16 -60.5 38t-16.5 51q0 26 11.5 43t35.5 33l314 200q20 12 37 12q14 0 25.5 -8.5
t15.5 -24.5q4 -12 4 -17z" />
    <glyph glyph-name="uniFEDC" unicode="&#x643;" horiz-adv-x="544" arabic-form="medial" 
d="M561 121v-118l-17 -3q-55 0 -93.5 11t-72 36.5t-73.5 73.5q-11 -60 -55.5 -90.5t-133.5 -30.5h-115l-18 3v118l18 3h113q77 0 106 12t32 41q-38 50 -110 140l-57 72q-14 18 -21.5 35t-7.5 37q0 28 15.5 44.5t48.5 36.5l309 186q19 11 35 11q15 0 27 -8.5t16 -24.5
q3 -9 3 -17q0 -31 -36 -52l-312 -183l69 -86l85 -106q50 -60 81 -88t64 -39t83 -11z" />
    <glyph glyph-name="uniFEDE" unicode="&#x644;" horiz-adv-x="702" arabic-form="final" 
d="M719 121v-118l-17 -3q-89 0 -130 37q-16 -114 -85 -173.5t-191 -59.5q-136 0 -201.5 66t-65.5 207q0 50 8.5 92.5t21.5 70.5q8 17 20 27t27 10q4 0 12 -2q31 -8 31 -39q0 -5 -4 -21q-21 -67 -21 -115q0 -94 41 -132.5t137 -38.5q66 0 104 17t54.5 54t16.5 101v577
q0 28 13 44t37 16t36.5 -16t12.5 -44v-425q0 -52 12 -79.5t39 -38.5t75 -11z" />
    <glyph glyph-name="uniFEDF" unicode="&#x644;" horiz-adv-x="296" arabic-form="initial" 
d="M198.5 107q-22.5 -57 -70 -82t-127.5 -25l-18 3v118l18 3q50 0 75.5 7.5t35.5 27t10 58.5v461q0 28 13 44t37 16q23 0 36 -16t13 -44v-418q0 -96 -22.5 -153z" />
    <glyph glyph-name="uniFEE0" unicode="&#x644;" horiz-adv-x="346" arabic-form="medial" 
d="M364 121v-118l-17 -3q-129 0 -161 81q-25 -43 -70 -62t-115 -19l-18 3v118l18 3q50 0 75.5 7.5t35.5 27t10 58.5v461q0 28 13 44t37 16q23 0 36 -16t13 -44v-425q0 -52 12 -79.5t39 -38.5t75 -11z" />
    <glyph glyph-name="uniFEE2" unicode="&#x645;" horiz-adv-x="677" arabic-form="final" 
d="M694 121v-118l-17 -3q-63 0 -99.5 23.5t-59.5 68.5q-35 -96 -169 -96q-86 0 -130 46q-50 -15 -71.5 -25.5t-21.5 -19.5l1 -271q0 -27 -13 -42.5t-36 -15.5t-36.5 15.5t-13.5 42.5v267q0 96 77 131q24 11 71 26q-1 8 -1 26q0 66 27 116.5t72 78t97 27.5q70 0 110 -39
t71 -109l25 -53q16 -37 38 -55t62 -18zM490 154l-8 18q-24 56 -50.5 81.5t-70.5 25.5q-43 0 -75 -27t-32 -70q0 -36 23 -49.5t81 -13.5q103 0 132 35z" />
    <glyph glyph-name="uniFEE3" unicode="&#x645;" horiz-adv-x="530" arabic-form="initial" 
d="M437.5 339.5q46.5 -58.5 46.5 -152.5q0 -90 -49 -140.5t-139 -50.5q-66 0 -102 21.5t-50 64.5q-21 -45 -54 -63.5t-89 -18.5l-18 3v118l18 3q28 0 43.5 4t28.5 18t26 45l22 54q28 68 72.5 110.5t116.5 42.5q81 0 127.5 -58.5zM377 133.5q25 14.5 25 47.5q-2 43 -27 70.5
t-72 27.5q-45 0 -74 -21.5t-44 -64.5l-9 -26q9 -23 36 -35.5t81 -12.5q59 0 84 14.5z" />
    <glyph glyph-name="uniFEE4" unicode="&#x645;" horiz-adv-x="605" arabic-form="medial" 
d="M622 121v-118l-17 -3q-63 0 -100 24t-59 68q-35 -96 -169 -96q-111 0 -151 74q-11 -34 -40 -52t-85 -18l-18 3v118l18 3q41 0 65.5 5t37.5 20q-1 9 -1 27q0 66 27 116.5t72 78t97 27.5q70 0 110 -39t71 -109l25 -53q16 -37 38 -55t62 -18zM418 154l-8 18
q-24 56 -50.5 81.5t-70.5 25.5q-43 0 -75 -27t-32 -70q0 -36 23 -49.5t81 -13.5q103 0 132 35z" />
    <glyph glyph-name="uniFEE6" unicode="&#x646;" horiz-adv-x="751" arabic-form="final" 
d="M768 121v-118l-17 -3q-77 0 -111 36q-9 -130 -85.5 -196t-227.5 -66q-157 0 -227.5 70t-70.5 223q0 92 29 166q7 17 19 26.5t28 9.5q7 0 11 -1q31 -7 31 -40q0 -9 -3 -20q-20 -62 -20 -134q0 -66 20.5 -104t66.5 -55t126 -17q78 0 123.5 18.5t65.5 57t20 101.5
q0 78 -8 168q-3 24 9 39t36 15q21 0 34 -12.5t15 -33.5l4 -44v1q4 -38 11.5 -54.5t30 -23t73.5 -6.5zM305.5 394q-16.5 17 -16.5 40t16.5 39.5t39.5 16.5t39.5 -16.5t16.5 -39.5t-16.5 -40t-39.5 -17t-39.5 17z" />
    <glyph glyph-name="uniFEE7" unicode="&#x646;" horiz-adv-x="261" arabic-form="initial" 
d="M-17 3v118l17 3q68 0 96 29.5t28 96.5q0 34 -9 99l-1 9q0 20 13 32t31 12q39 0 48 -47q9 -52 9 -105q0 -120 -56.5 -185t-158.5 -65zM113.5 510q-16.5 17 -16.5 40t16.5 39.5t39.5 16.5t39.5 -16.5t16.5 -39.5t-16.5 -40t-39.5 -17t-39.5 17z" />
    <glyph glyph-name="uniFEE8" unicode="&#x646;" horiz-adv-x="349" arabic-form="medial" 
d="M366 121v-118l-17 -3q-76 0 -119.5 22.5t-56.5 70.5q-14 -47 -56 -70t-117 -23l-17 3v118l17 3q51 0 78.5 10t40 35.5t12.5 74.5v54q0 23 12 37t33 14t32.5 -13.5t11.5 -36.5v-55q0 -49 12 -74.5t39.5 -35.5t77.5 -10zM136.5 457q-16.5 17 -16.5 40t16.5 39.5t39.5 16.5
t39.5 -16.5t16.5 -39.5t-16.5 -40t-39.5 -17t-39.5 17z" />
    <glyph glyph-name="uniFEE9" unicode="&#x647;" horiz-adv-x="474" arabic-form="isolated" 
d="M77 47q48 -47 149 -47q104 0 153 47t49 147q0 121 -52.5 189t-146.5 68q-95 0 -147.5 -68t-52.5 -189q0 -100 48 -147zM142.5 297q30.5 35 85.5 35q56 0 86.5 -35t30.5 -99q0 -41 -26 -57.5t-91 -16.5t-90.5 16.5t-25.5 57.5q0 64 30.5 99z" />
    <glyph glyph-name="uniFEEA" unicode="&#x647;" horiz-adv-x="513" arabic-form="final" 
d="M530 121v-118l-17 -3q-92 1 -140.5 42.5t-60.5 123.5q-24 -75 -128 -75q-82 0 -118.5 43t-36.5 122q0 55 26 96t86.5 74.5t165.5 62.5v22q0 22 12.5 34.5t34.5 12.5t34 -12.5t12 -34.5v-255q0 -55 9.5 -82.5t33 -38.5t70.5 -11zM307 240v146q-109 -31 -153.5 -56.5
t-44.5 -58.5q0 -29 24 -42.5t73 -13.5q78 0 101 25z" />
    <glyph glyph-name="uniFEEB" unicode="&#x647;" horiz-adv-x="633" arabic-form="initial" 
d="M440.5 422.5q79.5 -45.5 113.5 -100.5t34 -126q0 -97 -46 -146.5t-131 -49.5q-51 0 -96.5 12.5t-93.5 36.5q-31 -23 -79 -36t-142 -13l-17 3v118l17 3q87 0 115 1q-28 32 -39 67.5t-11 80.5q0 137 84 175v6q0 25 15 40t39 15q11 0 23 -3q135 -38 214.5 -83.5zM160 348.5
q-22 -28.5 -22 -71.5q0 -40 18.5 -68.5t67.5 -52.5l8 -3q83 33 83 114q0 51 -20.5 80.5t-66.5 29.5t-68 -28.5zM484 141.5q22 17.5 22 54.5q0 92 -127 147q9 -33 9 -75q0 -83 -57 -138q42 -6 84 -6q47 0 69 17.5z" />
    <glyph glyph-name="uniFEEC" unicode="&#x647;" horiz-adv-x="530" arabic-form="medial" 
d="M547 121v-118l-17 -3h-66q22 -25 22 -67q0 -79 -51 -129t-138 -50q-105 0 -160.5 63.5t-61.5 182.5h-74l-18 3v118l18 3h73v3q0 98 24 167.5t68 105.5t103 36q78 0 119.5 -63t41.5 -157q0 -63 -23 -92h123zM181 271.5q-28 -45.5 -28 -144.5v-9h31q59 0 92 4.5t53 22.5
t20 57q0 52 -21 83.5t-66 31.5q-53 0 -81 -45.5zM377 -108.5q28 18.5 28 48.5q0 38 -32.5 56t-117.5 18h-101q5 -67 41 -104t105 -37q49 0 77 18.5z" />
    <glyph glyph-name="uniFEEE" unicode="&#x648;" horiz-adv-x="498" arabic-form="final" 
d="M515 118v-115l-17 -3h-77q-21 -113 -87 -177.5t-167 -64.5q-67 0 -106 18q-21 9 -32.5 24.5t-11.5 35.5q0 25 14 40.5t35 15.5q4 0 14 -2q46 -12 80 -12q156 0 187 128h-125q-163 0 -163 165q0 60 23.5 109.5t66 78t99.5 28.5q90 0 135.5 -73t45.5 -185v-5h69z
M159.5 132.5q21.5 -13.5 76.5 -13.5h115v22q0 47 -25.5 87.5t-83.5 40.5q-47 0 -75.5 -25.5t-28.5 -64.5q0 -33 21.5 -46.5z" />
    <glyph glyph-name="uniFEF0" unicode="&#x649;" horiz-adv-x="718" arabic-form="final" 
d="M735 121v-118l-17 -3h-59q14 -26 14 -63q0 -67 -39 -117t-112.5 -78t-174.5 -28q-163 0 -240 69t-78 217q0 88 35 158q19 37 49 37q6 0 10 -1q14 -5 22.5 -16t8.5 -26q0 -10 -4 -21q-26 -63 -26 -123q1 -64 23 -101t72.5 -53.5t137.5 -16.5q111 0 172.5 28t61.5 76
q0 31 -26.5 47t-81.5 22q-25 3 -40 19t-15 40q0 28 16.5 44.5t44.5 15.5q75 -5 189 -5h40z" />
    <glyph glyph-name="uniFEF2" unicode="&#x64a;" horiz-adv-x="718" arabic-form="final" 
d="M735 121v-118l-17 -3h-59q14 -26 14 -63q0 -67 -39 -117t-112.5 -78t-174.5 -28q-163 0 -240 69t-78 217q0 88 35 158q19 37 49 37q6 0 10 -1q14 -5 22.5 -16t8.5 -26q0 -10 -4 -21q-26 -63 -26 -123q1 -64 23 -101t72.5 -53.5t137.5 -16.5q111 0 172.5 28t61.5 76
q0 31 -26.5 47t-81.5 22q-25 3 -40 19t-15 40q0 28 16.5 44.5t44.5 15.5q75 -5 189 -5h40zM252 -443.5q-15 15.5 -15 35.5t15 35t35 15t35.5 -15t15.5 -35t-15 -35.5t-36 -15.5q-20 0 -35 15.5zM369.5 -444q-14.5 15 -14.5 36q0 20 15 35t35 15t35.5 -15t15.5 -35t-15 -35.5
t-36 -15.5t-35.5 15z" />
    <glyph glyph-name="uniFEF3" unicode="&#x64a;" horiz-adv-x="261" arabic-form="initial" 
d="M-17 3v118l17 3q68 0 96 29.5t28 96.5q0 34 -9 99l-1 9q0 20 13 32t31 12q39 0 48 -47q9 -52 9 -105q0 -120 -56.5 -185t-158.5 -65zM-15 -153.5q-14 14.5 -14 34.5q0 19 14 33t33 14q20 0 34.5 -14t14.5 -33q0 -20 -14.5 -34.5t-34.5 -14.5q-19 0 -33 14.5zM97 -153.5
q-14 14.5 -14 34.5q0 19 14 33t33 14q20 0 34.5 -14t14.5 -33q0 -20 -14.5 -34.5t-34.5 -14.5q-19 0 -33 14.5z" />
    <glyph glyph-name="uniFEF4" unicode="&#x64a;" horiz-adv-x="349" arabic-form="medial" 
d="M366 121v-118l-17 -3q-76 0 -119.5 22.5t-56.5 70.5q-14 -47 -56 -70t-117 -23l-17 3v118l17 3q51 0 78.5 10t40 35.5t12.5 74.5v54q0 23 12 37t33 14t32.5 -13.5t11.5 -36.5v-55q0 -49 12 -74.5t39.5 -35.5t77.5 -10zM151 -88.5q15 -14.5 15 -34.5t-15 -35.5t-35 -15.5
t-35 15.5t-15 35.5t15 34.5t35 14.5t35 -14.5zM268 -88.5q15 -14.5 15 -34.5t-15 -35.5t-35 -15.5q-21 0 -35.5 15t-14.5 36q0 20 15 34.5t35 14.5t35 -14.5z" />
    <glyph glyph-name=".notdef" horiz-adv-x="712" 
d="M107 702v-27h-27v27h27zM182 702v-27h-27v27h27zM257 702v-27h-27v27h27zM332 702v-27h-27v27h27zM407 702v-27h-27v27h27zM482 702v-27h-27v27h27zM557 702v-27h-27v27h27zM632 702v-27h-27v27h27zM107 627v-27h-27v27h27zM632 627v-27h-27v27h27zM107 552v-27h-27v27
h27zM257 552v-27h-27v27h27zM332 552v-27h-27v27h27zM407 552v-27h-27v27h27zM482 552v-27h-27v27h27zM632 552v-27h-27v27h27zM107 477v-27h-27v27h27zM482 477v-27h-27v27h27zM632 477v-27h-27v27h27zM107 402v-27h-27v27h27zM332 402v-27h-27v27h27zM407 402v-27h-27v27
h27zM482 402v-27h-27v27h27zM632 402v-27h-27v27h27zM107 327v-27h-27v27h27zM332 327v-27h-27v27h27zM632 327v-27h-27v27h27zM107 252v-27h-27v27h27zM632 252v-27h-27v27h27zM107 177v-27h-27v27h27zM332 177v-27h-27v27h27zM632 177v-27h-27v27h27zM107 102v-27h-27v27
h27zM632 102v-27h-27v27h27zM107 27v-27h-27v27h27zM182 27v-27h-27v27h27zM257 27v-27h-27v27h27zM332 27v-27h-27v27h27zM407 27v-27h-27v27h27zM482 27v-27h-27v27h27zM557 27v-27h-27v27h27zM632 27v-27h-27v27h27z" />
    <glyph glyph-name=".null" horiz-adv-x="0" 
 />
    <glyph glyph-name="nonmarkingreturn" unicode="&#xd;" horiz-adv-x="261" 
 />
    <glyph glyph-name="space" unicode=" " horiz-adv-x="200" 
 />
    <glyph glyph-name="exclam" unicode="!" horiz-adv-x="256" 
d="M178 255q0 -22 -14 -36.5t-36 -14.5t-35.5 14t-13.5 37v435q0 22 13.5 36t35.5 14t36 -14t14 -36v-435zM85.5 17.5q-17.5 17.5 -17.5 42.5t17.5 42t42.5 17q24 0 42 -17.5t18 -41.5q0 -25 -18 -42.5t-42 -17.5q-25 0 -42.5 17.5z" />
    <glyph glyph-name="quotedbl" unicode="&#x22;" horiz-adv-x="436" 
d="M57 711q-1 23 17 39.5t42 16.5t42 -16t17 -40l-11 -179q0 -22 -13.5 -37t-34.5 -15q-22 0 -35 15t-13 37zM261 711q-1 23 17 39.5t42 16.5t42 -16t17 -40l-11 -179q0 -22 -13.5 -37t-34.5 -15q-22 0 -35 15t-13 37z" />
    <glyph glyph-name="numbersign" unicode="#" horiz-adv-x="625" 
d="M458 255h51q19 0 32 -13t13 -32q0 -20 -13.5 -33.5t-34.5 -13.5h-60l-17 -129q-2 -19 -15.5 -31.5t-32.5 -12.5q-21 0 -34.5 16t-10.5 38l15 119h-139l-17 -129q-2 -19 -15.5 -31.5t-32.5 -12.5q-21 0 -34.5 16t-10.5 38l15 119h-38q-19 0 -32 13.5t-13 32.5t13 32.5
t32 13.5h50l33 250h-46q-19 0 -32 13.5t-13 33.5q0 19 13 32t32 13h58l16 120q2 21 15 33.5t32 12.5q20 0 34.5 -14.5t12.5 -35.5l-15 -116h138l16 120q3 21 15.5 33.5t32.5 12.5t34.5 -14.5t12.5 -35.5l-15 -116h43q19 0 32 -13t13 -32q0 -20 -13.5 -33.5t-34.5 -13.5h-52z
M363 255l32 250h-138l-33 -250h139z" />
    <glyph glyph-name="dollar" unicode="$" horiz-adv-x="590" 
d="M436.5 751.5q41.5 -11.5 66.5 -30.5q24 -19 24 -43q0 -22 -14.5 -37.5t-35.5 -15.5q-13 0 -39 12q-46 22 -89 26v-233h6q99 -12 148 -62.5t49 -146.5q0 -98 -53 -155t-150 -72v-78q0 -20 -14.5 -34t-34.5 -14t-34 14t-14 34v73q-49 2 -94 12.5t-73 28.5q-34 21 -34 50
q0 21 15 36.5t36 15.5q12 0 41 -12q29 -11 53.5 -18t55.5 -10v242l-12 2q-94 11 -144.5 65t-50.5 142q0 93 56 149t151 70v55q0 20 14 34.5t34 14.5t34.5 -14.5t14.5 -34.5v-51q46 -3 87.5 -14.5zM252 658q-90 -20 -90 -113q0 -44 21 -67t69 -34v214zM349 96q84 22 84 123
q0 44 -17.5 66.5t-66.5 34.5v-224z" />
    <glyph glyph-name="percent" unicode="%" horiz-adv-x="973" 
d="M401 406.5q-26 -42.5 -70.5 -64.5t-99.5 -22q-54 0 -98.5 21.5t-70.5 64t-26 101.5v70q0 59 26 102.5t70.5 67t98.5 23.5t99 -23.5t71 -67t26 -102.5v-70q0 -58 -26 -100.5zM247 -2.5q-12 10.5 -14 26.5q-2 8 -2 12q0 11 8 24l408 670q18 28 44 28q17 0 30.5 -12
t14.5 -29v-7q0 -12 -7 -24l-411 -673q-15 -26 -43 -26q-16 0 -28 10.5zM305.5 652.5q-25.5 28.5 -73.5 28.5t-74 -29t-26 -75v-69q0 -46 26 -74t75 -28q48 0 73 27.5t25 74.5v69q0 47 -25.5 75.5zM910 72.5q-26 -42.5 -70.5 -64.5t-99.5 -22q-54 0 -98.5 21.5t-70.5 64
t-26 101.5v70q0 59 26 102.5t70.5 67t98.5 23.5t99 -23.5t71 -67t26 -102.5v-70q0 -58 -26 -100.5zM814.5 318.5q-25.5 28.5 -73.5 28.5t-74 -29t-26 -75v-69q0 -46 26 -74t75 -28q48 0 73 27.5t25 74.5v69q0 47 -25.5 75.5z" />
    <glyph glyph-name="ampersand" unicode="&#x26;" horiz-adv-x="705" 
d="M643.5 389q16.5 -16 16.5 -39q0 -58 -19 -112.5t-53 -100.5l66 -69q13 -13 13 -34q0 -22 -15.5 -37t-37.5 -15t-38 18l-62 63q-48 -37 -105 -57.5t-117 -20.5q-115 0 -178.5 53t-63.5 152q0 57 33 107.5t109 94.5l-20 20q-42 48 -60.5 86.5t-18.5 84.5q0 57 31 99.5
t81 64.5t106 22q101 0 158 -47.5t57 -129.5q0 -51 -32.5 -97t-93.5 -83l-49 -30l165 -171q35 65 35 141q0 23 15 38t38 15t39.5 -16zM289 448l42 25q80 47 80 113q0 49 -28.5 70t-73.5 21q-46 0 -74 -24t-28 -67q0 -22 10.5 -46t38.5 -58zM256 326q-40 -20 -65.5 -54.5
t-25.5 -77.5q0 -47 36.5 -78.5t99.5 -31.5q84 0 144 49z" />
    <glyph glyph-name="quotesingle" unicode="'" horiz-adv-x="232" 
d="M57 711q-1 23 17 39.5t42 16.5t42 -16t17 -40l-11 -179q0 -22 -13.5 -37t-34.5 -15q-22 0 -35 15t-13 37z" />
    <glyph glyph-name="parenleft" unicode="(" horiz-adv-x="328" 
d="M280 -87.5q14 -13.5 14 -32.5q0 -20 -14 -34t-34 -14h-20q-153 0 -153 189v682q0 189 153 189h20q20 0 34 -14t14 -34q0 -19 -14 -32.5t-34 -13.5h-10q-35 0 -44 -22.5t-9 -72.5v-682q0 -50 9 -72.5t44 -22.5h10q20 0 34 -13.5z" />
    <glyph glyph-name="parenright" unicode=")" horiz-adv-x="328" 
d="M92 -74q35 0 44 22.5t9 72.5v682q0 50 -9 72.5t-44 22.5h-10q-20 0 -34 13.5t-14 32.5q0 20 14.5 34t33.5 14h20q153 0 153 -189v-682q0 -189 -153 -189h-20q-19 0 -33.5 14t-14.5 34q0 19 14 32.5t34 13.5h10z" />
    <glyph glyph-name="asterisk" unicode="*" horiz-adv-x="508" 
d="M58 629q13 12 32 12q8 0 16 -3l101 -35v118q0 18 13 30t32 12t32 -12.5t13 -30.5v-121q111 42 119 42q18 2 32 -9t15 -29q2 -16 -7 -29t-25 -19l-100 -37q5 -6 10.5 -13t11.5 -15q31 -40 46.5 -61.5t15.5 -27.5q3 -18 -6.5 -32t-27.5 -17q-8 -2 -12 -2q-19 0 -32 15
l-86 108l-80 -99q-15 -20 -37 -20q-7 0 -10 1q-15 2 -24.5 13.5t-9.5 26.5q0 6 1 9q0 6 14.5 25.5t42.5 54.5l27 34l-104 38q-12 4 -19 15.5t-7 25.5q0 20 13 32z" />
    <glyph glyph-name="plus" unicode="+" horiz-adv-x="521" 
d="M443 433q18 0 31.5 -13.5t13.5 -32.5t-13.5 -32t-31.5 -13h-134v-136q0 -19 -14 -32.5t-34 -13.5t-34 13.5t-14 32.5v136h-134q-19 0 -32.5 13t-13.5 32t13.5 32.5t32.5 13.5h134v136q0 19 14.5 32t34.5 13t33.5 -13t13.5 -32v-136h134z" />
    <glyph glyph-name="comma" unicode="," horiz-adv-x="231" 
d="M127.5 -138.5q-14.5 -14.5 -37.5 -14.5q-24 0 -39 15t-15 37q0 8 1 12l27 161q4 24 19 39.5t37 15.5q23 0 38 -14.5t15 -40.5q0 -5 -2 -19l-26 -154q-3 -23 -17.5 -37.5z" />
    <glyph glyph-name="hyphen" unicode="-" horiz-adv-x="460" 
d="M79.5 234q-13.5 13 -13.5 32q0 20 13.5 33t32.5 13h236q19 0 32.5 -13.5t13.5 -32.5t-13.5 -32t-32.5 -13h-236q-19 0 -32.5 13z" />
    <glyph glyph-name="period" unicode="." horiz-adv-x="217" 
d="M49.5 15q-19.5 19 -19.5 47t19.5 47t47.5 19q27 0 46.5 -19.5t19.5 -46.5t-19.5 -46.5t-46.5 -19.5q-28 0 -47.5 19z" />
    <glyph glyph-name="slash" unicode="/" horiz-adv-x="468" 
d="M39 -169.5q-13 10.5 -13 28.5q0 9 5 24l320 884q6 18 17.5 28.5t28.5 10.5q22 0 33.5 -11.5t11.5 -28.5q0 -13 -4 -22l-322 -891q-5 -15 -17.5 -24t-27.5 -9q-19 0 -32 10.5z" />
    <glyph glyph-name="zero" unicode="0" horiz-adv-x="617" 
d="M127 699q61 70 183 70t181.5 -69.5t59.5 -199.5v-249q0 -126 -61.5 -196t-181.5 -70q-122 0 -182 67.5t-60 198.5v249q0 129 61 199zM213 129.5q28 -38.5 95 -38.5q68 0 96 38t28 115v263q0 81 -29.5 118.5t-95.5 37.5q-63 0 -92.5 -37t-29.5 -119v-263q0 -76 28 -114.5z
" />
    <glyph glyph-name="one" unicode="1" horiz-adv-x="387" 
d="M171 744q26 14 40.5 19.5t30.5 5.5q28 0 43 -17t15 -39v-668q0 -25 -17.5 -42.5t-42.5 -17.5t-42 17.5t-17 42.5v579l-86 -48q-14 -7 -27 -7q-22 0 -38 16t-16 37q0 31 32 50z" />
    <glyph glyph-name="two" unicode="2" horiz-adv-x="564" 
d="M471 444.5q-30 -58.5 -85 -121.5l-188 -219h275q21 0 36.5 -15t15.5 -36t-15.5 -37t-36.5 -16h-385q-19 0 -33.5 13t-14.5 37q0 17 7.5 30.5t26.5 34.5l232 274q74 87 74 161q0 53 -36.5 82t-99.5 29q-34 0 -62 -8t-60 -22q-16 -6 -24 -6q-23 0 -38 15t-15 37q0 27 31 47
q37 24 88 34.5t99 10.5q111 0 174.5 -52t63.5 -148q0 -66 -30 -124.5z" />
    <glyph glyph-name="three" unicode="3" horiz-adv-x="557" 
d="M221 438q71 0 113.5 29t42.5 88q0 52 -37 79.5t-103 27.5q-28 0 -50.5 -6.5t-47.5 -17.5q-3 -1 -15 -6t-21 -5q-23 0 -36.5 13t-13.5 35q0 28 31 48q34 23 78 34t90 11q72 0 125.5 -25t82.5 -70t29 -104q0 -61 -30.5 -104t-81.5 -67q60 -22 93 -70t33 -113
q0 -66 -33.5 -118.5t-96 -82t-144.5 -29.5q-40 0 -83.5 7.5t-74.5 26.5q-31 20 -31 50q0 21 14.5 33t35.5 12q11 0 20 -3q6 -2 22.5 -8t37 -9t46.5 -3q171 0 171 127q0 65 -43.5 93t-121.5 28h-28q-20 0 -34.5 14.5t-14.5 35.5q0 20 14.5 34.5t34.5 14.5h27z" />
    <glyph glyph-name="four" unicode="4" horiz-adv-x="577" 
d="M262 758.5q14 10.5 32 10.5q23 0 40 -16t17 -38q0 -14 -6 -26l-192 -439h195v140q0 25 17 42t41 17q25 0 42 -17t17 -42v-140h47q21 -2 35.5 -16t14.5 -35t-15 -36.5t-35 -16.5h-47v-101q0 -25 -17 -42.5t-42 -17.5q-24 0 -41 17.5t-17 42.5v101h-275q-22 0 -37 14.5
t-15 39.5q0 17 5 31.5t17 41.5l199 459q6 16 20 26.5z" />
    <glyph glyph-name="five" unicode="5" horiz-adv-x="561" 
d="M176 95.5q24 -5.5 60 -5.5q164 0 164 137q0 68 -40.5 100t-113.5 32q-37 0 -65 -7.5t-65 -22.5q-6 -2 -10 -2q-12 0 -21 10t-9 26v342q0 24 14.5 37t33.5 13h312q21 0 36.5 -16t15.5 -37q0 -22 -15 -37t-37 -15h-252v-202q39 12 88 12q112 0 178.5 -56.5t66.5 -165.5
q0 -83 -39 -140t-103 -85t-141 -28q-36 0 -76 7t-69 24q-38 19 -38 52q0 21 14.5 33.5t35.5 12.5q11 0 20 -3q31 -10 55 -15.5z" />
    <glyph glyph-name="six" unicode="6" horiz-adv-x="571" 
d="M159 16q-57 31 -88.5 85.5t-31.5 120.5q0 46 17 90.5t34 76.5t21 40l143 301q9 17 23.5 28t32.5 11q24 0 41 -15.5t17 -39.5q0 -14 -8 -30l-112 -228q23 5 52 5q71 -1 126 -32t85.5 -84.5t30.5 -121.5q0 -67 -31.5 -121.5t-89 -85.5t-131.5 -31t-131 31zM192.5 320.5
q-35.5 -38.5 -35.5 -96.5q0 -59 36 -96.5t96 -37.5q61 0 96 38.5t35 95.5q0 58 -35.5 96.5t-95.5 38.5q-61 0 -96.5 -38.5z" />
    <glyph glyph-name="seven" unicode="7" horiz-adv-x="509" 
d="M128 67l228 583h-290q-22 0 -37 15t-15 37q0 21 15.5 37t36.5 16h369q22 0 38 -13.5t16 -43.5q0 -16 -9 -38t-12 -30l-229 -604q-7 -18 -21.5 -29.5t-34.5 -11.5q-25 0 -42 17.5t-17 41.5q0 11 4 23z" />
    <glyph glyph-name="eight" unicode="8" horiz-adv-x="598" 
d="M169.5 14.5q-55.5 29.5 -86 81t-30.5 116.5q0 61 27 108t76 75q-40 26 -61.5 68.5t-21.5 94.5q0 59 27.5 107t78.5 76t121 28t121.5 -28t78.5 -76t27 -106q0 -53 -22.5 -95.5t-62.5 -69.5q48 -28 75 -75t27 -107q0 -65 -31 -116.5t-86.5 -81t-128.5 -29.5t-128.5 29.5z
M217.5 635.5q-31.5 -32.5 -31.5 -82.5t32 -82.5t84 -32.5t83.5 33t31.5 82q0 50 -31.5 82.5t-83.5 32.5q-53 0 -84.5 -32.5zM208 306q-34 -37 -34 -91t35 -90t92 -36q58 0 92.5 37.5t34.5 89.5q0 53 -35 90t-93 37t-92 -37z" />
    <glyph glyph-name="nine" unicode="9" horiz-adv-x="572" 
d="M413 738q57 -31 88.5 -85.5t31.5 -120.5q0 -46 -17 -90.5t-34 -76.5t-21 -40l-143 -301q-9 -17 -23.5 -28t-32.5 -11q-24 0 -41 15.5t-17 39.5q0 14 8 30l112 228q-23 -5 -52 -5q-71 1 -126 32t-85.5 84.5t-30.5 121.5q0 67 31.5 121.5t89 85.5t131.5 31t131 -31z
M379.5 433.5q35.5 38.5 35.5 96.5q0 59 -36.5 96.5t-96.5 37.5t-95.5 -39t-35.5 -95q0 -57 36 -96t96 -39q61 0 96.5 38.5z" />
    <glyph glyph-name="colon" unicode=":" horiz-adv-x="313" 
d="M116.5 23q-19.5 19 -19.5 47t19.5 47t47.5 19q27 0 46.5 -19.5t19.5 -46.5t-19.5 -46.5t-46.5 -19.5q-28 0 -47.5 19zM116.5 316q-19.5 19 -19.5 47t19.5 47t47.5 19q27 0 46.5 -19.5t19.5 -46.5t-19.5 -46.5t-46.5 -19.5q-28 0 -47.5 19z" />
    <glyph glyph-name="semicolon" unicode=";" horiz-adv-x="267" 
d="M98.5 544.5q17.5 16.5 41.5 16.5t42 -16.5t18 -39.5v-38q0 -24 -18 -40.5t-42 -16.5t-41.5 16.5t-17.5 40.5v38q0 23 17.5 39.5zM141.5 -138.5q-14.5 -14.5 -37.5 -14.5q-24 0 -39 15t-15 37q0 8 1 12l27 161q4 24 19 39.5t37 15.5q23 0 38 -14.5t15 -40.5q0 -5 -2 -19
l-26 -154q-3 -23 -17.5 -37.5z" />
    <glyph glyph-name="less" unicode="&#x3c;" horiz-adv-x="512" 
d="M432 155.5q-14 -14.5 -33 -14.5q-14 0 -28 7l-293 158q-24 13 -33.5 32t-9.5 45t9 44t36 33l290 161q2 1 10.5 6t18.5 5q19 0 33 -15t14 -35q0 -14 -8.5 -26t-22.5 -19l-284 -152l288 -151q27 -16 27 -44q0 -20 -14 -34.5z" />
    <glyph glyph-name="equal" unicode="=" horiz-adv-x="601" 
d="M83.5 484q-13.5 13 -13.5 33q0 19 13.5 32.5t32.5 13.5h370q18 0 31.5 -13.5t13.5 -33.5q0 -19 -13.5 -32t-31.5 -13h-370q-19 0 -32.5 13zM83.5 234q-13.5 13 -13.5 33q0 19 13.5 32.5t32.5 13.5h370q18 0 31.5 -13.5t13.5 -33.5q0 -19 -13.5 -32t-31.5 -13h-370
q-19 0 -32.5 13z" />
    <glyph glyph-name="greater" unicode="&#x3e;" horiz-adv-x="512" 
d="M97 537q-14 7 -22.5 19t-8.5 26q0 20 14 35t33 15q10 0 18.5 -5t10.5 -6l290 -161q27 -15 36 -33t9 -44t-9.5 -45t-33.5 -32l-293 -158q-14 -7 -28 -7q-19 0 -33 14.5t-14 34.5q0 28 27 44l288 151z" />
    <glyph glyph-name="question" unicode="?" horiz-adv-x="520" 
d="M470.5 482q-14.5 -32 -35.5 -52.5t-55 -45.5q-38 -28 -56.5 -50.5t-18.5 -56.5v-22q0 -24 -16 -39t-40 -15q-23 0 -38.5 15t-15.5 41v11q0 41 13 70t32.5 48t50.5 43q42 33 62 59.5t20 69.5q0 55 -30.5 85t-86.5 30q-54 0 -84.5 -25t-34.5 -74l-1 -12q-2 -23 -15.5 -37.5
t-36.5 -14.5q-24 0 -39.5 16t-15.5 42v12q1 55 30.5 98t81 67t114.5 24q106 0 168 -55.5t62 -153.5q0 -46 -14.5 -78zM214 117q17 16 41 16t41 -16t17 -39v-38q0 -23 -17 -39t-41 -16t-41 16t-17 39v38q0 23 17 39z" />
    <glyph glyph-name="at" unicode="@" horiz-adv-x="721" 
d="M466.5 -67q13.5 -14 13.5 -34q0 -21 -14 -35t-34 -14h-70q-137 0 -218.5 74t-81.5 243v220q0 128 76.5 198t225.5 70q133 0 206 -55.5t73 -165.5v-288q0 -23 -16.5 -39t-39.5 -16t-38.5 16t-15.5 39v6q-27 -36 -59.5 -51.5t-78.5 -15.5q-82 0 -122.5 40t-40.5 116
q0 86 49.5 126t151.5 40h100v14q0 69 -44.5 104.5t-130.5 35.5q-96 0 -141 -39t-45 -127v-231q0 -128 58.5 -172.5t155.5 -44.5h48q19 0 32.5 -14zM438 323q-56 0 -76 -16.5t-20 -61.5q0 -37 17.5 -54.5t56.5 -17.5q51 0 83.5 28t33.5 91v31h-95z" />
    <glyph glyph-name="A" unicode="A" horiz-adv-x="677" 
d="M179 175l-52 -147q-7 -18 -21.5 -29t-33.5 -11q-24 0 -41 17t-17 41q0 15 5 25l239 625q13 35 32 53t51 18q35 0 54 -18t30 -52l224 -618q6 -18 6 -28q0 -26 -19 -44.5t-46 -18.5q-21 0 -38 13t-23 33l-47 141h-303zM449 276l-113 341l-121 -341h234z" />
    <glyph glyph-name="B" unicode="B" horiz-adv-x="680" 
d="M105 737.5q17 17.5 42 17.5h211q126 0 188.5 -52t62.5 -147q0 -59 -26.5 -98t-78.5 -64q59 -18 92 -63t33 -115q0 -96 -62 -156t-196 -60h-224q-25 0 -42 17.5t-17 42.5v636q0 24 17 41.5zM205 434h148q75 0 104.5 27t29.5 81q0 62 -38 86t-106 24h-138v-218zM205 103
h150q151 0 151 111q0 65 -33 93t-115 28h-153v-232z" />
    <glyph glyph-name="C" unicode="C" horiz-adv-x="614" 
d="M537 120q23 0 37 -14.5t14 -35.5q0 -25 -28 -45q-29 -20 -80 -30t-102 -10q-94 0 -167 39t-114 116t-41 188v92q0 111 41.5 189.5t114 119t165.5 40.5q43 0 91.5 -8.5t79.5 -25.5q40 -22 40 -53q0 -21 -15 -36.5t-36 -15.5l-9 1q-5 1 -26 9q-24 11 -49.5 17.5t-67.5 6.5
q-93 0 -150.5 -60.5t-57.5 -176.5v-106q0 -118 55.5 -174.5t151.5 -56.5q39 0 64 6t40.5 11.5t20.5 7.5q17 5 28 5z" />
    <glyph glyph-name="D" unicode="D" horiz-adv-x="705" 
d="M105 17.5q-17 17.5 -17 42.5v636q0 24 17 41.5t42 17.5h187q144 0 228.5 -85t84.5 -250v-92q0 -164 -84 -246t-229 -82h-187q-25 0 -42 17.5zM207 105h127q95 0 144 50t49 166v106q0 113 -51.5 168t-141.5 55h-127v-545z" />
    <glyph glyph-name="E" unicode="E" horiz-adv-x="611" 
d="M207 435h271q22 0 36.5 -14t14.5 -36q0 -21 -15 -36t-36 -15h-271v-231h302q22 0 37 -15t15 -36q0 -22 -15 -37t-37 -15h-362q-25 0 -42 17.5t-17 42.5v636q0 24 17 41.5t42 17.5h361q21 0 36 -15t15 -37q0 -21 -15 -36t-36 -15h-301v-217z" />
    <glyph glyph-name="F" unicode="F" horiz-adv-x="587" 
d="M207 429h271q22 0 37 -14.5t15 -35.5q0 -22 -15.5 -37t-36.5 -15h-271v-279q0 -24 -17.5 -41.5t-42.5 -17.5t-42 17.5t-17 41.5v648q0 24 17 41.5t42 17.5h361q21 0 36 -15t15 -37q0 -21 -15 -36t-36 -15h-301v-223z" />
    <glyph glyph-name="G" unicode="G" horiz-adv-x="686" 
d="M626 75q0 -41 -52 -60q-82 -30 -181 -30q-96 0 -172 38t-120.5 115t-44.5 190v92q0 113 45 191.5t121.5 118t170.5 39.5q113 0 186 -39q13 -7 21.5 -19.5t8.5 -27.5q0 -22 -15 -37.5t-36 -15.5q-13 0 -27 7q-51 27 -135 27q-59 0 -109 -25.5t-80 -79t-30 -132.5v-106
q0 -118 60 -174.5t158 -56.5q58 0 116 12v217h-134q-22 0 -37 15.5t-15 36.5q0 22 15 37.5t37 15.5h197q22 0 37 -15t15 -37v-297z" />
    <glyph glyph-name="H" unicode="H" horiz-adv-x="758" 
d="M653.5 6.5q-17.5 -17.5 -42.5 -17.5t-42 17.5t-17 41.5v285h-345v-285q0 -24 -17.5 -41.5t-42.5 -17.5t-42 17.5t-17 41.5v662q0 24 17 41.5t42 17.5t42.5 -17.5t17.5 -41.5v-269h345v269q0 24 17 41.5t42 17.5t42.5 -17.5t17.5 -41.5v-662q0 -24 -17.5 -41.5z" />
    <glyph glyph-name="I" unicode="I" horiz-adv-x="294" 
d="M189.5 6.5q-17.5 -17.5 -42.5 -17.5t-42 17.5t-17 41.5v662q0 24 17 41.5t42 17.5t42.5 -17.5t17.5 -41.5v-662q0 -24 -17.5 -41.5z" />
    <glyph glyph-name="J" unicode="J" horiz-adv-x="487" 
d="M68 3q-17 5 -27 18.5t-10 31.5q0 19 11.5 33.5t29.5 16.5h5q5 0 21 -2q14 -2 21 -4q30 -6 45 -6q57 0 89 23t32 93v443h-186q-21 0 -36.5 15.5t-15.5 36.5q0 22 15.5 37.5t36.5 15.5h253q21 0 36.5 -15.5t15.5 -37.5v-498q0 -109 -65 -164t-169 -55q-53 0 -102 18z" />
    <glyph glyph-name="K" unicode="K" horiz-adv-x="654" 
d="M310 435l196 302q8 14 21 23.5t29 9.5q23 0 39.5 -16.5t16.5 -39.5q0 -13 -6 -23.5t-7 -12.5l-188 -285l199 -307q14 -22 14 -38q0 -24 -17.5 -41.5t-41.5 -17.5q-33 0 -57 39l-194 306h-107v-286q0 -24 -17.5 -41.5t-42.5 -17.5t-42 17.5t-17 41.5v662q0 24 17 41.5
t42 17.5t42.5 -17.5t17.5 -41.5v-275h103z" />
    <glyph glyph-name="L" unicode="L" horiz-adv-x="526" 
d="M105 752q17 17 42 17t42.5 -17t17.5 -42v-607h261q21 0 36 -15t15 -36q0 -22 -15 -37t-36 -15h-321q-25 0 -42 17.5t-17 42.5v650q0 25 17 42z" />
    <glyph glyph-name="M" unicode="M" horiz-adv-x="854" 
d="M426 323l210 401q12 23 29 34t41 11q27 0 43.5 -17.5t16.5 -41.5v-662q0 -24 -17 -41.5t-41 -17.5t-39.5 17t-15.5 42v276l1 215l-158 -302q-15 -30 -30 -43t-42 -13t-41 12.5t-28 41.5l-156 297l1 -211v-273q0 -24 -16.5 -41.5t-40.5 -17.5t-39.5 17t-15.5 42v662
q0 24 16.5 41.5t43.5 17.5q24 0 41 -11t30 -34z" />
    <glyph glyph-name="N" unicode="N" horiz-adv-x="747" 
d="M200 297v-248q0 -25 -16.5 -42t-41.5 -17q-24 0 -39 17t-15 42v661q0 24 16.5 41.5t43.5 17.5q23 0 39 -11t31 -34l331 -519l-1 276v229q0 25 15 42t39 17t41 -17.5t17 -41.5v-661q0 -24 -17 -41.5t-44 -17.5q-23 0 -38.5 10.5t-31.5 34.5l-330 524z" />
    <glyph glyph-name="O" unicode="O" horiz-adv-x="728" 
d="M95 611q38 78 107 118t162 40t162 -40t107 -118t38 -189v-96q0 -166 -82.5 -253.5t-224.5 -87.5t-224.5 87.5t-82.5 253.5v96q0 111 38 189zM224.5 145.5q45.5 -57.5 138.5 -57.5q95 0 141 57.5t46 173.5v110q0 116 -48.5 176.5t-138.5 60.5q-88 0 -136 -61t-48 -176
v-110q0 -116 45.5 -173.5z" />
    <glyph glyph-name="P" unicode="P" horiz-adv-x="645" 
d="M207 270v-221q0 -25 -17.5 -42t-42.5 -17t-42 17t-17 42v647q0 24 17 41.5t42 17.5h208q83 0 141 -31.5t87 -85.5t29 -120q0 -72 -29 -128.5t-86 -88t-138 -31.5h-152zM207 372h138q78 0 112 38t34 100q0 73 -37.5 107t-116.5 34h-130v-279z" />
    <glyph glyph-name="Q" unicode="Q" horiz-adv-x="728" 
d="M95 611q38 78 107 118t162 40t162 -40t107 -118t38 -189v-96q0 -97 -29 -167.5t-83 -113.5l43 -69q11 -15 11 -28q0 -20 -13.5 -33.5t-33.5 -13.5q-25 0 -44 28l-45 73q-53 -17 -113 -17q-142 0 -224.5 87.5t-82.5 253.5v96q0 111 38 189zM378.5 232.5
q13.5 13.5 33.5 13.5q26 0 42 -29l46 -76q50 57 50 178v110q0 116 -48.5 176.5t-138.5 60.5q-88 0 -136 -61t-48 -176v-110q0 -116 45.5 -173.5t138.5 -57.5q31 0 58 6l-49 81q-7 10 -7 25q0 19 13.5 32.5z" />
    <glyph glyph-name="R" unicode="R" horiz-adv-x="669" 
d="M606 82q1 -3 6 -13t5 -21q0 -22 -17 -40t-46 -18q-39 0 -54 34l-127 282h-166v-257q0 -25 -17.5 -42t-42.5 -17t-42 17t-17 42v647q0 24 17 41.5t42 17.5h213q125 0 188.5 -60t63.5 -162q0 -72 -31.5 -125t-92.5 -80zM207 407h138q80 0 113 31.5t33 91.5q0 69 -37 95.5
t-120 26.5h-127v-245z" />
    <glyph glyph-name="S" unicode="S" horiz-adv-x="614" 
d="M149 120q37 -14 69.5 -22t75.5 -8q76 0 117.5 33t41.5 96q0 51 -33 75t-114 34l-62 8q-93 11 -143.5 65t-50.5 142q0 109 75 166.5t197 57.5q54 0 109 -12t84 -35q25 -18 25 -42q0 -22 -15 -37.5t-36 -15.5q-11 0 -35 11q-5 2 -27.5 10.5t-49.5 13.5t-56 5
q-77 0 -115.5 -29t-38.5 -91q0 -52 30 -75.5t103 -32.5l60 -7q101 -13 156.5 -64t55.5 -145q0 -115 -80 -174t-214 -59q-51 0 -104 11t-84 31q-35 21 -35 50q0 22 13 37t39 15q11 0 42 -12z" />
    <glyph glyph-name="T" unicode="T" horiz-adv-x="612" 
d="M369 49q0 -25 -17 -42t-42 -17t-42.5 17t-17.5 42v600h-190q-21 0 -36.5 15.5t-15.5 37.5q0 21 15.5 37t36.5 16h492q21 0 36.5 -16t15.5 -37q0 -22 -15.5 -37.5t-36.5 -15.5h-183v-600z" />
    <glyph glyph-name="U" unicode="U" horiz-adv-x="756" 
d="M574 751.5q17 17.5 42 17.5t42.5 -17.5t17.5 -41.5v-388q0 -167 -78.5 -252t-220.5 -85t-219.5 85t-77.5 252v388q0 24 18 41.5t43 17.5t42 -17.5t17 -41.5v-389q0 -120 42.5 -175.5t134.5 -55.5q91 0 135.5 54.5t44.5 176.5v389q0 24 17 41.5z" />
    <glyph glyph-name="V" unicode="V" horiz-adv-x="656" 
d="M33 678q-6 17 -6 28q0 26 19 44.5t46 18.5q21 0 38 -12.5t23 -32.5l175 -570l191 575q5 18 20.5 29t36.5 11q25 0 41.5 -16.5t16.5 -40.5q0 -13 -5 -26l-223 -628q-12 -35 -29.5 -52t-52.5 -17q-33 0 -50.5 16.5t-29.5 51.5z" />
    <glyph glyph-name="W" unicode="W" horiz-adv-x="997" 
d="M562 354l-61 226l-65 -219l-92 -305q-10 -34 -26.5 -50.5t-50.5 -16.5q-28 0 -45 16t-26 50l-157 623q-4 17 -4 33q0 26 18.5 42t45.5 16q22 0 39 -12.5t21 -32.5l117 -561l164 542q8 30 23.5 47t42.5 17q31 0 46 -16t22 -44l145 -556l139 576q5 18 20.5 29t35.5 11
q25 0 41.5 -16.5t16.5 -40.5q0 -11 -5 -26l-175 -630q-10 -33 -27 -50t-46 -17q-31 0 -50 16.5t-28 50.5z" />
    <glyph glyph-name="X" unicode="X" horiz-adv-x="625" 
d="M60 752q17 17 41 17q15 0 28 -7t20 -20l166 -273l167 268q19 32 49 32q23 0 39 -16t16 -39q0 -16 -11 -32l-192 -292l201 -310q11 -20 11 -34q0 -23 -17 -40t-40 -17q-17 0 -30.5 9t-21.5 23l-174 283l-179 -281q-21 -34 -51 -34q-23 0 -39.5 16.5t-16.5 39.5q0 16 12 35
l205 304l-186 289q-14 22 -14 39q0 23 17 40z" />
    <glyph glyph-name="Y" unicode="Y" horiz-adv-x="606" 
d="M362 49q0 -25 -17.5 -42t-42.5 -17t-42 17t-17 42v232l-207 398q-8 18 -8 32q0 25 17.5 41.5t43.5 16.5q19 0 34 -12t25 -31l157 -331l167 335q20 39 54 39q24 0 39.5 -15t15.5 -37q0 -15 -7 -28l-212 -409v-231z" />
    <glyph glyph-name="Z" unicode="Z" horiz-adv-x="625" 
d="M94 649q-22 0 -37 16t-15 38q0 21 15 36.5t37 15.5h443q22 0 38 -14t16 -44q0 -15 -6 -30.5t-21 -36.5l-385 -524h354q21 0 36.5 -16t15.5 -37q0 -22 -15.5 -37.5t-36.5 -15.5h-447q-21 0 -37.5 14t-16.5 44q0 29 28 67l385 524h-351z" />
    <glyph glyph-name="bracketleft" unicode="[" horiz-adv-x="322" 
d="M99 875.5q16 16.5 38 16.5h109q19 0 32.5 -14t13.5 -33q0 -21 -12.5 -34t-30.5 -13h-56v-872h55q18 0 31 -13t13 -33t-13.5 -34t-32.5 -14h-109q-22 0 -38 17t-16 42v946q0 22 16 38.5z" />
    <glyph glyph-name="backslash" unicode="\" horiz-adv-x="468" 
d="M30 744q-3 8 -3 17q0 18 12.5 31.5t31.5 13.5q33 0 47 -39l319 -884q4 -12 4 -19q0 -18 -11.5 -31t-31.5 -13q-16 0 -28.5 9t-17.5 24z" />
    <glyph glyph-name="bracketright" unicode="]" horiz-adv-x="322" 
d="M77 -168q-19 0 -33 14t-14 34t13 33t31 13h55v872h-55q-18 0 -31 13t-13 34q0 19 14 33t33 14h108q22 0 38 -16t16 -39v-946q0 -25 -15.5 -42t-38.5 -17h-108z" />
    </font>
</defs>
</svg>
