<svg id="_003-profits" data-name="003-profits" xmlns="http://www.w3.org/2000/svg" width="46.793" height="54.882" viewBox="0 0 46.793 54.882">
  <g id="Group_4944" data-name="Group 4944" transform="translate(30.569 23.031)">
    <g id="Group_4943" data-name="Group 4943">
      <path id="Path_4003" data-name="Path 4003" d="M299.069,199v13.645a11.246,11.246,0,0,1,2.2-1.331V199Z" transform="translate(-299.069 -199)" fill="#00b2e2"/>
    </g>
  </g>
  <g id="Group_4946" data-name="Group 4946" transform="translate(39.596 17.013)">
    <g id="Group_4945" data-name="Group 4945">
      <path id="Path_4004" data-name="Path 4004" d="M377.069,147v17.43a9.653,9.653,0,0,1,2.2.59V147Z" transform="translate(-377.069 -147)" fill="#00b2e2"/>
    </g>
  </g>
  <g id="Group_4948" data-name="Group 4948" transform="translate(28.474 36.561)">
    <g id="Group_4947" data-name="Group 4947" transform="translate(0)">
      <path id="Path_4005" data-name="Path 4005" d="M294.8,317.185a8.942,8.942,0,0,0-3.935-1.25h-.012c-.243-.023-.475-.035-.718-.035a8.982,8.982,0,0,0-3.125.556,1.1,1.1,0,0,1-.382.15,9.152,9.152,0,1,0,8.171.579Zm-4.664,6.944a3.768,3.768,0,0,1,1.377,7.28v.637a1.157,1.157,0,1,1-2.315,0v-.521a3.789,3.789,0,0,1-2.824-3.646v-.012a1.124,1.124,0,0,1,1.134-1.146,1.161,1.161,0,0,1,1.157,1.157,1.452,1.452,0,1,0,1.458-1.447,3.727,3.727,0,0,1-3.622-2.824,3.775,3.775,0,0,1,2.708-4.595v-.833a1.157,1.157,0,1,1,2.315,0v.961a3.78,3.78,0,0,1,2.4,3.518,1.173,1.173,0,0,1-1.181,1.157,1.161,1.161,0,0,1-1.157-1.157,1.453,1.453,0,1,0-1.447,1.47Z" transform="translate(-280.969 -315.9)" fill="#00b2e2"/>
    </g>
  </g>
  <g id="Group_4950" data-name="Group 4950" transform="translate(12.398 32.29)">
    <g id="Group_4949" data-name="Group 4949">
      <rect id="Rectangle_101" data-name="Rectangle 101" width="2.199" height="15.971" fill="#00b2e2"/>
    </g>
  </g>
  <g id="Group_4952" data-name="Group 4952" transform="translate(21.541 29.628)">
    <g id="Group_4951" data-name="Group 4951">
      <rect id="Rectangle_102" data-name="Rectangle 102" width="2.199" height="18.633" fill="#00b2e2"/>
    </g>
  </g>
  <g id="Group_4954" data-name="Group 4954" transform="translate(3.255 42.243)">
    <g id="Group_4953" data-name="Group 4953">
      <rect id="Rectangle_103" data-name="Rectangle 103" width="2.199" height="6.018" fill="#00b2e2"/>
    </g>
  </g>
  <g id="Group_4956" data-name="Group 4956" transform="translate(0)">
    <g id="Group_4955" data-name="Group 4955" transform="translate(0)">
      <path id="Path_4006" data-name="Path 4006" d="M78.88,0,70.964.012a1.157,1.157,0,0,0-.023,2.315h.023l5.127-.012L63.533,14.826l-4.386-4.352a1.272,1.272,0,0,0-1.643,0L35.283,32.7a1.154,1.154,0,0,0,1.643,1.62L58.337,12.9l4.386,4.421a1.159,1.159,0,0,0,.822.37,1.18,1.18,0,0,0,.822-.37L77.723,3.958l-.012,5.15a1.158,1.158,0,1,0,2.315,0l.012-7.939A1.171,1.171,0,0,0,78.88,0Z" transform="translate(-34.944)" fill="#00b2e2"/>
    </g>
  </g>
</svg>
