<svg id="_001-tow-truck" data-name="001-tow-truck" xmlns="http://www.w3.org/2000/svg" width="55.938" height="55.925" viewBox="0 0 55.938 55.925">
  <g id="Group_4942" data-name="Group 4942" transform="translate(0 0)">
    <path id="Path_3993" data-name="Path 3993" d="M55.842,43.971c-.022-.061-2.22-6.185-3.544-11.126l-.176-.656L37.85,23.949,26.456,26.2l-5.049-2.915A7.646,7.646,0,0,0,10.858,33.546,3.824,3.824,0,1,1,7.1,29.011H8.74v-10.3a5.463,5.463,0,0,0,0-10.422V.059H5.463V8.286a5.463,5.463,0,0,0,0,10.422v7.216a7.1,7.1,0,1,0,7.859,10.334c.139.093.28.184.427.269a6.563,6.563,0,0,0,6.307,8.314,6.6,6.6,0,0,0,1.707-.226,6.515,6.515,0,0,0,2.982-1.738l8.3,4.795a6.563,6.563,0,0,0,6.307,8.313,6.6,6.6,0,0,0,1.707-.226,6.512,6.512,0,0,0,3.06-1.82,8.1,8.1,0,0,0,2.86.522,8.236,8.236,0,0,0,2.134-.283A8.143,8.143,0,0,0,54.1,50.356l1.842-3.208V44.24ZM4.916,13.5A2.185,2.185,0,1,1,7.1,15.682,2.188,2.188,0,0,1,4.916,13.5ZM22.9,39.921a3.277,3.277,0,1,1-1.2-4.477A3.257,3.257,0,0,1,22.9,39.921Zm19.3,11.144a3.277,3.277,0,1,1-1.2-4.477A3.257,3.257,0,0,1,42.207,51.065Zm10.454-4.791h0l-1.4,2.447a4.919,4.919,0,0,1-5.529,2.292A6.555,6.555,0,0,0,34.69,44.833l-8.307-4.8a6.556,6.556,0,0,0-10.995-6.348,4.37,4.37,0,0,1,4.38-7.564l6.116,3.531L37.277,27.4l12.034,6.948c1.211,4.376,2.922,9.255,3.349,10.458v1.464Z" transform="translate(0 -0.059)" fill="#00b2e2"/>
  </g>
</svg>
