<svg xmlns="http://www.w3.org/2000/svg" width="226.001" height="288.539" viewBox="0 0 226.001 288.539">
  <g id="Сгруппировать_9343" data-name="Сгруппировать 9343" transform="translate(-325.05 -4887.5)">
    <path id="Контур_58" data-name="Контур 58" d="M102.446,300.173c-2.918,34.754,13.152,53.306,20.295,60.841,8.144,8.667,27.524,22.472,43.115,29.353s33.752,6.01,47.078-1.437c12.891-7.229,23.561-13.414,40.2-30.05S271.6,315.764,271.6,315.764s1.829-116.978,0-135.7S245.9,157.5,245.9,157.5H149.22c-13.718,0-31.923,27.132-41.939,39.326a21.244,21.244,0,0,0-4.791,13.414v89.933Z" transform="translate(277.04 4731.5)" fill="none" stroke="#fff" stroke-width="3"/>
    <g id="Layer_2" transform="translate(325.05 4938.483)">
      <path id="Контур_58-2" data-name="Контур 58" d="M102.446,300.173c-2.918,34.754,13.152,53.306,20.295,60.841,8.144,8.667,27.524,22.472,43.115,29.353s33.752,6.01,47.078-1.437c12.891-7.229,23.561-13.414,40.2-30.05S271.6,315.764,271.6,315.764s1.829-116.978,0-135.7S245.9,157.5,245.9,157.5H149.22c-13.718,0-31.923,27.132-41.939,39.326a21.244,21.244,0,0,0-4.791,13.414v89.933Z" transform="translate(-102.096 -157.5)" fill="#00b2e2"/>
    </g>
    <g id="question" transform="translate(367.628 5001.689)">
      <g id="Сгруппировать_55" data-name="Сгруппировать 55" transform="translate(0 0)">
        <g id="Сгруппировать_54" data-name="Сгруппировать 54" transform="translate(0 0)">
          <path id="Контур_81" data-name="Контур 81" d="M198.839,139.985c-10.152,0-14.815,6.017-14.815,10.078a4.313,4.313,0,0,0,4.512,4.287c4.061,0,2.406-5.791,10.077-5.791,3.76,0,6.768,1.655,6.768,5.115,0,4.062-4.211,6.393-6.693,8.5-2.181,1.88-5.039,4.964-5.039,11.433,0,3.911,1.053,5.039,4.136,5.039,3.685,0,4.437-1.655,4.437-3.084,0-3.911.075-6.168,4.211-9.4,2.031-1.579,8.423-6.694,8.423-13.764S208.464,139.985,198.839,139.985Z" transform="translate(-155.022 -115.105)" fill="#fff"/>
          <path id="Контур_82" data-name="Контур 82" d="M227.384,343.232a5.792,5.792,0,0,0,0,11.583,5.791,5.791,0,0,0,0-11.583Z" transform="translate(-184.35 -278.655)" fill="#fff"/>
          <path id="Контур_83" data-name="Контур 83" d="M104.138,18.682,75.385,2.1a15.8,15.8,0,0,0-15.744,0L30.888,18.682A15.8,15.8,0,0,0,23,32.336V65.475a15.8,15.8,0,0,0,7.887,13.654L59.641,95.711a15.8,15.8,0,0,0,15.744,0l28.753-16.582a15.8,15.8,0,0,0,7.887-13.654V32.336A15.8,15.8,0,0,0,104.138,18.682Zm.245,46.793a8.141,8.141,0,0,1-4.063,7.033L71.568,89.09a8.141,8.141,0,0,1-8.11,0L34.705,72.508a8.141,8.141,0,0,1-4.063-7.033V32.336A8.14,8.14,0,0,1,34.705,25.3L63.458,8.721a8.14,8.14,0,0,1,8.11,0L100.321,25.3a8.14,8.14,0,0,1,4.062,7.033Z" transform="translate(-23.001 0)" fill="#fff"/>
        </g>
      </g>
    </g>
  </g>
</svg>
