<svg xmlns="http://www.w3.org/2000/svg" width="16.817" height="10.6" viewBox="0 0 16.817 10.6">
  <path id="Контур_14" data-name="Контур 14" d="M92.422,7.437,85.385.41a1.356,1.356,0,0,0-1.943,0l-.82.81a1.322,1.322,0,0,0-.4.971,1.382,1.382,0,0,0,.4.982l5.246,5.235-5.246,5.246a1.322,1.322,0,0,0-.4.971,1.382,1.382,0,0,0,.4.982l.82.81a1.381,1.381,0,0,0,1.943,0l7.038-7.027a1.382,1.382,0,0,0,.4-.982A1.322,1.322,0,0,0,92.422,7.437Z" transform="translate(16.817 -82.222) rotate(90)" fill="#00b2e2"/>
</svg>
