<svg xmlns="http://www.w3.org/2000/svg" width="20.68" height="23.351" viewBox="0 0 20.68 23.351">
  <path id="Path_3728" data-name="Path 3728" d="M50.875,8.353h-.561V5.647a.4.4,0,0,0,0-.051.449.449,0,0,0-.109-.3L45.7.156l0,0A.45.45,0,0,0,45.6.077l-.03-.018a.48.48,0,0,0-.09-.038L45.459.013A.464.464,0,0,0,45.354,0H34.289a.917.917,0,0,0-.916.916V8.352h-.561A1.309,1.309,0,0,0,31.5,9.661v6.806a1.309,1.309,0,0,0,1.309,1.309h.561v4.659a.917.917,0,0,0,.916.916H49.4a.917.917,0,0,0,.916-.916V17.776h.561a1.309,1.309,0,0,0,1.309-1.309V9.661A1.309,1.309,0,0,0,50.875,8.353ZM34.289.916H44.9V5.6a.458.458,0,0,0,.458.458H49.4V8.353H34.289ZM49.4,22.188H34.289V17.776H49.4v4.411Z" transform="translate(-31.504)" fill="#f9385e"/>
</svg>
