<svg id="_007-bank-1" data-name="007-bank-1" xmlns="http://www.w3.org/2000/svg" width="55.327" height="55.324" viewBox="0 0 55.327 55.324">
  <g id="Group_4958" data-name="Group 4958" transform="translate(23.977 26.74)">
    <g id="Group_4957" data-name="Group 4957">
      <path id="Path_4032" data-name="Path 4032" d="M211.72,238.471a1.844,1.844,0,1,1,1.844-1.844h1.844a3.688,3.688,0,0,0-2.766-3.557v-1.053H210.8v1.053a3.681,3.681,0,0,0,.922,7.246,1.844,1.844,0,1,1-1.844,1.844h-1.844a3.688,3.688,0,0,0,2.766,3.557v1.053h1.844v-1.053a3.681,3.681,0,0,0-.922-7.246Z" transform="translate(-208.032 -232.017)" fill="#999eb1"/>
    </g>
  </g>
  <g id="Group_4960" data-name="Group 4960" transform="translate(15.679 22.13)">
    <g id="Group_4959" data-name="Group 4959">
      <path id="Path_4033" data-name="Path 4033" d="M148.019,192.017A11.987,11.987,0,1,0,160.006,204,11.987,11.987,0,0,0,148.019,192.017Zm0,22.129A10.143,10.143,0,1,1,158.161,204,10.143,10.143,0,0,1,148.019,214.146Z" transform="translate(-136.032 -192.017)" fill="#999eb1"/>
    </g>
  </g>
  <g id="Group_4962" data-name="Group 4962" transform="translate(0 0)">
    <g id="Group_4961" data-name="Group 4961" transform="translate(0)">
      <path id="Path_4034" data-name="Path 4034" d="M54.405,20.3a.922.922,0,0,0,.922-.922V15.69c0-.012-.006-.021-.006-.033a.908.908,0,0,0-.06-.294.055.055,0,0,0-.008-.035.922.922,0,0,0-.184-.271,1.039,1.039,0,0,0-.086-.068.927.927,0,0,0-.134-.105L28.109.13a.916.916,0,0,0-.891,0L.479,14.883a.927.927,0,0,0-.134.105,1.041,1.041,0,0,0-.086.068.922.922,0,0,0-.184.271.055.055,0,0,1-.008.035.908.908,0,0,0-.06.294c0,.012-.006.021-.006.033v3.688a.922.922,0,0,0,.922.922h2.77V47.962H.926A.922.922,0,0,0,0,48.884v5.532a.922.922,0,0,0,.922.922h53.48a.922.922,0,0,0,.922-.922V48.884a.922.922,0,0,0-.922-.922H51.639V20.3ZM27.666,1.99,50.825,14.768H4.506ZM53.483,49.807v3.688H1.848V49.807ZM5.536,47.962V20.3H9.224V47.962Zm5.532,0V20.3H44.263V47.962Zm35.038,0V20.3H49.8V47.962ZM1.848,18.456V16.612H53.483v1.844Z" transform="translate(0 -0.015)" fill="#999eb1"/>
    </g>
  </g>
</svg>
