<svg xmlns="http://www.w3.org/2000/svg" width="50.809" height="50.823" viewBox="0 0 50.809 50.823">
  <g id="_006-bank" data-name="006-bank" transform="translate(0.5 0.515)">
    <path id="Path_4020" data-name="Path 4020" d="M51.016,23.133H2.9a.712.712,0,0,1-.712-.712v-5.19a.712.712,0,0,1,.344-.609L26.587,2.1a.712.712,0,0,1,.735,0l24.061,14.52a.712.712,0,0,1,.344.609v5.19A.712.712,0,0,1,51.016,23.133ZM3.617,21.71H50.3V17.633L26.956,3.543,3.617,17.632Z" transform="translate(-2.056 -2)" fill="#999eb1" stroke="#999eb1" stroke-width="1"/>
    <path id="Path_4021" data-name="Path 4021" d="M35.275,20.863a4.256,4.256,0,1,1,4.256-4.256,4.256,4.256,0,0,1-4.256,4.256Zm0-7.089a2.833,2.833,0,1,0,2.833,2.833A2.833,2.833,0,0,0,35.275,13.773Z" transform="translate(-10.37 -4.986)" fill="#999eb1" stroke="#999eb1" stroke-width="1"/>
    <path id="Path_4022" data-name="Path 4022" d="M61.28,35.618H53.708a1.539,1.539,0,0,1-1.537-1.538V30.412a.712.712,0,0,1,.712-.712h9.222a.712.712,0,0,1,.712.712v3.671a1.539,1.539,0,0,1-1.537,1.536Zm-7.685-4.5V34.08a.115.115,0,0,0,.114.115H61.28a.115.115,0,0,0,.114-.115V31.123Z" transform="translate(-16.472 -9.99)" fill="#999eb1" stroke="#999eb1" stroke-width="1"/>
    <path id="Path_4023" data-name="Path 4023" d="M61.23,51.813H54.95a.712.712,0,0,1-.712-.712V36.728a.712.712,0,0,1,.712-.712h6.28a.712.712,0,0,1,.712.712V51.1A.712.712,0,0,1,61.23,51.813Zm-5.569-1.423h4.857V37.439H55.661Z" transform="translate(-17.068 -11.812)" fill="#999eb1" stroke="#999eb1" stroke-width="1"/>
    <path id="Path_4024" data-name="Path 4024" d="M62.105,62.136H52.883a.712.712,0,0,1-.712-.712V57.754a1.539,1.539,0,0,1,1.537-1.538H61.28a1.539,1.539,0,0,1,1.537,1.538v3.671a.712.712,0,0,1-.712.712Zm-8.511-1.423h7.8V57.754a.115.115,0,0,0-.114-.115H53.708a.115.115,0,0,0-.114.115Z" transform="translate(-16.472 -17.639)" fill="#999eb1" stroke="#999eb1" stroke-width="1"/>
    <path id="Path_4025" data-name="Path 4025" d="M38.628,35.618H31.057A1.539,1.539,0,0,1,29.52,34.08V30.412a.712.712,0,0,1,.712-.712h9.222a.712.712,0,0,1,.712.712v3.671a1.539,1.539,0,0,1-1.537,1.536Zm-7.685-4.495v2.959a.115.115,0,0,0,.114.115h7.571a.115.115,0,0,0,.114-.115V31.123Z" transform="translate(-9.938 -9.99)" fill="#999eb1" stroke="#999eb1" stroke-width="1"/>
    <path id="Path_4026" data-name="Path 4026" d="M38.573,51.813H32.312A.712.712,0,0,1,31.6,51.1V36.728a.712.712,0,0,1,.712-.712h6.262a.712.712,0,0,1,.712.712V51.1A.712.712,0,0,1,38.573,51.813Zm-5.55-1.423h4.839V37.439H33.023Z" transform="translate(-10.538 -11.812)" fill="#999eb1" stroke="#999eb1" stroke-width="1"/>
    <path id="Path_4027" data-name="Path 4027" d="M39.453,62.136H30.232a.712.712,0,0,1-.712-.712V57.754a1.539,1.539,0,0,1,1.537-1.538h7.571a1.539,1.539,0,0,1,1.537,1.538v3.671A.712.712,0,0,1,39.453,62.136Zm-8.511-1.423h7.8V57.754a.115.115,0,0,0-.114-.115H31.057a.115.115,0,0,0-.114.115Z" transform="translate(-9.938 -17.639)" fill="#999eb1" stroke="#999eb1" stroke-width="1"/>
    <path id="Path_4028" data-name="Path 4028" d="M16.977,35.618H9.4A1.539,1.539,0,0,1,7.868,34.08V30.412A.712.712,0,0,1,8.58,29.7H17.8a.712.712,0,0,1,.712.712v3.671a1.539,1.539,0,0,1-1.537,1.536ZM9.291,31.123v2.959A.115.115,0,0,0,9.4,34.2h7.572a.115.115,0,0,0,.114-.115V31.123Z" transform="translate(-3.693 -9.99)" fill="#999eb1" stroke="#999eb1" stroke-width="1"/>
    <path id="Path_4029" data-name="Path 4029" d="M16.944,51.813H10.612A.712.712,0,0,1,9.9,51.1V36.728a.712.712,0,0,1,.712-.712h6.333a.712.712,0,0,1,.712.712V51.1A.712.712,0,0,1,16.944,51.813Zm-5.621-1.423h4.91V37.439h-4.91Z" transform="translate(-4.279 -11.812)" fill="#999eb1" stroke="#999eb1" stroke-width="1"/>
    <path id="Path_4030" data-name="Path 4030" d="M17.8,62.136H8.58a.712.712,0,0,1-.712-.712V57.754A1.539,1.539,0,0,1,9.4,56.216h7.572a1.539,1.539,0,0,1,1.537,1.538v3.671a.712.712,0,0,1-.712.712ZM9.291,60.713h7.8V57.754a.115.115,0,0,0-.114-.115H9.4a.115.115,0,0,0-.114.115Z" transform="translate(-3.693 -17.639)" fill="#999eb1" stroke="#999eb1" stroke-width="1"/>
    <path id="Path_4031" data-name="Path 4031" d="M51.1,69.27H2.712A.712.712,0,0,1,2,68.559V63.248a.712.712,0,0,1,.712-.712H51.1a.712.712,0,0,1,.712.712v5.311A.712.712,0,0,1,51.1,69.27ZM3.423,67.847H50.386V63.959H3.423Z" transform="translate(-2 -19.461)" fill="#999eb1" stroke="#999eb1" stroke-width="1"/>
  </g>
</svg>
