<svg xmlns="http://www.w3.org/2000/svg" width="26.882" height="24.794" viewBox="0 0 26.882 24.794">
  <g id="printer" transform="translate(0 -9.633)">
    <path id="Path_4035" data-name="Path 4035" d="M24.985,15.362H21.974V10.446a.813.813,0,0,0-.813-.813H5.72a.813.813,0,0,0-.813.813v4.916H1.9a1.9,1.9,0,0,0-1.9,1.9V27.686a1.9,1.9,0,0,0,1.9,1.9H4.907v4.032a.813.813,0,0,0,.813.813H21.161a.813.813,0,0,0,.813-.813V29.583h3.011a1.9,1.9,0,0,0,1.9-1.9V17.258A1.9,1.9,0,0,0,24.985,15.362Zm-18.452-4.1H20.349v4.1H6.533ZM20.349,32.8H6.533V24.738H20.349Zm4.908-5.115a.275.275,0,0,1-.271.271H21.974V23.926a.813.813,0,0,0-.813-.813H5.72a.813.813,0,0,0-.813.813v4.031H1.9a.275.275,0,0,1-.271-.271V17.258a.274.274,0,0,1,.271-.271H24.985a.274.274,0,0,1,.271.271V27.686Z" fill="#00b2e2"/>
    <circle id="Ellipse_59" data-name="Ellipse 59" cx="1.156" cy="1.156" r="1.156" transform="translate(20.005 18.894)" fill="#00b2e2"/>
    <path id="Path_4036" data-name="Path 4036" d="M90.615,163.822h-7.4a.813.813,0,1,0,0,1.626h7.4a.813.813,0,1,0,0-1.626Z" transform="translate(-73.477 -137.48)" fill="#00b2e2"/>
    <path id="Path_4037" data-name="Path 4037" d="M90.615,193.623h-7.4a.813.813,0,0,0,0,1.626h7.4a.813.813,0,0,0,0-1.626Z" transform="translate(-73.477 -164.051)" fill="#00b2e2"/>
  </g>
</svg>
