<svg xmlns="http://www.w3.org/2000/svg" width="27.041" height="21.442" viewBox="0 0 27.041 21.442">
  <path id="Контур_3741" data-name="Контур 3741" d="M1.923-32.678l-.762-1.257q6.475-3.428,6.475-6.475,0-1.295-2.437-2.552a9.019,9.019,0,0,1-3.028-2.285,4.823,4.823,0,0,1-.857-2.971,5.685,5.685,0,0,1,1.733-4.17A5.642,5.642,0,0,1,7.179-54.12,5.219,5.219,0,0,1,11.5-51.987a8.808,8.808,0,0,1,1.657,5.561,12.855,12.855,0,0,1-4.266,9.674A16.906,16.906,0,0,1,6.056-34.6,32.654,32.654,0,0,1,1.923-32.678Zm-15.044,0-.762-1.257q6.475-3.466,6.475-6.475a1.783,1.783,0,0,0-.533-1.276,7.91,7.91,0,0,0-1.9-1.276,8.46,8.46,0,0,1-2.99-2.266,4.86,4.86,0,0,1-.9-2.99,5.7,5.7,0,0,1,1.714-4.189A5.61,5.61,0,0,1-7.9-54.12a5.256,5.256,0,0,1,4.361,2.133,8.808,8.808,0,0,1,1.657,5.561,12.763,12.763,0,0,1-1.085,5.18,13.8,13.8,0,0,1-3.218,4.494A22.594,22.594,0,0,1-13.121-32.678Z" transform="translate(13.159 -32.678) rotate(180)" fill="#00b2e2"/>
</svg>
