<svg xmlns="http://www.w3.org/2000/svg" width="16.568" height="22.354" viewBox="0 0 16.568 22.354">
  <g id="Layer_2" transform="translate(-101.095 -156.5)">
    <path id="Контур_15" data-name="Контур 15" d="M102.126,169.7a6.336,6.336,0,0,0,1.735,5.2,13.7,13.7,0,0,0,3.686,2.509,4.62,4.62,0,0,0,4.025-.123,13.426,13.426,0,0,0,3.436-2.569,6.474,6.474,0,0,0,1.579-3.686s.156-10,0-11.6-2.2-1.929-2.2-1.929h-8.265c-1.173,0-2.729,2.32-3.585,3.362a1.816,1.816,0,0,0-.41,1.147V169.7Z" transform="translate(0 0)" fill="none" stroke="#fff" stroke-width="2"/>
  </g>
</svg>
