<svg xmlns="http://www.w3.org/2000/svg" xmlns:xlink="http://www.w3.org/1999/xlink" width="193" height="193"><rect id="backgroundrect" width="100%" height="100%" x="0" y="0" fill="none" stroke="none"/>
  <defs>
    <filter id="our-clients-authorites-icon-background" x="0" y="0" width="235" height="235" filterUnits="userSpaceOnUse">
      <feOffset dx="5" dy="16" input="SourceAlpha"/>
      <!-- <feGaussianBlur stdDeviation="7" result="blur"/> -->
      <feFlood flood-color="#41578d" flood-opacity="0.051"/>
      <feComposite operator="in" in2="blur"/>
      <feComposite in="SourceGraphic"/>
    </filter>
  </defs>
  
<g class="currentLayer" style=""><title>Layer 1</title><g id="Сгруппировать_9342" data-name="Сгруппировать 9342" class="">
    <g filter="url(#our-clients-authorites-icon-background)" id="svg_1">
      <circle id="Эллипс_38-2" data-name="Эллипс 38" cx="-1329.5" cy="-4009.5" r="96.5" transform="matrix(1,0,0,1,1426,4106) " fill="#fff" stroke-width="0"/>
    </g>
    <g id="_006-bank" data-name="006-bank">
      <path id="Контур_4020" data-name="Контур 4020" d="M139.4769736342132,83.00599999999986 H52.949973634213165 a1.28,1.28 0 0 1 -1.28,-1.28 V72.39300000000003 a1.28,1.28 0 0 1 0.6180000000000004,-1.1 L95.54097363421329,45.184000000000204 a1.28,1.28 0 0 1 1.322,0 L140.13397363421313,71.30000000000018 a1.28,1.28 0 0 1 0.6180000000000004,1.1 v9.334 A1.28,1.28 0 0 1 139.4769736342132,83.00599999999986 zM54.230973634213115,80.44700000000012 H138.1939736342133 V73.11400000000003 L96.2039736342133,47.77400000000034 L54.230973634213115,73.11200000000008 z" fill="#1db2e2" stroke="#1db2e2" stroke-width="1"/>
      <path id="Контур_4021" data-name="Контур 4021" d="M96.21197380828858,73.55299998092642 A7.654,7.654 0 1 1 103.8649738082886,65.89499998092651 a7.654,7.654 0 0 1 -7.654,7.654 zm0,-12.749 A5.094,5.094 0 1 0 101.30597380828863,65.89499998092651 A5.094,5.094 0 0 0 96.21197380828858,60.80399998092662 z" fill="#1db2e2" stroke="#1db2e2" stroke-width="1"/>
      <path id="Контур_4022" data-name="Контур 4022" d="M132.0069732208251,91.09000021743759 H118.38997322082514 a2.7680000000000002,2.7680000000000002 0 0 1 -2.7640000000000002,-2.765 v-6.6 a1.28,1.28 0 0 1 1.28,-1.28 H133.49197322082523 a1.28,1.28 0 0 1 1.28,1.28 v6.6 a2.7680000000000002,2.7680000000000002 0 0 1 -2.7640000000000002,2.762 zm-13.82,-8.088 v5.322 a0.20600000000000004,0.20600000000000004 0 0 0 0.2,0.20600000000000004 H132.0069732208251 a0.20600000000000004,0.20600000000000004 0 0 0 0.2,-0.20600000000000004 V83.00600021743776 z" fill="#1db2e2" stroke="#1db2e2" stroke-width="1"/>
      <path id="Контур_4023" data-name="Контур 4023" d="M130.84497328948964,116.93799953460712 H119.55097328948978 a1.28,1.28 0 0 1 -1.28,-1.28 V89.81299953460712 a1.28,1.28 0 0 1 1.28,-1.28 H130.84497328948964 a1.28,1.28 0 0 1 1.28,1.28 V115.65799953460692 A1.28,1.28 0 0 1 130.84497328948964,116.93799953460712 zM120.8329732894897,114.37799953460672 h8.735 V91.08799953460675 H120.8329732894897 z" fill="#1db2e2" stroke="#1db2e2" stroke-width="1"/>
      <path id="Контур_4024" data-name="Контур 4024" d="M133.49197322082523,125.02600010681135 H116.90597322082522 a1.28,1.28 0 0 1 -1.28,-1.28 v-6.6 a2.7680000000000002,2.7680000000000002 0 0 1 2.7640000000000002,-2.765 H132.0069732208251 a2.7680000000000002,2.7680000000000002 0 0 1 2.7640000000000002,2.765 v6.6 a1.28,1.28 0 0 1 -1.28,1.28 zM118.18497322082521,122.4630001068117 H132.21197322082526 V117.14400010681175 a0.20600000000000004,0.20600000000000004 0 0 0 -0.2,-0.20600000000000004 H118.38997322082514 a0.20600000000000004,0.20600000000000004 0 0 0 -0.2,0.20600000000000004 z" fill="#1db2e2" stroke="#1db2e2" stroke-width="1"/>
      <path id="Контур_4025" data-name="Контур 4025" d="M103.01997365951547,91.09000021743759 H89.40397365951549 a2.7680000000000002,2.7680000000000002 0 0 1 -2.7640000000000002,-2.765 v-6.6 A1.28,1.28 0 0 1 87.91997365951534,80.44700021743756 H104.5039736595154 a1.28,1.28 0 0 1 1.28,1.28 v6.6 A2.7680000000000002,2.7680000000000002 0 0 1 103.01997365951547,91.09000021743759 zm-13.82,-8.084 v5.322 a0.20600000000000004,0.20600000000000004 0 0 0 0.2,0.20600000000000004 H103.01997365951547 a0.20600000000000004,0.20600000000000004 0 0 0 0.2,-0.20600000000000004 V83.00600021743776 z" fill="#1db2e2" stroke="#1db2e2" stroke-width="1"/>
      <path id="Контур_4026" data-name="Контур 4026" d="M101.84197351074226,116.93799953460712 H90.5809735107423 a1.28,1.28 0 0 1 -1.28,-1.28 V89.81299953460712 a1.28,1.28 0 0 1 1.28,-1.28 H101.84197351074226 a1.28,1.28 0 0 1 1.28,1.28 V115.65799953460692 A1.28,1.28 0 0 1 101.84197351074226,116.93799953460712 zm-9.981,-2.559 h8.7 V91.08799953460675 h-8.7 z" fill="#1db2e2" stroke="#1db2e2" stroke-width="1"/>
      <path id="Контур_4027" data-name="Контур 4027" d="M104.5039736595154,125.02600010681135 H87.91997365951534 a1.28,1.28 0 0 1 -1.28,-1.28 v-6.6 a2.7680000000000002,2.7680000000000002 0 0 1 2.7640000000000002,-2.765 H103.01997365951547 a2.7680000000000002,2.7680000000000002 0 0 1 2.7640000000000002,2.765 v6.6 A1.28,1.28 0 0 1 104.5039736595154,125.02600010681135 zM89.19797365951536,122.4630001068117 H103.21997365951529 V117.14400010681175 a0.20600000000000004,0.20600000000000004 0 0 0 -0.2,-0.20600000000000004 H89.40397365951549 a0.20600000000000004,0.20600000000000004 0 0 0 -0.2,0.20600000000000004 z" fill="#1db2e2" stroke="#1db2e2" stroke-width="1"/>
      <path id="Контур_4028" data-name="Контур 4028" d="M75.31297366523745,91.09000021743759 H61.69597366523749 a2.7680000000000002,2.7680000000000002 0 0 1 -2.7640000000000002,-2.765 v-6.6 a1.28,1.28 0 0 1 1.28,-1.28 H76.79797366523735 a1.28,1.28 0 0 1 1.28,1.28 v6.6 a2.7680000000000002,2.7680000000000002 0 0 1 -2.7640000000000002,2.762 zM61.490973665237334,83.00600021743776 v5.322 a0.20600000000000004,0.20600000000000004 0 0 0 0.2,0.20600000000000004 H75.31297366523745 a0.20600000000000004,0.20600000000000004 0 0 0 0.2,-0.20600000000000004 V83.00600021743776 z" fill="#1db2e2" stroke="#1db2e2" stroke-width="1"/>
      <path id="Контур_4029" data-name="Контур 4029" d="M74.20097374343868,116.93799953460712 H62.811973743438784 a1.28,1.28 0 0 1 -1.28,-1.28 V89.81299953460712 a1.28,1.28 0 0 1 1.28,-1.28 H74.20097374343868 a1.28,1.28 0 0 1 1.28,1.28 V115.65799953460692 A1.28,1.28 0 0 1 74.20097374343868,116.93799953460712 zM64.09097374343878,114.37799953460672 h8.83 V91.08799953460675 h-8.83 z" fill="#1db2e2" stroke="#1db2e2" stroke-width="1"/>
      <path id="Контур_4030" data-name="Контур 4030" d="M76.79797366523735,125.02600010681135 H60.21197366523734 a1.28,1.28 0 0 1 -1.28,-1.28 v-6.6 a2.7680000000000002,2.7680000000000002 0 0 1 2.7640000000000002,-2.765 H75.31297366523745 a2.7680000000000002,2.7680000000000002 0 0 1 2.7640000000000002,2.765 v6.6 a1.28,1.28 0 0 1 -1.28,1.28 zM61.490973665237334,122.4630001068117 H75.51797366523738 V117.14400010681175 a0.20600000000000004,0.20600000000000004 0 0 0 -0.2,-0.20600000000000004 H61.69597366523749 a0.20600000000000004,0.20600000000000004 0 0 0 -0.2,0.20600000000000004 z" fill="#1db2e2" stroke="#1db2e2" stroke-width="1"/>
      <path id="Контур_4031" data-name="Контур 4031" d="M139.72297363281245,134.57700030517572 H52.70297363281247 A1.28,1.28 0 0 1 51.4229736328125,133.29700030517597 V123.74600030517558 a1.28,1.28 0 0 1 1.28,-1.28 H139.72297363281245 a1.28,1.28 0 0 1 1.28,1.28 v9.551 A1.28,1.28 0 0 1 139.72297363281245,134.57700030517572 zM53.98197363281247,132.01700030517577 H138.44097363281253 V125.03000030517569 H53.98197363281247 z" fill="#1db2e2" stroke="#1db2e2" stroke-width="1"/>
    </g>
  </g></g></svg>