<svg xmlns="http://www.w3.org/2000/svg" xmlns:xlink="http://www.w3.org/1999/xlink" width="193" height="193"><rect id="backgroundrect" width="100%" height="100%" x="0" y="0" fill="none" stroke="none"/>
  <defs>
    <filter id="our-clients-bank-icon-background" x="0" y="0" width="235" height="235" filterUnits="userSpaceOnUse">
      <feOffset dx="5" dy="16" input="SourceAlpha"/>
      <!-- <feGaussianBlur stdDeviation="7" result="blur"/> -->
      <feFlood flood-color="#41578d" flood-opacity="0.051"/>
      <feComposite operator="in" in2="blur"/>
      <feComposite in="SourceGraphic"/>
    </filter>
  </defs>
  
<g class="currentLayer" style=""><title>Layer 1</title><g id="Сгруппировать_9339" data-name="Сгруппировать 9339" class="">
    <g filter="url(#our-clients-bank-icon-background)" id="svg_1">
      <circle id="Эллипс_37-2" data-name="Эллипс 37" cx="-157.5" cy="-4009.5" r="96.5" transform="matrix(1,0,0,1,254,4106) " fill="#1db2e2" stroke-width="0"/>
    </g>
    <g id="_007-bank-1" data-name="007-bank-1">
      <g id="Сгруппировать_4958" data-name="Сгруппировать 4958">
        <g id="Сгруппировать_4957" data-name="Сгруппировать 4957">
          <path id="Контур_4032" data-name="Контур 4032" d="M96.75400070190426,105.6978645324707 a3.316,3.316 0 1 1 3.316,-3.317 H103.38900070190431 a6.633,6.633 0 0 0 -4.975,-6.4 v-1.8940000000000001 h-3.316 v1.8940000000000001 a6.62,6.62 0 0 0 1.6580000000000008,13.031 a3.317,3.317 0 1 1 -3.317,3.317 h-3.316 a6.633,6.633 0 0 0 4.975,6.4 v1.8940000000000001 h3.316 v-1.8940000000000001 a6.62,6.62 0 0 0 -1.6580000000000008,-13.031 z" fill="#fff"/>
        </g>
      </g>
      <g id="Сгруппировать_4960" data-name="Сгруппировать 4960">
        <g id="Сгруппировать_4959" data-name="Сгруппировать 4959">
          <path id="Контур_4033" data-name="Контур 4033" d="M96.75400282287598,85.797864715576 a21.557,21.557 0 1 0 21.557,21.557 A21.557,21.557 0 0 0 96.75400282287598,85.797864715576 zm0,39.8 a18.241,18.241 0 1 1 18.241,-18.241 A18.241,18.241 0 0 1 96.75400282287598,125.59586471557623 z" fill="#fff"/>
        </g>
      </g>
      <g id="Сгруппировать_4962" data-name="Сгруппировать 4962">
        <g id="Сгруппировать_4961" data-name="Сгруппировать 4961">
          <path id="Контур_4034" data-name="Контур 4034" d="M144.844,82.48486328125 A1.6580000000000008,1.6580000000000008 0 0 0 146.5,80.82386328124994 V74.19086328125013 c0,-0.022000000000000033 -0.012000000000000009,-0.03800000000000001 -0.012000000000000009,-0.06000000000000005 a1.6340000000000003,1.6340000000000003 0 0 0 -0.10800000000000007,-0.529 a0.1,0.1 0 0 0 -0.015000000000000015,-0.06300000000000007 a1.6590000000000007,1.6590000000000007 0 0 0 -0.3320000000000004,-0.48800000000000027 a1.868,1.868 0 0 0 -0.15400000000000014,-0.12300000000000007 a1.6680000000000001,1.6680000000000001 0 0 0 -0.24000000000000013,-0.18900000000000014 L97.55199999999999,46.207863281249956 a1.6480000000000001,1.6480000000000001 0 0 0 -1.6,0 L47.86099999999999,72.73986328125011 a1.6670000000000007,1.6670000000000007 0 0 0 -0.24000000000000013,0.18900000000000014 a1.872,1.872 0 0 0 -0.15400000000000014,0.12300000000000007 a1.6590000000000007,1.6590000000000007 0 0 0 -0.3320000000000004,0.48800000000000027 a0.1,0.1 0 0 1 -0.015000000000000015,0.06300000000000007 a1.6340000000000003,1.6340000000000003 0 0 0 -0.10800000000000007,0.529 c0,0.022000000000000033 -0.012000000000000009,0.03800000000000001 -0.012000000000000009,0.06000000000000005 v6.633 A1.6580000000000008,1.6580000000000008 0 0 0 48.65799999999999,82.48486328125 H53.639999999999986 V132.2298632812499 H48.66499999999999 A1.6580000000000008,1.6580000000000008 0 0 0 47.007000000000005,133.8848632812501 v9.95 a1.6580000000000008,1.6580000000000008 0 0 0 1.6580000000000008,1.6580000000000008 H144.844 A1.6580000000000008,1.6580000000000008 0 0 0 146.5,143.83686328124986 V133.8848632812501 a1.6580000000000008,1.6580000000000008 0 0 0 -1.6580000000000008,-1.6580000000000008 H139.869 V82.48486328125 zM96.75399999999999,49.55186328125001 L138.4,72.53186328125003 H55.099999999999994 zM143.185,135.54586328125015 v6.633 H50.32300000000001 V135.54586328125015 zM56.95599999999999,132.2298632812499 V82.48486328125 h6.633 V132.2298632812499 zm9.95,0 V82.48486328125 H126.6 V132.2298632812499 zm63.014,0 V82.48486328125 h6.633 V132.2298632812499 zM50.32300000000001,79.16486328124984 V75.84886328125003 H143.185 V79.16486328124984 z" fill="#fff"/>
        </g>
      </g>
    </g>
  </g></g></svg>