<svg xmlns="http://www.w3.org/2000/svg" xmlns:xlink="http://www.w3.org/1999/xlink" width="193" height="193"><rect id="backgroundrect" width="100%" height="100%" x="0" y="0" fill="none" stroke="none"/>
  <defs>
    <filter id="our-clients-investors-icon-background" x="0" y="0" width="235" height="235" filterUnits="userSpaceOnUse">
      <feOffset dx="5" dy="16" input="SourceAlpha"/>
      <!-- <feGaussianBlur stdDeviation="7" result="blur"/> -->
      <feFlood flood-color="#41578d" flood-opacity="0.051"/>
      <feComposite operator="in" in2="blur"/>
      <feComposite in="SourceGraphic"/>
    </filter>
  </defs>
  
<g class="currentLayer" style=""><title>Layer 1</title><g id="Сгруппировать_9340" data-name="Сгруппировать 9340" class="">
    <g filter="url(#our-clients-investors-icon-background)" id="svg_1">
      <circle id="Эллипс_36-2" data-name="Эллипс 36" cx="-544.5" cy="-4009.5" r="96.5" transform="matrix(1,0,0,1,641,4106) " fill="#fff" stroke-width="0"/>
    </g>
    <g id="_003-profits" data-name="003-profits">
      <g id="Сгруппировать_4944" data-name="Сгруппировать 4944">
        <g id="Сгруппировать_4943" data-name="Сгруппировать 4943">
          <path id="Контур_4003" data-name="Контур 4003" d="M108.97502874755861,88.41999816894531 v24.54 a20.226,20.226 0 0 1 3.955,-2.394 V88.41999816894531 z" fill="#1db2e2"/>
        </g>
      </g>
      <g id="Сгруппировать_4946" data-name="Сгруппировать 4946">
        <g id="Сгруппировать_4945" data-name="Сгруппировать 4945">
          <path id="Контур_4004" data-name="Контур 4004" d="M125.21002935791012,77.59700012207031 v31.346 a17.357,17.357 0 0 1 3.955,1.062 V77.59700012207031 z" fill="#1db2e2"/>
        </g>
      </g>
      <g id="Сгруппировать_4948" data-name="Сгруппировать 4948">
        <g id="Сгруппировать_4947" data-name="Сгруппировать 4947">
          <path id="Контур_4005" data-name="Контур 4005" d="M130.08103656005858,115.06100555419926 a16.08,16.08 0 0 0 -7.077,-2.248 h-0.02100000000000002 c-0.4370000000000003,-0.04200000000000004 -0.8530000000000005,-0.06200000000000006 -1.29,-0.06200000000000006 a16.153,16.153 0 0 0 -5.62,1 a1.9769999999999999,1.9769999999999999 0 0 1 -0.6870000000000008,0.271 a16.458,16.458 0 1 0 14.695,1.041 zM121.6930365600586,127.55100555419904 a6.777,6.777 0 0 1 2.477,13.092 v1.145 a2.081,2.081 0 1 1 -4.163,0 V140.85100555419922 a6.815,6.815 0 0 1 -5.079,-6.556 v-0.02100000000000002 a2.022,2.022 0 0 1 2.04,-2.061 a2.087,2.087 0 0 1 2.081,2.081 a2.612,2.612 0 1 0 2.623,-2.6 a6.7,6.7 0 0 1 -6.515,-5.079 a6.789,6.789 0 0 1 4.87,-8.263 V116.85100555419922 a2.081,2.081 0 0 1 4.163,0 v1.7280000000000002 a6.8,6.8 0 0 1 4.309,6.327 a2.11,2.11 0 0 1 -2.123,2.081 a2.087,2.087 0 0 1 -2.081,-2.081 a2.612,2.612 0 1 0 -2.6,2.6430000000000002 z" fill="#1db2e2"/>
        </g>
      </g>
      <g id="Сгруппировать_4950" data-name="Сгруппировать 4950">
        <g id="Сгруппировать_4949" data-name="Сгруппировать 4949">
          <rect id="Прямоугольник_101" data-name="Прямоугольник 101" width="3.9549999237060547" height="28.722999572753906" fill="#1db2e2" y="105.07099914550781" x="76.29703140258789"/>
        </g>
      </g>
      <g id="Сгруппировать_4952" data-name="Сгруппировать 4952">
        <g id="Сгруппировать_4951" data-name="Сгруппировать 4951">
          <rect id="Прямоугольник_102" data-name="Прямоугольник 102" width="3.9549999237060547" height="33.51100158691406" fill="#1db2e2" y="100.28400039672852" x="92.74002838134766"/>
        </g>
      </g>
      <g id="Сгруппировать_4954" data-name="Сгруппировать 4954">
        <g id="Сгруппировать_4953" data-name="Сгруппировать 4953">
          <rect id="Прямоугольник_103" data-name="Прямоугольник 103" width="3.9549999237060547" height="10.822999954223633" fill="#1db2e2" y="122.97100067138672" x="59.85403060913086"/>
        </g>
      </g>
      <g id="Сгруппировать_4956" data-name="Сгруппировать 4956">
        <g id="Сгруппировать_4955" data-name="Сгруппировать 4955">
          <path id="Контур_4006" data-name="Контур 4006" d="M133.0150302734375,47 L118.77803027343748,47.02099999999973 a2.082,2.082 0 0 0 -0.04200000000000004,4.163 h0.04200000000000004 l9.221,-0.02100000000000002 L105.41603027343751,73.66300000000001 l-7.889,-7.8260000000000005 a2.2880000000000003,2.2880000000000003 0 0 0 -2.956,0 L54.6090302734375,105.80000000000018 a2.075,2.075 0 0 0 2.956,2.914 L96.07003027343751,70.20800000000008 L103.95603027343748,78.1590000000001 a2.084,2.084 0 0 0 1.478,0.6660000000000008 a2.122,2.122 0 0 0 1.478,-0.6660000000000008 l24.019,-24.04 l-0.02100000000000002,9.262 a2.082,2.082 0 1 0 4.163,0 L135.0970302734375,49.100000000000364 A2.105,2.105 0 0 0 133.0150302734375,47 z" fill="#1db2e2"/>
        </g>
      </g>
    </g>
  </g></g></svg>