<svg xmlns="http://www.w3.org/2000/svg" xmlns:xlink="http://www.w3.org/1999/xlink" width="193" height="193" style=""><rect id="backgroundrect" width="100%" height="100%" x="0" y="0" fill="none" stroke="none"/>
  <defs>
    <filter id="our-clients-repossession-icon-background" x="0" y="0" width="235" height="235" filterUnits="userSpaceOnUse">
      <feOffset dx="5" dy="16" input="SourceAlpha"/>
      <!-- <feGaussianBlur stdDeviation="7" result="blur"/> -->
      <feFlood flood-color="#41578d" flood-opacity="0.051"/>
      <feComposite operator="in" in2="blur"/>
      <feComposite in="SourceGraphic"/>
    </filter>
  </defs>
  
<g class="currentLayer" style=""><title>Layer 1</title><g id="Сгруппировать_9341" data-name="Сгруппировать 9341" class="">
    <g filter="url(#our-clients-repossession-icon-background)" id="svg_1">
      <circle id="Эллипс_35-2" data-name="Эллипс 35" cx="-934.5" cy="-4009.5" r="96.5" transform="matrix(1,0,0,1,1031,4106) " fill="#fff" stroke-width="0"/>
    </g>
    <g id="_001-tow-truck" data-name="001-tow-truck">
      <g id="Сгруппировать_4942" data-name="Сгруппировать 4942">
        <path id="Контур_3993" data-name="Контур 3993" d="M147.42700000000002,124.97191796874995 c-0.040000000000000036,-0.11000000000000007 -3.992,-11.123 -6.373,-20.009 l-0.3160000000000003,-1.179 L115.06899999999996,88.96391796875014 l-20.49,4.052 L85.5,87.77291796874988 a13.75,13.75 0 0 0 -18.971,18.45 a6.876,6.876 0 1 1 -6.756,-8.155 h2.947 V79.54091796874991 a9.825,9.825 0 0 0 0,-18.744 V45.9999179687502 H56.823999999999955 v14.8 a9.825,9.825 0 0 0 0,18.744 V92.51691796875002 A12.772,12.772 0 1 0 70.957,111.10091796874985 c0.25,0.16800000000000023 0.5,0.33000000000000035 0.7680000000000007,0.48300000000000026 A11.8,11.8 0 0 0 83.06899999999996,126.5359179687498 a11.862,11.862 0 0 0 3.07,-0.40700000000000025 A11.717,11.717 0 0 0 91.5,123.0029179687499 l14.936,8.623 a11.8,11.8 0 0 0 11.343,14.951 a11.862,11.862 0 0 0 3.07,-0.40700000000000025 a11.712,11.712 0 0 0 5.5,-3.273 a14.569,14.569 0 0 0 5.143,0.9380000000000005 a14.811,14.811 0 0 0 3.838,-0.509 a14.644,14.644 0 0 0 8.952,-6.872 l3.3120000000000003,-5.769 V125.45591796874987 zM55.841999999999985,70.16791796874986 a3.93,3.93 0 1 1 3.93,3.93 A3.934,3.934 0 0 1 55.841999999999985,70.16791796874986 zM88.19299999999998,117.68891796875005 A5.893,5.893 0 1 1 86.03499999999997,109.64091796874982 A5.857,5.857 0 0 1 88.19299999999998,117.68891796875005 zM122.90599999999995,137.73091796874996 a5.893,5.893 0 1 1 -2.158,-8.052 A5.857,5.857 0 0 1 122.90599999999995,137.73091796874996 zm18.8,-8.617 h0 l-2.526,4.4 a8.846,8.846 0 0 1 -9.943,4.122 A11.788,11.788 0 0 0 109.38800000000003,126.52291796874988 l-14.94,-8.626 A11.791,11.791 0 0 0 74.67499999999995,106.48091796874996 a7.859,7.859 0 0 1 7.876,-13.6 l11,6.35 l20.49,-4.052 l21.642,12.5 c2.178,7.869 5.255,16.644 6.024,18.808 v2.6340000000000003 z" fill="#1db2e2"/>
      </g>
    </g>
  </g></g></svg>