<svg xmlns="http://www.w3.org/2000/svg" width="17" height="16.5" viewBox="0 0 17 16.5">
  <g id="linkedin" transform="translate(0 -0.5)">
    <g id="Сгруппировать_9297" data-name="Сгруппировать 9297" transform="translate(0 5.313)">
      <g id="Сгруппировать_9296" data-name="Сгруппировать 9296">
        <rect id="Прямоугольник_571" data-name="Прямоугольник 571" width="3.802" height="11.688" fill="#00b2e2"/>
      </g>
    </g>
    <g id="Сгруппировать_9299" data-name="Сгруппировать 9299" transform="translate(5.313 5.313)">
      <g id="Сгруппировать_9298" data-name="Сгруппировать 9298">
        <path id="Контур_4038" data-name="Контур 4038" d="M168.844,160.137c-.04-.013-.079-.027-.121-.038s-.1-.021-.154-.03a3.407,3.407,0,0,0-.682-.069,5.282,5.282,0,0,0-4.085,2.234V160H160v11.688h3.8v-6.375s2.873-4,4.085-1.062v7.438h3.8V163.8A3.791,3.791,0,0,0,168.844,160.137Z" transform="translate(-160 -160)" fill="#00b2e2"/>
      </g>
    </g>
    <g id="Сгруппировать_9301" data-name="Сгруппировать 9301" transform="translate(0.5 0.5)">
      <g id="Сгруппировать_9300" data-name="Сгруппировать 9300">
        <circle id="Эллипс_60" data-name="Эллипс 60" cx="1.5" cy="1.5" r="1.5" fill="#00b2e2"/>
      </g>
    </g>
  </g>
</svg>
