<svg xmlns="http://www.w3.org/2000/svg" xmlns:xlink="http://www.w3.org/1999/xlink" width="103" height="76"><rect id="backgroundrect" width="100%" height="100%" x="0" y="0" fill="none" stroke="none" class="" style=""/>
  <defs>
    <filter id="slider-button-background" x="0" y="0" width="205" height="178" filterUnits="userSpaceOnUse">
      <feOffset dx="18" dy="20" input="SourceAlpha"/>
      <feGaussianBlur stdDeviation="17" result="blur"/>
      <feFlood flood-color="#003db8" flood-opacity="0.149"/>
      <feComposite operator="in" in2="blur"/>
      <feComposite in="SourceGraphic"/>
    </filter>
  </defs>
  
<g class="currentLayer" style=""><title>Layer 1</title><g id="Сгруппировать_9339" data-name="Сгруппировать 9339" class="" transform="rotate(-179.5161590576172 51.5,38.00000000000001) ">
    <g filter="url(#slider-button-background)" id="svg_1">
      <rect id="Прямоугольник_43-2" data-name="Прямоугольник 43" width="103" height="76" rx="38" transform="matrix(1,0,0,1,980,2496) " fill="#00b2e2" y="-2496.000047802925" x="-980" stroke-width="0"/>
    </g>
    <g id="right-chevron">
      <path id="Контур_14" data-name="Контур 14" d="M56.198977539062525,37.43695219707479 L49.16197753906249,30.409952197074745 a1.356,1.356 0 0 0 -1.943,0 l-0.8200000000000005,0.81 a1.322,1.322 0 0 0 -0.4,0.971 a1.3820000000000001,1.3820000000000001 0 0 0 0.4,0.982 l5.246,5.235 l-5.246,5.246 a1.322,1.322 0 0 0 -0.4,0.971 a1.3820000000000001,1.3820000000000001 0 0 0 0.4,0.982 l0.8200000000000005,0.81 a1.381,1.381 0 0 0 1.943,0 l7.038,-7.027 a1.3820000000000001,1.3820000000000001 0 0 0 0.4,-0.982 A1.322,1.322 0 0 0 56.198977539062525,37.43695219707479 z" fill="#fff"/>
    </g>
  </g></g></svg>