<svg xmlns="http://www.w3.org/2000/svg" width="103" height="76" viewBox="0 0 103 76">
  <g id="Сгруппировать_9340" data-name="Сгруппировать 9340" transform="translate(-841 -2496)">
    <g id="Прямоугольник_96" data-name="Прямоугольник 96" transform="translate(841 2496)" fill="none" stroke="#1db2e2" stroke-width="1">
      <rect width="103" height="76" rx="38" stroke="none"/>
      <rect x="0.5" y="0.5" width="102" height="75" rx="37.5" fill="none"/>
    </g>
    <g id="right-chevron" transform="translate(887.4 2526)">
      <path id="Контур_14" data-name="Контур 14" d="M82.622,7.437,89.659.41A1.356,1.356,0,0,1,91.6.41l.82.81a1.322,1.322,0,0,1,.4.971,1.382,1.382,0,0,1-.4.982L87.177,8.409l5.246,5.246a1.322,1.322,0,0,1,.4.971,1.382,1.382,0,0,1-.4.982l-.82.81a1.381,1.381,0,0,1-1.943,0L82.622,9.391a1.382,1.382,0,0,1-.4-.982A1.322,1.322,0,0,1,82.622,7.437Z" transform="translate(-82.222 0)" fill="#1db2e2"/>
    </g>
  </g>
</svg>
