<svg xmlns="http://www.w3.org/2000/svg" width="145.506" height="154.5" viewBox="0 0 145.506 154.5">
  <g id="prog-1" transform="translate(-33 -1)">
    <g id="Group_9338" data-name="Group 9338" transform="translate(66.531 1)">
      <path id="Path_4175" data-name="Path 4175" d="M273.226,23.2l3.164,3.026-3.026,3.164L270.2,26.364Z" transform="translate(-237.89 -17.038)" fill="#0fbcbe"/>
      <path id="Path_4176" data-name="Path 4176" d="M307.2,26.364l3.164,3.026,3.026-3.164L310.226,23.2Z" transform="translate(-264.62 -17.038)" fill="#0fbcbe"/>
      <path id="Path_4177" data-name="Path 4177" d="M291.2,42.543l2.443,2.359,2.387-2.47-2.47-2.332Z" transform="translate(-253.061 -29.247)" fill="#0fbcbe"/>
      <path id="Path_4178" data-name="Path 4178" d="M323.7,47.37l2.47,2.359,2.332-2.47L326.059,44.9Z" transform="translate(-276.539 -32.714)" fill="#0fbcbe"/>
      <path id="Path_4179" data-name="Path 4179" d="M276.7,55.97l2.443,2.359,2.359-2.443L279.059,53.5Z" transform="translate(-242.586 -38.927)" fill="#0fbcbe"/>
      <path id="Path_4180" data-name="Path 4180" d="M306.4,57.043l2.47,2.387,2.359-2.47L308.787,54.6Z" transform="translate(-264.042 -39.722)" fill="#0fbcbe"/>
      <path id="Path_4181" data-name="Path 4181" d="M294.8,69.121l1.721,1.665,1.665-1.721L296.438,67.4Z" transform="translate(-255.661 -48.969)" fill="#0fbcbe"/>
      <path id="Path_4182" data-name="Path 4182" d="M318.3,73.821l1.721,1.665,1.665-1.749L319.965,72.1Z" transform="translate(-272.638 -52.364)" fill="#0fbcbe"/>
      <rect id="Rectangle_628" data-name="Rectangle 628" width="5.468" height="5.441" transform="translate(59.925 8.309) rotate(-10.382)" fill="#0fbcbe"/>
      <rect id="Rectangle_629" data-name="Rectangle 629" width="4.386" height="4.386" transform="translate(52.907 10.563) rotate(-10.387)" fill="#0fbcbe"/>
      <path id="Path_4183" data-name="Path 4183" d="M374.5,58.677l.777,4.275,4.3-.777L378.8,57.9Z" transform="translate(-313.238 -42.106)" fill="#0fbcbe"/>
      <path id="Path_4184" data-name="Path 4184" d="M353,61.311l.638,3.359,3.331-.638-.611-3.331Z" transform="translate(-297.706 -44.129)" fill="#0fbcbe"/>
      <path id="Path_4185" data-name="Path 4185" d="M376.5,84.238l.638,3.331,3.359-.611-.611-3.359Z" transform="translate(-314.683 -60.672)" fill="#0fbcbe"/>
      <rect id="Rectangle_630" data-name="Rectangle 630" width="3.414" height="3.414" transform="translate(50.263 18.544) rotate(-10.376)" fill="#0fbcbe"/>
      <rect id="Rectangle_631" data-name="Rectangle 631" width="3.414" height="3.414" transform="translate(56.371 22.93) rotate(-10.382)" fill="#0fbcbe"/>
      <rect id="Rectangle_632" data-name="Rectangle 632" width="2.387" height="2.387" transform="translate(52.096 23.329) rotate(-10.411)" fill="#0fbcbe"/>
      <path id="Path_4186" data-name="Path 4186" d="M357.8,101.516l.416,2.359,2.387-.444-.444-2.332Z" transform="translate(-301.174 -73.314)" fill="#0fbcbe"/>
      <path id="Path_4187" data-name="Path 4187" d="M421.132,94.2,418.8,99.113l4.913,2.359,2.359-4.941Z" transform="translate(-345.242 -68.33)" fill="#0fbcbe"/>
      <path id="Path_4188" data-name="Path 4188" d="M397.088,86,395.2,89.942l3.969,1.888,1.888-3.942Z" transform="translate(-328.193 -62.406)" fill="#0fbcbe"/>
      <path id="Path_4189" data-name="Path 4189" d="M408.788,121.1l-1.888,3.942,3.969,1.888,1.888-3.969Z" transform="translate(-336.645 -87.763)" fill="#0fbcbe"/>
      <path id="Path_4190" data-name="Path 4190" d="M391.171,110.4l-1.471,3.081,3.081,1.443,1.471-3.053Z" transform="translate(-324.219 -80.033)" fill="#0fbcbe"/>
      <path id="Path_4191" data-name="Path 4191" d="M396.843,142.8l-1.443,3.053,3.053,1.471,1.5-3.081Z" transform="translate(-328.337 -103.439)" fill="#0fbcbe"/>
      <path id="Path_4192" data-name="Path 4192" d="M373.571,103.8l-1.471,3.081,3.109,1.471,1.471-3.081Z" transform="translate(-311.505 -75.265)" fill="#0fbcbe"/>
      <path id="Path_4193" data-name="Path 4193" d="M382.171,129.5l-1.471,3.053,3.081,1.471,1.471-3.081Z" transform="translate(-317.718 -93.831)" fill="#0fbcbe"/>
      <path id="Path_4194" data-name="Path 4194" d="M369.927,121.7l-1.027,2.137,2.165,1.027,1.027-2.165Z" transform="translate(-309.193 -88.196)" fill="#0fbcbe"/>
      <path id="Path_4195" data-name="Path 4195" d="M372.927,145.4l-1.027,2.165,2.165,1.027,1.027-2.165Z" transform="translate(-311.36 -105.318)" fill="#0fbcbe"/>
      <path id="Path_4196" data-name="Path 4196" d="M424.4,179.2l-4.8,2.609,2.609,4.774,4.774-2.609Z" transform="translate(-345.82 -129.736)" fill="#0fbcbe"/>
      <path id="Path_4197" data-name="Path 4197" d="M411.231,157.7l-3.831,2.137,2.082,3.831,3.858-2.11Z" transform="translate(-337.006 -114.204)" fill="#0fbcbe"/>
      <path id="Path_4198" data-name="Path 4198" d="M400.058,193l-3.858,2.11,2.137,3.831,3.831-2.11Z" transform="translate(-328.915 -139.705)" fill="#0fbcbe"/>
      <path id="Path_4199" data-name="Path 4199" d="M393.4,173.4l-3,1.638,1.638,3,3-1.638Z" transform="translate(-324.725 -125.546)" fill="#0fbcbe"/>
      <path id="Path_4200" data-name="Path 4200" d="M379,202.9l-3,1.638,1.638,3,3-1.638Z" transform="translate(-314.322 -146.857)" fill="#0fbcbe"/>
      <path id="Path_4201" data-name="Path 4201" d="M383,157.8l-3,1.638,1.638,3,3-1.638Z" transform="translate(-317.212 -114.276)" fill="#0fbcbe"/>
      <path id="Path_4202" data-name="Path 4202" d="M374.97,183.6,372,185.238l1.638,3,2.97-1.638Z" transform="translate(-311.432 -132.914)" fill="#0fbcbe"/>
      <path id="Path_4203" data-name="Path 4203" d="M370.982,169.5l-2.082,1.138,1.138,2.11,2.11-1.166Z" transform="translate(-309.193 -122.728)" fill="#0fbcbe"/>
      <rect id="Rectangle_633" data-name="Rectangle 633" width="2.387" height="2.387" transform="translate(56.504 53.77) rotate(-28.731)" fill="#0fbcbe"/>
      <rect id="Rectangle_634" data-name="Rectangle 634" width="5.441" height="5.468" transform="translate(60.783 74.872) rotate(-82.952)" fill="#0fbcbe"/>
      <rect id="Rectangle_635" data-name="Rectangle 635" width="4.386" height="4.386" transform="matrix(0.123, -0.992, 0.992, 0.123, 61.979, 66.569)" fill="#0fbcbe"/>
      <path id="Path_4204" data-name="Path 4204" d="M352.285,247.827l-4.33-.527-.555,4.33,4.358.527Z" transform="translate(-293.661 -178.933)" fill="#0fbcbe"/>
      <path id="Path_4205" data-name="Path 4205" d="M359.3,227.116l-3.359-.416-.444,3.359,3.386.416Z" transform="translate(-299.512 -164.051)" fill="#0fbcbe"/>
      <path id="Path_4206" data-name="Path 4206" d="M330.4,242.616l-3.386-.416-.416,3.386,3.386.416Z" transform="translate(-278.634 -175.248)" fill="#0fbcbe"/>
      <rect id="Rectangle_636" data-name="Rectangle 636" width="3.414" height="3.414" transform="matrix(0.123, -0.992, 0.992, 0.123, 56.209, 60.828)" fill="#0fbcbe"/>
      <rect id="Rectangle_637" data-name="Rectangle 637" width="3.414" height="3.414" transform="matrix(0.123, -0.992, 0.992, 0.123, 50.175, 65.313)" fill="#0fbcbe"/>
      <path id="Path_4207" data-name="Path 4207" d="M344.565,209.705l-2.359-.305-.305,2.387,2.359.305Z" transform="translate(-289.688 -151.553)" fill="#0fbcbe"/>
      <rect id="Rectangle_638" data-name="Rectangle 638" width="2.387" height="2.387" transform="matrix(0.123, -0.992, 0.992, 0.123, 46.185, 63.117)" fill="#0fbcbe"/>
      <path id="Path_4208" data-name="Path 4208" d="M297.017,279.792l-4-3.692-3.72,3.969,4,3.72Z" transform="translate(-251.688 -199.738)" fill="#0fbcbe"/>
      <path id="Path_4209" data-name="Path 4209" d="M294.344,4.72,290.32,1,286.6,5l4.025,3.72Z" transform="translate(-249.738 -1)" fill="#0fbcbe"/>
      <path id="Path_4210" data-name="Path 4210" d="M316.318,260.17l-3.22-2.97-3,3.22,3.248,2.942Z" transform="translate(-266.715 -186.084)" fill="#0fbcbe"/>
      <path id="Path_4211" data-name="Path 4211" d="M279.39,260.77l-3.22-2.97-2.97,3.192,3.192,3Z" transform="translate(-240.057 -186.518)" fill="#0fbcbe"/>
      <path id="Path_4212" data-name="Path 4212" d="M298.73,247.9l-2.526-2.3-2.3,2.47,2.5,2.332Z" transform="translate(-255.011 -177.704)" fill="#0fbcbe"/>
      <path id="Path_4213" data-name="Path 4213" d="M266.1,243.532l-2.47-2.332-2.332,2.5,2.5,2.332Z" transform="translate(-231.46 -174.526)" fill="#0fbcbe"/>
      <path id="Path_4214" data-name="Path 4214" d="M310.33,233.132,307.8,230.8l-2.3,2.5,2.5,2.3Z" transform="translate(-263.391 -167.013)" fill="#0fbcbe"/>
      <path id="Path_4215" data-name="Path 4215" d="M283.23,233.6l-2.5-2.3-2.332,2.47,2.526,2.332Z" transform="translate(-243.814 -167.374)" fill="#0fbcbe"/>
      <path id="Path_4216" data-name="Path 4216" d="M298.386,225.01l-1.749-1.61L295,225.149l1.749,1.638Z" transform="translate(-255.806 -161.667)" fill="#0fbcbe"/>
      <path id="Path_4217" data-name="Path 4217" d="M274.786,220.738l-1.749-1.638-1.638,1.749,1.749,1.638Z" transform="translate(-238.757 -158.56)" fill="#0fbcbe"/>
      <rect id="Rectangle_639" data-name="Rectangle 639" width="5.468" height="5.441" transform="matrix(0.98, -0.196, 0.196, 0.98, 15.59, 71.259)" fill="#0fbcbe"/>
      <rect id="Rectangle_640" data-name="Rectangle 640" width="4.386" height="4.386" transform="matrix(0.98, -0.196, 0.196, 0.98, 23.816, 69.756)" fill="#0fbcbe"/>
      <rect id="Rectangle_641" data-name="Rectangle 641" width="4.386" height="4.386" transform="matrix(0.98, -0.196, 0.196, 0.98, 15.377, 63.899)" fill="#0fbcbe"/>
      <path id="Path_4218" data-name="Path 4218" d="M238.7,232.231l-.666-3.331-3.331.666.666,3.331Z" transform="translate(-212.244 -165.64)" fill="#0fbcbe"/>
      <path id="Path_4219" data-name="Path 4219" d="M256.725,227.031l-.666-3.331-3.359.638.666,3.359Z" transform="translate(-225.248 -161.883)" fill="#0fbcbe"/>
      <rect id="Rectangle_642" data-name="Rectangle 642" width="3.414" height="3.414" transform="translate(21.291 58.185) rotate(-11.321)" fill="#0fbcbe"/>
      <rect id="Rectangle_643" data-name="Rectangle 643" width="2.387" height="2.387" transform="translate(26.772 58.495) rotate(-11.314)" fill="#0fbcbe"/>
      <rect id="Rectangle_644" data-name="Rectangle 644" width="2.387" height="2.387" transform="translate(22.164 53.692) rotate(-11.314)" fill="#0fbcbe"/>
      <path id="Path_4220" data-name="Path 4220" d="M161.541,192.017l2.276-4.941-4.969-2.276-2.248,4.969Z" transform="translate(-155.823 -133.781)" fill="#0fbcbe"/>
      <path id="Path_4221" data-name="Path 4221" d="M189.4,203.5l1.832-3.969-4-1.832-1.832,4Z" transform="translate(-176.629 -143.1)" fill="#0fbcbe"/>
      <path id="Path_4222" data-name="Path 4222" d="M177.2,168.674l1.8-3.942-3.969-1.832-1.832,3.969Z" transform="translate(-167.815 -117.96)" fill="#0fbcbe"/>
      <path id="Path_4223" data-name="Path 4223" d="M198.309,182.325l1.416-3.109-3.081-1.416-1.443,3.109Z" transform="translate(-183.708 -128.724)" fill="#0fbcbe"/>
      <path id="Path_4224" data-name="Path 4224" d="M213.309,210.325l1.416-3.137-3.109-1.388-1.416,3.081Z" transform="translate(-194.545 -148.952)" fill="#0fbcbe"/>
      <path id="Path_4225" data-name="Path 4225" d="M192.209,150.125l1.416-3.081-3.137-1.443-1.388,3.109Z" transform="translate(-179.301 -105.462)" fill="#0fbcbe"/>
      <rect id="Rectangle_645" data-name="Rectangle 645" width="3.414" height="3.414" transform="translate(16.398 53.936) rotate(-65.488)" fill="#0fbcbe"/>
      <rect id="Rectangle_646" data-name="Rectangle 646" width="3.414" height="3.414" transform="translate(13.914 46.894) rotate(-65.467)" fill="#0fbcbe"/>
      <rect id="Rectangle_647" data-name="Rectangle 647" width="2.387" height="2.387" transform="translate(18.59 49.379) rotate(-65.488)" fill="#0fbcbe"/>
      <path id="Path_4226" data-name="Path 4226" d="M219.593,150.492l1-2.193-2.193-1-1,2.193Z" transform="translate(-199.746 -106.69)" fill="#0fbcbe"/>
      <path id="Path_4227" data-name="Path 4227" d="M156.493,106.739l4.747-2.693-2.72-4.747-4.719,2.693Z" transform="translate(-153.8 -72.014)" fill="#0fbcbe"/>
      <path id="Path_4228" data-name="Path 4228" d="M173.793,131.668l3.8-2.165-2.193-3.8-3.8,2.165Z" transform="translate(-166.659 -91.086)" fill="#0fbcbe"/>
      <path id="Path_4229" data-name="Path 4229" d="M184.365,96.268l3.8-2.165L186,90.3l-3.8,2.165Z" transform="translate(-174.317 -65.512)" fill="#0fbcbe"/>
      <path id="Path_4230" data-name="Path 4230" d="M194.793,119.036l2.942-1.665-1.665-2.97-2.97,1.693Z" transform="translate(-182.191 -82.923)" fill="#0fbcbe"/>
      <path id="Path_4231" data-name="Path 4231" d="M208.693,89.363l2.942-1.721L209.97,84.7,207,86.393Z" transform="translate(-192.233 -61.467)" fill="#0fbcbe"/>
      <path id="Path_4232" data-name="Path 4232" d="M205.465,134.536l2.97-1.693-1.693-2.942-2.942,1.693Z" transform="translate(-189.921 -94.12)" fill="#0fbcbe"/>
      <path id="Path_4233" data-name="Path 4233" d="M213.093,108.663l2.97-1.721L214.37,104l-2.97,1.665Z" transform="translate(-195.411 -75.409)" fill="#0fbcbe"/>
      <path id="Path_4234" data-name="Path 4234" d="M220.894,126.248l2.082-1.166L221.782,123l-2.082,1.166Z" transform="translate(-201.408 -89.135)" fill="#0fbcbe"/>
      <path id="Path_4235" data-name="Path 4235" d="M232.094,105.048l2.082-1.166-1.194-2.082-2.082,1.166Z" transform="translate(-209.499 -73.82)" fill="#0fbcbe"/>
      <rect id="Rectangle_648" data-name="Rectangle 648" width="5.441" height="5.468" transform="translate(13.996 13.868) rotate(-83.892)" fill="#0fbcbe"/>
      <rect id="Rectangle_649" data-name="Rectangle 649" width="4.386" height="4.386" transform="translate(14.179 21.205) rotate(-83.886)" fill="#0fbcbe"/>
      <path id="Path_4236" data-name="Path 4236" d="M234.1,43.53l4.358.472.472-4.358-4.358-.444Z" transform="translate(-211.81 -28.597)" fill="#0fbcbe"/>
      <path id="Path_4237" data-name="Path 4237" d="M230.2,67.186l3.386.333.361-3.359-3.386-.361Z" transform="translate(-208.993 -46.368)" fill="#0fbcbe"/>
      <path id="Path_4238" data-name="Path 4238" d="M259,51.086l3.386.389.333-3.414-3.386-.361Z" transform="translate(-229.799 -34.737)" fill="#0fbcbe"/>
      <path id="Path_4239" data-name="Path 4239" d="M229.8,85.886l3.386.361.361-3.386-3.386-.361Z" transform="translate(-208.704 -59.877)" fill="#0fbcbe"/>
      <path id="Path_4240" data-name="Path 4240" d="M251.2,69.286l3.386.389.361-3.414-3.386-.361Z" transform="translate(-224.164 -47.885)" fill="#0fbcbe"/>
      <path id="Path_4241" data-name="Path 4241" d="M248.2,87.087l2.387.25.278-2.387-2.415-.25Z" transform="translate(-221.997 -61.467)" fill="#0fbcbe"/>
      <rect id="Rectangle_650" data-name="Rectangle 650" width="2.387" height="2.387" transform="translate(32.187 22.686) rotate(-83.933)" fill="#0fbcbe"/>
      <path id="Path_4242" data-name="Path 4242" d="M272.439,110.535a12.621,12.621,0,0,0-2.165-.944,12.762,12.762,0,0,0-5.94-.444,14.172,14.172,0,0,0-2.581.666l-.25.083a8.5,8.5,0,0,0-1.36.611c-.389.194-.777.416-1.166.638a30.945,30.945,0,0,0-2.609,1.777,56.535,56.535,0,0,1-.278-13.851l.028-.028c2.054,1.3,1.471,4.913,1.055,5.94,0,.028.028.028.056.028A6.394,6.394,0,0,0,258,97.794c-.028-.028.028-.056.028-.028a5.7,5.7,0,0,1,2.082,4.025,7.7,7.7,0,0,1,0,1.388c0,.111-.028.194-.028.305l.028.028h0a5.958,5.958,0,0,0,0-5.413,6.62,6.62,0,0,0-1.166-1.582c-.139-.139-.305-.305-.472-.444-.028-.028,0-.056.028-.056.167.056.305.083.444.139a4.627,4.627,0,0,1,1.166.611,4.767,4.767,0,0,1,1.61,2.193,5.263,5.263,0,0,1,.361,2,.038.038,0,0,0,.056,0,4.986,4.986,0,0,0-.416-4.08,5.126,5.126,0,0,0-1.61-1.582,4.093,4.093,0,0,0-1.166-.5,4.9,4.9,0,0,0-.555-.111c-.028,0-.028-.056,0-.056a3.719,3.719,0,0,1,.555-.028,7.42,7.42,0,0,1,1.166.083,4.143,4.143,0,0,1,1.61.638,3.417,3.417,0,0,1,1.083,1.166c0,.028.056,0,.056-.028a3.2,3.2,0,0,0-1.138-2.193,4.125,4.125,0,0,0-1.61-.86,4.226,4.226,0,0,0-1.166-.167,3.434,3.434,0,0,0-1.443.25.027.027,0,0,1-.028-.028,2.575,2.575,0,0,1,1.471-1.027,3.36,3.36,0,0,1,1.166-.139,2.484,2.484,0,0,1,.944.222c.028,0,.056-.028.028-.028a3.159,3.159,0,0,0-.971-.777,3.4,3.4,0,0,0-1.166-.389,2.952,2.952,0,0,0-2.8,1.388c0,.028-.028.028-.056,0-.139-.222-.25-.5-.389-.777a8.813,8.813,0,0,1-.611-2.11.027.027,0,0,0-.028-.028,8.7,8.7,0,0,1-.638,2.137,5.074,5.074,0,0,1-.389.777c0,.028-.028.028-.028,0a2.984,2.984,0,0,0-4.941-.194c-.028.028,0,.056.028.028a3.047,3.047,0,0,1,3.609.972c0,.028,0,.056-.028.028a4.243,4.243,0,0,0-4.608,1.166,3.042,3.042,0,0,0-.749,1.8s.028.056.056.028a3.478,3.478,0,0,1,.722-.888,4.786,4.786,0,0,1,3.72-1c.028,0,.028.056,0,.056a4.942,4.942,0,0,0-3.72,2.97,5.35,5.35,0,0,0-.056,3.331c0,.028.056.028.056.028v-.111a4.975,4.975,0,0,1,3.609-4.858c.028,0,.056.028.028.056a6,6,0,0,0-1.638,7.439c0,.028.056.028.056.028a6.154,6.154,0,0,1,2.082-5.746c.028-.028.056,0,.028.028a6.394,6.394,0,0,0,.777,7.217c.028.028.056,0,.056-.028-.444-1.027-1.027-4.663,1.027-5.94h.028a55.161,55.161,0,0,1-.278,13.851,21.438,21.438,0,0,0-5.107-3.053c-.194-.056-.416-.167-.611-.222a13.776,13.776,0,0,0-4.858-.694,12,12,0,0,0-5,1.277c-.194.083-.361.194-.472.25-.056.028-.028.111.056.083.167-.056.305-.083.444-.139a13.644,13.644,0,0,1,5-.472,15.169,15.169,0,0,1,4.858,1.3,25.769,25.769,0,0,1,5.774,3.747c-2.443,2.11-4.5,4.191-5.774,4.941-.056.056-.111.056-.194.083a1.372,1.372,0,0,0-1.388-.527,1.435,1.435,0,0,0-1.027,1,1.452,1.452,0,0,0,.25,1.166,1.92,1.92,0,0,0,2.332.333c1.693-.722,3.8-2.942,6.384-5.3.194-.194.444-.389.638-.611a6.64,6.64,0,0,1,.638.611c1.166,1.055,2.248,2.11,3.22,3,.416.361.777.722,1.166,1.027a11.682,11.682,0,0,0,1.61,1.138,2.073,2.073,0,0,0,2.581-.056c.056-.056.083-.056.111-.111a1.476,1.476,0,0,0,.25-1.166,1.368,1.368,0,0,0-.389-.666,1.323,1.323,0,0,0-.611-.333,1.352,1.352,0,0,0-1.388.527c-.167-.083-.333-.194-.555-.333a13.873,13.873,0,0,1-1.61-1.3c-.361-.333-.749-.666-1.166-1.027-.8-.722-1.693-1.527-2.609-2.332a30.583,30.583,0,0,1,2.609-1.971c.389-.25.749-.5,1.166-.749a18.183,18.183,0,0,1,1.61-.888,17.116,17.116,0,0,1,2.581-1,13.226,13.226,0,0,1,5.94-.361,14.52,14.52,0,0,1,2.11.5c.028,0,.028-.083,0-.111" transform="translate(-214.481 -65.151)" fill="#67737f"/>
    </g>
    <g id="Group_9340" data-name="Group 9340" transform="translate(33 99.263)">
      <g id="Group_9339" data-name="Group 9339">
        <path id="Path_4243" data-name="Path 4243" d="M43.27,355h3.442v16.377c0,5.468-2.581,7.966-6.995,7.966-4.164,0-6.717-2.193-6.717-7.411a17.977,17.977,0,0,1,.638-4.663l3.553-.638a18.741,18.741,0,0,0-.722,5c0,4,1.749,5.024,3.581,5.024,1.915,0,3.248-1.194,3.248-5.024V355Z" transform="translate(-33 -355)" fill="#67737f"/>
        <path id="Path_4244" data-name="Path 4244" d="M93.65,394.62l.222-2.8a21.706,21.706,0,0,0,4.053.444c2.72,0,4.5-1.027,4.5-3.47V388.4h-2.026c-5.08,0-6.995-2.332-6.995-6.051,0-3.414,2.11-6.551,6.912-6.551a16.586,16.586,0,0,1,5.441.916v8.966h2.581v2.72h-2.581v.056c0,3.609-2.332,6.523-8.161,6.523A30.26,30.26,0,0,1,93.65,394.62Zm8.771-15.628a6.3,6.3,0,0,0-2.47-.472c-1.943,0-3.109,1.5-3.109,3.525,0,2.359,1.166,3.636,3.914,3.636h1.665Z" transform="translate(-76.634 -370.026)" fill="#67737f"/>
        <path id="Path_4245" data-name="Path 4245" d="M145.7,386.26h10.076a15.68,15.68,0,0,0,.139-1.971c0-3.3-1.36-5-5.107-5a20.86,20.86,0,0,0-3,.222v-2.693a25.818,25.818,0,0,1,3.331-.222c5.857,0,8.189,2.581,8.189,7.578a19.219,19.219,0,0,1-.111,2.11h2.026v2.72H145.7V386.26Z" transform="translate(-114.417 -370.604)" fill="#67737f"/>
        <path id="Path_4246" data-name="Path 4246" d="M200.3,372.172h3.636v-9.549h3.442v9.549h2.332v2.72H200.3Zm1-13.3a1.735,1.735,0,1,1,1.721,1.777A1.742,1.742,0,0,1,201.3,358.876Zm4.33,0a1.722,1.722,0,1,1,1.721,1.777A1.742,1.742,0,0,1,205.629,358.876Z" transform="translate(-153.861 -356.517)" fill="#67737f"/>
        <path id="Path_4247" data-name="Path 4247" d="M232.8,370.655h3.22V355h3.442v18.376H232.8Z" transform="translate(-177.34 -355)" fill="#67737f"/>
        <path id="Path_4248" data-name="Path 4248" d="M272.8,355h3.442v18.376H272.8Z" transform="translate(-206.237 -355)" fill="#67737f"/>
        <path id="Path_4249" data-name="Path 4249" d="M320.186,391.911c0,1.443,1.3,2.776,4.33,2.776l-.222,2.72c-5.107,0-7.495-2.248-7.495-5.274,0-3.275,2.5-5.774,8.438-5.774h1.776a15.677,15.677,0,0,0,.139-1.971c0-3.3-1.36-5-5.08-5a20.268,20.268,0,0,0-3,.222v-2.693a25.155,25.155,0,0,1,3.331-.222c5.829,0,8.161,2.581,8.161,7.578a19.218,19.218,0,0,1-.111,2.11h2.054v2.72h-7.384C321.214,389.052,320.186,390.329,320.186,391.911Zm4.941,1.027a1.8,1.8,0,1,1,1.8,1.8A1.8,1.8,0,0,1,325.127,392.938Z" transform="translate(-238.023 -370.677)" fill="#67737f"/>
        <path id="Path_4250" data-name="Path 4250" d="M380.988,388.4c-3.081,0-4.58-.722-5.357-2a3.533,3.533,0,0,1-3.442,2H371.8v-2.72h.527c1.249,0,1.943-.749,1.943-3.137,0-3.72,2.276-6.745,6.634-6.745,4.191,0,6.023,2.387,6.023,6.19v6.384h-5.94Zm2.581-6c0-2.748-1-3.886-2.887-3.886s-3.026,1.5-3.026,3.72c0,2.3,1,3.442,3.664,3.442h2.248Z" transform="translate(-277.757 -370.026)" fill="#67737f"/>
        <path id="Path_4251" data-name="Path 4251" d="M440.8,355h3.442v15.655h2.609v2.72H440.8Z" transform="translate(-327.604 -355)" fill="#67737f"/>
        <path id="Path_4252" data-name="Path 4252" d="M461.1,371.522h3.636v-9.549h3.442v12.241H461.1ZM464.681,358a1.8,1.8,0,1,1,1.8,1.8A1.8,1.8,0,0,1,464.681,358Z" transform="translate(-342.269 -355.867)" fill="#67737f"/>
        <path id="Path_4253" data-name="Path 4253" d="M492.8,395.625l.278-2.748a6.769,6.769,0,0,0,2.11.305c1.749,0,2.776-.833,2.776-3.636V377H501.4v9.549h2.581v2.72H501.4v.111c0,3.331-1.11,6.523-6.44,6.523A12.089,12.089,0,0,1,492.8,395.625Z" transform="translate(-365.17 -370.893)" fill="#67737f"/>
        <path id="Path_4254" data-name="Path 4254" d="M531.7,386.549h3.636V377h3.442v12.241H531.7Zm1.638,6.606a1.8,1.8,0,1,1,1.8,1.8A1.8,1.8,0,0,1,533.338,393.155Z" transform="translate(-393.272 -370.893)" fill="#67737f"/>
        <path id="Path_4255" data-name="Path 4255" d="M49.976,501c-7.078,0-9.576-2.942-9.576-7.717a12.947,12.947,0,0,1,.666-4.08l3.664-.611a11.143,11.143,0,0,0-.888,4.3c0,3.664,1.582,5.385,6.468,5.385h1.776V488.9a29.008,29.008,0,0,1,5.246-.5c4.58,0,6.023,2.193,6.023,5.746v4.108h2.193v2.72H60.025v-6.468c0-2.5-.722-3.414-2.887-3.414a10.383,10.383,0,0,0-1.721.167v9.715H49.976Zm-2.8,5.69a1.777,1.777,0,1,1,1.749-1.776A1.748,1.748,0,0,1,47.173,506.692Zm4.33,0a1.777,1.777,0,1,1,1.721-1.776A1.725,1.725,0,0,1,51.5,506.692Z" transform="translate(-38.346 -451.371)" fill="#67737f"/>
        <path id="Path_4256" data-name="Path 4256" d="M129.7,524.1h3.109v2.72H129.7Z" transform="translate(-102.858 -477.162)" fill="#67737f"/>
        <path id="Path_4257" data-name="Path 4257" d="M139.8,524.1h3.109v2.72H139.8Z" transform="translate(-110.155 -477.162)" fill="#67737f"/>
        <path id="Path_4258" data-name="Path 4258" d="M149.9,524.1h3.109v2.72H149.9Z" transform="translate(-117.451 -477.162)" fill="#67737f"/>
        <path id="Path_4259" data-name="Path 4259" d="M160.1,524.1h3.109v2.72H160.1Z" transform="translate(-124.82 -477.162)" fill="#67737f"/>
        <path id="Path_4260" data-name="Path 4260" d="M170.2,524.1h3.109v2.72H170.2Z" transform="translate(-132.116 -477.162)" fill="#67737f"/>
        <path id="Path_4261" data-name="Path 4261" d="M180.4,524.1h3.109v2.72H180.4Z" transform="translate(-139.485 -477.162)" fill="#67737f"/>
        <path id="Path_4262" data-name="Path 4262" d="M190.5,524.1h3.109v2.72H190.5Z" transform="translate(-146.781 -477.162)" fill="#67737f"/>
        <path id="Path_4263" data-name="Path 4263" d="M200.6,524.1h3.109v2.72H200.6Z" transform="translate(-154.078 -477.162)" fill="#67737f"/>
        <path id="Path_4264" data-name="Path 4264" d="M210.8,524.1h3.109v2.72H210.8Z" transform="translate(-161.447 -477.162)" fill="#67737f"/>
        <path id="Path_4265" data-name="Path 4265" d="M220.9,524.1h3.109v2.72H220.9Z" transform="translate(-168.743 -477.162)" fill="#67737f"/>
        <path id="Path_4266" data-name="Path 4266" d="M231,524.1h3.109v2.72H231Z" transform="translate(-176.04 -477.162)" fill="#67737f"/>
        <path id="Path_4267" data-name="Path 4267" d="M241.2,524.1h3.109v2.72H241.2Z" transform="translate(-183.408 -477.162)" fill="#67737f"/>
        <path id="Path_4268" data-name="Path 4268" d="M251.3,524.1h3.109v2.72H251.3Z" transform="translate(-190.705 -477.162)" fill="#67737f"/>
        <path id="Path_4269" data-name="Path 4269" d="M261.5,524.1h3.109v2.72H261.5Z" transform="translate(-198.073 -477.162)" fill="#67737f"/>
        <path id="Path_4270" data-name="Path 4270" d="M271.6,524.1h3.109v2.72H271.6Z" transform="translate(-205.37 -477.162)" fill="#67737f"/>
        <path id="Path_4271" data-name="Path 4271" d="M281.7,524.1h3.109v2.72H281.7Z" transform="translate(-212.666 -477.162)" fill="#67737f"/>
        <path id="Path_4272" data-name="Path 4272" d="M291.828,524.1h3.081v2.72H291.8V524.1Z" transform="translate(-219.963 -477.162)" fill="#67737f"/>
        <path id="Path_4273" data-name="Path 4273" d="M302,524.1h3.109v2.72H302Z" transform="translate(-227.331 -477.162)" fill="#67737f"/>
        <path id="Path_4274" data-name="Path 4274" d="M312.2,524.1h3.109v2.72H312.2Z" transform="translate(-234.7 -477.162)" fill="#67737f"/>
        <path id="Path_4275" data-name="Path 4275" d="M322.3,524.1h3.109v2.72H322.3Z" transform="translate(-241.997 -477.162)" fill="#67737f"/>
        <path id="Path_4276" data-name="Path 4276" d="M332.4,524.1h3.109v2.72H332.4Z" transform="translate(-249.293 -477.162)" fill="#67737f"/>
        <path id="Path_4277" data-name="Path 4277" d="M342.6,484.15h3.636V474.6h3.442v9.549h2.554v2.72H342.6Zm3.553-13.546a1.8,1.8,0,1,1,1.8,1.8A1.8,1.8,0,0,1,346.153,470.6Z" transform="translate(-256.662 -437.212)" fill="#67737f"/>
        <path id="Path_4278" data-name="Path 4278" d="M375.9,483.355h3.192V467.7h3.442v6.745a26.86,26.86,0,0,1-.278,3.858h.028a7.369,7.369,0,0,1,6.69-4.858c3.608,0,5.3,2.387,5.3,6.3a51.823,51.823,0,0,1-.361,6.273H375.928v-2.665Zm14.684,0c.083-1.055.139-2.248.139-3.192,0-2.443-.638-3.942-2.47-3.942-2.776,0-5.107,3.47-5.746,7.106h8.078Z" transform="translate(-280.718 -436.417)" fill="#67737f"/>
        <path id="Path_4279" data-name="Path 4279" d="M451.75,507.32l.222-2.8a21.706,21.706,0,0,0,4.053.444c2.72,0,4.5-1.027,4.5-3.47V501.1h-2.026c-5.08,0-6.995-2.332-6.995-6.051,0-3.414,2.11-6.551,6.912-6.551a16.585,16.585,0,0,1,5.441.916v8.966h2.581v2.72h-2.581v.055c0,3.609-2.332,6.523-8.161,6.523A30.258,30.258,0,0,1,451.75,507.32Zm8.771-15.655a6.3,6.3,0,0,0-2.47-.472c-1.943,0-3.109,1.5-3.109,3.525,0,2.359,1.166,3.636,3.914,3.636h1.665Z" transform="translate(-335.334 -451.443)" fill="#67737f"/>
        <path id="Path_4280" data-name="Path 4280" d="M503.8,483.355h3.22V467.7h3.442v18.376H503.8Z" transform="translate(-373.116 -436.417)" fill="#67737f"/>
        <path id="Path_4281" data-name="Path 4281" d="M543.8,467.6h3.442v18.376H543.8Z" transform="translate(-402.013 -436.345)" fill="#67737f"/>
      </g>
    </g>
  </g>
</svg>
