<svg xmlns="http://www.w3.org/2000/svg" width="134.359" height="154.5" viewBox="0 0 134.359 154.5">
  <g id="prog-16" transform="translate(-63.8 -1)">
    <g id="Group_9336" data-name="Group 9336" transform="translate(89.844 1)">
      <path id="Path_4078" data-name="Path 4078" d="M273.354,23.2l3.3,3.154-3.154,3.3L270.2,26.5Z" transform="translate(-236.516 -16.776)" fill="#d3ba2f"/>
      <path id="Path_4079" data-name="Path 4079" d="M307.2,26.5l3.3,3.154,3.154-3.3-3.3-3.154Z" transform="translate(-262.809 -16.776)" fill="#d3ba2f"/>
      <path id="Path_4080" data-name="Path 4080" d="M291.2,42.647l2.547,2.46,2.489-2.575L293.66,40.1Z" transform="translate(-251.439 -28.785)" fill="#d3ba2f"/>
      <path id="Path_4081" data-name="Path 4081" d="M323.7,47.475l2.576,2.46,2.431-2.575L326.16,44.9Z" transform="translate(-274.534 -32.196)" fill="#d3ba2f"/>
      <path id="Path_4082" data-name="Path 4082" d="M276.7,56.075l2.547,2.46,2.46-2.547L279.16,53.5Z" transform="translate(-241.135 -38.308)" fill="#d3ba2f"/>
      <path id="Path_4083" data-name="Path 4083" d="M306.4,57.147l2.576,2.489,2.46-2.575-2.547-2.46Z" transform="translate(-262.241 -39.089)" fill="#d3ba2f"/>
      <path id="Path_4084" data-name="Path 4084" d="M294.8,69.194l1.794,1.736,1.736-1.794L296.507,67.4Z" transform="translate(-253.997 -48.185)" fill="#d3ba2f"/>
      <path id="Path_4085" data-name="Path 4085" d="M318.3,73.894l1.794,1.736,1.736-1.823L320.036,72.1Z" transform="translate(-270.697 -51.525)" fill="#d3ba2f"/>
      <rect id="Rectangle_605" data-name="Rectangle 605" width="5.701" height="5.672" transform="translate(62.472 8.662) rotate(-10.382)" fill="#d3ba2f"/>
      <rect id="Rectangle_606" data-name="Rectangle 606" width="4.572" height="4.572" transform="translate(55.156 11.012) rotate(-10.387)" fill="#d3ba2f"/>
      <path id="Path_4086" data-name="Path 4086" d="M374.5,58.71l.81,4.456,4.485-.81-.81-4.456Z" transform="translate(-310.634 -41.434)" fill="#d3ba2f"/>
      <path id="Path_4087" data-name="Path 4087" d="M353,61.337l.666,3.5,3.473-.666L356.5,60.7Z" transform="translate(-295.356 -43.424)" fill="#d3ba2f"/>
      <path id="Path_4088" data-name="Path 4088" d="M376.5,84.266l.666,3.473,3.5-.637-.637-3.5Z" transform="translate(-312.055 -59.697)" fill="#d3ba2f"/>
      <rect id="Rectangle_607" data-name="Rectangle 607" width="3.559" height="3.559" transform="translate(52.4 19.332) rotate(-10.376)" fill="#d3ba2f"/>
      <rect id="Rectangle_608" data-name="Rectangle 608" width="3.559" height="3.559" transform="translate(58.766 23.906) rotate(-10.382)" fill="#d3ba2f"/>
      <rect id="Rectangle_609" data-name="Rectangle 609" width="2.489" height="2.489" transform="translate(54.31 24.322) rotate(-10.411)" fill="#d3ba2f"/>
      <path id="Path_4089" data-name="Path 4089" d="M357.8,101.534l.434,2.46,2.489-.463-.463-2.431Z" transform="translate(-298.767 -72.133)" fill="#d3ba2f"/>
      <path id="Path_4090" data-name="Path 4090" d="M421.231,94.2,418.8,99.322l5.122,2.46,2.46-5.151Z" transform="translate(-342.114 -67.23)" fill="#d3ba2f"/>
      <path id="Path_4091" data-name="Path 4091" d="M397.168,86,395.2,90.109l4.138,1.968,1.968-4.109Z" transform="translate(-325.344 -61.403)" fill="#d3ba2f"/>
      <path id="Path_4092" data-name="Path 4092" d="M408.868,121.1l-1.968,4.109,4.138,1.968,1.968-4.138Z" transform="translate(-333.658 -86.346)" fill="#d3ba2f"/>
      <path id="Path_4093" data-name="Path 4093" d="M391.234,110.4l-1.534,3.212,3.212,1.5,1.534-3.183Z" transform="translate(-321.435 -78.742)" fill="#d3ba2f"/>
      <path id="Path_4094" data-name="Path 4094" d="M396.9,142.8l-1.5,3.183,3.183,1.534,1.563-3.212Z" transform="translate(-325.486 -101.766)" fill="#d3ba2f"/>
      <path id="Path_4095" data-name="Path 4095" d="M373.634,103.8l-1.534,3.212,3.241,1.534,1.534-3.212Z" transform="translate(-308.928 -74.052)" fill="#d3ba2f"/>
      <path id="Path_4096" data-name="Path 4096" d="M382.234,129.5l-1.534,3.183,3.212,1.534L385.446,131Z" transform="translate(-315.04 -92.315)" fill="#d3ba2f"/>
      <path id="Path_4097" data-name="Path 4097" d="M369.971,121.7l-1.071,2.228L371.157,125l1.071-2.257Z" transform="translate(-306.655 -86.772)" fill="#d3ba2f"/>
      <path id="Path_4098" data-name="Path 4098" d="M372.971,145.4l-1.071,2.257,2.257,1.071,1.071-2.257Z" transform="translate(-308.786 -103.614)" fill="#d3ba2f"/>
      <path id="Path_4099" data-name="Path 4099" d="M424.606,179.2l-5.006,2.72,2.72,4.977,4.977-2.72Z" transform="translate(-342.683 -127.633)" fill="#d3ba2f"/>
      <path id="Path_4100" data-name="Path 4100" d="M411.393,157.7l-3.993,2.228,2.17,3.993,4.022-2.2Z" transform="translate(-334.013 -112.354)" fill="#d3ba2f"/>
      <path id="Path_4101" data-name="Path 4101" d="M400.222,193l-4.022,2.2,2.228,3.993,3.993-2.2Z" transform="translate(-326.054 -137.439)" fill="#d3ba2f"/>
      <path id="Path_4102" data-name="Path 4102" d="M393.525,173.4l-3.125,1.707,1.707,3.125,3.125-1.707Z" transform="translate(-321.933 -123.511)" fill="#d3ba2f"/>
      <path id="Path_4103" data-name="Path 4103" d="M379.125,202.9,376,204.607l1.707,3.125,3.125-1.707Z" transform="translate(-311.7 -144.474)" fill="#d3ba2f"/>
      <path id="Path_4104" data-name="Path 4104" d="M383.125,157.8,380,159.507l1.707,3.125,3.125-1.707Z" transform="translate(-314.542 -112.425)" fill="#d3ba2f"/>
      <path id="Path_4105" data-name="Path 4105" d="M375.1,183.6l-3.1,1.707,1.707,3.125,3.1-1.707Z" transform="translate(-308.857 -130.759)" fill="#d3ba2f"/>
      <path id="Path_4106" data-name="Path 4106" d="M371.07,169.5l-2.17,1.186,1.186,2.2,2.2-1.215Z" transform="translate(-306.655 -120.74)" fill="#d3ba2f"/>
      <rect id="Rectangle_610" data-name="Rectangle 610" width="2.489" height="2.489" transform="translate(58.913 56.059) rotate(-28.731)" fill="#d3ba2f"/>
      <rect id="Rectangle_611" data-name="Rectangle 611" width="5.672" height="5.701" transform="translate(63.384 78.049) rotate(-82.952)" fill="#d3ba2f"/>
      <rect id="Rectangle_612" data-name="Rectangle 612" width="4.572" height="4.572" transform="matrix(0.123, -0.992, 0.992, 0.123, 64.606, 69.405)" fill="#d3ba2f"/>
      <path id="Path_4107" data-name="Path 4107" d="M352.493,247.85l-4.514-.55-.579,4.514,4.543.55Z" transform="translate(-291.376 -176.026)" fill="#d3ba2f"/>
      <path id="Path_4108" data-name="Path 4108" d="M359.465,227.134l-3.5-.434-.463,3.5,3.53.434Z" transform="translate(-297.132 -161.387)" fill="#d3ba2f"/>
      <path id="Path_4109" data-name="Path 4109" d="M330.565,242.634l-3.53-.434-.434,3.53,3.53.434Z" transform="translate(-276.595 -172.402)" fill="#d3ba2f"/>
      <rect id="Rectangle_613" data-name="Rectangle 613" width="3.559" height="3.559" transform="matrix(0.123, -0.992, 0.992, 0.123, 58.587, 63.419)" fill="#d3ba2f"/>
      <rect id="Rectangle_614" data-name="Rectangle 614" width="3.559" height="3.559" transform="matrix(0.123, -0.992, 0.992, 0.123, 52.312, 68.092)" fill="#d3ba2f"/>
      <path id="Path_4110" data-name="Path 4110" d="M344.678,209.718l-2.46-.318-.318,2.489,2.46.318Z" transform="translate(-287.468 -149.093)" fill="#d3ba2f"/>
      <rect id="Rectangle_615" data-name="Rectangle 615" width="2.489" height="2.489" transform="matrix(0.123, -0.992, 0.992, 0.123, 48.158, 65.795)" fill="#d3ba2f"/>
      <path id="Path_4111" data-name="Path 4111" d="M297.345,279.949l-4.167-3.849-3.878,4.138,4.167,3.878Z" transform="translate(-250.089 -196.492)" fill="#d3ba2f"/>
      <path id="Path_4112" data-name="Path 4112" d="M294.674,4.878,290.478,1,286.6,5.167l4.2,3.878Z" transform="translate(-248.17 -1)" fill="#d3ba2f"/>
      <path id="Path_4113" data-name="Path 4113" d="M316.582,260.3l-3.357-3.1-3.125,3.357,3.386,3.067Z" transform="translate(-264.87 -183.061)" fill="#d3ba2f"/>
      <path id="Path_4114" data-name="Path 4114" d="M279.653,260.9l-3.357-3.1-3.1,3.328,3.328,3.125Z" transform="translate(-238.648 -183.487)" fill="#d3ba2f"/>
      <path id="Path_4115" data-name="Path 4115" d="M298.935,248l-2.633-2.4-2.4,2.575,2.6,2.431Z" transform="translate(-253.358 -174.818)" fill="#d3ba2f"/>
      <path id="Path_4116" data-name="Path 4116" d="M266.306,243.631l-2.575-2.431-2.431,2.6,2.6,2.431Z" transform="translate(-230.192 -171.691)" fill="#d3ba2f"/>
      <path id="Path_4117" data-name="Path 4117" d="M310.535,233.231,307.9,230.8l-2.4,2.6,2.6,2.4Z" transform="translate(-261.601 -164.301)" fill="#d3ba2f"/>
      <path id="Path_4118" data-name="Path 4118" d="M283.435,233.7l-2.6-2.4-2.431,2.575,2.633,2.431Z" transform="translate(-242.343 -164.656)" fill="#d3ba2f"/>
      <path id="Path_4119" data-name="Path 4119" d="M298.53,225.078l-1.823-1.678L295,225.223l1.823,1.707Z" transform="translate(-254.14 -159.042)" fill="#d3ba2f"/>
      <path id="Path_4120" data-name="Path 4120" d="M274.93,220.807l-1.823-1.707-1.707,1.823,1.823,1.707Z" transform="translate(-237.369 -155.986)" fill="#d3ba2f"/>
      <rect id="Rectangle_616" data-name="Rectangle 616" width="5.701" height="5.672" transform="matrix(0.98, -0.196, 0.196, 0.98, 16.251, 74.288)" fill="#d3ba2f"/>
      <rect id="Rectangle_617" data-name="Rectangle 617" width="4.572" height="4.572" transform="matrix(0.98, -0.196, 0.196, 0.98, 24.83, 72.72)" fill="#d3ba2f"/>
      <rect id="Rectangle_618" data-name="Rectangle 618" width="4.572" height="4.572" transform="matrix(0.98, -0.196, 0.196, 0.98, 16.033, 66.614)" fill="#d3ba2f"/>
      <path id="Path_4121" data-name="Path 4121" d="M238.867,232.373l-.695-3.473-3.473.695.695,3.473Z" transform="translate(-211.289 -162.95)" fill="#d3ba2f"/>
      <path id="Path_4122" data-name="Path 4122" d="M256.9,227.173,256.2,223.7l-3.5.666.695,3.5Z" transform="translate(-224.08 -159.255)" fill="#d3ba2f"/>
      <rect id="Rectangle_619" data-name="Rectangle 619" width="3.559" height="3.559" transform="translate(22.195 60.66) rotate(-11.321)" fill="#d3ba2f"/>
      <rect id="Rectangle_620" data-name="Rectangle 620" width="2.489" height="2.489" transform="translate(27.907 60.982) rotate(-11.314)" fill="#d3ba2f"/>
      <rect id="Rectangle_621" data-name="Rectangle 621" width="2.489" height="2.489" transform="translate(23.103 55.975) rotate(-11.314)" fill="#d3ba2f"/>
      <path id="Path_4123" data-name="Path 4123" d="M161.751,192.324l2.373-5.151-5.18-2.373-2.344,5.18Z" transform="translate(-155.79 -131.612)" fill="#d3ba2f"/>
      <path id="Path_4124" data-name="Path 4124" d="M189.567,203.748l1.91-4.138-4.167-1.91-1.91,4.167Z" transform="translate(-176.256 -140.779)" fill="#d3ba2f"/>
      <path id="Path_4125" data-name="Path 4125" d="M177.367,168.919l1.881-4.109-4.138-1.91-1.91,4.138Z" transform="translate(-167.586 -116.049)" fill="#d3ba2f"/>
      <path id="Path_4126" data-name="Path 4126" d="M198.441,182.517l1.476-3.241L196.7,177.8l-1.5,3.241Z" transform="translate(-183.22 -126.638)" fill="#d3ba2f"/>
      <path id="Path_4127" data-name="Path 4127" d="M213.441,210.517l1.476-3.27-3.241-1.447-1.476,3.212Z" transform="translate(-193.879 -146.535)" fill="#d3ba2f"/>
      <path id="Path_4128" data-name="Path 4128" d="M192.341,150.317l1.476-3.212-3.27-1.5-1.447,3.241Z" transform="translate(-178.885 -103.756)" fill="#d3ba2f"/>
      <rect id="Rectangle_622" data-name="Rectangle 622" width="3.559" height="3.559" transform="translate(17.102 56.236) rotate(-65.488)" fill="#d3ba2f"/>
      <rect id="Rectangle_623" data-name="Rectangle 623" width="3.559" height="3.559" transform="translate(14.513 48.873) rotate(-65.467)" fill="#d3ba2f"/>
      <rect id="Rectangle_624" data-name="Rectangle 624" width="2.489" height="2.489" transform="translate(19.377 51.493) rotate(-65.488)" fill="#d3ba2f"/>
      <path id="Path_4129" data-name="Path 4129" d="M219.686,150.628l1.042-2.286-2.286-1.042-1.042,2.286Z" transform="translate(-198.995 -104.964)" fill="#d3ba2f"/>
      <path id="Path_4130" data-name="Path 4130" d="M156.607,107.055l4.948-2.807L158.719,99.3l-4.919,2.807Z" transform="translate(-153.8 -70.854)" fill="#d3ba2f"/>
      <path id="Path_4131" data-name="Path 4131" d="M173.886,131.922l3.965-2.257-2.286-3.964-3.965,2.257Z" transform="translate(-166.449 -89.614)" fill="#d3ba2f"/>
      <path id="Path_4132" data-name="Path 4132" d="M184.457,96.522l3.964-2.257L186.165,90.3,182.2,92.557Z" transform="translate(-173.982 -64.458)" fill="#d3ba2f"/>
      <path id="Path_4133" data-name="Path 4133" d="M194.865,119.233l3.067-1.736-1.736-3.1-3.1,1.765Z" transform="translate(-181.727 -81.584)" fill="#d3ba2f"/>
      <path id="Path_4134" data-name="Path 4134" d="M208.765,89.562l3.067-1.794L210.1,84.7,207,86.465Z" transform="translate(-191.605 -60.479)" fill="#d3ba2f"/>
      <path id="Path_4135" data-name="Path 4135" d="M205.536,134.733l3.1-1.765-1.765-3.067-3.067,1.765Z" transform="translate(-189.331 -92.599)" fill="#d3ba2f"/>
      <path id="Path_4136" data-name="Path 4136" d="M213.165,108.862l3.1-1.794L214.5,104l-3.1,1.736Z" transform="translate(-194.732 -74.194)" fill="#d3ba2f"/>
      <path id="Path_4137" data-name="Path 4137" d="M220.944,126.386l2.17-1.215L221.87,123l-2.17,1.215Z" transform="translate(-200.63 -87.696)" fill="#d3ba2f"/>
      <path id="Path_4138" data-name="Path 4138" d="M232.144,105.186l2.17-1.215-1.244-2.17-2.17,1.215Z" transform="translate(-208.589 -72.631)" fill="#d3ba2f"/>
      <rect id="Rectangle_625" data-name="Rectangle 625" width="5.672" height="5.701" transform="translate(14.598 14.461) rotate(-83.892)" fill="#d3ba2f"/>
      <rect id="Rectangle_626" data-name="Rectangle 626" width="4.572" height="4.572" transform="translate(14.782 22.113) rotate(-83.886)" fill="#d3ba2f"/>
      <path id="Path_4139" data-name="Path 4139" d="M234.1,43.714l4.543.492.492-4.543-4.543-.463Z" transform="translate(-210.863 -28.146)" fill="#d3ba2f"/>
      <path id="Path_4140" data-name="Path 4140" d="M230.2,67.33l3.53.347.376-3.5-3.53-.376Z" transform="translate(-208.091 -45.627)" fill="#d3ba2f"/>
      <path id="Path_4141" data-name="Path 4141" d="M259,51.23l3.53.405.347-3.559-3.53-.376Z" transform="translate(-228.557 -34.186)" fill="#d3ba2f"/>
      <path id="Path_4142" data-name="Path 4142" d="M229.8,86.03l3.53.376.376-3.53-3.53-.376Z" transform="translate(-207.807 -58.916)" fill="#d3ba2f"/>
      <path id="Path_4143" data-name="Path 4143" d="M251.2,69.43l3.53.405.376-3.559-3.53-.376Z" transform="translate(-223.014 -47.119)" fill="#d3ba2f"/>
      <path id="Path_4144" data-name="Path 4144" d="M248.2,87.189l2.489.26.289-2.489-2.518-.26Z" transform="translate(-220.883 -60.479)" fill="#d3ba2f"/>
      <rect id="Rectangle_627" data-name="Rectangle 627" width="2.489" height="2.489" transform="translate(33.544 23.635) rotate(-83.933)" fill="#d3ba2f"/>
      <path id="Path_4145" data-name="Path 4145" d="M273.912,111.417a13.155,13.155,0,0,0-2.257-.984,13.3,13.3,0,0,0-6.193-.463,14.774,14.774,0,0,0-2.691.695l-.26.087a8.863,8.863,0,0,0-1.418.637c-.405.2-.81.434-1.215.666a32.26,32.26,0,0,0-2.72,1.852,58.941,58.941,0,0,1-.289-14.44l.029-.029c2.141,1.36,1.534,5.122,1.1,6.193,0,.029.029.029.058.029a6.665,6.665,0,0,0,.81-7.524c-.029-.029.029-.058.029-.029a5.943,5.943,0,0,1,2.17,4.2,8.028,8.028,0,0,1,0,1.447c0,.116-.029.2-.029.318l.029.029h0a6.211,6.211,0,0,0,0-5.643,6.9,6.9,0,0,0-1.215-1.649c-.145-.145-.318-.318-.492-.463-.029-.029,0-.058.029-.058.174.058.318.087.463.145a4.824,4.824,0,0,1,1.215.637,4.97,4.97,0,0,1,1.678,2.286,5.487,5.487,0,0,1,.376,2.084.04.04,0,0,0,.058,0,5.2,5.2,0,0,0-.434-4.254,5.343,5.343,0,0,0-1.678-1.649,4.266,4.266,0,0,0-1.215-.521,5.109,5.109,0,0,0-.579-.116c-.029,0-.029-.058,0-.058a3.877,3.877,0,0,1,.579-.029,7.735,7.735,0,0,1,1.215.087,4.319,4.319,0,0,1,1.678.666,3.563,3.563,0,0,1,1.129,1.215c0,.029.058,0,.058-.029a3.339,3.339,0,0,0-1.186-2.286,4.3,4.3,0,0,0-1.678-.9,4.406,4.406,0,0,0-1.215-.174,3.58,3.58,0,0,0-1.5.26.028.028,0,0,1-.029-.029,2.685,2.685,0,0,1,1.534-1.071,3.5,3.5,0,0,1,1.215-.145,2.589,2.589,0,0,1,.984.232c.029,0,.058-.029.029-.029a3.294,3.294,0,0,0-1.013-.81,3.546,3.546,0,0,0-1.215-.405,3.078,3.078,0,0,0-2.923,1.447c0,.029-.029.029-.058,0-.145-.232-.26-.521-.405-.81a9.189,9.189,0,0,1-.637-2.2.028.028,0,0,0-.029-.029,9.071,9.071,0,0,1-.666,2.228,5.291,5.291,0,0,1-.405.81c0,.029-.029.029-.029,0a3.111,3.111,0,0,0-5.151-.2c-.029.029,0,.058.029.029a3.176,3.176,0,0,1,3.762,1.013c0,.029,0,.058-.029.029a4.424,4.424,0,0,0-4.8,1.215,3.171,3.171,0,0,0-.781,1.881s.029.058.058.029a3.627,3.627,0,0,1,.752-.926,4.989,4.989,0,0,1,3.878-1.042c.029,0,.029.058,0,.058a5.152,5.152,0,0,0-3.878,3.1,5.577,5.577,0,0,0-.058,3.473c0,.029.058.029.058.029V101.4A5.187,5.187,0,0,1,252.3,96.34c.029,0,.058.029.029.058a6.258,6.258,0,0,0-1.707,7.755c0,.029.058.029.058.029a6.415,6.415,0,0,1,2.17-5.99c.029-.029.058,0,.029.029a6.665,6.665,0,0,0,.81,7.524c.029.029.058,0,.058-.029-.463-1.071-1.071-4.862,1.071-6.193h.029a57.507,57.507,0,0,1-.289,14.44,22.349,22.349,0,0,0-5.325-3.183c-.2-.058-.434-.174-.637-.232a14.361,14.361,0,0,0-5.064-.723,12.51,12.51,0,0,0-5.209,1.331c-.2.087-.376.2-.492.26-.058.029-.029.116.058.087.174-.058.318-.087.463-.145a14.224,14.224,0,0,1,5.209-.492,15.815,15.815,0,0,1,5.064,1.36,26.866,26.866,0,0,1,6.019,3.907c-2.547,2.2-4.688,4.37-6.019,5.151-.058.058-.116.058-.2.087a1.43,1.43,0,0,0-1.447-.55,1.5,1.5,0,0,0-1.071,1.042,1.514,1.514,0,0,0,.26,1.215,2,2,0,0,0,2.431.347c1.765-.752,3.964-3.067,6.656-5.527.2-.2.463-.405.666-.637a6.919,6.919,0,0,1,.666.637c1.215,1.1,2.344,2.2,3.357,3.125.434.376.81.752,1.215,1.071a12.176,12.176,0,0,0,1.678,1.186,2.161,2.161,0,0,0,2.691-.058c.058-.058.087-.058.116-.116a1.539,1.539,0,0,0,.26-1.215,1.427,1.427,0,0,0-.405-.695,1.38,1.38,0,0,0-.637-.347,1.409,1.409,0,0,0-1.447.55c-.174-.087-.347-.2-.579-.347a14.462,14.462,0,0,1-1.678-1.36c-.376-.347-.781-.695-1.215-1.071-.839-.752-1.765-1.592-2.72-2.431a31.882,31.882,0,0,1,2.72-2.055c.405-.26.781-.521,1.215-.781a18.947,18.947,0,0,1,1.678-.926,17.841,17.841,0,0,1,2.691-1.042,13.789,13.789,0,0,1,6.193-.376,15.137,15.137,0,0,1,2.2.521c.029,0,.029-.087,0-.116" transform="translate(-213.489 -64.103)" fill="#7a7e81"/>
    </g>
    <g id="Group_9337" data-name="Group 9337" transform="translate(63.8 105.611)">
      <path id="Path_4146" data-name="Path 4146" d="M63.8,396.732l.26-2.344a6.576,6.576,0,0,0,1.823.26c1.5,0,2.4-.723,2.4-3.154V380.7h2.952v8.218h2.228v2.344H71.237v.087c0,2.865-.955,5.614-5.556,5.614A9.031,9.031,0,0,1,63.8,396.732Z" transform="translate(-63.8 -375.433)" fill="#848689"/>
      <path id="Path_4147" data-name="Path 4147" d="M96,409.1h2.662v2.344H96Z" transform="translate(-86.682 -395.615)" fill="#848689"/>
      <path id="Path_4148" data-name="Path 4148" d="M104.3,409.1h2.662v2.344H104.3Z" transform="translate(-92.58 -395.615)" fill="#848689"/>
      <path id="Path_4149" data-name="Path 4149" d="M112.7,409.1h2.662v2.344H112.7Z" transform="translate(-98.549 -395.615)" fill="#848689"/>
      <path id="Path_4150" data-name="Path 4150" d="M121.1,409.1h2.662v2.344H121.1Z" transform="translate(-104.519 -395.615)" fill="#848689"/>
      <path id="Path_4151" data-name="Path 4151" d="M129.5,409.1h2.662v2.344H129.5Z" transform="translate(-110.488 -395.615)" fill="#848689"/>
      <path id="Path_4152" data-name="Path 4152" d="M137.8,409.1h2.662v2.344H137.8Z" transform="translate(-116.386 -395.615)" fill="#848689"/>
      <path id="Path_4153" data-name="Path 4153" d="M146.2,388.918h4.225V380.7h2.952v10.533H146.2Zm1.91,7.234a1.478,1.478,0,0,1-1.476-1.534,1.491,1.491,0,1,1,2.981,0A1.519,1.519,0,0,1,148.11,396.153Zm3.733,0a1.478,1.478,0,0,1-1.476-1.534,1.5,1.5,0,0,1,1.476-1.534,1.478,1.478,0,0,1,1.476,1.534A1.514,1.514,0,0,1,151.843,396.153Z" transform="translate(-122.355 -375.433)" fill="#848689"/>
      <path id="Path_4154" data-name="Path 4154" d="M179.9,395.834l.174-2.431a18.908,18.908,0,0,0,3.5.376c2.344,0,3.878-.868,3.878-2.981v-.347h-1.736c-4.37,0-6.019-2.026-6.019-5.209,0-2.952,1.823-5.643,5.932-5.643a14.364,14.364,0,0,1,4.688.781v7.726h2.228v2.344H190.32v.058c0,3.1-2,5.614-7.032,5.614A23.829,23.829,0,0,1,179.9,395.834Zm7.553-13.456a5.339,5.339,0,0,0-2.141-.405c-1.678,0-2.662,1.273-2.662,3.039,0,2.055,1.013,3.154,3.357,3.154h1.447Z" transform="translate(-146.161 -374.652)" fill="#848689"/>
      <path id="Path_4155" data-name="Path 4155" d="M222.829,375.985h2.749V362.5h2.952v5.845a19.059,19.059,0,0,1-.26,3.328h.029a6.3,6.3,0,0,1,5.759-4.167c3.1,0,4.543,2.055,4.543,5.44,0,1.013-.029,2.055-.087,3.067h2.055v2.344H222.8v-2.373Zm12.646,0c.058-.9.116-1.939.116-2.749,0-2.112-.55-3.386-2.141-3.386-2.4,0-4.4,2.981-4.948,6.135Z" transform="translate(-176.789 -362.5)" fill="#848689"/>
      <path id="Path_4156" data-name="Path 4156" d="M283.129,377.193h3.125v-8.218h2.952v10.533H283.1v-2.315Zm.839-11.459a1.491,1.491,0,1,1,1.476,1.534A1.5,1.5,0,0,1,283.968,365.734Zm3.733,0a1.5,1.5,0,0,1,1.476-1.534,1.478,1.478,0,0,1,1.476,1.534,1.5,1.5,0,0,1-1.476,1.534A1.478,1.478,0,0,1,287.7,365.734Z" transform="translate(-219.639 -363.708)" fill="#848689"/>
      <path id="Path_4157" data-name="Path 4157" d="M332.323,393.367c0,1.244,1.129,2.373,3.733,2.373l-.2,2.344c-4.4,0-6.453-1.939-6.453-4.543,0-2.836,2.141-4.977,7.263-4.977H338.2a16.92,16.92,0,0,0,.116-1.707c0-2.836-1.158-4.312-4.37-4.312a17.737,17.737,0,0,0-2.575.174V380.4a21.875,21.875,0,0,1,2.865-.2c5.035,0,7.032,2.228,7.032,6.54q0,.825-.087,1.823h1.765v2.344h-6.337C333.22,390.907,332.323,392.007,332.323,393.367Zm4.283.9a1.575,1.575,0,0,1,1.563-1.563,1.556,1.556,0,0,1,1.563,1.563,1.563,1.563,0,1,1-3.125,0Z" transform="translate(-252.541 -375.078)" fill="#848689"/>
      <path id="Path_4158" data-name="Path 4158" d="M382.829,390.552c-2.662,0-3.936-.637-4.63-1.736a3.065,3.065,0,0,1-2.952,1.736H374.9v-2.344h.463c1.071,0,1.678-.637,1.678-2.691,0-3.212,1.939-5.817,5.73-5.817,3.617,0,5.18,2.055,5.18,5.354v5.5Zm2.228-5.18c0-2.344-.839-3.357-2.489-3.357s-2.6,1.3-2.6,3.212c0,1.968.839,2.952,3.154,2.952h1.939Z" transform="translate(-284.874 -374.723)" fill="#848689"/>
      <path id="Path_4159" data-name="Path 4159" d="M431.9,362.5h2.952v13.485h2.257v2.344H431.9Z" transform="translate(-325.379 -362.5)" fill="#848689"/>
      <path id="Path_4160" data-name="Path 4160" d="M448.7,376.625h3.154v-8.218h2.952V378.94H448.7Zm3.1-11.662a1.563,1.563,0,1,1,1.563,1.563A1.538,1.538,0,0,1,451.8,364.963Z" transform="translate(-337.318 -363.14)" fill="#848689"/>
      <path id="Path_4161" data-name="Path 4161" d="M474.9,396.732l.26-2.344a6.576,6.576,0,0,0,1.823.26c1.5,0,2.4-.723,2.4-3.154V380.7h2.952v8.218h2.228v2.344h-2.228v.087c0,2.865-.955,5.614-5.556,5.614A9.031,9.031,0,0,1,474.9,396.732Z" transform="translate(-355.936 -375.433)" fill="#848689"/>
      <path id="Path_4162" data-name="Path 4162" d="M507,388.918h3.154V380.7h2.952v10.533H507Zm1.418,5.7a1.575,1.575,0,0,1,1.563-1.563,1.556,1.556,0,0,1,1.563,1.563,1.563,1.563,0,1,1-3.125,0Z" transform="translate(-378.747 -375.433)" fill="#848689"/>
      <path id="Path_4163" data-name="Path 4163" d="M80.947,483.552c-6.106,0-8.247-2.547-8.247-6.656a11.859,11.859,0,0,1,.579-3.53l3.154-.521a9.958,9.958,0,0,0-.752,3.7c0,3.154,1.36,4.659,5.556,4.659H82.77v-8.074a24.809,24.809,0,0,1,4.514-.434c3.936,0,5.18,1.881,5.18,4.948v3.559h1.881v2.344H89.6V478c0-2.141-.637-2.952-2.489-2.952a8.57,8.57,0,0,0-1.476.145v8.363Zm-2.4,4.891a1.478,1.478,0,0,1-1.476-1.534,1.491,1.491,0,1,1,2.981,0A1.538,1.538,0,0,1,78.545,488.442Zm3.7,0a1.478,1.478,0,0,1-1.476-1.534,1.5,1.5,0,0,1,1.476-1.534,1.478,1.478,0,0,1,1.476,1.534A1.5,1.5,0,0,1,82.25,488.442Z" transform="translate(-70.125 -440.81)" fill="#848689"/>
      <path id="Path_4164" data-name="Path 4164" d="M146.329,469.085h2.778V455.6h2.952v15.829H146.3v-2.344Z" transform="translate(-122.426 -428.659)" fill="#848689"/>
      <path id="Path_4165" data-name="Path 4165" d="M179.5,455.5h2.952v13.485h2.257v2.344H179.5Z" transform="translate(-146.019 -428.588)" fill="#848689"/>
      <path id="Path_4166" data-name="Path 4166" d="M199.6,481.815a3.065,3.065,0,0,1-2.952,1.736H196.3v-2.344h.463c1.071,0,1.678-.637,1.678-2.691,0-3.212,1.939-5.817,5.73-5.817,3.617,0,5.18,2.055,5.18,5.354v3.154h1.91v2.344h-7.032C201.567,483.552,200.265,482.915,199.6,481.815Zm6.858-3.415c0-2.344-.839-3.357-2.489-3.357s-2.6,1.3-2.6,3.212c0,1.968.839,2.952,3.154,2.952h1.939Z" transform="translate(-157.957 -440.81)" fill="#848689"/>
      <path id="Path_4167" data-name="Path 4167" d="M246.629,469.085h2.778V455.6h2.952v15.829H246.6v-2.344Z" transform="translate(-193.701 -428.659)" fill="#848689"/>
      <path id="Path_4168" data-name="Path 4168" d="M279.7,455.5h2.981v15.829h-2.952V455.5Z" transform="translate(-217.223 -428.588)" fill="#848689"/>
      <path id="Path_4169" data-name="Path 4169" d="M316.2,486.156a4,4,0,0,1,3.444-4.051,4.226,4.226,0,0,1-2.547-4.051c0-3.154,2.083-5.354,5.99-5.354a11.62,11.62,0,0,1,2.518.289l-.492,2.344a7.112,7.112,0,0,0-2.084-.318,2.714,2.714,0,0,0-2.923,2.952c0,1.765,1.273,3.241,4.312,3.241h1.563v2.344h-2.749c-3.241,0-3.993,1.244-3.993,2.489,0,1.36,1.158,2.344,3.617,2.344a20.2,20.2,0,0,0,3.357-.318l.145,2.286a23.2,23.2,0,0,1-3.849.347C318.081,490.728,316.2,488.818,316.2,486.156Z" transform="translate(-243.161 -440.81)" fill="#848689"/>
      <path id="Path_4170" data-name="Path 4170" d="M360.4,455.5h2.952v13.485h2.257v2.344H360.4Z" transform="translate(-274.57 -428.588)" fill="#848689"/>
      <path id="Path_4171" data-name="Path 4171" d="M377.129,469.085h2.749V455.6h2.952v5.845a19.058,19.058,0,0,1-.26,3.328h.029a6.3,6.3,0,0,1,5.759-4.167c3.1,0,4.543,2.055,4.543,5.44,0,1.013-.029,2.055-.087,3.067h2.055v2.344H377.1v-2.373Zm12.675,0c.058-.9.116-1.939.116-2.749,0-2.112-.55-3.386-2.141-3.386-2.4,0-4.4,2.981-4.948,6.135Z" transform="translate(-286.438 -428.659)" fill="#848689"/>
      <path id="Path_4172" data-name="Path 4172" d="M437.5,470.293h.955a9.035,9.035,0,0,1,1.36.116,4.288,4.288,0,0,1-1.042-3.038,5.41,5.41,0,0,1,5.7-5.585c3.183,0,5.238,1.649,5.238,5.238a4.6,4.6,0,0,1-1.3,3.386s.955-.116,1.707-.116H451.3v2.344H437.5Zm3.444-11.459a1.491,1.491,0,1,1,1.476,1.534A1.5,1.5,0,0,1,440.944,458.834Zm5.788,8.334c0-1.968-.752-3.039-2.46-3.039-1.273,0-2.547.9-2.547,3.01s.839,3.154,2.489,3.154C445.632,470.293,446.731,469.251,446.731,467.168Zm-2.055-8.334a1.5,1.5,0,0,1,1.476-1.534,1.478,1.478,0,0,1,1.476,1.534,1.5,1.5,0,0,1-1.476,1.534A1.478,1.478,0,0,1,444.677,458.834Z" transform="translate(-329.359 -429.867)" fill="#848689"/>
      <path id="Path_4173" data-name="Path 4173" d="M484,469.085h2.778V455.6h2.952v15.829H484Z" transform="translate(-362.403 -428.659)" fill="#848689"/>
      <path id="Path_4174" data-name="Path 4174" d="M517.1,455.5h2.952v15.829H517.1Z" transform="translate(-385.924 -428.588)" fill="#848689"/>
    </g>
  </g>
</svg>
