<svg id="certification" xmlns="http://www.w3.org/2000/svg" width="145" height="145" viewBox="0 0 145 145">
  <path id="Контур_46" data-name="Контур 46" d="M123.76,106.768V21.03A21.054,21.054,0,0,0,102.73,0h-88V0A14.883,14.883,0,0,0,0,14.868V38.232H21.24v9.418A25.475,25.475,0,0,0,8.5,91.763v35.686l12.744-8.5v5.017A21.054,21.054,0,0,0,42.27,145h88v0A14.883,14.883,0,0,0,145,130.132V106.768ZM8.5,14.868a6.372,6.372,0,1,1,12.744,0V29.736H8.5ZM25.488,55.791A16.992,16.992,0,1,1,8.5,72.783,17.011,17.011,0,0,1,25.488,55.791Zm-8.5,41.023a25.476,25.476,0,0,0,16.992,0v14.761l-8.5-5.664-8.5,5.664ZM29.736,123.97v-5.017l12.744,8.5V91.763A25.475,25.475,0,0,0,29.736,47.651V14.868A14.776,14.776,0,0,0,28.3,8.5H102.73A12.548,12.548,0,0,1,115.264,21.03v109.1A14.776,14.776,0,0,0,116.7,136.5H42.27A12.548,12.548,0,0,1,29.736,123.97ZM136.5,130.132a6.372,6.372,0,0,1-12.744,0V115.264H136.5Z" transform="translate(0 0)" fill="#00b2e2"/>
  <path id="Контур_47" data-name="Контур 47" d="M225,90h38.232v8.5H225Z" transform="translate(-161.279 -64.512)" fill="#00b2e2"/>
  <path id="Контур_48" data-name="Контур 48" d="M225,167h38.232v8.5H225Z" transform="translate(-161.279 -119.705)" fill="#00b2e2"/>
  <path id="Контур_49" data-name="Контур 49" d="M225,242h38.232v8.5H225Z" transform="translate(-161.279 -173.465)" fill="#00b2e2"/>
  <path id="Контур_50" data-name="Контур 50" d="M225,317h38.232v8.5H225Z" transform="translate(-161.279 -227.225)" fill="#00b2e2"/>
  <path id="Контур_51" data-name="Контур 51" d="M225,392h38.232v8.5H225Z" transform="translate(-161.279 -280.984)" fill="#00b2e2"/>
</svg>
