<svg xmlns="http://www.w3.org/2000/svg" xmlns:xlink="http://www.w3.org/1999/xlink" width="403" height="403" viewBox="0 0 403 403">
  <defs>
    <filter id="share-icon-wrap" x="0" y="0" width="403" height="403" filterUnits="userSpaceOnUse">
      <feOffset dx="8" dy="44" input="SourceAlpha"/>
      <feGaussianBlur stdDeviation="21.5" result="blur"/>
      <feFlood flood-opacity="0.051"/>
      <feComposite operator="in" in2="blur"/>
      <feComposite in="SourceGraphic"/>
    </filter>
  </defs>
  <g id="Сгруппировать_9337" data-name="Сгруппировать 9337" transform="translate(-214.5 -2979.5)">
    <g transform="matrix(1, 0, 0, 1, 214.5, 2979.5)" filter="url(#share-icon-wrap)">
      <g id="Эллипс_64-2" data-name="Эллипс 64" transform="translate(56.5 20.5)" fill="#fff" stroke="rgba(41,64,94,0.19)" stroke-width="1">
        <circle cx="137" cy="137" r="137" stroke="none"/>
        <circle cx="137" cy="137" r="136.5" fill="none"/>
      </g>
    </g>
    <g id="share" transform="translate(347 3083.423)">
      <g id="Сгруппировать_46" data-name="Сгруппировать 46" transform="translate(11.981 63.571)">
        <path id="Контур_40" data-name="Контур 40" d="M17.854,57.01a3.707,3.707,0,0,1-1.956-.978,2.364,2.364,0,0,1,0-3.423,8.608,8.608,0,0,0,2.934-6.357A7.885,7.885,0,0,0,15.9,39.9a2.364,2.364,0,0,1,0-3.423l9.78-12.714a5.247,5.247,0,0,0,.489-5.379c0-.489,0-.489-.489-.489a1.514,1.514,0,0,0-.978.489L6.607,35.983a2.364,2.364,0,0,1-3.423,0,2.364,2.364,0,0,1,0-3.423l18.093-17.6A7.354,7.354,0,0,1,26.656,13a7.121,7.121,0,0,1,4.4,2.934A8.841,8.841,0,0,1,30.079,26.2l-8.8,11.247a13.279,13.279,0,0,1,2.934,8.313,14.074,14.074,0,0,1-4.4,10.269C19.321,57.01,18.832,57.01,17.854,57.01Z" transform="translate(-2.45 -13)" fill="#00b2e2"/>
      </g>
      <g id="Сгруппировать_47" data-name="Сгруппировать 47" transform="translate(0 58.436)">
        <path id="Контур_41" data-name="Контур 41" d="M41.565,70.875H2.445A2.31,2.31,0,0,1,0,68.43V44.469c0-8.313,3.423-16.137,9.291-22.494l9.291-9.291a2.42,2.42,0,1,1,3.423,3.423L12.714,25.4A27,27,0,0,0,4.89,44.469V65.985H39.12v-4.4a2.541,2.541,0,0,1,.978-1.956A13.943,13.943,0,0,0,46.455,48.87a2.445,2.445,0,1,1,4.89,0A18.572,18.572,0,0,1,44.01,63.051V68.43A2.31,2.31,0,0,1,41.565,70.875Z" transform="translate(0 -11.95)" fill="#00b2e2"/>
      </g>
      <g id="Сгруппировать_48" data-name="Сгруппировать 48" transform="translate(75.567 10.025)">
        <path id="Контур_42" data-name="Контур 42" d="M22.039,45.816h-.978a7.121,7.121,0,0,1-4.4-2.934,8.841,8.841,0,0,1,.978-10.269l8.8-11.247a13.279,13.279,0,0,1-2.934-8.313,14.074,14.074,0,0,1,4.4-10.269,2.364,2.364,0,0,1,3.423,0,2.364,2.364,0,0,1,0,3.423A8.608,8.608,0,0,0,28.4,12.564a7.885,7.885,0,0,0,2.934,6.357,2.364,2.364,0,0,1,0,3.423L21.55,35.058a5.247,5.247,0,0,0-.489,5.379c0,.489.489.489.978.489a1.514,1.514,0,0,0,.978-.489l18.093-17.6a2.42,2.42,0,0,1,3.423,3.423L26.44,43.86a5.973,5.973,0,0,1-4.4,1.956Z" transform="translate(-15.453 -2.05)" fill="#00b2e2"/>
      </g>
      <g id="Сгруппировать_49" data-name="Сгруппировать 49" transform="translate(66.016 0)">
        <path id="Контур_43" data-name="Контур 43" d="M44.8,58.681c-.489,0-1.467,0-1.467-.489a2.364,2.364,0,0,1,0-3.423l9.291-9.291a27,27,0,0,0,7.824-19.071V4.89H26.214v4.4a2.541,2.541,0,0,1-.978,1.956,13.943,13.943,0,0,0-6.357,10.758,3.1,3.1,0,0,1-2.934,2.445A2.31,2.31,0,0,1,13.5,22.005,18.572,18.572,0,0,1,20.835,7.824V2.445A2.31,2.31,0,0,1,23.28,0H62.4a2.31,2.31,0,0,1,2.445,2.445V26.406c0,8.313-3.423,16.137-9.291,22.494l-9.291,9.291a4.926,4.926,0,0,1-1.467.489Z" transform="translate(-13.5 0)" fill="#00b2e2"/>
      </g>
      <g id="Сгруппировать_50" data-name="Сгруппировать 50" transform="translate(19.56 19.56)">
        <path id="Контур_44" data-name="Контур 44" d="M6.445,64.148A2.31,2.31,0,0,1,4,61.7V6.445A2.31,2.31,0,0,1,6.445,4H70.5A2.31,2.31,0,0,1,72.95,6.445,2.31,2.31,0,0,1,70.5,8.89H8.89V61.7A2.31,2.31,0,0,1,6.445,64.148Z" transform="translate(-4 -4)" fill="#00b2e2"/>
      </g>
      <g id="Сгруппировать_51" data-name="Сгруппировать 51" transform="translate(28.362 37.653)">
        <path id="Контур_45" data-name="Контур 45" d="M72.794,67.848H7.756A2.681,2.681,0,0,1,5.8,64.914c0-1.467,1.467-1.956,2.934-1.956H70.349V10.145a2.445,2.445,0,1,1,4.89,0V65.4A2.31,2.31,0,0,1,72.794,67.848Z" transform="translate(-5.8 -7.7)" fill="#00b2e2"/>
      </g>
    </g>
  </g>
</svg>
