<svg id="certification" xmlns="http://www.w3.org/2000/svg" width="47.833" height="47.833" viewBox="0 0 47.833 47.833">
  <path id="Контур_46" data-name="Контур 46" d="M40.827,35.221V6.938A6.945,6.945,0,0,0,33.889,0H4.858A4.91,4.91,0,0,0,0,4.9v7.708H7.007v3.107A8.4,8.4,0,0,0,2.8,30.272V42.044l4.2-2.8V40.9a6.945,6.945,0,0,0,6.937,6.937H42.975a4.91,4.91,0,0,0,4.858-4.9V35.221ZM2.8,4.9a2.1,2.1,0,1,1,4.2,0v4.9H2.8ZM8.408,18.4A5.605,5.605,0,1,1,2.8,24.01,5.612,5.612,0,0,1,8.408,18.4Zm-2.8,13.533a8.4,8.4,0,0,0,5.605,0v4.869l-2.8-1.868-2.8,1.868ZM9.81,40.9V39.241l4.2,2.8V30.272a8.4,8.4,0,0,0-4.2-14.552V4.9a4.874,4.874,0,0,0-.474-2.1H33.889a4.139,4.139,0,0,1,4.135,4.135V42.929a4.874,4.874,0,0,0,.474,2.1H13.944A4.139,4.139,0,0,1,9.81,40.9Zm35.221,2.033a2.1,2.1,0,0,1-4.2,0v-4.9h4.2Z" transform="translate(0 0)" fill="#00b2e2"/>
  <path id="Контур_47" data-name="Контур 47" d="M225,90h12.612v2.8H225Z" transform="translate(-203.979 -81.592)" fill="#00b2e2"/>
  <path id="Контур_48" data-name="Контур 48" d="M225,167h12.612v2.8H225Z" transform="translate(-203.979 -151.398)" fill="#00b2e2"/>
  <path id="Контур_49" data-name="Контур 49" d="M225,242h12.612v2.8H225Z" transform="translate(-203.979 -219.391)" fill="#00b2e2"/>
  <path id="Контур_50" data-name="Контур 50" d="M225,317h12.612v2.8H225Z" transform="translate(-203.979 -287.384)" fill="#00b2e2"/>
  <path id="Контур_51" data-name="Контур 51" d="M225,392h12.612v2.8H225Z" transform="translate(-203.979 -355.377)" fill="#00b2e2"/>
</svg>
