<svg xmlns="http://www.w3.org/2000/svg" width="58.54" height="50.579" viewBox="0 0 58.54 50.579">
  <g id="XMLID_274_" transform="translate(0 0)">
    <path id="XMLID_764_" d="M146,127.96v5.488a1.143,1.143,0,0,0,1.143,1.143h22.867a1.143,1.143,0,0,0,1.143-1.143V127.96a1.143,1.143,0,0,0-1.143-1.143H147.143A1.143,1.143,0,0,0,146,127.96Zm2.287,1.143h20.581v3.2H148.287Z" transform="translate(-129.307 -116.298)" fill="#00b2e2"/>
    <path id="XMLID_795_" d="M112.5,227.96a1.143,1.143,0,0,0,1.143,1.143h30.528a1.143,1.143,0,0,0,0-2.287H113.643A1.143,1.143,0,0,0,112.5,227.96Z" transform="translate(-99.637 -204.864)" fill="#00b2e2"/>
    <path id="XMLID_796_" d="M123.143,317.819a1.144,1.144,0,1,0,.808.335A1.152,1.152,0,0,0,123.143,317.819Z" transform="translate(-108.051 -285.462)" fill="#00b2e2"/>
    <path id="XMLID_797_" d="M171.972,289.822l-2.237,2.247a.569.569,0,0,1-.4.168h0a.569.569,0,0,1-.4-.168l-.277-.278a2.839,2.839,0,0,0-2.021-.839h0a2.84,2.84,0,0,0-2.021.837l-1.27,1.269a1.143,1.143,0,1,0,1.617,1.617l1.27-1.27a.569.569,0,0,1,.4-.167h0a.569.569,0,0,1,.4.168l.277.278a2.839,2.839,0,0,0,2.022.839h0a2.84,2.84,0,0,0,2.023-.841l2.237-2.247a1.143,1.143,0,1,0-1.62-1.613Z" transform="translate(-144.363 -260.367)" fill="#00b2e2"/>
    <path id="XMLID_798_" d="M247.273,81.106a1.144,1.144,0,1,0-.808-.335A1.154,1.154,0,0,0,247.273,81.106Z" transform="translate(-217.988 -73.788)" fill="#00b2e2"/>
    <path id="XMLID_801_" d="M57.4,34.817H1.143A1.143,1.143,0,0,0,0,35.96V79.866a1.143,1.143,0,0,0,1.143,1.143H35.9v3.243a1.143,1.143,0,0,0,1.958.8L40.7,82.166l2.844,2.889a1.143,1.143,0,0,0,1.958-.8V81.009H57.4a1.143,1.143,0,0,0,1.143-1.143V35.96A1.144,1.144,0,0,0,57.4,34.817ZM40.7,73.691A4.688,4.688,0,1,1,45.391,69,4.693,4.693,0,0,1,40.7,73.691Zm2.515,7.77-1.7-1.727a1.143,1.143,0,0,0-1.63,0l-1.7,1.727V75.507a6.95,6.95,0,0,0,5.031,0Zm13.034-2.739H45.506V75.978h6.86a1.143,1.143,0,0,0,1.143-1.143V40.991a1.143,1.143,0,0,0-1.143-1.143H34.43a1.143,1.143,0,1,0,0,2.287H51.223V73.691H45.864a6.975,6.975,0,1,0-10.32,0H7.318V42.135H24.139a1.143,1.143,0,1,0,0-2.287H6.174a1.143,1.143,0,0,0-1.143,1.143V74.835a1.143,1.143,0,0,0,1.143,1.143H35.9v2.744H2.287V37.1H56.253Z" transform="translate(0 -34.817)" fill="#00b2e2"/>
  </g>
</svg>
