<svg xmlns="http://www.w3.org/2000/svg" width="44.508" height="44.504" viewBox="0 0 44.508 44.504">
  <path id="pen_2_" data-name="pen (2)" d="M39.4,1.762a6.129,6.129,0,0,0-8.661,0l-2.168,2.18L5.49,27.007l-.049.049c-.012.012-.012.025-.025.025-.025.037-.061.073-.085.11,0,.012-.013.012-.013.025-.025.037-.036.061-.061.1-.012.012-.012.024-.024.037-.012.037-.025.061-.037.1,0,.012-.012.012-.012.025L.064,42.87a1.205,1.205,0,0,0,.294,1.249,1.232,1.232,0,0,0,.87.356,1.446,1.446,0,0,0,.392-.061L17,39.281c.012,0,.012,0,.025-.012a.444.444,0,0,0,.11-.049.043.043,0,0,0,.025-.012c.036-.025.085-.049.122-.074s.074-.061.11-.085c.012-.013.024-.013.024-.025s.037-.024.049-.049L42.715,13.729a6.129,6.129,0,0,0,0-8.66ZM16.613,36.4,8.087,27.877,29.425,6.539l8.525,8.525ZM6.887,30.143l7.448,7.447L3.151,41.314Zm34.1-18.129-1.3,1.311L31.164,4.8l1.311-1.31a3.674,3.674,0,0,1,5.193,0L41,6.821a3.686,3.686,0,0,1-.012,5.194Zm0,0" transform="translate(0.001 0.029)" fill="#00b2e2"/>
</svg>
