<svg id="share" xmlns="http://www.w3.org/2000/svg" width="54.207" height="54.207" viewBox="0 0 54.207 54.207">
  <g id="Сгруппировать_46" data-name="Сгруппировать 46" transform="translate(5.534 29.362)">
    <path id="Контур_40" data-name="Контур 40" d="M9.565,33.328a1.712,1.712,0,0,1-.9-.452,1.092,1.092,0,0,1,0-1.581,3.976,3.976,0,0,0,1.355-2.936,3.642,3.642,0,0,0-1.355-2.936,1.092,1.092,0,0,1,0-1.581l4.517-5.872a2.423,2.423,0,0,0,.226-2.485c0-.226,0-.226-.226-.226a.7.7,0,0,0-.452.226L4.37,23.616a1.092,1.092,0,0,1-1.581,0,1.092,1.092,0,0,1,0-1.581L11.146,13.9A3.4,3.4,0,0,1,13.63,13a3.289,3.289,0,0,1,2.033,1.355,4.084,4.084,0,0,1-.452,4.743l-4.066,5.195a6.133,6.133,0,0,1,1.355,3.84,6.5,6.5,0,0,1-2.033,4.743C10.242,33.328,10.016,33.328,9.565,33.328Z" transform="translate(-2.45 -13)" fill="#00b2e2"/>
  </g>
  <g id="Сгруппировать_47" data-name="Сгруппировать 47" transform="translate(0 26.991)">
    <path id="Контур_41" data-name="Контур 41" d="M19.2,39.167H1.129A1.067,1.067,0,0,1,0,38.037V26.97A15.311,15.311,0,0,1,4.291,16.58l4.291-4.291a1.118,1.118,0,0,1,1.581,1.581L5.872,18.161A12.469,12.469,0,0,0,2.259,26.97v9.938h15.81V34.875a1.173,1.173,0,0,1,.452-.9A6.44,6.44,0,0,0,21.457,29a1.129,1.129,0,1,1,2.259,0,8.578,8.578,0,0,1-3.388,6.55v2.485A1.067,1.067,0,0,1,19.2,39.167Z" transform="translate(0 -11.95)" fill="#00b2e2"/>
  </g>
  <g id="Сгруппировать_48" data-name="Сгруппировать 48" transform="translate(34.903 4.63)">
    <path id="Контур_42" data-name="Контур 42" d="M18.5,22.265h-.452a3.289,3.289,0,0,1-2.033-1.355,4.084,4.084,0,0,1,.452-4.743l4.066-5.195a6.133,6.133,0,0,1-1.355-3.84,6.5,6.5,0,0,1,2.033-4.743,1.092,1.092,0,0,1,1.581,0,1.092,1.092,0,0,1,0,1.581,3.976,3.976,0,0,0-1.355,2.936,3.642,3.642,0,0,0,1.355,2.936,1.092,1.092,0,0,1,0,1.581L18.269,17.3a2.423,2.423,0,0,0-.226,2.485c0,.226.226.226.452.226a.7.7,0,0,0,.452-.226L27.3,11.649a1.118,1.118,0,0,1,1.581,1.581l-8.357,8.131a2.759,2.759,0,0,1-2.033.9Z" transform="translate(-15.453 -2.05)" fill="#00b2e2"/>
  </g>
  <g id="Сгруппировать_49" data-name="Сгруппировать 49" transform="translate(30.492 0)">
    <path id="Контур_43" data-name="Контур 43" d="M27.955,27.1c-.226,0-.678,0-.678-.226a1.092,1.092,0,0,1,0-1.581l4.291-4.291A12.469,12.469,0,0,0,35.183,12.2V2.259H19.372V4.291a1.173,1.173,0,0,1-.452.9,6.44,6.44,0,0,0-2.936,4.969,1.431,1.431,0,0,1-1.355,1.129A1.067,1.067,0,0,1,13.5,10.164a8.578,8.578,0,0,1,3.388-6.55V1.129A1.067,1.067,0,0,1,18.017,0H36.086a1.067,1.067,0,0,1,1.129,1.129V12.2a15.311,15.311,0,0,1-4.291,10.39l-4.291,4.291a2.275,2.275,0,0,1-.678.226Z" transform="translate(-13.5 0)" fill="#00b2e2"/>
  </g>
  <g id="Сгруппировать_50" data-name="Сгруппировать 50" transform="translate(9.035 9.035)">
    <path id="Контур_44" data-name="Контур 44" d="M5.129,31.781A1.067,1.067,0,0,1,4,30.652V5.129A1.067,1.067,0,0,1,5.129,4H34.717a1.067,1.067,0,0,1,1.129,1.129,1.067,1.067,0,0,1-1.129,1.129H6.259V30.652A1.067,1.067,0,0,1,5.129,31.781Z" transform="translate(-4 -4)" fill="#00b2e2"/>
  </g>
  <g id="Сгруппировать_51" data-name="Сгруппировать 51" transform="translate(13.1 17.392)">
    <path id="Контур_45" data-name="Контур 45" d="M36.743,35.481H6.7a1.239,1.239,0,0,1-.9-1.355c0-.678.678-.9,1.355-.9H35.614V8.829a1.129,1.129,0,1,1,2.259,0V34.352A1.067,1.067,0,0,1,36.743,35.481Z" transform="translate(-5.8 -7.7)" fill="#00b2e2"/>
  </g>
</svg>
