<?xml version="1.0" encoding="UTF-8"?> <svg xmlns="http://www.w3.org/2000/svg" xmlns:xlink="http://www.w3.org/1999/xlink" viewBox="0 0 131.51 159.59"><defs><style>.cls-1,.cls-11,.cls-5,.cls-8{fill:none;}.cls-2{fill:#fff;}.cls-3{fill:#178d4d;}.cls-4{fill:#f7df5d;}.cls-11,.cls-5{stroke:#231f20;stroke-miterlimit:10;}.cls-5{stroke-width:0.34px;}.cls-6{clip-path:url(#clip-path);}.cls-7{fill:url(#linear-gradient);}.cls-8{stroke:#020202;stroke-linejoin:round;}.cls-11,.cls-8{stroke-width:0.31px;}.cls-9{fill:#231f20;}.cls-10{fill:#020202;}</style><clipPath id="clip-path"><path class="cls-1" d="M65.41,61.83C44.18,48,30.09,63.53,30.09,63.53L17.81,111.41c7.16,4.8,17.75-.82,17.76-1,17.4-11.21,29.85,3.4,29.85,3.4s12.44-14.62,29.84-3.4c0,.21,10.59,5.83,17.76,1L100.72,63.53a25.73,25.73,0,0,0-17.93-7.44c-5,0-10.84,1.47-17.38,5.74"></path></clipPath><linearGradient id="linear-gradient" x1="-364.3" y1="684.04" x2="-363.54" y2="684.04" gradientTransform="matrix(125.93, 0, 0, -125.93, 45895.41, 86227.2)" gradientUnits="userSpaceOnUse"><stop offset="0" stop-color="#f7df5d"></stop><stop offset="0.11" stop-color="#f7db57"></stop><stop offset="0.25" stop-color="#f7cf47"></stop><stop offset="0.41" stop-color="#f6bc2c"></stop><stop offset="0.5" stop-color="#f6ae19"></stop><stop offset="0.59" stop-color="#f6bc2c"></stop><stop offset="0.75" stop-color="#f7cf47"></stop><stop offset="0.89" stop-color="#f7db57"></stop><stop offset="1" stop-color="#f7df5d"></stop></linearGradient></defs><title>Artboard 1</title><g id="Isolation_Mode" data-name="Isolation Mode"><polygon class="cls-2" points="66.38 12.09 69.63 14.49 77.32 16.42 81.29 17.02 84.78 18.1 88.15 20.27 91.88 22.91 93.56 25.92 96.21 28.93 97.89 30.73 102.58 31.21 108.6 31.93 115.46 35.3 120.51 41.08 122.67 49.86 123.64 142.24 7.91 140.8 8.04 50.22 11.52 39.15 20.3 32.54 28.48 30.37 35.1 30.13 35.1 28.57 36.18 26.16 38.23 23.51 42.8 19.79 47.13 17.74 54.11 16.18 61.45 15.09 63.85 13.65 66.38 12.09"></polygon><path class="cls-3" d="M124.5,51.83c0-.46-.08-.94-.14-1.44A28.07,28.07,0,0,0,122.53,43a20.72,20.72,0,0,0-10.24-11.09A32.27,32.27,0,0,0,98.09,29l-.71-1.33-.09-.15a39.69,39.69,0,0,0-2.61-3.32A33.17,33.17,0,0,0,90,19.65,22.08,22.08,0,0,0,83,16a39.72,39.72,0,0,0-5.79-1.29c-.62-.1-1.26-.17-1.93-.24a24.93,24.93,0,0,1-3.47-.54,8.73,8.73,0,0,1-4.62-3,7.73,7.73,0,0,1-.57-.83l-1.19-2-1.19,2a8,8,0,0,1-.56.82,8.74,8.74,0,0,1-4.62,3,24.93,24.93,0,0,1-3.48.55c-.66.07-1.31.14-1.93.24A39.81,39.81,0,0,0,47.83,16a22,22,0,0,0-7,3.66,33,33,0,0,0-4.65,4.58,39.25,39.25,0,0,0-2.62,3.32L32.73,29a32.28,32.28,0,0,0-14.2,2.9,20.54,20.54,0,0,0-8,6.94,25.42,25.42,0,0,0-4,11.52c-.06.55-.11,1.08-.15,1.69v99.6H124.5V51.83ZM9.27,50.76a22.38,22.38,0,0,1,3.51-10.13,17.48,17.48,0,0,1,6.93-6A29.74,29.74,0,0,1,32.86,32h1.52l1.47-2.78a37.09,37.09,0,0,1,2.37-3,30.16,30.16,0,0,1,4.24-4.19,19.25,19.25,0,0,1,6.16-3.2A37.06,37.06,0,0,1,54,17.66c.58-.09,1.18-.16,1.8-.22a26.81,26.81,0,0,0,3.85-.61,11.54,11.54,0,0,0,5.71-3.51,11.54,11.54,0,0,0,5.72,3.51,26.76,26.76,0,0,0,3.85.61c.62.07,1.22.13,1.8.22a36.94,36.94,0,0,1,5.4,1.2,19.24,19.24,0,0,1,6.16,3.2,30.31,30.31,0,0,1,4.24,4.19,37.75,37.75,0,0,1,2.37,3L96.44,32H98a29.73,29.73,0,0,1,13.14,2.62,17.65,17.65,0,0,1,8.84,9.56,25,25,0,0,1,1.62,6.54c.05.45.09.89.12,1.19v83.79H111.49v-6.48H96.3v-6.66H34.52v6.66H19.33v6.48H9.14V52.19c0-.46.07-.93.13-1.43"></path><path class="cls-4" d="M119.55,115.44,108.7,70,65.14,63.26,22.12,70,11.27,115.44l0,.18h11.4l1.37,0,1,0H62.23a2.54,2.54,0,0,0,1.37,2.16,4.13,4.13,0,0,0,1.36.47h.89a4.14,4.14,0,0,0,1.36-.47,2.55,2.55,0,0,0,1.37-2.16h37.21l1,0,1.37,0h11.41Z"></path><path class="cls-5" d="M119.55,115.44,108.7,70,65.14,63.26,22.12,70,11.27,115.44l0,.18h11.4l1.37,0,1,0H62.23a2.54,2.54,0,0,0,1.37,2.16,4.13,4.13,0,0,0,1.36.47h.89a4.14,4.14,0,0,0,1.36-.47,2.55,2.55,0,0,0,1.37-2.16h37.21l1,0,1.37,0h11.41Z"></path><path class="cls-4" d="M105.82,67.48l-2-.37C96.71,65.75,78.61,60,65.41,62.57,52.2,60,34.11,65.75,27,67.1l-2,.37L12.93,114.1c11.94,3,21.5.82,27.31-2.4,11-6.08,25.17,2.74,25.17,2.74s14.2-8.83,25.17-2.74c5.81,3.22,15.37,5.43,27.31,2.4Z"></path><path class="cls-5" d="M105.82,67.48l-2-.37C96.71,65.75,78.61,60,65.41,62.57,52.2,60,34.11,65.75,27,67.1l-2,.37L12.93,114.1c11.94,3,21.5.82,27.31-2.4,11-6.08,25.17,2.74,25.17,2.74s14.2-8.83,25.17-2.74c5.81,3.22,15.37,5.43,27.31,2.4Z"></path><path class="cls-4" d="M102.66,64.72s-23.43-6.93-37.24-2.59h0c-13.81-4.34-37.24,2.59-37.24,2.59L15.43,113c8.33,3,16.78.71,21.22-1.18,16.55-10,28.77,2.29,28.77,2.29s12.22-12.26,28.76-2.29c4.43,1.89,12.89,4.17,21.22,1.18Z"></path><path class="cls-5" d="M102.66,64.72s-23.43-6.93-37.24-2.59h0c-13.81-4.34-37.24,2.59-37.24,2.59L15.43,113c8.33,3,16.78.71,21.22-1.18,16.55-10,28.77,2.29,28.77,2.29s12.22-12.26,28.76-2.29c4.43,1.89,12.89,4.17,21.22,1.18Z"></path><g class="cls-6"><rect class="cls-7" x="17.81" y="47.99" width="95.2" height="68.22"></rect></g><path class="cls-5" d="M100.72,63.53S86.64,48,65.41,61.83C44.18,48,30.09,63.53,30.09,63.53L17.81,111.41c7.16,4.8,17.75-.82,17.76-1,17.4-11.21,29.84,3.4,29.84,3.4s12.44-14.62,29.84-3.4c0,.21,10.59,5.83,17.76,1Z"></path><line class="cls-8" x1="65.41" y1="114.1" x2="65.41" y2="61.75"></line><path class="cls-2" d="M64.59,125.29l.22-.93a5.31,5.31,0,0,0-1.1,3.24.61.61,0,0,0,.79.44c.35-.13.79-.4.84-.8a1.71,1.71,0,0,0-.75-2m.48,1.6c-.31.18-.66.49-1,.35a1.86,1.86,0,0,1,.22-1.06c.26.18.79.27.79.71"></path><path class="cls-2" d="M63.94,129l-.49,1.42c.49,3.5.57,7.23.88,10.82-.22,1.51.84,3.68-.88,4.43-1.05.27-2.46.13-3-.71,1-.71,2.68-.53,2.72-2.17-1.76-1.77-4.88-1.51-7.12-.89-1.06,0-1.14,1.24-1.45,2l1-.22a3.33,3.33,0,0,1,2.24,1.2,5.27,5.27,0,0,1-3.12,1,1.5,1.5,0,0,1-1.14-1c-.92-3.68-.92-8-3.43-10.82l-.22,1.2c.75,2.53,2.11,4.88,2,7.67-1.93,2.62-4.62,4.61-7.78,4.52a1.26,1.26,0,0,1-.84-1.33c1.54-1.24,3.78-2.44,4.22-4.48.88-4.57-.26-9.18-.22-13.75.22.22.4.53.66.57a14.21,14.21,0,0,0-1.36-3.9l-.44,1.06c.4,5.19.7,10.69.92,16a11.37,11.37,0,0,1-3.61,2.66,3.85,3.85,0,0,0,.31-1.51c-.44.67-.26,1.73-1.1,2.17-1.67.84-3.74,1.6-5.67.84a3.5,3.5,0,0,1-1.89-3.33c-.09-1.51.75-2.62,1.14-3.9-.09.22-.35.67-.7.58-.66-1,.17-1.91.26-2.88-.53,1.06-1.32,2.53-.44,3.73a7.42,7.42,0,0,0-.62,3.28,4.49,4.49,0,0,0,2.07,4.17c2.07,1,4.22,0,5.94-1L43,148a1.87,1.87,0,0,0,1.58,1.15,9.67,9.67,0,0,0,7.74-5.9c.35,1.29.17,2.75,1.14,3.77,1.94,1.29,3.74-.35,5.32-1.24,1.14,1,2.38,1.91,4,1.69,1.06-.13,1.58-1.33,1.93-2.17,1-4.17-.22-8.6-.18-12.95l.75.44A12.79,12.79,0,0,0,63.94,129m-5.76,14.15a3.57,3.57,0,0,1,2.42.22l-1.32.62Z"></path><path class="cls-2" d="M68.55,124.58c-.4.13-.31.58-.48.84l.57-.13c.66.71-.66,1.42-.83,2a2.87,2.87,0,0,0,1.45-2.35c-.09-.31-.4-.36-.7-.36"></path><path class="cls-2" d="M51.09,125.38c0-.31-.31-.31-.53-.4a.83.83,0,0,0-.62.89l.57-.13c.48.75-.66,1.46-.88,2a2.81,2.81,0,0,0,1.45-2.35"></path><path class="cls-2" d="M73.83,127.77l.57.36c0-.27.39-.49.17-.8-.83-.31,0-1-.26-1.6-.22-.84-1,0-1.32.27-.62.58,0,1.37.53,1.68-1.23,1.24-2.73,1.73-4,2.75a7.83,7.83,0,0,0,4.35-2.66m-.57-1.38c.09-.26.61-.4.61,0v.27c-.22.13-.44-.13-.61-.31"></path><path class="cls-2" d="M77.74,133.85l-.27.67c1.28-.36,2.46-1.11,3.69-1.37.18,3.86.66,7.71.57,11.57,1.63-3.55.35-8,.4-11.79l6.07-2.44.18-.53c-2.11.89-4.13,1.38-6.25,2.26a9.5,9.5,0,0,1-.26-2.93c.26.09.48.58.75.49A14.5,14.5,0,0,0,81.17,126l-.53,1.51a19.71,19.71,0,0,1,.39,5.1Z"></path><path class="cls-2" d="M41,129.15a.55.55,0,0,0,.61.44c.49-.27.49-.84.62-1.29l-.62.58c-.88-.84.09-1.91.13-2.88a4.89,4.89,0,0,0-.75,3.15"></path><path class="cls-2" d="M57.16,128.93c.09.44,0,1.06.66,1s.48-.84.62-1.29c-.22.22-.26.62-.62.58-.75-.89,0-2,.18-2.88a6.12,6.12,0,0,0-.84,2.62"></path><path class="cls-2" d="M84.21,129.33a.61.61,0,0,0,.66.58c.44-.26.44-.84.62-1.29l-.62.58c-.75-.8,0-2.08.09-2.88a5.41,5.41,0,0,0-.75,3"></path><path class="cls-2" d="M66.66,128.57l-.57,1.59c.57,5.63,1,11.58,1.1,17.16a7.78,7.78,0,0,0,.79-3.19l-.66-12.19.75.53a19.54,19.54,0,0,0-1.41-3.9"></path><path class="cls-2" d="M50.83,128.93a6.76,6.76,0,0,0-.92,3.32c.09.31.4.31.62.4a1.16,1.16,0,0,0,1-.71,1.67,1.67,0,0,0-.7-2l.26-1Zm.44,2.39a.83.83,0,0,1-.79.49h-.22c-.18-.35.09-.75.22-1.06a4.49,4.49,0,0,1,.79.58"></path><path class="cls-2" d="M92.12,130.61a5.66,5.66,0,0,0-1.06,3.33c0,.4.48.4.79.35a1.13,1.13,0,0,0,.84-1.24,1.41,1.41,0,0,0-.75-1.42c0-.4.35-.75.18-1m.31,2.44a1,1,0,0,1-.92.49c-.31-.35,0-.75.13-1.06a1.42,1.42,0,0,1,.79.58"></path><path class="cls-2" d="M73.3,131.68a3.13,3.13,0,0,0-1.32-.8l-.57,1.24,1.41,1,.57-1,1.32.84a3.56,3.56,0,0,0,.66-1.29,8.5,8.5,0,0,0-1.41-.93c-.22.31-.35.8-.66.93"></path><path class="cls-2" d="M52.37,135.14c1.71-.53,3.56-1.29,4.48-3.06.22.18.57.49.84.18.57.58.62,1.46.92,2.13.44-.88.4-2,1-2.84l.57.36c.13-.13.13-.31.22-.44-.09-.35-.35-.75-.79-.67-.75.62-.57,1.82-1,2.35-.22-.75-.35-1.78-1.32-2-1.06,2.13-3.43,2.84-4.93,4"></path><path class="cls-2" d="M39.4,132.83c1,.09,2.38-.18,3.21.31-1,.8-2.15,1.11-3,1.95,1.85-.35,4-1.37,4.44-3.41a6.55,6.55,0,0,0-3.12-.35c-.88,0-1.14.89-1.5,1.51"></path><path class="cls-2" d="M87.51,135.09c.09.22.31.58.62.44.48-.27.48-.84.66-1.28-.22.13-.35.57-.7.57-.7-.89.09-1.95.18-2.88a5.17,5.17,0,0,0-.75,3.15"></path><path class="cls-2" d="M76.29,132.79a19.19,19.19,0,0,1-2.42,3.81l-1.45-1.51c.18-.27.53-.09.79-.13v-.13a6.58,6.58,0,0,0-2.07-1.2c-1.05,1.86,1.41,2.79,2,4.26-.83,1.46-1.76,3-1.41,4.92a1,1,0,0,0,1.41.62c1.19-.44,2.64-1.42,2.68-2.93A4.85,4.85,0,0,0,74.45,137c.83-1.33,2.11-2.62,1.85-4.26m-1,7.54a3.22,3.22,0,0,1-2.9,1.33c-.44-.36,0-.84,0-1.2l1.27-2a4.94,4.94,0,0,1,1.58,1.86"></path><path class="cls-2" d="M84.78,135.67a3.06,3.06,0,0,0,.57-1.29,3.64,3.64,0,0,0-1.41-.89l-.57,1.24Z"></path><path class="cls-2" d="M54.83,137.84l7-2.84.13-.44c-2.33.84-4.66,1.59-6.9,2.57Z"></path><path class="cls-2" d="M69.56,139.21c.62-.09.57-.8.7-1.29-.22.22-.27.71-.7.58-.62-.89.09-2,.22-2.79a5.38,5.38,0,0,0-.75,3c0,.22.26.62.53.49"></path><path class="cls-2" d="M93.79,141.26a4.45,4.45,0,0,0-1.93-4.13,1.76,1.76,0,0,0-1.89.8,3.21,3.21,0,0,0-.48,2.17c.57,1.73,3.12.18,3.74,1.73a11.93,11.93,0,0,1-6.68,4.48,2.58,2.58,0,0,1-1.89-.62c1-.84,2.29-1.64,2.46-3,.75-1.77-.7-3-1.05-4.39l.57.13a11.68,11.68,0,0,0-1.72-1.86c-.88,2.22,1.45,3.73,1.89,5.68a11.88,11.88,0,0,1-2.86,2.31c-.44-1.42.31-2.79.39-4a13.61,13.61,0,0,0-1,4.43,8.82,8.82,0,0,1-3.56,1.29,2.22,2.22,0,0,1-1.72-.84,5,5,0,0,0,2.11-2.7c.75-1.77-.75-3-1.1-4.39l.57.13A9.72,9.72,0,0,0,78,136.6c-.92,2.09,1.14,3.55,1.8,5.32v.49a8.14,8.14,0,0,1-2.29,1.73,21.67,21.67,0,0,1,.53-3.68,11.57,11.57,0,0,0-1,4.12c-1.63,1-3.87,2.39-5.72,1-1.49-1.37-.35-3.63-.22-5.14a8.19,8.19,0,0,0-.57,1.46c-.44,1.86-.75,4.35,1,5.68,2.07.8,4-.49,5.76-1.6a3.69,3.69,0,0,0,1,1.46c1.85,1.06,3.82-.22,5.45-1.11A3.7,3.7,0,0,0,85,147.73c1.76.75,3.39-.22,4.75-1.15,1.58-1.42,4.18-2.93,4.09-5.32m-1.67-1.77c-.57-.22-1.72.27-1.76-.62.22-.36.75-.22,1.05-.13a3,3,0,0,1,.71.62Z"></path><path class="cls-2" d="M42.91,140.9c.09.36.22.8.7.66a1.46,1.46,0,0,0,.57-1.24c-.22.18-.26.62-.62.58-.79-.89,0-1.95.17-2.88a5.29,5.29,0,0,0-.83,2.88"></path><path class="cls-2" d="M39.4,143.07c0,.22.27.58.62.45s.48-.84.62-1.29c-.18.13-.31.58-.66.58-.71-.89,0-2,.17-2.88a4.9,4.9,0,0,0-.75,3.15"></path><path class="cls-2" d="M50.39,140.37c0-.35-.35-.53-.7-.44a1,1,0,0,0-.48.84l.57-.13c.48.71-.48,1.33-.88,1.91a2.93,2.93,0,0,0,1.49-2.17"></path><polygon class="cls-2" points="90.1 149.01 96.04 144.71 96.04 144 90.1 148.44 90.1 149.01"></polygon><path class="cls-2" d="M69.52,146.62a.87.87,0,0,0-.48.84l.53-.13c.75.71-.66,1.37-.79,2a3.1,3.1,0,0,0,1.45-2.17c0-.4-.31-.62-.7-.53"></path><path class="cls-9" d="M34.34,50.13c-.66-.07-.73-.9-1.33-1-1.29.65-1.54,2.13-2.12,3.26-.16.31-.48.67-.9.58-.87-.59-.48-1.91-.52-2.76a4,4,0,0,0,0,2.83c.18.27.39.68.8.63,1.31-.72,1-2.41,2.12-3.37.92-1,.92.92,1.83.77a2.09,2.09,0,0,0,1.4-.54c-.09.65-.3,1.55.16,2.13,1,.39,1.65-.74,2.41-1.1.48,1.33-1.36,1.12-1.45,2L38,52.77a1.83,1.83,0,0,0,.48,1,1.28,1.28,0,0,0,1.17.18,7.17,7.17,0,0,0,4-4.46l1.59-1c.39,0,.75.45,1.21.48,1.17.25,2.09-.62,2.76-1.46l.11.59c.18.36.59.34,1,.34.64-.11,1.2-.83,1.56-1.23a1.22,1.22,0,0,0,.32.72A1.09,1.09,0,0,0,53,48c.51-.18.67-.69.9-1.08.16.31.38.77.8.81a1.43,1.43,0,0,0,1.13-.54,2.57,2.57,0,0,0,.84,2c1.1.16,1.13-1.14,1.52-1.77s.71-1.28,1.4-1.19a2.75,2.75,0,0,0,2.17,1.62c.7.1,1.41.15,2.11.18l.11-.3,0-.56a15.37,15.37,0,0,1-3.22-.49c-.5-.41-.54-1.17-1.21-1.33-1.21.4-1.45,1.7-2,2.65-.16.31-.51.67-.92.51a1.9,1.9,0,0,1-.57-1.93C56.65,44.47,56,42.22,56,40l.07-.07c.11.07.21.32.37.23a10.05,10.05,0,0,0-.75-1.94c.07-.13-.07-.36.11-.45a9.68,9.68,0,0,1,2.7,4.05,4.39,4.39,0,0,1-.72,4,3.78,3.78,0,0,0,1.15-2.13,7,7,0,0,0-3.28-6.93c-.3.63,0,1.33-.17,2,0,2.45.42,4.92.42,7.46l-.21.33a1.37,1.37,0,0,1-1,.31c-.39-.11-.48-.54-.41-.95h-.07a3.32,3.32,0,0,1-.94,1.15.7.7,0,0,1-.85-.07c-.23-.23-.14-.52-.07-.79-.51.4-.9,1.14-1.56,1.3a1.16,1.16,0,0,1-1.08-.14c-.21-.23-.07-.5-.07-.77-.44.2-.74.72-1.15,1.05a2.12,2.12,0,0,1-2.25.26c.53-.45,1.31-.6,1.42-1.39a3.89,3.89,0,0,0-3.21-.07,1.47,1.47,0,0,0-1.22,1.32,1.31,1.31,0,0,1,.64-.22,1.33,1.33,0,0,1,1,.45l-1.26.72c-.21-.29-.37-.65-.71-.81a.78.78,0,0,0-.9.18,1.77,1.77,0,0,0-.53,1.5c.39.63,1.28.16,1.81.09l0,.29c-1,1.41-2.46,3.08-4.32,3.14a1.05,1.05,0,0,1-.64-.56c.64-.45,1.35-.74,2-1.16l.14-.29c-.69.33-1.36.74-2,1.14H38.3l0-.85c.69-.74,1.59-1.34,2.23-2.15a1.73,1.73,0,0,0-.13-1.84c-.85-.41-1.88-.39-2.61-1,.16-.09.41-.07.48-.22A3.41,3.41,0,0,0,37,45.84v.6a4.72,4.72,0,0,0,3,1.63c.21.11.55.16.6.45a20,20,0,0,1-4.07,3.29.6.6,0,0,1-.69-.14,2.17,2.17,0,0,1,.76-2.38c.07.25-.12.54-.12.74a2.48,2.48,0,0,0,.46-1.23c0-.16,0-.36-.18-.36-.76.52-1.29,1.82-2.41,1.68m12-3.07-.69.45L45,47.12a2.5,2.5,0,0,1,1.35-.06M42,49l0-.2a.57.57,0,0,1,.89.12A1.28,1.28,0,0,1,42,49"></path><path class="cls-9" d="M66.77,48a17.85,17.85,0,0,0,4.62-1.1,6.71,6.71,0,0,0,.23.7.88.88,0,0,0,1.65,0,2,2,0,0,0-.18-1.86c-.07.2-.14.4-.21.58-.07.36.41.65.09.95a1.1,1.1,0,0,1-.92-.07c-.32-.27-.25-.77-.25-1.1a20.87,20.87,0,0,1-5.08,1.12l0,.61Z"></path><path class="cls-9" d="M84.53,40.18a.41.41,0,0,0,.37-.31.93.93,0,0,0-.39-1l.12-.45c-.44.27-.48.94-.6,1.48a.39.39,0,0,0,.51.32m-.2-.92a.91.91,0,0,1,.43.34.39.39,0,0,1-.51.18c-.14-.16,0-.36.07-.52"></path><path class="cls-9" d="M49.3,39.84a.89.89,0,0,0-.36-1.1c0-.16.18-.34.14-.45-.18.09-.21.31-.3.47-.14.45-.51,1.12-.07,1.46a.87.87,0,0,0,.6-.38m-.53-.59a.67.67,0,0,1,.46.25.74.74,0,0,1-.53.29.57.57,0,0,1,.07-.54"></path><path class="cls-9" d="M82,40.69c.23-.09.28-.38.32-.61-.07.09-.19.27-.32.25-.39-.43,0-1.06,0-1.44a2.51,2.51,0,0,0-.39,1.35.41.41,0,0,0,.34.45"></path><path class="cls-9" d="M88.42,40.75c.18-.16.18-.36.25-.56l-.3.23c-.5-.38,0-1,0-1.44A2.09,2.09,0,0,0,88,40.46a.33.33,0,0,0,.39.29"></path><path class="cls-9" d="M77,40.95a.73.73,0,0,0,.3-.63c-.07.11-.19.29-.32.27-.37-.45,0-1,.1-1.46a2.38,2.38,0,0,0-.44,1.44c0,.18.13.38.37.38"></path><path class="cls-9" d="M46.33,41.16c.3-.13.34-.45.41-.72-.11.09-.18.36-.41.34-.25-.45,0-1,.14-1.46A3.65,3.65,0,0,0,46,40.74c0,.16,0,.47.3.43"></path><path class="cls-9" d="M75.36,45.82c-.09.25-.3.49-.25.74l.3-.07c.6-.09,1,.39,1.35.77-.8.34-1.68.45-2.48.76-1.47.15-2,2.35-3.54,2.1-1.07-.81,0-2,.1-2.92a4.2,4.2,0,0,0-.76,2.07,1.58,1.58,0,0,0,.78,1.51c1.1.38,1.58-.87,2.39-1.39,1.2-.9,2.71-1,4.06-1.52a2.61,2.61,0,0,0,2.24,1.06c.39-.11.62-.51.81-.83.58-2.07-.13-4.23,0-6.34,1,1.6,2.22,3.06,2.37,5A3.13,3.13,0,0,1,81.11,49V47.61l-.14.34c-.18.63,0,1.55-.74,1.8a1.72,1.72,0,0,0,.6-.25c.11,0,.07.16.07.23.23.68.36,1.71,1.28,1.76.94-.58.83-1.77,1.77-2.4.21-.09.53-.22.71,0,.41.79,1,1.85,2.08,1.76a1.37,1.37,0,0,0,.9-.6,1.83,1.83,0,0,0,0-1.55c.92.79,1.62,2.34,3,2.1.51-.13.6-.65.74-1.05l.11.61a3.91,3.91,0,0,0,2.84,2.23l.07-.54c0-.27-.39-.38-.6-.52-.37-.36-1-.56-1.07-1.08l1.81-.31a3,3,0,0,0,1,1.19c.27.11.69.25.83-.13A1.6,1.6,0,0,0,96,49.44a1.59,1.59,0,0,0-1.19-.2,8.89,8.89,0,0,1-.41-2.81l1.72-.15c.16,0,.25-.2.21-.29l-2,.17a24.71,24.71,0,0,1-.15-3.46l.39.36a14.61,14.61,0,0,0-.73-2.14c-.11,0-.16.29-.25.45.13,1.55.08,3.24.29,4.79-.42.22-1.2-.07-1.29.49L94,46.52c.16.92.18,1.93.36,2.81l-1.26.27a1.2,1.2,0,0,0-.74.94l-.09-.11c-1-2.23-.54-5.06-.88-7.58a9.07,9.07,0,0,0-.54-2.39l-.19.58a49.66,49.66,0,0,1,.51,8.34c0,.27-.25.45-.48.56a1.48,1.48,0,0,1-1.19-.29A75.15,75.15,0,0,0,83.39,44a18.49,18.49,0,0,1,5.19-1.58c.53,0,1.28-.24,1.56.27-.48.58-1.29,1.05-1.36,1.84.46-.92,1.77-1.3,1.73-2.42-.23-.56-1-.41-1.56-.39a15.52,15.52,0,0,0-5.55,1.63,2.49,2.49,0,0,0-.16,1.3l3.2,3.18a4.27,4.27,0,0,1,1.14,1.85,1.27,1.27,0,0,1-1.1.31c-1-.07-1.14-1.19-1.76-1.78-1.24-.14-1.59,1.3-2.07,2.06-.14.25-.39.65-.78.51-.59-.2-.69-.86-.75-1.39a4.17,4.17,0,0,0,1.75-1.75c.69-2.7-1.27-4.79-2.44-7-.3-.34-.27-.9-.64-1.13-.14.34-.37.79,0,1.1.16,2.32.38,4.59.42,6.93,0,.2-.07.43-.3.49a1.73,1.73,0,0,1-1.79-.43c.53-.27,1.35-.2,1.42-1a3.28,3.28,0,0,0-1.28-.79,4.39,4.39,0,0,0-2.85,0M96,50.43v.11a1,1,0,0,1-.76-.47.94.94,0,0,1,.76.36M78.2,46.75l-.69.24-.64-.58a2.44,2.44,0,0,1,1.33.34"></path><path class="cls-9" d="M51,41c-.62.67-1.42,1.05-2.07,1.64A5.4,5.4,0,0,0,51.17,41l.29.13c0-.13.23-.29.07-.43-.34,0-.07-.36-.11-.54.14-.67-.6-.27-.71,0-.27.29,0,.68.28.79m.21-.65,0,.2a.68.68,0,0,1-.3-.2c0-.11.34-.25.32,0"></path><path class="cls-9" d="M96.08,41.94c.23-.47-.09-.9-.36-1.24,0-.13.18-.29.14-.43A1.63,1.63,0,0,0,95.39,42c.21.09.53.16.69-.09m-.52-.79a.84.84,0,0,1,.43.45.67.67,0,0,1-.5.07c-.14-.16,0-.36.07-.52"></path><path class="cls-9" d="M91.93,40.94a3.17,3.17,0,0,1,.41,1.1.57.57,0,0,0-.23.56c.07-.07.32-.23.43,0l-.46.18c-.16.92.27,1.87.25,2.79a6.18,6.18,0,0,0-.22-2.43A2.76,2.76,0,0,1,93,43c.3-.4-.3-.72-.5-1l.28-1c.12-.4.34,0,.48.07l0,0a.51.51,0,0,0-.18-.56c-.6-.07-.44.72-.64,1.08-.18-.45-.23-1.06-.78-1.26l-.23.34c.11.13.27.4.48.29"></path><path class="cls-9" d="M53.58,42.15c.25-.13.3-.43.37-.67-.11.07-.16.34-.37.29-.32-.43,0-1,.1-1.44a2.89,2.89,0,0,0-.4,1.53c0,.14.12.31.3.29"></path><path class="cls-9" d="M86.61,40.41c-1.21.22-2.48.33-3.65.64l-.07.29,3.65-.71Z"></path><path class="cls-9" d="M72.2,42.19l3.63-1,.12-.25-2.25.53c-.48.27-1.33.09-1.49.72"></path><path class="cls-9" d="M47.57,41.82l.23.16a.48.48,0,0,0,.09-.36l-.16-.2c-.62.16-.48.88-.69,1.33a2,2,0,0,0-.43-.88c-.12,0-.3-.18-.39,0s-.3.36,0,.49a.28.28,0,0,0,.34,0,1.42,1.42,0,0,1,.39,1.06,18.81,18.81,0,0,1-2.23,1.88,6.54,6.54,0,0,0,1.7-1c.85-.63.65-1.71,1.2-2.43"></path><path class="cls-9" d="M35,42.55c-.11.09-.21.36-.41.36-.25-.45,0-1,.14-1.46a2.05,2.05,0,0,0-.26,1.84c.41,0,.41-.47.53-.74"></path><path class="cls-9" d="M74.38,42.94,78.05,42l.07-.22c-1.24.24-2.43.53-3.6.87Z"></path><path class="cls-9" d="M43.8,43.2l.23.09c.53-.43-.48-.47,0-.94,0-.16,0-.41-.18-.38a1,1,0,0,0-.64.83c0,.2.28.25.39.36-.57.74-1.49,1.16-2,1.77a6.54,6.54,0,0,0,2.3-1.73m-.36-.65c0-.16.32-.27.32,0l0,.2a.74.74,0,0,1-.3-.16"></path><path class="cls-9" d="M57.66,44.14a1.57,1.57,0,0,0,.34-.67c-.09-.14-.23-.16-.34-.23-.62-.16.11-.52,0-.81L57,42l-.35.67.34.2c.57.11,0,.54,0,.81Z"></path><path class="cls-9" d="M39,43a.36.36,0,0,0,.46,0,2.17,2.17,0,0,1,.44,1c.3-.43.21-1,.46-1.46.09-.2.25,0,.37,0,.11-.11.09-.25.09-.4a.43.43,0,0,0-.27-.16c-.48.27-.42.88-.55,1.33-.12,0-.09-.18-.14-.29s-.27-.59-.62-.59c-.51,1.1-1.73,1.79-2.62,2.58A4.83,4.83,0,0,0,39,43"></path><path class="cls-9" d="M29.35,46.85A9.29,9.29,0,0,0,31,45.65c.83-.65.78-1.66,1.13-2.52a.15.15,0,0,1,.28,0c.18.11.16-.18.18-.29a.43.43,0,0,0-.23-.23c-.53.29-.44,1-.64,1.41a1.32,1.32,0,0,0-.41-.81h-.39c0,.18-.3.31-.09.49s.34.13.39,0a1.85,1.85,0,0,1,.43,1,20.55,20.55,0,0,1-2.3,2.2"></path><path class="cls-9" d="M51.56,43c-.28.34.25.83-.21,1.1-.62.11-.16-.63-.39-.9l-.16.2c0,.25,0,.54.09.88,0,.09.14.27.3.23a.69.69,0,0,0,.44-.43l.18.22c.11,0,.28,0,.34-.07.41-.43-.07-.9-.09-1.35-.25.34,0,.68.11,1-.67.38-.32-.65-.62-.88"></path><path class="cls-9" d="M36.37,42.89c-1.26.63-2.43,1.41-3.65,2.15l-.09.36,3.56-2.19Z"></path><path class="cls-9" d="M97.64,51.38l-.38-6.25.07-.07.37.4a9.84,9.84,0,0,0-.77-2.18l-.25.65c.27,2.95.51,6,.53,8.92a2.94,2.94,0,0,0,.44-1.48"></path><path class="cls-9" d="M73.76,45a.36.36,0,0,0,.34.29.73.73,0,0,0,.3-.63c-.07.11-.18.32-.34.27-.32-.45,0-1,.1-1.42A2.48,2.48,0,0,0,73.76,45"></path><path class="cls-9" d="M95.41,45.35a.63.63,0,0,0,.3-.58.37.37,0,0,1-.32.22c-.39-.43,0-1,.07-1.42A2.33,2.33,0,0,0,95,45a.46.46,0,0,0,.37.36"></path><path class="cls-9" d="M86.76,44.46c.11.07,0,.24.21.23s.25-.07.19-.22-.37-.29-.6-.39c-.41-.09-1.08-.16-1.35.2.3.67,1.3.9,1.4,1.64a8.17,8.17,0,0,1-2-1.69c-.07,1,1.1,1.38,1.74,1.85a.52.52,0,0,0,.57-.22c.1-.83-1-.95-1.33-1.64a1.73,1.73,0,0,1,1.19.25"></path><path class="cls-9" d="M48.64,45.69c0,.18.11.38.34.34a1,1,0,0,0,.3-.65c-.11.09-.16.31-.34.29-.32-.47,0-1.06.12-1.46a2.77,2.77,0,0,0-.42,1.48"></path><path class="cls-9" d="M81.3,44.87l-.3.61.59.52-.3.56a9.1,9.1,0,0,0,.76.61,1.26,1.26,0,0,0,.3-.61,6.33,6.33,0,0,0-.55-.5c0-.13.12-.2.16-.31.25-.43-.41-.65-.66-.88"></path><path class="cls-9" d="M34.05,46.06c-.09.11-.28.27-.16.41s-.07.67.25.85c.32,0,.48-.29.6-.49l.16.2a.36.36,0,0,0,.41-.2c.23-.4,0-.88-.18-1.24-.34.4.27.74,0,1.08-.6.07-.2-.63-.46-.88-.43.25.3.83-.3,1.15-.6,0-.09-.67-.36-.88"></path><path class="cls-9" d="M88.87,47.58c0,.22.09.5.39.47a.64.64,0,0,0,.28-.54l-.28.22c-.48-.38-.07-1,0-1.46a2.39,2.39,0,0,0-.44,1.3"></path><path class="cls-9" d="M92.3,48.4c0,.11.18.29.32.29s.28-.45.3-.58c-.07.09-.14.25-.3.22-.46-.45,0-1,.07-1.46a2.24,2.24,0,0,0-.39,1.53"></path><path class="cls-9" d="M31.36,47.89c.23.07.48.25.67.23.11-.25.32-.45.3-.74l-.69-.27-.3.56-.73-.23-.3.74.69.29c.18-.18.16-.45.37-.58"></path><path class="cls-9" d="M29.22,49.91c.32-.11.39-.56.39-.74a.54.54,0,0,1-.35.36c-.3-.45,0-1,.14-1.48A3.16,3.16,0,0,0,29,49.66c0,.11.09.27.25.25"></path><path class="cls-9" d="M71.87,48.91c.16-.38-.43-.54-.66-.77l-.34.65.59.45c.23.18.28-.22.41-.34"></path><path class="cls-9" d="M52.69,49.11l0-.27-.37.45c-1.4-.32-1.84,1.41-2.87,1.95.55-.09.87-.67,1.29-1,.44-.79,1.33-.18,1.81-.81a.44.44,0,0,0,.57-.11c0-.18.19-.5,0-.65-.07.11-.16.27-.07.41-.07.11-.23,0-.34.07"></path><path class="cls-9" d="M54,50.33a.25.25,0,0,0,.25.23c.27-.09.37-.47.37-.67a.42.42,0,0,1-.35.29c-.37-.43.07-1,.12-1.46A2.5,2.5,0,0,0,54,50.33"></path><path class="cls-9" d="M76.63,51.33a1.63,1.63,0,0,0,1.54-.22c-.51,0-1.17.18-1.56-.16-.07-.67,1-.88,1.06-1.48-.27.11-.64.47-.92,0l.07-.16a.18.18,0,0,1,.34,0c.07-.11.16-.18.19-.29s-.16-.2-.27-.18c-.25.18-.6.45-.6.79a.87.87,0,0,0,.34.36l-.3.47c-.09.22-.19.63.11.79"></path><polygon class="cls-9" points="55.83 50.9 59.5 49.29 59.53 49.06 55.92 50.56 55.83 50.9"></polygon><path class="cls-9" d="M68.49,49.92l-.73-.45-.3.65.73.47.3-.45.69.5.23-.36c.32-.5-.41-.54-.62-.81Z"></path><path class="cls-9" d="M45.55,52.06a1.79,1.79,0,0,0,1.24-.65c-.48.16-1,.52-1.54.22,0-.74,1.08-1,1.06-1.77l-.32.36a.42.42,0,0,1-.55,0l0-.23c.09-.13.28-.18.37,0l.14-.34-.07-.11a1.3,1.3,0,0,0-.76.94c0,.2.18.22.32.31a2,2,0,0,0-.39,1,.35.35,0,0,0,.46.29"></path><path class="cls-9" d="M48.07,51.19c0,.13.09.34.3.29s.28-.43.37-.67l-.3.31c-.46-.36,0-1,0-1.46a3.16,3.16,0,0,0-.39,1.53"></path><path class="cls-9" d="M79.75,51.43a.34.34,0,0,0,.32.27c.28-.09.32-.49.3-.58-.07.09-.16.25-.3.22-.46-.4,0-1,.07-1.46a2.18,2.18,0,0,0-.4,1.55"></path><path class="cls-9" d="M84,52a1.09,1.09,0,0,0,.78-1,.33.33,0,0,0-.41-.29.41.41,0,0,0-.18.38l.07,0a.23.23,0,0,1,.3.09c0,.36-.35.58-.55.81"></path><path class="cls-9" d="M89.22,53.43a.39.39,0,0,0,.36.27.64.64,0,0,0,.26-.56l-.3.22c-.41-.43,0-1,.07-1.44a2,2,0,0,0-.39,1.5"></path><path class="cls-9" d="M95.43,53.31h.07c.32-.14.76-.49.71-.9,0-.22-.23-.31-.43-.31a.46.46,0,0,0-.18.36.29.29,0,0,1,.39.09c.07.36-.39.54-.55.76"></path><path class="cls-9" d="M34,52.82c-.07.29-.3,0-.46,0-.52-.38-.48.43-.67.65l.73.29.3-.56.69.27c.12-.25.34-.47.3-.74l-.69-.29Z"></path><path class="cls-9" d="M92.82,54.38l.21-.07a1,1,0,0,0,.58-1,.34.34,0,0,0-.34-.22c-.21,0-.23.25-.21.38l0,0a.33.33,0,0,1,.34.11c0,.36-.41.54-.6.78"></path><path class="cls-9" d="M31.71,54.62c0,.16.11.34.32.27a1.09,1.09,0,0,0,.34-.74c-.12.14-.19.38-.39.34-.27-.49.09-1,.16-1.44a3,3,0,0,0-.44,1.57"></path><path class="cls-9" d="M97.47,54.69h.09a.29.29,0,0,1,.3.14c0,.31-.37.51-.6.74.11,0,.16,0,.23-.07.32-.2.67-.52.58-.94a.49.49,0,0,0-.37-.23c-.18,0-.23.2-.23.36"></path><polygon class="cls-10" points="102.77 59.3 102.77 59.31 102.71 59.33 102.77 59.3"></polygon><path class="cls-3" d="M71.26,27.42c3.25-.48,5.44,3.53,5.44,3.53-.42-6.43-7.25-5.48-7.25-5.48,1.73-1.36,5.24.37,5.24.37a5.91,5.91,0,0,0-6.2-2.56c.44-.82,3.06-.64,3.06-.64-2.38-2.34-5.16,0-5.16,0a7.66,7.66,0,0,0-1-3.31,7.67,7.67,0,0,0-1,3.31s-2.78-2.35-5.16,0c0,0,2.62-.18,3.06.64a5.91,5.91,0,0,0-6.2,2.56s3.51-1.73,5.24-.37c0,0-6.83-1-7.25,5.48,0,0,2.19-4,5.44-3.53,0,0-7,2-3.63,8.16,0,0-.18-5.13,3.82-6.3,0,0-5.27,4.21-.52,7.76,0,0-1-4,1.77-5.81a7.67,7.67,0,0,0,1.85,8.25s-.78-3.83,1.66-5.93v6.64c0,1-.1,2.08-.15,2.92-.08,1.5-.16,2.61-.16,2.66A8.17,8.17,0,0,0,64,47.34h0l0,.45,0,.56-.11.3,0,.08h0a1.3,1.3,0,0,0-.18.62.84.84,0,0,0,.22.58l-.25,4.72a9,9,0,0,0-1.27,2l-.1.21h6.16l-.1-.21a9,9,0,0,0-1.27-2l-.25-4.72a.84.84,0,0,0,.22-.58,1.29,1.29,0,0,0-.18-.62h0l-.06-.17-.08-.21,0-.61,0-.39h0a8.15,8.15,0,0,0-.21-1.57s-.08-1.14-.16-2.66c0-.83-.12-2-.15-2.92V33.55c2.45,2.1,1.67,5.93,1.67,5.93a7.67,7.67,0,0,0,1.85-8.25C72.56,33.06,71.58,37,71.58,37c4.74-3.55-.52-7.76-.52-7.76,4,1.16,3.82,6.3,3.82,6.3,3.33-6.19-3.63-8.16-3.63-8.16"></path><path class="cls-11" d="M71.26,27.42c3.25-.48,5.44,3.53,5.44,3.53-.42-6.43-7.25-5.48-7.25-5.48,1.73-1.36,5.24.37,5.24.37a5.91,5.91,0,0,0-6.2-2.56c.44-.82,3.06-.64,3.06-.64-2.38-2.34-5.16,0-5.16,0a7.66,7.66,0,0,0-1-3.31,7.67,7.67,0,0,0-1,3.31s-2.78-2.35-5.16,0c0,0,2.62-.18,3.06.64a5.91,5.91,0,0,0-6.2,2.56s3.51-1.73,5.24-.37c0,0-6.83-1-7.25,5.48,0,0,2.19-4,5.44-3.53,0,0-7,2-3.63,8.16,0,0-.18-5.13,3.82-6.3,0,0-5.27,4.21-.52,7.76,0,0-1-4,1.77-5.81a7.67,7.67,0,0,0,1.85,8.25s-.78-3.83,1.66-5.93v6.64c0,1-.1,2.08-.15,2.92-.08,1.5-.16,2.61-.16,2.66A8.17,8.17,0,0,0,64,47.34h0l0,.45,0,.56-.11.3,0,.08h0a1.3,1.3,0,0,0-.18.62.84.84,0,0,0,.22.58l-.25,4.72a9,9,0,0,0-1.27,2l-.1.21h6.16l-.1-.21a9,9,0,0,0-1.27-2l-.25-4.72a.84.84,0,0,0,.22-.58,1.29,1.29,0,0,0-.18-.62h0l-.06-.17-.08-.21,0-.61,0-.39h0a8.15,8.15,0,0,0-.21-1.57s-.08-1.14-.16-2.66c0-.83-.12-2-.15-2.92V33.55c2.45,2.1,1.67,5.93,1.67,5.93a7.67,7.67,0,0,0,1.85-8.25C72.56,33.06,71.58,37,71.58,37c4.74-3.55-.52-7.76-.52-7.76,4,1.16,3.82,6.3,3.82,6.3C78.21,29.39,71.26,27.42,71.26,27.42Z"></path><path class="cls-3" d="M81.25,56.52c-1,.18-2.06.41-3.07.68a27.69,27.69,0,0,0-7,3,34.86,34.86,0,0,0-3.68,2.54c-1.29,1-2.52,2.09-3.72,3.2-.63.58-1.25,1.17-1.87,1.77-.46.44-.91.89-1.38,1.32l-.29.25-.08.07,0,.1a1.42,1.42,0,0,0,1,.93l.1,0,.05-.09a2.35,2.35,0,0,1,.13-.2,3.82,3.82,0,0,1,.38-.46A1.86,1.86,0,0,1,63.16,69a1.33,1.33,0,0,1,.32,0,1.39,1.39,0,0,1,1,1.36,1.69,1.69,0,0,1-1,1.48h0l-.13,0a2,2,0,0,1-.51.06c-.69,0-1.88-.3-3.37-2l-.09-.1-.11.07L59,70.2c-.64.4-1.29.77-1.94,1.14a4.6,4.6,0,0,1-2.24.7,1.68,1.68,0,0,1-1.88-1.58A1.46,1.46,0,0,1,53,70a1.24,1.24,0,0,1,1.28-1,1.93,1.93,0,0,1,.73.14,1.7,1.7,0,0,1,.36.27l.18.18,0,0h0l.27.07h0l.11,0c.27,0,.94-.16,2.41-1.47l0,0v-.09a1.32,1.32,0,0,0-.42-1l-.08-.07-.09.05-.11.06-.31.13a2.91,2.91,0,0,1-1,.19,1.41,1.41,0,0,1-1.06-.42,1.39,1.39,0,0,1-.39-1,1.53,1.53,0,0,1,1.66-1.48h.18a1.66,1.66,0,0,1,1.36,1.09c.29.59.46,1.3.67,1.81l.08.21.16-.16.24-.24h0C71,54.53,84.39,56.05,84.71,56.06l-.92.09q-1.27.15-2.54.37"></path><path class="cls-8" d="M81.25,56.52c-1,.18-2.06.41-3.07.68a27.69,27.69,0,0,0-7,3,34.86,34.86,0,0,0-3.68,2.54c-1.29,1-2.52,2.09-3.72,3.2-.63.58-1.25,1.17-1.87,1.77-.46.44-.91.89-1.38,1.32l-.29.25-.08.07,0,.1a1.42,1.42,0,0,0,1,.93l.1,0,.05-.09a2.35,2.35,0,0,1,.13-.2,3.82,3.82,0,0,1,.38-.46A1.86,1.86,0,0,1,63.16,69a1.33,1.33,0,0,1,.32,0,1.39,1.39,0,0,1,1,1.36,1.69,1.69,0,0,1-1,1.48h0l-.13,0a2,2,0,0,1-.51.06c-.69,0-1.88-.3-3.37-2l-.09-.1-.11.07L59,70.2c-.64.4-1.29.77-1.94,1.14a4.6,4.6,0,0,1-2.24.7,1.68,1.68,0,0,1-1.88-1.58A1.46,1.46,0,0,1,53,70a1.24,1.24,0,0,1,1.28-1,1.93,1.93,0,0,1,.73.14,1.7,1.7,0,0,1,.36.27l.18.18,0,0h0l.27.07h0l.11,0c.27,0,.94-.16,2.41-1.47l0,0v-.09a1.32,1.32,0,0,0-.42-1l-.08-.07-.09.05-.11.06-.31.13a2.91,2.91,0,0,1-1,.19,1.41,1.41,0,0,1-1.06-.42,1.39,1.39,0,0,1-.39-1,1.53,1.53,0,0,1,1.66-1.48h.18a1.66,1.66,0,0,1,1.36,1.09c.29.59.46,1.3.67,1.81l.08.21.16-.16.24-.24h0C71,54.53,84.39,56.05,84.71,56.06l-.92.09Q82.51,56.3,81.25,56.52Z"></path><path class="cls-3" d="M49.57,56.52c1,.18,2.06.41,3.07.68a27.71,27.71,0,0,1,7,3,34.93,34.93,0,0,1,3.68,2.54c1.29,1,2.52,2.09,3.72,3.2.63.58,1.25,1.17,1.87,1.77.46.44.91.89,1.38,1.32l.29.25.08.07,0,.1a1.42,1.42,0,0,1-1,.93l-.1,0-.05-.09a2.35,2.35,0,0,0-.13-.2,3.82,3.82,0,0,0-.38-.46A1.86,1.86,0,0,0,67.66,69a1.32,1.32,0,0,0-.32,0,1.39,1.39,0,0,0-1,1.36,1.69,1.69,0,0,0,1,1.48h0l.13,0A2,2,0,0,0,68,72c.69,0,1.88-.3,3.37-2l.09-.1.11.07.32.21c.64.4,1.29.77,1.94,1.14A4.6,4.6,0,0,0,76,72a1.68,1.68,0,0,0,1.88-1.58,1.46,1.46,0,0,0-.06-.43,1.24,1.24,0,0,0-1.28-1,1.93,1.93,0,0,0-.73.14,1.7,1.7,0,0,0-.36.27l-.18.18,0,0h0l-.27.07h0l-.11,0c-.27,0-.94-.16-2.41-1.47l0,0v-.09a1.32,1.32,0,0,1,.42-1l.08-.07.09.05.11.06.31.13a2.91,2.91,0,0,0,1,.19,1.41,1.41,0,0,0,1.06-.42,1.39,1.39,0,0,0,.39-1,1.53,1.53,0,0,0-1.66-1.48H74a1.66,1.66,0,0,0-1.36,1.09c-.29.59-.46,1.3-.67,1.81l-.08.21-.16-.16-.24-.24h0c-11.65-12.85-25-11.32-25.34-11.31l.92.09q1.27.15,2.54.37"></path><path class="cls-8" d="M49.57,56.52c1,.18,2.06.41,3.07.68a27.71,27.71,0,0,1,7,3,34.93,34.93,0,0,1,3.68,2.54c1.29,1,2.52,2.09,3.72,3.2.63.58,1.25,1.17,1.87,1.77.46.44.91.89,1.38,1.32l.29.25.08.07,0,.1a1.42,1.42,0,0,1-1,.93l-.1,0-.05-.09a2.35,2.35,0,0,0-.13-.2,3.82,3.82,0,0,0-.38-.46A1.86,1.86,0,0,0,67.66,69a1.32,1.32,0,0,0-.32,0,1.39,1.39,0,0,0-1,1.36,1.69,1.69,0,0,0,1,1.48h0l.13,0A2,2,0,0,0,68,72c.69,0,1.88-.3,3.37-2l.09-.1.11.07.32.21c.64.4,1.29.77,1.94,1.14A4.6,4.6,0,0,0,76,72a1.68,1.68,0,0,0,1.88-1.58,1.46,1.46,0,0,0-.06-.43,1.24,1.24,0,0,0-1.28-1,1.93,1.93,0,0,0-.73.14,1.7,1.7,0,0,0-.36.27l-.18.18,0,0h0l-.27.07h0l-.11,0c-.27,0-.94-.16-2.41-1.47l0,0v-.09a1.32,1.32,0,0,1,.42-1l.08-.07.09.05.11.06.31.13a2.91,2.91,0,0,0,1,.19,1.41,1.41,0,0,0,1.06-.42,1.39,1.39,0,0,0,.39-1,1.53,1.53,0,0,0-1.66-1.48H74a1.66,1.66,0,0,0-1.36,1.09c-.29.59-.46,1.3-.67,1.81l-.08.21-.16-.16-.24-.24h0c-11.65-12.85-25-11.32-25.34-11.31l.92.09Q48.31,56.3,49.57,56.52Z"></path><path class="cls-3" d="M98.56,90.76A17.77,17.77,0,0,1,95,95.42,15,15,0,0,1,84.5,99.58,13.93,13.93,0,0,1,73.88,95a16.28,16.28,0,0,1-2.27-3.16c-.24-.43-.41-.79-.52-1v0Z"></path><path class="cls-8" d="M98.56,90.76A17.77,17.77,0,0,1,95,95.42,15,15,0,0,1,84.5,99.58,13.93,13.93,0,0,1,73.88,95a16.28,16.28,0,0,1-2.27-3.16c-.24-.43-.41-.79-.52-1v0Z"></path><polygon class="cls-8" points="84.82 56.09 71.06 90.37 98.58 90.37 84.82 56.09"></polygon><path class="cls-3" d="M59.85,90.76a17.77,17.77,0,0,1-3.55,4.66,15,15,0,0,1-10.52,4.17A13.93,13.93,0,0,1,35.17,95a16.31,16.31,0,0,1-2.27-3.16c-.24-.43-.41-.79-.52-1v0Z"></path><path class="cls-8" d="M59.85,90.76a17.77,17.77,0,0,1-3.55,4.66,15,15,0,0,1-10.52,4.17A13.93,13.93,0,0,1,35.17,95a16.31,16.31,0,0,1-2.27-3.16c-.24-.43-.41-.79-.52-1v0Z"></path><polygon class="cls-8" points="46.11 56.09 32.35 90.37 59.88 90.37 46.11 56.09"></polygon></g></svg> 