<?xml version="1.0" encoding="utf-8"?>
<!-- Generator: Adobe Illustrator 22.0.1, SVG Export Plug-In . SVG Version: 6.00 Build 0)  -->
<svg version="1.1" id="Layer_1" xmlns="http://www.w3.org/2000/svg" xmlns:xlink="http://www.w3.org/1999/xlink" x="0px" y="0px"
	 viewBox="0 0 1000 1000" style="enable-background:new 0 0 1000 1000;" xml:space="preserve">
<style type="text/css">
	.st0{fill:#60605F;}
	.st1{fill:#006E43;}
	.st2{clip-path:url(#SVGID_2_);fill:url(#SVGID_3_);}
	.st3{clip-path:url(#SVGID_5_);fill:url(#SVGID_6_);}
	.st4{clip-path:url(#SVGID_8_);fill:url(#SVGID_9_);}
	.st5{clip-path:url(#SVGID_11_);fill:url(#SVGID_12_);}
	.st6{clip-path:url(#SVGID_14_);fill:url(#SVGID_15_);}
	.st7{clip-path:url(#SVGID_17_);fill:url(#SVGID_18_);}
	.st8{clip-path:url(#SVGID_20_);fill:url(#SVGID_21_);}
	.st9{clip-path:url(#SVGID_23_);fill:url(#SVGID_24_);}
	.st10{clip-path:url(#SVGID_26_);fill:url(#SVGID_27_);}
	.st11{clip-path:url(#SVGID_29_);fill:url(#SVGID_30_);}
</style>
<g>
	<g>
		<g>
			<path class="st0" d="M187.5,785.1c-2.7,0.6-6,1.3-9.7,1.9c-3.7,0.6-7.5,1.2-11.4,1.7c-3.9,0.5-7.6,0.9-11.3,1.2
				c-3.6,0.3-6.7,0.5-9.2,0.5c-5.6,0-11.1-0.5-16.5-1.6c-5.5-1.1-10.4-2.9-14.8-5.4c-4.4-2.6-8-6.1-10.7-10.5
				c-2.7-4.5-4.1-10.2-4.1-17.1v-39.1h19.2v38.3c0,3.5,0.8,6.3,2.5,8.5c1.7,2.2,3.8,3.9,6.4,5.1c2.6,1.2,5.5,2,8.7,2.5
				c3.2,0.5,6.3,0.7,9.4,0.7h5.1c2,0,4.1-0.1,6.2-0.2c2.1-0.1,4.2-0.2,6.2-0.2c2-0.1,3.8-0.2,5.1-0.4v-65h18.9V785.1z M143.3,694.1
				c-3.2,0-5.8-1.1-8-3.3c-2.2-2.2-3.3-4.8-3.3-7.9c0-3.2,1.1-6,3.3-8.2c2.2-2.2,4.9-3.3,8-3.3c3,0,5.7,1.1,7.9,3.3
				c2.3,2.2,3.4,4.9,3.4,8.2c0,3-1.1,5.7-3.4,7.9C149,693,146.3,694.1,143.3,694.1"/>
			<path class="st0" d="M236.9,770.9c-9.6,0-17-2-22.2-6c-5.3-4-7.9-10.4-7.9-19.4v-81.7h18.9v81.7c0,3.3,1.1,5.4,3.3,6.4
				c2.2,1,4.9,1.5,8,1.5h6.1v17.5H236.9z"/>
			<path class="st0" d="M240.4,770.9v-17.5h40.3c1.7,0,3.3-0.2,4.8-0.5c1.5-0.3,2.9-0.8,4-1.6c1.2-0.7,2.1-1.7,2.8-2.8
				c0.7-1.2,1-2.6,1-4.3v-8.2c0-2.1-0.4-3.8-1.2-5.1c-0.8-1.3-1.8-2.4-2.9-3.1c-1.2-0.8-2.5-1.3-3.9-1.6c-1.5-0.3-2.9-0.4-4.4-0.4
				h-34.5v-14.8l62.7-51.2v22.4l-32.3,26.1h3.3c4.8,0,9.2,0.4,13.2,1.3c3.9,0.9,7.3,2.3,10.1,4.3c2.8,2,5,4.7,6.5,8
				c1.6,3.4,2.4,7.5,2.5,12.3v9.9c0,2.9-0.2,5.5-0.6,7.6c1.5,0.5,3.1,0.9,5,1.2c1.8,0.3,3.8,0.4,5.8,0.4h8.3v17.5H325
				c-4.8,0-9-0.5-12.6-1.5c-3.6-1-6.9-2.1-9.9-3.4c-5.2,3.3-12.4,4.9-21.6,4.9H240.4z"/>
			<path class="st0" d="M327.9,770.9v-17.5h6.1c3.2,0,5.8-0.5,8-1.5c2.2-1,3.3-3.1,3.3-6.4v-39.7h18.9v39.7c0,2.3-0.2,4.4-0.5,6.3
				c1.7,0.7,3.6,1.3,5.8,1.7c2.1,0.4,4.3,0.6,6.5,0.6c7.1,0,10.7-3.7,10.7-11.2v-37.2h19.1v38.4c0,1.7-0.2,3.1-0.5,4.3
				c-0.3,1.2-0.6,2.1-0.9,3c1.6,0.8,3.5,1.5,5.9,2c2.4,0.5,4.8,0.7,7.3,0.7c7.1,0,10.7-3.7,10.7-11.2v-37.2h19v37.9
				c0,5.1-0.6,9.4-1.9,12.9c-1.3,3.5-3.1,6.2-5.4,8.3c-2.4,2.1-5.2,3.6-8.6,4.5c-3.4,0.9-7.1,1.3-11.3,1.3c-5.1,0-9.6-0.5-13.4-1.7
				c-3.8-1.1-7.2-2.4-10.4-3.9c-2.1,1.8-4.8,3.2-8.2,4.1c-3.4,0.9-7.1,1.4-11.2,1.4c-8.1,0-16.2-1.2-24.4-3.6
				c-2.4,1.3-5.2,2.2-8.3,2.8c-3.1,0.6-6.5,0.9-10.2,0.9H327.9z"/>
			<path class="st0" d="M513.5,770.9h-49.8v-17.5h20.6v-69.1h18.9v69.1h10.1c3.1,0,5.8-0.5,8-1.5c2.2-1,3.3-3.1,3.3-6.4v-81.7h18.9
				v81.7c0,8.9-2.6,15.4-7.9,19.4C530.5,768.9,523.1,770.9,513.5,770.9 M477.5,796.5h5.4c-0.3-0.6-0.5-1.4-0.7-2.4
				c-0.2-1-0.3-1.7-0.3-2.2c0-2.3,0.4-4.2,1.1-5.8c0.7-1.6,1.7-3,2.9-3.9c1.2-1,2.6-1.7,4.3-2.2c1.6-0.5,3.3-0.8,5-0.8
				c1.4,0,2.9,0.2,4.2,0.7c1.4,0.4,2.8,1.2,4.5,2.2v9.1c-0.8-0.5-1.9-1.1-3.3-1.7c-1.4-0.6-2.8-0.9-4.2-1c-1.4-0.1-2.5,0.1-3.5,0.6
				c-1,0.5-1.4,1.6-1.4,3.2c0,0.5,0.1,1.1,0.3,2c0.2,0.9,0.6,1.7,1,2.3h11v8.6h-26.5V796.5z"/>
			<rect x="560.2" y="663.8" class="st0" width="18.9" height="107.1"/>
			<path class="st0" d="M697,770.9h-30.9c-4.7,0-9.3-0.6-13.7-2c-4.4-1.3-8.3-3.3-11.7-6c-3.4-2.7-6.1-6.1-8.1-10.2
				c-2-4.1-3-9.1-3-14.9c0-4.5,0.8-8.7,2.4-12.6c1.6-3.9,4-7.3,7.2-10.2c3.2-2.9,7.1-5.2,11.8-6.8c4.7-1.7,10-2.5,16.1-2.5
				c1.7,0,3.8,0.2,6.5,0.5c2.6,0.3,5.4,0.7,8.2,1.2c2.8,0.5,5.6,1.1,8.3,1.8c2.7,0.7,4.9,1.5,6.8,2.2V770.9z M650.2,694.2
				c-3.1,0-5.8-1.1-8-3.3c-2.2-2.2-3.3-4.8-3.3-7.9c0-3.2,1.1-6,3.3-8.2c2.2-2.2,4.9-3.3,8-3.3c3.1,0,5.7,1.1,8,3.3
				c2.3,2.2,3.4,4.9,3.4,8.2c0,3-1.1,5.7-3.4,7.9C655.9,693.1,653.3,694.2,650.2,694.2 M678.1,724c-0.9-0.2-2.3-0.5-4.2-0.9
				c-1.8-0.4-4.1-0.6-6.7-0.6c-6.6,0-11.5,1.4-14.6,4.3s-4.7,6.5-4.7,11c0,4.9,1.6,8.8,4.9,11.5c3.3,2.7,7.7,4.1,13.4,4.1h12V724z
				 M678.6,694.2c-3.1,0-5.8-1.1-8-3.3c-2.2-2.2-3.3-4.8-3.3-7.9c0-3.2,1.1-6,3.3-8.2c2.2-2.2,4.9-3.3,8-3.3c3,0,5.7,1.1,8,3.3
				c2.3,2.2,3.4,4.9,3.4,8.2c0,3-1.1,5.7-3.4,7.9C684.3,693.1,681.6,694.2,678.6,694.2"/>
			<path class="st0" d="M722.4,705.9h18.9v75.7c0,8.1-2.4,14-7.1,17.8c-4.7,3.8-10.8,5.7-18.3,5.7c-2.4,0-4.7-0.2-6.9-0.7
				c-2.2-0.5-4.2-1-6-1.6v-15.9c1.8,0.6,3.6,1.1,5.4,1.6c1.8,0.4,3.4,0.6,4.9,0.6c2.8,0,5.1-0.7,6.7-2.1c1.6-1.4,2.4-4.1,2.4-8.1
				V705.9z"/>
			<rect x="760" y="663.8" class="st0" width="18.9" height="107.1"/>
			<path class="st0" d="M803.7,705.9h18.9v75.7c0,8.1-2.4,14-7.1,17.8c-4.7,3.8-10.8,5.7-18.3,5.7c-2.4,0-4.7-0.2-6.9-0.7
				c-2.2-0.5-4.2-1-6-1.6v-15.9c1.8,0.6,3.6,1.1,5.4,1.6c1.8,0.4,3.4,0.6,4.9,0.6c2.8,0,5.1-0.7,6.7-2.1c1.6-1.4,2.4-4.1,2.4-8.1
				V705.9z M812.2,694.1c-3.1,0-5.8-1.1-8-3.3c-2.2-2.2-3.3-4.8-3.3-7.9c0-3.2,1.1-6,3.3-8.2c2.2-2.2,4.9-3.3,8-3.3
				c3,0,5.7,1.1,8,3.3c2.2,2.2,3.4,4.9,3.4,8.2c0,3-1.1,5.7-3.4,7.9C817.9,693,815.3,694.1,812.2,694.1"/>
			<path class="st0" d="M881.1,770.9h-11.8c-4.7,0-9.3-0.6-13.7-2c-4.4-1.3-8.3-3.3-11.7-6c-3.4-2.7-6.1-6.1-8.1-10.2
				c-2-4.2-3-9.1-3-14.9c0-4.5,0.8-8.7,2.4-12.6c1.6-3.9,4-7.3,7.3-10.2c3.2-2.9,7.1-5.2,11.8-6.8c4.7-1.7,10-2.5,16.1-2.5
				c1.7,0,3.8,0.2,6.5,0.5c2.6,0.3,5.4,0.7,8.2,1.2c2.8,0.5,5.6,1.1,8.3,1.8c2.7,0.7,5,1.5,6.9,2.2v63.1c0,6-1.1,11-3.4,15
				c-2.3,4-5.1,7.2-8.6,9.5c-3.5,2.4-7.3,4-11.5,5c-4.2,1-8.3,1.5-12.3,1.5c-8.8,0-16.8-1.7-24.1-5.2v-17.6c4.3,2.4,8.3,4.2,12,5.3
				c3.7,1.1,7.7,1.7,12.1,1.7c4.6,0,8.5-1.3,11.8-3.8c3.3-2.5,4.9-6.5,4.9-11.8V770.9z M881.3,724c-1-0.2-2.3-0.5-4.2-0.9
				c-1.8-0.4-4.1-0.5-6.7-0.5c-6.6,0-11.5,1.4-14.6,4.2c-3.1,2.8-4.7,6.5-4.7,11c0,4.9,1.6,8.8,4.9,11.5c3.2,2.7,7.7,4.1,13.4,4.1
				h12V724z"/>
			<polygon class="st0" points="141.5,903.1 141.5,860.8 126.3,894.3 121.2,894.3 105.8,860.8 105.8,903.1 99.8,903.1 99.8,847.5 
				105.8,847.5 123.9,886.9 141.5,847.5 147.5,847.5 147.5,903.1 			"/>
			<rect x="163.6" y="847.5" class="st0" width="5.9" height="55.6"/>
			<polygon class="st0" points="221,903.1 191.5,858.5 191.5,903.1 185.6,903.1 185.6,847.5 191.2,847.5 220.7,891.9 220.7,847.5 
				226.7,847.5 226.7,903.1 			"/>
			<rect x="242.7" y="847.5" class="st0" width="5.9" height="55.6"/>
			<path class="st0" d="M279,903.5c-8.3,0-13.8-2.1-19-7.3l4.1-4.1c4.6,4.6,8.9,6.1,15.1,6.1c8.1,0,13.1-3.8,13.1-10.3
				c0-2.9-0.9-5.4-2.7-7c-1.8-1.6-3.2-2-7.3-2.7l-6.5-1c-4.4-0.7-7.8-2.1-10.2-4.2c-2.8-2.5-4.2-5.9-4.2-10.4
				c0-9.4,6.8-15.7,17.8-15.7c7.1,0,11.8,1.8,16.6,6.1l-3.8,3.8c-3.4-3.1-7.1-4.8-13-4.8c-7.4,0-11.7,4.1-11.7,10.3
				c0,2.7,0.8,4.9,2.5,6.4c1.7,1.5,4.6,2.6,7.5,3l6.1,0.9c5.2,0.8,7.8,1.9,10.1,3.9c3,2.6,4.7,6.4,4.7,11
				C298.2,897.5,290.6,903.5,279,903.5"/>
			<polygon class="st0" points="327,852.8 327,903.1 321,903.1 321,852.8 305,852.8 305,847.5 343.1,847.5 343.1,852.8 			"/>
			<path class="st0" d="M385.4,903.1l-12.6-24.7h-13.3v24.7h-5.9v-55.6h21.3c9.7,0,16.5,5.9,16.5,15.5c0,8.1-4.9,13.4-12.1,14.9
				l13.2,25.2H385.4z M374.2,852.8h-14.8v20.4h14.8c6.5,0,11.1-3.4,11.1-10.1C385.3,856.2,380.7,852.8,374.2,852.8"/>
			<polygon class="st0" points="419.7,880.1 419.7,903.1 413.8,903.1 413.8,880.1 397.3,847.5 403.7,847.5 416.8,874.1 429.7,847.5 
				436.1,847.5 			"/>
			<path class="st0" d="M495.8,897.8c-3.8,3.8-8.7,5.8-14.2,5.8c-5.5,0-10.5-2-14.2-5.8c-5.2-5.2-5.2-10.7-5.2-22.5
				c0-11.8,0-17.3,5.2-22.5c3.7-3.8,8.7-5.8,14.2-5.8c5.5,0,10.5,2,14.2,5.8c5.2,5.2,5.2,10.7,5.2,22.5
				C501,887.1,501,892.5,495.8,897.8 M491.2,856.3c-2.4-2.5-5.9-4-9.6-4c-3.7,0-7.2,1.5-9.6,4c-3.5,3.6-3.9,7.3-3.9,19
				c0,11.6,0.4,15.4,3.9,19c2.4,2.5,5.9,4,9.6,4c3.7,0,7.2-1.5,9.6-4c3.5-3.6,3.9-7.3,3.9-19C495.1,863.6,494.7,859.9,491.2,856.3"
				/>
			<polygon class="st0" points="520.9,852.8 520.9,873.2 545.3,873.2 545.3,878.5 520.9,878.5 520.9,903.1 515,903.1 515,847.5 
				549.5,847.5 549.5,852.8 			"/>
			<polygon class="st0" points="612.1,903.1 612.1,877.7 585.7,877.7 585.7,903.1 579.7,903.1 579.7,847.5 585.7,847.5 585.7,872.4 
				612.1,872.4 612.1,847.5 618,847.5 618,903.1 			"/>
			<path class="st0" d="M665.6,897.8c-3.8,3.8-8.7,5.8-14.2,5.8c-5.5,0-10.5-2-14.2-5.8c-5.2-5.2-5.2-10.7-5.2-22.5
				c0-11.8,0-17.3,5.2-22.5c3.8-3.8,8.7-5.8,14.2-5.8c5.6,0,10.5,2,14.2,5.8c5.2,5.2,5.2,10.7,5.2,22.5
				C670.9,887.1,670.9,892.5,665.6,897.8 M661,856.3c-2.4-2.5-5.9-4-9.6-4c-3.7,0-7.2,1.5-9.6,4c-3.5,3.6-3.9,7.3-3.9,19
				c0,11.6,0.4,15.4,3.9,19c2.4,2.5,5.9,4,9.6,4c3.7,0,7.2-1.5,9.6-4c3.5-3.6,3.9-7.3,3.9-19C664.9,863.6,664.5,859.9,661,856.3"/>
			<path class="st0" d="M703.4,903.5c-11.2,0-19.4-7.7-19.4-18.8v-37.2h5.9v36.8c0,8.4,5.3,14,13.4,14c8.1,0,13.5-5.5,13.5-14v-36.8
				h5.9v37.2C722.9,895.8,714.7,903.5,703.4,903.5"/>
			<path class="st0" d="M752.5,903.5c-8.3,0-13.8-2.1-19.1-7.3l4.1-4.1c4.6,4.6,8.9,6.1,15.2,6.1c8.1,0,13.1-3.8,13.1-10.3
				c0-2.9-0.9-5.4-2.6-7c-1.8-1.6-3.2-2-7.3-2.7l-6.5-1c-4.4-0.7-7.8-2.1-10.2-4.2c-2.8-2.5-4.2-5.9-4.2-10.4
				c0-9.4,6.8-15.7,17.8-15.7c7.1,0,11.8,1.8,16.6,6.1l-3.8,3.8c-3.4-3.1-7.1-4.8-13-4.8c-7.4,0-11.7,4.1-11.7,10.3
				c0,2.7,0.8,4.9,2.5,6.4c1.7,1.5,4.6,2.6,7.5,3l6.1,0.9c5.2,0.8,7.8,1.9,10.1,3.9c3,2.6,4.7,6.4,4.7,11
				C771.7,897.5,764,903.5,752.5,903.5"/>
			<rect x="784.1" y="847.5" class="st0" width="5.9" height="55.6"/>
			<polygon class="st0" points="841.6,903.1 812.1,858.5 812.1,903.1 806.1,903.1 806.1,847.5 811.7,847.5 841.2,891.9 841.2,847.5 
				847.2,847.5 847.2,903.1 			"/>
			<path class="st0" d="M895.4,897.1c-3.9,4.2-9.1,6.4-14.8,6.4c-5.5,0-10.5-2-14.2-5.8c-5.2-5.2-5.2-10.7-5.2-22.5
				c0-11.8,0-17.3,5.2-22.5c3.8-3.8,8.7-5.8,14.2-5.8c10.6,0,17.8,6.9,19.5,16.6h-5.9c-1.6-7-6.6-11.3-13.5-11.3
				c-3.7,0-7.2,1.5-9.6,4c-3.5,3.6-3.9,7.3-3.9,19c0,11.6,0.4,15.5,3.9,19c2.4,2.5,5.9,3.9,9.6,3.9c4.1,0,8-1.6,10.5-4.8
				c2.3-2.7,3.1-5.8,3.1-10.1v-4.2h-13.7v-5.2h19.6v8.8C900.2,889.2,898.9,893.5,895.4,897.1"/>
			<rect x="255" y="587" class="st1" width="63" height="23.3"/>
			<rect x="369.3" y="587" class="st1" width="221.6" height="23.3"/>
			<rect x="409" y="540.3" class="st1" width="53.5" height="23.3"/>
			<rect x="409" y="493.6" class="st1" width="149.3" height="23.3"/>
			<rect x="535" y="540.5" class="st1" width="23.3" height="69.9"/>
			<rect x="488.3" y="540.5" class="st1" width="23.3" height="69.9"/>
			<rect x="394.8" y="493.6" class="st1" width="23.4" height="70"/>
			<rect x="441.5" y="540.5" class="st1" width="23.3" height="69.9"/>
			<rect x="301.7" y="540.3" class="st1" width="23.4" height="70"/>
			<rect x="255" y="540.3" class="st1" width="23.3" height="70"/>
			<rect x="301.7" y="493.6" class="st1" width="23.4" height="23.3"/>
		</g>
		<g>
			<defs>
				<polygon id="SVGID_1_" points="488.3,108.5 488.3,470.3 511.6,470.3 511.6,108.5 499.9,96.8 				"/>
			</defs>
			<clipPath id="SVGID_2_">
				<use xlink:href="#SVGID_1_"  style="overflow:visible;"/>
			</clipPath>
			
				<linearGradient id="SVGID_3_" gradientUnits="userSpaceOnUse" x1="84.2862" y1="-91.7484" x2="88.1531" y2="-91.7484" gradientTransform="matrix(0 90.7084 90.7084 0 8822.2988 -7455.146)">
				<stop  offset="0" style="stop-color:#27AFA7"/>
				<stop  offset="1" style="stop-color:#2B7349"/>
			</linearGradient>
			<rect x="488.3" y="96.8" class="st2" width="23.3" height="373.4"/>
		</g>
		<g>
			<defs>
				<polygon id="SVGID_4_" points="535,470.3 558.3,470.3 558.3,192 535,168.6 				"/>
			</defs>
			<clipPath id="SVGID_5_">
				<use xlink:href="#SVGID_4_"  style="overflow:visible;"/>
			</clipPath>
			
				<linearGradient id="SVGID_6_" gradientUnits="userSpaceOnUse" x1="84.6341" y1="-91.2" x2="88.501" y2="-91.2" gradientTransform="matrix(0 86.725 86.725 0 8455.9473 -7137.2764)">
				<stop  offset="0" style="stop-color:#27AFA7"/>
				<stop  offset="1" style="stop-color:#2B7349"/>
			</linearGradient>
			<rect x="535" y="168.6" class="st3" width="23.3" height="301.6"/>
		</g>
		<g>
			<defs>
				<polygon id="SVGID_7_" points="628.3,556.5 651.7,556.5 651.7,331.4 628.3,308 				"/>
			</defs>
			<clipPath id="SVGID_8_">
				<use xlink:href="#SVGID_7_"  style="overflow:visible;"/>
			</clipPath>
			
				<linearGradient id="SVGID_9_" gradientUnits="userSpaceOnUse" x1="82.7777" y1="-91.779" x2="86.6446" y2="-91.779" gradientTransform="matrix(0 123.8097 123.8097 0 12003.1416 -10074.2568)">
				<stop  offset="0" style="stop-color:#27AFA7"/>
				<stop  offset="0.7512" style="stop-color:#2B7349"/>
				<stop  offset="1" style="stop-color:#2B7349"/>
			</linearGradient>
			<rect x="628.3" y="308" class="st4" width="23.3" height="248.5"/>
		</g>
		<g>
			<defs>
				<polygon id="SVGID_10_" points="675,470.6 698.4,470.6 698.4,401.7 675,378.3 				"/>
			</defs>
			<clipPath id="SVGID_11_">
				<use xlink:href="#SVGID_10_"  style="overflow:visible;"/>
			</clipPath>
			
				<linearGradient id="SVGID_12_" gradientUnits="userSpaceOnUse" x1="86.1868" y1="-89.025" x2="90.0537" y2="-89.025" gradientTransform="matrix(0 72.5365 72.5365 0 7144.2563 -6004.978)">
				<stop  offset="0" style="stop-color:#27AFA7"/>
				<stop  offset="1" style="stop-color:#2B7349"/>
			</linearGradient>
			<rect x="675" y="378.3" class="st5" width="23.3" height="92.2"/>
		</g>
		<g>
			<defs>
				<polygon id="SVGID_13_" points="441.5,190.5 441.5,470.3 464.9,470.3 464.9,167.1 				"/>
			</defs>
			<clipPath id="SVGID_14_">
				<use xlink:href="#SVGID_13_"  style="overflow:visible;"/>
			</clipPath>
			
				<linearGradient id="SVGID_15_" gradientUnits="userSpaceOnUse" x1="84.5943" y1="-92.0138" x2="88.4612" y2="-92.0138" gradientTransform="matrix(0 87.1626 87.1626 0 8473.3574 -7172.1963)">
				<stop  offset="0" style="stop-color:#27AFA7"/>
				<stop  offset="1" style="stop-color:#2B7349"/>
			</linearGradient>
			<rect x="441.5" y="167.1" class="st6" width="23.3" height="303.2"/>
		</g>
		<g>
			<defs>
				<polygon id="SVGID_16_" points="394.8,260.3 394.8,470.3 418.2,470.3 418.2,237 				"/>
			</defs>
			<clipPath id="SVGID_17_">
				<use xlink:href="#SVGID_16_"  style="overflow:visible;"/>
			</clipPath>
			
				<linearGradient id="SVGID_18_" gradientUnits="userSpaceOnUse" x1="84.7893" y1="-92.3468" x2="88.6562" y2="-92.3468" gradientTransform="matrix(0 85.0586 85.0586 0 8261.3994 -7004.2969)">
				<stop  offset="0" style="stop-color:#27AFA7"/>
				<stop  offset="1" style="stop-color:#2B7349"/>
			</linearGradient>
			<rect x="394.8" y="237" class="st7" width="23.4" height="233.3"/>
		</g>
		<g>
			<defs>
				<polygon id="SVGID_19_" points="348.2,331 348.2,470.3 348.2,610.3 371.5,610.3 371.5,470.3 371.5,307.7 				"/>
			</defs>
			<clipPath id="SVGID_20_">
				<use xlink:href="#SVGID_19_"  style="overflow:visible;"/>
			</clipPath>
			
				<linearGradient id="SVGID_21_" gradientUnits="userSpaceOnUse" x1="85.0505" y1="-92.8208" x2="88.9174" y2="-92.8208" gradientTransform="matrix(0 87.6771 87.6771 0 8498.084 -7197.8843)">
				<stop  offset="0" style="stop-color:#27AFA7"/>
				<stop  offset="1" style="stop-color:#2B7349"/>
			</linearGradient>
			<rect x="348.2" y="307.7" class="st8" width="23.3" height="302.7"/>
		</g>
		<g>
			<defs>
				<polygon id="SVGID_22_" points="301.7,401.5 301.7,470.3 325,470.3 325,378.2 				"/>
			</defs>
			<clipPath id="SVGID_23_">
				<use xlink:href="#SVGID_22_"  style="overflow:visible;"/>
			</clipPath>
			
				<linearGradient id="SVGID_24_" gradientUnits="userSpaceOnUse" x1="86.1963" y1="-92.8383" x2="90.0632" y2="-92.8383" gradientTransform="matrix(0 72.4403 72.4403 0 7038.5684 -5997.3838)">
				<stop  offset="0" style="stop-color:#27AFA7"/>
				<stop  offset="1" style="stop-color:#2B7349"/>
			</linearGradient>
			<rect x="301.7" y="378.2" class="st9" width="23.4" height="92.1"/>
		</g>
		<g>
			<defs>
				<polygon id="SVGID_25_" points="255,468.5 255,517 278.3,517 278.3,445.2 				"/>
			</defs>
			<clipPath id="SVGID_26_">
				<use xlink:href="#SVGID_25_"  style="overflow:visible;"/>
			</clipPath>
			
				<linearGradient id="SVGID_27_" gradientUnits="userSpaceOnUse" x1="85.6118" y1="-93.4482" x2="89.4787" y2="-93.4482" gradientTransform="matrix(0 78.6157 78.6157 0 7613.1621 -6485.7671)">
				<stop  offset="0" style="stop-color:#27AFA7"/>
				<stop  offset="1" style="stop-color:#2B7349"/>
			</linearGradient>
			<rect x="255" y="445.2" class="st10" width="23.3" height="71.8"/>
		</g>
		<g>
			<polygon class="st1" points="208.3,540.3 208.3,587 130.3,587 106.9,610.3 208.3,610.3 231.6,610.3 231.6,587 231.6,516.9 			"/>
			<polygon class="st1" points="745.1,468.3 721.7,445 721.7,493.3 721.7,505.3 721.7,610.3 745.1,610.3 745.1,505.3 			"/>
			<rect x="628.3" y="587" class="st1" width="63" height="23.3"/>
			<rect x="675" y="493.9" class="st1" width="23.3" height="116.4"/>
			<rect x="581.6" y="540.5" class="st1" width="23.3" height="69.9"/>
		</g>
		<g>
			<defs>
				<polygon id="SVGID_28_" points="581.7,517 605,517 605,261.1 581.7,237.7 				"/>
			</defs>
			<clipPath id="SVGID_29_">
				<use xlink:href="#SVGID_28_"  style="overflow:visible;"/>
			</clipPath>
			
				<linearGradient id="SVGID_30_" gradientUnits="userSpaceOnUse" x1="84.496" y1="-90.9307" x2="88.3629" y2="-90.9307" gradientTransform="matrix(0 89.4936 89.4936 0 8731.0371 -7354.8643)">
				<stop  offset="0" style="stop-color:#27AFA7"/>
				<stop  offset="1" style="stop-color:#2B7349"/>
			</linearGradient>
			<rect x="581.7" y="237.8" class="st11" width="23.3" height="279.2"/>
		</g>
		<g>
			<polygon class="st1" points="791.8,540.3 791.8,587 869.8,587 893.2,610.4 791.8,610.4 768.4,610.4 768.4,587 768.4,517 			"/>
			<polygon class="st1" points="651.7,568.6 651.7,560.9 642.1,560.9 642.1,560.9 634.5,560.9 634.5,573.7 628.7,573.7 628.7,581.3 
				651.7,581.3 651.7,573.7 642.1,573.7 642.1,568.6 			"/>
		</g>
	</g>
</g>
</svg>
