<svg xmlns="http://www.w3.org/2000/svg" width="113.013" height="122.882" viewBox="0 0 113.013 122.882">
  <g id="bulb-checkmark" transform="translate(0 0)">
    <path id="Контур_4075" data-name="Контур 4075" d="M42.881,62.313a1.94,1.94,0,0,1,2.781-2.705l6.558,6.755L67.327,50.378a1.941,1.941,0,0,1,2.827,2.66L53.652,70.5h0l-.06.061a1.94,1.94,0,0,1-2.743-.038l-7.968-8.208Zm1.25,39.745a2.273,2.273,0,0,1-.482-4.5c-1.3-7.368-4.851-11.429-8.6-15.72-2.919-3.341-5.95-6.81-8.339-11.919a35.852,35.852,0,0,1-3.6-15.628,36.709,36.709,0,0,1,4.4-16.714c.019-.036.039-.072.059-.107h0A31.758,31.758,0,0,1,43.042,23.943a34.345,34.345,0,0,1,16.1-2.3,36.973,36.973,0,0,1,15.365,4.938A31.688,31.688,0,0,1,87.927,41.787,33.567,33.567,0,0,1,90.466,53.6a34.236,34.236,0,0,1-2.608,13.879C85.195,74.073,81.678,78.164,78.385,82c-3.031,3.527-5.854,6.813-7.418,11.839a2.273,2.273,0,0,1-.212,4.463l-.768.108c-.141,1.1-.232,2.263-.27,3.515l.252-.036a2.273,2.273,0,0,1,.624,4.5l-.778.11c.011.15.02.3.031.454h0a18.421,18.421,0,0,1,.027,2.545l.131-.016a2.277,2.277,0,1,1,.552,4.52l-1.682.206a13.63,13.63,0,0,1-5.866,6.945,12.7,12.7,0,0,1-5.61,1.71,11.553,11.553,0,0,1-5.777-1.135,12.174,12.174,0,0,1-5.293-5.139,2.279,2.279,0,0,1-1.159-2.642,20.23,20.23,0,0,1-.869-3.827l-.069.01a2.273,2.273,0,0,1-.624-4.5l.542-.076q.057-1.847-.019-3.49Zm-41.95-43.2a2.115,2.115,0,0,1-.133-4.227l8.7-.3a2.115,2.115,0,1,1,.132,4.227l-8.7.3Zm108.5-8.6a2.116,2.116,0,0,1,.43,4.21l-8.659.913a2.116,2.116,0,0,1-.43-4.211l8.659-.912ZM94.908,14.783a2.115,2.115,0,0,1,3.515,2.354l-4.836,7.241a2.115,2.115,0,0,1-3.515-2.354l4.836-7.241ZM57.626,2.064a2.114,2.114,0,1,1,4.226.1l-.22,8.7a2.114,2.114,0,1,1-4.226-.1l.22-8.705ZM13.885,15.528a2.117,2.117,0,1,1,2.884-3.1l6.365,5.941a2.117,2.117,0,0,1-2.885,3.1l-6.364-5.942Zm34,81.422,18.492-2.625c1.592-6.7,5.053-10.729,8.8-15.085,3.076-3.578,6.362-7.4,8.76-13.336a30.105,30.105,0,0,0,2.311-12.188A29.419,29.419,0,0,0,84,43.376a27.457,27.457,0,0,0-11.645-13.15,32.7,32.7,0,0,0-13.592-4.374,30.127,30.127,0,0,0-14.128,2.019A27.567,27.567,0,0,0,31.241,39.589a32.53,32.53,0,0,0-3.9,14.731,31.7,31.7,0,0,0,3.2,13.805,45.4,45.4,0,0,0,7.692,10.924c4.238,4.851,8.244,9.439,9.65,17.9Zm17.743,2.073-17.27,2.451q.081,1.647.047,3.47l17.053-2.421c.013-1.235.07-2.4.17-3.5Zm-17.137,10.5a16.436,16.436,0,0,0,.525,2.537l16.553-2.036a13.57,13.57,0,0,0,.055-2.743h0v-.017l-.012-.172-17.121,2.431Zm2.887,6.836a7.248,7.248,0,0,0,5.776,2.274,8.46,8.46,0,0,0,3.736-1.146,9.128,9.128,0,0,0,2.877-2.652l-12.389,1.524Z" fill="#00b2e2"/>
  </g>
</svg>
