<svg xmlns="http://www.w3.org/2000/svg" width="146.101" height="83.64" viewBox="0 0 146.101 83.64">
  <g id="partner-handshake" transform="translate(0.011 0.005)">
    <path id="Контур_4074" data-name="Контур 4074" d="M116.322,16.846a1.9,1.9,0,0,1-.2.654,7.39,7.39,0,0,0-.178,1.7c0,.059.012.119.012.178v41.3a6.825,6.825,0,0,0,1.938,2.877,3.831,3.831,0,0,0,2.663.8,1.439,1.439,0,0,1,.226-.012h11.935a4.742,4.742,0,0,0,4.066-1.427c1.01-1.165,1.593-3.031,1.8-5.54h0v-.036l3.6-37.256a.9.9,0,0,1,.012-.178c.25-2.116-.214-3.495-1.26-4.3-1.2-.927-3.186-1.308-5.765-1.308-.059,0-.119.012-.178.012H121.648V14.29a6.537,6.537,0,0,0-4.446,1.236,3.478,3.478,0,0,0-.88,1.32ZM103.27,62.53a1.993,1.993,0,0,1-.571-1.022L83.679,27.271c-2.116-3.531-4.018-3.614-5.861-2.52a27.319,27.319,0,0,0-4.066,3.293c-.832.761-1.664,1.522-2.366,2.1l-3.269,2.7h0l-.024.012a14.019,14.019,0,0,1-7.608,3.15,10.81,10.81,0,0,1-4.767-.63,8.888,8.888,0,0,1-3.84-2.734,9.181,9.181,0,0,1-1.961-5.076h.012a1.926,1.926,0,0,1,.44-1.379L60.76,13.826a18.529,18.529,0,0,0-5.944.832,31.145,31.145,0,0,0-8.191,4.3,1.93,1.93,0,0,1-1.177.4H33.477V41.988l.048,14.467h6.966a1.883,1.883,0,0,1,1.652.963L50.8,72.5a21.787,21.787,0,0,0,3.768,5.349,8.26,8.26,0,0,0,5.659,1.973,6.913,6.913,0,0,0,2.829-.511,7.8,7.8,0,0,0,1.629-.927L59.071,67.9a1.9,1.9,0,1,1,3.352-1.783l6.1,11.4a9.284,9.284,0,0,0,6.17,1.117,9.23,9.23,0,0,0,4.779-3.019l-8.785-13.79a1.9,1.9,0,1,1,3.21-2.045L83.144,74.31a7.145,7.145,0,0,0,4.672.4,9.58,9.58,0,0,0,4.256-2.77L83.691,56.158a1.909,1.909,0,1,1,3.376-1.783l8.678,16.334a5.55,5.55,0,0,0,3.685.618A6.727,6.727,0,0,0,102.449,70a5.321,5.321,0,0,0,1.8-2.5,5.167,5.167,0,0,0-.25-3.638l-.725-1.331Zm2.52-3.3h6.348V19.378a.678.678,0,0,1,.012-.155,12.084,12.084,0,0,1,.119-1.771L105.8,13.16l-.107-.071c-.844-.559-1.854-1.272-2.865-1.985-3.673-2.568-7.442-5.219-11.519-6.289A31.4,31.4,0,0,0,83.976,3.8a24.729,24.729,0,0,0-6.752.737A16.925,16.925,0,0,0,73.5,5.957,12.934,12.934,0,0,0,70.65,7.977l-4.327,5.147a1.94,1.94,0,0,1-.547.654L53.841,28a5.3,5.3,0,0,0,1.022,2.282,5.211,5.211,0,0,0,2.2,1.557,7.218,7.218,0,0,0,3.115.38,10.3,10.3,0,0,0,5.516-2.306h0l3.269-2.7c.832-.689,1.534-1.331,2.235-1.961a30.386,30.386,0,0,1,4.672-3.756c3.721-2.223,7.43-2.294,11.091,3.852L87,25.4l18.794,33.82Zm7.061,3.816h-5.076a8.713,8.713,0,0,1,.107,5.6,9.137,9.137,0,0,1-3.055,4.327,10.485,10.485,0,0,1-4.779,2.116,9.366,9.366,0,0,1-5.147-.559,13.424,13.424,0,0,1-6.075,3.863,10.639,10.639,0,0,1-6.455-.3A12.879,12.879,0,0,1,75.5,82.358a12.634,12.634,0,0,1-8.179-1.189,12.09,12.09,0,0,1-2.829,1.664,10.386,10.386,0,0,1-4.387.8,11.873,11.873,0,0,1-8.084-2.948,24.244,24.244,0,0,1-4.553-6.289l-8.1-14.122H33.1a11.018,11.018,0,0,1-1.95,4.6c-1.6,2.068-3.947,3.162-7.2,3.091H13.078a6.975,6.975,0,0,1-6.847-2.33c-1.617-1.866-2.71-4.9-3.186-9.344-.012-.048-.012-.107-.024-.166L.192,21.054c-.559-3.78.059-6.455,1.581-8.286s3.852-2.675,6.693-2.805A1.593,1.593,0,0,1,8.7,9.951H23.195v.012a12.28,12.28,0,0,1,6.871,1.581,6.954,6.954,0,0,1,3,4.018h11.8a34.1,34.1,0,0,1,8.809-4.529,23.579,23.579,0,0,1,10.1-.808l3.982-4.707A1.631,1.631,0,0,1,68,5.255a16.774,16.774,0,0,1,3.745-2.663A21.341,21.341,0,0,1,76.285.857,28.971,28.971,0,0,1,84.047,0,36.1,36.1,0,0,1,92.3,1.13C97,2.378,101.07,5.22,105.017,7.989c.88.618,1.759,1.236,2.805,1.926l.107.071,5.73,3.828a6.271,6.271,0,0,1,1-1.106c1.64-1.474,3.982-2.2,7-2.2V10.5H135a.678.678,0,0,1,.155.012c3.412-.012,6.193.606,8.119,2.092,2.14,1.652,3.15,4.161,2.722,7.763,0,.036-.012.059-.012.1l-3.6,37.22h0c-.262,3.329-1.153,5.932-2.722,7.739a8.317,8.317,0,0,1-7.037,2.746H120.768a7.519,7.519,0,0,1-5.254-1.617,9.9,9.9,0,0,1-2.663-3.507ZM16.645,48.574a2.58,2.58,0,1,1-2.58,2.58,2.577,2.577,0,0,1,2.58-2.58Zm112.278,0a2.58,2.58,0,1,1-2.58,2.58,2.577,2.577,0,0,1,2.58-2.58ZM29.662,37.589,29.59,17.464v-.119a3.613,3.613,0,0,0-1.557-2.627,8.846,8.846,0,0,0-4.791-.963h-.024v.012H8.644c-1.8.083-3.162.511-3.935,1.438-.832.987-1.117,2.7-.725,5.349A.785.785,0,0,1,4,20.721l2.829,35.1v.059c.38,3.638,1.165,5.968,2.271,7.251a3.489,3.489,0,0,0,3.519,1.046,1.584,1.584,0,0,1,.333-.036v-.012H23.825a1.088,1.088,0,0,1,.2.012,4.7,4.7,0,0,0,4.089-1.617c.975-1.26,1.45-3.233,1.522-5.777h-.012V37.589ZM87,25.393Z" transform="translate(0 0)" fill="#00b2e2"/>
  </g>
</svg>
