<svg xmlns="http://www.w3.org/2000/svg" width="99.071" height="108.88" viewBox="0 0 99.071 108.88">
  <g id="shield-checkmark-line" transform="translate(-0.001)">
    <path id="Контур_4076" data-name="Контур 4076" d="M49.366,0C67.838,11.709,84.527,17.249,98.849,15.939c2.5,50.593-16.182,80.471-49.292,92.941C17.583,97.209-1.329,68.616.074,15.172,16.887,16.052,33.382,12.417,49.366,0ZM29.935,59.167a2.493,2.493,0,0,1,3.241-3.789l10.184,8.75L65.672,39.6a2.5,2.5,0,1,1,3.691,3.358L45.422,69.28l0,0a2.492,2.492,0,0,1-3.465.216L29.935,59.167ZM49.385,6.251C65.737,16.616,80.509,21.52,93.187,20.36,95.4,65.143,78.863,91.591,49.556,102.628,21.253,92.3,4.511,66.989,5.753,19.68c14.883.78,29.484-2.438,43.632-13.429Z" transform="translate(0)" fill="#00b2e2" fill-rule="evenodd"/>
  </g>
</svg>
