<svg xmlns="http://www.w3.org/2000/svg" width="27.409" height="20.878" viewBox="0 0 27.409 20.878"><g transform="translate(1.377 0)"><path d="M49.344,61H26.753a2.381,2.381,0,0,0-1.032.241L38,73.516l2.751-2.644h0l9.63-9.629A2.381,2.381,0,0,0,49.344,61Z" transform="translate(-25.721 -61)" fill="#bec2d4"/></g><g transform="translate(18.106 1.377)"><path d="M347.275,86.728l-9.062,9.062,9.062,9.062a2.381,2.381,0,0,0,.241-1.032V87.76A2.381,2.381,0,0,0,347.275,86.728Z" transform="translate(-338.213 -86.728)" fill="#bec2d4"/></g><g transform="translate(0 1.377)"><path d="M.241,86.721A2.381,2.381,0,0,0,0,87.753v16.06a2.382,2.382,0,0,0,.241,1.032L9.3,95.783Z" transform="translate(0 -86.721)" fill="#bec2d4"/></g><g transform="translate(1.377 11.575)"><path d="M41.308,277.211l-2.751,2.644a.8.8,0,0,1-1.135,0l-2.644-2.644-9.063,9.062a2.381,2.381,0,0,0,1.032.242H49.338a2.381,2.381,0,0,0,1.032-.241Z" transform="translate(-25.714 -277.211)" fill="#bec2d4"/></g></svg>