<svg xmlns="http://www.w3.org/2000/svg" width="27.409" height="22.27" viewBox="0 0 27.409 22.27"><g transform="translate(0 0)"><path d="M27.409,50.636a11.715,11.715,0,0,1-3.238.887,5.588,5.588,0,0,0,2.472-3.106,11.23,11.23,0,0,1-3.563,1.36,5.619,5.619,0,0,0-9.72,3.842,5.786,5.786,0,0,0,.13,1.281A15.905,15.905,0,0,1,1.908,49.024a5.621,5.621,0,0,0,1.727,7.51A5.549,5.549,0,0,1,1.1,55.842V55.9a5.645,5.645,0,0,0,4.5,5.521,5.608,5.608,0,0,1-1.473.185,4.969,4.969,0,0,1-1.064-.1,5.673,5.673,0,0,0,5.251,3.914,11.291,11.291,0,0,1-6.967,2.4A10.524,10.524,0,0,1,0,67.748,15.819,15.819,0,0,0,8.62,70.27,15.883,15.883,0,0,0,24.613,54.28c0-.248-.009-.488-.021-.726A11.21,11.21,0,0,0,27.409,50.636Z" transform="translate(0 -48)" fill="#bec2d4"/></g></svg>